P2
40 40
255
9 4 1 1 8 2 1 9 1 9 5 10 7 2 6 2 2 4 5 2 2 7 7 2 3 3 12 2 12 4 10 3 11 0 4 15 1 1 6 3
2 20 16 1 1 10 6 0 4 6 1 10 7 2 15 26 84 108 136 152 151 134 104 79 14 12 12 2 9 12 16 2 0 23 8 1 10 20 2 3
2 10 8 2 4 2 0 7 3 23 2 1 37 129 201 202 214 221 227 228 226 222 213 205 210 168 111 35 6 2 10 17 9 3 3 3 2 6 7 1
5 2 1 5 12 2 0 13 20 1 16 151 238 230 235 252 249 248 246 242 241 241 241 241 237 238 240 189 117 24 2 2 21 0 6 18 1 0 8 2
1 12 8 1 4 11 3 1 1 118 218 249 236 230 241 228 241 241 243 244 244 240 238 237 243 217 215 223 243 185 92 3 1 20 11 0 8 9 1 10
1 4 2 4 3 1 3 27 167 225 244 231 224 242 251 245 250 249 244 244 243 242 246 250 246 249 247 214 224 221 201 152 20 8 1 1 9 3 0 8
7 0 0 12 5 1 50 145 236 245 244 252 251 238 239 232 246 244 248 250 250 243 238 238 218 234 251 235 244 236 229 202 138 36 1 17 6 0 1 2
1 9 12 4 1 27 136 253 242 251 242 245 246 244 251 248 251 241 234 232 229 226 230 238 250 229 232 234 245 219 220 223 232 137 26 1 15 12 0 4
2 7 5 4 15 141 233 251 243 252 251 233 251 245 251 233 246 231 213 168 155 158 212 214 235 229 245 247 228 235 247 230 216 207 165 20 2 0 11 0
3 10 3 1 96 206 252 240 251 225 243 251 251 240 250 251 164 21 5 21 27 27 2 48 178 213 244 226 247 248 230 234 229 232 193 110 14 6 5 4
5 10 1 22 197 253 252 241 250 230 251 250 235 252 211 153 13 3 19 1 4 1 9 13 31 120 224 234 243 232 227 249 235 238 227 193 62 5 0 4
5 8 1 112 252 248 241 252 250 249 252 237 239 253 127 17 1 9 43 208 231 176 56 2 2 19 121 228 238 243 249 227 235 228 247 219 145 15 3 1
2 12 13 206 253 237 238 252 252 248 243 249 253 203 36 1 6 10 197 193 232 224 166 2 21 7 44 211 231 235 250 229 239 230 245 222 214 65 8 1
2 17 71 249 241 248 251 242 241 252 249 251 241 127 1 24 10 0 204 243 222 236 223 2 4 15 43 202 242 226 232 249 241 239 229 230 231 136 11 0
3 10 157 249 241 252 252 242 236 252 253 246 227 101 2 16 4 1 138 217 241 209 207 15 2 9 97 205 252 249 236 236 238 236 230 240 220 189 28 1
7 2 222 239 251 247 239 252 250 243 242 253 251 114 19 1 6 1 5 113 158 213 58 1 9 28 213 244 231 229 249 243 238 228 247 247 216 213 55 4
2 13 231 248 249 251 248 252 248 253 248 253 242 201 1 11 15 1 5 7 0 1 1 1 20 190 213 252 239 247 242 238 242 249 241 233 240 208 142 2
6 24 242 253 251 252 250 252 246 253 242 249 253 238 103 1 1 24 2 1 22 17 5 8 49 210 229 227 239 240 249 231 244 249 245 237 241 218 157 4
8 33 253 253 249 252 251 253 252 245 238 253 253 239 222 74 1 1 1 18 7 0 3 6 1 12 208 237 220 251 205 249 245 246 248 241 241 229 174 6
5 33 253 253 245 249 249 251 249 247 244 254 247 237 254 112 2 27 9 0 21 25 3 1 12 1 13 211 242 233 250 220 243 241 247 241 238 235 185 5
1 25 246 252 245 250 250 252 238 254 252 247 245 254 179 29 32 0 46 68 5 0 9 9 9 29 10 99 216 241 227 249 243 241 247 242 238 236 186 5
1 16 234 249 250 254 251 254 246 254 248 247 252 241 71 1 1 62 186 243 194 98 17 0 2 1 4 17 232 251 235 227 245 246 248 242 242 231 177 7
3 6 220 246 254 254 249 253 254 244 248 254 255 193 11 11 20 168 239 237 223 227 170 4 18 1 27 14 215 225 247 249 244 249 246 239 244 221 161 7
4 1 210 242 254 254 245 250 250 248 254 251 251 181 2 0 1 215 242 246 255 237 229 130 4 7 11 2 228 251 228 244 241 250 242 234 243 212 147 4
5 11 144 240 254 242 254 245 254 248 255 246 239 187 21 14 10 189 236 242 255 234 221 185 3 13 8 4 242 233 245 234 248 241 250 224 232 220 97 6
12 0 53 248 237 254 254 254 254 250 251 247 254 218 49 1 2 113 212 249 233 249 236 114 23 2 2 137 220 251 242 243 237 248 234 250 217 213 33 1
2 0 5 190 240 255 255 251 251 254 248 245 254 249 123 27 4 15 94 174 180 150 89 2 2 7 89 237 238 245 250 250 246 246 237 252 232 175 2 3
0 16 8 85 255 246 240 250 246 254 252 244 249 254 215 145 12 3 9 5 1 8 1 2 7 113 216 244 252 233 252 248 251 228 252 231 241 91 14 3
5 11 0 19 209 239 236 254 247 254 254 250 244 249 254 234 193 49 6 8 3 9 6 17 141 236 246 240 236 252 249 246 248 230 252 226 179 10 14 0
5 19 0 0 78 237 254 249 252 250 254 254 254 244 254 248 240 247 245 199 197 233 229 230 244 253 238 253 236 249 251 247 238 252 240 224 81 1 1 3
1 22 10 0 2 141 240 243 254 243 254 249 254 246 245 244 252 253 247 233 253 251 235 252 249 238 244 253 249 235 253 244 243 252 209 138 19 5 0 10
2 1 19 0 17 1 167 254 253 241 254 238 254 249 247 254 252 228 245 253 246 245 252 232 237 252 241 239 236 253 251 238 248 214 174 15 1 7 6 2
0 1 2 0 5 0 38 176 248 251 248 250 254 252 247 253 253 251 250 248 248 248 250 251 247 253 242 242 249 253 254 237 245 202 50 1 20 4 0 7
1 1 3 0 14 1 0 60 194 238 254 251 244 245 246 250 245 247 250 253 253 252 250 249 244 252 251 253 252 231 234 232 189 0 0 41 0 0 10 5
6 2 0 0 8 9 0 1 1 120 220 243 246 254 254 251 243 245 248 250 251 250 248 247 251 252 230 229 248 253 224 164 22 8 3 0 7 21 0 7
3 0 4 0 0 7 10 9 1 12 74 180 253 252 236 244 254 254 254 254 254 253 253 253 237 253 250 252 251 210 117 8 0 35 7 0 16 2 3 6
0 0 8 15 2 0 6 1 12 13 1 1 70 177 236 246 243 245 249 251 253 252 251 250 249 253 237 198 107 14 1 5 15 4 0 18 13 0 20 0
10 5 0 11 5 0 4 0 3 1 10 27 18 1 29 98 210 217 227 235 238 235 229 225 209 139 48 15 6 1 7 7 1 2 18 0 1 22 1 5
11 14 0 0 2 0 13 5 7 4 1 6 4 1 1 19 0 0 6 11 13 11 7 5 1 14 4 3 10 17 19 0 12 0 24 23 0 0 0 10
0 19 5 2 4 0 9 0 1 3 1 1 12 13 3 1 8 6 3 1 1 1 3 4 6 9 1 5 6 0 8 4 0 29 0 0 11 1 6 0
