P2
90 90
255
32 33 34 34 36 36 37 38 37 37 37 36 36 35 34 34 33 32 31 31 31 30 30 29 28 26 24 23 21 19 18 16 15 15 14 13 12 11 11 10 10 10 10 10 9 9 9 8 9 9 10 12 13 14 14 14 14 14 14 14 14 14 13 13 12 12 11 10 9 10 12 13 12 13 14 15 16 17 17 17 17 17 17 17 18 17 16 15 13 12
33 33 34 35 35 36 37 37 38 38 37 37 36 35 34 33 31 30 29 29 29 28 28 27 26 25 23 22 20 19 17 16 14 13 13 12 11 11 11 10 10 10 10 9 9 9 9 9 10 10 11 12 13 14 14 14 13 14 14 14 14 13 13 13 12 12 11 10 10 10 11 13 13 13 14 15 16 17 17 17 18 18 17 18 18 18 17 15 16 15
33 33 34 35 35 36 37 37 38 38 37 36 35 33 32 31 29 28 26 26 26 25 25 24 24 23 22 20 19 18 16 15 12 12 11 11 10 10 10 10 10 10 10 9 9 9 10 10 10 11 12 12 13 14 14 14 14 14 14 14 14 14 13 13 12 12 12 11 10 10 11 12 13 13 14 16 16 17 18 18 18 18 18 18 19 18 17 16 16 16
33 33 34 35 35 36 37 37 37 37 36 34 33 31 30 29 27 25 24 23 23 23 23 22 23 22 20 19 18 17 16 15 12 11 11 10 9 9 9 9 10 9 9 9 9 9 10 11 11 11 12 13 13 13 14 14 15 15 15 15 14 14 14 13 12 12 12 11 10 10 10 11 13 14 15 16 17 18 18 18 19 18 18 19 19 19 18 17 16 16
34 34 34 35 35 36 36 36 37 36 35 34 32 30 28 27 26 24 23 22 22 22 22 21 22 21 20 19 18 17 16 15 13 12 11 10 9 8 8 8 8 8 8 8 9 9 10 10 11 11 12 13 13 13 13 13 16 16 16 16 15 15 14 14 13 12 12 11 10 9 10 11 14 14 15 16 17 18 18 19 19 19 19 19 20 19 18 17 18 17
35 35 35 35 35 35 35 35 37 36 35 34 32 30 29 28 26 25 23 22 22 22 22 22 21 20 19 18 17 16 15 14 13 13 11 10 8 7 7 6 7 7 8 8 9 9 10 10 11 12 12 13 14 14 14 14 17 17 17 16 16 15 15 15 13 13 12 10 9 9 10 12 14 15 16 17 18 18 19 19 19 19 19 20 20 20 19 18 18 17
36 36 35 35 35 35 34 34 36 35 35 33 32 30 29 28 26 25 23 22 22 22 22 22 21 20 18 17 17 16 14 13 13 12 11 9 8 7 6 6 6 7 8 9 10 10 10 10 12 12 13 14 14 15 15 15 17 17 17 17 16 16 15 15 13 13 11 10 9 9 11 12 14 15 16 17 18 19 19 19 20 20 20 21 22 22 21 20 18 17
36 36 36 35 35 34 34 34 35 34 33 32 31 30 28 28 27 25 23 22 22 23 23 22 20 19 18 17 16 15 14 13 12 11 10 9 8 7 6 6 6 7 8 10 11 11 10 10 13 13 14 15 15 16 16 16 17 17 17 16 16 15 15 14 14 13 11 9 8 9 11 13 15 15 16 17 18 19 19 19 21 21 21 22 23 22 22 21 18 18
36 36 36 35 35 34 34 33 32 33 32 31 31 30 28 26 26 24 22 21 22 22 21 20 21 19 17 15 14 13 11 11 10 9 8 7 7 6 6 6 6 6 7 8 9 10 10 11 10 13 15 15 16 17 16 14 18 18 17 17 16 15 14 13 12 12 12 11 9 9 10 14 14 15 17 18 18 19 20 21 24 22 21 22 23 24 22 19 18 16
37 36 36 35 35 34 34 33 33 33 32 30 29 30 28 26 26 24 22 21 21 20 19 18 17 16 14 12 11 11 10 9 9 9 8 7 6 6 6 7 7 7 8 9 10 10 11 12 13 15 16 15 16 18 18 17 18 18 17 17 16 15 14 14 13 12 9 7 9 11 13 12 14 15 17 18 18 19 20 21 22 24 24 23 21 21 21 21 17 15
37 36 36 35 34 34 33 33 33 32 31 29 28 29 28 26 25 23 21 19 19 18 17 15 13 12 10 10 9 9 9 8 8 8 7 7 6 6 7 7 8 8 9 10 11 11 12 12 14 15 16 16 16 18 18 17 18 18 17 16 16 15 15 15 13 15 14 11 9 11 14 14 15 16 17 18 19 20 20 21 22 23 23 21 22 24 24 22 21 17
37 36 36 35 34 33 32 32 31 31 30 28 28 28 27 25 24 22 20 18 17 16 14 13 11 10 9 8 8 9 9 9 7 7 7 6 6 7 7 8 9 9 10 10 11 12 13 13 13 15 17 18 19 19 17 16 18 18 17 16 16 16 16 16 11 11 12 11 10 10 11 12 16 17 18 19 20 20 21 21 23 24 23 20 21 23 23 20 21 16
36 35 35 34 33 32 31 31 29 30 30 29 28 28 26 23 23 21 19 17 16 15 13 11 9 8 8 7 8 8 9 8 7 7 6 6 6 7 8 8 9 9 10 11 11 12 13 13 15 17 18 19 20 19 18 18 19 19 18 18 17 17 17 16 15 11 10 12 14 13 13 15 17 17 18 19 20 21 21 21 22 24 23 23 24 26 24 19 17 14
35 35 34 33 31 30 29 29 27 28 29 28 28 28 25 23 23 21 18 17 16 15 12 11 9 8 7 7 7 8 8 7 7 7 6 6 7 7 8 9 10 10 10 11 12 12 13 13 17 17 17 19 19 18 18 19 20 20 20 19 19 18 17 17 17 16 15 14 11 10 12 18 18 18 19 20 21 22 22 22 23 19 20 32 49 57 47 31 24 18
34 34 33 31 30 29 28 28 26 27 28 27 27 27 26 23 22 20 18 17 16 15 13 11 10 9 8 7 7 8 7 7 7 7 7 7 7 8 9 9 10 10 11 12 12 13 13 14 16 17 19 23 23 21 18 18 21 21 22 21 21 19 18 17 13 16 17 13 12 15 16 16 19 19 19 20 22 23 22 22 23 22 30 56 91 107 89 63 36 27
33 33 32 31 29 28 27 27 26 27 27 26 26 27 26 24 22 20 18 17 17 15 13 12 12 10 9 8 8 8 8 7 7 7 7 7 7 8 9 9 11 11 11 12 13 13 14 14 17 20 25 31 31 27 21 20 23 23 24 24 23 21 19 19 19 19 17 20 34 45 37 21 20 20 19 20 22 23 23 22 23 31 51 84 120 136 121 97 81 75
32 31 29 28 27 27 26 26 23 26 27 25 24 26 25 23 23 21 19 18 17 16 15 13 13 12 11 9 8 7 7 7 6 6 6 6 7 8 9 10 13 8 11 14 11 16 20 14 22 17 28 124 108 104 55 25 28 29 30 25 35 25 28 25 23 27 29 68 158 180 117 74 43 21 22 20 22 23 23 26 37 65 90 106 120 123 113 104 95 98
31 30 29 27 26 26 25 25 23 26 27 25 25 26 25 23 23 21 19 18 18 17 16 14 13 12 11 9 8 7 7 7 6 6 6 6 7 8 9 10 8 13 12 13 19 13 7 21 19 22 49 162 156 153 127 131 159 160 157 162 149 153 155 140 129 97 145 184 188 173 93 93 95 52 23 22 25 27 42 55 77 104 120 113 102 99 97 93 92 95
29 28 28 27 25 24 24 24 24 27 28 26 25 26 25 23 24 22 20 19 19 18 17 15 14 13 11 9 8 8 8 8 6 6 6 6 7 8 9 10 9 11 14 8 12 22 18 19 22 43 151 221 206 168 128 131 165 191 179 182 180 182 179 177 157 199 203 183 228 96 59 58 71 58 32 26 40 57 80 102 113 128 130 105 83 86 91 83 60 62
27 27 26 26 25 23 23 23 25 27 28 27 26 26 25 23 24 23 21 20 20 19 18 17 16 15 13 10 9 8 7 7 6 6 6 6 8 9 9 9 10 7 17 15 13 16 17 28 51 106 136 125 109 125 139 77 79 136 152 171 171 180 167 152 149 168 174 166 136 76 51 54 76 19 32 62 83 98 118 126 128 124 112 88 77 94 98 76 53 54
26 25 25 25 24 22 22 24 26 27 28 27 26 26 25 24 25 23 21 20 20 20 18 17 18 16 14 11 9 8 7 7 6 6 6 6 7 8 9 10 8 14 14 12 19 20 34 77 172 178 131 101 59 91 92 66 66 82 92 146 163 134 129 173 169 185 176 157 76 70 72 49 76 21 60 82 106 122 126 136 137 123 106 89 86 103 98 66 40 41
24 23 23 24 23 21 22 25 26 27 28 28 27 26 25 25 26 24 22 21 21 20 19 18 18 17 14 12 9 7 6 6 6 6 6 6 7 8 9 10 11 10 11 17 20 37 105 187 207 181 136 35 73 89 87 80 60 73 94 146 127 166 177 177 172 189 173 134 141 69 51 57 77 19 72 102 113 126 127 120 124 111 98 83 73 78 70 45 26 25
23 21 21 22 21 19 21 25 26 27 28 28 28 26 26 26 27 25 23 22 22 21 20 18 17 16 13 11 9 7 6 6 5 5 5 6 7 9 10 11 15 17 14 25 62 128 184 182 181 135 131 19 22 73 68 65 61 56 127 160 175 155 171 155 183 185 155 127 102 80 62 52 44 58 84 91 102 112 113 108 96 82 69 55 40 36 34 23 22 20
22 20 20 21 20 18 21 26 26 27 28 29 28 27 26 26 28 26 24 23 23 22 20 19 16 15 12 10 8 7 6 6 5 5 5 6 7 9 10 11 11 12 27 95 152 159 158 146 116 134 102 19 69 75 61 48 53 66 114 131 121 164 188 176 166 169 186 159 94 89 68 40 46 66 46 72 94 92 98 105 89 69 50 37 25 22 25 22 22 20
19 19 19 18 18 19 21 23 25 27 28 28 28 28 26 24 27 26 25 25 24 22 20 19 17 15 13 9 6 4 5 6 4 1 7 8 7 9 12 11 14 25 94 150 129 148 116 144 104 147 88 18 35 40 57 32 58 85 144 109 187 183 224 98 111 148 110 91 86 86 98 97 76 42 31 48 79 89 95 93 66 60 45 29 21 20 20 20 19 18
19 19 19 18 19 20 22 23 25 27 29 29 29 30 28 26 28 27 26 26 25 23 21 20 15 14 11 8 4 3 3 3 1 11 1 6 4 9 9 16 48 107 137 133 126 121 117 145 88 133 114 45 45 38 37 36 56 83 151 193 166 159 137 61 74 107 102 105 92 90 84 84 57 33 22 29 55 78 93 88 66 55 46 36 23 19 23 22 19 19
18 18 18 18 18 20 22 23 24 27 29 30 30 31 30 28 29 28 27 26 25 23 21 19 15 13 10 7 4 2 1 2 3 4 2 4 9 9 19 59 110 117 119 125 123 110 94 131 121 194 161 63 60 40 48 49 57 162 149 164 189 165 132 90 132 138 93 83 85 88 101 108 40 20 14 18 34 56 77 78 77 67 66 56 32 20 21 15 18 18
16 16 16 16 17 18 20 22 23 26 29 30 31 31 31 29 28 27 26 25 24 22 19 18 15 13 10 7 4 2 2 1 6 1 3 9 7 8 38 105 104 115 105 115 116 98 92 127 79 114 124 133 137 90 74 65 183 168 167 173 202 183 183 172 154 82 73 82 92 95 116 126 37 14 15 30 39 48 65 76 79 75 71 56 34 22 22 18 18 18
14 15 15 16 16 18 20 21 23 26 29 30 30 30 30 29 28 27 26 24 23 21 19 17 15 13 10 7 4 3 2 1 1 9 3 3 15 32 86 91 124 116 154 140 130 113 138 161 62 78 91 141 167 170 106 97 130 93 152 180 156 198 183 141 77 69 78 83 88 83 91 53 33 18 26 48 49 43 53 69 77 77 71 65 58 38 23 21 18 18
14 15 16 16 16 18 20 21 22 25 28 29 29 29 29 28 28 27 26 25 24 22 19 18 15 13 10 7 4 3 1 1 7 1 4 9 12 74 114 134 183 165 113 192 192 187 162 177 86 51 42 63 76 93 84 78 81 90 87 94 86 101 101 85 72 59 102 106 41 18 39 60 35 44 57 60 39 26 34 51 67 60 53 61 69 45 20 20 20 19
14 14 15 16 16 17 19 20 20 24 27 28 28 28 28 28 28 27 26 25 24 22 20 18 14 12 9 7 5 3 2 1 1 3 8 18 93 111 168 90 137 107 89 142 137 139 116 110 31 22 20 25 50 50 60 61 70 64 75 83 93 80 96 96 101 108 92 68 38 39 60 55 52 74 77 58 27 17 20 36 39 28 19 24 33 27 18 22 20 19
13 14 14 15 15 16 17 19 19 23 27 28 28 28 29 28 28 27 26 25 23 22 19 18 15 13 10 7 6 4 3 1 9 1 14 73 126 125 127 85 112 96 85 105 95 122 98 69 32 24 28 28 38 64 57 70 70 75 74 78 86 95 102 116 82 48 32 47 64 51 57 61 63 77 63 39 21 20 17 23 24 23 21 18 18 20 20 15 19 19
13 12 13 13 14 15 16 17 21 22 23 25 26 27 27 27 27 27 25 24 23 22 19 17 14 10 12 11 4 4 4 2 4 9 46 84 158 134 142 129 110 90 72 59 51 52 50 37 35 33 53 50 47 71 65 73 72 91 91 87 88 97 92 53 34 24 25 38 56 55 46 62 69 57 43 21 20 17 18 19 19 19 19 19 18 18 18 18 18 18
12 12 12 13 14 15 16 17 20 21 22 24 25 26 26 26 26 25 24 23 22 21 18 17 13 16 5 4 7 3 4 2 5 36 95 66 134 111 70 69 78 87 63 27 17 16 21 17 47 48 54 64 65 70 81 83 93 96 93 94 86 68 52 38 34 29 35 36 55 52 27 46 67 56 39 16 19 19 19 15 19 19 19 18 18 18 18 18 18 18
12 12 12 12 13 14 15 16 18 19 21 22 23 24 24 24 25 24 23 22 21 19 17 16 13 8 9 12 10 5 4 9 33 93 104 63 77 67 48 52 51 61 65 60 41 23 27 27 40 48 57 74 74 85 100 112 105 79 75 90 102 91 61 38 29 23 22 26 51 40 15 35 48 56 48 24 19 18 19 17 18 18 18 18 18 18 18 18 18 18
11 11 11 11 12 13 14 14 16 17 19 20 21 22 23 23 23 22 22 21 20 19 17 15 17 8 13 6 6 9 8 29 98 116 126 43 45 34 47 44 88 71 44 64 65 61 29 40 32 59 50 84 84 92 106 96 78 76 103 115 113 109 77 43 18 18 9 17 34 18 12 19 24 49 51 31 20 16 19 20 18 18 18 18 18 18 17 17 16 16
11 11 10 10 11 12 13 13 15 15 17 18 20 20 21 21 22 21 21 20 20 19 17 15 14 11 11 11 8 4 35 96 97 72 84 44 59 44 91 160 157 105 90 42 55 63 69 35 61 73 84 92 86 83 62 55 97 98 113 112 117 114 67 33 20 15 12 13 15 9 17 11 17 41 38 23 20 19 19 16 18 18 18 18 18 17 17 16 15 15
10 10 10 10 10 11 11 12 13 14 15 17 18 19 19 19 21 20 20 20 19 18 17 15 11 13 9 16 11 30 91 111 109 55 101 88 117 121 117 113 128 100 83 54 57 61 65 79 56 67 65 53 42 30 63 87 93 100 99 93 103 97 68 71 71 19 15 14 13 11 15 15 27 47 31 19 18 19 19 16 18 18 18 18 17 17 16 15 13 13
10 9 9 9 9 10 10 11 12 13 14 16 17 18 18 18 20 19 19 19 19 18 16 15 15 19 11 10 32 91 121 82 104 125 114 121 110 97 99 115 103 99 78 43 47 59 70 60 82 64 46 44 58 65 70 78 86 96 104 108 120 117 107 124 118 32 17 14 16 11 9 13 29 48 28 19 17 17 17 20 17 18 18 17 16 15 14 13 13 13
10 9 9 9 9 9 10 10 12 13 14 15 17 17 18 18 19 19 18 18 18 17 16 15 13 12 16 29 80 115 108 126 129 112 109 115 117 103 116 70 78 82 44 28 49 44 56 63 66 80 57 69 62 71 76 82 86 91 108 111 105 114 119 116 102 36 17 11 15 13 20 12 17 35 17 15 17 17 17 19 17 17 17 17 16 14 13 12 13 13
10 10 9 8 8 9 9 10 11 11 12 13 15 16 17 18 20 17 19 20 18 18 15 15 18 9 34 84 125 128 128 117 106 97 100 94 94 86 89 58 63 78 25 31 47 30 44 56 58 69 74 77 69 71 73 87 87 91 102 99 72 49 59 86 52 24 18 15 12 16 13 18 17 17 17 18 18 18 18 17 18 17 17 16 15 14 13 12 11 11
11 10 9 8 8 8 9 10 10 10 11 13 14 16 18 18 19 18 19 16 17 20 14 13 16 35 91 135 134 117 114 94 93 86 77 71 70 64 74 53 36 47 68 67 65 11 17 38 48 62 67 81 82 74 84 73 84 96 108 106 47 18 21 41 34 15 16 17 16 19 13 14 15 17 17 18 18 18 18 18 18 18 17 17 16 14 13 13 12 12
11 10 9 8 8 8 9 9 9 9 10 12 14 16 17 18 17 20 19 15 18 19 14 19 27 86 130 122 104 97 94 74 68 66 55 49 38 27 30 22 46 64 44 27 24 9 17 9 35 38 54 66 70 100 93 92 89 82 90 111 38 16 16 39 29 15 16 16 15 19 15 15 15 16 16 17 17 18 18 19 18 18 18 17 16 15 14 14 13 13
11 10 9 9 8 8 8 9 8 9 10 11 13 15 16 17 14 20 20 17 18 13 15 40 110 119 104 85 79 71 70 72 75 59 40 31 30 32 32 35 51 70 84 80 56 66 54 60 46 36 38 43 49 58 57 69 79 69 87 114 28 17 14 45 29 19 18 14 14 17 17 17 17 17 16 17 17 17 18 19 19 19 18 18 17 17 16 15 14 14
11 11 10 9 9 8 9 9 9 9 10 11 12 14 15 16 18 18 16 14 16 16 43 100 98 86 87 105 105 96 100 106 127 123 127 109 92 87 85 110 89 80 96 89 78 91 96 96 103 89 90 25 37 29 35 39 39 45 84 109 39 42 27 40 19 16 17 16 15 18 17 16 18 18 17 17 17 17 17 17 18 18 19 18 18 18 17 17 15 15
11 11 10 10 9 9 9 9 10 10 10 11 12 14 15 15 13 15 18 21 19 13 36 92 87 102 106 109 105 108 112 112 100 92 103 96 94 91 78 89 98 88 77 90 92 48 30 31 93 89 101 25 37 49 45 45 39 43 84 113 70 47 22 17 16 16 16 16 16 17 17 17 19 19 18 18 17 17 16 16 18 18 18 19 19 19 19 19 18 18
11 11 10 10 10 10 10 10 10 10 11 12 13 14 15 16 19 18 16 14 17 21 43 88 106 117 105 102 100 92 76 72 51 37 33 20 20 18 27 39 60 78 73 76 91 94 50 31 27 31 25 37 42 41 50 45 40 44 80 111 88 25 17 17 19 20 16 15 16 15 17 19 19 19 19 19 18 17 16 16 17 17 18 19 19 20 20 20 20 20
11 11 11 10 10 10 10 10 9 10 10 12 13 15 16 17 16 19 21 18 19 17 18 34 54 55 53 55 35 27 24 19 14 7 5 1 7 1 18 20 35 62 72 89 83 100 101 43 35 28 20 38 40 52 63 47 43 47 68 97 99 20 24 14 15 18 15 16 18 15 16 18 18 19 19 19 19 18 17 16 16 17 18 19 20 20 20 21 22 22
12 11 11 10 10 10 10 10 10 13 11 13 16 16 17 20 16 21 87 25 21 20 20 45 18 14 27 59 45 29 35 44 17 9 5 9 7 11 22 22 24 33 98 95 79 84 88 107 51 35 31 37 49 66 82 58 65 85 75 93 61 23 16 18 16 16 16 17 17 17 17 17 17 17 18 18 18 18 17 17 16 16 16 17 17 18 20 22 22 22
12 12 12 11 11 11 10 10 13 11 9 16 15 19 19 23 26 37 80 71 49 53 51 67 31 15 22 63 61 56 66 59 40 36 27 2 16 49 44 40 61 45 52 93 107 89 62 96 99 62 41 41 42 70 72 68 58 62 73 74 23 15 27 17 17 17 17 17 17 17 17 17 16 17 18 18 18 18 18 17 17 17 17 17 17 18 20 21 24 24
12 12 12 13 12 12 11 11 14 10 17 10 17 22 98 17 21 91 67 83 93 72 63 72 60 47 60 63 55 74 67 44 24 25 18 18 36 61 64 26 28 47 44 52 98 98 86 83 98 99 85 26 58 56 42 50 47 59 43 39 62 66 22 17 17 17 17 17 17 17 17 17 16 17 18 18 19 19 19 18 19 19 19 18 18 18 20 21 25 25
12 13 13 14 13 13 12 11 9 15 13 10 23 80 86 81 83 63 58 66 41 46 44 95 43 71 62 96 112 59 25 10 13 9 18 16 29 54 37 12 29 67 44 10 71 87 99 101 92 95 112 95 54 66 51 50 48 28 18 13 12 24 18 21 18 17 17 17 17 16 16 16 16 17 17 18 19 19 20 20 20 20 20 20 19 19 20 21 25 25
12 13 14 14 14 13 12 12 17 11 14 13 17 44 70 61 64 64 61 79 47 45 46 80 59 66 50 72 80 38 24 17 14 12 16 49 78 69 14 17 23 41 30 24 22 45 77 108 105 69 86 102 113 74 54 51 37 14 12 20 14 16 14 13 17 17 17 17 16 16 16 15 16 16 17 18 19 20 21 22 21 22 22 21 21 21 22 23 25 25
13 13 13 14 14 13 13 12 9 12 16 12 16 48 78 45 57 83 90 43 27 17 18 91 96 69 79 69 46 27 22 48 46 7 9 24 105 63 45 33 42 59 36 40 26 36 26 44 45 39 76 103 121 71 60 62 32 16 12 20 16 18 24 19 17 17 17 16 16 16 15 15 16 16 17 18 19 21 23 23 23 24 24 24 23 24 25 25 25 25
13 13 13 13 13 13 13 13 13 9 13 12 16 38 65 43 35 43 86 61 41 72 52 37 72 79 55 43 82 88 68 63 29 15 33 22 22 38 35 54 71 89 69 60 37 38 33 37 46 44 54 51 49 46 52 55 53 40 23 15 16 18 18 17 17 17 17 16 16 16 16 16 16 16 17 18 19 22 23 25 26 26 27 26 26 26 27 27 27 27
13 13 12 12 12 12 13 13 13 11 16 16 11 23 62 57 41 60 27 73 43 78 67 55 63 64 63 51 62 62 59 69 48 17 13 14 29 27 31 48 54 99 59 34 28 43 40 43 53 39 36 46 44 60 52 56 62 59 59 42 28 20 13 19 17 17 17 17 16 16 16 16 16 16 16 18 20 22 24 25 28 29 29 28 27 27 28 28 29 29
14 12 13 10 16 9 14 12 14 12 13 13 22 36 62 71 40 68 105 83 60 53 72 42 39 34 48 80 68 66 69 52 19 9 10 8 7 12 32 30 54 63 87 14 36 31 47 58 46 27 15 15 32 58 52 61 77 58 25 43 63 24 18 16 17 17 17 16 16 16 16 15 16 16 17 18 20 23 25 27 28 30 31 30 28 29 31 32 31 32
14 20 16 10 12 14 10 15 13 19 31 26 19 56 46 40 65 51 39 56 56 38 35 28 22 92 61 79 83 51 57 15 10 4 3 15 10 1 21 28 53 89 66 68 30 29 52 24 14 19 7 18 32 58 26 33 61 56 37 18 17 14 19 17 17 17 16 16 16 16 15 15 14 15 15 17 20 23 25 27 29 31 33 31 31 31 32 33 33 34
23 22 16 13 15 17 12 19 14 25 85 84 87 82 103 63 91 36 54 33 47 39 27 33 31 40 70 95 70 32 8 18 28 23 9 4 4 10 36 41 61 29 41 35 29 38 52 33 17 9 17 20 18 61 32 20 40 41 60 38 19 21 16 13 16 16 16 16 16 16 15 15 13 14 15 17 20 23 26 28 30 33 34 34 33 34 35 34 35 36
75 52 16 18 9 15 55 38 23 52 88 79 66 72 78 101 90 69 80 53 47 16 10 27 29 20 48 76 53 14 27 28 24 23 8 2 13 43 54 48 36 16 15 27 43 25 56 38 15 12 18 11 15 42 45 15 17 9 42 37 12 12 13 21 16 16 16 16 16 16 16 15 14 14 15 17 20 24 27 30 31 33 36 36 36 37 37 36 38 39
64 92 33 46 57 52 84 83 89 75 69 53 93 98 104 89 102 74 69 46 9 4 28 28 49 76 37 48 32 37 17 17 10 15 6 14 36 45 40 30 28 20 18 31 40 38 36 22 18 15 13 20 11 15 69 28 20 16 43 47 22 16 15 14 16 16 17 17 17 16 16 16 14 14 15 17 20 23 27 29 31 34 36 37 38 39 39 38 41 42
57 49 35 71 73 84 59 59 68 60 72 42 83 89 60 90 69 62 38 34 23 27 51 39 49 42 29 49 55 29 43 23 28 38 13 27 43 38 45 47 50 22 26 37 48 59 50 41 14 21 11 15 18 14 41 59 35 21 14 19 11 13 19 17 16 16 16 17 17 16 16 15 14 14 14 17 19 22 26 28 32 34 37 38 40 41 42 41 43 43
75 60 65 66 51 53 30 61 34 27 41 55 86 83 61 47 66 36 40 48 28 64 39 45 34 40 33 57 80 50 45 56 61 63 34 32 43 41 34 47 45 15 22 38 43 56 48 58 24 19 18 16 12 16 12 35 61 48 19 19 19 16 14 13 15 15 16 16 16 16 15 15 13 13 14 16 19 23 26 29 33 35 38 39 42 44 45 44 45 46
53 73 54 47 63 48 53 54 65 78 83 71 68 60 73 48 50 54 71 51 57 74 42 17 10 12 14 33 32 45 35 37 25 19 26 36 64 68 23 40 39 16 15 16 54 53 59 53 62 61 25 18 15 12 16 13 17 34 19 14 16 16 12 14 14 14 15 16 16 15 15 14 13 13 14 16 19 24 28 30 34 36 38 40 43 46 47 47 49 50
52 51 46 63 67 53 18 43 78 56 81 47 53 77 77 24 18 42 23 36 59 34 24 11 9 14 26 33 27 38 31 47 27 17 39 33 38 48 21 25 30 21 12 17 30 41 48 54 44 66 48 64 13 11 12 14 15 15 15 15 15 15 15 15 15 15 15 15 15 15 15 15 15 16 15 15 18 24 28 29 34 36 40 44 46 48 49 50 52 54
78 70 108 41 67 67 65 72 40 83 65 42 66 70 56 45 9 25 12 16 21 9 25 21 15 27 26 27 47 35 29 39 45 17 24 29 42 45 14 14 12 16 17 16 14 15 27 44 16 27 19 34 12 14 19 17 15 15 15 15 15 16 16 16 15 15 15 15 15 16 16 16 14 15 15 15 19 25 30 31 35 37 41 45 48 50 52 53 55 56
79 78 71 58 55 84 61 82 66 71 35 28 60 34 60 32 43 37 14 23 30 22 27 26 24 24 12 31 63 43 38 48 30 10 15 28 42 39 15 12 13 11 7 8 12 14 15 19 12 12 10 16 11 11 15 9 15 15 15 15 16 16 16 16 16 16 16 16 16 16 16 16 14 15 15 16 19 25 30 33 36 39 43 47 50 53 55 57 57 59
108 116 104 80 67 53 68 84 35 34 57 19 35 20 67 45 53 27 30 22 44 37 42 27 25 17 37 58 53 62 37 42 21 14 15 16 20 22 17 16 15 14 11 11 14 13 11 12 14 11 15 14 11 11 14 13 15 15 15 15 16 16 16 16 16 16 16 17 17 17 17 17 17 17 17 18 21 25 30 33 37 40 44 48 52 55 57 58 60 62
90 111 103 70 90 44 37 84 39 21 35 33 28 20 56 38 39 20 22 22 26 77 64 38 18 25 18 44 39 71 64 19 19 18 14 10 12 14 17 12 13 15 15 14 14 12 11 13 11 11 15 13 10 13 13 17 14 15 15 15 16 16 17 17 17 17 17 17 18 18 18 18 19 19 19 20 22 26 31 35 39 41 45 49 52 55 57 59 63 65
64 66 86 110 109 54 67 91 32 42 26 22 36 52 61 57 29 32 58 15 28 26 32 35 32 58 27 38 31 37 63 21 13 15 14 17 17 15 16 14 15 14 11 12 16 16 13 12 14 14 13 13 11 13 10 13 15 15 15 16 17 17 18 18 18 18 18 19 19 19 20 20 19 19 20 22 24 28 33 38 41 43 47 50 53 56 58 60 64 65
40 24 72 64 51 66 34 45 47 26 40 47 45 70 55 58 16 26 46 39 46 23 27 48 32 25 29 27 33 35 25 21 22 20 18 16 14 11 13 18 11 15 16 14 13 12 13 16 14 14 13 12 15 14 15 15 16 16 17 17 18 19 19 19 20 20 20 20 21 21 22 22 21 21 21 23 25 28 34 39 43 45 49 52 55 58 61 62 64 65
11 34 89 43 30 26 36 34 19 40 25 61 36 41 52 39 16 20 37 77 35 25 36 36 35 24 27 39 39 30 24 17 19 17 16 15 16 18 14 11 14 15 14 13 15 14 13 13 13 16 16 11 16 8 14 14 17 17 17 18 19 20 20 21 21 21 21 22 22 22 23 23 24 23 23 25 26 28 33 39 44 46 50 54 57 60 63 65 66 68
30 51 87 72 37 19 23 48 41 26 23 29 22 41 55 35 40 39 48 59 72 25 41 50 41 33 28 28 25 22 20 18 20 19 18 16 15 15 14 14 13 13 14 14 15 15 16 16 13 14 14 14 13 13 14 15 16 17 19 20 21 21 22 22 22 22 22 22 24 24 24 23 23 23 24 26 28 29 33 37 44 47 51 55 60 63 64 63 65 66
76 75 69 70 57 40 36 60 84 36 53 51 45 21 39 29 40 71 51 31 29 40 28 45 27 23 22 25 25 24 23 22 21 20 19 17 16 16 15 15 15 15 15 15 15 15 16 16 15 15 15 14 14 14 16 17 18 20 21 22 22 22 22 23 23 23 23 24 25 26 25 25 25 25 25 27 28 30 34 38 45 49 53 57 60 64 65 64 67 67
61 89 73 83 79 46 55 64 44 43 20 13 12 21 17 72 65 72 50 26 27 24 18 26 24 22 24 28 27 25 24 22 23 22 20 19 17 17 16 16 16 16 16 16 17 17 17 17 16 16 16 15 15 16 18 19 21 22 23 24 24 23 24 24 24 24 24 26 27 28 27 27 27 27 27 28 29 31 35 39 45 50 55 58 60 63 64 64 64 65
59 81 61 77 75 52 44 33 29 12 17 28 17 24 9 33 59 63 22 20 27 19 29 19 27 26 29 31 28 25 24 22 23 23 21 20 18 18 17 17 16 17 17 18 18 18 18 18 17 17 18 18 18 19 20 21 24 25 25 25 25 24 24 25 25 26 27 28 29 30 30 30 30 29 28 28 29 31 35 40 45 50 55 58 59 61 63 63 67 67
76 59 49 77 89 77 46 21 31 17 15 10 23 28 21 49 73 70 25 43 63 23 28 30 25 25 28 30 27 26 26 24 24 23 22 20 19 18 18 18 18 18 19 19 19 19 19 18 17 18 20 22 22 22 22 23 26 26 27 26 26 25 25 26 27 28 29 30 31 32 32 32 32 31 30 29 29 31 35 40 46 51 56 58 60 61 63 63 66 66
88 84 48 106 89 74 49 8 13 24 23 32 20 35 26 43 41 37 33 41 48 25 27 22 25 24 26 28 26 26 27 25 24 23 22 21 20 19 19 19 21 21 21 21 20 19 18 18 18 20 23 25 26 26 25 25 27 28 28 28 27 27 27 27 29 30 32 33 34 34 34 35 35 33 32 32 31 32 36 40 47 52 56 59 61 62 63 63 63 63
77 64 34 62 92 31 68 6 37 32 22 37 34 37 46 54 55 32 41 65 27 30 23 35 28 27 28 29 27 27 27 24 24 23 22 21 21 20 21 21 21 21 22 22 22 21 20 20 21 23 26 28 29 29 29 29 29 29 30 29 29 29 29 30 31 33 35 36 36 36 36 37 38 36 35 34 34 34 38 42 47 51 55 59 61 63 63 62 65 65
66 40 10 50 63 18 37 15 29 52 34 33 38 43 56 56 31 29 52 46 25 32 28 24 28 27 28 29 28 28 28 24 24 23 22 22 21 21 21 22 19 20 21 22 23 23 23 23 23 25 27 29 30 30 31 32 30 30 31 31 30 30 31 32 33 34 37 38 38 38 38 38 40 38 37 37 36 36 39 42 47 50 54 57 61 63 62 60 64 64
39 32 11 30 62 39 7 20 43 43 53 32 35 38 56 63 27 29 32 32 29 27 27 29 28 28 28 28 29 29 27 26 24 24 24 24 24 23 22 20 21 22 23 23 22 23 24 25 27 27 28 28 30 31 32 33 32 31 30 29 30 32 33 34 35 36 37 38 39 38 37 36 37 39 40 39 39 41 43 43 47 50 54 59 61 62 62 62 62 62
24 52 13 29 60 40 22 33 46 62 61 30 34 54 29 37 27 29 30 30 28 27 28 29 30 29 29 30 30 29 28 27 25 24 24 24 24 24 23 22 23 23 24 24 24 24 25 26 26 27 29 30 31 31 31 31 30 30 30 30 31 33 35 36 36 37 38 39 40 40 39 39 39 41 41 40 40 41 42 42 46 48 52 56 59 60 61 61 62 62
4 12 27 33 55 46 25 48 45 66 54 43 52 43 29 28 28 29 29 29 29 29 30 31 31 31 30 30 30 30 29 28 25 25 24 24 24 25 25 25 24 24 25 25 25 26 27 28 28 28 29 31 31 31 31 31 31 31 31 32 33 34 36 36 36 37 38 39 40 41 42 42 41 43 43 41 41 41 42 41 44 46 49 52 55 57 59 59 61 61
10 12 50 29 69 35 46 57 70 70 61 57 35 54 32 27 29 29 30 30 31 32 32 32 32 31 31 30 30 29 28 28 25 25 25 25 26 27 27 26 26 26 26 26 27 27 28 28 30 30 29 29 30 31 33 34 33 33 33 33 34 35 35 36 37 37 37 38 39 41 42 42 42 43 43 42 41 42 42 41 41 43 45 48 51 54 57 58 58 58
47 45 65 57 49 74 67 41 76 36 36 35 35 30 35 33 31 32 33 34 35 36 35 34 32 32 31 30 29 28 28 28 26 26 26 28 29 29 28 27 27 27 27 27 27 28 28 29 30 30 29 29 30 32 34 35 34 34 34 34 35 35 36 36 38 37 37 37 38 39 40 41 41 42 42 41 42 43 43 41 39 40 41 44 47 51 54 56 56 56
51 63 60 27 17 44 73 61 57 55 35 34 30 33 39 26 34 35 36 38 39 39 37 36 34 33 32 31 29 28 28 29 27 28 28 30 30 30 29 28 29 28 28 28 28 29 29 29 28 29 31 33 33 33 33 32 32 32 33 33 34 36 37 38 38 38 37 37 37 38 39 39 40 41 41 41 41 43 43 41 38 38 39 41 43 47 50 52 55 55
45 66 55 22 46 70 41 71 39 33 42 31 41 36 32 41 38 39 40 40 40 40 40 40 36 36 35 33 31 30 30 31 30 30 30 30 31 31 30 29 30 29 29 29 29 29 29 29 29 31 32 34 34 33 32 31 32 31 31 31 33 34 36 37 36 36 36 36 36 36 37 37 39 40 40 40 41 42 42 40 38 38 38 38 40 43 45 47 50 50
26 58 69 59 52 44 40 38 42 44 33 36 37 36 39 37 40 41 41 41 40 40 41 42 38 38 37 35 32 31 32 32 32 31 30 30 31 31 31 30 32 30 29 29 30 30 30 29 32 32 33 33 33 32 32 31 32 32 31 30 31 32 34 35 34 34 34 34 34 34 35 35 38 39 39 39 40 42 41 39 39 38 37 37 38 40 42 43 46 46
41 52 63 71 57 47 42 41 43 43 42 41 40 39 40 41 43 44 44 44 44 43 43 42 42 41 37 38 38 34 35 32 32 33 31 29 31 31 29 29 29 28 31 29 28 32 30 32 31 32 34 34 33 32 31 31 30 31 31 32 31 32 33 34 34 33 31 31 32 33 34 35 34 37 39 39 39 39 38 37 36 36 36 35 35 35 38 40 43 45
58 59 78 74 84 61 66 53 44 44 43 42 41 41 42 43 43 43 44 45 45 45 44 44 43 43 38 40 39 35 36 33 32 34 32 30 31 32 30 30 29 29 32 29 29 32 31 33 32 33 34 34 33 32 31 31 30 30 31 31 31 31 32 33 33 32 30 30 30 32 33 34 33 36 38 39 39 39 38 36 35 36 36 35 34 35 37 39 40 42
