P2
90 90
255
39 40 39 38 44 46 43 48 47 46 46 46 45 46 46 46 45 46 47 47 46 46 46 47 49 51 52 52 54 55 56 55 55 56 56 55 55 56 56 54 56 51 49 51 52 52 58 65 70 68 66 83 80 73 65 63 76 57 69 87 49 50 45 81 50 61 77 63 39 45 50 51 55 57 42 47 53 80 50 70 80 57 52 50 52 54 55 79 59 63
43 46 46 43 44 43 41 47 46 46 46 46 46 46 46 46 46 46 47 46 46 46 46 47 48 50 51 52 53 55 55 54 56 57 57 56 56 57 56 55 53 53 52 52 52 54 58 62 56 60 61 67 83 90 73 60 65 93 60 82 85 69 70 108 60 83 79 74 58 61 65 56 61 52 54 58 58 62 54 78 72 58 56 52 55 60 54 60 76 80
54 50 42 38 42 45 46 48 46 46 47 47 47 46 45 45 46 46 46 46 46 45 46 46 47 50 52 52 54 55 55 54 56 57 58 57 57 58 57 56 53 54 52 50 52 56 59 59 50 60 57 60 62 113 59 72 76 81 78 60 111 115 67 59 55 59 67 71 52 51 75 62 65 53 66 79 55 47 74 89 61 53 58 54 54 64 62 60 58 59
71 65 51 45 46 46 47 44 46 46 47 47 47 46 45 44 46 46 46 46 45 45 46 47 48 50 53 54 55 57 56 55 56 58 58 57 58 58 58 57 56 54 52 51 52 53 52 50 60 55 56 72 61 65 68 53 58 59 94 98 50 50 53 47 44 43 62 64 45 57 83 88 83 63 80 77 57 72 70 90 59 52 61 64 62 67 66 61 57 56
40 44 43 44 42 42 49 47 46 46 47 48 48 46 45 44 46 46 46 46 45 46 46 47 49 51 53 54 55 57 57 56 56 58 58 58 58 58 58 56 56 54 53 54 53 52 56 62 54 60 50 62 58 62 82 65 60 66 71 71 66 49 65 59 45 66 71 69 64 55 44 47 53 79 70 67 59 53 73 94 73 64 64 60 56 63 66 60 57 55
47 50 46 47 44 43 49 42 46 47 47 48 47 46 45 44 45 46 46 46 46 46 47 48 50 51 53 54 55 57 57 56 57 58 59 58 58 58 57 56 56 54 54 54 53 60 79 99 78 57 57 56 57 53 47 50 54 49 46 49 51 85 67 61 76 78 35 64 53 54 48 55 61 59 56 58 66 68 87 79 64 69 69 57 46 53 62 61 56 54
55 53 43 46 47 50 58 46 47 47 47 48 47 46 45 45 45 46 46 46 46 47 48 50 51 53 54 54 55 57 58 57 57 59 59 59 58 58 57 55 55 55 54 54 55 63 80 95 87 61 52 110 66 55 49 49 49 51 52 47 50 49 60 87 98 66 56 57 83 49 81 61 56 48 46 55 52 58 79 51 51 65 72 67 57 54 56 54 55 53
65 66 58 60 56 54 62 50 47 47 47 47 47 46 45 45 45 46 46 46 46 47 49 50 53 54 55 54 55 58 59 58 58 59 60 59 58 58 57 55 54 56 57 57 56 54 49 44 57 85 80 64 62 60 53 54 53 48 48 48 44 46 57 73 51 55 55 59 69 67 66 48 49 49 54 47 54 87 62 61 76 73 64 64 64 58 54 54 52 51
53 48 48 54 39 41 45 50 47 48 48 47 46 47 46 44 45 45 46 47 48 49 49 50 54 55 56 56 56 57 58 59 57 58 59 59 58 57 56 56 54 56 58 58 58 56 50 44 67 81 77 54 43 52 57 52 49 52 46 49 54 72 60 64 40 47 44 42 60 106 68 43 43 52 49 47 67 82 46 58 63 61 60 59 57 54 52 53 51 51
49 51 41 41 44 43 41 46 47 48 48 47 46 46 45 44 46 46 46 47 48 50 51 51 55 56 56 57 57 57 58 59 58 59 59 59 58 57 56 56 58 58 57 57 57 56 53 50 44 48 50 51 53 56 56 54 48 52 48 50 57 64 43 41 53 37 44 59 83 57 57 45 46 47 53 59 81 70 56 43 46 46 48 50 51 50 49 50 50 51
84 56 44 51 48 40 53 49 48 49 48 47 46 45 44 43 46 46 47 48 49 51 52 53 56 57 58 58 58 58 59 59 59 60 60 60 58 57 57 57 56 57 59 61 61 59 57 56 49 45 48 57 62 57 52 52 53 54 49 47 54 58 45 45 40 50 52 54 45 64 59 39 42 41 43 65 91 54 48 46 41 42 45 49 50 49 48 48 49 49
42 51 50 60 79 50 42 48 48 48 48 47 46 45 45 44 46 47 47 49 50 52 54 55 58 59 60 60 60 59 59 59 60 60 60 60 58 57 57 57 57 58 60 61 60 57 54 54 56 54 54 56 57 56 54 54 51 48 50 49 48 49 48 43 46 38 45 46 41 53 63 50 43 50 48 99 56 42 51 42 46 46 48 50 51 49 48 48 48 48
48 65 65 50 60 47 51 51 48 47 47 47 46 45 45 45 46 47 47 49 51 53 56 57 60 61 62 63 62 60 60 59 60 60 60 59 58 57 57 57 59 59 59 60 60 60 60 62 58 58 57 55 55 56 56 56 66 53 51 49 42 48 58 49 47 45 44 43 49 41 78 52 44 47 98 68 45 46 46 47 46 45 45 47 47 46 46 47 47 48
82 73 64 42 48 45 51 46 48 47 47 47 47 46 46 46 46 47 48 49 52 55 57 59 62 63 64 65 63 62 60 59 59 59 59 59 57 57 56 57 55 58 60 61 61 61 60 57 62 58 57 59 61 58 55 55 75 62 50 49 48 65 79 72 58 47 38 59 48 41 63 75 56 88 70 50 53 49 47 52 48 46 45 45 45 44 45 46 49 49
101 51 60 61 47 55 74 64 50 48 47 48 47 45 45 46 47 47 48 50 53 56 59 61 63 65 66 66 65 62 60 59 58 58 59 58 57 56 56 57 56 59 60 59 61 64 62 58 60 57 56 59 61 60 58 57 59 66 51 52 56 68 67 64 57 43 45 53 47 42 50 79 95 81 58 55 57 51 56 50 53 51 49 48 47 46 46 48 52 52
78 58 66 56 49 44 44 62 51 49 48 48 47 45 45 46 47 48 49 51 54 57 60 62 64 65 67 67 65 63 61 59 58 58 58 57 56 56 56 56 58 60 59 59 69 86 96 98 71 72 69 62 58 59 60 59 60 82 57 48 47 48 37 43 44 48 40 55 51 36 45 61 80 56 53 54 54 58 49 58 52 50 49 50 49 49 49 51 54 55
46 53 58 55 44 41 45 47 54 44 47 48 50 45 48 45 48 47 51 53 52 60 74 83 66 74 70 89 73 64 61 57 57 57 57 56 55 55 56 57 57 62 59 59 66 63 63 76 79 81 81 71 65 74 81 75 66 89 60 53 51 45 46 41 44 44 48 49 44 42 53 68 78 54 57 53 54 58 55 57 55 53 51 51 52 52 52 52 54 54
55 58 62 64 67 44 47 66 46 55 47 49 46 49 48 49 48 50 51 56 58 50 46 51 64 70 53 48 53 67 60 65 57 57 57 56 55 55 56 56 55 57 58 61 64 65 65 65 64 64 67 66 62 66 69 65 68 80 91 100 92 65 56 57 60 53 54 67 79 79 70 63 70 74 43 55 50 60 58 54 56 53 52 52 53 53 53 54 53 53
44 85 79 64 51 54 66 60 48 54 50 57 50 48 50 51 46 53 52 54 57 48 39 43 73 51 56 59 52 65 63 63 59 58 56 56 56 56 57 56 58 58 62 62 58 64 72 70 64 59 60 63 62 61 61 60 62 55 63 52 64 88 94 79 68 60 51 45 42 42 45 47 53 79 56 51 54 49 60 56 54 52 50 51 52 52 53 55 52 52
49 59 80 63 57 80 70 54 61 44 61 60 45 54 71 50 51 53 52 52 57 57 51 46 64 62 68 60 64 74 65 61 60 59 57 56 57 57 57 57 52 55 61 62 61 67 81 90 78 70 65 64 62 61 61 61 58 53 61 51 52 63 60 48 49 48 47 44 43 44 44 44 59 75 61 52 49 61 52 52 51 50 49 50 51 51 53 55 52 52
43 58 51 101 75 75 56 52 131 58 67 79 56 48 52 41 55 48 53 60 57 60 65 62 62 67 79 75 82 73 76 62 62 60 58 57 57 58 58 58 62 61 57 60 69 68 70 82 78 74 68 64 63 63 61 60 57 62 59 60 53 51 51 58 57 54 47 41 40 42 42 41 66 66 79 57 55 51 52 51 51 49 49 50 51 51 53 55 52 52
39 47 65 77 92 46 42 52 49 66 57 44 58 68 51 76 101 64 51 58 55 58 65 62 70 82 74 121 65 72 66 69 64 62 60 58 57 58 58 59 57 61 64 79 93 76 48 41 64 68 67 64 66 65 61 59 55 72 56 54 55 60 58 52 50 54 55 51 45 42 44 46 46 64 73 88 51 51 48 54 49 48 49 50 50 50 51 53 52 52
43 45 37 53 85 64 50 52 55 53 51 54 58 87 84 52 49 53 76 89 74 60 64 70 70 90 88 100 80 65 68 70 65 64 62 59 58 57 59 60 63 61 59 64 69 63 57 59 61 67 67 65 67 65 62 63 58 66 56 57 57 51 53 54 57 54 50 48 46 43 41 41 41 47 54 75 63 52 53 45 47 47 48 50 50 49 49 51 50 50
49 51 45 47 55 114 57 49 50 50 54 54 54 76 101 55 53 58 64 67 66 66 66 65 72 70 78 123 103 90 78 68 66 65 63 60 58 57 59 60 61 63 66 59 44 43 60 72 68 71 68 65 65 62 61 68 64 59 54 51 56 50 55 52 53 52 51 50 47 43 42 44 45 42 43 54 52 46 48 48 48 48 50 52 51 50 50 51 47 47
49 50 47 47 49 64 68 57 55 50 50 63 96 82 69 60 63 58 59 54 63 80 93 67 83 131 67 89 74 88 73 71 68 69 63 59 60 58 56 62 64 60 68 66 55 53 70 66 72 68 67 67 67 64 62 60 60 57 54 54 54 53 52 52 53 53 52 49 46 44 43 43 41 43 41 59 57 48 44 45 49 48 51 54 55 56 56 54 48 47
50 46 52 40 47 62 97 96 56 55 79 70 86 56 52 87 55 57 65 72 84 100 94 75 84 70 73 74 80 67 76 74 75 68 68 69 61 56 60 63 64 63 66 65 70 65 74 92 96 88 89 72 69 74 84 67 66 60 54 51 52 53 54 55 55 54 53 50 47 45 43 43 44 45 49 56 75 52 49 49 52 51 55 59 59 60 60 57 51 50
51 58 48 46 50 48 73 74 131 109 104 63 55 60 56 88 58 58 60 59 50 87 101 84 72 72 80 73 60 83 75 70 66 70 69 65 64 66 65 63 65 60 69 73 94 98 96 102 93 98 81 81 69 87 78 76 67 61 54 51 51 52 54 56 56 55 54 51 48 45 44 43 42 43 47 50 79 57 54 54 55 55 59 63 63 63 63 60 56 55
55 54 44 48 42 73 47 53 49 144 85 49 56 55 55 67 63 93 71 53 42 67 93 77 72 78 71 71 59 74 76 74 77 71 71 71 64 60 63 67 64 75 97 84 87 84 78 81 90 85 95 87 61 58 63 50 62 58 55 53 52 51 52 53 55 55 54 52 49 46 45 44 45 48 45 53 68 70 65 67 58 57 60 63 63 64 64 61 59 59
53 46 48 45 48 52 83 59 82 92 105 62 59 68 64 64 69 55 86 64 45 80 72 70 66 76 73 83 72 89 92 71 72 63 67 71 66 69 70 58 64 57 73 62 65 61 67 81 81 99 114 98 79 50 48 52 59 58 56 54 50 47 48 50 53 53 53 51 49 47 46 46 46 49 45 53 53 75 73 69 61 59 61 62 61 62 63 60 60 61
60 50 48 48 80 56 58 54 53 63 83 94 53 55 58 54 57 42 47 63 69 68 64 72 74 63 79 74 106 86 95 94 72 80 72 64 68 63 65 84 120 46 39 44 46 48 71 68 77 79 102 124 102 74 62 62 62 60 57 54 49 45 45 48 51 52 52 51 50 48 48 48 46 45 50 50 49 70 73 63 61 59 60 61 60 61 62 60 60 60
54 57 75 102 50 45 54 48 49 71 67 50 49 58 98 61 65 50 52 83 70 63 69 69 78 91 77 53 51 48 39 54 68 74 68 67 69 61 91 155 131 60 47 46 47 50 81 74 77 77 91 105 124 92 68 61 65 62 58 55 52 48 47 48 50 51 52 52 50 49 49 49 51 49 54 51 56 71 70 64 59 57 58 60 59 60 61 59 58 59
62 63 112 48 44 50 55 42 64 39 55 68 53 118 81 63 54 67 64 82 56 60 69 75 73 90 99 95 68 48 53 65 73 64 70 69 64 89 115 106 95 86 63 40 68 65 76 83 88 105 100 101 105 117 91 68 65 61 58 57 56 54 51 49 50 51 52 52 51 50 49 49 50 51 48 50 57 71 62 65 56 55 57 59 59 59 60 57 58 59
47 45 79 48 49 48 48 62 116 78 56 58 62 68 93 96 48 65 63 74 70 61 68 100 84 71 114 92 75 77 76 72 71 80 66 72 66 67 74 66 69 83 95 48 62 68 82 86 96 113 104 101 99 106 109 66 64 69 62 56 59 56 51 53 51 54 54 52 51 52 52 49 48 50 50 49 51 53 57 62 56 51 56 55 56 59 54 59 57 57
49 45 55 43 45 50 55 65 65 55 54 55 53 67 59 89 105 85 67 80 79 79 70 78 75 79 83 90 72 97 102 72 80 106 89 70 62 65 67 67 62 56 62 49 64 66 68 78 76 100 107 99 97 100 111 82 65 63 62 65 56 55 53 54 54 51 50 53 53 50 48 47 45 48 48 49 51 52 55 62 51 52 49 51 52 54 60 54 55 56
47 47 41 49 46 50 53 56 40 56 52 56 72 59 57 68 72 108 65 70 58 74 80 88 77 77 91 110 84 117 118 91 85 75 74 83 72 60 60 69 55 40 46 58 67 70 75 98 84 89 98 90 95 93 104 89 69 67 65 68 59 59 55 53 52 54 54 52 49 49 49 49 46 46 46 47 48 46 49 58 56 48 45 47 48 52 57 53 54 54
44 50 44 55 48 48 48 49 52 53 58 50 68 61 60 60 70 62 92 46 95 48 49 68 82 82 115 88 92 80 84 69 53 36 50 67 66 70 69 66 58 43 49 72 82 87 80 83 110 106 105 93 96 101 99 83 65 68 65 59 61 58 55 52 52 51 50 49 48 48 49 51 47 46 45 46 46 43 47 58 72 43 47 46 47 55 48 57 54 54
45 48 48 49 46 50 50 51 56 54 53 57 47 56 72 62 64 78 54 56 40 78 70 95 66 99 83 67 80 83 67 70 68 69 74 64 65 70 63 65 69 63 70 69 62 62 73 82 104 111 111 106 114 139 129 110 81 67 66 60 65 57 60 54 53 45 42 48 51 48 46 49 47 46 45 47 48 47 53 64 77 50 48 46 49 56 50 57 57 57
47 45 49 44 47 53 50 50 50 54 56 65 53 48 81 53 64 99 64 43 45 74 87 77 71 71 74 59 89 83 75 73 71 64 70 66 65 61 62 71 73 66 71 70 72 70 79 80 84 101 108 109 91 97 101 116 120 77 66 67 69 58 60 48 46 53 54 48 46 49 49 46 48 47 46 47 48 48 52 61 66 64 48 47 52 55 62 55 60 59
46 45 47 49 49 51 48 50 56 47 75 52 55 52 59 50 88 90 36 55 87 59 66 53 64 44 63 73 90 83 73 75 72 65 72 67 64 64 68 61 70 71 73 69 67 70 88 98 93 86 80 92 87 80 80 96 122 95 69 66 66 59 56 64 55 63 61 48 43 49 52 47 49 49 47 47 48 46 47 51 53 70 53 51 57 56 66 57 61 61
45 46 43 52 47 47 51 59 64 69 73 48 45 48 52 64 72 64 74 64 58 80 55 70 86 96 80 92 115 84 75 71 68 73 69 59 68 61 60 66 68 71 67 64 63 69 75 73 77 86 87 84 71 56 63 77 92 114 85 68 67 66 65 111 81 61 46 48 51 47 45 49 48 49 48 47 49 48 47 48 49 66 61 56 61 58 60 64 62 62
44 48 43 46 46 53 52 57 83 75 54 43 53 48 54 65 61 57 59 51 47 53 56 70 49 75 95 88 112 90 76 74 73 69 70 66 64 60 68 60 69 68 66 66 70 74 73 68 74 79 76 78 71 69 61 64 77 96 99 73 66 66 103 66 57 53 49 48 48 47 47 48 48 49 50 50 50 50 50 51 53 61 79 56 58 65 57 65 63 63
47 48 47 51 53 55 67 90 56 63 68 53 54 53 59 73 67 48 49 58 59 66 64 70 54 81 71 58 80 94 77 71 71 78 68 63 71 62 56 65 67 66 66 68 73 75 71 66 70 78 79 81 72 67 63 70 72 82 93 69 73 73 69 66 59 54 50 49 48 47 47 48 48 49 50 51 51 51 51 52 51 58 77 59 60 61 60 65 63 63
43 43 40 47 68 68 55 46 43 50 68 54 57 65 59 58 64 63 53 49 60 68 59 74 95 97 79 53 45 68 128 108 90 65 72 67 61 68 61 67 66 64 64 68 72 72 68 65 67 74 77 81 74 68 64 72 67 76 90 85 67 73 75 65 61 56 52 49 49 48 48 48 48 49 51 51 52 52 53 53 53 52 62 54 59 59 61 58 63 63
43 50 53 51 70 69 60 52 46 44 55 49 60 71 59 40 44 57 54 40 63 78 63 59 48 62 58 69 72 65 65 110 118 67 71 71 63 67 63 62 68 64 63 65 68 67 67 68 69 70 71 76 77 71 65 67 68 80 99 99 68 77 62 64 63 58 53 51 49 48 48 48 48 49 51 52 52 53 54 54 57 53 54 59 58 60 63 60 61 62
42 48 54 50 56 51 61 76 47 45 51 50 57 62 64 47 41 47 72 57 51 60 76 74 39 44 45 78 81 80 71 62 57 100 100 73 72 62 71 64 69 66 64 64 64 64 66 70 71 68 68 72 76 70 64 63 71 67 87 129 87 73 73 72 64 59 55 52 50 49 48 48 48 49 51 52 52 53 53 54 50 54 54 68 55 57 59 63 60 60
50 50 50 50 57 60 60 57 49 50 53 51 52 51 62 56 50 36 52 52 57 61 81 97 82 35 45 64 74 75 71 74 75 42 77 80 68 68 64 69 65 64 63 62 61 60 62 64 64 65 66 65 68 62 60 60 62 68 74 74 94 134 79 63 65 61 56 54 52 50 49 48 48 49 51 52 52 52 53 54 48 52 51 71 62 64 57 58 59 60
44 47 47 43 43 58 60 51 54 52 57 51 51 50 54 54 51 52 56 57 61 55 49 74 53 55 54 82 75 78 75 70 71 71 68 97 105 89 69 64 65 64 62 59 59 59 59 58 58 61 63 58 62 57 58 57 60 63 65 73 77 91 72 71 66 62 58 56 55 52 50 49 49 50 51 52 52 52 52 53 55 51 51 66 75 75 61 57 60 61
48 46 47 49 38 49 59 61 56 53 64 53 53 54 49 53 51 55 54 60 64 82 66 66 61 74 76 77 80 72 78 69 69 65 71 67 72 114 73 67 69 67 62 58 58 61 61 58 58 60 61 54 61 59 61 57 60 67 67 74 72 77 74 71 67 63 60 58 56 53 50 49 50 51 52 52 52 52 52 53 52 45 49 55 73 69 58 56 61 62
45 47 49 48 47 32 76 67 91 73 61 62 64 59 54 56 67 67 61 64 55 50 59 47 40 62 76 76 74 75 73 70 66 71 67 69 63 63 125 74 71 71 69 54 59 56 54 58 57 58 59 59 57 58 63 69 69 65 64 76 79 80 85 68 70 60 68 64 56 52 56 53 55 54 52 52 52 53 51 50 48 45 49 54 71 64 57 53 60 62
42 49 50 45 48 45 77 63 51 56 61 64 66 67 62 55 62 64 59 60 52 48 54 40 49 66 76 75 73 74 72 70 71 64 67 67 72 62 58 86 96 77 64 62 55 61 56 56 53 55 58 59 58 60 65 72 71 66 68 77 76 100 78 72 69 71 96 66 62 55 51 59 55 54 53 53 53 53 52 50 49 48 46 55 59 61 55 56 59 61
45 47 48 50 51 42 51 43 36 49 59 58 55 54 51 45 45 51 52 57 57 61 71 60 61 70 75 73 72 72 70 69 66 70 68 62 65 70 56 67 62 85 81 55 39 53 52 53 54 55 57 56 54 55 61 67 59 74 68 58 68 101 76 74 70 58 147 62 58 57 52 57 55 54 54 54 54 54 52 50 47 50 47 62 53 61 54 56 57 59
45 46 47 55 56 48 46 48 57 58 60 58 52 45 43 44 41 47 50 57 58 62 70 67 68 72 72 71 72 70 68 68 69 66 61 68 65 64 75 60 63 54 77 70 44 42 57 48 49 50 51 50 49 51 58 65 69 73 66 64 77 79 85 67 66 64 154 60 53 57 55 55 54 54 54 55 55 54 52 50 46 49 47 62 50 61 55 55 56 58
45 51 51 48 49 55 57 62 64 57 54 56 55 50 48 50 49 51 57 65 63 58 62 64 69 71 70 70 71 69 66 68 69 65 66 68 67 64 64 70 75 51 64 73 62 44 45 45 50 50 50 49 48 47 51 55 70 64 66 63 68 73 110 70 69 98 101 65 56 56 53 59 54 54 54 55 55 54 52 50 50 47 45 52 48 57 58 56 57 59
47 51 50 52 51 50 54 62 59 53 47 46 50 55 54 52 52 52 59 70 71 64 64 70 68 70 69 69 70 68 66 67 64 70 65 68 63 75 63 67 61 77 69 63 69 60 34 43 48 48 50 51 50 48 47 48 54 66 76 68 67 66 80 76 93 92 61 63 57 54 54 58 53 53 54 55 55 54 52 51 50 48 48 50 54 59 59 54 57 58
46 45 49 62 65 54 59 64 61 60 56 51 53 58 58 53 52 49 52 60 66 63 61 67 68 71 71 69 69 67 66 67 68 65 56 72 68 70 71 67 71 70 71 74 68 70 55 46 38 38 41 46 50 51 51 52 57 55 53 57 64 52 65 132 109 65 60 57 54 54 56 54 53 54 54 55 55 54 54 53 49 52 51 54 60 64 58 52 57 58
46 48 50 58 64 57 63 56 59 62 64 64 62 60 56 52 52 46 44 49 59 64 64 69 68 73 73 69 68 66 65 67 65 65 68 61 67 65 67 71 72 68 77 66 60 60 66 61 43 40 39 41 44 45 45 45 59 52 58 61 58 50 62 99 99 66 61 58 54 56 56 54 53 54 55 55 55 55 54 54 51 56 49 51 56 64 57 55 59 61
45 47 46 43 47 58 64 62 60 62 66 64 56 51 52 52 55 53 51 51 56 62 66 66 70 71 72 71 69 66 65 64 64 63 64 65 65 66 67 70 73 69 71 75 70 57 53 56 73 42 45 42 76 58 48 51 47 45 65 54 50 45 65 79 101 66 53 58 54 51 55 53 49 58 55 47 59 60 54 57 56 55 53 54 64 53 64 54 60 61
46 50 61 62 53 58 67 63 59 55 50 50 51 50 48 47 49 53 59 62 64 64 66 67 72 72 73 72 70 67 64 63 64 63 64 65 65 65 67 69 69 70 70 69 70 68 56 42 54 66 56 62 66 54 58 47 52 50 47 58 64 58 70 64 94 79 95 52 52 51 51 48 53 50 51 63 50 53 61 54 57 53 53 51 55 52 71 59 60 61
44 45 60 65 53 60 76 75 63 56 46 45 50 49 47 50 55 57 59 60 62 65 68 70 73 72 72 72 70 68 64 62 65 65 65 67 67 66 67 69 68 72 71 68 72 75 62 44 36 51 70 87 80 87 62 62 55 56 67 54 50 71 66 73 99 80 59 55 51 45 52 52 51 48 60 49 59 58 55 56 55 51 56 54 51 52 73 58 61 62
45 40 45 47 41 46 56 57 59 59 52 50 54 50 49 60 56 58 59 60 67 75 75 69 72 72 71 70 70 69 66 64 66 66 67 68 68 67 68 69 70 72 72 72 72 72 68 63 40 61 58 62 81 80 97 59 51 53 43 47 62 72 69 64 63 114 59 48 49 53 51 46 51 46 55 101 83 54 51 60 54 53 58 56 54 55 72 65 61 62
44 44 41 41 43 40 39 41 50 56 55 55 57 52 52 64 61 61 57 53 62 77 84 79 75 73 72 71 71 70 68 66 66 66 67 68 68 67 68 69 71 71 72 72 71 69 71 75 65 41 47 58 55 97 77 107 66 61 66 54 57 73 73 65 67 74 75 58 52 45 48 51 45 62 86 60 55 56 56 52 57 57 55 52 58 57 69 79 61 61
43 50 49 48 52 49 46 54 54 58 58 57 59 55 54 60 66 65 56 45 44 58 73 79 77 76 75 74 73 71 68 66 64 64 65 66 67 66 67 69 71 73 72 71 71 73 73 71 72 72 73 62 64 63 84 97 63 61 69 57 61 69 66 72 68 56 73 53 53 52 48 51 61 87 67 61 61 59 51 58 56 58 53 52 58 55 57 71 60 60
46 53 55 52 51 50 51 57 60 60 59 56 56 57 57 57 59 61 61 56 47 43 49 58 75 76 78 77 75 71 68 66 63 63 64 65 66 66 67 70 72 73 72 71 73 76 73 68 75 62 79 68 64 65 64 103 148 65 65 65 48 73 68 65 67 59 71 84 54 50 57 60 84 55 54 54 54 49 54 59 55 55 54 53 55 53 51 57 59 59
44 49 57 58 54 55 58 56 56 56 55 51 50 55 61 60 61 60 63 64 54 40 41 52 71 74 78 79 76 72 68 65 63 63 63 65 65 66 68 71 72 70 69 72 73 72 70 70 67 74 66 74 71 72 67 81 97 123 72 69 73 69 70 68 64 63 58 76 62 53 58 95 51 54 54 56 53 55 55 49 57 52 53 52 50 56 58 57 59 58
41 48 55 56 52 53 58 63 51 42 44 49 47 52 61 62 69 66 64 63 61 59 62 67 76 78 80 78 75 72 67 64 61 62 66 66 62 60 65 68 68 70 71 71 72 72 71 69 68 68 69 69 68 68 68 68 53 69 126 93 66 73 73 69 69 58 60 67 80 72 78 54 53 52 52 53 52 50 50 52 52 52 51 50 52 57 58 57 65 55
50 49 58 63 56 53 56 56 53 50 51 51 48 54 62 63 71 72 70 66 65 70 76 79 76 78 79 78 75 72 67 63 60 61 64 64 58 56 60 64 68 69 70 70 71 72 71 69 68 68 68 68 67 67 67 67 52 66 68 113 114 66 79 96 92 78 68 62 84 84 59 53 52 51 51 51 49 47 48 49 51 51 50 49 51 55 55 54 74 63
54 48 58 67 62 58 58 53 50 55 56 52 54 62 64 59 64 69 68 60 59 68 76 77 77 77 77 76 75 72 67 63 59 59 62 60 53 51 56 60 67 68 69 70 71 72 70 68 68 68 67 67 66 66 65 65 57 59 49 77 89 80 70 78 66 61 65 60 77 86 48 52 51 52 52 50 47 46 46 47 48 48 47 48 50 52 52 51 60 51
52 48 49 53 56 58 59 56 53 59 55 48 55 66 65 57 64 71 70 62 60 67 74 74 76 76 75 74 74 73 68 64 59 59 61 59 52 50 55 59 67 68 69 69 70 71 70 68 67 66 65 65 65 65 64 64 67 59 42 64 64 95 112 63 70 61 66 58 54 70 61 52 50 52 53 51 48 47 47 46 48 47 47 48 51 52 52 52 62 58
51 53 45 40 49 55 53 53 56 61 54 43 48 60 64 60 67 72 74 70 68 71 75 77 75 74 72 71 72 72 69 66 61 60 62 61 55 53 59 62 67 68 69 69 70 70 69 67 65 64 63 63 63 63 62 62 53 63 42 80 91 61 88 110 71 67 62 58 52 61 75 44 49 51 51 50 49 47 46 45 47 46 47 49 51 52 53 56 60 54
50 60 56 50 57 59 50 45 45 50 51 46 44 51 58 60 61 65 69 70 69 70 73 76 73 72 70 67 68 69 68 67 63 62 64 63 59 59 64 66 69 70 70 70 70 70 68 66 64 62 60 60 60 60 60 59 60 53 55 55 71 74 69 71 99 105 75 57 49 50 77 62 49 48 47 48 47 45 44 43 44 43 44 47 48 48 52 58 66 53
49 54 59 60 60 62 59 50 41 40 45 48 44 45 52 56 61 63 66 66 66 69 72 75 72 71 68 64 63 64 66 66 66 63 65 66 63 64 67 69 70 71 71 70 70 70 68 65 62 60 58 57 57 57 56 55 71 59 49 53 70 66 61 63 71 95 85 69 51 46 62 76 54 48 44 46 46 44 43 44 44 42 43 46 45 45 52 61 72 59
48 40 48 52 45 57 71 65 57 42 41 45 41 42 50 53 62 65 65 62 62 67 70 71 71 70 66 62 60 61 64 65 67 64 65 67 65 66 69 70 72 72 72 71 70 70 67 64 62 60 57 55 55 54 53 51 70 59 49 56 65 62 61 63 66 88 98 85 50 47 47 78 59 50 44 46 47 44 43 47 47 45 46 48 46 46 54 65 61 55
43 44 42 43 48 51 52 55 49 48 43 40 41 43 45 50 59 63 63 60 59 64 70 73 71 68 64 61 60 61 64 66 69 66 66 70 71 68 69 73 73 74 74 73 70 67 65 64 61 59 56 54 54 54 52 50 55 60 55 48 78 57 58 61 56 58 117 101 81 76 64 49 96 50 48 48 46 44 45 46 49 46 49 48 44 52 59 54 59 58
41 42 41 44 50 50 45 43 43 45 43 41 41 41 44 50 56 60 61 58 57 62 67 69 68 66 62 59 59 61 64 66 69 67 67 70 71 70 71 73 73 74 74 73 70 66 64 63 60 58 55 54 53 53 51 50 56 67 56 50 70 62 56 56 61 54 64 78 108 71 56 47 74 81 48 39 45 49 48 48 48 47 51 53 52 55 56 50 55 56
41 41 40 44 50 49 41 36 41 46 47 44 42 41 44 50 55 58 59 57 57 60 65 67 67 64 61 58 57 59 62 64 67 66 66 68 70 72 73 73 72 73 74 72 70 66 63 61 58 56 54 53 53 52 51 49 55 72 56 52 62 67 54 52 55 49 58 50 67 108 69 47 55 78 55 49 50 47 47 48 54 53 51 50 50 51 52 51 52 55
42 41 39 42 49 49 44 41 45 50 51 47 43 42 43 48 54 57 58 57 57 60 64 66 67 64 60 57 56 56 58 60 64 64 64 64 67 72 73 71 72 73 73 72 69 65 62 59 57 56 54 53 52 51 50 49 52 71 58 52 57 67 54 52 50 57 53 48 51 74 103 63 44 71 80 49 48 51 50 58 51 54 56 57 59 56 53 53 51 53
41 41 39 41 48 50 49 50 49 53 51 47 45 44 45 48 53 54 55 55 56 59 62 64 65 63 59 56 55 55 57 58 61 62 62 62 65 70 72 70 72 72 72 71 69 65 61 59 57 55 54 53 52 51 50 49 51 67 61 51 56 63 54 53 55 49 56 48 54 50 71 85 63 51 85 80 58 54 59 62 59 62 61 57 56 53 52 55 64 64
39 41 41 43 48 50 50 51 52 55 53 49 49 50 50 52 53 53 52 52 54 56 59 61 63 61 58 56 55 55 57 58 59 61 61 61 63 67 70 70 70 71 70 70 68 65 61 59 56 56 54 53 52 50 49 49 52 64 63 49 55 61 53 52 52 57 51 48 52 51 51 64 92 57 58 96 84 62 59 63 64 65 64 61 63 72 82 87 58 57
39 41 41 44 48 50 48 49 53 58 57 53 53 54 55 56 56 54 53 52 54 56 58 60 63 61 58 56 55 55 56 57 58 59 60 60 61 64 68 70 69 69 68 68 67 64 61 59 56 55 54 53 51 50 49 48 52 64 62 48 53 64 54 50 55 51 51 47 56 46 54 48 80 102 62 71 95 73 56 69 65 66 68 64 61 66 68 61 58 58
40 41 40 43 48 50 49 49 52 58 59 54 54 54 55 56 60 58 55 54 55 57 59 61 65 63 59 56 55 54 55 56 57 58 59 60 60 61 65 69 68 67 67 66 65 63 61 58 56 55 54 53 51 49 48 47 51 64 60 47 51 70 56 49 50 52 49 51 43 56 48 56 57 96 100 95 91 65 67 61 64 63 66 64 61 68 69 56 63 66
40 42 43 42 44 49 49 47 52 56 58 56 55 56 58 60 60 59 57 56 57 59 62 65 63 63 61 58 54 52 52 52 56 56 56 55 53 55 60 64 64 64 65 65 64 63 61 60 56 55 53 51 50 50 49 48 48 70 62 50 49 89 53 49 50 48 47 49 51 52 52 53 55 63 98 99 63 85 60 64 61 60 62 61 65 67 61 61 61 66
39 41 42 41 44 48 49 47 50 54 57 56 55 56 58 60 61 60 59 58 59 61 62 64 64 63 61 58 54 52 51 51 51 52 51 49 48 50 54 57 62 62 63 63 63 61 60 59 57 55 53 52 51 50 49 49 49 65 69 62 62 79 49 43 46 46 48 52 54 54 53 53 52 54 68 110 75 59 63 57 60 57 56 53 56 59 57 60 57 62
39 41 41 41 43 47 48 47 48 52 55 55 55 56 58 60 63 62 60 61 62 63 63 63 65 63 61 58 55 52 51 51 49 49 48 46 45 46 49 52 58 59 60 61 61 59 58 56 57 55 53 52 51 51 50 49 48 53 59 56 59 58 47 44 44 46 49 52 53 51 51 52 59 72 54 66 93 66 63 57 55 53 55 54 56 59 57 59 54 58
41 42 42 41 42 45 46 45 47 50 54 55 55 56 58 60 64 62 61 61 63 65 65 64 66 64 61 58 56 54 52 51 49 49 47 46 44 45 47 49 53 55 57 58 59 58 56 55 56 55 53 52 51 50 49 49 48 45 45 45 46 41 45 45 45 45 47 49 49 50 53 57 69 60 45 59 75 98 57 60 53 49 52 53 55 58 55 55 55 58
41 42 42 41 42 44 45 45 47 49 52 54 54 55 57 60 63 61 60 61 64 66 67 66 67 65 61 59 57 55 53 52 49 48 46 45 44 45 46 47 50 51 53 56 57 57 56 55 55 54 52 51 51 50 49 48 48 46 44 49 45 42 44 41 43 44 45 47 48 51 56 62 69 68 63 58 58 95 57 60 61 51 50 51 52 57 56 55 56 57
40 40 41 41 42 44 45 47 46 47 49 51 52 52 55 57 60 59 60 62 65 67 68 68 67 64 61 59 58 57 54 52 50 48 46 45 45 46 46 47 48 49 51 53 55 55 55 55 54 53 51 51 50 49 48 47 45 48 46 53 48 50 47 43 44 44 45 46 46 47 51 55 53 62 76 64 62 68 76 50 57 47 50 53 53 57 55 53 51 51
39 40 40 41 41 42 45 47 45 45 46 48 49 49 51 54 56 58 61 64 66 67 68 67 66 63 60 58 58 57 55 53 50 49 47 46 47 47 48 47 48 48 50 51 52 53 53 53 53 52 51 50 50 49 48 47 45 48 48 51 49 52 49 49 47 46 45 45 44 43 45 47 51 60 48 50 59 50 67 91 50 42 50 55 53 53 50 47 48 48
40 40 40 40 40 41 43 45 44 44 44 46 46 46 48 52 54 57 62 66 68 68 67 66 65 62 59 57 58 57 55 53 49 48 46 45 46 47 47 47 48 48 49 50 51 51 52 52 53 52 51 50 50 49 48 47 48 51 56 52 53 52 48 50 48 46 44 44 44 45 48 51 53 49 81 69 67 53 64 77 62 53 60 61 53 52 52 50 50 50
40 40 40 40 40 41 41 41 42 42 43 44 44 44 47 50 54 60 61 65 67 67 69 67 64 61 57 55 54 53 51 50 47 47 46 45 45 46 48 49 49 48 49 50 51 50 51 52 50 51 51 51 49 47 49 52 53 53 55 56 56 54 54 55 51 48 46 45 44 47 51 52 51 52 57 62 60 55 59 67 91 57 60 55 57 52 52 51 52 53
40 40 40 40 40 41 41 41 42 42 43 44 44 44 47 50 53 59 60 65 66 66 69 66 63 60 57 54 53 52 51 49 47 47 46 45 45 46 47 49 49 48 49 50 51 50 51 52 50 51 51 51 49 47 49 52 54 55 56 57 57 55 55 56 53 49 48 46 45 48 52 53 54 53 56 60 59 55 56 61 91 73 55 71 53 54 52 52 49 50
