P2
90 90
255
254 254 254 254 254 254 254 254 254 254 254 254 254 253 253 253 253 253 253 253 252 252 252 251 252 252 252 252 253 253 253 253 252 252 252 252 252 252 252 252 252 252 252 252 252 252 252 252 252 252 252 252 252 252 252 252 252 252 252 252 252 252 252 252 252 252 252 252 252 252 252 252 252 252 252 252 252 252 252 252 252 252 252 252 252 252 252 252 252 252
254 254 254 254 254 254 254 254 253 253 253 253 253 252 252 252 252 252 252 252 252 252 252 252 252 252 252 252 252 253 253 253 252 252 252 252 252 252 252 252 252 252 252 252 252 252 252 251 252 252 252 252 252 252 252 252 252 252 252 252 252 252 252 252 251 251 251 251 251 251 251 251 252 252 252 252 252 252 252 252 251 251 251 251 252 252 252 252 252 252
253 253 253 253 253 253 253 253 252 252 252 252 252 252 252 252 251 251 252 252 252 252 252 252 252 252 252 252 252 252 252 252 252 252 252 252 251 251 251 251 252 252 252 251 251 251 251 251 251 251 251 251 251 251 251 251 251 251 251 251 251 251 251 251 251 251 251 251 251 251 251 251 251 251 251 251 251 251 251 251 250 251 251 251 251 251 251 251 252 252
253 253 253 253 253 253 253 253 251 251 251 252 252 252 252 252 252 252 252 252 252 252 252 252 252 252 252 252 252 252 252 252 251 251 251 251 251 251 251 251 251 251 251 251 251 250 250 250 250 250 250 250 250 250 250 250 250 250 250 250 250 250 250 250 250 250 250 250 250 250 250 250 250 250 250 250 250 250 250 250 250 250 250 250 250 251 251 251 251 251
252 252 252 252 252 252 252 252 252 252 252 252 252 252 252 252 252 252 252 252 252 251 251 251 251 251 251 251 251 251 251 251 251 250 250 250 250 250 250 250 250 250 250 250 250 250 249 249 249 249 249 249 249 249 249 249 249 249 249 249 249 249 249 249 250 250 249 250 249 250 249 250 249 249 249 249 249 249 249 249 250 250 250 250 250 250 250 250 250 250
252 252 252 252 252 252 252 252 252 252 252 252 252 252 252 252 252 252 252 251 251 251 250 250 250 250 250 250 250 250 250 250 250 250 249 249 249 249 249 249 249 249 249 249 249 248 248 248 248 248 248 248 248 248 248 248 248 248 248 248 248 248 248 248 249 249 249 249 249 249 249 249 248 248 248 248 248 248 248 248 249 249 249 249 249 249 249 250 249 249
252 252 252 252 252 252 252 252 252 252 252 252 252 252 251 251 251 251 251 251 250 250 250 250 250 250 250 249 249 249 249 249 249 249 249 248 248 248 248 248 248 248 248 248 248 247 247 247 247 247 247 247 247 247 247 247 248 248 248 248 248 248 248 248 247 247 247 247 247 247 247 247 247 247 247 247 247 247 247 248 248 248 248 248 248 248 248 248 248 248
252 252 252 252 252 252 252 252 252 252 252 251 251 251 250 250 249 249 250 250 250 250 250 250 249 249 249 249 249 249 249 248 248 248 248 248 248 248 248 247 247 247 247 247 247 247 247 247 246 246 246 246 246 246 246 246 247 247 247 247 247 247 247 247 246 246 246 246 246 246 246 246 247 247 247 247 247 247 247 247 247 247 247 247 247 247 247 248 248 248
253 252 252 252 252 251 251 251 251 251 250 250 250 250 249 249 250 250 250 249 249 249 249 249 248 248 247 247 247 247 247 247 246 246 246 246 246 246 247 247 247 246 246 244 250 244 245 247 247 244 243 246 248 247 245 246 246 245 244 245 245 246 246 247 246 246 246 246 246 246 246 246 246 246 246 246 246 246 246 246 246 246 246 246 246 246 246 246 247 247
252 252 252 251 251 251 251 250 251 251 251 250 250 250 250 250 249 248 248 248 248 248 247 247 247 247 247 247 246 247 247 247 247 246 246 246 246 246 246 246 246 244 246 248 242 244 247 247 241 249 250 249 241 244 245 246 244 247 248 247 246 245 244 243 245 245 245 245 245 245 245 245 245 245 245 245 245 245 245 245 245 245 245 246 246 246 246 246 246 246
251 251 251 250 250 250 250 250 250 250 250 250 249 249 249 249 248 248 247 247 247 247 247 246 247 247 246 246 246 246 246 246 246 246 246 246 245 245 245 245 239 246 248 239 244 243 242 236 243 240 236 242 241 244 241 243 241 241 240 239 242 245 245 242 243 243 243 243 243 243 243 243 243 243 243 243 243 243 243 243 243 243 244 244 244 245 244 245 244 245
250 250 250 250 249 249 249 249 249 249 248 248 248 248 247 247 248 248 247 247 247 247 246 246 246 246 245 245 245 245 245 245 244 244 244 244 244 243 242 242 245 239 241 240 243 238 240 241 239 242 243 238 237 240 243 239 243 243 241 241 242 243 242 241 242 242 242 242 242 242 242 242 242 242 242 242 242 242 242 242 241 241 242 242 242 242 242 242 243 243
249 249 249 249 249 248 248 248 248 248 247 247 247 247 246 246 247 246 246 246 246 245 245 245 245 245 244 244 243 243 243 243 242 242 243 242 242 241 241 240 243 239 237 240 233 240 238 230 232 231 236 235 241 235 238 236 237 239 241 243 242 238 239 243 241 241 241 241 241 241 241 241 240 240 240 240 240 240 240 240 241 241 241 241 241 241 241 241 242 242
248 248 248 248 247 247 247 247 247 247 247 246 246 246 246 246 244 244 244 244 243 243 243 243 243 243 242 242 241 241 241 241 241 240 241 240 240 239 239 239 236 240 240 233 240 220 189 165 166 164 180 198 225 230 236 237 237 236 235 238 239 239 239 240 239 239 239 239 239 239 239 239 239 239 239 239 239 239 239 239 240 240 240 240 240 240 240 240 241 241
247 247 246 246 246 246 245 245 245 245 245 245 244 244 244 244 242 242 242 242 241 241 241 241 241 240 240 239 239 239 239 239 239 238 238 237 236 237 237 238 239 232 235 233 219 153 113 109 108 112 112 114 134 176 215 234 234 237 238 237 237 239 238 235 238 238 238 238 238 238 238 238 238 238 238 238 238 238 238 238 238 238 239 239 240 240 240 240 240 240
246 246 245 245 245 245 244 244 243 243 243 243 242 242 242 242 242 242 241 241 241 241 240 240 239 239 238 238 237 237 237 236 236 235 234 233 234 234 235 236 235 233 235 231 129 104 92 90 107 90 85 116 114 112 116 146 197 221 237 237 233 234 237 236 236 236 236 236 236 236 236 236 237 237 237 237 237 237 237 237 236 236 237 237 238 239 240 240 240 240
244 243 243 242 242 243 243 243 243 243 242 242 241 241 240 240 240 240 240 240 239 239 238 238 237 237 237 236 236 232 236 233 234 230 218 199 204 227 235 233 236 233 233 196 89 96 88 88 82 69 66 73 73 77 95 133 155 210 228 237 236 237 237 233 236 235 235 235 235 237 237 236 237 237 237 237 237 237 236 236 235 237 238 238 237 237 238 239 239 240
243 243 242 242 242 242 242 242 242 241 241 241 241 241 241 240 239 240 240 239 239 238 237 237 235 237 233 235 232 237 229 231 229 164 190 143 215 218 235 235 234 235 228 155 52 164 95 99 83 78 69 70 68 78 97 110 120 177 209 232 236 236 237 238 237 237 236 236 237 236 236 235 234 234 234 234 235 235 236 236 239 238 238 238 237 237 238 239 239 240
242 242 242 242 242 242 242 241 240 240 239 239 239 238 238 238 238 239 239 238 237 236 235 234 236 232 236 229 230 232 224 224 185 171 113 94 189 202 216 217 219 222 212 126 136 144 108 103 90 57 51 52 61 65 83 86 105 156 194 228 236 233 231 234 236 237 237 237 236 236 235 235 238 238 237 237 237 237 237 238 234 234 235 236 237 239 239 240 239 239
242 242 243 243 243 242 241 241 240 239 239 239 239 238 237 238 238 238 238 237 236 235 234 234 236 234 232 236 224 217 151 191 139 76 61 92 111 112 104 116 124 136 117 103 74 73 97 170 161 62 79 93 97 118 138 149 184 205 218 231 238 235 235 237 237 237 237 237 236 236 236 237 235 235 235 234 234 234 235 235 237 236 236 237 238 238 237 236 239 239
240 240 242 242 242 241 241 240 240 240 240 240 240 239 238 238 237 237 237 237 236 236 235 235 229 237 233 229 180 123 115 149 102 63 58 104 122 125 108 70 111 132 127 113 64 39 55 105 165 125 89 150 180 208 226 235 236 240 236 234 238 237 238 238 236 236 236 235 235 235 235 236 235 236 237 237 238 238 237 237 238 236 235 235 236 236 236 235 231 232
239 240 240 240 240 240 240 240 240 240 241 240 240 239 238 237 236 237 237 237 237 236 237 236 237 230 225 198 135 134 84 79 44 36 78 102 95 116 109 85 107 117 100 101 95 45 60 88 100 127 152 166 223 231 225 238 237 240 242 237 241 239 240 238 238 238 237 236 236 234 232 231 229 228 228 227 225 224 222 221 221 219 216 214 213 212 212 211 209 212
240 241 240 240 240 240 240 240 240 240 241 241 240 240 239 238 237 238 238 238 238 237 237 237 231 231 165 100 85 97 73 41 34 48 95 72 82 91 100 79 109 90 99 112 107 63 38 62 91 69 50 77 104 183 224 229 238 234 233 224 224 219 220 221 217 216 215 214 213 209 203 198 199 198 195 191 188 186 184 184 179 179 178 175 170 164 159 157 156 161
242 242 242 241 240 240 241 241 239 240 240 241 241 240 240 239 239 239 239 238 238 237 237 236 236 211 102 74 47 70 116 53 30 81 70 37 75 79 109 102 101 75 52 41 108 99 35 22 82 50 40 72 121 151 210 212 206 196 195 187 186 173 168 166 171 170 169 168 166 160 150 143 137 135 132 128 126 125 125 126 127 132 138 141 138 132 126 122 135 141
242 240 238 239 239 238 237 237 239 235 236 237 233 235 236 232 231 228 227 226 224 223 224 222 227 168 89 28 44 62 92 45 17 80 66 47 70 120 158 160 127 75 70 53 83 93 81 25 78 56 40 49 73 161 184 166 151 144 141 134 119 114 118 121 128 135 136 135 138 138 131 124 129 139 136 125 121 121 121 124 127 134 144 146 136 127 128 134 141 141
225 226 227 226 222 218 218 220 217 212 209 207 206 207 204 198 190 187 183 179 176 175 178 181 180 143 44 38 59 70 70 37 28 78 104 103 131 156 167 152 157 97 108 103 105 77 42 29 91 42 58 39 57 158 188 175 166 164 162 156 149 149 143 131 132 142 145 138 131 128 133 140 148 153 147 135 134 135 133 133 134 135 143 147 141 142 148 149 153 148
201 201 199 195 187 177 171 169 170 159 143 136 144 149 142 133 115 117 112 105 101 98 102 114 133 89 44 50 72 62 49 33 55 100 100 105 169 126 135 133 154 148 109 105 93 114 53 26 82 52 43 38 47 167 153 145 142 148 153 148 141 139 133 121 118 131 140 133 119 114 128 149 169 174 166 155 155 156 151 147 148 143 144 146 147 159 174 178 165 155
148 148 150 155 159 158 155 153 151 150 140 133 137 134 119 108 103 109 107 102 99 93 97 112 130 73 55 65 52 56 51 51 76 96 118 149 104 53 89 37 110 137 103 110 126 111 74 39 55 51 43 24 55 117 137 88 85 88 91 90 84 81 82 84 92 104 114 114 108 108 128 155 175 181 174 162 160 162 162 163 163 158 155 158 166 173 181 189 177 165
132 131 133 140 148 155 159 161 166 174 168 151 138 131 131 137 142 145 143 146 151 145 142 151 159 105 65 59 50 36 39 54 70 126 130 147 123 71 73 79 116 138 130 131 117 105 76 58 50 49 39 19 64 164 127 114 92 85 78 80 89 97 103 107 106 109 113 117 121 127 142 162 174 181 174 156 147 147 155 167 169 160 143 145 164 162 156 167 163 152
112 114 119 126 135 147 162 174 177 189 193 182 165 155 159 168 181 176 173 183 195 193 185 186 184 171 75 51 56 117 53 65 58 113 115 164 115 83 89 81 108 128 127 129 53 132 65 72 39 40 41 46 70 167 167 149 134 131 124 124 138 153 161 165 160 159 156 157 159 157 156 158 165 173 168 151 134 123 126 139 149 138 118 123 149 147 132 136 146 136
133 134 137 140 143 151 164 175 184 183 183 177 167 166 176 184 179 170 169 181 193 194 193 196 194 203 194 188 184 172 55 65 51 124 56 132 113 44 12 82 89 105 121 122 59 111 36 59 48 50 50 64 124 190 181 166 163 169 170 168 168 165 165 171 181 184 181 175 171 164 155 150 153 160 158 145 128 109 103 112 126 122 117 129 150 153 140 133 138 130
157 155 154 154 155 156 159 162 162 159 163 162 153 151 160 166 161 154 157 167 173 177 186 196 203 196 204 194 185 167 89 61 74 118 65 55 84 32 9 10 43 84 81 50 59 87 40 37 38 44 51 78 165 203 198 184 170 175 178 176 160 131 116 123 156 163 162 154 149 149 149 149 156 158 154 146 134 118 112 121 129 124 123 129 139 155 162 159 153 144
157 153 151 150 148 144 143 146 149 157 150 138 144 153 160 167 171 174 171 163 157 155 157 162 179 193 194 188 185 187 103 60 81 85 73 51 134 55 38 55 70 141 52 93 79 95 51 25 28 63 96 109 189 202 196 184 169 157 167 173 161 147 139 147 163 166 161 155 154 150 147 151 152 164 165 162 152 134 134 147 157 153 149 137 126 132 143 145 144 135
156 147 149 155 146 133 135 145 165 161 150 148 155 161 164 169 177 190 192 175 149 126 120 125 152 173 181 181 171 183 103 47 24 31 49 39 166 84 89 88 113 169 77 78 43 37 35 41 47 75 126 93 127 185 202 192 182 171 180 185 178 175 183 201 205 200 185 172 166 155 141 136 160 170 175 181 177 160 154 158 167 155 153 152 141 138 142 142 138 127
175 162 162 162 141 120 119 123 130 123 116 118 125 135 143 149 161 175 180 162 130 98 85 86 98 120 130 138 139 149 141 62 24 19 43 56 133 102 87 90 124 136 63 61 47 32 40 30 53 105 125 96 84 107 182 218 207 201 206 206 197 191 194 205 198 181 169 177 187 177 168 172 191 190 187 188 180 163 152 144 151 134 139 158 167 173 176 169 159 147
176 167 166 157 135 126 126 119 115 121 126 123 118 122 128 128 141 148 153 152 143 129 119 119 109 108 117 126 130 139 154 76 23 15 16 44 129 99 76 104 126 114 59 51 64 39 30 25 54 114 109 99 99 76 115 188 188 190 193 188 177 166 155 148 138 121 111 128 152 159 166 182 202 193 177 168 163 165 169 163 152 140 147 163 170 179 180 168 158 152
182 178 180 172 161 170 184 182 186 192 194 183 167 160 163 164 164 165 167 175 181 178 173 173 174 157 167 177 175 184 133 97 39 15 24 17 111 164 121 114 196 111 53 40 45 40 31 21 40 98 89 101 126 95 78 108 127 137 137 127 119 116 109 99 98 98 90 91 114 143 162 172 179 177 165 154 152 162 172 167 155 154 167 174 166 163 167 165 158 159
206 198 194 187 177 185 205 215 216 208 199 188 173 156 150 152 165 168 176 190 200 200 197 200 202 200 202 205 209 181 108 110 72 27 10 18 30 115 124 120 108 50 45 47 31 24 27 46 73 79 75 111 136 116 85 68 142 156 148 126 110 104 103 96 110 120 119 117 131 151 164 171 179 183 172 160 154 158 164 160 155 153 163 172 162 150 152 159 163 167
214 199 185 174 164 162 171 180 175 164 149 143 137 117 97 93 109 116 135 163 185 190 188 190 193 200 195 197 200 142 102 111 106 57 31 21 20 71 56 42 47 60 51 35 39 33 34 96 110 64 78 108 132 138 90 74 161 177 170 157 147 143 148 149 152 157 157 156 157 157 161 172 189 191 179 169 165 162 166 169 171 162 157 158 155 142 134 135 134 141
176 160 142 132 129 127 125 124 126 115 92 82 89 87 75 71 76 78 94 125 152 154 142 134 131 127 138 161 155 123 93 98 120 71 38 36 16 38 60 53 42 59 52 36 48 69 87 117 49 58 73 98 121 126 104 86 155 164 153 144 138 130 135 137 141 147 142 135 137 143 155 168 169 177 175 177 171 147 130 127 121 119 111 109 116 118 114 114 115 123
149 113 96 99 98 102 115 121 115 102 85 74 72 75 78 80 79 90 107 124 138 141 131 119 120 114 119 137 154 126 109 78 94 115 79 33 46 31 50 55 39 50 39 29 47 72 81 69 55 59 64 98 128 142 102 81 134 122 119 107 101 88 84 86 86 85 82 80 82 92 104 112 119 127 139 151 159 154 135 117 109 104 96 85 76 80 89 93 111 124
142 112 98 106 109 111 122 131 121 113 100 88 87 93 96 94 105 117 132 143 147 144 135 128 121 123 112 117 143 117 91 69 43 88 108 63 44 23 35 76 66 39 11 8 48 61 47 49 54 60 63 108 132 135 98 95 118 118 114 104 95 83 79 76 72 67 63 62 61 62 66 71 76 77 80 88 103 119 129 130 127 128 130 129 124 118 111 103 102 110
124 111 110 122 126 122 128 141 142 139 127 110 102 103 103 100 98 105 113 117 114 109 104 100 87 92 91 88 110 123 117 71 47 38 74 72 54 40 40 58 34 45 11 24 27 43 29 56 50 45 68 99 131 155 87 98 123 133 124 120 111 103 97 88 89 82 76 75 73 69 69 72 81 82 80 76 75 80 86 89 107 107 111 119 129 136 136 133 124 127
141 137 133 135 134 124 120 127 131 135 132 121 108 101 96 92 87 85 83 83 84 82 79 77 82 76 74 79 102 116 114 80 49 43 60 66 51 41 60 30 27 27 35 50 33 38 42 48 47 55 55 91 129 133 96 98 99 118 115 128 132 133 131 121 121 115 108 103 99 97 97 99 106 112 114 109 103 101 106 110 106 99 90 85 89 96 101 104 116 117
119 118 110 110 119 124 124 130 124 118 110 101 94 89 88 89 90 84 78 78 79 80 79 79 79 74 83 86 98 131 140 92 54 39 55 41 48 45 22 5 13 72 81 52 20 48 41 49 41 63 70 102 126 96 85 105 97 112 98 101 104 112 124 130 131 134 133 130 129 133 134 132 131 140 147 146 140 138 143 148 155 151 140 127 117 107 100 101 102 104
97 104 105 106 115 125 134 144 144 127 110 103 102 103 103 104 100 96 94 94 93 92 93 97 98 102 94 102 131 131 117 117 61 54 45 62 62 26 27 14 50 81 81 86 31 37 61 43 32 68 86 101 115 78 84 110 100 127 129 124 114 103 100 101 115 125 133 134 137 143 142 136 132 140 150 155 156 158 163 167 174 180 179 176 173 163 156 160 159 162
123 127 128 124 118 114 117 124 127 121 117 119 122 120 112 105 104 101 101 103 103 100 104 110 117 125 123 124 140 139 123 121 74 55 37 68 62 41 34 10 45 95 74 98 31 54 60 31 42 58 87 77 95 96 86 122 103 138 155 148 145 135 128 128 131 138 145 147 150 153 150 144 136 135 134 133 135 140 147 153 160 168 170 174 181 180 179 187 197 200
140 133 130 134 138 138 137 140 134 137 139 139 137 135 129 123 124 119 118 122 125 125 129 135 144 146 143 147 153 138 118 125 88 58 33 74 77 56 18 13 36 76 95 61 35 60 42 14 39 62 65 87 110 96 100 114 107 141 163 152 159 158 152 149 151 153 156 161 168 174 176 174 168 162 154 150 149 151 153 155 160 168 172 181 194 196 194 200 205 209
125 121 121 126 130 130 133 138 146 145 147 147 143 142 145 145 149 154 153 148 149 155 156 152 152 150 161 162 167 144 130 114 89 79 37 23 71 45 15 23 25 17 13 32 92 44 23 23 40 53 70 104 108 88 87 109 106 150 185 180 180 185 184 177 176 173 171 174 181 188 193 195 201 206 205 203 205 209 211 212 218 215 215 218 218 216 216 218 226 227
127 124 123 124 121 116 114 116 115 113 113 114 114 120 127 131 146 159 171 173 170 168 166 163 164 161 168 169 174 161 124 123 103 62 57 23 55 68 57 44 48 31 28 36 81 45 26 32 35 44 71 108 106 101 96 93 106 164 201 200 200 203 203 205 200 194 191 196 202 206 208 211 215 223 226 226 227 228 226 226 231 229 228 228 226 224 224 226 229 232
148 146 147 148 147 146 150 156 157 154 153 150 146 144 145 142 149 155 162 167 170 172 173 172 166 165 167 170 177 176 110 116 128 87 58 41 47 76 83 56 45 46 39 36 102 53 39 26 28 52 84 105 101 97 113 99 101 166 212 209 204 201 201 208 206 199 199 208 214 215 216 220 217 226 231 231 233 234 233 233 236 234 232 229 226 225 227 229 232 235
156 157 162 168 171 175 184 193 197 196 197 194 189 184 179 173 171 172 177 183 185 181 175 171 170 169 170 177 184 188 115 98 116 116 64 57 44 63 94 78 58 41 43 52 77 62 31 28 48 77 43 101 96 99 112 101 98 151 218 209 204 199 198 205 205 203 206 214 220 220 222 224 226 231 233 233 236 238 240 242 242 240 237 235 234 234 236 238 240 242
180 185 192 197 198 197 200 204 200 199 199 197 195 195 195 191 185 189 196 203 202 194 187 185 179 178 179 185 191 193 138 81 115 131 85 55 43 53 91 73 60 58 43 47 67 24 14 33 49 74 77 67 73 101 105 96 97 127 220 212 211 213 213 215 216 218 220 221 222 225 227 229 234 237 237 237 240 240 240 241 238 236 235 238 239 238 237 237 235 234
202 204 208 211 210 208 209 211 211 210 208 204 199 200 200 197 190 189 192 199 203 202 202 202 190 189 187 190 194 193 164 74 120 119 87 81 38 46 101 75 76 70 68 72 52 49 25 44 49 71 78 86 70 63 88 89 100 114 217 219 221 226 227 225 227 230 229 225 224 228 232 233 233 238 240 241 241 238 233 232 228 225 226 231 232 228 226 229 226 222
207 207 208 211 213 214 217 219 215 216 215 210 204 202 202 197 196 196 200 207 211 209 203 199 196 198 195 196 198 197 185 83 111 136 95 84 50 37 55 92 85 85 66 58 67 62 47 49 54 52 74 74 110 100 116 105 98 116 209 227 228 231 230 228 232 232 231 229 229 231 232 233 233 238 239 236 232 224 219 220 221 214 211 215 213 210 215 225 224 220
201 202 204 209 212 213 212 212 216 215 213 206 199 198 199 196 187 194 203 208 205 200 198 198 191 196 194 196 198 197 190 88 114 91 102 72 47 57 55 81 110 85 71 75 83 80 54 57 50 56 78 64 89 82 72 93 84 113 192 225 226 227 226 228 229 226 226 228 229 226 222 221 226 228 224 214 203 193 190 193 204 192 185 185 182 180 194 212 209 208
209 210 211 214 217 219 219 218 218 213 204 194 190 187 179 179 173 181 192 204 211 208 203 203 206 206 212 214 214 217 217 140 119 88 88 77 47 67 64 73 94 74 80 80 78 69 59 58 41 49 46 65 81 45 52 56 68 98 166 229 230 231 230 232 227 232 222 218 225 226 219 209 207 204 192 174 178 187 187 189 172 165 177 194 197 200 214 225 225 222
228 230 232 234 234 232 228 224 220 219 216 210 206 203 201 205 205 206 205 208 216 220 220 220 223 226 226 217 220 222 222 167 104 93 108 80 77 92 100 83 83 79 91 74 81 71 72 56 43 35 52 33 29 43 20 44 61 111 162 220 220 223 223 210 214 210 195 194 207 212 208 199 182 188 189 188 195 207 208 214 208 211 215 219 220 218 220 226 220 218
236 236 235 235 234 231 229 227 227 230 233 232 227 221 217 216 218 221 218 213 213 211 205 201 209 210 212 209 216 210 215 206 120 77 114 96 89 133 144 129 124 104 99 79 66 70 105 46 47 51 43 63 27 12 38 56 61 104 124 196 202 198 205 200 194 192 186 192 203 208 213 213 211 210 203 205 211 225 217 217 209 221 222 217 222 221 215 217 221 220
236 234 233 233 232 232 232 234 234 231 228 228 224 218 216 211 217 218 218 220 226 227 222 219 214 213 221 222 226 215 213 217 185 84 117 101 81 106 137 121 140 151 127 124 107 155 128 57 52 67 48 108 48 34 30 58 73 100 103 193 210 204 206 214 197 200 203 211 213 209 214 220 210 202 200 215 202 191 178 195 193 182 178 193 206 203 204 218 221 221
234 234 235 237 237 235 234 234 235 234 232 235 230 223 224 217 225 211 196 193 200 203 204 209 210 215 226 222 226 228 220 205 207 144 107 115 66 85 108 102 120 131 160 175 170 185 111 65 51 86 155 99 91 28 37 57 69 97 104 190 210 214 208 211 211 212 213 219 215 208 213 218 226 227 212 194 177 195 191 188 182 188 195 185 164 162 182 200 195 197
245 243 243 243 241 238 237 238 235 236 234 238 228 220 229 226 216 206 195 191 191 191 199 212 215 215 220 213 209 214 215 208 201 195 132 92 56 52 52 54 93 89 122 167 193 175 120 67 66 86 118 175 144 64 38 42 68 88 96 172 185 196 195 201 202 203 202 200 191 187 200 209 209 193 182 188 191 206 203 205 206 211 215 206 200 213 219 207 206 208
246 244 243 243 241 237 236 239 229 225 215 214 201 196 213 214 212 213 214 214 212 208 209 217 224 216 205 200 192 186 189 195 201 207 152 111 55 53 30 37 54 81 61 109 168 192 140 78 102 141 170 205 154 71 54 50 78 85 95 178 188 193 199 203 204 208 209 206 195 194 208 212 215 207 206 205 203 215 221 226 227 220 220 227 231 228 226 226 228 230
215 216 220 224 223 217 214 214 220 217 211 216 205 195 203 194 208 208 207 213 222 224 218 214 210 206 190 193 205 204 198 196 207 187 156 143 75 41 46 25 43 45 61 57 99 118 107 74 103 150 178 188 197 117 59 51 70 81 100 196 210 208 209 191 195 199 204 211 212 217 222 214 219 217 226 228 227 228 227 223 224 231 223 212 216 223 226 230 228 230
195 181 174 174 172 174 181 183 187 177 182 185 175 165 161 150 158 165 164 147 156 186 202 212 207 199 196 204 208 208 215 218 224 212 176 129 85 66 58 39 19 41 67 72 50 89 136 83 123 201 210 212 209 161 100 65 49 80 87 148 215 212 207 202 207 217 224 215 228 218 221 227 220 212 223 220 221 214 206 198 198 199 195 193 196 204 212 213 206 207
207 198 193 176 158 151 169 184 185 185 192 191 178 166 156 143 129 135 147 161 176 183 191 209 211 217 217 211 206 212 222 223 218 221 202 115 76 67 65 47 23 71 98 153 94 96 165 184 112 188 212 212 192 159 157 165 72 64 82 93 202 219 221 213 222 218 221 221 220 228 224 200 187 185 187 155 153 182 208 226 220 217 220 218 213 204 184 169 172 189
206 210 220 215 210 205 210 209 208 209 211 215 215 215 212 210 207 205 196 203 220 221 217 217 209 201 202 213 219 213 204 200 192 177 181 122 85 71 72 62 60 89 104 147 101 159 205 183 210 213 214 226 207 159 157 177 84 67 75 101 188 196 209 220 221 218 203 200 198 208 184 157 147 153 148 182 214 218 237 232 223 230 219 219 214 213 227 214 203 203
206 210 207 205 209 223 222 212 211 213 210 211 204 196 186 189 192 217 220 220 225 226 229 227 228 226 222 214 212 213 205 201 200 196 207 174 94 73 80 62 68 83 98 98 176 197 195 207 211 211 223 223 201 166 158 179 85 53 70 65 131 191 202 210 215 211 179 174 191 216 206 202 201 222 222 211 217 225 217 195 185 168 183 187 198 216 203 200 186 181
224 226 215 216 212 223 215 212 209 224 222 214 196 180 158 153 184 213 225 229 227 218 223 228 229 217 210 207 209 207 206 220 227 222 214 217 131 74 87 87 66 73 86 63 169 216 221 225 213 219 229 209 194 184 162 174 79 61 62 71 82 195 203 204 219 213 199 195 196 199 198 202 206 221 212 179 176 201 207 205 196 197 218 209 192 184 167 168 202 210
213 207 198 213 211 203 179 173 193 213 210 208 211 229 225 221 209 210 207 212 219 224 227 227 230 230 221 204 213 224 205 189 210 220 199 197 150 73 70 76 69 132 88 67 190 221 227 227 223 226 221 194 177 175 151 162 73 45 49 62 66 129 191 196 200 222 209 175 188 207 200 176 197 217 206 195 182 184 193 186 195 203 188 200 184 155 186 206 190 189
216 206 201 211 222 216 209 211 227 235 222 212 206 225 221 215 223 220 222 221 223 233 234 229 223 220 222 216 217 211 192 197 179 188 187 188 168 74 51 84 82 109 174 140 193 219 214 207 219 214 189 188 180 176 150 138 58 25 43 55 67 117 171 179 197 209 212 203 190 158 151 169 184 188 205 210 178 155 161 195 144 194 204 185 177 185 194 182 167 159
184 192 199 182 175 151 153 160 165 188 203 220 215 227 226 231 219 212 224 228 225 227 224 222 207 209 220 218 212 194 174 188 180 192 202 183 173 110 59 70 84 87 119 159 154 158 163 174 191 164 139 197 192 155 129 124 71 38 36 42 72 91 182 185 209 182 188 207 194 179 184 191 149 176 166 174 169 180 203 185 195 195 151 135 158 181 196 184 195 199
228 229 212 196 190 196 196 204 220 230 221 227 231 229 224 191 169 201 217 187 165 183 175 165 218 235 232 226 205 200 183 179 198 213 191 175 183 176 95 84 93 78 125 108 136 154 163 184 178 171 179 184 170 175 169 158 107 55 41 52 60 58 78 192 201 217 205 204 209 194 203 223 216 181 161 214 218 203 173 179 187 189 177 166 190 165 162 161 175 192
202 233 232 222 230 227 228 225 224 230 230 210 216 232 222 216 218 221 211 217 216 208 195 186 211 217 232 227 205 188 189 194 185 199 202 205 223 215 207 205 170 139 82 111 137 139 170 175 158 155 152 166 164 173 178 172 162 95 72 53 52 67 107 152 197 192 199 214 217 204 220 208 220 206 185 187 198 203 193 191 205 206 203 206 207 182 179 176 194 209
227 220 221 236 228 238 227 222 232 216 220 220 214 216 190 139 143 150 177 198 187 173 166 177 194 198 223 212 206 190 193 198 197 200 206 209 219 199 215 214 217 175 93 126 118 137 158 163 145 136 137 145 165 163 163 156 154 144 149 87 98 112 178 148 198 208 206 198 195 210 218 219 219 219 186 176 168 159 174 189 161 144 160 149 176 193 171 216 187 189
204 188 177 221 210 220 232 221 226 231 223 230 232 221 213 196 194 211 215 211 203 212 214 179 202 189 196 195 195 192 189 195 205 195 204 208 191 198 216 210 217 207 162 96 110 121 111 112 129 132 127 108 129 152 151 150 141 160 176 177 180 182 148 170 192 188 205 197 176 200 206 213 207 213 220 184 185 151 159 139 129 144 148 202 191 190 186 173 184 180
219 217 227 228 238 236 232 219 215 213 186 175 185 179 174 184 184 156 182 191 202 221 212 216 180 211 172 145 167 188 158 176 182 199 187 184 174 171 171 188 205 217 216 184 100 106 116 104 114 132 130 128 131 134 139 168 182 175 190 186 207 198 196 156 173 174 182 193 171 173 173 194 192 175 190 199 187 188 169 164 162 166 171 176 169 166 178 171 159 163
201 227 222 214 195 166 173 157 179 189 170 183 202 194 186 163 131 119 118 131 173 178 152 155 164 193 174 158 145 191 188 174 157 215 186 158 163 180 185 175 183 175 206 217 201 90 91 102 93 102 62 115 115 132 118 153 188 192 203 194 216 217 210 186 169 174 149 129 156 141 157 148 159 159 168 183 162 160 175 165 159 165 174 154 161 158 164 155 178 176
126 150 149 151 111 95 108 141 155 216 219 232 229 172 138 117 126 129 196 199 160 146 149 158 190 207 213 226 201 198 188 166 159 151 142 162 149 161 185 175 190 224 199 214 228 216 129 93 85 106 111 104 114 109 108 131 182 192 197 208 202 205 215 205 197 151 102 141 119 102 102 121 110 128 142 188 162 143 163 165 145 185 161 159 171 189 161 176 160 145
165 183 154 162 172 153 162 199 217 226 229 226 219 208 206 215 211 224 214 175 172 175 178 188 170 178 159 143 140 155 179 166 172 168 174 204 198 206 192 198 200 202 220 203 201 221 213 160 74 84 89 93 73 105 81 149 187 159 190 202 215 208 197 194 188 193 191 126 85 55 78 101 110 108 142 134 154 163 179 172 179 193 197 178 177 182 179 169 171 154
222 221 215 195 201 209 176 188 194 182 215 195 188 174 172 169 211 196 201 196 194 192 193 178 167 195 189 195 178 196 203 197 194 229 211 196 197 208 211 199 196 184 197 213 175 213 220 205 150 81 85 84 80 104 134 207 200 147 156 172 194 179 179 166 172 170 180 196 173 73 58 83 184 173 190 164 135 139 148 158 155 179 165 171 162 202 220 187 171 181
213 203 168 175 207 205 183 200 224 209 213 221 179 241 230 185 173 179 170 186 190 182 180 179 188 184 205 227 204 174 185 185 206 199 183 184 198 216 206 209 199 188 157 186 221 214 205 203 195 123 76 42 70 84 181 181 146 89 112 120 154 148 168 168 160 168 135 181 189 174 172 173 173 179 190 190 195 210 169 187 194 191 202 209 209 209 215 211 185 187
191 193 147 171 191 169 183 208 202 176 201 223 240 227 228 226 211 158 168 168 163 171 188 209 215 228 227 197 178 172 199 200 212 208 179 160 204 211 178 185 178 169 173 186 206 208 207 208 197 176 128 135 159 172 178 130 151 108 132 133 147 152 152 159 160 165 151 181 189 157 154 149 177 178 165 165 171 177 168 162 144 177 184 184 201 200 177 163 173 175
229 218 215 199 174 190 207 216 222 216 220 236 241 233 226 223 220 198 211 219 168 191 205 192 235 235 222 216 206 198 201 210 221 221 205 177 200 184 154 118 109 140 165 187 193 208 203 195 194 195 188 188 190 197 182 177 219 193 133 94 160 173 187 178 133 156 168 158 172 188 184 185 205 180 170 181 195 192 182 178 160 183 203 176 179 142 175 191 177 142
216 200 175 183 187 182 189 214 213 232 234 222 223 223 226 218 214 181 183 193 205 219 232 234 222 227 226 219 186 184 192 194 207 213 215 190 177 170 177 171 174 169 188 179 147 165 162 189 184 188 218 212 205 201 215 217 214 193 167 162 173 203 181 134 138 117 146 151 169 176 182 203 177 192 199 152 156 118 152 164 151 148 155 146 135 103 99 47 74 52
191 174 184 196 197 221 226 221 225 210 218 242 227 221 215 198 192 191 196 197 200 223 207 224 226 220 221 223 220 206 196 189 186 199 204 187 164 178 177 191 186 186 165 165 160 144 160 191 205 205 220 205 207 217 207 193 213 146 146 152 162 175 183 160 161 155 169 166 189 171 170 169 201 204 205 93 84 74 73 100 86 129 152 52 84 42 28 35 84 71
222 206 186 209 229 238 227 201 211 226 235 235 236 232 225 223 182 171 167 179 193 187 208 210 215 224 230 221 235 223 211 209 206 190 184 181 167 200 201 173 195 175 179 163 141 142 176 211 205 199 211 171 187 201 205 211 209 170 166 177 139 122 173 181 190 182 182 172 98 67 93 88 163 173 204 163 65 93 113 108 71 59 67 26 64 22 92 100 116 173
210 230 229 204 186 178 170 201 229 228 238 238 237 239 240 235 237 233 235 233 234 233 232 227 235 231 230 214 210 208 210 204 196 198 184 177 178 173 177 147 129 134 165 178 186 183 168 186 193 187 198 172 150 147 173 179 182 169 172 83 62 58 79 140 136 126 96 99 125 73 77 113 116 169 187 146 160 209 203 154 191 94 155 89 142 116 120 63 163 66
213 210 227 218 228 212 216 218 236 240 238 235 237 233 230 234 232 226 222 214 216 212 217 218 219 216 208 199 201 201 197 184 174 175 179 181 166 172 135 99 46 37 100 131 143 82 109 139 161 166 176 158 125 167 147 146 151 109 140 60 57 66 106 70 47 56 101 102 86 39 53 111 124 100 125 147 107 129 140 169 136 61 97 128 93 131 70 79 82 95
232 232 236 229 233 232 232 235 226 230 227 224 225 222 219 223 221 220 224 224 228 219 212 204 208 207 204 193 196 190 185 168 133 89 157 157 154 93 54 57 106 104 90 89 97 37 49 134 71 94 123 92 59 106 93 55 71 47 56 64 55 51 61 16 83 62 69 60 76 62 66 92 70 46 124 84 95 69 118 115 195 104 131 115 170 177 89 96 98 106
