P2
90 90
255
42 39 36 38 40 41 41 42 43 38 41 43 45 45 41 42 50 48 41 50 49 54 52 46 38 31 44 57 50 75 62 127 94 110 85 64 57 59 53 117 110 97 96 93 94 97 97 107 105 110 114 113 109 108 110 114 114 108 50 44 46 38 45 62 48 85 51 50 74 47 50 45 65 61 48 36 49 49 43 37 43 38 47 41 36 37 47 37 38 38
40 38 36 37 39 40 41 42 43 39 41 44 46 46 42 43 48 46 40 50 50 54 53 49 34 41 45 43 64 89 72 86 92 80 93 68 53 65 57 118 119 115 105 107 104 97 107 111 104 107 110 111 110 110 111 111 118 108 48 50 39 46 40 52 52 82 42 60 95 41 53 61 56 57 49 39 48 47 46 45 40 37 46 42 39 41 48 37 39 39
39 37 37 37 38 39 41 44 43 39 42 44 47 47 43 45 48 47 41 49 51 53 54 52 36 36 36 40 57 84 86 61 100 60 88 65 60 53 57 130 124 127 124 131 126 113 113 110 113 112 112 113 114 113 110 108 119 114 46 42 44 65 49 58 50 73 45 59 100 47 62 67 45 52 51 41 45 42 44 46 43 39 43 39 38 45 52 41 39 39
39 38 38 39 39 40 43 46 42 38 42 44 47 47 44 46 49 49 44 49 52 52 54 55 38 39 45 56 40 48 70 77 105 102 85 74 52 64 50 121 124 120 128 127 125 121 113 118 120 117 116 117 120 120 119 118 120 108 49 49 45 40 41 62 41 64 69 61 101 68 65 43 39 47 51 42 43 39 41 42 44 41 42 40 41 49 52 41 39 39
39 39 39 39 39 40 43 47 41 37 41 44 46 47 44 46 50 50 45 48 54 51 55 59 38 41 37 54 66 57 52 73 56 67 58 51 59 61 57 122 119 119 130 128 123 120 116 125 129 124 120 120 122 123 123 123 119 106 51 52 39 33 44 46 49 64 66 44 91 61 55 40 45 48 50 42 43 41 43 41 41 41 42 44 44 50 47 36 40 40
40 39 38 39 39 40 43 46 40 36 41 43 45 46 43 46 48 50 46 47 55 50 56 63 46 46 40 31 48 48 59 81 66 55 59 66 64 64 53 128 120 133 137 141 129 115 121 125 131 125 120 120 122 124 126 128 123 116 48 46 41 45 44 52 39 57 57 55 109 50 42 45 57 56 54 43 43 42 45 41 44 42 39 41 40 44 42 38 39 39
42 40 39 39 39 40 43 46 39 36 41 43 45 46 43 46 47 49 46 46 55 48 55 64 51 49 44 37 43 51 64 61 90 71 92 64 70 62 64 124 129 137 134 136 128 118 127 130 125 119 115 120 126 131 135 138 132 99 49 51 44 39 38 64 45 55 66 59 96 47 53 61 57 55 55 46 44 42 44 38 46 43 38 40 36 40 39 41 38 38
44 41 40 40 40 41 44 46 39 36 41 43 45 45 43 46 48 50 47 45 54 46 53 63 48 61 39 40 40 53 71 89 93 80 90 72 72 60 59 128 128 125 134 137 139 141 134 137 133 125 120 123 129 132 133 134 133 66 53 49 43 71 78 41 43 47 82 53 62 46 59 51 44 46 52 46 45 42 45 38 42 42 40 47 42 41 35 37 41 41
40 48 40 40 44 37 40 47 37 39 39 41 45 44 42 43 46 53 38 48 53 46 58 61 47 58 40 39 40 42 43 78 74 95 74 84 79 63 61 130 130 132 134 135 139 146 151 153 152 138 137 128 133 146 151 157 165 82 50 46 40 51 55 64 46 51 133 51 43 56 58 44 41 39 48 42 44 48 39 45 44 40 43 52 41 40 39 37 38 39
45 40 42 40 36 48 41 47 38 40 40 43 45 43 41 43 46 52 40 49 54 47 58 61 48 58 42 40 44 59 62 84 68 95 89 93 78 55 70 139 141 143 143 142 142 144 146 147 145 149 136 126 60 64 55 89 74 85 48 46 42 40 41 67 51 45 95 51 61 57 57 38 40 47 55 52 46 44 41 39 39 43 42 44 38 39 40 47 40 41
43 44 44 45 64 42 45 42 40 41 42 45 46 41 40 44 47 51 41 48 52 46 58 60 51 52 43 45 37 44 53 75 104 98 75 82 89 66 71 91 150 152 153 152 150 149 149 149 153 149 151 134 58 67 62 65 67 81 43 50 43 50 48 52 50 46 96 63 60 38 42 52 48 52 51 47 38 38 47 43 40 46 38 38 43 46 39 44 38 40
34 42 48 41 53 51 79 44 41 42 44 48 48 42 40 47 51 51 44 46 51 46 58 59 59 54 52 54 36 34 47 68 92 102 98 90 79 48 74 93 151 154 156 156 154 153 153 154 157 157 153 109 70 81 83 90 96 88 53 50 36 41 33 66 45 52 64 67 50 45 48 49 52 49 51 51 44 45 49 43 43 46 38 39 43 50 42 40 37 41
40 41 37 41 41 45 35 46 42 43 45 49 49 43 42 49 53 50 48 49 54 48 58 55 48 48 50 50 41 51 68 79 104 110 101 89 86 60 80 87 159 161 163 163 162 160 160 161 162 152 152 121 66 78 71 73 76 81 43 46 43 109 70 57 41 44 88 60 43 51 52 55 49 39 50 50 44 45 41 41 44 43 43 45 37 43 44 42 41 46
38 39 43 51 43 58 53 47 41 44 46 49 50 45 44 49 49 45 49 51 58 50 56 48 59 57 55 52 40 38 50 65 75 103 107 94 83 57 86 123 163 165 167 170 170 169 168 169 169 172 160 116 68 73 44 47 42 43 45 46 45 47 56 68 49 54 81 54 57 57 60 37 40 33 49 46 40 43 38 47 44 41 44 52 40 40 40 37 40 48
45 45 35 38 52 48 44 47 41 44 47 48 49 46 44 47 47 41 48 50 59 52 55 45 55 54 55 57 51 37 43 65 78 107 105 96 87 60 77 134 164 165 168 173 175 174 172 171 174 170 172 115 52 76 82 84 83 87 41 52 45 44 31 72 47 53 66 56 52 63 38 41 37 43 55 54 50 49 44 46 45 41 41 51 45 40 38 44 39 47
40 43 47 40 46 76 45 41 41 45 47 47 48 46 44 45 50 42 49 49 59 54 59 48 54 60 58 56 59 48 40 47 74 113 115 109 93 61 79 162 175 176 179 184 186 183 179 176 175 171 176 137 60 72 56 56 51 45 45 46 45 35 43 61 57 63 78 52 71 32 33 44 49 57 51 44 44 45 47 42 42 43 39 44 40 36 43 69 41 49
42 46 46 42 41 44 46 46 44 41 42 53 47 45 48 46 49 42 48 49 57 48 58 53 55 58 58 56 59 44 42 43 53 108 111 103 86 70 54 183 178 177 178 182 187 189 186 182 178 180 176 128 65 77 64 69 68 65 48 45 41 45 39 59 67 62 90 61 50 38 47 45 51 50 54 52 36 47 47 42 40 43 43 40 42 48 38 72 39 37
36 41 46 46 42 40 43 48 46 42 45 45 48 46 47 57 50 45 50 52 60 51 59 54 53 56 57 56 59 50 42 42 58 99 88 104 94 57 56 181 176 175 175 178 183 186 186 185 185 183 179 141 114 91 47 45 38 47 39 46 44 46 46 66 69 60 89 51 48 46 55 51 47 43 47 50 40 47 44 42 40 42 41 50 43 50 46 98 43 41
34 37 42 47 45 41 42 46 48 48 109 63 57 44 46 53 49 46 50 52 60 51 57 54 51 52 55 56 58 57 41 43 89 115 115 104 94 72 64 190 185 183 180 179 180 181 181 181 186 186 190 146 122 96 97 93 91 81 47 48 46 46 42 48 77 60 86 49 54 55 56 44 39 36 43 51 45 45 40 44 36 44 40 44 42 59 49 79 43 39
39 36 37 42 47 47 44 42 50 39 42 45 81 49 49 42 49 47 48 50 57 50 55 54 49 48 53 55 58 62 42 45 43 107 122 108 105 65 55 196 188 188 187 186 186 187 188 189 192 188 189 150 120 89 101 79 70 70 44 49 42 38 40 48 81 55 73 56 63 57 48 33 35 38 50 53 47 42 39 47 38 44 42 32 46 59 44 44 42 37
43 39 36 37 43 48 46 40 42 54 43 92 49 40 40 51 51 47 47 50 54 49 55 56 49 47 51 54 57 62 45 51 49 68 113 121 105 79 68 180 191 192 193 194 193 194 195 195 191 192 197 164 122 82 70 74 82 78 49 53 44 40 41 45 75 47 60 62 64 50 42 35 43 47 57 52 45 41 41 47 47 40 50 35 61 45 42 42 43 38
42 43 40 36 37 42 45 43 41 38 47 40 41 37 37 46 51 45 45 50 49 47 56 55 51 48 50 53 57 57 50 61 41 74 95 125 99 70 74 84 194 195 196 195 194 194 194 194 211 202 197 167 111 84 50 60 46 52 42 52 41 37 38 47 70 48 66 61 55 43 43 47 54 52 58 49 43 43 44 43 47 39 58 43 70 41 44 42 43 38
43 44 43 39 37 38 43 47 46 44 45 76 47 41 48 47 52 43 45 53 46 47 58 54 54 51 51 52 57 51 55 70 44 127 120 110 101 75 61 87 196 196 195 195 195 196 198 199 196 203 172 168 116 89 65 70 85 69 45 48 44 48 41 43 64 50 86 52 48 48 48 50 51 47 57 50 45 43 46 41 42 45 59 44 61 43 43 36 45 39
45 43 42 42 40 39 42 48 50 45 47 63 43 47 48 47 54 43 47 58 47 49 61 55 57 54 52 52 57 47 59 76 54 123 107 114 104 63 52 95 211 208 203 199 196 196 197 198 201 197 84 112 117 83 68 74 76 63 48 49 40 45 37 44 54 46 99 41 46 59 54 45 39 38 57 56 47 41 46 42 42 51 56 45 46 40 42 45 51 43
40 44 45 43 43 43 41 42 51 53 45 42 52 51 77 106 76 47 50 53 48 49 63 53 58 58 50 51 49 52 67 75 75 132 136 120 104 68 52 66 49 44 97 159 201 201 201 199 205 201 85 115 110 85 92 104 119 91 49 42 44 42 39 45 58 42 75 53 59 53 44 38 34 41 56 54 47 47 42 43 43 48 43 42 44 42 54 43 57 44
46 48 46 42 43 43 41 39 40 49 49 42 48 46 73 71 59 46 49 56 41 62 63 51 54 59 57 54 54 52 61 59 101 130 118 119 113 75 58 81 87 76 93 154 203 206 204 207 200 206 91 107 114 90 80 104 139 75 39 45 43 36 35 44 52 49 76 58 53 54 39 37 39 44 58 58 51 47 40 41 44 47 44 42 46 44 56 46 50 42
47 48 44 38 41 46 44 41 37 49 44 43 38 51 118 65 84 43 57 52 45 56 61 53 54 56 54 44 49 51 65 64 104 115 100 120 127 81 57 77 101 65 148 165 206 203 208 200 204 209 84 90 127 101 50 61 54 51 51 41 43 46 39 43 46 45 85 61 58 35 35 48 50 47 55 56 49 42 40 44 44 45 43 41 44 43 54 45 44 41
46 48 42 35 39 45 46 45 38 35 45 46 55 48 52 44 48 63 51 57 51 62 60 48 56 55 58 45 51 49 63 63 108 111 95 113 129 79 58 69 111 156 119 164 200 206 208 205 203 206 114 115 113 85 55 50 43 54 49 35 43 44 38 42 50 45 84 62 77 50 44 44 53 47 50 54 48 41 41 47 44 43 42 40 43 41 49 41 41 41
48 50 43 34 34 39 42 43 49 35 37 40 48 48 39 56 58 84 102 93 48 58 53 51 57 54 58 47 53 50 65 72 116 113 100 114 138 78 59 58 77 102 95 171 209 198 205 209 208 214 109 105 122 97 70 67 74 63 44 47 47 43 49 42 58 62 74 44 50 60 56 51 43 40 46 55 52 43 43 46 43 41 42 41 44 41 46 40 40 39
47 49 43 35 33 35 40 45 47 47 38 46 32 41 59 38 50 46 61 66 48 60 62 55 53 48 53 46 51 53 65 76 113 106 93 113 141 77 57 51 77 81 78 168 210 208 209 205 207 209 110 102 117 94 80 81 83 81 44 40 37 36 45 43 41 56 82 59 56 53 46 37 35 37 41 51 49 43 45 45 42 38 41 40 44 42 44 40 43 40
45 46 41 35 34 35 41 48 50 46 44 44 43 46 47 58 40 100 58 84 63 52 54 50 49 48 57 53 55 55 53 56 111 105 82 103 124 73 59 57 100 135 123 179 199 207 210 202 206 217 118 96 127 98 70 93 85 87 44 46 51 47 40 52 56 52 78 65 66 49 43 36 40 45 46 50 47 42 47 43 45 38 41 40 44 42 44 42 45 41
46 45 40 36 35 36 41 49 49 46 46 46 43 37 51 53 48 58 59 92 69 61 57 53 50 50 54 49 51 60 55 56 104 111 88 109 118 77 60 55 64 90 92 181 214 205 199 214 211 207 123 98 121 100 74 99 69 69 40 41 44 86 113 140 56 57 72 66 45 43 39 42 47 55 57 60 53 46 47 38 51 42 44 41 45 44 45 45 44 40
46 47 38 35 32 39 42 50 50 45 41 53 48 42 42 51 52 50 51 63 54 135 94 51 51 51 48 53 51 52 49 60 102 109 81 102 108 76 59 60 48 79 142 181 205 206 208 210 212 212 125 110 122 100 45 49 51 45 41 43 41 43 57 58 48 57 66 42 47 44 47 54 53 49 42 56 51 43 44 43 48 46 42 42 39 40 49 40 42 47
45 45 37 35 33 42 45 52 50 45 38 47 45 44 41 43 47 54 47 48 74 44 57 51 52 43 57 51 51 53 55 63 113 91 80 111 111 80 54 58 58 53 98 181 212 214 210 210 209 213 120 114 120 98 56 46 46 48 41 47 42 36 41 38 56 45 61 52 50 51 56 50 50 47 43 51 45 41 44 42 47 43 39 41 38 41 49 39 40 45
45 45 36 35 35 44 46 52 51 44 35 40 42 49 44 41 46 53 59 46 87 88 83 56 50 51 50 55 57 48 50 70 111 90 90 106 128 75 67 57 54 54 92 181 208 212 215 216 218 220 125 101 126 109 66 67 70 69 40 45 41 37 42 41 57 47 59 56 62 56 52 50 49 52 59 57 46 43 48 46 46 43 43 46 39 45 53 45 54 61
47 46 36 35 35 44 45 49 53 43 33 37 43 53 48 46 42 39 57 58 44 98 63 126 88 51 54 42 51 55 56 66 100 186 127 109 147 73 54 58 61 64 137 180 214 218 218 220 219 213 132 117 129 97 84 88 88 84 40 45 45 42 43 42 54 50 62 59 61 52 45 49 41 57 72 63 46 41 46 45 40 39 43 48 37 46 54 49 54 62
47 46 36 35 36 44 44 48 52 39 34 41 46 54 46 48 50 44 48 49 50 45 73 51 62 60 60 54 47 54 54 67 108 76 101 102 137 73 57 56 63 57 101 179 218 218 218 218 219 220 132 103 128 111 64 86 87 85 41 45 45 40 41 42 55 43 61 58 45 45 47 40 39 61 71 62 47 42 44 42 39 37 42 49 42 55 58 53 50 60
46 45 36 36 36 44 45 49 49 35 35 45 50 53 38 41 44 46 36 40 52 57 56 65 84 57 52 43 46 58 61 71 101 69 89 112 127 71 47 59 63 46 185 184 226 220 230 214 225 224 131 132 135 117 56 69 65 69 39 44 44 36 38 43 50 42 50 47 45 49 45 40 44 67 59 57 48 45 44 42 40 39 40 49 48 63 57 53 40 51
45 45 37 37 37 45 46 51 48 35 37 46 50 53 35 36 42 49 51 49 34 50 53 66 105 50 95 49 51 55 67 64 97 47 83 103 110 63 59 57 58 45 82 179 222 213 116 124 138 230 132 120 124 105 60 42 44 49 37 45 48 37 34 36 44 45 47 48 61 63 43 44 48 74 50 54 47 42 39 41 38 43 44 49 45 56 45 48 41 53
45 46 38 38 37 45 46 51 50 37 38 45 49 55 36 36 43 57 48 53 42 44 55 49 60 108 66 45 55 60 69 65 102 100 108 97 96 63 52 53 57 40 110 183 213 122 135 126 130 178 126 106 129 119 59 84 60 53 39 41 48 42 41 44 45 39 53 65 71 72 53 43 54 86 54 62 51 42 39 46 42 55 59 58 46 51 40 51 44 57
46 49 34 35 42 45 46 50 52 34 37 47 50 49 41 34 49 55 53 44 49 44 50 59 50 58 59 63 52 61 61 67 98 103 94 97 94 61 58 51 58 54 109 178 143 133 144 152 133 148 121 91 113 96 70 61 74 66 39 39 49 65 57 73 49 37 55 69 62 79 49 49 65 82 73 59 47 48 37 42 49 53 63 45 47 48 51 49 51 57
50 46 36 40 39 46 51 53 49 35 37 47 53 51 41 34 50 56 48 41 51 50 48 52 64 55 44 72 101 54 60 62 102 100 107 103 100 60 60 47 53 54 75 189 170 175 198 215 139 172 122 109 119 116 59 63 64 64 42 42 44 46 35 44 43 42 54 89 50 47 46 49 73 83 70 56 43 42 42 49 59 56 53 39 51 51 51 43 49 52
46 48 39 41 39 48 48 50 48 39 39 45 54 53 39 35 51 58 40 39 54 57 48 48 52 61 54 108 114 66 64 76 91 79 101 96 117 63 57 53 55 45 127 137 189 181 132 162 101 176 115 126 125 100 80 84 82 75 41 40 44 44 36 39 40 46 43 81 70 49 47 65 81 79 61 54 45 49 53 63 47 53 49 42 57 51 56 50 53 55
44 54 41 39 39 47 43 49 48 43 40 43 54 52 38 36 51 58 35 40 58 59 48 52 43 60 54 45 59 100 106 67 100 72 91 102 136 57 61 49 48 52 102 130 185 186 147 172 110 166 143 80 112 109 63 61 60 66 44 46 44 38 38 43 49 48 50 72 51 70 59 59 74 61 47 52 45 61 50 62 46 60 52 46 58 44 55 53 56 60
49 50 38 50 41 43 46 52 44 43 41 44 56 53 37 37 52 57 34 44 59 53 47 58 42 42 54 53 52 71 77 75 97 43 92 93 126 66 53 53 51 53 116 133 183 201 133 183 97 199 151 110 131 126 62 69 71 66 37 39 43 40 41 38 44 42 44 81 47 76 53 64 58 47 47 63 51 74 42 58 56 65 49 44 60 47 57 50 44 51
49 42 35 68 48 39 49 45 37 38 41 47 58 53 38 40 54 56 36 48 59 46 47 60 45 45 38 45 46 47 53 66 99 91 95 100 131 52 58 49 51 49 123 154 171 172 169 194 136 145 149 51 109 115 60 46 45 49 40 42 43 38 42 47 39 44 47 74 51 54 71 108 43 46 57 73 58 79 43 63 55 64 52 49 64 52 58 44 48 54
49 59 38 66 50 39 47 39 36 34 40 48 56 50 39 44 54 56 40 50 61 44 51 59 42 48 49 36 52 47 68 64 87 87 95 97 115 55 55 55 46 46 57 157 200 197 179 202 104 178 150 48 106 94 67 62 67 58 45 40 42 41 40 43 49 38 51 78 67 71 85 52 44 54 58 65 52 65 45 64 57 67 63 54 60 47 52 38 47 51
57 91 42 46 44 40 45 43 39 34 38 46 52 47 40 47 53 55 43 51 63 47 56 58 44 48 49 52 34 50 56 49 98 54 102 106 87 61 55 51 55 39 140 134 197 189 141 216 137 163 104 80 108 123 53 37 40 38 40 40 42 39 35 39 49 44 46 87 51 48 42 43 62 72 59 54 48 52 48 62 59 63 59 47 53 49 59 47 51 55
43 46 70 92 80 53 42 45 42 35 40 49 53 47 41 48 53 58 39 53 65 36 61 58 45 54 40 55 43 45 46 63 101 78 94 108 77 55 67 49 47 48 53 122 159 232 207 235 187 169 124 79 122 97 76 75 77 75 44 37 43 35 33 38 41 45 46 85 55 43 50 64 73 60 73 73 56 75 58 65 60 54 40 48 56 47 59 42 52 52
41 40 38 41 59 80 70 38 48 36 41 55 43 56 36 50 52 56 53 49 66 40 63 59 49 57 44 55 45 45 47 59 79 68 100 113 89 61 55 49 54 38 71 114 187 209 160 238 155 179 155 165 113 106 51 42 40 35 39 42 43 35 37 40 48 37 51 81 45 67 59 59 63 70 60 57 56 63 60 61 46 53 44 45 62 49 60 46 44 44
46 45 45 42 37 40 48 52 106 37 41 44 50 53 39 48 44 53 46 57 65 37 63 62 53 59 49 54 48 45 49 54 83 94 104 107 105 59 60 52 48 42 148 121 197 198 135 220 88 186 155 61 146 95 74 79 81 78 39 44 33 37 37 40 47 42 43 86 46 66 61 62 66 75 67 61 52 69 52 54 59 37 51 53 63 43 41 40 50 50
50 48 47 46 43 39 38 38 37 56 110 71 64 49 43 49 54 47 41 47 67 38 67 64 54 58 51 53 51 46 51 49 53 47 50 50 128 55 54 53 51 42 149 129 187 181 193 193 97 147 155 63 93 95 62 42 62 42 42 38 46 68 67 58 53 47 46 90 91 66 69 65 69 67 76 67 54 69 62 55 54 51 40 60 83 47 47 49 52 53
39 46 50 49 50 49 44 37 43 42 40 57 100 91 45 54 44 43 45 59 61 45 56 59 53 55 50 53 54 49 54 48 94 46 59 58 77 65 56 50 48 48 117 125 146 81 145 202 102 104 147 106 98 77 76 81 80 88 40 40 39 55 50 68 43 43 52 59 59 74 65 60 50 52 62 53 56 49 74 60 52 47 43 45 46 53 60 46 44 45
51 44 39 45 52 49 40 38 47 49 36 44 44 53 54 82 63 58 37 67 73 34 64 58 53 52 48 54 56 52 56 47 103 64 88 62 93 57 56 48 50 40 102 96 75 73 146 212 160 97 153 100 92 69 62 46 47 37 42 36 43 43 32 43 56 44 39 46 40 59 71 54 43 53 61 56 58 58 60 66 41 75 52 56 51 46 55 30 37 38
47 48 42 36 39 41 41 42 48 45 53 51 41 44 49 41 76 105 133 144 139 41 78 56 52 50 45 55 55 52 54 44 111 48 50 62 92 48 61 51 47 47 96 122 104 121 144 210 116 144 148 85 87 71 73 71 73 70 44 39 41 44 33 41 45 50 112 42 36 69 75 66 52 57 76 66 60 71 49 64 53 50 48 47 31 35 50 39 37 38
49 46 38 35 37 36 36 43 50 49 47 44 51 50 40 47 40 51 56 49 42 62 92 106 52 48 41 55 53 51 51 41 92 38 52 58 69 57 66 48 44 42 94 97 86 156 129 199 75 149 150 111 84 70 57 39 43 38 45 35 43 59 54 43 48 48 45 38 38 62 57 57 45 40 68 48 54 45 57 46 39 34 41 48 43 36 46 35 45 47
45 50 37 35 36 43 32 46 49 42 44 41 42 49 45 52 40 47 50 48 37 44 54 63 44 38 50 53 56 49 44 36 77 40 50 67 52 58 70 48 45 44 108 59 63 102 164 191 133 138 140 61 73 70 69 71 70 68 42 42 39 35 38 40 53 40 35 38 38 61 76 77 59 46 66 46 62 46 49 33 33 39 41 51 39 40 52 42 74 105
48 47 35 35 36 36 33 50 48 47 31 34 39 41 50 43 43 47 49 53 41 41 44 44 51 48 98 58 46 46 37 51 57 51 52 62 59 54 75 77 46 34 87 48 124 146 141 180 178 98 137 56 62 70 61 32 36 43 35 38 39 35 35 35 37 45 31 31 44 61 65 64 53 48 72 55 62 45 50 40 39 36 42 51 41 50 50 49 85 100
45 45 35 41 42 40 38 47 47 49 35 39 46 44 51 36 38 42 46 57 46 44 49 44 36 48 37 76 66 44 57 43 51 42 50 60 55 42 52 47 49 43 95 47 87 113 123 185 69 130 137 49 88 73 63 56 58 56 45 35 38 36 36 37 43 33 47 49 39 60 66 65 47 46 65 54 53 41 46 40 37 36 51 52 34 52 45 54 52 48
48 49 33 42 38 45 42 45 46 42 39 36 42 44 44 39 37 43 45 53 40 39 48 43 46 43 44 56 50 37 50 41 42 28 49 59 59 53 55 47 39 41 98 46 69 79 113 186 59 118 126 41 99 71 61 38 41 39 41 34 42 36 34 36 43 37 40 40 44 65 64 71 78 70 72 63 58 51 53 47 46 37 45 54 38 54 45 64 57 45
44 47 35 53 42 48 36 45 46 39 42 40 48 45 43 38 39 46 47 51 39 42 48 41 47 45 44 49 42 38 57 48 44 56 61 57 59 49 45 39 56 38 66 47 74 117 137 169 117 139 111 46 57 64 51 43 45 42 42 35 40 34 38 49 44 43 40 42 33 53 72 64 73 66 64 62 57 52 51 43 36 34 43 60 33 37 56 105 52 45
42 42 39 62 53 54 38 59 42 39 36 36 48 42 49 41 40 45 48 49 43 48 45 42 47 39 39 51 38 46 53 50 45 59 41 41 48 47 51 37 42 40 94 46 77 162 159 162 147 112 51 44 73 57 62 51 58 51 40 34 39 38 44 52 48 43 47 46 42 61 66 75 65 55 45 40 35 40 56 61 35 42 46 63 48 44 37 43 36 34
50 41 39 47 54 61 44 65 83 78 72 47 43 37 42 38 42 45 49 46 40 43 37 52 45 46 96 99 106 106 118 113 125 108 67 51 45 46 51 80 76 66 75 45 103 80 92 121 68 79 49 45 49 62 43 66 60 67 56 52 49 42 40 37 40 46 37 33 41 57 53 51 44 43 43 43 36 34 48 49 33 46 45 44 37 46 42 37 41 40
41 37 43 39 61 67 35 34 50 56 83 52 46 49 40 43 41 44 53 48 41 47 48 84 104 30 39 38 44 50 29 41 88 110 133 144 144 107 58 137 108 72 86 61 108 153 61 48 47 43 37 41 62 93 64 82 163 170 133 94 52 34 39 44 41 152 77 42 69 44 44 47 44 42 40 40 38 40 63 69 48 49 50 49 45 50 43 45 39 36
42 40 39 35 47 53 32 39 44 38 42 35 45 48 40 42 42 43 41 45 44 44 44 66 68 41 41 37 64 75 30 39 53 79 73 64 74 83 101 85 89 126 63 72 87 75 130 75 45 45 46 47 51 37 68 122 147 146 58 85 39 41 35 54 51 44 57 58 53 80 46 48 46 43 45 41 40 41 40 43 41 51 39 54 36 41 40 40 37 35
60 38 61 98 92 86 35 35 47 35 35 93 70 78 44 45 44 44 39 40 42 51 44 38 41 43 46 46 49 88 99 91 73 36 45 52 48 46 76 75 59 105 75 64 62 160 165 104 45 38 40 54 65 24 71 203 126 113 68 82 87 60 55 61 55 51 135 63 53 47 113 51 79 37 48 73 44 38 48 52 37 59 57 47 33 39 39 37 44 39
37 46 86 46 104 107 39 41 53 95 93 39 41 78 83 96 61 46 36 49 48 45 39 37 39 46 68 38 51 84 75 97 57 37 34 32 62 37 51 99 50 47 56 60 115 107 79 90 41 49 44 41 42 32 41 46 97 65 56 90 118 84 78 103 33 56 49 51 46 113 85 54 48 40 43 32 43 41 50 57 39 56 100 48 35 69 53 53 49 42
39 34 84 52 101 80 33 40 39 37 40 42 42 56 55 41 31 45 43 43 41 48 45 36 33 34 42 37 37 54 51 99 48 40 37 40 46 47 109 125 94 73 102 128 73 40 85 126 125 76 37 53 35 97 115 99 73 62 49 110 168 104 119 89 49 64 51 65 36 46 65 52 42 36 36 43 43 58 53 47 57 40 62 42 33 43 44 41 47 41
42 38 76 46 58 39 47 31 35 40 43 62 57 46 76 56 37 47 42 44 44 43 41 52 75 39 36 40 38 40 45 48 48 37 42 31 48 89 79 88 61 82 89 105 71 103 117 88 153 127 139 79 110 68 118 185 140 67 54 68 77 61 63 119 42 39 43 38 31 40 49 39 77 38 44 35 37 37 55 38 38 36 44 46 40 35 44 49 43 40
37 37 85 56 60 47 37 39 35 37 39 48 58 36 37 45 45 43 39 43 44 40 30 44 38 50 47 42 47 41 39 51 48 51 57 43 121 108 131 127 111 112 59 134 121 76 111 165 58 66 67 148 106 118 97 76 121 129 93 70 48 41 149 40 39 43 53 114 73 55 49 54 31 36 42 37 35 45 47 48 39 67 73 53 45 43 36 45 41 38
42 32 74 67 35 64 30 38 38 34 38 50 86 48 40 87 81 40 41 61 51 36 37 78 51 74 34 56 59 53 50 72 131 95 44 51 106 110 118 120 111 93 68 184 182 147 61 113 137 106 63 161 93 65 73 79 77 97 112 57 48 44 68 36 37 44 55 77 51 84 76 83 67 62 82 66 63 56 74 72 58 72 63 58 51 35 38 37 39 36
47 31 49 53 39 49 47 44 40 59 65 166 54 47 59 71 67 47 81 98 68 50 37 53 164 82 106 94 86 49 65 66 195 144 132 135 157 148 176 170 178 153 134 147 117 58 85 122 114 71 62 130 182 78 52 107 136 140 149 66 63 53 63 43 62 61 77 56 50 47 51 46 53 48 60 52 57 70 79 63 86 83 121 101 67 55 44 43 39 33
42 45 36 176 93 39 39 33 33 110 194 103 42 92 58 54 56 36 67 92 51 42 51 56 103 41 40 40 38 44 47 55 72 144 152 166 163 181 183 178 175 171 158 105 94 47 98 147 136 71 104 55 122 193 173 71 90 107 118 110 47 36 41 150 73 71 73 62 47 47 56 48 46 46 42 46 43 47 47 51 83 44 47 53 39 62 96 58 49 37
44 47 68 74 54 48 46 55 52 62 58 65 63 71 47 95 56 55 82 76 42 42 36 47 34 36 35 37 43 35 33 40 107 81 108 52 63 96 61 57 126 127 68 89 79 62 149 161 150 113 48 37 49 119 135 122 84 46 55 48 72 41 35 55 122 99 61 58 57 45 49 49 43 48 48 41 41 43 45 44 43 42 39 44 46 38 44 46 45 35
45 74 40 44 48 37 41 43 45 52 44 56 49 74 98 60 38 47 51 43 45 40 41 54 66 44 41 41 42 45 51 93 53 63 73 60 64 76 64 56 81 82 50 85 58 56 169 148 122 143 123 171 116 72 121 51 78 61 108 127 116 103 103 45 59 76 59 55 59 55 49 51 51 41 44 53 63 48 43 44 43 45 43 46 42 41 42 38 42 35
69 34 38 33 32 33 31 35 37 33 41 27 44 54 29 37 34 39 43 43 43 45 62 126 153 82 57 58 52 61 76 137 65 48 40 46 109 94 42 50 45 41 45 44 50 95 123 182 117 130 202 214 192 73 85 116 72 46 47 104 125 64 35 46 101 125 66 71 56 50 52 47 49 49 47 41 47 44 45 47 39 49 44 44 40 42 38 39 38 33
48 38 40 36 35 43 36 36 30 38 32 38 43 63 52 55 60 59 52 64 70 58 88 137 160 130 85 78 84 88 116 182 73 40 52 32 34 32 35 35 38 45 51 61 114 122 112 180 121 142 192 212 202 127 55 55 45 59 42 41 37 43 48 55 46 56 87 54 75 52 51 46 44 52 48 46 49 53 45 44 52 44 37 45 43 46 43 48 42 38
42 44 45 36 48 31 37 40 45 43 42 43 44 61 62 50 51 50 51 63 55 66 80 122 151 112 82 68 69 83 98 130 55 52 67 39 34 35 42 33 34 39 36 68 137 100 99 111 98 124 170 196 206 181 121 45 43 43 45 40 34 40 35 42 39 44 65 48 53 55 48 54 48 54 47 47 45 44 40 53 45 41 47 49 41 44 40 36 42 35
54 41 50 89 49 53 80 89 72 106 105 72 60 59 107 129 120 79 120 48 54 68 117 200 202 165 115 63 72 77 89 173 123 80 123 58 56 52 54 93 95 66 54 86 143 141 104 162 185 193 224 227 190 179 119 195 149 90 92 51 67 61 70 85 138 105 83 57 43 43 46 96 105 123 111 78 55 47 52 66 92 108 98 63 54 47 43 57 54 43
57 76 116 129 79 47 39 45 50 126 149 111 119 120 67 82 68 52 51 81 94 119 146 199 164 102 67 64 84 102 143 186 124 126 93 76 85 81 99 97 125 69 82 121 132 95 77 166 178 188 216 238 198 159 202 233 194 100 99 87 77 82 97 158 215 181 90 76 67 53 44 44 46 66 87 95 101 73 52 49 45 41 62 69 77 81 75 60 53 40
48 56 72 72 53 44 46 45 46 63 72 64 55 53 51 46 52 50 53 62 68 69 81 100 86 75 65 60 69 79 100 104 106 155 116 93 92 99 82 129 202 189 141 142 122 85 80 115 131 151 195 219 187 165 189 226 225 183 139 107 84 80 150 178 193 152 138 132 116 96 75 65 46 47 43 57 88 103 104 110 113 59 39 47 44 51 65 61 58 50
39 44 57 59 47 42 46 45 48 58 63 56 50 50 50 47 48 47 48 52 54 53 61 76 68 64 62 64 75 85 105 110 95 141 151 104 92 62 91 81 192 213 77 127 140 100 92 97 114 140 187 196 193 198 214 216 231 202 137 106 83 94 144 186 176 131 144 112 74 70 54 51 48 49 43 42 48 47 43 48 51 43 44 48 43 43 45 39 45 41
42 43 50 52 46 45 48 46 48 52 54 50 47 48 48 47 49 50 50 51 52 52 57 68 69 67 67 66 72 78 98 103 109 166 155 115 74 83 116 145 210 216 157 122 121 93 87 99 109 124 178 198 203 191 205 216 216 197 160 120 90 109 129 180 198 184 160 96 85 67 56 50 49 50 50 48 45 41 42 46 39 48 46 41 43 45 42 40 38 37
43 42 45 46 43 43 45 43 46 49 50 50 48 47 47 46 46 49 49 50 52 54 60 67 70 67 65 63 69 76 99 106 143 175 152 105 77 97 98 173 218 211 167 128 98 94 108 90 110 123 145 182 174 173 170 176 164 162 120 118 106 95 152 158 161 176 173 100 85 62 58 59 52 48 48 49 45 45 46 44 46 48 43 40 46 46 41 41 40 40
39 40 42 44 43 43 44 44 46 48 50 50 48 46 46 47 46 49 48 47 50 53 58 63 66 63 61 60 67 76 99 105 110 138 163 103 76 77 107 203 215 199 160 128 87 94 89 95 127 122 150 176 198 163 188 193 183 122 107 98 115 118 116 129 149 188 164 140 129 87 65 59 58 49 47 48 45 45 46 41 42 41 42 43 41 40 41 42 42 41
40 43 45 46 46 45 45 46 47 48 49 48 46 45 46 48 47 50 49 48 50 53 57 62 63 61 60 60 66 70 86 88 94 135 162 109 88 82 121 186 204 187 157 116 94 86 91 92 105 137 157 185 172 165 175 182 181 133 118 101 96 93 94 148 171 125 115 118 58 71 62 54 56 49 49 49 45 45 47 44 44 42 44 41 36 40 45 41 41 39
39 42 43 43 44 43 41 42 46 47 48 46 45 46 47 48 45 47 47 47 50 51 54 58 56 56 58 59 65 69 85 88 130 179 177 102 86 88 145 192 212 200 162 123 88 86 86 88 99 115 141 180 181 181 173 185 173 147 102 95 94 103 128 147 167 164 113 114 107 96 61 72 62 58 56 55 50 47 46 44 43 43 43 42 41 42 39 33 39 38
39 42 42 42 46 45 44 45 45 47 47 47 47 48 47 46 47 49 48 50 52 51 52 56 58 58 60 60 66 72 92 98 138 184 160 101 68 102 140 167 188 167 108 88 80 80 71 78 99 110 133 146 157 180 160 156 161 146 117 92 75 84 88 52 54 83 93 92 62 37 46 39 40 39 40 44 47 48 48 48 45 45 42 41 43 39 38 45 38 39
41 41 41 42 42 42 43 45 44 44 45 45 45 45 46 47 47 47 46 46 47 48 50 51 53 54 57 58 59 66 74 76 97 122 123 99 89 107 116 130 142 124 101 72 78 66 80 82 90 116 133 162 152 157 166 175 151 130 129 82 64 56 50 47 50 44 51 50 54 48 44 45 44 44 45 44 44 44 44 45 44 44 43 43 42 41 40 40 39 39
40 40 40 42 42 41 42 44 44 44 45 45 45 45 46 47 47 47 46 46 47 48 50 51 54 54 57 58 59 65 72 74 78 108 102 92 89 98 104 101 103 96 89 73 82 65 68 64 76 93 109 130 135 141 164 175 150 140 119 88 78 86 85 76 75 66 67 62 64 58 55 56 50 50 49 48 46 45 45 45 44 44 43 43 42 41 40 40 40 40
