P2
90 90
255
106 101 126 153 130 126 118 108 52 63 118 129 97 122 96 84 101 113 112 98 80 40 67 80 71 52 96 85 66 62 83 73 92 66 84 71 104 71 92 116 77 57 92 70 77 92 115 119 112 115 130 105 119 143 151 143 101 80 62 101 61 71 99 118 78 72 180 157 147 136 152 158 151 145 136 159 167 143 181 173 159 86 70 71 116 121 148 61 62 71
110 88 123 110 135 127 165 151 123 129 73 78 122 170 86 111 92 99 96 98 73 55 59 42 45 72 74 59 51 45 68 100 88 64 65 75 164 167 122 60 97 54 74 74 104 87 89 124 101 118 77 76 114 146 132 121 107 42 52 82 62 69 78 90 96 133 144 189 136 190 142 149 162 193 145 150 143 168 178 177 83 68 60 76 69 81 78 85 73 84
105 133 162 143 113 111 183 153 127 123 153 135 165 160 79 123 128 104 83 97 47 35 58 84 46 54 82 67 47 48 62 109 84 67 58 62 177 219 183 177 98 97 57 48 60 57 101 128 91 145 105 81 98 141 135 124 83 81 53 61 60 59 32 66 114 121 153 125 137 188 150 131 142 123 111 173 155 172 162 88 84 96 64 79 62 60 76 59 65 80
42 80 74 113 111 134 129 118 77 115 146 168 150 116 116 92 86 75 102 57 39 66 36 64 98 51 40 66 53 53 66 90 71 89 66 121 61 143 201 214 138 93 99 52 62 62 50 74 88 83 95 119 119 133 141 131 114 71 67 43 42 48 65 152 188 163 134 111 159 154 151 114 134 143 144 168 173 188 116 106 114 85 93 81 57 69 55 92 56 71
92 104 94 136 76 103 151 102 104 137 145 126 102 96 98 95 109 76 106 66 30 74 60 49 44 66 57 74 63 66 58 104 82 59 72 150 136 102 152 155 66 80 92 78 60 99 67 70 53 51 83 67 125 130 136 132 123 92 69 69 60 70 126 118 121 145 146 178 150 122 178 140 179 161 161 148 179 130 79 115 138 87 110 79 59 66 78 108 52 64
95 107 138 117 119 54 98 109 174 95 153 151 112 75 95 85 117 70 123 49 83 39 37 38 45 42 73 68 44 48 47 68 120 80 59 109 137 150 125 107 80 76 78 69 47 63 43 66 68 70 60 62 86 121 133 125 108 139 93 78 104 129 139 125 120 125 149 158 134 132 166 122 113 123 134 173 150 84 103 120 102 96 143 90 97 104 84 71 67 73
114 91 38 81 126 132 107 77 133 96 152 133 114 109 130 93 89 93 51 46 28 55 39 44 85 56 37 46 56 46 65 93 51 92 143 133 139 96 111 98 104 58 69 103 104 112 62 53 84 77 64 69 59 148 75 106 157 56 118 100 104 152 125 130 106 146 115 146 139 132 124 157 177 146 210 116 70 105 110 116 93 98 86 62 83 104 69 71 34 38
126 150 115 125 107 103 101 164 123 70 87 83 94 87 124 88 83 61 48 38 51 38 50 66 66 50 53 79 65 111 88 65 80 78 137 129 134 73 86 101 173 83 93 78 73 63 62 41 62 88 98 67 70 61 66 89 114 85 133 142 93 108 126 109 148 168 120 147 156 140 144 180 162 158 173 93 83 92 85 88 94 106 151 175 122 86 96 54 59 64
87 97 108 105 109 108 102 159 101 125 94 66 80 107 82 60 63 39 39 37 93 127 54 72 58 62 69 64 80 83 105 109 83 149 117 84 150 93 95 64 123 81 78 93 73 62 72 33 47 106 72 68 51 87 89 78 61 79 108 141 172 124 114 117 123 121 183 128 119 106 166 155 144 182 98 73 70 77 80 76 95 74 146 124 93 83 64 59 71 91
57 116 110 175 128 101 167 151 163 112 109 65 57 60 77 67 46 46 38 30 74 117 35 35 71 96 48 56 84 82 134 52 86 111 164 99 78 132 153 131 71 152 162 102 108 71 51 49 120 105 56 63 76 88 83 72 52 59 118 119 107 110 106 116 114 114 207 151 134 226 196 141 192 125 74 135 88 60 59 54 78 149 125 84 84 85 68 56 54 51
114 124 71 102 85 86 108 129 158 122 81 58 64 65 92 81 37 42 46 65 112 53 46 56 58 93 119 68 96 116 144 54 47 83 139 83 94 127 91 51 75 76 135 131 79 66 64 31 90 85 84 60 98 63 73 56 56 58 168 125 123 125 180 116 140 118 143 116 141 154 172 165 184 135 115 92 76 91 87 78 132 118 85 85 59 70 61 76 53 58
111 99 103 158 106 164 107 171 111 104 76 49 72 98 126 39 44 52 56 77 46 48 54 49 98 95 53 118 98 85 89 103 66 117 140 80 151 89 87 42 109 130 106 110 56 67 45 95 111 92 50 68 108 91 59 40 31 83 116 163 123 136 125 104 127 124 115 131 176 157 157 174 107 87 73 84 92 80 113 90 104 83 74 61 50 62 69 69 64 81
107 113 111 100 157 112 111 134 102 75 102 67 114 56 44 32 40 59 63 89 65 45 51 61 97 63 54 82 150 93 115 92 132 75 102 158 155 52 43 49 93 91 123 47 39 59 49 77 70 97 69 75 53 52 46 46 45 99 146 138 132 133 102 112 162 114 132 181 172 190 142 115 56 103 72 49 58 113 85 108 97 76 76 125 90 94 65 50 50 58
135 159 98 53 86 102 168 109 76 55 109 99 93 75 52 34 34 111 126 118 55 46 57 98 56 50 43 86 109 166 83 93 82 106 128 168 197 88 50 110 115 86 44 54 32 41 55 71 98 69 59 48 72 59 77 44 67 110 124 140 108 138 116 147 112 119 144 191 151 165 163 81 101 75 43 53 99 80 55 64 60 82 59 58 86 65 44 34 49 62
85 70 49 63 117 142 157 129 120 76 75 119 84 69 51 38 38 52 78 120 51 34 61 64 60 32 70 115 108 141 124 92 145 108 153 155 154 150 92 97 103 89 79 45 50 51 127 94 65 54 61 44 58 58 60 39 169 109 123 85 119 86 92 171 153 117 178 188 141 184 128 59 92 53 41 109 93 52 42 42 63 130 88 59 72 42 42 32 33 48
152 72 72 152 95 158 133 110 119 147 112 60 63 39 45 42 45 54 117 81 31 69 68 60 56 56 106 70 76 75 58 67 102 122 174 215 202 136 127 149 66 61 62 48 58 68 116 98 77 57 39 46 47 58 36 81 108 114 80 102 106 98 116 116 99 153 177 151 165 144 78 79 70 44 93 115 66 43 41 49 94 76 74 58 39 40 37 53 42 32
147 89 150 103 87 124 106 82 89 103 88 94 30 39 62 65 53 73 70 45 54 67 65 46 54 84 108 93 75 55 47 102 140 151 162 160 199 132 150 206 126 62 69 39 85 140 72 77 54 51 66 55 36 30 47 109 123 104 74 116 109 128 115 117 131 175 160 154 191 88 87 81 79 71 73 96 70 54 76 75 77 62 94 88 86 82 56 90 77 55
73 90 88 86 99 97 68 54 43 52 57 127 108 116 142 137 83 45 46 83 107 51 38 30 75 74 88 58 57 42 65 127 170 218 190 217 213 166 152 224 170 140 41 30 164 105 61 49 55 91 70 25 29 43 44 107 122 87 175 123 109 129 115 155 157 166 128 179 115 74 101 133 92 122 85 50 78 81 82 100 73 71 116 135 114 49 34 41 55 75
88 108 93 111 112 94 65 103 104 69 47 103 81 92 79 142 140 151 79 83 48 34 38 61 49 64 60 54 32 54 99 140 211 169 207 214 215 172 181 212 211 106 84 97 92 84 93 52 120 150 54 85 80 46 174 111 127 65 103 96 109 149 117 109 172 170 97 176 88 82 126 111 136 125 112 62 76 110 60 88 61 95 122 73 66 45 58 112 58 49
168 122 100 169 118 96 49 52 70 66 94 62 73 54 114 92 113 128 84 54 47 33 57 79 72 56 49 39 35 43 190 185 176 158 133 146 192 206 222 189 221 117 125 88 129 61 49 92 72 60 60 65 57 101 105 112 68 139 93 94 156 132 120 152 195 143 163 148 111 80 72 120 149 143 118 71 65 39 67 63 81 43 46 52 60 70 50 60 61 81
113 109 126 121 73 73 48 49 59 118 65 101 81 36 126 132 78 115 61 52 22 45 115 111 57 51 34 57 150 139 94 171 111 162 95 82 212 226 218 204 207 187 65 59 55 59 53 47 45 54 35 41 41 101 104 100 135 120 94 114 126 125 145 136 116 164 170 148 56 43 56 64 100 114 122 79 55 50 85 54 53 54 35 79 57 88 90 46 56 58
97 132 180 113 50 63 53 61 28 65 48 55 76 84 79 103 73 62 49 32 37 70 68 62 62 36 35 131 65 79 57 130 170 121 164 165 144 182 219 205 198 221 57 54 51 95 82 72 60 44 48 22 114 92 104 78 101 107 95 204 85 148 186 176 177 180 164 142 69 45 43 109 122 97 85 106 67 47 52 66 43 35 35 69 46 57 32 100 108 45
64 82 117 142 59 76 74 80 29 29 41 70 162 115 92 96 57 44 33 31 63 79 48 49 29 20 38 66 147 141 43 104 170 174 206 221 210 214 229 212 172 199 145 88 90 80 69 63 39 46 25 67 118 95 85 81 106 120 130 155 102 146 156 151 153 187 151 114 107 88 55 103 94 98 86 88 76 49 42 72 92 89 48 35 41 57 38 48 53 51
143 119 85 54 55 78 37 66 47 68 82 132 98 80 107 70 45 35 19 63 70 48 31 42 24 40 32 37 80 59 122 127 96 206 211 221 198 166 210 222 190 153 116 111 108 119 149 40 33 35 54 57 103 97 77 82 95 101 100 157 106 109 152 140 217 181 138 59 48 33 74 57 81 77 88 97 67 74 64 71 70 103 106 41 26 32 56 93 52 99
146 121 68 48 43 78 62 50 61 146 127 98 94 50 31 41 38 24 66 113 63 32 34 34 34 54 75 77 51 73 145 107 146 106 202 221 220 208 176 215 208 101 113 103 101 125 76 24 38 41 65 174 97 111 44 110 93 118 165 170 134 92 143 165 203 175 154 84 40 49 107 59 53 76 111 48 104 75 72 106 61 95 133 55 30 53 62 50 48 69
86 101 79 52 59 62 62 36 40 93 113 111 115 56 44 47 19 78 118 56 33 32 33 35 31 47 47 47 59 89 93 100 49 34 96 200 225 209 163 185 175 174 123 81 102 166 67 38 28 40 156 96 105 123 86 110 98 164 142 140 115 99 108 184 159 170 133 61 119 43 74 38 44 64 41 63 80 111 48 57 34 43 61 70 79 43 47 27 68 39
75 100 67 55 103 75 37 30 33 34 80 63 44 56 34 20 30 72 77 38 31 32 32 56 38 53 31 42 113 112 41 74 99 177 78 145 181 215 195 149 115 116 96 88 189 87 78 41 15 73 115 85 156 61 155 94 102 137 126 127 87 94 189 165 114 178 115 58 84 110 73 94 60 53 28 66 88 174 92 57 30 79 60 100 68 31 33 27 55 95
57 111 90 65 90 90 28 16 37 87 103 69 116 41 21 46 89 52 59 21 18 30 39 43 32 45 32 146 158 108 134 86 76 203 159 131 104 189 188 57 160 101 43 83 163 32 28 21 34 115 99 164 83 162 56 91 172 106 121 96 65 140 173 80 140 169 125 57 139 155 143 81 44 55 45 121 78 109 37 82 51 76 55 50 66 75 37 40 44 38
62 75 76 95 111 76 25 32 81 105 54 76 50 19 20 96 62 43 46 41 19 26 51 23 30 62 60 81 89 140 113 195 184 197 123 61 106 106 73 72 123 76 63 105 55 34 64 27 70 110 111 107 80 126 93 117 164 118 159 94 122 131 126 53 124 175 134 88 114 119 97 43 68 68 42 20 53 71 34 54 102 52 39 34 43 45 42 24 24 24
89 64 61 62 106 130 144 73 106 79 119 46 35 17 116 35 33 45 46 38 14 46 37 25 48 123 99 90 91 65 73 143 91 188 80 73 69 78 69 152 44 170 108 139 52 43 52 51 189 100 112 89 86 80 101 128 106 92 163 109 136 183 73 90 144 167 162 109 57 75 39 32 84 73 36 32 30 92 60 116 132 81 43 23 47 41 70 85 24 38
76 35 62 64 59 86 171 141 64 36 58 28 22 46 54 45 30 24 30 48 56 41 33 40 60 75 84 129 173 142 79 157 223 120 68 61 70 118 62 57 49 56 87 64 91 19 45 123 77 137 104 159 61 148 91 97 97 111 77 91 144 168 56 48 91 150 162 91 77 26 22 38 63 90 148 66 30 82 27 70 88 68 93 48 58 48 42 53 57 27
59 64 69 71 93 92 84 88 101 67 28 22 49 52 37 32 33 22 33 38 28 46 32 38 134 102 141 119 198 165 148 206 211 203 114 56 135 131 69 88 62 82 96 69 100 21 91 141 95 112 100 59 138 159 99 125 83 117 97 114 155 88 52 44 21 144 177 134 55 51 98 90 54 119 60 47 50 43 32 25 24 44 46 67 62 71 54 41 39 59
62 75 78 85 84 62 55 46 48 31 22 90 55 43 29 24 31 19 34 39 43 118 69 57 86 95 142 136 215 210 98 203 216 205 196 98 97 135 69 40 63 147 51 55 136 46 174 116 199 96 191 33 90 83 158 82 71 161 135 136 104 53 40 44 37 122 155 132 46 40 97 75 57 125 48 45 29 23 62 126 156 61 55 42 49 60 79 51 48 76
79 92 91 93 104 53 84 90 33 13 52 41 40 32 29 36 25 20 51 48 33 78 108 147 120 117 90 195 189 135 225 202 139 197 181 124 130 71 73 91 85 112 27 42 53 155 70 106 182 104 70 166 80 100 111 92 95 74 115 138 106 42 78 108 42 39 170 144 191 96 45 52 76 37 29 60 101 113 127 61 94 86 78 86 48 52 27 52 62 65
96 144 119 93 66 38 83 49 32 82 39 55 61 20 32 39 23 27 32 35 79 85 111 109 110 110 175 53 110 179 213 222 213 175 36 138 46 57 125 55 79 85 64 69 111 99 116 208 110 127 58 67 77 142 92 88 122 154 131 118 63 39 39 30 37 23 114 159 116 108 28 33 37 60 16 32 45 60 101 90 80 80 30 36 54 60 46 38 38 32
77 105 121 121 95 106 60 33 112 130 32 24 91 75 43 24 28 17 21 31 61 91 61 56 47 85 87 192 191 195 201 191 210 70 79 86 41 105 105 111 26 99 62 123 120 119 142 167 100 95 93 69 74 113 132 86 182 205 154 87 50 39 30 32 18 26 48 155 142 107 75 28 35 19 39 17 32 42 49 58 88 98 97 108 28 35 68 59 68 72
147 111 82 112 76 92 45 101 44 40 97 47 28 42 37 24 19 72 46 109 103 41 16 47 123 110 80 180 168 208 189 177 129 37 97 42 82 50 66 32 67 46 141 87 213 130 80 113 159 96 62 67 115 147 107 118 83 170 152 164 63 57 46 47 31 28 26 90 171 122 117 47 39 18 13 51 52 36 25 34 36 60 38 62 64 110 52 74 85 62
159 119 84 137 99 70 76 116 44 91 88 59 42 65 122 102 39 35 37 57 97 77 41 35 91 121 72 57 130 136 184 164 64 47 70 39 34 61 124 88 127 79 73 128 145 56 143 111 210 125 74 95 125 70 92 144 100 143 103 74 61 30 41 51 58 29 36 41 139 164 119 80 37 30 20 22 27 45 64 19 14 28 21 52 84 95 55 105 87 69
116 110 60 143 119 182 115 104 48 61 113 93 71 49 32 76 128 80 30 72 73 139 32 54 94 138 77 21 31 39 57 60 118 59 68 96 62 65 124 70 132 121 104 96 80 31 100 106 118 131 57 145 93 78 105 181 133 172 117 96 32 24 17 33 48 24 31 43 47 176 160 87 89 62 39 12 19 25 36 21 22 32 33 46 51 55 55 21 47 90
52 175 145 100 64 130 73 54 69 48 80 50 52 103 57 77 156 174 124 125 61 56 39 21 55 29 60 85 69 37 146 69 53 79 69 68 88 125 193 86 88 151 32 88 56 61 168 112 108 140 61 69 93 89 85 105 180 66 109 145 57 123 72 30 39 48 40 55 17 56 162 137 107 119 107 69 62 62 50 80 78 33 32 42 84 56 71 32 27 32
31 51 71 76 82 117 80 103 104 75 48 59 60 135 154 159 134 135 138 147 52 50 29 17 19 40 29 42 38 40 51 66 44 53 84 111 91 60 65 210 74 34 38 84 89 51 133 116 86 93 58 108 100 137 128 106 59 43 103 51 36 57 62 27 33 22 32 35 39 32 82 156 168 119 147 68 63 86 55 74 113 49 40 47 44 28 53 94 104 75
65 54 70 121 160 143 115 155 174 70 108 77 46 68 125 122 87 99 84 84 74 57 78 102 60 58 49 43 35 52 79 111 71 53 75 77 89 109 89 63 38 24 63 69 49 151 121 114 93 114 153 147 143 98 197 127 49 42 78 81 59 48 52 43 36 28 31 27 36 36 27 39 113 182 135 106 89 128 19 25 43 33 23 47 60 37 33 39 139 155
87 74 89 183 110 125 103 71 78 88 123 77 91 41 36 38 42 50 58 64 68 76 102 62 49 49 33 55 157 96 54 78 88 106 155 93 156 68 59 60 41 48 78 38 36 118 63 124 97 116 99 156 94 120 183 73 149 80 54 37 48 57 55 79 178 187 165 126 122 185 178 178 136 150 233 193 117 106 99 164 63 37 68 68 41 31 35 26 18 54
135 128 137 157 154 135 141 135 137 124 115 111 74 89 50 57 57 97 137 121 121 110 73 65 69 63 113 83 96 81 131 135 125 105 132 95 136 128 106 138 150 75 107 37 55 79 67 141 96 111 118 83 119 130 106 67 85 96 81 62 128 110 76 84 92 90 95 86 101 97 96 90 170 159 164 156 159 153 135 128 130 91 121 130 123 101 54 56 98 73
95 146 97 86 85 79 100 89 89 93 93 86 74 86 80 74 68 87 81 86 91 86 84 81 70 73 81 76 76 71 92 70 66 74 66 56 55 85 90 81 87 82 98 113 117 109 30 85 91 96 138 86 145 30 49 122 141 80 84 85 87 91 108 118 193 207 159 129 108 136 183 194 153 148 143 118 132 132 132 130 133 123 125 186 107 103 103 99 98 127
92 85 98 74 87 96 91 95 100 94 66 90 98 89 92 82 74 45 109 100 109 103 120 124 111 91 102 148 146 123 97 84 59 58 59 67 66 79 177 175 108 92 93 97 70 114 39 51 90 69 71 177 50 43 115 83 87 86 94 112 151 163 73 62 62 47 63 45 47 66 52 65 50 43 50 76 89 145 223 183 176 184 142 131 115 136 128 127 121 104
58 65 127 97 108 87 82 91 92 80 85 75 77 83 84 77 64 59 53 56 59 68 54 117 112 69 66 84 111 151 93 92 97 92 101 121 145 149 145 159 192 139 138 119 107 105 99 118 126 118 115 122 126 102 106 83 102 95 89 105 105 96 91 109 127 101 81 121 121 99 90 95 93 92 119 146 70 88 166 110 104 137 147 151 82 115 158 170 163 153
64 124 77 72 90 114 53 79 91 101 79 86 100 100 100 134 86 88 96 78 91 95 95 83 84 79 83 148 73 74 68 64 63 76 72 74 196 131 76 49 92 117 117 100 118 190 88 103 114 113 164 100 104 120 120 151 208 103 106 122 121 86 110 109 232 138 86 100 127 93 85 87 118 126 102 138 106 184 176 148 219 90 143 88 87 99 75 93 103 103
90 127 70 38 63 78 85 118 81 116 88 130 77 132 223 170 90 112 111 71 140 127 96 107 128 114 112 112 125 127 128 126 176 172 165 161 171 196 206 169 194 185 164 152 161 165 191 206 207 172 163 132 99 94 96 191 213 189 82 90 90 104 79 83 117 73 96 211 104 80 140 100 74 135 94 146 211 95 86 63 127 178 144 176 155 64 95 91 121 135
128 87 94 77 70 86 80 87 141 147 100 133 97 132 154 80 107 114 76 95 149 93 65 132 140 78 70 125 118 108 67 68 139 100 69 72 127 74 64 96 79 92 88 100 103 87 149 94 100 114 96 108 141 103 95 66 80 87 138 144 139 94 109 113 102 117 94 89 119 111 96 115 96 93 106 101 95 70 137 95 95 76 88 101 99 112 92 77 95 115
148 133 82 137 129 126 139 81 120 128 128 121 102 142 144 148 96 114 123 102 126 114 136 125 137 153 171 178 188 197 187 178 178 178 169 190 195 192 198 206 218 213 195 199 177 177 178 159 142 134 116 101 132 99 153 54 34 143 88 61 62 66 66 69 54 60 55 66 96 66 61 83 65 66 73 65 58 55 65 56 70 94 149 204 197 176 113 76 142 121
94 79 106 71 77 64 86 131 64 68 72 81 83 89 90 70 75 58 62 57 58 67 55 44 49 47 30 34 41 31 20 31 31 54 138 47 44 38 47 44 60 156 54 69 30 75 33 58 58 60 34 24 48 91 104 88 52 64 139 52 123 149 171 164 171 161 176 161 164 133 128 133 116 111 115 104 107 144 181 188 160 68 62 88 77 42 45 58 98 148
79 138 120 106 93 78 76 64 79 104 123 150 116 119 182 186 115 92 86 70 59 69 50 53 48 55 55 62 51 45 58 68 49 47 48 44 53 93 36 38 91 72 59 82 39 48 60 64 63 80 107 61 66 38 93 55 114 110 147 51 135 118 117 68 78 168 166 138 151 137 125 148 97 124 129 144 80 90 97 157 163 129 122 142 87 88 79 108 120 82
88 83 80 70 65 67 183 133 67 74 60 87 64 68 85 87 61 70 100 131 97 103 104 96 167 52 88 138 81 51 61 64 39 173 120 33 50 47 31 32 58 89 66 43 65 58 56 42 189 77 121 41 26 30 45 51 82 43 157 161 186 155 189 104 143 218 122 165 176 151 172 117 73 97 95 91 93 93 75 145 189 207 207 211 186 136 106 78 109 75
74 123 53 82 87 188 131 184 171 150 87 92 88 85 86 80 78 68 73 71 89 75 115 109 138 158 47 13 16 23 19 12 16 19 29 41 30 29 54 62 93 99 68 72 75 61 59 65 58 102 96 88 36 47 51 48 102 24 35 79 66 38 50 112 147 178 70 79 69 122 92 174 157 84 48 45 44 45 29 50 85 87 78 58 59 96 106 53 77 92
62 78 51 74 108 84 114 73 94 49 60 61 63 79 71 63 59 68 76 88 112 104 112 92 137 127 122 84 47 20 11 16 20 20 21 32 33 58 55 65 91 62 59 140 83 121 54 35 56 102 92 177 52 94 94 39 21 41 42 93 89 73 140 88 108 83 84 81 111 60 43 62 30 32 62 44 60 28 32 32 39 76 74 57 57 96 114 73 87 88
69 70 50 82 105 112 151 108 72 78 34 89 101 176 89 75 84 91 86 106 109 129 78 36 77 106 78 96 142 60 12 12 11 23 21 33 46 51 53 135 55 102 79 79 118 54 78 55 77 134 84 140 83 45 37 36 34 70 47 85 100 75 76 89 139 45 63 124 41 62 31 110 32 49 29 52 80 88 20 34 45 74 80 68 78 61 96 100 92 104
18 41 55 129 90 82 81 122 48 123 55 58 183 154 78 103 79 135 93 51 116 96 38 19 20 68 70 98 105 77 46 47 30 20 23 36 27 99 66 70 79 176 93 85 54 66 107 68 62 149 110 80 65 34 65 80 109 80 95 74 77 68 192 39 18 89 84 78 62 76 91 49 26 52 64 75 41 101 19 29 75 97 92 60 100 88 113 104 107 172
28 67 71 155 101 89 72 111 96 56 71 116 119 79 146 52 35 93 28 66 116 110 61 37 38 23 19 117 120 80 98 89 26 16 24 25 35 55 62 67 107 101 115 113 49 48 63 110 69 145 93 127 69 35 43 73 63 102 96 68 101 117 137 79 20 16 57 38 76 150 131 50 83 97 143 117 98 33 34 57 105 64 96 91 96 96 89 122 96 86
44 49 82 142 118 91 71 75 130 75 81 184 193 102 63 40 67 46 24 33 96 157 89 38 27 26 78 36 102 81 82 96 41 23 14 30 41 55 85 78 110 135 95 74 57 65 76 47 82 139 104 117 37 29 73 115 111 115 139 67 88 55 49 40 21 76 69 20 37 128 106 46 83 98 140 54 39 24 62 105 82 51 54 83 91 121 101 75 105 59
57 60 115 145 126 180 118 68 75 135 200 119 61 114 48 75 105 38 16 46 48 103 21 10 10 24 22 27 24 123 96 79 89 37 28 30 28 67 96 65 124 179 135 56 52 168 35 51 110 97 100 173 39 37 128 87 89 84 94 34 13 41 29 41 21 97 48 25 24 50 50 97 55 66 35 44 49 87 97 62 42 29 35 36 85 135 75 75 93 47
61 61 76 131 122 129 150 114 103 99 129 120 101 86 37 37 64 45 28 22 21 48 7 20 11 22 27 29 28 101 114 123 103 129 60 25 29 62 65 139 93 98 122 55 51 114 56 57 80 101 159 72 75 130 126 88 73 56 8 18 44 121 68 41 28 56 32 34 45 51 49 42 58 75 82 84 53 105 62 75 44 101 78 57 99 145 78 44 63 127
121 79 131 121 168 109 121 96 91 149 94 107 117 44 67 25 24 64 17 14 48 30 16 18 17 26 28 40 22 32 39 103 103 103 65 8 27 62 75 117 101 82 83 69 61 36 79 126 136 104 123 72 134 130 122 90 32 60 21 36 37 37 41 22 21 28 41 38 71 70 67 70 65 58 56 32 53 35 48 38 92 108 54 49 108 176 110 40 42 69
116 117 152 95 139 132 124 104 92 77 90 126 110 41 26 70 90 72 53 44 34 26 14 29 21 18 23 31 34 31 25 30 93 79 142 99 35 66 69 113 94 31 86 118 140 58 60 48 97 127 209 121 119 194 127 16 19 40 39 26 23 21 25 21 32 113 111 53 74 76 75 76 76 66 57 37 31 51 67 32 106 51 56 41 125 190 95 50 55 40
135 130 147 111 163 140 103 120 105 87 106 112 87 59 24 50 40 105 48 32 18 22 17 43 64 33 27 42 19 20 22 17 114 90 103 90 19 31 157 100 109 111 116 67 73 75 98 97 88 165 168 92 84 107 26 35 28 26 23 23 30 33 36 53 39 49 47 76 116 65 72 81 66 60 89 114 124 90 54 44 67 75 60 101 176 170 117 120 95 97
108 139 140 139 142 126 107 82 66 88 115 96 35 35 24 84 24 101 56 47 36 30 28 75 67 27 61 39 16 21 20 22 30 197 91 96 13 18 94 89 53 77 93 120 74 164 102 160 104 145 136 122 147 30 73 57 99 33 41 33 38 38 25 53 68 77 61 60 64 55 95 111 51 40 53 146 133 122 130 66 118 41 69 173 141 94 92 70 146 182
77 80 137 152 118 135 112 148 96 100 118 119 68 55 76 59 50 116 85 31 20 57 24 20 17 57 50 36 37 17 20 23 18 36 88 114 138 79 97 83 90 76 74 103 97 71 57 121 106 148 101 82 40 102 52 52 50 42 44 37 40 53 60 94 116 81 87 57 52 69 155 128 90 79 44 90 87 63 57 47 54 79 104 179 161 102 198 168 73 203
77 104 161 124 136 119 108 93 76 118 80 85 71 49 29 99 58 77 109 52 41 39 45 26 15 43 44 36 23 9 19 28 20 53 123 105 166 86 94 118 97 82 97 86 105 76 101 115 144 121 106 94 21 44 26 29 42 46 46 68 74 68 78 74 88 74 63 69 94 75 74 67 25 95 127 57 40 99 24 73 93 86 93 134 87 150 201 168 92 109
107 100 141 128 113 119 116 92 79 71 67 21 48 41 107 116 53 43 126 82 45 26 26 25 23 15 45 30 22 20 23 24 17 32 68 105 113 150 101 76 49 58 91 131 79 119 98 107 168 90 106 42 36 40 37 43 37 52 79 78 93 82 69 64 64 64 59 62 47 63 59 48 107 59 88 37 29 49 49 75 87 84 157 141 98 150 222 160 131 66
87 146 137 128 121 112 121 92 43 51 73 109 35 19 84 106 110 74 103 62 43 38 38 27 30 21 17 39 55 42 12 14 22 128 99 96 147 166 92 155 77 64 94 104 78 61 77 128 128 130 47 34 23 33 29 40 78 34 58 88 83 89 71 63 63 56 82 101 50 40 45 66 56 27 92 68 95 55 127 47 61 155 148 196 186 94 108 127 128 110
83 150 132 125 121 128 118 74 31 39 51 49 30 25 24 42 57 34 34 47 67 30 59 29 21 24 32 30 28 116 87 55 62 47 161 105 161 125 78 42 102 94 101 80 100 134 127 159 122 94 27 31 35 26 35 49 72 49 51 74 92 101 82 81 77 64 70 84 65 48 35 74 72 66 118 71 84 74 76 64 87 144 187 152 215 145 84 141 128 98
123 139 178 109 128 126 90 38 21 29 16 17 50 93 80 24 19 38 60 68 46 93 65 36 55 34 66 51 26 129 135 116 113 124 133 110 131 135 174 37 81 96 143 68 65 73 128 148 102 82 23 36 52 60 50 62 60 36 70 75 127 88 74 94 125 85 89 81 148 75 26 38 58 64 94 50 80 133 102 162 152 113 105 197 206 105 134 160 91 123
94 125 124 178 128 134 77 51 31 30 11 64 118 117 45 12 26 38 52 61 91 128 75 57 48 63 35 62 118 113 48 45 51 93 48 90 200 119 81 160 87 116 103 99 88 69 137 99 160 62 55 32 28 82 153 85 40 44 70 96 92 39 49 52 67 75 91 153 191 85 39 32 37 65 42 63 35 54 77 112 156 130 114 207 141 106 160 161 165 100
86 146 111 96 129 131 50 55 61 21 22 88 72 63 50 33 32 21 36 52 103 101 63 48 38 66 90 76 59 83 88 59 128 128 61 100 169 123 46 101 95 157 128 101 112 123 132 92 73 27 27 34 50 88 110 88 32 47 69 67 69 107 113 113 115 101 76 80 114 77 32 43 62 42 59 36 119 76 102 148 143 134 83 69 116 132 128 168 149 92
129 116 114 142 153 71 29 97 63 61 132 84 86 59 69 27 49 77 26 46 54 26 44 38 42 101 63 31 38 52 71 58 115 114 99 120 115 120 56 96 101 134 88 162 67 115 116 183 34 38 21 35 41 29 91 143 156 61 78 42 125 182 92 194 155 65 66 67 50 61 21 40 50 60 34 138 129 45 145 199 103 88 42 80 100 160 106 101 146 63
84 87 129 115 80 27 24 29 38 117 185 114 56 21 17 58 91 40 21 27 36 37 22 55 59 97 30 37 54 41 44 53 85 87 112 153 215 108 156 92 123 85 114 120 85 123 108 70 33 50 40 61 43 39 42 87 142 96 68 123 147 167 93 192 181 76 70 56 133 30 26 52 26 52 95 87 78 80 133 185 221 101 195 150 69 87 116 128 96 73
54 70 84 69 27 88 107 71 145 135 104 83 60 24 31 74 47 30 33 48 72 109 46 102 103 66 24 33 30 22 23 46 28 58 98 110 142 77 67 90 113 108 96 105 102 100 152 54 20 31 45 63 55 55 96 120 96 46 70 115 147 126 165 179 124 88 127 147 110 32 27 45 25 50 127 63 101 132 107 158 181 180 193 198 123 148 180 84 94 110
89 62 75 41 117 151 124 89 73 66 46 42 31 27 49 84 69 16 120 55 83 51 49 66 131 42 27 32 20 23 51 31 26 42 134 126 112 100 86 107 119 94 111 89 91 124 91 73 51 41 63 43 30 84 66 118 95 77 171 69 83 152 102 166 74 96 155 121 92 22 23 114 53 50 76 45 126 217 150 121 140 141 187 103 160 134 84 22 41 118
81 105 34 77 97 174 134 57 23 34 31 27 56 69 35 29 29 24 65 40 40 53 47 51 139 66 26 17 29 11 29 21 16 46 86 176 111 73 163 102 157 83 113 115 105 126 108 51 52 47 33 33 16 79 149 139 116 88 107 102 161 116 83 142 152 100 74 49 101 19 52 72 145 82 49 107 169 207 147 128 50 81 113 166 160 101 69 106 59 37
115 72 72 69 74 37 24 40 34 73 42 33 41 65 42 49 37 68 43 61 62 23 32 49 113 28 20 37 50 32 21 16 32 57 158 103 136 57 93 113 132 112 85 95 133 111 150 137 75 58 45 51 65 107 84 142 74 26 27 98 63 88 102 138 128 142 75 83 21 39 104 96 78 49 59 150 197 131 150 63 79 101 124 142 64 71 93 86 108 52
44 86 65 24 67 32 18 58 52 48 45 32 35 57 28 26 31 45 83 79 49 37 40 36 64 60 41 31 20 27 15 17 32 33 124 102 75 138 106 114 128 107 90 68 116 98 112 170 143 96 37 27 59 146 26 43 38 22 22 29 26 56 61 103 66 91 142 146 102 105 143 85 56 108 149 201 174 133 69 44 109 121 125 85 75 79 93 100 87 139
61 12 24 26 24 32 84 75 63 98 28 22 54 36 26 47 44 51 25 28 115 58 28 33 33 56 50 52 34 27 52 17 24 42 163 129 50 104 194 154 131 112 155 93 78 153 64 86 112 109 103 54 31 47 20 48 55 60 63 88 68 64 48 82 58 163 144 106 148 131 94 47 89 137 204 177 145 102 37 30 167 216 132 131 129 84 127 54 51 99
37 28 30 46 32 48 127 57 52 100 24 26 39 58 34 44 50 19 24 39 45 132 39 38 44 50 90 108 57 95 86 56 49 105 110 135 83 131 129 139 112 105 56 117 96 78 64 59 101 106 101 108 56 33 44 34 103 142 124 142 57 111 91 75 53 43 63 113 95 122 76 63 130 168 221 167 154 55 53 116 156 182 161 117 79 96 190 61 99 140
38 24 29 54 22 98 75 58 59 64 72 38 47 47 27 122 42 20 50 37 42 70 42 47 76 61 53 88 57 93 61 35 75 117 120 44 123 154 132 74 107 176 106 107 145 73 43 29 117 94 76 80 62 78 78 57 130 132 155 129 109 77 90 80 42 44 34 47 37 89 57 58 130 200 181 159 118 37 141 230 211 165 106 77 62 109 117 100 89 101
50 28 32 29 56 68 47 56 55 14 18 16 26 42 90 47 39 61 77 41 69 149 118 45 35 71 66 75 68 33 26 37 61 97 157 81 94 137 207 89 125 94 108 131 119 22 38 32 205 167 194 96 82 60 123 61 47 62 67 46 50 76 74 73 51 62 48 56 54 69 78 151 144 205 157 121 78 84 172 182 160 136 167 75 102 123 93 86 108 121
76 43 30 37 20 45 47 50 38 30 18 24 28 52 119 66 124 110 80 86 66 106 87 54 33 57 69 51 54 27 29 52 149 110 100 179 126 182 115 112 159 54 104 102 65 37 31 104 92 74 56 196 172 99 52 78 54 50 75 78 50 86 76 72 71 101 81 56 64 58 66 168 201 136 122 102 83 153 214 164 139 128 132 93 139 122 122 147 151 131
80 85 77 98 17 23 30 41 34 50 19 20 52 66 107 88 113 134 147 148 58 37 68 75 31 49 28 24 20 19 39 49 101 202 61 97 139 124 97 139 158 109 113 144 66 33 36 58 116 67 159 80 137 149 107 84 63 50 54 32 74 62 32 42 105 59 61 57 63 47 73 114 168 146 187 59 177 208 151 130 153 101 103 100 89 142 147 108 128 96
76 51 61 82 38 44 86 15 13 16 19 64 69 97 47 39 100 150 138 128 51 30 59 38 41 73 24 12 23 44 92 141 111 116 118 110 126 154 110 105 90 157 87 85 40 43 84 97 129 85 196 184 209 222 182 129 87 67 111 85 36 89 119 69 96 61 85 55 53 115 74 106 148 117 81 98 138 172 172 136 56 86 95 121 145 192 149 71 130 90
38 36 27 18 63 38 16 13 31 43 27 16 76 54 110 65 102 91 130 100 32 53 46 38 68 118 44 18 23 56 70 147 111 95 65 104 133 150 112 135 121 97 111 74 44 50 85 127 136 120 143 109 194 208 145 179 143 85 63 63 102 138 86 89 123 117 109 117 108 139 181 105 103 74 85 162 222 179 137 111 78 101 129 103 203 116 149 85 90 42
26 21 17 31 52 42 69 16 13 69 27 21 52 123 120 39 25 36 73 53 26 57 49 63 29 45 21 29 32 67 83 111 134 176 89 128 153 222 201 125 96 100 103 78 55 55 104 117 97 118 112 125 82 164 189 195 198 141 98 57 95 157 172 122 127 118 112 92 91 162 124 69 131 149 89 102 174 169 164 121 100 87 86 110 84 105 74 191 102 49
