P2
90 90
255
208 208 208 208 208 208 209 209 209 209 210 211 211 212 212 212 212 213 213 214 214 215 215 215 216 216 216 217 217 217 217 218 218 218 218 219 219 218 218 218 218 218 218 218 218 218 218 218 218 218 218 218 218 218 218 217 218 218 217 217 217 217 216 216 216 216 216 216 215 214 214 213 213 213 212 212 212 212 212 211 211 209 211 207 208 212 208 206 207 206
210 211 211 211 211 212 212 212 212 213 213 214 215 215 215 215 217 217 217 218 218 219 219 219 219 219 220 220 220 220 221 221 221 221 222 222 222 222 221 221 221 221 221 221 222 222 222 222 222 222 222 221 221 221 221 221 222 222 221 221 221 221 220 220 219 219 219 219 218 217 217 216 216 215 215 215 214 214 213 213 211 212 213 211 210 210 210 211 210 210
212 212 212 213 213 214 214 214 215 215 216 217 217 218 218 218 220 220 220 221 221 222 222 223 223 223 224 224 224 224 225 225 225 225 225 226 226 225 225 225 224 224 224 224 224 224 224 224 225 224 224 224 224 224 224 224 224 224 224 224 223 223 223 223 222 222 222 222 221 221 220 220 219 219 218 218 217 216 216 216 215 213 209 211 212 212 214 212 212 211
213 214 214 215 216 216 217 217 218 218 219 219 220 220 221 221 222 222 223 223 224 224 225 225 226 226 226 227 227 227 227 227 228 228 228 228 228 228 228 228 226 226 226 227 227 227 227 227 227 227 227 227 227 227 227 227 226 226 226 226 225 225 225 225 224 224 224 224 223 223 222 222 222 222 221 221 220 219 219 219 220 220 215 218 218 213 214 212 213 213
217 217 217 218 219 220 220 221 222 222 222 223 223 224 224 225 225 225 226 226 227 227 228 228 228 228 228 228 229 229 229 229 229 229 230 230 230 230 229 229 230 230 230 230 230 230 230 231 231 231 231 231 230 230 230 230 230 230 230 230 229 229 229 229 227 227 227 227 226 225 225 224 223 223 223 223 222 222 221 221 215 218 219 220 218 215 216 217 216 216
219 219 220 220 221 222 222 223 224 224 224 225 225 226 226 227 227 227 227 228 228 229 229 230 230 230 230 230 231 231 231 231 231 231 232 232 232 232 231 231 232 232 232 232 232 232 232 232 232 232 232 232 232 232 232 232 233 233 232 232 232 232 232 231 230 230 230 230 229 229 228 228 226 225 225 225 224 224 223 223 227 222 222 216 216 221 218 220 217 217
221 221 222 222 223 223 224 224 226 226 226 226 227 227 228 228 229 229 229 230 230 231 231 232 233 233 233 233 234 234 234 234 234 234 234 235 235 234 234 234 233 233 233 233 233 234 234 234 234 234 233 233 233 233 233 233 234 234 233 233 233 233 232 232 233 233 233 233 232 231 231 230 229 229 228 227 226 225 224 224 214 215 228 221 220 226 216 218 219 219
224 224 225 225 226 226 227 227 228 228 228 229 229 230 231 231 232 232 233 233 234 234 235 235 235 235 235 236 236 236 236 237 236 236 237 237 237 237 236 236 236 236 236 236 236 236 236 236 236 236 236 236 236 236 235 235 235 235 235 234 234 234 234 234 234 234 234 234 233 232 232 231 232 231 230 229 227 226 225 224 143 170 218 224 221 227 216 225 222 222
225 226 227 227 227 227 228 229 231 231 231 232 232 232 233 233 235 235 236 236 236 236 236 236 237 237 237 238 238 238 238 238 238 238 238 238 238 238 238 238 237 237 237 237 237 237 237 237 237 237 237 237 237 237 237 237 236 236 236 237 236 236 236 235 236 236 235 235 234 233 233 232 232 234 234 226 231 230 225 191 102 85 167 223 222 223 223 220 223 223
226 227 228 229 229 229 231 231 231 232 232 233 234 235 236 236 236 236 237 237 237 237 237 237 238 238 238 238 238 238 238 238 239 239 239 239 239 239 239 239 239 239 239 239 239 239 239 239 239 239 239 239 239 239 238 238 237 238 238 238 238 237 237 237 236 236 236 236 236 235 235 234 233 232 230 236 229 226 227 143 60 49 128 220 226 228 225 232 225 225
228 229 230 231 232 233 234 235 234 234 235 236 237 238 238 239 237 237 238 238 239 239 239 239 240 240 241 241 241 241 241 241 241 241 241 241 241 241 241 241 241 241 241 241 241 241 241 241 241 241 241 241 241 241 241 241 239 239 240 240 239 239 239 239 237 237 238 238 238 237 237 237 235 235 235 231 229 229 216 92 87 69 69 200 221 226 229 220 226 226
231 232 233 234 234 235 236 237 237 237 237 238 238 238 238 239 239 239 239 240 240 240 240 240 243 243 243 243 243 243 243 243 242 242 242 242 242 242 242 242 242 242 242 242 242 242 242 242 243 243 243 243 243 242 242 242 241 241 241 241 241 241 240 240 239 239 240 239 239 239 238 238 237 234 240 229 234 235 199 80 89 87 73 77 234 229 225 231 227 227
234 235 236 236 236 236 237 238 238 238 238 238 239 239 239 239 240 240 241 241 242 242 242 242 243 243 243 243 243 243 243 243 244 244 244 244 244 244 244 244 244 244 244 244 244 244 244 244 244 244 244 244 243 243 243 243 242 242 243 243 243 242 242 242 242 241 241 241 240 240 239 239 236 241 232 239 237 234 62 84 83 79 94 83 176 229 232 226 229 229
237 237 238 238 237 237 238 238 238 238 239 239 240 241 241 242 241 241 242 243 243 244 244 244 244 244 244 244 245 245 245 245 245 245 245 245 245 245 245 245 245 245 245 245 245 245 245 245 245 245 245 244 244 244 244 244 244 244 244 244 244 244 243 243 243 243 243 242 242 241 240 240 244 233 246 235 233 167 90 83 81 82 75 79 91 189 232 229 231 231
238 239 239 239 238 238 239 239 240 240 241 241 242 243 243 243 242 243 244 244 245 245 245 245 246 246 246 246 246 246 247 247 246 246 246 246 246 246 246 246 246 246 246 246 246 246 246 246 246 246 246 246 245 245 245 245 245 245 245 245 245 245 244 244 244 244 244 244 243 242 242 242 236 239 240 237 241 103 64 86 49 72 73 65 71 164 230 239 232 232
238 239 240 240 239 239 240 240 243 243 243 243 243 243 243 243 243 244 245 245 246 246 246 247 245 245 246 246 246 246 246 246 247 247 247 247 247 247 247 247 246 246 246 246 246 246 246 246 247 247 247 247 246 246 246 246 246 246 246 246 246 246 245 245 244 244 244 244 244 244 243 243 244 240 239 241 162 85 93 75 64 76 70 69 76 72 209 231 235 235
229 187 196 210 230 243 243 244 242 246 243 247 243 242 246 243 245 245 245 245 246 246 246 246 247 247 247 248 248 249 249 249 250 250 250 250 250 250 250 250 250 248 249 249 245 244 247 249 249 244 248 245 247 246 248 243 248 244 246 245 246 248 243 246 246 246 246 245 245 244 244 243 246 240 241 227 111 90 67 100 63 49 73 56 67 85 164 232 236 237
216 138 113 156 206 240 244 239 243 244 240 240 247 245 244 249 245 246 246 246 247 247 248 248 250 250 250 250 250 250 250 250 250 250 250 251 251 250 250 250 250 251 249 247 252 254 253 243 247 253 249 247 248 250 247 251 246 246 247 247 246 244 251 244 246 246 246 246 246 246 245 245 241 241 249 213 118 111 114 145 132 140 133 131 131 136 111 244 239 237
226 133 122 161 201 247 241 250 238 138 133 195 244 248 250 243 247 247 247 248 249 249 250 250 251 251 250 250 250 250 250 250 250 250 250 251 251 250 250 250 251 251 250 251 251 247 248 255 251 251 247 253 247 248 250 249 248 250 244 249 243 253 240 248 246 246 246 246 246 246 246 246 247 238 245 190 145 169 150 164 160 165 168 160 151 147 146 154 242 240
228 150 116 155 203 244 251 238 246 134 130 190 247 244 243 250 248 248 249 249 250 250 251 251 250 250 250 250 250 250 250 250 250 250 250 250 250 250 250 250 248 251 250 250 253 252 250 250 244 250 251 248 253 247 253 246 250 243 246 248 254 239 246 248 246 246 246 246 246 246 246 245 250 249 188 158 182 156 141 134 138 114 159 147 118 121 133 156 240 239
225 174 171 181 213 245 246 248 245 141 147 199 251 253 251 248 250 250 250 250 250 250 250 250 250 251 251 251 251 252 252 252 251 251 251 252 252 251 251 251 253 252 252 252 251 248 248 251 255 248 246 250 252 158 126 121 110 110 107 100 108 122 118 249 248 248 248 248 247 247 246 246 242 249 153 167 133 131 137 124 117 128 122 124 115 108 108 96 240 238
221 122 172 167 166 239 249 244 248 134 147 208 246 243 252 250 250 250 250 250 250 250 250 250 250 250 250 251 251 252 252 253 253 253 253 253 253 253 253 253 252 247 247 248 250 254 254 250 244 254 250 246 239 108 81 131 102 185 187 122 159 74 132 247 250 250 250 249 249 248 248 247 250 244 141 123 140 127 126 127 130 128 121 125 124 111 126 95 245 244
198 161 183 181 200 247 245 249 246 151 139 190 250 253 248 251 250 250 250 250 250 250 250 250 250 250 250 251 252 252 252 253 253 253 254 254 254 254 253 253 255 251 254 254 250 251 254 249 255 248 251 243 176 138 147 89 90 77 82 79 112 119 88 251 250 250 250 250 250 249 249 249 248 245 119 132 143 109 129 130 120 131 123 128 125 120 118 111 234 247
162 156 188 190 199 249 248 250 250 153 146 201 248 250 252 250 249 249 250 250 250 251 251 251 251 252 253 253 254 254 254 254 252 253 253 253 253 253 253 252 249 153 124 193 249 255 252 254 250 255 251 233 139 150 164 76 73 79 71 61 129 131 74 252 249 250 250 250 250 250 249 249 253 250 111 132 151 169 171 134 119 136 120 123 130 115 127 157 210 240
167 166 189 180 201 244 250 249 253 155 147 219 245 252 252 251 247 252 249 253 248 249 254 252 252 252 254 252 254 250 253 254 254 250 254 252 251 252 255 248 248 143 129 194 246 254 254 251 252 252 251 247 214 143 148 79 80 80 72 71 134 119 77 253 247 250 255 245 253 251 248 251 250 248 115 148 129 150 143 134 118 127 128 129 128 122 122 120 184 245
172 173 181 171 201 250 251 251 244 158 152 221 249 246 249 248 253 251 253 247 253 254 254 251 253 251 251 249 254 254 255 250 253 251 251 254 254 255 253 254 232 135 99 177 249 255 254 255 252 255 253 244 208 168 162 107 109 80 99 104 147 136 94 191 223 249 247 252 247 250 243 252 253 223 158 156 146 131 139 138 122 133 130 133 132 125 128 125 190 242
168 177 111 181 212 249 248 247 254 166 165 209 246 255 255 245 247 250 254 251 254 253 249 250 252 252 254 254 254 251 254 252 253 248 253 251 255 252 250 228 130 105 94 114 128 251 252 254 250 255 254 231 182 168 161 130 131 84 122 116 155 153 106 111 181 250 249 251 251 252 254 247 247 231 172 135 118 139 146 137 119 134 127 133 132 125 134 130 186 246
176 171 80 156 210 251 251 251 247 170 174 195 254 251 240 255 254 254 250 251 252 254 252 254 254 250 251 252 252 253 254 251 251 254 254 251 253 247 254 229 81 87 90 86 80 254 254 250 254 248 252 233 184 178 162 127 127 87 131 127 180 147 106 122 182 250 250 251 250 231 232 221 235 217 124 135 123 148 136 140 122 139 128 138 134 127 139 135 188 249
185 177 79 166 217 246 251 254 252 179 183 199 250 250 251 251 251 254 253 254 253 250 249 253 253 253 255 254 252 251 253 253 249 252 245 252 255 254 252 216 142 148 134 130 144 211 252 252 255 252 254 240 169 166 164 149 156 98 147 142 180 162 140 112 191 254 252 248 251 126 156 115 118 158 115 130 117 141 148 144 123 141 129 139 133 127 138 136 198 251
184 180 82 192 223 247 248 248 246 191 184 216 248 250 252 250 251 251 253 250 248 255 254 251 248 254 253 253 252 252 248 248 250 243 251 250 251 252 253 180 159 164 164 165 171 164 250 254 252 251 251 249 184 173 143 116 113 80 107 112 170 131 103 125 190 249 253 221 163 111 108 111 115 138 121 136 123 144 149 132 118 137 128 139 132 129 138 138 192 251
182 168 112 169 199 255 253 249 253 185 118 145 177 167 98 93 105 102 104 118 149 249 254 252 254 254 241 228 225 217 180 156 160 169 244 251 253 253 239 165 143 127 142 163 176 182 254 252 253 254 253 231 191 169 127 97 87 84 79 78 156 114 72 126 187 233 238 193 133 119 123 128 129 145 116 132 110 144 149 139 121 138 133 144 136 138 141 145 199 240
171 169 113 181 181 248 251 255 251 191 143 135 113 171 114 103 104 116 116 121 119 252 250 253 254 249 193 135 117 136 146 157 164 171 216 249 252 254 187 168 174 175 174 163 174 187 252 252 255 248 247 197 204 177 124 80 72 92 69 72 157 94 51 162 163 163 161 154 141 107 133 132 124 154 108 128 117 150 151 141 124 140 137 146 135 137 136 141 195 184
167 176 100 180 180 251 253 233 179 136 145 139 125 149 141 123 110 128 129 127 112 251 251 253 253 252 138 120 121 126 138 155 164 167 215 247 253 254 191 169 188 181 192 167 190 167 255 250 253 252 169 171 233 175 122 89 80 85 80 71 153 94 63 165 167 170 158 160 138 135 131 129 123 125 99 129 124 150 149 141 129 139 139 141 132 139 140 151 124 84
154 181 97 174 171 248 233 220 205 156 144 118 165 119 139 101 93 102 112 98 105 237 238 235 251 248 137 128 139 167 140 184 214 175 222 251 251 249 181 175 190 189 194 163 192 190 246 254 254 249 159 184 188 169 117 90 91 79 71 75 158 87 57 167 155 181 122 138 146 187 126 127 121 128 96 118 119 152 152 136 118 142 132 144 139 143 148 132 121 119
179 175 82 158 121 233 162 135 139 132 133 114 149 153 120 138 124 112 117 114 106 157 142 150 250 229 110 141 143 175 144 180 198 171 211 242 252 255 178 168 183 183 181 173 188 185 254 247 255 252 161 182 141 173 146 146 135 93 123 128 168 128 122 146 167 132 118 91 133 140 113 118 100 118 106 119 116 152 147 145 125 136 134 145 135 138 128 117 110 112
176 176 88 169 111 226 154 133 154 149 140 118 167 146 115 153 108 110 100 103 88 121 117 124 247 208 77 118 121 149 139 172 187 169 192 240 252 249 194 169 190 186 193 168 198 190 253 254 251 250 162 156 133 181 152 150 134 90 125 126 179 128 110 106 147 175 107 108 155 171 113 109 91 110 95 116 121 148 143 138 144 139 128 140 134 145 130 118 106 99
176 167 78 77 90 110 152 133 150 155 122 121 161 142 114 149 111 106 99 105 97 118 110 119 224 197 88 100 117 134 124 163 164 201 196 220 246 254 198 169 189 183 189 164 196 198 252 253 239 234 166 140 135 172 139 131 112 87 110 95 175 113 99 121 105 180 106 105 153 194 108 103 87 117 88 115 122 139 150 134 108 137 122 142 133 138 135 109 98 83
169 166 89 98 103 98 141 123 141 142 138 117 151 148 107 146 114 108 108 86 86 127 122 124 142 150 79 93 112 122 135 151 161 181 194 226 241 245 189 169 179 177 178 174 185 193 209 207 164 152 125 116 120 174 162 166 154 90 137 135 179 144 143 90 89 161 90 103 145 158 100 76 74 100 95 107 113 146 147 138 98 134 126 144 129 129 119 102 101 109
172 158 91 97 75 86 124 137 164 153 137 132 163 153 116 160 97 90 85 90 94 129 129 129 133 143 83 101 107 116 145 149 162 190 201 214 227 245 184 166 166 164 177 159 171 170 87 150 170 147 127 115 112 170 141 129 119 86 107 103 155 110 104 112 101 132 123 96 93 121 108 95 80 88 89 100 113 156 143 129 127 141 122 137 134 143 118 111 88 154
156 160 85 92 82 79 108 129 126 132 126 114 146 139 104 142 112 122 75 87 85 140 148 116 134 133 82 98 116 135 134 167 167 183 199 218 221 241 189 161 174 161 180 177 177 153 51 143 147 137 123 101 101 169 138 129 133 88 101 114 155 115 99 99 80 136 105 92 104 145 88 127 105 119 94 119 122 140 155 133 86 135 117 140 136 137 124 105 70 161
163 170 83 62 77 76 97 141 155 151 139 125 168 160 108 151 101 91 80 82 87 119 134 117 131 136 83 101 114 147 142 178 175 182 200 206 219 240 190 165 171 171 176 180 174 159 51 136 149 126 122 107 106 149 104 105 90 71 70 66 116 63 52 85 91 127 94 81 80 101 91 80 76 85 84 103 127 144 146 127 97 128 120 134 130 140 131 109 73 166
165 155 82 60 70 79 115 131 142 144 138 130 146 138 112 130 111 102 87 87 86 113 132 118 127 138 83 103 109 145 138 177 169 181 193 200 213 236 181 160 162 151 165 177 157 136 56 136 153 122 117 103 113 143 91 92 84 74 64 57 111 52 60 71 102 123 79 88 74 94 87 77 125 103 79 89 123 149 153 127 83 133 117 139 125 136 130 107 64 135
162 153 80 62 67 65 101 130 141 134 130 132 141 137 124 142 98 92 78 82 81 105 130 120 127 137 89 107 117 141 137 174 164 183 189 201 214 234 171 158 145 144 162 178 158 136 48 132 129 112 115 102 98 128 86 104 84 70 67 71 108 60 57 90 89 95 97 93 88 85 85 76 75 76 92 107 130 137 142 120 73 127 116 129 132 129 139 109 72 114
155 146 72 61 70 71 99 137 155 149 141 131 146 146 119 149 97 90 76 85 84 103 126 114 123 140 108 107 121 132 139 162 168 186 185 194 206 216 158 159 145 146 161 174 152 143 50 131 130 107 115 98 104 142 120 129 111 76 64 108 103 82 84 77 76 100 104 119 109 89 91 72 101 85 95 98 128 144 149 120 95 133 106 124 124 130 138 121 97 120
146 133 81 61 65 71 92 100 108 135 138 126 135 138 113 136 103 90 76 87 89 107 123 108 117 137 109 101 108 117 130 143 159 176 182 192 202 192 141 148 141 138 161 182 145 122 58 119 113 108 109 134 98 146 96 93 83 68 63 101 143 153 125 83 109 103 108 104 108 94 81 76 78 69 90 90 122 141 145 118 108 126 128 140 155 138 137 121 103 124
116 147 174 178 189 174 177 179 173 180 164 178 185 169 130 102 99 82 71 80 85 110 121 108 123 125 90 105 104 112 123 138 149 163 179 195 201 187 144 152 116 127 147 176 149 89 53 116 123 110 129 123 100 100 92 89 70 77 60 82 145 128 147 76 120 111 107 115 126 90 88 76 74 64 88 88 124 142 133 102 66 63 97 88 131 106 130 121 95 122
106 102 103 98 109 120 115 120 116 117 113 147 145 127 108 95 99 80 74 78 82 110 116 107 115 123 96 108 94 105 124 134 151 160 170 190 192 191 159 167 157 163 160 179 153 88 42 117 116 103 113 102 104 93 99 94 66 83 90 97 157 118 109 81 118 103 89 108 79 86 75 92 74 67 93 95 126 140 128 110 108 109 123 119 127 123 130 122 83 118
96 113 144 135 72 96 97 99 101 94 91 113 118 120 103 105 91 73 74 76 80 111 116 110 119 170 165 136 102 124 161 153 142 154 167 195 191 196 157 154 143 131 139 170 140 115 51 121 116 113 104 90 100 94 98 91 83 75 80 97 127 115 92 79 114 107 95 115 72 83 81 85 82 73 98 100 126 137 123 116 131 130 126 118 112 123 130 117 110 148
87 85 89 115 99 98 97 100 107 104 93 109 117 102 110 94 101 90 102 84 83 107 115 127 122 110 157 155 99 129 164 169 166 184 160 187 186 181 137 120 83 86 117 168 84 102 47 110 124 122 102 96 96 91 110 120 94 87 87 93 104 113 96 79 92 77 97 110 72 70 78 148 160 133 108 100 130 130 117 111 79 52 126 65 65 107 123 105 112 132
81 86 88 110 120 109 114 118 116 113 113 149 124 108 110 97 88 86 84 85 91 158 149 148 151 156 167 149 153 162 185 176 187 159 170 175 188 192 102 129 66 61 124 148 77 68 47 113 126 124 115 102 105 133 129 105 103 91 99 87 102 115 140 141 153 145 91 105 68 85 78 124 164 155 163 91 127 136 118 127 133 112 130 110 111 113 135 34 76 118
73 71 66 76 83 99 100 89 98 98 98 103 87 81 101 80 101 78 98 92 92 104 80 141 162 170 183 165 152 153 126 141 176 167 155 178 184 186 116 124 85 87 126 148 106 87 45 114 147 118 127 92 97 118 125 108 93 104 94 97 81 112 153 186 193 158 84 105 67 75 69 113 153 139 166 100 131 134 106 129 129 128 117 127 123 127 104 101 103 126
65 83 86 83 91 95 81 101 93 100 90 116 108 108 103 95 93 76 105 69 90 141 145 151 87 189 186 123 151 158 165 175 183 176 163 167 176 139 102 127 101 97 122 154 88 75 45 90 122 106 113 96 97 128 119 99 87 110 95 92 129 122 156 172 183 150 89 118 82 119 53 96 121 117 127 118 121 134 105 112 77 106 119 106 97 98 82 57 100 132
61 88 104 118 108 120 114 109 116 120 106 124 111 108 97 87 96 87 82 84 89 102 94 116 155 211 209 154 190 129 105 122 164 179 148 165 170 155 77 93 66 70 112 141 79 53 52 66 93 95 115 100 121 117 124 106 103 97 97 89 123 95 162 130 148 158 75 126 155 148 110 134 124 132 115 154 133 144 109 120 121 114 103 111 77 81 109 95 93 123
56 73 66 71 93 87 105 93 93 88 89 86 74 82 103 86 88 77 78 74 73 130 129 141 111 152 190 142 173 153 150 157 171 173 145 175 156 90 55 83 57 68 111 130 80 44 48 46 55 64 61 97 130 130 117 93 76 100 81 85 112 110 178 186 144 185 159 122 165 154 150 150 124 135 121 164 154 156 105 123 123 105 88 103 91 103 103 82 104 123
55 70 69 129 84 92 84 90 94 88 91 116 95 95 95 85 99 98 92 81 80 92 73 116 123 134 190 104 149 177 139 128 171 172 155 182 179 109 66 88 67 63 123 137 69 51 79 77 114 122 103 109 130 116 115 83 73 90 87 84 111 122 186 198 199 195 166 119 143 134 97 65 140 159 163 166 162 166 102 92 91 95 63 104 46 83 97 80 88 129
66 78 105 103 79 102 105 103 110 108 109 114 119 107 95 71 92 124 91 111 97 78 81 117 167 145 178 188 166 165 145 158 161 166 135 141 217 101 54 75 60 59 125 119 74 40 55 62 75 78 67 107 125 111 114 100 87 92 104 82 92 109 179 196 201 192 182 112 131 127 93 93 116 126 156 162 160 163 120 106 110 107 90 102 61 90 119 95 107 131
167 170 173 130 126 137 110 92 99 89 99 144 161 118 109 112 118 100 90 147 139 84 124 120 124 83 116 161 124 137 166 160 144 157 134 149 185 71 102 139 95 63 120 110 64 41 25 36 59 142 148 139 102 88 101 169 148 143 153 121 116 71 175 193 200 193 173 107 127 104 60 37 125 141 159 167 158 162 164 119 87 77 79 79 100 80 101 130 90 121
100 106 101 117 114 123 107 102 134 76 82 102 69 81 93 103 118 110 67 86 87 73 172 174 111 115 127 178 176 194 174 145 143 144 128 154 189 83 130 50 118 37 91 90 51 37 56 57 123 131 131 122 95 86 93 90 164 97 96 87 89 86 161 197 190 190 174 101 114 109 88 82 113 133 148 163 163 158 160 102 75 48 38 83 114 123 117 47 86 98
100 104 102 123 107 103 103 72 86 79 79 84 78 79 95 111 146 106 74 82 105 87 165 172 144 146 145 178 181 180 173 141 143 150 150 192 71 72 104 56 46 48 22 26 44 20 59 116 149 91 68 92 60 119 104 90 93 85 71 114 113 69 176 188 190 186 173 97 115 97 79 38 103 139 152 160 163 164 158 107 72 71 59 87 124 97 94 92 99 91
152 102 94 90 95 82 98 58 63 66 79 90 75 67 62 160 174 157 68 85 72 80 163 170 150 143 152 180 176 180 175 136 135 129 147 218 92 59 44 52 61 44 34 40 25 27 47 41 84 69 75 73 67 98 122 88 85 78 86 75 81 82 179 178 141 175 170 101 98 85 81 39 91 111 156 157 157 160 163 92 58 71 38 103 105 68 70 97 96 83
154 76 100 110 102 61 73 97 94 101 106 70 89 107 123 126 138 147 76 81 75 76 164 160 131 118 109 169 163 183 171 135 132 124 146 201 115 107 105 102 110 104 93 72 30 25 33 41 88 83 78 76 65 70 52 64 76 58 71 76 81 95 162 157 69 161 159 104 103 93 62 96 146 157 142 161 159 153 154 155 95 80 72 102 90 105 98 94 92 86
93 90 111 92 96 104 80 120 100 78 71 99 125 113 110 91 91 100 56 73 63 70 129 148 102 89 101 137 113 146 159 124 108 118 153 155 121 70 66 41 111 117 75 73 32 33 29 85 90 57 43 99 116 79 52 57 63 93 77 69 90 156 175 156 157 126 137 116 95 97 59 62 83 105 73 116 134 148 147 139 77 45 61 104 101 59 75 88 95 89
88 58 78 81 86 108 76 67 57 150 113 78 134 109 123 93 85 103 71 61 66 61 127 127 82 108 86 97 76 95 185 115 125 136 199 213 143 40 44 34 82 94 130 131 41 38 29 109 36 64 55 60 87 84 64 137 58 92 74 61 74 110 133 141 112 78 108 109 80 91 56 49 49 57 51 60 87 63 95 140 70 39 56 105 89 93 89 93 88 70
54 73 75 41 80 77 71 114 103 47 56 92 94 60 74 67 90 89 74 64 78 93 95 82 89 80 79 92 105 122 133 107 100 123 190 107 36 45 36 49 58 36 77 79 50 34 33 44 43 41 36 59 63 97 46 25 71 38 62 76 91 69 90 79 57 100 74 79 75 132 63 47 50 58 77 72 55 73 61 69 76 63 54 97 95 99 93 95 95 64
54 54 89 39 70 81 90 78 75 83 72 65 90 90 124 77 58 48 130 144 123 105 122 117 107 95 86 149 150 118 129 88 114 190 139 82 37 42 48 58 49 48 77 48 86 59 59 40 53 57 40 58 49 65 38 26 49 56 42 66 61 82 97 75 96 90 74 55 77 73 52 57 44 45 69 150 87 107 67 59 34 68 39 98 100 72 82 93 91 72
54 59 62 45 89 71 80 81 95 96 100 57 50 63 55 57 56 44 65 68 69 79 72 77 82 92 89 83 104 88 129 111 138 196 133 58 37 45 43 35 86 51 34 29 43 24 22 22 36 44 39 31 43 38 27 63 96 41 51 43 45 68 78 88 74 50 58 50 67 45 49 42 40 84 82 62 47 55 35 40 32 48 39 97 99 96 96 82 90 56
58 61 72 83 64 63 109 69 78 108 96 64 49 57 53 64 161 99 87 73 84 80 89 89 87 115 94 132 80 71 85 112 81 172 103 26 100 79 109 35 72 80 86 94 91 46 54 39 46 45 51 52 54 69 76 103 98 47 34 32 48 32 63 66 65 59 57 76 69 70 72 44 53 72 91 51 52 60 47 72 37 38 35 104 100 76 81 95 90 69
76 54 48 75 64 60 92 58 126 164 96 111 102 130 123 98 47 51 91 91 127 128 157 132 121 177 123 136 97 75 71 89 158 159 81 56 87 118 88 37 36 40 43 98 100 77 74 25 33 45 37 45 84 87 112 110 33 40 24 33 36 36 39 77 66 41 66 147 122 137 102 70 84 85 104 112 137 103 105 79 70 83 73 111 96 73 71 83 85 67
59 72 57 59 49 50 45 63 81 72 57 99 113 118 104 97 105 104 113 113 100 107 120 55 134 126 87 96 115 71 85 89 182 147 71 144 56 71 61 53 61 64 65 58 72 86 101 54 124 81 79 74 59 146 134 80 96 35 29 34 34 63 71 45 62 45 52 100 128 160 109 79 122 62 38 122 122 125 118 75 52 43 44 102 98 77 78 92 77 45
61 48 55 56 72 62 42 63 68 39 72 89 92 100 107 135 117 123 111 121 123 110 116 113 139 99 67 71 62 70 80 84 181 130 43 39 130 47 69 128 36 65 59 53 59 65 20 41 99 96 68 73 82 60 47 80 64 43 62 92 103 75 83 32 48 65 32 52 79 93 109 106 44 57 52 66 59 78 88 103 121 64 96 137 90 76 76 83 88 65
51 40 31 55 58 91 57 58 44 44 60 70 58 112 106 101 70 64 70 58 82 75 79 77 92 102 78 77 76 87 81 137 158 107 88 85 87 70 97 92 53 97 105 88 102 73 25 27 21 54 64 97 144 164 109 53 45 40 55 82 68 59 72 92 80 77 56 66 49 67 103 72 65 72 37 90 94 76 85 70 100 125 69 80 97 97 98 59 79 62
95 18 42 42 58 42 71 43 67 39 56 58 72 85 85 68 64 62 74 38 67 79 80 87 58 92 69 72 87 92 115 212 167 57 47 129 95 88 74 81 56 39 36 60 79 77 102 63 62 21 40 60 79 62 51 37 32 24 41 37 64 45 68 121 88 47 77 65 50 50 65 131 115 87 51 92 109 53 97 96 105 117 104 79 45 35 28 36 71 40
57 30 54 54 66 46 34 43 51 49 57 77 57 41 46 66 73 73 69 39 62 56 112 99 76 85 69 81 83 93 122 186 119 26 24 41 89 72 76 63 53 32 21 33 35 23 27 32 29 25 30 31 74 117 110 116 73 59 24 29 78 36 57 83 95 38 33 42 30 28 37 40 103 35 49 42 39 44 78 90 98 113 112 106 76 82 84 31 49 59
47 46 66 46 40 30 33 46 43 56 65 64 53 54 55 47 60 72 62 67 55 58 69 87 66 65 67 53 75 64 137 124 148 42 33 32 88 73 68 49 37 34 38 27 43 29 25 30 32 28 24 22 33 31 32 67 72 67 19 32 43 36 41 56 54 28 40 29 37 47 35 51 35 35 28 39 32 16 22 49 101 96 99 93 75 84 77 88 81 87
59 50 52 45 44 29 21 25 23 32 56 71 73 60 52 45 62 43 49 61 117 72 84 74 61 67 71 63 73 64 184 117 102 89 63 24 88 80 72 76 70 65 49 24 27 26 15 27 27 25 21 24 32 34 37 43 40 32 22 32 57 42 42 74 55 48 37 43 32 36 19 42 32 44 26 105 91 80 68 68 89 94 92 82 63 75 88 79 86 88
41 43 35 29 33 35 31 25 25 36 57 54 61 57 57 49 72 48 54 49 71 59 58 78 42 43 45 51 65 131 86 79 37 67 57 55 78 42 25 12 46 80 79 30 60 37 25 27 31 23 20 23 29 41 46 42 37 26 26 36 26 29 30 44 49 39 41 29 25 24 44 42 34 39 29 65 74 38 73 71 73 73 100 88 69 70 76 81 81 80
51 48 33 29 28 31 32 29 29 38 51 32 47 61 72 67 60 45 47 64 73 55 61 66 41 53 49 50 65 135 74 94 35 64 65 80 111 101 76 26 57 79 99 111 139 120 119 104 26 24 18 15 47 80 75 68 66 42 41 70 86 54 79 72 94 83 87 35 22 51 63 44 39 35 29 34 58 43 82 57 74 74 76 83 89 87 75 83 80 78
78 50 27 26 25 25 32 37 49 42 49 39 53 53 54 58 55 50 55 55 42 60 57 68 40 45 49 58 84 130 126 75 26 45 97 86 71 61 70 51 67 76 82 137 129 126 116 97 25 13 29 21 17 70 100 81 58 63 85 112 43 69 55 70 84 107 110 87 34 30 18 25 18 27 25 40 29 33 44 38 48 78 72 83 64 76 82 80 78 72
28 24 33 34 31 35 38 28 40 40 47 33 46 54 52 54 44 35 44 84 83 48 42 59 38 37 66 46 71 153 101 66 70 87 99 35 21 18 16 18 48 76 61 46 48 41 43 45 20 18 13 12 22 35 38 34 54 31 94 118 75 33 71 32 64 62 55 61 56 22 16 16 18 28 17 14 27 19 28 66 47 43 68 72 54 79 70 75 73 63
43 23 30 30 25 26 33 30 29 37 49 35 42 48 42 45 55 58 53 47 53 41 44 56 34 57 78 58 91 149 149 94 56 35 39 29 30 31 33 35 36 28 32 43 39 40 50 45 25 21 19 18 12 50 99 86 85 73 96 88 45 34 27 67 91 90 100 94 87 69 35 16 16 16 17 24 21 22 30 53 56 51 69 61 68 73 68 69 58 45
26 20 26 28 21 21 25 31 41 37 34 39 33 35 35 38 59 34 65 52 50 44 36 51 22 51 59 65 114 185 106 46 58 41 59 51 42 51 34 42 39 36 34 40 37 39 37 37 35 21 13 14 11 28 109 121 100 105 96 84 24 28 28 36 38 50 68 118 122 122 65 35 12 7 18 18 12 21 30 37 31 50 67 64 56 66 68 59 54 37
26 19 20 26 43 62 62 55 64 60 59 57 51 43 41 39 53 41 56 69 66 33 39 49 32 41 41 57 116 153 143 89 37 37 61 43 40 32 29 37 35 33 33 38 40 38 38 28 22 19 16 12 18 16 20 21 17 29 26 28 21 29 32 23 16 29 27 30 21 23 23 55 14 21 10 21 18 14 23 49 28 41 57 66 51 84 60 58 54 28
15 17 19 21 38 56 55 50 44 44 54 59 70 71 80 83 77 71 98 73 71 32 35 39 34 48 37 66 131 131 111 37 55 44 42 33 33 38 38 40 36 34 32 31 36 36 32 35 23 13 8 6 7 21 21 27 26 21 20 17 25 25 10 16 15 18 19 18 22 16 17 40 27 15 10 10 15 13 19 27 31 43 50 49 66 119 48 37 21 26
26 23 19 21 40 55 51 50 46 45 47 50 60 64 71 76 74 78 71 67 47 25 42 64 76 70 45 81 132 85 73 83 62 36 56 69 53 86 74 94 58 64 76 41 33 27 17 32 32 13 4 12 8 12 17 11 8 15 4 21 27 19 13 13 17 6 12 11 7 5 7 10 31 19 13 10 14 18 32 32 15 35 51 35 53 87 94 35 28 33
20 19 15 14 30 45 43 43 38 39 36 44 52 59 59 64 62 66 72 58 54 43 58 72 69 89 46 107 112 87 45 69 114 35 34 45 25 38 61 44 56 72 76 72 53 56 66 64 39 18 7 7 10 6 14 28 16 13 17 15 21 40 27 18 22 19 28 27 16 19 22 23 28 35 7 6 12 16 26 31 38 30 32 55 32 57 68 88 69 22
5 13 18 12 21 36 32 23 19 27 26 39 49 59 54 58 52 58 70 58 40 69 40 45 55 79 73 105 132 96 111 80 70 18 75 90 53 90 82 122 63 52 53 60 44 27 69 75 49 7 4 3 6 13 21 42 22 18 13 11 18 26 42 22 18 22 20 20 22 32 24 27 30 34 51 16 14 21 24 21 22 39 26 15 24 27 35 47 92 56
8 7 9 10 26 44 36 18 18 26 28 34 46 50 48 53 53 48 46 45 43 48 52 51 48 51 72 114 112 47 122 119 113 38 88 79 70 82 102 93 39 86 43 103 75 51 77 84 85 29 4 3 1 12 16 27 26 18 26 20 17 19 19 16 14 19 23 25 24 25 15 15 13 17 67 38 12 12 22 22 12 16 36 14 9 23 24 21 43 68
33 24 25 26 32 47 52 50 50 53 50 41 49 44 46 51 47 43 51 39 29 48 47 47 40 52 76 115 109 76 130 94 69 116 98 94 89 45 20 43 110 105 87 18 69 68 21 34 30 25 2 5 4 4 14 46 36 42 31 27 17 28 24 19 26 13 20 22 16 23 31 29 29 35 20 62 33 16 19 24 19 19 27 8 13 15 33 22 12 57
76 65 65 96 56 84 85 82 73 72 67 49 48 28 50 50 46 63 35 35 46 31 37 44 53 49 78 127 144 104 84 95 82 89 95 86 44 41 39 51 73 80 72 45 104 23 35 74 95 28 2 9 7 3 9 25 25 26 27 19 23 30 26 19 16 28 29 25 29 29 23 23 20 25 23 27 34 20 19 15 26 18 20 12 11 11 19 25 45 68
18 14 20 72 33 26 22 16 19 19 18 17 35 31 41 25 49 65 34 32 42 25 28 34 50 60 93 74 81 88 49 38 36 26 26 29 33 71 39 24 28 36 33 32 42 35 44 40 61 22 9 12 9 7 8 14 36 36 39 19 31 29 27 17 13 25 24 18 20 21 19 23 23 27 22 22 26 14 18 19 21 12 14 8 9 8 13 17 58 87
