P2
90 90
255
80 82 86 89 91 93 96 98 101 104 108 111 112 113 114 115 116 117 117 118 119 122 125 128 130 136 143 147 149 151 151 151 155 154 155 158 161 161 162 163 168 168 169 168 168 167 168 168 164 161 156 151 148 148 149 150 154 155 155 154 153 152 150 150 149 146 143 139 136 132 128 125 122 120 117 114 111 108 104 101 96 95 93 93 94 94 93 92 85 83
79 81 85 88 90 92 95 97 101 104 108 111 113 115 117 118 118 119 120 121 122 124 128 131 137 142 148 152 155 157 158 157 158 158 160 162 163 164 165 168 171 172 172 171 169 168 168 168 168 165 161 157 155 154 155 156 157 158 158 158 158 157 155 155 151 149 146 143 140 136 132 129 123 121 118 115 113 109 106 103 102 101 101 102 103 104 103 102 99 97
78 81 85 88 90 93 97 99 103 106 110 114 116 118 120 121 121 123 125 125 125 127 131 135 139 144 150 153 156 158 160 160 159 160 162 164 165 166 169 172 168 169 170 171 171 172 172 173 168 165 162 159 157 156 157 158 158 158 158 158 157 156 154 154 151 149 147 144 142 138 133 130 125 123 120 117 115 112 108 106 104 103 103 105 108 109 109 109 106 104
77 80 84 88 91 95 99 102 107 110 113 116 118 119 122 123 124 127 129 129 128 130 135 139 143 148 153 156 159 162 164 164 164 165 166 169 170 170 171 173 175 175 176 177 176 175 175 175 170 168 165 162 161 160 160 160 162 162 162 161 159 157 155 154 153 152 150 148 146 142 137 134 128 125 122 118 116 113 110 107 106 106 106 108 111 114 114 114 111 109
74 77 82 86 91 95 100 103 109 111 115 117 119 121 124 126 127 130 132 133 132 133 138 142 145 149 154 157 160 163 165 166 168 167 168 170 172 171 170 171 176 177 179 179 179 179 178 179 173 171 169 166 164 162 162 162 164 164 164 163 161 159 157 155 154 153 151 149 148 144 140 137 132 129 125 121 119 116 112 110 109 108 108 110 113 115 115 115 113 111
68 71 76 81 86 91 97 100 106 108 112 114 117 120 123 125 127 129 131 132 132 133 137 141 141 146 151 154 157 160 162 163 165 165 167 170 171 172 174 176 176 178 180 182 182 181 181 181 175 173 170 167 165 163 163 163 163 163 163 163 161 160 158 157 155 153 152 150 149 146 142 139 136 133 129 125 122 119 116 114 112 112 112 113 115 117 116 116 114 112
57 60 65 70 75 80 85 89 94 96 99 102 104 107 110 113 115 117 118 119 120 122 125 128 131 136 141 144 147 150 153 153 156 157 158 159 159 160 165 171 171 172 174 175 174 173 172 171 171 169 166 163 161 160 160 160 159 159 159 159 158 156 154 153 152 151 149 147 146 144 140 138 132 129 125 121 119 116 114 112 114 113 112 113 115 116 115 115 112 110
45 48 52 57 62 67 73 76 80 82 84 86 88 90 93 96 99 100 101 102 104 106 109 111 112 117 122 126 129 132 134 134 138 139 139 136 131 130 137 145 137 140 145 151 155 158 160 161 156 154 151 148 146 146 146 146 147 147 147 146 144 142 140 139 138 137 134 133 132 130 127 125 123 120 116 113 110 109 106 105 104 103 102 103 104 105 105 104 102 100
30 34 39 44 49 53 57 59 63 65 67 70 71 73 75 76 78 80 82 83 83 85 88 91 91 97 101 104 108 110 111 113 117 112 121 116 103 95 96 87 79 98 107 113 117 132 132 129 131 126 134 125 116 109 119 128 130 128 127 126 125 125 123 118 119 119 117 116 114 112 111 111 106 103 100 97 96 95 94 92 91 90 89 89 89 90 90 90 87 87
23 24 28 32 36 41 45 47 49 49 50 50 51 53 55 57 58 60 61 62 63 65 66 67 69 73 75 77 82 85 86 89 90 100 94 85 81 65 50 61 68 86 82 82 86 84 106 96 91 72 54 64 88 104 104 99 106 104 105 105 103 103 102 99 98 98 97 95 94 93 92 91 87 85 82 80 80 79 76 75 73 72 71 71 71 72 72 72 72 71
19 20 21 24 26 29 31 32 33 32 32 32 32 33 34 34 36 37 38 39 40 40 40 40 43 47 50 54 58 58 58 59 62 67 72 74 59 50 40 46 48 50 58 53 52 53 62 56 46 53 45 55 59 70 81 90 80 77 78 78 76 76 77 75 74 74 73 72 71 70 69 69 66 65 63 62 62 60 59 57 57 56 55 54 55 55 55 55 55 55
17 18 19 21 22 23 24 24 25 25 24 24 23 21 19 17 19 20 21 22 23 23 24 25 27 28 27 26 29 31 35 41 55 65 67 56 52 43 33 47 47 37 39 36 28 43 41 43 59 58 41 41 36 42 61 63 58 52 50 51 50 49 50 48 49 49 49 48 48 47 47 47 45 44 43 42 42 41 40 39 38 37 36 35 35 35 35 35 34 34
20 20 21 22 23 25 27 28 29 28 27 26 24 22 19 18 16 18 20 20 20 21 23 25 20 23 24 24 26 27 32 40 69 66 75 48 40 38 44 47 34 31 21 25 14 16 25 19 18 24 32 36 28 31 64 65 53 42 35 36 36 36 36 34 35 35 35 35 35 35 35 35 34 33 32 30 30 29 29 28 26 24 23 22 22 21 21 20 21 21
24 26 28 28 28 30 33 36 34 34 33 31 28 25 24 23 22 23 24 24 23 22 23 23 23 26 27 30 33 35 41 50 73 53 79 54 33 38 55 38 30 28 35 27 21 14 17 14 23 22 30 30 25 32 69 75 61 46 35 34 35 35 35 35 34 34 34 35 35 35 36 36 34 34 33 31 30 29 28 27 26 25 23 22 21 21 20 20 21 21
34 41 50 56 58 59 62 64 62 62 60 54 44 35 28 26 27 27 28 31 34 34 32 30 35 32 29 30 36 42 52 63 60 53 70 44 35 34 32 26 35 25 37 18 17 21 13 20 14 21 34 40 41 46 63 75 72 54 40 37 35 34 36 37 37 37 37 38 38 39 39 39 39 39 39 39 37 34 32 30 30 28 26 25 24 23 23 22 22 22
55 68 86 100 106 109 111 113 111 111 107 95 77 57 42 34 36 36 40 49 58 62 60 57 47 50 54 63 71 71 69 71 59 43 61 44 26 33 35 27 33 35 28 28 26 28 18 13 17 21 21 34 50 59 54 66 86 66 51 45 40 38 41 44 45 45 46 46 47 47 48 48 49 50 52 51 49 45 42 39 34 33 31 29 28 28 27 26 25 25
67 90 113 135 149 158 168 169 164 156 141 133 114 92 59 39 39 48 57 67 79 86 87 87 83 85 82 97 98 94 66 60 63 63 60 48 35 38 46 45 43 48 38 47 51 34 26 17 18 23 19 29 41 45 58 68 84 72 62 44 51 46 54 54 56 58 64 68 67 67 79 95 112 122 129 129 124 114 95 77 57 43 33 35 37 32 29 31 30 29
86 118 149 172 185 192 200 199 197 190 175 162 139 115 78 52 50 60 72 83 92 95 95 98 108 123 117 120 118 102 63 75 70 63 55 46 46 51 56 65 62 68 67 66 60 48 36 28 24 25 21 26 29 32 54 73 66 69 74 63 60 53 60 62 73 78 84 87 90 102 126 147 166 176 185 186 181 168 146 127 93 71 49 41 40 38 37 39 37 36
101 140 176 197 206 211 217 216 213 208 195 182 156 130 90 60 54 66 82 95 100 100 103 111 129 137 141 135 125 99 67 66 65 58 59 64 73 75 75 93 91 96 102 88 71 60 44 34 29 21 12 13 14 18 32 38 58 76 88 77 61 61 71 75 81 93 103 106 111 131 160 181 189 199 208 209 205 193 172 154 127 100 68 49 45 45 44 43 40 37
121 163 195 208 214 218 224 223 219 215 205 195 166 138 99 68 57 70 88 102 105 101 107 120 134 142 147 134 121 85 79 75 69 61 77 100 120 130 134 153 151 152 151 133 106 89 73 57 51 42 34 33 32 37 39 32 48 72 86 81 65 72 80 81 91 112 130 135 140 157 180 195 204 212 218 219 217 210 196 183 162 138 106 84 78 78 75 70 67 63
142 183 209 217 222 226 231 230 229 221 214 206 175 144 104 74 64 77 95 110 112 105 110 124 137 147 132 145 145 90 57 44 63 68 108 151 177 189 192 196 192 192 182 175 156 137 131 114 114 98 79 55 33 33 48 62 41 55 68 79 73 79 82 88 113 138 161 169 173 185 200 208 213 218 222 223 222 220 213 204 193 176 152 134 127 125 120 114 113 108
149 190 213 220 227 230 233 233 232 223 216 210 181 152 110 75 61 73 91 107 110 104 106 117 133 143 130 155 113 58 43 54 61 99 155 195 206 205 203 197 192 193 182 187 181 169 171 160 161 151 145 124 85 52 42 53 59 56 54 68 70 73 82 106 141 162 183 191 194 201 210 216 222 226 229 230 230 229 224 219 208 198 182 168 161 159 154 150 145 140
153 194 217 225 232 233 234 236 234 226 219 213 189 167 123 77 55 63 76 89 93 89 90 98 112 116 127 146 88 53 54 67 98 158 195 208 206 199 201 198 192 194 186 186 185 178 176 172 174 170 173 164 140 100 60 49 64 65 60 63 67 71 90 125 166 180 197 207 210 213 219 223 225 229 232 232 233 232 228 223 218 211 200 191 187 184 180 177 171 165
157 198 221 227 234 233 234 237 234 228 221 214 193 177 130 75 57 60 66 73 76 72 73 80 98 112 132 114 71 44 51 71 126 194 209 206 212 206 204 197 191 193 191 184 184 183 176 179 176 178 182 178 173 145 91 60 36 62 71 70 77 84 101 129 174 185 202 217 222 223 225 229 229 232 234 233 234 233 231 227 223 218 210 206 203 200 196 193 190 183
159 199 219 229 231 236 235 237 234 229 221 213 203 183 136 75 60 63 67 69 66 64 68 74 84 96 115 83 41 37 66 74 159 206 209 211 209 204 198 199 196 191 191 190 182 180 182 180 179 177 183 185 182 174 144 70 40 27 66 78 74 88 112 136 174 193 206 216 222 227 223 233 233 234 232 233 235 233 229 228 224 222 218 214 212 210 207 203 202 197
159 199 219 229 231 235 235 237 236 231 223 216 206 188 134 79 59 62 66 67 64 61 65 72 78 87 100 62 37 50 57 93 170 209 212 208 200 201 204 199 196 195 191 185 185 190 187 177 183 180 177 175 182 188 168 106 37 21 34 75 70 84 105 119 164 176 191 217 221 227 231 227 230 232 232 232 233 232 230 231 228 227 224 221 219 217 214 210 208 204
160 200 219 230 231 236 236 238 235 230 223 217 207 192 128 80 57 60 64 65 61 58 62 69 77 82 94 64 32 42 42 94 175 205 211 207 209 198 198 195 202 196 193 196 193 182 178 185 182 186 185 179 182 185 176 131 56 22 18 33 35 54 97 100 136 180 200 206 218 225 218 229 227 230 229 228 229 228 227 229 226 226 224 221 220 219 215 212 212 208
162 201 221 230 232 237 237 239 235 230 223 218 207 193 122 77 54 57 61 61 57 54 59 67 73 82 92 89 41 30 62 99 165 208 208 213 197 204 197 207 193 198 196 192 191 187 185 190 184 181 180 180 182 186 181 137 66 34 20 20 49 35 37 65 101 143 179 192 201 221 220 221 224 226 225 225 226 226 225 227 225 225 223 221 219 217 214 211 209 206
163 202 221 231 233 237 238 240 237 233 225 220 210 195 121 74 50 52 55 55 51 50 56 64 68 81 89 86 55 31 86 104 186 210 212 207 207 201 196 199 195 197 190 185 189 191 188 188 188 184 188 186 183 190 187 132 65 39 25 20 36 70 71 66 87 100 109 160 188 194 207 209 214 216 215 216 218 219 218 219 217 218 217 214 212 211 208 204 203 199
164 203 222 231 232 237 237 240 238 235 229 223 213 196 127 72 47 47 49 49 46 46 53 61 68 71 90 82 42 91 57 129 196 211 212 151 103 119 173 186 180 183 185 187 188 185 180 180 176 173 174 171 177 196 197 142 72 44 30 26 46 68 85 79 86 101 112 100 129 182 181 195 202 205 206 206 207 206 204 206 206 208 208 207 205 203 199 196 194 190
166 205 223 232 233 238 238 241 239 237 232 228 219 200 138 74 48 46 46 45 43 44 51 59 61 77 83 73 73 82 85 161 205 213 180 190 175 142 70 75 123 155 181 183 181 183 167 141 91 76 61 67 105 153 190 178 77 27 33 16 27 52 93 82 96 100 94 109 98 114 162 171 176 183 188 190 190 189 189 193 198 202 206 207 206 204 199 194 187 181
169 207 225 233 235 239 240 242 241 240 237 233 226 205 149 78 50 47 45 44 43 44 51 58 64 76 74 78 62 69 83 193 211 202 205 190 174 158 141 114 92 127 168 187 184 168 131 89 93 116 140 163 176 165 175 184 102 30 27 25 35 55 62 93 95 91 98 99 89 96 105 125 136 147 157 162 165 166 170 177 189 195 201 205 205 202 196 191 184 177
173 209 226 234 236 241 241 244 245 240 239 237 229 208 162 83 59 51 46 47 46 47 54 65 72 73 84 65 66 45 111 202 202 198 174 142 122 113 115 124 136 142 181 192 187 178 148 131 131 136 140 146 158 181 191 174 137 41 25 32 20 43 68 87 102 101 95 101 96 89 96 101 98 96 103 114 123 129 129 164 183 190 198 202 202 198 193 187 183 175
170 208 225 234 236 242 242 244 245 243 242 239 232 211 167 88 64 57 52 52 52 53 61 72 77 67 81 50 53 45 152 203 210 160 86 46 36 22 40 95 124 157 194 202 193 184 155 117 87 69 89 67 70 137 170 186 155 45 20 28 21 36 55 74 94 105 98 108 99 100 98 104 99 91 84 77 74 79 96 155 178 186 196 202 204 201 193 186 179 171
169 208 226 236 238 243 243 245 245 245 244 240 234 214 170 93 70 63 59 59 59 61 69 79 83 71 68 35 45 45 185 205 205 176 158 149 119 81 69 80 105 162 199 212 204 187 143 72 85 74 34 65 73 68 143 179 171 56 22 24 19 31 45 63 88 109 107 107 100 102 97 100 100 95 90 81 72 67 86 158 181 190 199 205 208 205 195 184 180 171
168 208 227 236 238 244 244 246 246 246 244 239 234 214 171 97 73 68 65 66 67 68 75 84 89 85 51 31 50 48 190 207 208 208 190 174 169 150 125 115 138 180 199 207 201 193 163 108 116 140 141 146 151 152 175 196 170 64 29 19 13 26 40 54 80 106 114 96 98 90 90 89 91 87 83 80 75 67 86 162 184 192 200 206 210 209 200 188 185 176
167 207 226 234 236 243 244 246 247 246 242 238 234 214 171 101 77 74 73 76 76 76 81 87 95 94 43 34 56 52 190 206 207 216 208 190 180 172 168 175 180 200 210 212 198 194 179 163 153 146 147 158 172 186 192 186 168 68 33 16 11 20 31 44 65 95 113 90 92 79 78 76 74 71 68 67 65 59 77 153 178 187 195 201 209 213 206 194 185 176
162 203 224 233 235 243 244 246 246 245 240 235 231 207 166 103 82 81 82 85 86 85 87 92 100 89 44 39 52 58 193 202 209 205 209 210 200 197 196 187 200 209 216 217 202 198 179 176 171 176 181 183 186 191 191 192 175 74 38 21 18 19 24 38 52 83 107 96 90 75 63 58 58 60 63 63 59 56 70 135 169 179 190 196 203 206 197 184 171 163
150 194 217 228 232 240 242 243 242 241 235 229 219 190 151 97 86 86 88 91 92 90 91 94 101 83 40 48 43 64 183 201 203 218 215 206 205 199 193 200 207 219 216 210 199 210 194 188 184 191 183 187 195 189 188 194 175 80 44 21 19 18 21 33 45 69 103 98 95 73 55 46 48 49 51 48 44 46 55 106 148 162 175 180 184 182 166 147 142 133
137 182 208 221 226 235 236 236 237 236 231 222 208 174 136 87 87 88 90 93 93 91 92 95 99 83 32 57 38 68 163 202 209 210 213 210 202 197 190 179 181 219 226 217 202 210 187 163 182 185 193 195 193 198 198 184 162 80 48 15 11 14 19 27 41 55 100 94 103 72 59 44 42 43 47 46 43 44 41 75 122 139 155 160 161 155 134 111 113 105
108 163 198 207 222 232 230 231 231 227 221 210 186 150 111 87 87 91 96 97 97 95 96 97 97 77 40 54 38 101 139 203 209 212 213 199 198 192 176 143 178 226 223 209 206 222 213 128 154 181 185 196 194 195 194 184 161 62 47 12 13 19 12 23 38 46 78 91 101 86 60 45 45 46 45 42 40 40 43 46 76 105 124 132 138 120 95 90 84 86
83 136 179 196 206 211 214 223 221 217 205 181 148 116 97 90 92 95 99 101 100 99 99 100 101 76 55 46 33 133 138 196 204 201 198 204 194 168 150 144 190 181 203 200 201 192 208 150 123 164 180 183 192 194 193 182 152 69 49 14 7 18 27 22 36 48 60 95 97 82 67 49 45 45 44 42 40 39 39 40 41 62 78 89 93 77 58 55 56 58
74 106 142 169 183 187 189 195 190 180 163 140 118 101 96 96 97 101 104 106 105 104 104 104 105 78 41 40 47 135 146 195 206 200 199 188 170 146 128 170 187 190 163 170 175 170 175 152 135 139 168 174 186 187 180 180 149 86 43 8 13 16 25 26 35 43 49 88 95 81 71 57 56 54 52 50 49 48 45 43 39 41 42 44 43 37 34 39 34 34
75 82 100 123 137 141 141 140 136 127 115 107 103 99 97 97 101 103 107 109 109 108 109 109 105 83 36 39 44 64 109 195 196 191 190 170 155 119 158 188 197 199 191 177 172 182 182 179 140 122 150 165 175 185 178 180 146 76 27 5 17 13 20 30 39 41 52 72 98 87 73 69 66 63 59 58 58 56 52 49 49 45 44 44 40 36 34 34 31 30
77 77 84 92 94 95 98 98 101 100 99 99 98 97 97 98 102 104 108 110 111 112 113 114 114 81 42 35 35 28 58 186 196 195 181 163 104 136 133 113 128 140 136 150 133 124 162 182 181 136 133 156 162 178 180 177 120 36 15 11 9 12 25 30 41 49 52 60 96 95 80 79 76 73 68 66 66 65 61 57 53 52 54 54 50 48 45 37 35 34
84 84 87 88 86 88 92 93 97 98 100 101 100 98 99 102 104 106 110 113 115 116 118 119 119 87 38 31 34 40 43 154 188 191 175 160 86 45 83 139 156 115 82 82 77 65 66 70 69 92 92 147 171 169 182 168 75 17 17 12 9 16 23 32 36 56 45 56 81 96 91 87 87 84 80 78 77 75 71 69 64 62 59 54 51 53 52 47 40 38
87 87 87 88 89 90 92 93 95 94 94 97 99 100 102 103 108 110 113 117 119 121 123 124 116 95 38 30 25 32 34 104 185 191 180 158 95 79 90 189 206 212 213 198 196 175 205 163 123 50 100 158 159 177 175 167 41 20 23 11 14 17 16 32 36 47 48 53 65 96 103 100 96 95 93 90 87 84 80 78 76 74 71 68 65 61 56 52 47 44
89 89 88 88 87 83 84 89 91 93 96 99 101 102 106 110 112 114 117 120 122 125 126 127 127 89 37 25 26 34 30 71 172 184 179 168 111 123 66 66 86 196 228 221 225 219 204 170 50 90 134 163 171 171 169 121 30 17 23 16 12 15 20 26 42 33 62 50 59 99 113 113 108 109 108 106 102 97 93 91 86 84 80 79 77 69 63 64 54 51
86 86 85 83 82 83 85 88 90 92 96 98 101 104 108 110 114 116 121 124 124 127 131 130 131 89 42 26 27 25 38 27 149 184 184 172 132 192 123 79 102 135 86 78 80 95 71 62 87 150 157 174 166 171 166 73 13 10 15 19 15 15 20 22 35 47 42 64 55 67 112 118 121 120 119 115 118 112 102 102 97 94 90 87 84 80 74 70 63 59
82 82 81 80 80 81 84 87 91 93 97 100 102 105 109 111 116 118 122 125 126 129 132 130 125 95 53 34 23 24 42 29 66 182 177 185 153 195 173 105 129 163 155 158 153 122 85 108 165 180 176 173 170 171 129 32 10 9 11 13 13 16 20 23 26 38 42 57 50 55 74 122 135 129 129 122 128 116 122 106 107 104 101 98 94 90 84 79 73 69
77 77 78 78 78 81 85 88 93 96 100 103 106 109 112 115 120 122 126 129 129 132 134 132 121 92 72 54 29 26 37 38 22 132 184 189 179 200 215 175 111 109 114 114 115 97 105 170 200 181 182 179 171 155 42 11 10 12 10 9 11 15 18 22 26 33 43 46 60 61 50 63 132 134 136 139 128 140 122 124 117 114 110 107 103 99 93 88 79 74
74 75 76 77 79 83 88 91 96 99 103 107 110 114 118 120 126 127 132 134 134 137 138 134 115 94 94 66 31 31 30 39 27 52 162 191 197 202 208 209 153 112 101 89 86 104 148 201 194 185 183 176 165 79 18 16 14 19 15 8 10 12 14 19 19 22 36 31 51 52 76 49 59 118 143 145 139 136 139 129 124 121 117 113 109 104 98 94 88 83
71 73 75 78 81 86 91 95 99 102 107 112 115 119 123 126 131 133 137 138 139 142 142 136 108 110 101 57 24 29 35 31 42 29 112 182 194 207 203 203 200 180 174 174 165 175 188 190 193 193 192 170 121 32 22 14 15 21 16 8 7 8 11 18 22 16 26 29 44 44 98 81 53 78 124 144 144 144 134 140 131 128 123 119 115 110 104 100 95 90
71 74 78 82 86 91 96 100 104 107 112 117 121 125 129 132 136 138 142 143 144 148 146 139 111 119 82 43 27 19 43 38 33 41 105 161 181 208 217 202 199 198 182 182 179 185 190 191 200 190 177 152 90 33 10 15 16 18 14 7 4 5 11 18 16 11 10 16 27 36 70 78 80 67 82 143 146 146 146 140 137 133 129 124 121 116 110 105 99 94
75 79 84 89 94 99 103 107 112 115 120 124 128 131 135 138 141 144 147 149 150 154 151 143 123 113 67 35 39 14 32 44 19 35 122 154 159 188 209 201 204 205 192 191 190 188 190 196 196 176 145 127 107 24 21 22 25 19 13 7 3 4 12 17 15 22 16 11 16 32 62 89 69 61 90 111 145 154 154 140 141 137 132 128 124 120 114 110 105 101
81 84 90 96 101 106 110 113 118 121 126 130 133 136 140 142 146 148 151 153 154 158 156 147 131 109 70 26 41 18 13 34 38 31 116 161 130 162 192 206 208 198 198 198 195 193 196 196 174 141 135 133 113 34 17 11 36 23 14 9 2 5 13 16 16 16 10 9 18 24 59 80 94 83 67 94 148 158 147 150 144 140 136 131 128 123 117 113 107 103
83 88 94 100 105 110 115 119 124 127 132 135 139 142 145 148 147 153 158 157 154 162 166 149 117 104 57 35 48 25 15 30 40 40 136 182 157 128 132 183 190 192 190 192 194 190 180 166 151 142 146 139 112 41 14 11 39 13 13 15 6 2 11 23 24 6 17 15 11 35 41 72 87 108 57 90 135 158 145 149 145 142 138 134 130 125 120 116 109 104
88 92 99 104 109 114 120 123 127 130 134 138 141 144 147 150 155 155 156 160 163 165 156 129 139 114 43 56 53 84 49 37 36 42 150 183 175 159 163 152 151 154 155 160 159 153 150 145 143 146 153 140 108 40 14 12 15 4 9 13 13 5 16 37 26 17 13 16 15 31 42 61 79 105 56 98 115 140 152 150 146 143 139 135 130 125 119 116 110 105
91 95 102 107 112 117 122 126 131 134 138 142 144 147 151 153 158 158 160 165 166 167 163 145 134 90 63 68 78 103 98 51 44 54 140 197 180 173 167 160 156 142 124 120 122 127 139 144 149 155 155 138 109 47 17 12 12 11 16 14 16 6 14 59 38 20 8 28 32 24 33 44 68 84 42 96 129 129 131 145 148 145 141 137 132 126 120 116 111 106
93 98 104 110 114 119 124 128 134 137 141 145 147 150 153 155 157 161 164 167 165 167 175 172 166 119 74 54 65 81 82 57 58 56 123 192 195 176 177 183 165 152 134 131 135 138 143 142 159 157 148 134 111 53 20 12 14 15 19 13 13 12 17 93 73 27 19 32 33 13 24 41 75 84 51 73 140 150 137 142 148 147 143 138 133 128 122 118 112 107
97 101 108 113 118 123 128 132 137 140 144 147 150 152 155 157 161 163 164 168 169 169 174 171 174 172 168 145 84 73 74 73 72 49 79 178 188 193 180 182 181 172 152 141 141 148 160 163 159 155 147 136 107 48 17 13 13 12 17 15 9 18 14 105 98 29 27 25 25 8 21 41 81 83 57 65 130 156 145 131 146 146 143 138 133 129 123 118 112 107
98 103 109 115 120 125 130 134 139 141 146 149 152 154 157 159 164 167 165 168 172 172 175 173 177 172 172 136 83 64 65 59 57 59 59 93 171 188 186 192 186 182 169 162 161 163 167 163 158 161 157 138 93 36 14 13 14 13 20 25 15 21 9 79 130 48 26 25 30 12 19 41 81 95 57 71 120 145 139 128 143 144 142 137 132 128 123 118 112 108
98 102 109 115 120 125 131 135 140 143 147 151 154 156 159 162 163 169 168 170 172 173 178 178 176 163 117 79 68 59 39 57 41 57 61 59 81 145 184 181 182 181 173 172 170 166 164 158 160 163 150 115 63 27 18 12 8 12 18 30 26 23 15 43 118 77 27 30 31 17 26 42 77 112 86 72 92 126 140 139 142 144 142 137 132 128 123 117 113 108
98 103 110 116 121 127 132 136 141 144 149 152 155 158 161 163 164 171 169 171 174 173 171 166 128 92 81 68 54 43 45 49 44 59 58 52 46 56 95 154 164 169 170 171 163 152 154 156 158 154 127 80 34 23 24 12 8 13 14 27 28 16 15 10 18 66 26 33 27 25 37 34 56 78 106 85 61 82 119 135 143 145 144 138 133 129 123 118 113 109
99 104 110 116 122 127 133 137 145 144 150 153 153 160 165 161 166 167 171 176 173 156 127 105 71 62 53 49 52 52 46 38 52 57 59 55 48 45 47 49 88 114 139 149 148 145 137 127 114 89 56 36 30 29 24 18 12 10 16 26 27 17 10 12 13 14 23 27 29 33 35 41 37 51 60 90 100 78 70 117 137 137 147 139 135 127 125 121 114 109
101 105 111 117 122 128 134 138 139 148 150 155 162 156 156 172 168 172 171 156 127 92 63 48 53 50 47 46 49 51 49 44 49 53 55 52 47 44 45 46 42 47 50 53 58 63 57 47 42 39 35 33 32 29 25 21 18 13 11 13 13 8 7 11 8 8 16 21 26 31 31 36 45 49 56 76 80 76 75 77 126 144 140 135 135 132 124 114 114 109
102 106 113 119 124 129 135 139 145 150 153 152 156 164 163 153 145 133 109 81 57 44 44 48 46 47 47 47 48 50 49 48 47 50 52 49 46 44 44 43 42 41 38 36 37 39 37 33 33 34 35 32 29 26 27 29 22 17 13 13 12 10 8 8 7 5 11 16 22 28 27 29 34 44 59 78 90 96 94 54 97 142 140 137 133 130 125 118 114 109
103 108 114 120 125 130 136 140 145 147 151 152 156 159 129 80 58 54 50 47 46 46 45 45 46 47 50 49 49 49 50 49 48 50 51 49 47 46 44 42 39 41 43 42 38 36 36 38 40 38 36 34 32 30 28 27 24 23 21 20 20 18 14 10 11 7 11 13 19 23 22 25 23 39 47 58 85 102 115 68 80 128 142 141 133 127 125 122 114 109
104 109 115 121 125 131 137 141 146 152 152 159 165 136 86 55 54 52 50 47 44 43 43 43 44 45 47 47 48 50 52 52 50 51 51 50 49 47 45 42 40 39 37 37 37 37 36 37 35 34 32 32 34 33 30 27 28 26 22 20 20 21 18 14 13 9 11 11 13 17 17 22 26 36 35 37 65 97 129 79 95 115 138 139 137 130 124 117 113 109
105 109 116 121 126 131 137 141 141 147 152 149 129 93 64 52 43 42 41 41 40 41 45 48 43 44 45 46 48 52 53 53 52 53 52 50 49 48 46 43 44 40 39 39 40 39 38 38 40 39 36 34 33 33 33 32 28 27 24 21 21 21 19 16 13 10 11 9 8 11 12 17 26 28 33 36 54 96 135 75 111 114 134 135 137 131 125 119 113 108
106 110 116 122 127 132 138 142 146 152 154 130 91 70 58 42 47 45 42 40 40 41 41 41 44 45 47 48 50 52 53 53 53 54 53 51 50 50 48 45 44 44 45 45 43 40 40 40 37 38 40 40 38 35 33 31 29 29 28 27 26 25 22 20 17 14 14 11 9 10 9 13 19 17 23 29 41 76 111 66 110 124 131 132 133 128 125 122 112 108
107 111 117 123 127 133 138 142 147 151 127 87 67 62 54 45 43 43 42 39 39 39 41 45 43 45 47 49 51 53 54 54 54 54 54 52 51 51 50 48 47 47 46 45 45 45 44 43 41 41 40 39 38 36 35 33 32 31 29 28 27 27 28 28 24 19 19 15 13 12 8 11 10 14 17 26 39 51 70 51 106 135 128 130 131 128 123 117 112 107
107 110 120 124 127 135 139 142 145 150 99 72 61 54 53 42 41 42 42 40 40 40 42 45 45 46 48 49 51 53 54 55 54 54 54 53 51 49 47 46 46 46 46 45 45 44 44 44 41 41 40 40 39 38 38 36 36 35 33 32 31 31 31 30 30 29 25 21 17 15 15 15 13 13 19 29 35 36 42 51 65 105 119 124 131 128 123 115 111 106
106 110 117 122 128 135 139 142 150 113 73 62 56 51 47 44 40 41 41 40 40 40 42 45 45 46 47 49 51 52 54 55 53 53 52 51 50 49 49 48 46 46 45 45 45 44 44 44 42 42 42 42 41 41 41 41 39 38 36 35 35 34 34 33 33 32 30 27 24 21 20 20 16 15 19 26 29 31 39 50 79 76 72 91 122 127 123 123 112 107
107 112 116 122 130 135 139 143 146 77 56 55 50 48 43 42 39 40 40 40 40 41 43 44 45 46 47 49 50 52 53 54 54 53 52 50 49 49 50 50 48 48 47 47 47 46 46 46 43 43 44 45 45 45 44 44 42 41 39 38 38 37 36 36 35 35 35 33 31 29 27 26 23 21 22 25 26 28 37 49 113 144 123 89 83 126 130 113 113 108
108 115 116 122 129 133 138 142 118 59 54 52 47 46 42 39 39 38 38 39 41 42 43 44 46 46 47 48 50 51 52 53 55 54 52 50 49 49 49 49 49 49 48 48 48 47 47 47 45 46 46 46 46 45 44 43 44 43 41 40 39 39 38 37 38 38 37 37 35 34 32 31 31 28 27 28 28 30 38 46 68 153 145 128 68 117 122 120 113 108
105 113 114 120 126 130 138 137 80 50 49 46 45 42 42 39 38 38 38 40 42 43 44 44 46 46 47 48 49 51 52 52 53 53 52 51 50 49 49 48 47 47 47 47 47 46 46 46 46 47 47 47 46 45 44 43 44 43 42 41 41 41 40 39 39 39 38 38 37 36 35 35 36 33 32 33 34 35 38 42 56 117 156 140 117 86 123 120 113 108
103 111 113 120 124 130 138 127 60 46 41 40 43 38 36 37 37 37 39 41 42 44 44 44 46 47 47 48 49 49 50 50 50 50 51 51 51 50 49 49 47 47 47 47 47 47 47 47 46 47 47 47 47 47 46 46 45 44 43 43 43 43 42 41 41 40 39 39 38 38 38 37 36 35 33 34 36 37 38 38 45 95 143 140 124 85 121 117 113 108
102 109 111 120 122 129 133 108 51 42 38 37 36 38 34 37 36 38 40 42 43 44 45 45 47 47 47 48 48 49 49 49 49 50 50 50 50 50 49 49 48 48 48 48 48 48 48 48 47 47 47 47 47 47 47 47 45 45 44 44 44 44 43 42 42 41 40 40 39 39 38 37 35 34 33 33 34 36 37 38 40 70 137 143 135 85 110 112 112 107
101 105 108 117 118 125 125 90 41 37 39 34 31 41 34 38 36 38 40 42 43 44 45 46 47 47 47 48 48 49 49 49 51 51 50 49 49 49 48 48 47 47 47 47 47 47 48 47 47 47 47 46 46 46 47 47 45 44 44 44 44 44 43 43 42 41 41 40 40 39 37 36 34 33 32 31 31 34 37 39 44 54 120 138 135 98 105 114 111 106
99 103 107 112 117 122 124 71 39 36 34 34 33 32 34 35 36 39 39 41 45 45 45 47 47 47 47 47 47 48 48 49 50 50 50 50 49 48 47 47 47 47 48 48 48 48 47 47 47 47 47 47 47 46 46 46 47 46 45 45 44 44 44 44 43 42 41 42 41 39 38 39 32 31 30 31 31 31 33 36 39 47 99 138 129 114 99 115 109 105
96 101 105 111 116 121 117 61 38 35 33 33 32 32 33 35 37 39 40 42 45 47 46 47 46 46 47 47 47 48 49 50 49 49 49 49 49 48 47 47 47 47 48 48 48 48 47 47 47 47 47 47 47 47 46 46 46 45 45 44 44 44 44 44 43 42 43 43 42 39 37 36 32 31 30 31 31 30 32 35 37 41 85 136 131 111 95 111 108 103
93 99 103 109 114 120 107 47 37 34 32 31 31 31 33 35 38 39 40 41 45 47 48 46 46 46 47 47 47 48 48 49 48 48 48 49 48 48 47 47 47 47 48 48 48 48 47 47 47 47 47 47 47 47 46 46 45 45 44 44 44 44 44 44 44 44 44 45 43 40 36 34 31 30 30 30 30 30 31 33 36 39 68 130 131 115 101 111 107 103
92 99 101 107 113 120 99 37 36 33 31 30 30 31 33 35 38 37 39 40 45 48 49 46 47 47 47 47 47 47 47 47 47 47 47 48 48 47 47 47 47 47 48 48 48 48 47 47 47 47 47 47 47 47 46 46 44 44 44 44 44 44 44 44 45 45 45 45 44 40 36 32 31 30 30 30 29 30 31 32 35 41 55 118 128 123 114 112 106 102
93 99 101 107 113 120 94 34 34 32 30 30 30 30 32 34 36 33 35 40 44 48 50 45 48 48 47 47 47 47 47 47 46 46 47 47 47 47 47 47 47 47 47 48 48 47 47 47 46 47 47 47 47 46 46 46 44 44 44 44 44 44 44 44 45 45 44 44 43 40 36 32 30 30 30 30 29 29 30 31 34 39 44 110 127 124 117 112 105 100
93 98 100 107 112 119 89 34 33 31 30 30 30 30 31 33 34 29 33 40 45 48 50 46 46 46 47 47 46 47 47 47 46 46 46 47 47 47 47 47 47 47 47 47 47 47 47 47 46 47 47 46 46 46 45 45 44 44 44 44 44 44 43 43 45 45 44 43 43 40 35 30 29 30 30 29 28 29 30 30 33 35 38 108 129 119 112 110 105 101
92 97 99 107 111 117 84 33 32 30 30 30 30 29 29 31 32 26 31 41 46 49 51 47 46 46 46 46 45 46 46 46 46 46 46 47 47 47 47 47 47 47 47 47 47 47 47 47 47 46 46 46 46 45 44 44 44 44 44 44 44 43 43 42 44 45 45 44 43 40 34 29 28 29 29 28 27 28 29 29 32 32 38 101 127 115 110 109 104 100
91 95 98 107 109 114 80 32 31 29 29 30 30 28 28 29 31 24 29 42 47 49 51 48 47 46 47 46 44 44 44 44 47 47 47 46 47 47 47 47 47 47 47 47 47 47 47 47 47 46 46 46 45 44 44 43 44 44 44 44 43 43 42 41 43 44 45 45 44 40 32 26 26 28 28 27 26 28 28 28 29 31 38 91 120 113 111 107 101 96
90 95 99 103 109 114 73 30 28 29 29 28 28 29 28 26 24 24 28 38 49 52 49 48 47 45 45 45 44 44 44 44 45 45 46 47 47 46 47 48 47 45 47 48 46 47 48 46 47 46 45 44 44 44 44 44 43 44 42 41 41 40 40 43 45 44 45 44 43 42 33 25 27 26 26 26 27 28 28 28 30 32 35 88 116 110 107 101 98 93
89 94 98 102 108 112 72 29 27 27 27 27 27 28 26 24 23 22 28 38 49 51 49 48 47 45 45 45 44 44 44 44 45 44 45 47 47 46 46 48 47 45 47 48 46 47 48 46 47 46 45 44 44 44 44 44 43 44 43 42 42 40 40 43 44 44 45 44 42 41 32 24 25 25 24 25 26 27 27 27 29 31 33 87 115 108 105 100 96 92
