P2
90 90
255
53 49 52 46 45 63 69 74 89 84 103 82 52 65 72 72 71 74 46 43 48 45 47 47 51 49 52 52 58 48 44 51 58 59 62 42 46 44 46 68 98 57 79 78 65 70 111 103 71 97 128 145 143 121 129 171 175 163 161 176 187 189 183 186 182 182 187 191 187 194 192 189 188 182 179 176 177 177 175 175 179 186 183 175 177 173 180 179 182 186 
49 45 49 45 60 68 71 68 71 66 97 99 67 90 80 68 51 43 43 47 55 46 49 45 45 46 46 48 51 49 54 51 48 49 45 41 37 37 43 61 89 62 67 79 94 78 95 93 57 84 125 119 124 119 136 143 151 149 159 173 187 187 184 185 175 180 189 191 184 190 189 185 182 177 173 180 172 173 168 181 188 186 175 176 182 182 181 177 186 185 
48 55 55 53 65 71 82 69 53 64 97 105 96 91 98 78 51 52 55 46 47 44 48 49 47 47 51 54 49 56 52 47 51 42 49 51 38 42 42 54 82 71 84 109 112 85 86 92 57 79 107 110 120 125 141 144 153 162 169 176 188 189 185 180 177 185 186 188 185 190 185 183 176 175 183 175 173 169 176 186 184 179 179 181 177 180 186 183 187 184 
56 64 55 52 60 72 87 61 40 53 106 111 115 106 91 75 41 40 41 46 47 54 48 51 47 52 49 48 46 54 61 52 44 46 47 45 46 42 44 66 96 91 107 124 106 89 89 97 65 94 139 145 134 144 166 163 169 172 179 184 181 186 183 183 187 190 191 192 187 189 183 175 174 179 181 169 172 175 180 182 177 181 183 186 182 186 187 182 182 174 
73 63 61 40 55 78 84 58 38 56 116 94 124 123 97 90 52 41 44 43 48 60 46 45 46 49 48 55 49 48 60 48 42 42 44 41 39 42 44 66 98 111 136 110 90 87 91 99 81 118 172 166 136 162 188 182 179 175 184 190 183 182 185 187 189 193 194 194 189 186 179 180 180 171 169 171 176 179 182 179 185 186 181 185 187 186 181 174 173 166 
79 63 58 37 58 77 81 64 41 45 96 92 126 132 112 96 54 41 46 48 52 45 49 49 49 54 49 45 43 49 53 43 47 34 40 45 39 56 62 85 114 142 121 89 74 87 96 112 105 128 183 159 139 171 195 189 188 181 186 189 188 188 189 192 195 198 195 192 189 188 181 179 171 168 165 175 174 174 180 180 183 185 184 190 182 180 184 176 161 162 
92 70 41 45 57 73 83 57 36 47 61 93 122 137 129 114 78 42 44 44 49 46 51 58 48 44 42 42 41 44 45 41 42 35 36 37 40 55 94 109 115 126 110 82 81 97 115 141 134 129 184 156 138 185 189 186 188 184 188 185 188 193 188 194 196 194 191 187 187 183 175 174 166 167 169 170 172 172 172 170 176 184 188 188 182 179 176 168 159 163 
99 61 44 47 55 74 88 68 40 40 46 72 121 120 131 133 102 59 43 42 45 46 46 49 51 54 43 48 44 46 35 35 34 36 39 41 56 98 123 129 113 121 95 80 93 122 153 169 144 125 184 158 151 190 188 186 189 186 190 189 190 193 194 193 196 193 188 187 186 177 171 170 168 166 166 165 172 169 172 177 177 185 192 186 181 179 172 159 160 168 
99 80 43 39 48 65 90 83 38 43 44 59 94 107 129 146 138 94 71 64 56 47 47 42 48 42 43 39 42 36 34 35 37 41 38 47 98 132 154 126 107 109 98 94 122 155 187 180 139 123 171 164 172 195 189 185 186 187 188 187 192 195 199 197 197 197 192 187 183 176 168 171 160 161 168 170 171 174 177 179 183 188 189 185 183 171 168 160 164 171 
92 78 62 44 46 59 103 85 37 36 42 57 51 86 118 141 140 111 108 97 98 94 73 54 36 35 38 43 37 34 38 37 37 34 52 93 136 161 155 120 93 86 105 121 156 186 189 170 142 123 146 155 179 193 193 189 182 188 193 192 194 199 200 200 199 195 188 185 173 174 170 170 167 167 167 171 170 176 182 179 187 190 189 185 179 172 170 166 171 176 
89 87 70 58 41 59 108 86 36 35 45 59 44 61 102 149 139 102 89 83 104 113 102 90 52 38 34 42 35 36 31 34 40 46 82 138 164 168 135 105 95 102 129 164 187 176 167 170 146 126 128 139 182 196 193 181 182 187 187 198 199 198 198 200 197 188 181 175 171 168 171 168 164 162 166 165 171 175 179 188 192 189 185 183 168 163 164 168 173 180 
75 77 70 65 49 71 103 92 43 45 62 62 45 52 84 147 137 90 51 63 65 77 67 63 47 42 38 37 36 35 32 33 42 88 134 160 166 140 118 112 108 123 164 191 187 165 172 168 158 132 128 146 166 194 193 184 187 172 189 195 202 195 195 196 190 188 179 176 179 167 170 168 166 166 164 164 173 183 187 189 194 184 183 164 158 160 168 173 174 173 
68 70 67 68 60 65 99 90 44 46 64 65 57 62 89 150 147 93 41 40 44 44 44 42 38 37 43 33 31 30 33 37 75 138 170 162 141 116 111 118 137 166 192 195 173 169 170 169 168 139 132 136 158 182 187 188 180 169 185 200 199 190 192 185 194 186 174 172 171 166 173 166 170 166 170 169 181 182 186 194 188 171 161 162 161 168 172 179 177 179 
62 70 59 66 80 72 91 82 41 43 78 61 54 45 91 140 142 97 40 42 39 36 46 40 36 36 33 30 31 31 39 67 119 169 177 141 117 107 119 139 165 189 197 180 171 170 171 170 169 145 139 133 161 171 169 177 177 168 183 198 197 189 180 179 195 180 173 180 175 175 176 167 173 166 174 168 181 183 189 188 163 147 159 165 172 170 175 183 180 182 
60 67 55 54 74 88 96 83 51 56 99 60 44 46 65 115 147 116 44 46 42 36 39 38 34 35 34 31 33 38 56 115 157 173 147 119 106 118 136 165 187 198 184 174 170 170 169 171 165 147 136 141 169 174 169 163 164 174 189 199 193 188 179 189 187 177 177 177 174 175 177 172 174 170 176 173 185 186 181 162 142 153 162 164 172 171 173 176 180 182 
67 59 56 54 70 93 99 103 60 68 110 57 45 48 53 83 149 133 57 42 46 43 38 37 33 36 32 34 36 53 110 160 166 147 124 111 109 130 162 187 187 177 177 171 171 172 171 173 169 154 137 146 173 182 179 168 164 183 193 199 197 195 190 189 184 173 172 173 174 176 177 177 175 176 179 180 177 173 161 151 155 168 166 167 175 174 177 180 181 181 
65 59 52 51 56 82 103 114 106 95 126 65 56 45 52 61 132 142 72 38 36 40 32 35 36 40 36 42 44 102 150 171 154 134 120 117 128 166 187 192 171 181 180 174 174 167 174 173 175 155 139 146 175 189 183 174 172 182 191 195 199 205 191 191 181 172 175 176 175 176 180 176 177 180 175 182 166 156 151 154 161 169 171 170 175 172 180 176 183 183 
61 57 57 54 51 65 100 118 109 123 131 82 65 43 55 55 107 141 91 41 33 37 32 35 35 30 37 55 95 150 174 154 137 128 122 129 155 190 191 176 175 189 185 180 175 171 168 183 169 153 143 147 175 187 180 177 182 181 192 197 202 198 193 189 177 172 177 177 173 177 180 174 174 177 170 166 154 151 153 157 162 170 171 175 177 174 177 180 186 189 
60 46 59 58 53 73 74 106 111 115 125 92 79 61 60 45 96 158 109 66 37 31 28 32 30 38 46 92 136 166 156 137 128 119 128 151 187 197 176 176 182 191 192 180 180 175 174 177 180 159 142 149 172 173 172 172 188 193 195 197 198 204 197 186 176 170 174 179 173 173 175 172 168 171 158 150 155 161 162 162 165 172 171 174 172 174 177 180 188 190 
49 46 49 62 78 89 75 92 94 71 107 105 97 85 86 63 108 169 144 115 55 34 30 29 33 41 84 138 157 161 133 124 117 126 147 182 199 189 172 180 192 187 192 183 184 182 186 185 183 167 145 148 170 172 171 174 183 189 199 206 205 210 197 183 173 172 179 180 176 171 167 168 170 163 154 150 160 161 166 165 167 171 176 176 177 176 174 176 187 191 
55 38 37 46 73 109 93 80 104 61 78 91 99 96 88 89 122 172 142 96 39 30 31 33 43 71 122 159 160 135 124 126 123 133 176 196 189 170 175 179 192 186 191 193 189 187 177 188 186 158 150 151 158 172 165 168 180 189 201 208 206 202 189 179 170 173 174 174 169 165 167 171 154 151 157 160 162 165 165 169 167 171 180 176 175 172 180 184 188 186 
58 38 39 45 57 111 95 61 106 69 67 84 73 56 52 53 81 160 140 84 43 30 33 33 67 124 143 175 138 124 115 122 133 167 189 185 176 175 175 181 195 191 194 196 187 187 179 189 185 153 159 147 154 172 165 169 184 192 205 206 204 194 180 176 167 171 172 167 169 171 173 157 154 160 160 164 160 170 167 174 170 174 176 179 181 176 179 185 188 190 
57 48 40 45 57 108 99 46 77 84 78 74 48 40 35 37 47 114 150 108 47 28 34 54 109 143 168 143 123 125 117 126 156 193 176 172 171 177 180 177 186 198 200 195 192 192 187 191 182 142 158 139 143 175 170 177 187 194 205 208 199 185 179 173 168 166 164 167 176 169 163 157 159 161 167 166 161 169 171 174 176 177 180 176 180 176 182 177 184 195 
61 41 47 46 53 85 88 43 53 79 84 66 43 40 36 33 44 71 153 128 77 32 45 105 140 166 148 125 122 131 132 154 184 176 163 173 173 182 183 181 182 195 201 194 190 193 192 192 177 144 160 129 141 182 177 183 192 198 204 199 189 182 175 170 166 162 161 175 167 153 163 164 165 163 175 163 166 173 174 175 177 180 180 179 180 180 185 183 181 191 
81 47 49 57 49 46 68 46 54 81 86 64 36 35 31 33 37 53 118 139 93 49 87 134 164 153 129 115 122 125 148 189 174 163 167 171 171 176 182 186 186 193 197 193 191 194 194 193 181 151 159 122 133 179 177 190 199 200 197 191 175 176 166 162 159 161 167 170 159 159 161 159 166 166 166 169 167 174 175 180 180 179 180 179 185 180 184 183 182 185 
95 52 46 56 39 44 48 64 55 82 104 64 36 32 34 32 33 45 82 130 107 97 118 160 165 140 119 115 125 137 177 182 168 169 167 163 172 171 176 188 188 196 194 192 189 197 194 191 184 165 158 119 129 173 181 193 201 198 189 181 172 167 166 159 156 161 156 160 160 161 158 161 167 170 167 168 170 175 176 180 175 175 177 181 183 183 185 182 189 188 
93 49 54 51 37 40 53 72 54 81 126 86 33 33 36 31 31 32 51 100 106 146 147 166 140 129 110 119 140 169 184 171 166 169 166 162 168 167 170 182 186 199 194 192 191 194 190 193 192 181 169 143 136 176 183 190 201 191 181 173 172 165 162 163 162 160 158 163 165 165 165 164 169 166 167 171 170 177 176 181 181 177 179 179 182 181 182 186 185 186 
77 61 64 58 41 51 53 47 46 103 144 99 42 31 31 29 32 34 41 64 111 147 156 137 126 116 114 139 172 195 180 162 163 168 166 164 167 167 171 179 182 194 195 192 194 194 193 194 193 185 180 149 147 177 187 194 189 173 174 172 171 166 163 160 161 161 166 171 171 168 164 163 169 167 171 167 174 174 182 177 182 180 180 183 182 181 185 187 187 185 
72 84 90 58 66 70 48 40 63 124 116 67 49 36 30 30 33 33 51 86 117 121 130 112 100 110 135 164 186 180 167 163 166 166 166 164 166 168 167 172 179 194 193 196 196 187 190 192 190 187 179 162 167 187 191 187 179 169 172 172 169 160 159 159 162 167 171 174 169 168 169 168 164 170 174 172 172 174 179 183 179 181 179 181 182 182 184 187 187 183 
64 95 95 60 60 60 41 44 96 121 63 41 45 41 37 33 42 44 74 124 139 121 104 94 105 124 159 193 182 167 166 169 169 171 168 162 163 165 168 171 181 194 197 200 194 190 187 195 190 191 185 176 181 191 187 177 175 172 171 173 161 158 159 167 169 174 168 169 171 171 169 167 171 168 174 173 173 177 177 187 185 180 183 182 182 184 184 184 186 181 
65 96 117 63 55 43 45 67 129 60 42 36 45 54 46 33 34 63 121 145 149 109 89 92 116 148 191 191 165 166 172 173 170 173 175 171 163 165 167 174 183 197 197 196 196 193 188 199 192 190 180 181 185 189 182 180 185 173 163 155 154 157 165 165 166 169 169 173 170 170 172 170 172 175 173 175 176 177 181 182 186 183 184 182 184 185 184 184 182 183 
57 103 120 62 42 39 45 95 107 42 44 48 58 52 38 36 47 103 146 159 119 97 92 107 153 186 192 179 166 174 172 182 177 180 175 171 165 166 164 174 184 195 197 197 193 193 191 197 195 189 184 189 185 182 186 177 167 144 129 138 144 151 156 156 163 164 167 166 169 170 174 169 173 181 174 173 181 182 181 184 183 185 183 186 188 188 183 187 184 182 
61 109 102 63 38 36 59 110 66 44 54 65 56 47 47 43 90 135 172 142 99 94 102 139 187 201 182 168 171 183 179 186 185 181 170 171 160 163 165 174 187 190 197 196 196 192 198 196 192 187 192 186 188 188 171 140 110 103 108 128 128 142 143 147 153 154 159 166 168 170 171 170 173 174 171 180 184 181 184 181 183 185 185 187 184 182 184 182 182 181 
86 104 112 61 36 37 77 113 66 70 82 60 40 34 42 71 130 163 157 120 93 103 128 175 205 192 170 174 173 176 185 185 190 177 171 159 161 156 163 173 185 191 199 199 198 197 205 197 197 198 194 188 190 169 113 79 74 85 105 120 114 125 124 139 142 146 153 149 153 159 157 164 170 176 176 180 181 175 184 186 183 186 188 187 182 185 180 179 182 183 
105 87 112 58 42 52 94 94 56 52 47 41 30 36 60 125 145 165 124 98 103 116 156 205 192 175 177 171 173 183 191 192 190 177 169 159 160 155 161 169 186 196 202 200 199 201 205 198 196 194 192 182 142 82 70 73 86 92 96 104 110 113 107 119 125 130 131 129 137 140 143 153 157 163 172 171 179 183 181 187 186 186 189 187 187 185 181 184 185 181 
98 74 111 64 48 53 99 68 44 38 32 29 35 43 112 144 159 135 102 95 112 147 187 200 176 171 179 180 185 185 197 198 194 179 159 163 158 161 164 181 190 196 199 201 202 205 204 199 198 197 175 124 88 86 89 91 98 99 98 106 103 94 99 108 104 103 88 105 113 119 126 130 140 148 162 169 171 179 182 186 185 189 189 187 183 184 185 183 182 182 
89 52 108 81 39 48 95 55 31 40 39 33 43 79 137 172 136 111 94 103 141 183 196 179 173 175 177 181 187 190 196 201 194 175 157 160 158 164 165 189 194 196 196 201 204 201 199 200 199 164 121 105 107 112 121 124 123 122 120 111 106 99 107 104 94 85 80 90 87 96 106 111 118 129 138 150 157 164 172 180 183 192 188 188 183 177 184 185 183 184 
98 46 93 86 37 45 87 49 33 39 37 36 64 121 157 164 113 93 98 128 175 190 179 171 179 179 187 184 190 198 200 202 187 170 160 162 158 165 174 189 194 193 195 200 201 200 200 192 158 124 122 125 134 142 149 143 146 145 141 131 124 120 114 110 103 93 82 65 64 70 72 77 78 91 109 115 126 146 163 170 173 183 185 183 182 182 184 186 186 187 
103 41 77 94 44 57 80 42 34 30 47 60 113 145 164 133 104 100 124 161 198 183 166 176 182 183 190 192 192 202 207 196 181 160 156 160 162 176 179 194 195 193 205 202 201 198 191 150 126 130 136 141 148 155 160 156 155 157 156 154 150 145 136 130 120 108 95 78 69 60 71 63 63 70 79 90 96 116 137 146 161 173 175 182 183 180 180 187 182 181 
100 37 53 96 59 47 65 36 41 39 43 83 138 168 148 118 103 118 160 197 196 172 164 175 181 185 191 194 200 206 204 185 171 160 154 162 170 175 186 194 196 199 204 201 196 183 141 121 124 136 143 150 150 158 158 159 157 150 163 168 161 156 155 147 133 125 112 99 96 85 71 79 68 67 65 59 71 82 91 106 133 156 165 175 181 176 174 179 176 174 
86 38 46 94 91 48 43 33 30 36 59 120 160 173 140 114 107 147 189 201 179 171 176 177 187 186 197 201 206 206 198 177 168 156 156 167 174 185 194 197 202 204 206 200 176 129 120 123 125 138 142 147 157 157 159 155 145 128 156 163 165 169 165 160 143 138 130 131 119 100 102 90 86 73 74 70 64 64 67 81 94 124 141 155 167 173 177 172 176 170 
84 37 44 75 94 40 33 30 32 51 102 147 172 155 134 117 135 173 201 190 166 172 177 182 186 190 194 206 205 202 193 172 155 159 158 174 176 193 197 199 204 206 199 163 115 114 126 135 134 135 137 141 150 150 146 151 142 120 126 148 170 168 166 161 148 131 134 142 130 94 109 93 97 88 86 81 78 81 74 80 81 99 122 140 156 170 175 173 171 174 
113 67 43 51 48 34 31 33 34 77 126 164 147 128 118 133 168 198 191 173 173 175 177 185 189 195 200 206 205 198 187 174 160 166 162 183 187 197 204 206 206 195 154 112 115 117 123 131 130 126 128 143 140 138 136 142 134 118 82 128 161 162 160 162 141 117 137 142 121 95 113 104 110 103 96 89 96 93 84 92 94 102 114 123 147 162 169 168 168 169 
85 100 63 41 34 38 33 33 56 126 156 158 117 113 123 164 194 200 173 169 179 179 181 190 198 199 201 207 204 194 177 168 167 167 171 189 193 200 207 209 190 135 104 100 112 117 117 118 123 121 122 130 124 119 128 132 113 90 53 92 133 155 151 143 119 99 122 129 94 91 116 118 128 116 108 104 113 103 95 103 99 107 112 125 138 157 160 161 160 162 
45 61 88 39 29 31 34 46 100 153 167 119 108 110 145 192 199 183 170 177 173 183 192 194 200 202 210 208 201 191 183 174 173 172 185 193 194 204 211 185 120 88 104 98 108 112 111 105 96 97 102 106 105 109 111 109 90 64 47 70 114 150 136 128 86 69 104 115 74 108 114 128 130 110 97 121 120 115 112 117 116 106 112 125 133 143 151 161 163 159 
39 40 70 64 31 30 35 64 135 168 145 109 109 129 182 205 188 169 176 173 180 182 193 198 204 208 208 210 199 188 185 174 180 180 189 196 206 210 181 104 86 88 98 102 98 104 107 104 99 77 77 74 68 83 74 82 60 56 48 58 83 108 97 77 48 47 68 70 66 88 116 126 132 89 104 132 122 126 121 119 120 120 123 125 133 139 144 153 158 161 
36 35 40 62 34 34 41 115 148 164 123 104 114 167 197 191 173 175 176 182 181 189 196 201 209 211 210 207 195 192 188 177 184 189 198 205 212 172 97 82 84 82 97 90 80 70 72 90 87 66 65 68 63 57 60 57 54 51 44 52 54 61 56 57 48 44 47 49 48 59 86 128 104 99 124 140 133 129 124 126 128 129 123 125 136 141 143 148 155 160 
36 39 32 37 35 41 81 149 166 140 113 106 145 194 198 172 177 176 180 182 186 193 200 206 210 206 209 201 194 192 193 189 188 197 204 208 164 93 73 82 89 79 82 74 73 61 54 61 66 57 56 58 55 52 56 51 51 54 53 54 55 52 51 46 44 45 44 41 40 44 56 71 79 109 142 145 140 132 132 125 137 135 130 125 141 141 140 150 150 156 
44 52 30 31 31 59 125 167 159 132 112 130 175 210 187 173 180 185 182 183 190 194 202 206 211 205 201 197 191 189 192 186 194 205 207 162 82 68 73 72 72 70 69 65 59 54 52 55 54 52 53 54 51 52 47 51 48 47 51 61 49 57 58 55 66 44 47 41 39 46 43 43 58 97 135 143 146 135 135 131 136 130 130 136 134 146 144 145 147 150 
38 43 27 32 39 93 150 179 122 107 126 159 200 201 172 171 177 183 179 188 186 192 204 207 210 202 199 201 192 194 197 191 201 205 168 90 71 67 66 77 62 55 56 58 55 51 54 53 53 59 52 47 52 53 46 47 46 47 44 53 56 65 87 73 56 52 47 41 47 40 41 48 41 56 90 114 135 141 141 134 132 136 126 131 135 134 145 148 142 150 
39 35 33 36 70 133 167 155 104 103 148 192 205 182 172 170 177 184 182 190 191 199 202 212 208 202 200 198 195 198 197 196 204 173 97 75 66 67 68 68 60 55 52 47 49 54 54 52 55 57 53 55 46 43 43 46 46 48 48 81 68 100 122 114 95 72 59 47 42 39 48 42 40 47 62 88 119 134 143 140 139 136 130 135 134 137 145 146 147 157 
38 34 33 52 110 151 173 117 99 131 179 208 195 172 175 175 177 182 186 191 191 201 209 211 208 200 204 196 197 202 200 205 171 91 69 78 75 64 61 68 53 48 48 54 48 48 49 48 57 47 53 49 46 44 46 48 44 52 57 71 93 142 167 156 146 107 81 57 43 41 42 44 39 42 46 69 103 120 136 141 136 134 131 133 135 140 142 142 142 148 
34 32 38 85 144 165 138 106 106 150 201 206 176 179 172 182 185 180 188 188 187 204 208 210 202 206 204 199 196 198 208 180 100 70 74 83 77 77 71 59 42 47 49 49 51 49 54 54 47 43 55 51 51 41 47 48 77 64 70 97 132 168 199 199 182 154 122 102 60 43 39 38 41 43 45 52 83 114 134 139 133 131 129 132 131 139 140 138 145 145 
32 34 51 117 158 162 110 99 124 183 208 183 170 174 179 186 187 181 188 190 189 210 212 208 206 200 205 205 205 202 182 109 78 83 89 88 78 71 62 52 43 42 42 52 54 63 79 68 43 47 63 61 46 40 36 40 89 89 66 89 124 180 209 211 197 183 169 160 100 72 44 45 60 78 77 65 81 112 128 135 129 125 122 124 132 141 138 143 142 150 
34 37 84 145 166 131 99 112 162 205 196 170 179 181 184 189 185 184 189 191 202 214 210 208 206 199 207 205 211 190 111 83 84 91 88 81 69 58 51 56 44 42 44 53 66 84 92 83 52 62 82 81 49 38 36 39 56 93 67 52 74 169 212 211 207 199 198 192 144 110 74 61 63 107 111 86 77 103 126 129 124 125 122 125 132 139 134 138 143 144 
58 61 119 157 147 106 96 146 201 209 187 170 182 189 185 191 192 191 190 198 211 214 209 206 207 209 202 208 196 126 83 94 96 89 83 70 57 58 54 54 43 46 53 58 71 94 106 92 51 59 96 95 79 47 40 42 69 116 80 57 68 163 211 211 206 206 206 199 179 148 103 73 70 96 135 113 86 94 119 126 120 120 116 119 140 135 137 141 143 141 
75 100 142 163 120 98 119 176 213 198 175 169 180 176 184 193 188 195 195 208 208 210 206 205 211 209 208 201 145 96 100 110 105 99 89 85 66 56 53 51 51 46 47 68 73 98 118 110 72 54 95 102 92 73 67 68 93 112 77 54 90 183 215 212 212 214 211 208 198 177 133 91 72 91 128 124 96 92 111 122 118 116 116 118 123 128 133 138 139 140 
77 109 137 117 88 111 153 196 198 173 167 158 155 159 174 180 186 196 202 210 210 210 204 199 206 207 206 153 109 102 106 119 114 109 94 87 84 80 69 61 46 43 46 70 77 95 120 125 102 69 59 86 100 87 87 94 86 73 59 67 130 204 217 214 215 218 212 213 207 190 155 113 79 72 111 131 110 94 98 115 115 112 116 121 125 126 128 134 137 142 
92 123 118 84 95 129 157 184 163 153 156 151 158 168 176 186 194 201 205 208 209 207 205 202 201 201 157 107 112 104 119 123 126 120 114 104 99 99 88 81 56 48 53 70 85 92 111 132 118 90 60 62 82 88 92 82 78 56 67 117 180 215 218 217 218 218 212 214 209 190 164 126 96 86 102 131 121 105 100 110 114 115 121 117 122 124 131 131 138 141 
129 143 106 83 105 143 172 168 150 157 168 173 176 194 191 200 206 204 207 206 204 202 200 206 202 158 112 103 116 117 125 130 134 129 119 121 124 114 105 100 78 51 44 53 69 95 109 118 130 116 91 63 59 56 62 59 65 80 111 165 205 215 214 216 215 217 210 207 199 182 164 136 119 99 105 129 130 120 105 114 118 122 129 120 116 126 132 133 137 141 
154 128 86 88 131 183 191 164 159 174 183 185 186 194 197 202 206 209 210 202 205 202 205 201 165 112 107 117 121 122 121 132 135 137 135 129 135 128 121 112 90 67 48 48 74 103 117 115 120 124 117 98 84 65 66 78 91 131 164 195 210 211 209 210 214 212 205 202 194 168 154 143 136 123 109 119 131 126 115 116 119 128 129 123 121 125 124 137 136 143 
156 102 90 105 169 202 179 155 161 179 187 184 187 195 202 202 207 208 205 206 199 201 198 160 110 110 118 122 126 118 121 130 128 136 144 136 148 141 130 122 104 85 69 69 84 102 118 122 122 129 136 124 112 104 105 120 141 169 193 204 206 209 212 214 216 214 209 206 182 156 141 148 147 153 116 114 125 137 131 120 117 125 119 128 128 129 132 134 134 136 
128 103 105 140 201 206 163 156 166 179 183 192 188 199 206 206 205 207 204 200 200 194 150 105 108 117 132 128 126 125 128 130 128 139 147 144 145 140 139 137 119 109 98 93 96 97 97 113 123 135 144 145 136 136 143 150 163 189 194 200 204 206 210 213 216 213 206 188 163 148 143 150 159 143 119 116 129 136 134 130 124 118 121 124 129 136 132 133 132 137 
98 99 128 177 213 197 163 170 172 180 186 193 193 204 207 210 207 206 202 197 195 148 98 100 121 125 126 128 131 133 133 133 130 140 149 151 149 146 145 145 134 128 120 111 102 108 86 77 116 129 139 142 151 155 161 161 164 174 180 182 194 193 199 202 199 192 182 173 176 161 153 147 139 129 120 122 135 132 138 131 130 123 122 124 126 132 133 133 137 133 
89 111 161 201 211 182 169 172 180 189 191 195 197 207 208 209 205 202 204 197 153 99 94 112 122 128 128 126 134 139 131 134 130 137 153 153 149 148 148 147 140 141 133 116 112 118 109 112 124 117 114 119 137 138 146 157 159 156 163 174 173 179 185 185 176 184 187 193 195 185 166 160 157 154 140 141 142 137 135 131 125 122 124 118 124 131 135 133 132 124 
100 134 189 210 191 171 174 176 184 188 193 197 201 210 210 209 201 200 198 142 97 98 108 120 123 133 135 129 134 143 134 139 135 138 150 147 148 147 147 147 147 146 138 124 121 130 131 131 130 111 113 110 128 114 99 124 138 141 151 156 150 153 173 165 146 165 168 170 182 180 177 176 181 180 165 154 144 136 130 133 128 132 119 126 134 126 131 131 134 135 
106 162 199 200 167 169 174 182 182 193 196 200 207 213 206 205 205 200 156 99 98 109 113 120 123 131 137 135 138 144 136 140 141 142 148 146 150 151 149 149 151 151 141 138 136 141 142 136 126 113 107 123 129 103 91 120 133 134 137 132 108 110 132 118 104 131 165 168 173 173 186 182 183 174 163 148 140 129 122 130 124 130 128 134 133 134 134 135 139 134 
132 185 201 180 165 176 176 186 187 191 200 201 208 210 205 206 199 155 91 85 109 110 119 130 131 136 141 138 142 145 146 142 147 146 148 147 147 149 147 146 150 154 148 144 149 145 146 137 133 112 123 132 125 112 93 132 132 142 139 143 117 114 133 126 105 130 172 158 151 162 172 169 170 158 156 143 135 130 125 123 126 129 134 136 136 128 134 133 133 133 
149 194 189 167 167 183 181 188 190 195 204 204 211 209 204 205 159 92 84 98 106 112 122 129 134 134 141 138 144 145 153 138 146 144 149 154 153 153 147 150 146 150 149 149 155 155 154 146 135 123 133 134 128 117 114 139 131 140 142 147 128 112 138 142 133 139 172 151 150 158 158 158 158 150 147 147 137 131 120 124 132 135 135 136 137 130 132 134 131 131 
173 191 168 168 173 185 180 184 189 196 205 208 210 205 202 164 91 83 84 99 111 112 126 133 130 136 138 139 146 151 155 145 146 148 148 155 153 158 153 154 145 148 145 147 153 155 157 148 137 136 145 142 134 128 130 137 131 140 141 137 137 123 144 154 147 149 165 158 159 157 155 156 151 149 156 154 148 135 123 125 133 134 140 137 138 131 136 135 131 130 
191 175 164 172 182 186 186 184 195 200 210 208 211 208 167 95 82 86 95 103 117 120 126 137 134 139 140 143 145 148 153 151 156 159 151 155 151 158 158 149 153 149 143 148 149 153 154 154 145 143 154 148 146 141 141 142 144 146 146 153 149 145 154 155 160 159 164 164 169 164 160 154 156 158 161 162 145 135 125 126 134 137 139 142 139 133 137 134 131 131 
198 174 166 176 185 190 191 187 199 207 208 209 209 175 98 75 88 96 103 113 120 120 130 132 136 143 140 145 151 154 153 155 160 159 160 159 156 159 156 155 158 159 154 153 151 148 154 148 143 154 151 147 148 146 146 147 146 148 146 156 156 156 156 159 160 163 167 168 170 170 161 164 167 168 166 157 144 134 134 133 141 137 142 140 139 138 133 135 130 134 
185 177 172 176 183 189 194 199 209 211 215 211 189 99 72 84 95 97 107 113 117 125 125 128 134 144 140 148 151 154 158 160 159 157 156 153 155 165 154 162 162 164 159 162 159 154 157 150 147 150 149 151 148 147 148 153 149 151 157 156 161 163 165 166 173 173 172 168 170 169 163 168 168 173 166 151 139 136 138 137 136 139 142 144 139 136 131 133 128 136 
177 188 183 186 189 193 198 205 210 211 214 194 115 62 81 87 97 104 113 115 122 124 123 133 138 140 139 146 146 157 155 158 157 159 157 156 160 160 165 169 165 169 164 166 161 160 160 157 153 155 156 158 160 154 159 163 159 162 162 170 166 167 169 171 173 176 170 173 170 169 165 171 168 173 161 147 143 134 132 137 139 143 144 140 142 131 130 133 135 134 
184 186 188 194 193 202 202 211 214 212 200 134 65 71 87 99 106 116 115 115 118 124 130 139 139 140 135 146 145 155 154 156 161 161 161 161 165 170 168 168 168 170 163 172 167 167 168 164 159 165 161 167 167 162 162 164 171 170 176 176 169 172 183 179 180 170 167 177 179 167 169 176 170 169 155 145 145 137 138 140 142 148 147 141 141 134 134 131 135 132 
185 188 193 196 195 205 210 216 214 206 142 66 65 79 92 99 110 116 117 120 121 123 130 136 138 141 137 142 145 156 153 157 156 162 166 157 166 169 170 173 171 171 165 169 172 176 179 177 172 171 166 170 172 169 172 169 171 175 176 180 174 174 183 180 174 170 172 177 183 170 171 180 171 164 153 145 147 140 140 148 148 147 144 138 142 137 132 133 134 134 
188 194 194 196 199 202 207 213 212 170 65 64 73 83 94 97 111 116 120 123 128 129 134 129 138 146 141 145 147 155 155 157 158 157 162 165 166 165 173 175 174 168 170 167 176 177 179 184 176 175 173 169 171 175 169 171 173 181 183 183 181 179 171 175 171 171 171 173 172 172 168 173 162 164 154 145 140 142 144 147 151 149 143 139 139 136 135 137 131 134 
190 197 198 197 202 204 207 211 184 79 58 69 77 90 97 104 115 116 122 129 126 125 132 131 130 144 144 143 142 153 151 155 157 156 163 163 165 165 173 177 175 167 169 168 176 177 181 186 177 176 175 168 172 169 173 170 174 177 180 181 179 177 173 174 176 172 173 179 174 177 168 168 167 158 154 146 143 140 146 145 145 143 138 136 140 134 132 135 137 131 
194 196 196 200 206 209 208 193 93 55 56 70 83 85 100 110 115 117 115 124 131 124 135 133 134 142 144 144 145 145 151 156 162 159 166 161 164 164 167 176 175 170 171 171 176 180 174 183 179 179 177 177 180 175 177 177 176 175 179 180 174 174 173 175 174 183 182 180 174 180 166 161 159 159 154 153 145 140 147 147 155 142 143 142 133 134 133 132 132 125 
198 194 196 206 211 213 199 126 56 54 63 72 78 88 106 112 117 116 120 124 128 126 136 133 132 137 140 145 148 148 153 158 161 156 161 162 165 167 170 171 174 174 179 173 179 180 179 183 180 180 179 183 185 183 179 180 177 175 177 179 173 170 179 183 183 185 181 184 179 173 168 162 161 158 155 151 148 143 146 145 153 148 143 140 136 138 132 134 138 128 
201 197 201 211 213 209 150 53 51 53 64 78 86 98 98 114 117 120 125 123 126 126 135 132 135 136 141 143 143 149 150 157 159 154 159 162 165 166 167 172 175 174 180 172 172 183 179 187 183 180 174 183 188 187 182 182 181 182 179 176 171 175 180 184 180 185 177 180 176 174 169 167 161 157 156 155 149 147 146 149 150 148 145 144 139 133 130 140 140 128 
202 201 209 216 212 174 63 44 42 55 66 78 87 92 105 116 120 120 120 125 129 130 131 130 134 139 143 145 145 150 149 153 157 157 154 164 164 169 165 171 174 181 177 179 175 180 182 188 188 180 174 175 176 184 185 184 182 189 185 183 183 182 180 181 182 184 183 183 175 176 170 168 165 160 151 150 154 154 154 149 151 148 144 145 137 137 136 137 138 130 
202 206 215 215 196 90 41 38 48 54 70 79 90 97 108 114 122 121 122 125 128 130 130 137 134 135 145 141 145 154 151 156 158 156 158 160 163 168 168 170 173 174 177 181 180 176 181 185 185 186 182 179 175 186 185 183 184 184 184 183 183 180 181 184 182 184 181 180 175 174 174 171 160 162 154 153 153 154 157 154 147 151 142 145 138 135 140 138 136 132 
201 213 217 209 128 45 34 40 47 58 73 87 99 100 112 115 122 128 126 125 130 133 131 131 139 133 143 140 146 153 153 150 153 156 156 163 163 164 170 172 172 173 175 180 180 177 182 183 185 182 187 182 182 186 183 188 186 181 181 181 186 185 183 185 185 184 179 175 173 171 168 167 159 163 159 160 148 151 150 154 148 153 143 145 142 133 138 138 137 135 
208 217 212 158 55 38 40 48 51 60 66 87 99 105 114 118 125 122 126 128 129 132 128 129 139 134 139 142 143 147 153 147 154 156 161 161 161 161 171 171 173 173 179 176 177 179 183 186 186 186 186 185 182 179 181 181 181 180 185 182 179 180 185 186 183 177 175 174 170 169 166 163 161 161 161 159 149 150 150 148 147 150 144 143 141 136 135 132 133 137 
210 217 181 68 42 41 47 59 56 56 72 90 99 108 113 120 123 126 123 128 125 126 125 126 135 135 138 142 148 149 147 150 157 158 159 157 162 163 164 167 172 174 181 181 180 180 183 183 187 185 186 186 185 186 183 183 181 177 188 180 181 183 185 180 183 176 179 181 173 172 169 166 162 160 157 151 158 159 151 150 154 153 147 144 145 142 136 140 136 133 
216 199 102 40 40 42 45 49 55 69 73 88 97 107 119 120 124 125 124 128 133 132 130 124 131 136 138 143 144 146 146 150 158 158 157 156 160 159 162 165 168 172 179 180 182 181 180 185 188 185 181 188 186 191 193 187 186 179 185 177 177 177 183 179 179 174 182 172 169 171 162 165 164 157 155 153 153 154 149 154 154 154 145 146 145 141 137 139 133 130 
210 148 54 35 38 44 43 48 57 70 79 91 100 107 120 118 124 120 128 129 131 135 133 124 136 134 138 137 137 141 140 150 156 155 155 151 156 159 165 165 172 172 174 175 179 177 185 180 183 183 183 187 187 190 196 190 186 181 180 180 174 177 177 174 176 174 181 173 166 166 167 160 162 162 158 151 153 156 148 155 150 145 146 144 142 137 138 137 126 133 
177 59 47 43 46 56 46 52 56 65 81 92 104 112 118 117 120 121 128 126 135 135 131 133 141 137 140 138 136 143 148 149 148 151 148 149 155 157 159 164 167 172 174 170 173 177 177 183 184 186 189 186 182 180 185 189 186 179 181 180 175 181 183 182 177 179 175 168 168 165 162 161 158 155 150 148 153 149 145 151 154 145 149 140 141 137 138 130 130 129 
109 51 49 42 45 59 47 57 54 62 80 92 104 112 116 120 126 123 122 123 130 135 137 135 138 135 137 137 139 145 148 153 150 147 151 150 153 155 162 164 162 167 168 167 174 172 179 182 182 183 182 190 180 184 185 186 190 182 181 181 181 176 184 180 174 174 172 173 167 169 166 161 156 155 144 147 149 145 145 153 151 146 143 144 138 137 134 130 130 130 
