P2
90 90
255
134 133 136 173 164 163 170 173 180 153 103 125 146 152 159 172 180 158 161 199 218 206 206 217 238 228 229 240 234 228 234 236 228 211 231 237 237 239 241 247 243 243 244 243 242 242 242 243 241 231 223 226 227 231 140 135 151 169 202 210 219 224 181 167 138 101 134 146 120 142 157 169 150 139 138 151 156 142 130 132 150 151 141 150 130 100 49 90 106 125
143 158 149 158 152 152 167 172 182 164 124 143 155 153 154 164 180 174 162 189 220 201 194 226 232 240 233 233 230 217 227 228 222 197 233 238 239 240 240 241 243 243 244 243 242 242 243 243 236 240 216 226 231 221 130 128 155 178 198 200 210 223 181 143 102 128 145 146 128 153 159 153 170 176 172 155 138 135 136 134 140 145 141 119 80 78 54 101 109 105
109 144 164 168 138 127 158 173 182 167 133 147 154 149 149 159 160 171 164 189 220 196 182 216 238 232 201 206 230 211 221 234 214 184 233 237 239 239 242 243 243 243 243 243 243 243 243 243 241 234 217 219 235 223 95 120 176 187 192 197 211 220 166 100 115 146 151 148 125 149 158 155 141 153 142 131 140 136 120 118 136 137 101 84 71 80 72 108 85 60
78 106 125 159 175 160 142 153 177 163 135 147 154 151 151 156 159 170 180 203 216 194 183 194 231 231 204 204 239 214 212 233 228 199 236 241 238 234 241 245 243 243 243 243 243 243 243 243 232 214 199 219 218 212 126 150 193 186 191 206 220 219 156 95 143 144 151 152 120 102 103 148 177 134 130 149 140 121 115 110 112 70 63 78 81 105 84 103 83 54
95 77 81 114 148 176 162 159 167 164 156 174 189 192 195 200 198 206 218 235 240 236 238 236 228 227 187 154 205 222 217 226 229 205 221 235 234 230 240 244 243 243 243 243 243 243 243 242 235 222 197 207 215 213 126 142 180 172 194 214 222 219 163 129 146 151 153 149 125 67 76 175 208 171 163 171 154 132 113 90 73 71 65 99 108 102 84 99 87 64
130 116 86 69 114 175 196 220 222 225 224 233 236 234 236 240 240 245 241 240 241 239 239 236 200 227 214 176 209 234 229 238 216 190 203 228 228 226 242 243 243 243 243 243 243 243 242 241 235 225 210 204 216 221 120 123 161 161 194 213 222 221 167 142 147 156 152 145 125 74 105 200 185 189 180 175 166 122 74 61 75 70 91 101 86 95 77 84 91 73
153 140 120 92 124 176 226 236 238 239 238 239 237 234 237 240 237 240 234 233 233 230 230 228 209 233 230 214 234 241 228 229 215 181 212 233 220 216 241 241 243 243 243 243 243 243 241 240 230 221 212 227 221 225 187 172 164 172 195 212 223 221 171 145 153 151 153 150 125 81 97 167 193 180 177 168 123 66 48 64 84 92 87 94 94 98 87 90 91 77
114 138 147 114 119 122 197 234 231 231 231 231 232 230 230 227 233 229 231 237 232 232 237 230 218 240 235 227 230 228 225 229 206 167 221 234 207 202 239 243 243 243 242 243 243 242 241 239 226 212 185 191 220 213 147 162 180 191 202 215 224 219 185 166 165 156 161 157 136 88 68 155 188 183 156 110 72 58 64 75 92 85 89 101 96 94 78 85 90 82
61 89 110 121 141 129 201 227 230 231 234 233 234 228 236 233 232 235 232 233 233 235 230 235 222 237 238 224 218 208 214 222 221 202 226 222 210 192 232 244 242 244 244 244 242 244 241 232 234 223 177 188 217 196 98 121 136 160 217 238 227 228 220 203 181 169 156 148 131 95 82 140 176 147 89 75 67 68 76 78 87 84 92 93 96 81 78 89 92 78
84 92 69 108 106 125 197 226 235 234 233 233 236 235 236 233 235 236 232 232 232 235 232 228 226 231 243 230 214 171 204 215 221 197 203 210 206 196 237 244 244 245 244 243 241 242 239 225 222 203 157 175 203 176 92 111 175 232 244 239 249 247 242 240 242 231 243 235 230 225 214 195 179 131 84 95 92 69 69 82 85 83 90 94 95 83 77 88 95 82
110 122 97 113 77 81 187 234 229 233 235 232 232 233 230 233 232 230 231 236 235 232 236 235 227 230 239 222 203 165 213 205 212 180 191 213 194 185 235 242 243 244 244 243 243 244 241 220 212 177 143 149 187 195 100 137 217 244 239 235 243 239 238 242 241 244 238 235 240 242 235 237 239 235 165 90 77 65 69 71 85 84 87 93 93 87 81 96 96 82
129 142 132 125 98 85 185 227 232 235 236 232 231 235 231 236 234 233 234 234 232 230 234 233 222 238 239 217 182 166 208 204 202 158 196 226 194 183 237 243 243 243 244 243 243 245 243 210 207 186 151 151 188 215 100 167 242 229 239 244 236 234 232 236 236 235 239 237 242 238 243 237 239 235 222 85 81 63 64 78 85 86 89 98 97 94 86 100 97 84
132 150 145 144 123 116 177 227 235 232 231 230 235 236 232 230 232 235 234 226 229 235 232 233 226 232 235 225 199 191 207 219 189 141 193 213 196 190 233 242 244 243 244 242 242 242 238 193 176 191 141 170 200 204 98 197 229 232 243 238 231 231 227 233 234 242 232 239 236 236 229 236 234 239 243 146 73 60 73 82 86 90 96 106 103 97 84 94 94 82
148 156 148 146 139 140 173 227 232 231 234 233 231 222 229 226 220 220 222 223 222 214 196 226 227 222 236 233 232 223 219 230 183 142 188 190 186 183 217 240 244 242 244 242 242 242 238 181 171 175 119 157 193 189 101 216 222 237 234 232 231 229 235 232 235 238 237 238 230 239 238 239 234 240 228 192 79 70 71 81 95 96 98 102 99 91 80 89 92 81
141 161 166 151 143 145 173 219 215 209 203 188 172 157 198 208 220 217 218 225 220 190 139 183 216 217 243 234 229 219 217 227 196 145 187 195 172 160 202 236 243 241 244 243 244 242 238 173 182 169 123 138 187 197 140 211 220 224 220 223 223 223 230 225 224 220 194 117 132 147 178 189 208 217 235 187 80 72 78 95 98 95 97 94 95 85 80 89 96 85
147 166 158 155 155 173 164 162 105 91 82 76 85 106 199 235 231 234 230 232 235 209 124 148 215 208 228 230 224 219 220 228 206 133 174 205 159 137 190 223 244 241 245 242 242 239 234 163 145 159 129 141 206 228 218 221 215 225 229 218 221 227 222 229 225 231 233 192 108 96 89 95 78 65 68 180 109 78 92 84 90 89 96 94 98 86 80 86 94 82
148 161 168 158 142 163 153 127 60 93 114 116 117 131 194 235 233 233 233 225 232 206 114 128 198 212 225 218 180 209 214 206 161 139 159 196 179 154 186 223 242 236 246 239 237 238 228 157 165 183 149 149 205 231 226 214 220 227 223 223 226 224 226 230 229 234 236 225 174 81 64 68 69 56 82 175 130 73 77 87 91 90 96 96 98 86 80 86 91 78
170 211 182 161 147 153 167 119 60 84 106 100 88 110 185 230 230 234 234 227 231 225 155 118 188 203 223 209 154 202 211 186 135 144 157 161 161 146 170 200 233 238 239 238 241 237 216 164 167 178 133 163 207 223 219 211 216 227 227 227 228 225 226 227 231 228 231 233 187 72 61 58 72 56 77 170 127 71 89 87 91 94 96 93 98 85 75 94 98 81
235 246 235 199 154 147 168 120 59 77 101 93 87 134 210 242 236 235 226 230 234 219 164 106 181 187 207 204 147 177 178 163 120 130 164 175 152 111 142 198 239 241 233 238 241 240 216 175 158 153 113 155 164 151 89 157 215 229 228 223 223 223 228 231 233 234 235 234 194 80 81 63 74 61 65 145 129 74 84 83 85 94 99 99 106 96 82 113 105 84
237 234 235 199 179 149 131 113 102 102 118 128 150 193 221 218 223 222 217 217 213 205 182 135 174 188 202 207 157 130 127 148 124 142 183 203 187 153 150 182 224 232 238 245 235 228 205 156 122 131 129 170 153 88 63 140 203 225 231 229 227 226 228 227 236 226 227 232 186 78 91 96 87 103 98 128 138 86 70 90 100 100 105 105 107 98 84 111 107 84
233 239 227 202 198 142 123 109 135 147 161 172 181 191 196 203 203 204 211 206 206 212 186 141 170 200 217 215 166 105 125 166 197 231 236 235 241 230 170 162 216 229 237 239 239 232 209 160 147 141 144 219 215 157 48 68 204 227 234 231 230 229 231 231 229 230 234 220 159 82 94 111 101 150 168 149 145 84 62 118 121 99 99 101 100 97 90 98 103 82
235 232 228 220 224 171 152 136 171 191 192 191 197 201 193 194 197 204 212 212 214 188 142 157 188 192 210 210 165 107 147 183 207 235 234 232 235 234 154 129 203 237 240 233 239 229 222 214 181 161 188 234 231 227 178 158 222 239 240 232 229 228 233 235 238 239 237 235 230 230 223 207 194 190 186 157 144 65 53 119 126 93 95 103 106 104 105 94 99 81
234 230 224 195 227 200 152 144 128 163 166 170 178 185 186 190 176 179 184 180 164 138 135 218 231 198 207 216 189 155 188 208 218 231 239 241 234 227 153 130 185 226 228 216 191 162 165 193 114 157 193 178 169 207 184 196 222 240 245 242 239 234 232 231 236 234 233 239 237 237 229 226 220 219 226 227 201 82 83 132 124 99 102 104 103 92 107 93 98 81
232 236 232 169 177 199 198 188 133 135 116 129 135 132 138 150 140 119 124 113 85 124 172 227 234 191 200 211 206 203 223 234 234 233 233 237 231 205 160 204 213 210 180 168 125 91 79 96 77 127 106 83 99 76 129 164 217 234 239 240 241 239 239 239 234 236 230 231 232 231 226 222 218 237 233 243 228 98 92 89 115 100 102 92 84 68 102 100 99 83
236 241 242 200 181 205 216 225 191 119 79 82 75 70 69 61 69 68 62 74 79 120 178 203 181 133 157 171 186 197 220 229 211 222 227 232 235 209 126 226 171 107 145 117 109 78 91 53 44 55 95 88 87 76 88 70 146 216 235 237 240 241 237 240 239 237 239 240 235 234 238 237 235 236 238 235 229 108 70 74 91 79 85 81 71 64 76 129 113 81
242 246 240 221 205 221 229 214 203 128 75 82 87 79 79 79 82 83 66 80 86 90 145 178 151 87 69 111 140 153 176 184 162 173 189 200 186 199 121 207 167 120 137 58 74 95 94 46 53 54 62 89 85 76 86 77 97 148 210 228 230 225 228 222 226 229 232 229 236 239 229 235 241 235 239 227 196 97 82 78 72 83 91 73 73 73 74 109 108 83
245 237 231 240 234 222 194 187 207 170 78 82 76 79 69 71 81 81 75 83 94 92 132 160 134 77 45 60 88 93 111 119 98 107 178 204 186 174 185 151 191 134 119 50 62 70 64 52 38 55 58 64 71 69 100 81 91 100 177 217 216 170 113 121 116 115 148 138 93 85 113 150 174 216 195 184 164 95 92 102 95 70 80 76 74 70 75 88 93 78
222 188 214 224 197 201 177 185 186 171 81 91 94 93 83 88 90 93 98 75 74 87 84 76 90 74 46 50 71 65 68 63 73 161 176 173 104 172 152 125 101 74 58 43 51 55 68 54 61 54 62 38 75 62 76 44 85 90 130 197 229 204 126 221 233 226 228 219 205 177 114 57 84 185 165 186 177 109 95 123 108 61 66 64 60 61 70 59 79 73
205 200 219 198 173 200 184 191 189 122 80 84 127 139 160 163 172 184 161 106 102 147 151 146 140 128 72 61 91 103 113 110 170 186 190 170 126 123 123 124 102 77 57 45 45 57 97 57 68 60 66 51 70 92 62 51 43 79 129 159 178 183 148 178 193 188 182 185 180 166 148 118 148 188 159 185 188 133 101 106 107 71 71 68 73 68 71 67 78 76
235 228 220 173 105 140 195 190 169 80 91 84 123 176 184 147 170 166 100 62 91 145 157 152 146 138 137 92 167 210 216 219 226 206 178 145 114 91 53 80 96 53 60 52 52 48 94 59 60 61 85 56 62 82 58 83 51 63 64 102 121 87 64 86 109 120 129 140 137 143 139 89 105 110 109 113 144 142 128 129 102 66 65 69 69 64 67 57 79 76
226 210 169 148 104 122 192 172 152 77 78 64 67 122 138 113 134 118 76 60 62 68 76 74 68 71 115 62 169 230 229 232 225 207 153 94 92 52 70 87 67 41 55 43 47 54 100 82 62 63 64 88 71 93 55 112 64 46 77 115 145 84 58 40 45 74 84 84 67 41 43 54 54 53 52 55 124 180 188 190 164 148 157 162 165 189 201 175 177 169
156 152 140 143 91 100 193 177 151 79 58 59 52 47 103 141 139 69 44 42 37 39 54 48 43 54 55 55 160 227 230 225 210 156 133 89 94 65 63 66 66 64 59 47 40 49 74 56 58 61 78 74 89 64 43 64 46 65 84 161 125 177 116 125 185 179 182 181 157 117 78 53 61 66 67 105 161 214 225 218 223 221 226 234 237 240 238 236 229 219
156 157 121 120 100 84 182 157 141 91 68 39 39 36 47 76 109 85 94 107 115 127 144 132 55 48 48 62 185 233 227 228 215 160 103 75 61 56 54 115 152 127 46 45 40 54 38 71 79 92 110 110 56 52 72 137 77 81 52 132 99 106 66 148 222 225 219 221 210 204 141 74 91 95 93 87 127 220 224 232 236 238 236 242 235 237 229 172 171 221
170 157 144 135 103 88 182 179 146 122 95 40 43 41 36 120 149 130 123 123 121 117 114 105 57 60 126 183 220 220 227 233 173 131 94 72 53 41 81 145 171 164 115 65 56 81 75 156 78 121 138 95 52 59 68 53 53 79 82 96 74 108 73 63 103 133 122 107 91 74 43 46 42 30 40 46 101 204 206 230 240 239 224 213 195 129 67 65 130 193
134 147 146 138 99 88 130 116 75 99 88 47 37 55 59 67 77 85 92 108 122 131 138 151 162 171 204 228 226 230 231 218 144 74 64 54 40 59 104 147 167 160 139 111 50 68 115 167 120 137 146 96 48 43 58 96 63 118 74 51 80 173 172 177 176 173 158 114 45 33 39 36 43 45 36 39 84 172 170 149 176 177 157 114 93 102 103 98 120 160
58 63 59 53 80 92 70 38 43 127 136 130 148 150 166 174 180 191 195 205 206 209 209 223 227 233 223 223 225 230 230 223 118 66 55 41 54 84 144 127 129 154 123 132 59 53 101 107 155 145 123 100 57 136 48 63 135 86 105 134 79 126 88 86 74 79 81 69 40 43 46 37 91 64 39 43 49 113 162 168 175 181 175 184 191 183 191 202 194 202
53 49 36 43 80 120 151 49 38 91 179 205 205 204 213 207 209 209 209 220 220 225 222 224 223 223 224 231 229 225 232 220 131 115 75 53 69 114 145 138 151 165 75 66 58 42 68 151 178 142 145 104 77 39 80 100 58 147 70 44 70 116 104 100 93 89 76 71 65 60 56 65 84 75 53 50 62 64 52 97 154 196 206 204 208 201 198 201 206 206
185 145 52 46 62 123 168 72 51 94 194 202 182 188 206 212 217 213 217 225 224 228 230 227 230 230 230 226 227 227 232 211 174 230 152 139 36 103 171 186 173 169 157 160 96 39 58 112 142 155 123 81 66 72 81 89 44 50 61 105 111 162 187 189 191 178 178 178 163 163 168 161 160 158 151 153 151 146 118 108 97 99 133 149 164 195 205 204 207 202
168 137 58 35 43 79 77 105 153 167 201 210 205 197 206 210 218 219 225 225 224 222 226 227 226 227 225 225 229 222 224 228 222 234 219 189 196 150 135 146 159 141 141 135 73 49 52 51 138 102 80 75 75 92 119 80 51 39 52 67 158 219 209 206 198 199 195 188 186 186 183 177 163 165 153 158 155 155 156 150 120 100 103 100 97 109 133 178 202 209
44 50 50 58 65 103 181 197 208 209 213 221 222 220 221 227 224 226 227 224 231 225 225 226 226 226 227 228 225 226 226 227 228 228 224 171 142 149 131 155 130 80 113 133 61 63 51 46 42 45 62 78 81 71 91 88 80 37 40 66 130 69 178 204 223 220 216 216 218 212 209 213 209 202 205 197 194 202 185 182 173 168 155 145 137 119 102 97 108 149
139 149 164 180 193 205 213 219 219 213 216 223 221 220 222 220 225 225 226 229 230 230 229 229 228 227 227 226 227 227 228 228 227 225 227 224 158 148 155 182 158 129 91 64 79 79 77 72 48 45 49 79 107 89 81 98 111 38 32 120 64 63 69 85 181 217 224 220 221 214 216 217 215 217 218 216 212 209 207 206 204 200 199 198 195 184 164 143 129 121
210 214 219 219 217 215 215 216 217 215 217 221 220 220 222 224 223 222 222 224 226 226 226 227 226 226 226 226 226 227 227 227 226 224 229 226 201 202 214 223 199 198 55 97 76 74 79 80 60 57 55 112 128 130 103 118 71 61 138 83 42 49 48 57 66 202 219 215 217 220 215 215 215 214 213 211 211 210 207 204 206 205 206 204 201 200 198 192 180 173
213 216 218 216 213 211 213 216 214 218 219 220 222 222 222 225 222 220 220 221 223 224 225 226 225 226 226 226 226 226 226 226 228 225 228 204 167 193 235 228 234 228 196 204 203 128 104 118 70 56 83 93 105 155 185 183 166 175 100 52 45 66 55 43 45 125 222 212 218 215 209 216 212 212 211 209 209 210 208 206 203 202 203 204 202 201 199 193 197 191
217 217 217 214 210 209 212 214 213 220 221 221 225 224 219 221 222 220 220 222 224 225 226 228 227 227 226 225 225 225 226 226 228 230 217 198 200 213 231 228 222 228 224 200 162 184 136 109 106 51 75 104 232 213 213 207 177 167 94 35 50 54 48 52 59 65 211 214 212 205 214 205 204 207 206 204 202 204 205 204 208 202 198 198 197 198 199 196 193 189
210 209 209 209 211 215 219 221 216 220 219 220 225 224 218 217 221 220 220 223 225 226 227 228 229 227 225 224 223 224 225 226 223 231 216 192 189 208 224 226 234 229 226 192 217 205 147 97 145 92 163 207 221 236 198 213 187 123 54 41 39 54 63 50 49 59 103 202 204 193 204 201 204 199 190 182 183 191 199 202 189 190 197 204 203 201 201 200 196 192
215 213 211 211 213 216 218 219 220 219 216 217 221 221 219 218 220 219 220 223 225 225 225 226 228 227 225 224 223 224 225 226 226 225 216 193 170 199 226 241 240 235 245 243 230 238 185 113 130 189 241 231 230 232 229 191 173 78 35 42 42 46 49 39 49 53 71 137 208 210 200 195 194 192 188 186 191 195 192 186 197 187 183 184 185 187 190 191 187 184
210 210 210 211 214 217 219 220 220 215 214 217 218 219 221 221 222 221 221 223 225 224 224 224 227 226 226 226 226 226 227 227 225 214 198 77 164 164 220 237 230 232 234 228 234 233 239 182 234 233 237 230 221 230 222 142 91 58 40 43 38 42 46 51 51 64 48 141 211 211 208 209 211 207 198 191 193 201 205 203 205 193 188 193 194 190 183 176 186 184
216 216 216 216 215 216 217 218 216 210 213 219 217 218 221 222 226 224 223 225 225 224 224 225 226 226 227 228 229 229 229 229 202 216 198 194 194 135 88 183 211 220 230 233 235 237 238 229 226 238 236 243 236 229 144 75 57 40 38 43 38 39 44 43 53 43 46 91 197 221 218 214 211 217 219 215 211 212 211 209 205 199 201 208 208 204 200 198 201 199
216 224 214 212 216 225 219 221 223 220 219 221 225 226 224 221 221 218 223 227 224 224 227 226 230 222 227 227 227 229 223 225 187 177 191 205 203 173 135 121 138 171 214 226 230 224 227 226 227 215 211 202 162 67 52 45 38 42 43 40 37 38 42 45 45 44 50 143 221 212 217 219 215 214 210 215 213 214 208 207 206 203 201 200 201 202 202 201 197 197
216 223 215 214 218 225 219 221 217 217 218 219 220 221 222 222 226 224 225 225 222 221 223 224 220 228 231 225 220 223 225 218 222 210 184 196 218 212 201 168 139 95 126 173 223 230 228 206 186 146 93 91 39 79 48 36 40 43 44 41 37 38 41 43 45 82 61 107 210 220 225 213 219 216 211 215 213 215 209 208 206 206 205 206 206 206 204 202 196 196
210 214 209 210 214 218 213 216 215 216 217 218 220 222 223 224 224 225 225 226 226 225 225 229 225 233 227 225 225 225 222 198 158 150 184 224 218 207 214 206 216 163 115 130 107 239 198 72 60 84 52 39 36 52 36 41 43 45 45 42 38 37 39 41 44 60 53 79 191 217 221 217 213 211 207 211 209 213 210 211 206 205 206 207 207 206 203 201 207 205
216 217 215 217 221 221 219 222 223 222 220 221 223 224 223 222 218 224 224 223 225 222 219 222 220 226 228 232 230 228 230 223 127 182 169 190 195 214 216 230 212 196 189 170 146 101 74 45 64 121 127 106 37 44 45 39 44 46 45 43 39 38 38 40 71 55 37 46 157 210 215 219 216 216 211 213 208 210 208 211 210 208 207 207 208 208 206 204 203 201
211 210 210 211 215 214 215 217 220 220 219 218 216 215 214 213 214 220 221 222 226 225 223 226 231 226 230 226 221 222 221 226 179 188 207 182 192 198 232 219 213 212 201 195 179 151 126 50 30 95 58 98 49 42 37 49 45 45 45 43 40 38 38 39 45 41 48 46 42 215 218 214 219 216 211 215 213 215 211 211 214 212 211 211 213 213 210 207 204 204
213 211 214 213 216 215 218 219 216 221 225 224 220 218 221 224 217 221 221 221 223 224 226 229 224 218 223 219 221 230 224 220 205 193 150 166 188 199 217 178 187 192 183 195 179 185 169 51 39 57 48 41 43 50 41 36 45 44 44 44 41 39 38 39 31 42 44 49 43 104 214 209 215 209 201 206 207 210 202 198 207 207 208 209 209 207 204 201 200 203
212 212 217 215 218 216 220 218 206 210 215 217 216 216 218 220 224 223 222 218 213 213 215 213 223 228 233 228 222 225 222 215 197 196 173 129 109 135 151 150 155 166 177 179 182 175 175 61 36 37 43 44 50 38 43 38 45 44 44 44 42 39 37 38 39 42 42 43 50 73 226 216 219 214 206 207 202 201 193 191 199 202 206 205 202 199 198 199 203 205
211 212 219 216 219 216 221 216 213 213 214 217 220 221 218 215 221 220 222 221 216 217 219 215 223 222 214 217 221 224 226 214 193 130 175 205 177 170 151 146 114 148 152 151 141 150 145 63 37 42 40 40 40 41 39 47 45 44 44 44 42 39 37 37 36 42 39 54 49 64 173 224 218 221 219 219 209 209 208 214 201 206 210 207 201 198 201 205 205 204
211 217 218 217 216 224 218 219 219 222 215 223 216 220 216 226 230 218 222 223 224 227 226 231 226 224 223 222 221 223 226 192 163 181 163 159 107 182 196 176 164 194 143 125 164 133 112 43 39 40 36 37 40 41 45 53 44 42 43 45 43 38 36 38 37 39 42 50 41 98 137 218 223 217 222 217 219 221 209 214 211 216 208 209 207 206 199 208 198 199
215 216 215 211 215 208 211 211 217 199 207 221 223 219 227 228 225 217 224 227 226 224 220 226 230 215 226 223 224 230 222 201 149 157 175 155 175 174 190 204 209 221 188 188 209 156 36 39 37 49 40 39 45 38 120 54 50 46 44 45 43 39 36 36 38 42 38 51 52 36 74 203 225 222 222 214 215 218 212 214 211 214 210 214 215 214 204 204 199 199
204 213 213 211 216 213 220 217 219 221 219 209 217 217 221 222 223 221 223 220 219 223 224 229 221 219 219 221 224 225 225 186 127 106 106 110 138 169 193 210 207 226 224 214 196 158 52 34 48 38 50 48 42 41 88 74 50 46 43 44 44 42 39 39 33 39 38 57 55 49 41 195 219 217 218 218 215 210 205 205 209 212 210 211 206 207 205 205 204 204
215 218 208 212 208 215 209 210 204 212 207 212 221 220 214 227 218 225 227 219 218 222 218 212 204 217 209 210 212 214 228 182 97 138 119 106 138 151 186 189 199 196 203 213 194 184 135 55 46 45 38 41 39 48 39 48 47 45 43 44 44 43 42 42 66 36 33 40 41 43 43 193 218 214 214 222 219 209 211 214 206 209 212 214 213 216 217 215 214 214
218 214 212 225 223 229 211 218 226 225 218 213 206 220 216 200 209 214 214 217 225 228 227 226 218 217 224 227 216 204 205 181 138 135 118 121 78 120 196 198 200 195 181 181 190 208 158 67 39 51 53 48 40 43 44 43 45 45 46 46 43 41 40 41 31 40 44 80 46 43 64 188 211 210 215 223 220 213 214 212 214 206 202 201 206 210 210 203 206 206
208 214 216 211 207 212 212 220 218 203 204 213 211 206 210 215 207 199 190 201 213 209 213 224 222 224 225 217 148 74 95 114 134 89 66 47 92 188 174 171 171 182 186 184 195 163 146 124 47 37 43 37 41 48 38 42 42 44 46 45 43 42 42 43 43 36 38 39 49 49 123 217 214 214 218 215 208 208 207 199 210 203 198 194 198 194 191 187 189 189
186 207 210 222 221 218 221 217 194 209 215 218 211 219 221 226 224 214 197 205 211 198 197 206 209 214 204 214 143 43 56 55 101 56 83 53 124 152 143 138 134 140 139 133 153 123 108 61 41 56 47 42 41 43 46 51 42 43 44 44 44 44 45 46 38 37 43 44 38 44 139 217 218 208 211 206 199 206 208 209 201 204 209 209 214 201 196 197 194 194
226 216 178 217 218 210 214 217 214 216 208 210 172 201 209 205 206 201 183 186 199 201 210 221 222 224 216 197 121 42 53 57 46 137 44 37 49 90 88 85 76 72 71 74 71 75 57 39 41 38 41 37 43 34 45 47 47 46 45 44 43 44 44 44 39 55 40 39 41 71 197 204 186 174 195 211 212 213 208 215 217 211 204 197 206 196 197 205 207 207
219 217 208 214 215 204 187 201 214 215 221 216 220 217 216 214 199 207 214 219 209 208 222 222 226 207 203 225 185 62 45 42 46 37 39 41 36 66 80 79 71 61 50 42 39 38 39 41 41 47 49 46 43 42 44 49 77 45 43 45 43 41 47 45 39 39 42 39 47 87 219 214 218 205 208 214 202 214 210 213 209 212 209 210 198 182 178 176 181 193
202 191 195 208 201 206 209 212 215 216 207 215 219 220 226 223 217 223 226 209 201 207 218 220 219 221 215 230 170 57 42 45 44 41 40 32 79 97 94 84 71 61 51 45 42 41 40 40 39 45 49 49 46 41 40 45 48 54 47 48 44 48 36 46 42 33 41 44 40 185 192 210 203 200 205 189 183 196 192 215 215 213 209 211 181 203 205 214 198 207
206 207 211 222 215 199 194 209 208 207 215 216 220 214 192 199 217 235 229 222 226 221 234 226 223 206 204 227 141 43 50 30 38 69 65 107 179 141 111 87 65 58 50 46 45 43 42 41 49 47 43 39 37 34 37 46 47 54 59 36 40 44 50 46 46 43 40 46 61 208 203 211 218 216 208 205 209 205 210 217 207 218 214 209 185 154 176 168 180 187
190 198 197 197 206 218 219 208 210 209 211 223 211 195 216 210 219 218 215 205 215 219 214 223 220 211 209 215 148 49 48 37 108 142 84 96 113 156 117 69 54 52 48 46 44 42 41 41 43 43 41 41 43 41 37 36 53 47 45 48 44 45 39 45 37 43 38 49 122 176 215 212 212 213 211 217 206 205 206 190 181 183 189 194 196 173 167 183 180 191
199 199 179 183 207 201 196 208 195 218 222 223 222 222 223 231 233 228 198 207 223 224 224 213 219 210 223 230 170 55 32 40 177 110 80 56 71 134 100 54 47 48 47 45 41 39 39 39 34 38 39 44 52 53 44 35 40 55 50 42 46 46 33 42 50 43 39 63 192 218 210 222 222 215 216 203 156 179 161 181 179 189 201 199 193 173 151 160 193 209
193 181 178 186 189 194 207 190 192 184 202 216 221 215 163 214 212 215 223 219 213 215 212 214 188 203 218 218 224 79 104 37 88 104 48 73 71 75 61 45 44 46 46 43 38 37 37 37 39 39 36 36 44 50 50 50 38 53 68 47 45 43 47 43 35 44 49 135 213 220 225 197 136 168 217 189 207 218 212 201 201 209 197 180 165 175 207 204 188 201
223 219 212 219 226 212 214 205 211 205 201 194 194 211 205 202 221 208 205 204 206 196 209 189 189 195 195 206 204 119 61 42 130 94 46 58 41 49 51 38 42 43 42 39 37 37 37 36 37 38 38 39 42 44 53 65 53 39 56 79 50 44 43 46 45 44 46 137 205 217 187 188 177 183 174 191 181 180 173 188 194 197 196 201 181 198 206 202 195 199
128 182 213 216 216 205 216 215 216 224 204 178 221 213 208 219 219 194 209 200 197 177 202 196 137 193 216 208 206 212 189 147 153 116 44 42 44 46 42 42 40 40 37 35 36 38 38 36 36 37 39 43 42 43 60 85 64 42 48 52 49 44 46 41 41 48 72 212 213 194 194 180 170 188 214 213 197 209 209 205 203 212 206 206 200 151 201 211 209 204
199 194 204 196 195 128 199 212 213 208 210 207 210 206 217 159 201 202 214 207 214 210 203 207 209 201 207 205 209 209 176 168 172 146 76 41 44 43 42 38 35 40 39 36 36 33 43 33 36 40 36 38 45 54 83 114 69 47 44 51 80 45 48 41 43 43 136 182 107 123 189 181 203 197 207 182 158 132 147 145 133 112 121 164 210 193 209 187 177 173
179 168 165 183 169 135 122 169 176 176 167 171 161 164 167 173 168 146 145 165 157 149 145 140 138 147 144 147 151 127 106 151 185 147 79 48 46 34 40 41 40 40 37 38 43 36 33 40 36 39 41 42 46 72 117 127 65 46 49 45 49 62 53 48 39 48 167 176 154 184 181 153 153 164 154 145 163 172 176 192 189 182 162 156 187 172 182 179 178 182
183 181 172 158 170 181 172 172 150 126 148 147 110 112 125 130 134 159 179 180 149 153 138 118 133 137 181 191 182 180 154 194 185 156 78 155 131 53 35 43 38 42 42 34 38 40 33 36 44 38 42 44 57 105 152 121 57 53 48 48 41 58 46 44 45 45 210 213 222 215 176 147 189 192 206 200 195 199 185 194 210 210 207 189 152 174 191 197 188 187
202 205 210 214 215 212 188 218 215 216 216 212 192 210 190 198 209 215 216 205 197 196 187 215 221 205 208 177 170 151 172 184 180 143 107 134 91 31 40 37 45 39 38 36 41 33 44 56 44 38 41 49 80 138 167 100 57 97 52 42 47 47 69 45 41 49 200 137 101 196 191 207 216 208 211 210 191 173 191 171 104 109 127 162 180 171 189 187 192 186
198 180 180 194 172 168 195 197 191 185 209 215 216 211 213 215 214 210 187 156 159 146 151 186 153 153 174 177 195 213 203 169 164 113 118 142 146 40 31 40 34 34 36 47 72 69 93 84 35 38 44 62 107 159 161 86 48 58 53 42 49 42 33 42 42 46 195 205 190 199 186 188 203 200 208 163 157 170 176 185 184 191 216 216 209 207 200 200 204 204
108 121 139 145 141 195 169 155 166 158 134 102 216 221 219 212 214 219 208 199 214 212 209 188 114 150 128 157 156 175 59 70 49 111 191 203 181 37 34 39 41 39 35 70 100 55 79 118 39 42 48 80 134 172 140 72 48 56 47 42 32 40 46 40 36 35 163 195 124 110 109 108 101 133 143 101 107 139 153 168 146 130 124 156 156 166 136 174 174 173
219 209 225 219 218 216 215 222 218 229 195 173 214 178 157 218 220 201 200 204 178 172 166 177 211 219 223 214 222 91 56 47 64 105 204 224 183 42 40 33 32 34 38 43 60 112 134 58 47 45 56 102 153 174 117 63 52 46 45 52 39 40 39 41 43 162 223 211 198 179 199 191 152 173 211 199 210 209 199 201 208 208 187 193 161 142 183 200 193 187
192 198 194 192 186 166 141 181 215 208 219 227 215 219 208 217 210 196 199 179 143 198 185 214 198 208 208 197 185 71 75 40 40 170 180 180 114 35 39 36 38 38 37 76 113 123 90 48 43 44 67 121 159 166 102 64 49 51 44 36 37 40 40 43 44 199 214 180 157 174 215 222 212 214 214 209 213 151 182 206 211 197 168 161 184 195 175 184 166 165
207 196 215 205 207 180 183 196 203 210 204 197 187 179 179 173 165 165 182 166 164 118 185 150 173 195 204 227 135 47 80 40 38 119 107 105 97 37 36 36 36 37 37 82 138 150 170 65 46 49 79 104 107 152 103 93 54 44 45 40 39 37 45 43 45 110 129 155 99 124 147 161 152 152 164 172 180 160 151 166 195 156 147 134 180 186 192 196 195 201
203 197 203 215 207 223 225 209 221 214 217 212 203 211 193 197 212 224 184 209 218 214 207 220 198 221 215 207 117 101 58 37 53 185 204 52 139 37 36 42 41 40 35 60 117 39 64 43 44 56 87 138 162 142 93 59 49 52 38 34 36 39 36 48 46 189 209 215 211 199 207 212 218 208 218 214 214 213 211 211 205 196 197 217 209 196 188 200 197 180
180 150 186 170 183 202 196 205 194 214 198 188 202 206 179 209 205 200 192 194 180 195 208 207 205 196 206 167 60 43 48 51 170 175 143 127 42 38 39 32 36 31 57 98 103 104 82 49 54 51 82 133 161 118 52 49 50 48 42 42 33 38 38 39 42 170 171 181 165 154 198 169 199 211 208 206 219 214 214 210 214 198 190 181 186 172 186 174 196 183
184 183 164 200 172 215 219 202 207 202 211 195 183 170 142 189 182 173 180 193 178 181 176 165 160 163 188 143 106 113 48 45 136 71 112 78 38 36 42 47 49 49 154 190 206 206 179 62 41 57 77 134 152 85 107 51 51 43 47 41 38 36 42 33 43 110 127 163 146 155 163 162 167 181 178 166 179 181 191 214 199 209 206 212 217 213 191 156 148 163
212 212 218 209 205 207 175 183 204 196 186 198 220 209 199 191 212 207 187 200 210 225 211 202 192 174 152 160 75 162 77 38 168 217 149 56 49 51 52 57 56 52 131 147 165 162 114 47 50 55 63 116 113 57 46 48 45 46 40 31 41 37 37 40 49 156 183 194 191 190 193 194 178 176 209 209 218 225 206 207 210 215 212 200 209 195 188 188 188 203
184 192 179 188 189 163 195 199 205 202 200 190 206 194 181 177 196 204 205 202 217 219 217 192 189 200 158 183 89 83 126 62 108 149 138 139 150 118 96 91 90 76 53 63 63 54 71 54 44 44 60 58 62 48 44 40 40 42 39 43 39 40 34 37 31 66 127 145 196 185 182 173 190 195 202 203 211 213 216 210 203 203 194 191 214 209 200 206 203 191
188 197 196 173 191 194 183 184 198 181 184 202 197 173 187 182 184 193 198 217 234 232 221 227 217 222 210 177 61 56 54 49 144 174 159 127 148 124 106 107 99 87 69 103 127 129 107 75 38 47 39 41 47 50 36 44 39 40 51 63 48 46 44 42 43 169 202 122 189 190 192 200 201 214 200 188 178 162 190 205 205 188 182 151 212 193 205 174 188 171
219 225 219 208 215 224 227 223 190 207 219 224 228 228 227 228 229 224 229 228 224 228 227 230 146 199 206 197 93 52 39 44 102 176 154 151 187 135 108 92 74 137 125 79 107 104 86 75 50 40 42 45 42 41 44 33 38 47 60 64 68 54 55 64 58 79 151 147 179 172 153 153 146 131 175 197 205 209 208 218 223 213 191 158 175 142 146 105 166 172
178 194 186 196 212 220 227 216 214 206 225 222 223 217 220 223 227 229 206 210 213 226 226 224 195 203 212 191 147 126 109 110 150 174 159 149 147 165 150 116 124 141 117 100 132 130 108 81 48 42 35 40 36 45 37 41 49 50 89 104 113 78 90 117 98 117 155 162 174 175 167 185 186 176 181 180 170 176 183 177 193 187 174 182 173 166 171 173 164 144
175 198 208 197 200 210 217 219 212 203 220 217 222 216 218 218 221 222 194 198 209 226 227 228 224 223 230 223 203 198 180 174 193 209 183 162 152 164 144 107 108 113 103 97 142 133 125 107 112 97 74 65 54 64 60 68 107 128 141 133 115 113 112 123 141 147 154 156 134 151 151 194 200 193 200 200 189 192 195 186 194 196 182 191 178 170 188 197 191 171
