P2
90 90
255
157 156 156 155 156 156 157 158 158 157 158 160 160 160 160 161 160 163 162 161 164 165 164 165 163 167 165 167 168 165 167 170 168 170 172 172 171 171 172 174 172 175 176 175 175 176 176 175 177 177 178 180 182 183 183 182 183 185 186 187 186 187 188 189 192 191 190 190 190 190 191 192 192 191 191 194 197 194 193 196 195 198 191 198 193 186 190 144 183 183
176 176 175 174 175 175 176 177 181 180 180 181 181 181 181 182 182 185 186 186 186 183 182 186 185 190 187 185 187 188 189 188 191 191 191 191 191 192 193 193 192 194 194 193 194 196 195 194 198 198 198 198 199 199 198 196 203 203 202 202 202 202 201 201 205 204 203 202 201 200 200 200 203 202 202 203 202 201 201 202 202 205 196 197 177 180 172 179 161 160
190 189 188 188 188 189 189 190 191 190 190 191 191 191 191 193 190 190 191 194 197 195 194 199 196 197 196 194 197 195 194 194 197 197 196 197 198 198 198 198 200 200 199 198 200 201 201 199 198 198 199 201 202 203 203 203 200 199 199 200 202 204 204 204 203 204 204 205 205 206 206 207 204 202 204 204 200 202 203 200 195 199 176 199 194 182 164 172 190 186
190 190 189 189 189 189 190 191 191 191 192 194 194 193 193 194 198 197 194 194 198 198 195 195 198 194 197 196 201 197 198 204 198 199 200 201 201 201 201 200 200 200 199 198 199 199 199 199 205 205 205 205 205 205 204 204 207 206 206 206 206 206 205 204 205 205 205 204 204 203 202 202 204 201 205 206 202 207 209 199 153 184 196 195 167 166 191 192 194 186
194 193 192 192 192 192 193 193 192 192 194 196 196 194 192 192 190 197 198 195 198 201 199 196 196 198 206 197 200 196 194 195 200 201 202 201 200 199 201 202 200 201 202 202 201 201 203 206 202 203 204 205 205 206 207 207 204 206 207 208 208 207 206 206 206 206 206 207 207 207 206 206 205 201 201 199 193 194 190 176 189 186 172 158 174 179 168 200 203 194
177 176 175 175 175 175 176 176 172 172 173 174 174 171 168 168 171 189 199 196 196 200 202 201 203 197 184 140 128 126 125 124 119 119 117 114 111 112 115 118 115 117 120 121 120 120 123 127 131 133 136 138 141 144 147 148 152 155 159 161 162 163 164 165 163 164 165 167 169 171 172 173 179 177 179 181 181 184 181 171 157 159 161 166 162 207 188 158 194 191
197 196 195 195 194 195 196 196 196 195 195 196 195 193 191 191 177 194 203 201 198 199 199 199 196 199 209 188 194 199 199 198 204 203 201 199 197 198 201 203 198 199 201 203 203 202 204 207 205 205 207 207 207 208 209 210 208 208 208 208 208 207 207 207 211 210 209 208 208 208 208 208 209 208 206 203 200 197 192 186 178 185 181 193 153 204 212 195 181 179
198 198 197 196 196 196 197 197 199 197 197 198 198 197 197 198 185 194 199 199 201 201 200 200 202 195 206 192 201 198 196 202 199 199 199 199 200 201 201 200 202 201 202 204 204 202 202 203 205 206 207 207 207 207 209 210 211 210 208 208 209 209 209 209 209 208 207 206 205 206 206 206 205 206 203 199 196 192 187 187 189 182 195 202 157 212 208 207 184 173
199 199 199 198 197 197 198 199 197 198 199 199 198 198 198 198 189 196 200 200 201 200 199 200 201 201 204 195 201 203 201 200 200 201 201 201 201 202 202 202 204 205 205 205 205 204 204 205 202 205 207 207 206 206 208 210 207 207 208 208 209 208 208 208 206 207 207 207 206 206 206 206 202 198 194 191 189 187 187 188 192 196 198 196 151 209 208 209 203 186
200 200 199 199 199 199 199 199 200 201 201 201 200 200 200 201 191 200 205 204 204 204 203 205 204 207 209 196 199 202 203 201 199 200 201 202 203 204 204 205 204 204 205 206 206 207 208 208 208 208 208 208 208 208 208 209 210 210 210 210 209 209 208 208 208 208 207 206 205 204 203 202 202 197 191 188 187 188 191 194 189 193 196 198 155 212 208 206 205 190
200 199 198 199 200 200 200 199 196 196 197 197 197 198 199 200 187 200 208 206 204 204 203 203 204 207 203 177 169 165 161 156 158 159 160 161 162 163 164 164 171 172 172 173 173 174 176 177 183 185 189 194 198 199 197 196 199 199 200 202 204 205 207 208 206 205 204 205 206 206 205 203 195 191 186 185 186 188 192 195 192 187 180 176 135 198 202 205 199 186
178 177 176 177 179 180 178 176 190 189 188 186 184 183 182 182 173 191 204 205 205 207 207 206 205 209 211 194 193 194 195 195 194 194 194 194 194 195 195 195 197 197 197 196 196 196 198 199 203 203 203 202 200 196 191 188 180 179 179 178 178 178 178 178 178 177 177 178 181 182 181 179 181 179 178 179 181 183 184 186 193 195 197 200 157 211 204 200 195 182
162 161 160 161 163 164 162 160 155 156 158 161 165 169 173 174 180 197 208 207 206 207 207 206 208 209 212 202 205 204 204 206 207 207 207 206 206 206 206 206 209 209 208 207 206 206 207 208 209 210 210 209 209 210 212 214 214 213 212 211 210 210 210 210 210 209 208 208 209 209 207 205 205 204 205 208 209 210 210 211 206 206 204 202 156 211 209 210 203 191
204 203 202 203 204 204 203 202 205 204 203 204 204 204 204 204 196 207 212 208 205 205 205 206 211 210 213 207 212 210 209 211 209 209 209 209 209 208 208 208 208 208 208 207 207 207 208 209 210 211 212 212 211 210 211 211 210 211 211 212 213 214 214 215 214 213 212 211 211 211 209 207 207 206 206 208 210 210 210 211 210 211 212 211 163 216 213 215 209 198
207 207 206 206 205 205 205 205 206 205 205 205 206 206 205 204 195 204 208 207 208 209 210 213 206 208 212 204 209 210 209 209 208 208 208 208 208 208 208 208 208 209 210 210 209 210 210 211 210 210 211 212 214 215 214 214 214 214 214 214 213 212 211 211 212 212 212 212 212 211 211 210 212 211 211 212 213 213 213 214 210 210 211 210 163 214 211 213 209 199
209 209 208 207 206 205 206 206 206 205 205 206 207 207 206 205 199 206 210 210 211 209 207 207 208 213 217 205 208 211 211 209 209 209 209 209 208 208 208 208 208 209 209 209 209 208 209 209 200 196 192 192 196 203 209 211 212 212 213 213 214 214 213 213 213 213 213 213 212 212 211 211 212 211 212 214 215 213 212 212 213 213 213 213 165 216 211 212 209 199
210 208 207 206 206 207 207 208 207 207 207 206 206 207 207 207 198 208 210 206 207 210 211 210 210 208 220 206 211 208 210 210 208 204 207 208 209 210 207 206 211 207 207 210 211 204 210 163 98 83 85 89 85 107 144 145 199 212 211 209 216 211 208 207 208 206 206 205 199 197 201 191 193 193 192 192 191 188 185 182 179 170 171 161 141 216 208 213 208 199
182 181 178 177 176 175 175 174 175 175 174 173 173 173 173 173 181 199 212 212 211 210 210 211 214 213 206 139 134 138 153 141 145 146 148 148 150 154 156 159 157 174 173 173 184 188 184 106 30 29 28 32 33 33 41 53 54 143 203 214 205 217 213 217 217 212 213 215 208 207 213 213 210 210 209 210 210 210 209 208 205 198 192 185 125 216 216 211 210 201
207 206 206 207 208 209 209 209 212 212 212 211 211 211 211 211 185 202 213 212 210 209 210 213 205 205 216 209 212 215 213 214 210 212 211 208 209 210 210 212 214 203 209 217 194 169 152 49 27 27 24 23 25 22 17 27 26 31 80 121 144 154 157 156 164 176 183 189 202 208 205 212 214 213 212 212 213 214 214 214 211 212 215 214 165 219 214 212 207 199
210 209 209 209 209 208 207 207 206 206 206 206 206 206 206 206 200 209 212 209 209 210 209 209 219 212 209 210 205 214 205 212 211 214 210 212 215 211 209 209 214 203 199 165 101 60 71 38 29 25 32 35 29 38 32 20 19 26 29 51 63 155 214 213 213 219 221 218 214 216 212 221 216 215 215 214 215 216 217 217 218 217 214 212 187 215 213 219 210 202
212 212 211 211 211 211 210 209 211 211 210 210 209 209 209 209 200 207 211 210 212 212 208 206 208 209 219 206 209 213 214 214 212 214 210 213 214 210 212 212 206 198 143 53 30 27 30 37 26 22 28 33 22 38 38 23 29 29 19 24 30 56 147 191 216 212 216 224 216 222 220 216 216 216 216 216 217 217 218 218 213 215 212 219 187 223 218 215 211 202
210 210 211 212 213 214 214 214 211 211 210 209 208 207 207 207 199 208 213 212 212 211 209 210 214 209 214 210 210 212 208 212 212 214 210 212 208 206 214 207 183 72 36 26 23 26 33 30 23 31 20 24 19 25 28 32 22 29 44 25 28 31 29 148 172 216 218 214 214 220 212 214 217 217 218 217 217 216 216 216 221 222 216 212 190 217 212 217 209 201
215 214 213 212 212 211 210 209 213 212 211 211 210 210 210 210 205 212 215 212 211 210 211 214 215 214 212 209 205 220 210 210 209 213 210 212 209 213 213 183 109 43 30 23 28 26 31 44 28 49 25 27 28 25 21 27 54 24 40 29 22 15 37 56 88 184 209 216 220 219 211 220 215 216 216 217 216 216 217 218 215 216 217 212 198 223 212 217 212 203
213 212 211 211 212 213 213 213 211 211 211 211 212 212 213 213 204 211 213 213 214 214 212 212 214 208 219 207 212 207 209 212 212 214 209 210 208 210 193 137 68 27 27 22 22 17 23 26 50 69 30 23 23 28 26 21 79 31 36 19 24 27 23 48 87 120 118 137 135 141 150 145 150 152 154 157 159 162 166 168 168 162 158 165 130 215 221 214 209 201
166 166 166 165 164 163 162 161 163 167 164 162 170 174 173 175 158 202 220 215 214 214 214 213 214 213 217 140 161 172 175 181 187 174 175 148 155 122 93 41 25 23 30 22 30 20 21 26 56 27 31 21 24 25 21 24 47 25 70 40 18 24 24 33 48 113 98 184 214 210 215 214 216 217 217 217 217 217 216 214 221 214 211 198 128 215 219 212 210 202
207 208 208 207 207 206 205 205 206 208 206 203 204 206 203 201 181 205 214 215 217 215 215 217 219 208 218 203 219 217 208 191 131 91 54 35 51 43 51 38 45 26 30 36 28 28 28 25 23 21 20 34 30 20 27 30 41 57 45 30 27 26 20 41 56 86 101 156 206 210 216 214 213 215 217 216 216 217 217 216 223 209 214 217 203 212 213 221 210 201
210 210 210 210 210 210 210 210 210 210 210 208 206 207 205 200 199 210 213 216 217 215 215 214 213 220 213 218 209 202 209 112 29 38 29 36 50 35 30 29 57 30 29 32 19 18 23 24 25 24 25 40 21 22 33 31 32 97 30 25 28 25 34 43 39 53 55 122 194 211 210 211 211 214 216 216 216 217 218 218 211 222 212 219 197 210 217 213 211 202
213 212 211 211 211 212 212 213 213 211 213 214 211 212 213 207 199 212 216 216 215 216 218 211 218 219 204 216 166 115 34 55 28 32 33 36 35 34 40 40 46 32 39 36 41 25 24 26 22 28 28 29 26 36 32 41 29 70 21 22 24 32 40 43 27 52 32 75 167 214 207 217 213 214 215 215 215 216 217 217 215 214 215 217 203 192 219 218 213 204
214 212 211 210 211 212 212 212 214 211 213 214 210 212 214 210 202 213 216 216 216 217 220 214 206 222 218 181 90 30 23 23 44 30 48 53 29 26 36 28 40 27 29 23 33 26 30 34 33 26 39 62 33 35 72 53 50 18 24 25 23 29 26 68 30 22 48 88 99 190 206 211 212 211 211 213 215 217 217 217 218 221 214 211 196 192 209 214 213 204
216 215 213 212 213 213 213 212 215 213 214 214 213 214 216 214 208 216 215 216 217 215 216 215 216 208 188 104 26 27 32 25 32 44 44 37 28 28 26 29 36 27 36 41 31 28 25 24 20 27 25 74 51 46 132 127 107 41 29 21 24 20 22 61 68 33 31 34 52 148 207 211 215 213 212 212 213 212 212 212 212 206 219 216 193 187 217 217 210 202
206 204 203 202 203 203 202 201 202 203 201 200 201 200 200 201 190 211 216 215 217 214 213 213 206 152 134 61 44 38 27 25 23 66 34 35 50 49 22 19 40 28 32 42 42 34 22 19 25 22 22 60 40 59 134 153 160 114 66 36 23 24 26 21 41 42 71 30 37 61 149 137 133 136 141 147 152 156 163 168 178 187 180 174 121 168 217 213 209 201
185 183 182 182 183 183 182 180 179 181 177 174 175 171 167 170 155 199 216 213 215 216 215 212 100 57 36 46 32 26 49 32 50 82 32 43 31 28 25 27 42 29 32 50 92 72 37 24 21 22 32 33 45 89 88 146 169 164 150 88 20 28 23 24 30 25 38 41 28 60 132 201 215 215 215 211 205 200 201 205 201 199 198 202 182 171 212 217 210 201
213 213 211 209 210 212 213 212 213 213 214 214 214 213 213 213 196 214 210 212 214 210 212 212 26 33 25 21 32 33 40 25 74 54 21 55 28 17 26 35 79 35 24 44 139 65 59 27 23 21 33 44 51 53 90 154 167 180 176 154 47 22 32 18 25 29 35 24 28 46 150 206 210 213 215 216 214 212 211 211 211 213 211 209 196 168 215 214 209 203
216 217 216 215 215 216 215 213 213 213 212 212 212 213 215 216 201 213 219 216 207 215 214 156 51 27 34 27 29 36 36 38 40 65 40 33 31 31 24 67 53 37 30 62 129 140 141 39 19 28 29 68 75 54 65 130 162 166 192 180 93 36 34 37 21 27 20 28 51 149 190 220 216 217 217 216 214 213 213 214 215 209 214 212 189 156 216 211 209 202
217 216 214 213 213 214 215 214 215 215 215 214 214 213 212 211 199 210 214 212 210 211 208 137 54 36 28 24 31 30 30 36 79 22 44 52 26 25 22 49 85 26 35 69 135 160 120 102 25 36 53 64 104 78 38 61 128 172 194 186 142 78 34 67 19 42 39 43 57 120 207 203 211 212 213 214 214 214 215 217 212 210 208 205 196 160 217 219 208 201
220 219 219 218 219 219 219 218 214 214 213 214 215 216 217 217 204 213 210 210 213 202 194 120 47 29 30 29 22 36 44 22 36 27 41 41 51 30 55 57 73 30 43 73 154 147 105 143 46 41 58 51 141 146 132 136 143 173 188 187 180 147 77 32 27 28 26 37 111 126 191 216 215 217 218 218 216 214 213 212 212 215 212 211 194 162 211 209 209 203
214 215 216 218 218 215 211 209 213 210 207 206 207 209 211 213 195 207 211 208 208 204 186 85 36 28 34 16 24 52 36 29 29 27 50 55 47 32 38 53 27 31 42 67 137 152 118 116 81 98 42 30 90 161 171 134 121 151 181 176 182 156 122 36 40 35 133 98 184 191 185 208 203 205 206 207 206 205 204 204 203 194 193 192 148 148 218 217 211 204
194 192 189 188 187 185 184 184 184 184 184 185 186 186 184 182 178 201 205 201 204 199 169 75 47 31 34 27 21 45 45 31 23 30 30 56 77 33 29 71 76 36 50 52 73 150 100 95 155 143 69 34 62 134 176 163 114 119 138 180 184 171 144 44 34 31 69 148 176 174 182 184 194 195 197 199 201 204 207 208 209 208 210 213 176 178 214 208 209 202
165 160 155 152 151 151 153 155 172 174 178 183 186 185 181 178 187 204 201 198 199 188 150 77 46 50 31 34 33 34 40 36 28 29 38 68 28 40 21 35 77 111 44 54 99 142 165 171 187 173 92 55 44 135 136 126 156 158 105 160 178 179 136 102 69 88 113 177 211 212 208 212 215 215 214 214 215 216 217 217 212 217 213 215 214 212 216 217 207 201
222 220 218 219 218 216 215 216 219 217 215 214 214 212 209 206 204 197 199 203 193 194 160 72 33 32 32 32 24 30 27 31 22 26 35 37 101 33 36 66 61 73 88 73 76 119 175 167 149 154 121 45 32 53 110 122 139 145 100 158 170 173 146 139 113 165 217 220 216 217 216 220 217 217 218 219 219 218 217 216 221 216 216 216 220 216 214 214 209 203
223 223 222 221 220 219 220 222 218 216 214 215 214 211 209 208 200 200 198 198 194 189 137 75 41 41 42 60 26 28 22 32 23 34 52 30 72 56 35 51 79 124 75 90 91 93 127 175 167 84 54 49 35 28 59 80 68 135 165 160 171 150 140 157 143 109 160 197 217 212 222 219 220 217 216 218 219 219 219 220 217 218 218 214 213 217 219 215 210 207
222 222 221 220 219 218 218 219 219 218 215 213 212 211 206 200 207 198 199 195 184 193 125 71 37 29 25 49 31 38 43 26 27 37 49 34 54 40 27 58 57 121 128 135 146 82 100 151 164 124 42 42 41 24 28 41 61 145 144 170 161 122 129 168 161 109 95 117 149 221 214 213 215 216 222 222 217 219 222 218 219 216 219 223 220 215 213 212 209 205
225 225 224 223 221 220 220 220 216 217 215 211 209 210 210 207 190 197 188 189 187 181 150 84 44 41 29 26 38 23 68 37 23 36 41 32 67 60 29 31 74 101 147 149 142 55 73 125 160 134 39 24 23 30 26 38 54 85 149 170 129 80 124 158 158 110 82 93 96 128 187 214 221 218 216 217 219 218 218 220 220 215 216 219 216 214 216 218 214 209
223 224 224 222 221 220 219 218 218 216 212 208 205 203 199 195 200 185 182 180 180 179 141 87 67 44 30 28 47 35 36 40 36 31 33 50 68 63 40 47 76 121 130 142 138 78 96 139 124 146 47 26 34 23 23 28 47 73 103 106 43 71 87 146 126 105 82 74 82 104 138 179 213 224 220 215 223 221 215 221 221 220 220 218 216 218 217 212 210 204
222 223 222 220 219 219 218 216 216 211 207 208 210 207 199 193 185 192 181 182 170 178 150 89 57 56 41 24 42 24 62 55 24 33 49 25 86 43 43 55 69 77 80 113 91 55 46 121 140 133 42 24 22 19 19 24 26 43 38 25 32 41 65 111 94 79 98 128 151 159 170 170 170 197 216 219 219 222 221 218 218 215 215 216 217 220 218 212 212 206
222 223 222 220 219 220 219 216 215 213 210 206 202 198 195 193 186 180 175 176 169 145 127 66 49 48 37 46 34 55 70 43 41 33 43 37 33 47 70 45 88 62 43 60 51 66 43 63 80 139 40 20 23 18 26 15 27 26 29 26 41 36 69 83 106 136 145 150 176 178 195 184 176 175 201 223 215 209 210 200 201 179 159 150 147 152 163 172 172 167
203 203 202 198 197 199 198 195 186 193 195 191 188 188 183 175 185 165 129 119 87 50 90 76 62 43 37 62 35 24 63 57 53 32 54 70 47 46 75 51 65 78 35 58 61 55 70 91 148 109 31 20 21 19 18 25 18 33 46 23 33 68 117 136 147 143 155 172 171 198 188 195 180 159 170 206 222 220 220 219 222 213 213 219 220 216 216 218 217 213
213 213 211 206 206 207 206 203 193 198 197 189 185 174 143 110 105 91 68 45 32 114 97 65 56 40 49 65 36 50 65 81 61 38 54 62 63 50 77 54 52 41 32 35 24 37 49 82 76 28 23 18 24 22 17 21 20 25 42 42 30 60 123 149 155 162 164 154 160 172 182 176 170 167 159 178 215 223 213 218 219 216 215 212 208 207 208 205 206 203
212 209 211 209 207 207 203 199 197 204 192 182 183 145 111 111 96 81 60 36 63 118 92 90 56 41 47 60 56 45 103 101 75 44 60 70 63 94 61 43 64 49 28 21 27 28 31 34 24 27 29 23 20 23 20 21 24 21 36 144 182 91 78 133 148 148 150 139 142 152 159 164 164 162 158 164 152 158 145 160 141 151 143 141 136 130 135 126 124 113
157 154 154 153 152 149 145 142 134 127 139 127 124 123 121 115 92 68 39 25 101 106 100 78 59 49 48 55 47 54 44 87 98 42 42 64 49 30 33 54 48 32 37 32 20 34 69 48 49 43 51 39 43 28 21 49 41 49 84 66 153 72 36 109 104 128 120 130 119 133 143 143 153 158 164 161 183 210 212 211 209 214 210 212 210 206 209 206 209 200
194 192 190 190 188 184 180 179 186 168 147 124 128 128 135 115 83 33 22 61 94 103 91 80 62 50 48 68 48 45 123 65 86 80 43 54 43 27 30 53 32 25 34 29 22 43 104 67 96 63 73 75 75 57 123 156 166 147 45 47 47 23 29 171 112 88 109 107 121 114 125 136 145 159 177 172 197 217 220 218 220 218 218 221 220 217 216 217 213 206
219 219 216 216 213 209 208 205 191 130 133 139 142 146 136 124 75 140 146 114 100 101 100 80 49 41 60 66 65 57 55 58 52 35 39 63 61 48 77 40 45 29 41 26 36 75 123 114 62 92 84 55 52 54 51 65 128 200 197 78 24 36 25 174 37 64 70 75 94 102 114 128 155 164 169 169 191 220 220 219 220 217 218 218 217 216 212 213 212 205
217 217 213 213 209 207 207 194 113 124 128 135 155 162 148 128 90 138 134 82 92 103 92 87 63 46 50 88 58 49 66 79 30 27 33 91 107 62 52 54 44 48 49 58 64 87 119 98 120 92 73 134 201 212 188 113 41 161 183 155 93 93 81 130 25 44 38 41 61 81 107 137 149 166 173 168 178 218 221 218 219 219 220 217 217 219 215 215 210 203
220 219 215 216 209 210 204 171 71 96 105 97 143 142 105 139 82 130 74 78 95 95 85 83 65 43 37 46 38 46 88 80 54 55 26 79 89 120 102 91 76 65 97 118 207 141 172 183 126 101 147 183 214 209 61 103 98 81 169 174 131 118 157 113 29 32 24 27 32 79 89 118 125 137 154 159 166 205 218 219 217 219 219 217 216 216 216 213 213 205
218 215 211 212 205 206 190 132 99 96 113 110 142 146 144 136 120 90 61 81 79 77 87 81 67 49 43 27 41 58 27 49 48 47 34 68 82 113 136 143 183 131 200 195 204 198 220 213 188 133 95 97 186 67 125 131 108 141 177 169 167 149 153 107 140 167 103 68 130 98 107 188 177 144 116 126 141 208 222 221 215 219 215 218 216 211 216 214 213 205
218 213 210 212 203 204 179 104 86 58 105 113 148 155 155 125 137 82 57 77 84 75 79 80 75 60 45 40 41 60 57 65 44 102 53 31 94 193 222 214 185 146 210 197 189 146 219 214 211 176 70 67 137 147 113 119 147 188 189 126 118 138 154 68 69 50 41 41 59 110 154 179 169 118 51 59 72 187 209 208 210 213 208 217 216 207 216 216 215 206
213 208 205 200 188 190 170 109 100 63 97 119 100 112 95 107 120 69 55 70 76 79 80 79 71 65 62 32 43 99 51 99 59 111 80 80 66 212 229 223 167 134 210 184 75 139 184 202 213 196 131 129 157 153 156 129 171 180 116 137 185 187 182 33 41 29 30 25 57 101 155 205 185 75 99 87 47 145 158 166 161 159 162 162 154 109 190 215 213 208
149 148 143 139 130 127 124 104 84 64 81 60 38 74 131 154 98 30 41 73 74 74 69 74 73 67 68 71 48 94 57 80 77 105 127 136 113 220 225 212 144 108 195 107 26 63 156 149 175 181 192 139 138 180 178 159 156 111 150 175 120 70 93 47 65 149 68 128 140 132 181 192 188 110 148 47 60 182 194 186 173 172 175 173 167 119 189 212 212 207
208 208 199 197 196 187 184 185 175 168 168 110 34 87 162 178 147 70 41 67 76 71 72 71 63 62 64 90 70 111 112 129 145 149 155 148 141 184 169 150 100 70 175 88 59 89 156 124 114 97 171 85 124 163 190 194 197 158 155 130 134 130 145 163 141 146 170 145 139 153 139 135 147 155 98 45 47 189 210 215 216 211 213 209 206 149 195 211 210 205
208 209 200 195 197 191 181 176 181 174 120 51 44 111 136 172 185 125 66 44 63 70 58 74 106 119 128 144 145 147 149 155 154 152 147 136 104 106 132 101 109 91 174 75 145 150 157 158 106 117 153 74 86 131 165 188 192 175 149 145 137 118 106 105 133 145 156 151 133 143 102 119 152 148 82 95 163 199 226 210 220 216 219 213 215 156 192 210 208 204
203 202 199 192 187 187 183 178 171 160 116 69 98 127 128 153 174 183 135 141 178 175 175 170 163 168 166 153 159 147 149 154 142 143 131 129 96 77 109 81 89 81 149 89 151 186 195 212 211 219 205 165 131 134 130 136 141 108 78 84 117 134 165 177 146 167 167 180 150 167 176 174 160 128 76 189 180 213 220 225 217 215 217 209 209 151 192 217 209 204
204 195 195 190 182 181 179 177 169 173 134 92 59 56 98 148 153 172 173 180 190 182 175 174 172 168 168 157 151 146 143 140 123 131 120 108 76 45 53 66 91 112 126 95 83 116 108 116 171 205 203 205 129 128 82 67 49 45 64 115 106 140 139 168 199 193 179 144 153 163 179 187 178 140 93 192 149 174 213 215 223 217 214 211 214 153 191 208 210 206
205 195 193 187 183 181 173 171 168 166 159 150 78 74 114 130 106 89 79 109 136 149 163 156 154 146 143 136 123 118 113 108 100 80 76 72 51 41 40 51 96 128 150 125 54 41 46 57 72 51 57 58 44 34 23 38 38 41 93 173 30 60 100 155 160 157 104 137 176 179 201 205 165 138 94 202 147 102 224 216 217 213 209 213 219 157 199 210 210 205
145 145 143 131 130 132 122 124 120 122 112 101 104 105 105 114 78 55 57 57 46 41 41 55 56 54 51 50 53 46 47 48 43 47 43 36 36 28 22 50 92 109 108 146 134 112 31 28 27 22 24 20 21 25 20 58 131 47 74 198 169 32 63 143 188 121 178 117 185 201 168 153 174 189 205 63 151 158 191 201 200 202 199 200 197 134 191 210 208 204
189 185 179 172 165 158 152 148 147 141 134 127 123 123 119 111 94 48 31 35 30 29 28 28 33 26 23 27 34 52 44 46 38 41 38 42 30 22 38 20 39 55 66 51 64 25 27 27 23 20 24 21 20 30 34 72 102 94 75 186 172 44 91 157 167 190 161 192 199 156 164 210 210 206 193 170 210 212 213 215 213 218 215 216 215 168 200 214 208 204
192 189 183 179 175 172 170 168 167 159 153 149 145 146 148 147 118 46 55 48 41 46 58 61 68 59 34 35 52 63 68 73 88 79 78 56 40 34 29 28 25 24 29 38 32 24 33 35 27 25 29 22 19 34 40 37 28 28 48 174 195 100 129 141 135 136 208 202 185 210 208 200 196 184 188 190 219 149 210 219 216 217 212 214 214 166 196 210 210 206
194 190 184 179 175 171 168 165 160 153 152 155 154 151 148 145 104 50 62 79 65 76 67 99 101 92 28 41 50 64 63 82 80 110 104 78 59 42 43 22 38 31 41 43 42 38 52 41 28 30 44 24 23 27 51 20 26 41 41 159 198 129 155 125 148 202 149 203 206 181 195 212 203 181 182 137 221 150 153 219 215 216 211 212 211 162 196 214 209 205
189 185 180 176 173 170 166 163 161 155 151 151 147 146 146 145 95 66 75 122 68 78 103 80 95 106 50 46 58 77 79 98 100 108 107 90 72 56 53 47 49 54 64 44 55 51 58 40 43 31 72 23 19 38 68 25 53 97 51 127 212 129 147 134 128 158 181 184 190 176 179 199 209 192 193 183 187 193 152 217 215 217 215 219 217 165 196 212 208 204
191 186 180 176 173 170 166 163 155 155 154 149 142 143 147 146 110 77 76 79 85 69 68 68 54 91 89 40 60 67 85 93 95 108 112 107 78 67 80 77 67 80 82 65 66 75 71 55 45 37 30 29 20 42 95 27 29 105 58 66 222 189 172 159 143 152 204 185 158 193 182 170 183 141 107 85 140 208 138 219 219 218 210 212 212 164 195 210 209 205
179 173 164 158 154 152 149 147 143 141 140 138 139 143 141 134 105 62 82 61 68 59 64 86 77 76 78 42 72 71 62 49 84 111 102 100 68 75 108 96 83 89 101 90 87 87 74 48 39 50 54 37 15 14 120 29 22 33 65 61 227 168 168 182 150 134 165 202 174 126 202 189 192 123 41 70 88 51 202 207 199 209 211 213 209 158 191 209 209 206
179 174 167 162 160 159 156 154 151 141 133 131 133 139 142 139 110 82 63 72 66 82 102 66 51 35 40 44 54 59 59 72 87 82 92 104 86 99 75 79 91 98 102 88 96 97 72 46 67 65 37 35 25 26 20 43 28 21 26 84 205 168 182 188 147 127 119 188 178 209 201 153 87 97 104 132 104 77 207 187 191 197 189 181 176 137 186 214 209 205
182 178 172 167 162 156 149 144 145 142 142 139 130 126 132 139 119 86 69 79 64 64 53 58 67 35 32 30 34 39 51 56 63 73 84 102 82 88 59 71 81 102 68 57 68 103 66 64 76 75 67 42 22 28 36 42 43 73 28 43 169 75 167 172 155 111 118 168 197 95 225 189 193 180 208 195 188 188 186 216 205 209 202 200 203 163 198 210 209 206
180 176 172 170 167 162 157 155 149 150 141 139 142 140 137 134 84 73 71 72 64 58 56 93 112 109 66 25 36 41 40 40 49 56 77 69 63 75 51 61 85 84 87 72 47 37 69 103 91 92 74 52 25 21 28 32 25 65 48 41 107 186 79 139 132 165 138 135 199 47 121 165 199 191 200 198 217 221 223 212 209 211 209 209 203 160 205 211 207 205
183 179 175 172 170 164 159 157 157 152 147 144 141 137 140 106 68 84 83 75 60 44 65 94 103 89 70 67 34 28 29 39 36 48 59 56 41 51 60 49 50 65 75 85 40 51 97 124 104 84 78 48 27 15 22 39 81 105 44 26 121 198 78 88 115 172 157 128 156 175 162 172 156 214 219 199 218 226 221 213 218 207 203 213 205 155 192 205 207 205
180 176 173 171 169 164 159 157 153 147 146 144 141 138 142 79 42 78 76 58 72 101 37 81 58 100 110 121 102 71 23 25 41 30 25 34 32 26 40 35 44 57 49 36 30 96 107 109 124 115 56 43 28 23 29 51 78 80 25 25 108 153 73 81 134 150 170 122 132 180 197 160 194 209 219 231 218 218 234 221 194 214 209 200 207 156 195 212 208 206
181 177 173 172 171 167 162 160 154 149 144 140 138 135 116 53 48 58 32 78 69 113 73 44 58 77 118 134 130 134 116 71 32 23 31 20 25 32 39 51 45 41 52 51 23 112 132 108 117 99 96 54 25 27 36 42 31 21 28 60 87 80 45 64 144 148 134 109 52 131 201 96 204 211 216 227 216 212 227 229 171 211 209 197 210 148 192 204 207 205
164 159 155 154 152 148 142 139 135 138 129 128 134 132 90 57 57 32 63 46 107 69 71 39 65 68 94 100 120 129 139 137 120 78 66 35 30 42 39 43 57 75 70 40 77 83 123 112 78 74 98 49 28 27 25 33 58 21 25 33 29 24 25 43 68 104 69 95 141 116 98 78 182 202 207 199 211 220 223 227 198 224 204 204 197 131 184 210 205 203
173 167 162 160 157 152 146 141 135 137 125 122 120 109 59 50 46 42 66 41 90 45 56 30 73 56 75 92 101 103 113 127 131 140 131 116 122 88 49 67 99 68 32 69 126 141 143 143 122 90 93 69 24 25 31 21 39 20 25 32 40 43 34 37 34 39 55 64 127 127 57 104 161 176 200 196 196 208 210 196 186 220 168 170 184 161 185 206 204 202
174 168 163 160 157 152 145 140 138 132 126 126 109 88 60 56 47 53 49 36 54 43 49 33 77 39 44 66 81 98 105 108 121 120 124 126 127 150 163 157 131 62 51 107 145 155 138 149 138 84 79 47 30 27 24 36 40 35 20 18 24 27 19 24 22 23 23 17 22 41 65 52 98 153 187 191 191 209 224 231 168 219 208 205 204 188 191 210 204 202
188 182 177 175 173 168 161 157 154 139 138 137 104 74 67 56 49 50 49 52 48 48 34 47 52 28 39 46 56 60 71 89 98 106 113 115 119 140 147 167 183 188 172 159 167 175 174 182 166 102 39 40 23 31 29 27 37 45 23 24 26 31 25 21 24 21 21 23 22 23 23 22 51 91 96 111 109 129 165 200 139 124 164 203 205 188 200 203 204 202
191 184 181 179 172 166 162 158 152 145 141 116 73 66 75 62 55 49 51 43 45 37 30 27 35 22 31 28 30 36 44 49 57 65 76 86 99 123 144 152 167 194 193 187 191 184 190 184 178 173 50 17 30 28 20 30 40 31 28 15 43 99 40 21 23 22 22 22 22 22 23 23 28 30 28 25 28 33 41 49 46 29 88 194 198 194 192 206 203 200
191 184 181 179 175 170 164 158 152 144 132 82 59 62 66 68 55 57 46 47 49 27 34 41 26 27 23 27 27 26 22 29 32 36 42 52 69 97 132 158 150 169 186 192 183 188 186 200 175 155 69 29 22 32 22 30 20 46 25 23 14 20 23 24 24 24 24 23 23 23 23 23 27 29 28 25 25 24 26 30 26 38 26 167 201 189 197 202 203 200
193 188 183 180 175 171 164 155 146 140 115 72 80 76 69 68 75 59 64 56 47 44 43 49 25 39 32 36 44 28 25 29 30 29 28 32 45 63 92 124 139 160 149 167 170 181 188 182 186 163 92 28 25 26 22 34 37 42 16 20 25 23 24 20 24 24 23 23 22 22 22 22 19 23 23 25 27 27 26 28 31 33 50 174 199 199 188 205 202 200
191 186 181 174 167 162 154 144 135 129 90 77 100 87 88 84 72 69 80 67 69 65 44 67 29 42 41 36 49 23 38 39 36 42 41 33 26 22 39 69 77 112 137 132 178 160 155 176 175 147 106 20 21 23 24 35 28 28 26 16 19 25 18 24 23 23 22 22 22 22 22 22 24 25 24 25 27 26 25 27 34 20 35 51 189 131 171 203 201 199
180 176 171 162 151 144 137 128 120 114 90 96 105 91 92 88 90 75 75 84 75 67 66 70 44 52 57 47 48 28 51 49 50 43 28 24 30 27 21 26 53 80 120 141 137 167 170 163 150 74 62 22 25 33 24 34 38 38 24 17 22 23 26 22 22 23 23 23 23 23 23 23 25 25 23 23 26 24 23 25 25 37 30 27 67 193 179 196 201 199
192 188 184 176 164 156 149 142 136 107 93 88 81 86 90 94 79 92 97 96 91 83 75 93 49 57 69 67 51 46 52 45 35 37 32 29 28 24 22 26 42 96 125 121 153 151 163 160 125 69 30 25 20 30 33 35 31 31 21 20 19 13 20 21 21 21 22 22 23 23 23 23 21 22 22 25 29 28 27 30 40 117 31 32 44 154 181 196 201 199
194 189 185 181 170 160 151 144 137 96 91 80 60 47 41 40 41 54 90 103 87 81 75 98 65 68 84 77 64 72 60 51 35 32 28 27 24 21 20 22 47 33 81 114 140 169 154 121 33 42 25 27 23 31 34 16 24 19 18 21 22 24 19 22 20 20 21 21 21 21 21 21 24 25 25 27 30 27 27 32 33 60 37 33 23 113 178 195 200 199
192 186 183 181 172 160 150 142 115 82 90 98 85 56 69 76 83 55 40 89 109 90 86 105 78 68 81 57 57 71 57 52 49 39 32 28 20 17 24 32 100 118 70 51 90 130 85 53 95 22 22 23 26 30 18 20 16 23 18 22 17 18 22 21 21 22 22 22 22 22 21 21 21 21 20 23 26 25 28 34 29 23 34 31 31 49 143 203 198 197
196 191 184 177 169 158 149 145 121 53 57 58 65 66 61 69 69 64 61 62 101 90 85 112 93 115 81 67 86 77 75 55 32 38 23 23 23 26 16 65 123 164 155 67 32 46 117 47 25 24 23 22 23 23 23 23 23 22 22 22 22 20 20 20 22 23 23 22 21 22 22 22 24 24 26 27 25 26 27 23 27 28 35 37 28 32 134 199 198 196
196 191 184 177 168 158 150 145 111 28 23 22 24 24 25 37 69 83 39 54 55 90 72 106 86 85 81 83 77 42 37 43 52 50 37 34 23 20 25 107 149 168 152 120 44 35 53 29 25 24 23 22 23 23 23 23 24 23 22 23 22 21 20 21 22 23 23 22 21 22 22 22 24 24 26 27 25 26 27 23 23 28 27 31 27 32 151 203 198 196
