P2
90 90
255
255 255 255 255 255 146 217 250 255 255 255 255 255 255 255 255 255 255 255 255 255 255 255 255 255 255 255 255 255 255 249 239 227 214 188 159 120 81 56 41 34 37 28 31 32 0 50 5 0 55 9 0 0 0 0 0 0 0 0 0 2 6 1 0 1 0 0 0 1 1 3 10 6 3 6 6 7 0 0 3 7 5 13 6 6 0 0 0 0 0 
255 255 255 255 230 158 255 255 245 223 255 255 255 255 255 255 255 255 255 255 255 255 255 255 255 255 255 255 255 255 253 244 234 211 194 165 132 101 61 38 30 35 34 34 31 28 0 0 48 0 44 0 6 14 0 0 0 0 1 0 0 6 1 1 1 1 0 0 3 6 2 9 5 4 6 2 6 0 1 14 3 13 10 0 0 9 3 0 0 0 
255 255 255 255 255 163 255 255 255 222 200 253 255 255 255 255 255 255 255 255 255 255 255 255 255 255 255 255 255 255 255 248 228 214 192 173 151 111 64 39 33 34 29 32 33 0 13 40 0 22 0 8 5 8 24 0 0 0 0 0 0 0 0 0 0 1 0 0 10 2 4 7 1 4 10 4 3 2 4 12 3 6 3 12 5 5 0 0 3 1 
255 255 255 255 210 170 255 255 255 255 188 160 215 255 255 255 255 255 255 255 255 255 255 255 255 255 255 255 255 255 255 242 221 211 187 170 160 121 66 40 28 29 29 27 35 6 0 0 28 22 0 16 7 0 18 25 0 0 0 0 0 0 0 3 0 1 0 0 5 3 6 3 4 2 6 6 8 5 1 8 0 4 8 16 2 0 3 3 2 0 
255 255 255 245 255 198 255 251 240 238 212 160 137 205 255 255 255 255 255 255 255 255 255 255 255 255 255 255 255 255 255 233 216 201 185 173 164 135 75 42 33 28 30 28 33 26 0 0 30 0 0 22 15 0 3 11 14 0 0 0 0 0 0 0 0 0 0 0 2 4 0 7 10 3 0 0 13 10 1 6 1 0 12 20 5 0 0 3 3 1 
255 255 255 255 255 227 253 191 227 238 239 210 172 149 224 255 255 255 255 255 255 255 255 255 255 255 255 255 255 255 255 236 214 197 185 168 163 137 80 44 31 33 32 28 30 0 30 51 0 66 0 14 3 0 3 2 8 10 0 0 0 0 3 1 6 0 0 1 1 0 0 2 4 6 0 5 12 5 6 5 6 0 11 15 1 2 2 2 0 0 
255 255 255 255 181 203 175 128 187 244 255 255 242 187 185 255 255 255 255 255 255 255 255 255 255 255 255 255 255 255 254 231 216 201 188 174 160 133 83 44 39 32 33 30 28 36 0 0 61 9 0 14 0 0 0 0 5 20 10 0 0 0 0 5 1 2 7 3 0 0 0 0 4 3 0 1 5 5 5 6 8 4 8 17 2 0 1 1 2 0 
255 255 255 224 255 200 133 127 103 146 222 255 255 221 202 255 255 255 255 255 255 255 255 255 245 251 255 248 240 231 228 220 214 197 187 165 151 132 92 48 36 34 31 33 31 0 12 30 0 3 22 11 0 0 0 0 0 8 8 6 0 0 0 3 0 4 8 6 6 0 1 0 2 1 0 1 1 5 3 1 7 7 5 10 5 2 5 0 0 0 
255 255 255 255 255 255 251 201 142 141 147 222 248 219 226 255 255 255 255 255 255 255 230 193 182 174 165 168 172 170 180 189 193 184 174 165 147 126 99 48 35 31 31 30 28 0 4 40 0 5 5 14 13 14 0 0 0 1 7 0 0 0 2 1 2 7 7 10 16 0 4 0 0 0 0 0 1 3 0 5 5 0 1 10 12 6 4 0 0 3 
255 255 255 255 255 255 255 233 195 192 224 230 195 196 222 255 255 255 255 255 255 214 165 124 106 85 82 82 86 95 109 124 141 140 145 155 140 116 99 55 37 31 31 28 32 30 0 0 57 0 0 8 0 21 0 0 17 0 0 0 0 0 6 6 1 3 13 13 16 6 2 0 0 0 0 1 0 0 3 0 0 5 8 11 5 0 0 1 5 1 
255 255 255 234 255 255 255 232 226 240 255 255 217 183 215 255 255 255 255 255 221 165 120 88 85 83 81 77 85 97 113 126 126 119 105 118 126 108 92 61 36 31 30 29 30 0 46 49 0 0 5 5 5 13 0 0 12 9 3 0 0 0 5 8 13 10 17 17 4 1 0 0 1 0 0 0 0 0 9 1 0 0 7 6 6 2 3 1 0 0 
255 255 255 255 255 255 255 238 217 245 255 255 248 204 228 255 255 255 255 253 194 137 94 75 80 85 80 85 101 121 147 175 181 170 140 110 95 97 86 70 42 35 27 31 31 32 0 14 31 0 0 7 21 0 0 0 0 9 7 2 0 0 8 11 12 19 19 9 0 1 0 0 0 0 0 0 0 0 12 10 1 0 7 1 5 3 0 0 0 2 
255 255 255 255 255 255 255 255 225 200 203 238 255 255 255 255 255 255 255 231 162 109 77 77 86 85 101 152 181 191 181 178 188 185 170 136 98 79 73 67 51 38 31 30 33 0 21 0 2 0 0 11 10 3 0 0 0 0 0 0 0 1 5 19 15 16 13 1 0 0 0 0 0 5 0 3 0 0 5 9 15 12 0 0 2 12 3 0 0 5 
255 255 255 255 255 255 255 255 255 252 232 238 247 255 255 255 255 255 255 201 137 92 80 92 106 101 97 152 208 239 223 170 159 158 155 150 123 96 70 66 46 39 30 34 34 8 2 65 0 0 0 3 4 16 0 2 0 0 0 0 0 8 12 19 18 20 8 0 0 0 5 0 0 6 0 17 6 0 1 1 1 5 8 3 0 8 2 5 1 0 
246 255 255 255 255 255 255 255 255 255 255 255 255 255 255 255 255 255 249 170 113 84 92 128 142 101 113 140 138 160 178 159 133 111 126 135 131 112 91 67 56 49 41 33 34 1 0 0 0 0 1 2 5 3 3 5 0 0 0 0 0 5 17 19 16 9 0 0 0 11 10 0 0 43 0 4 4 8 3 0 2 2 5 8 4 13 2 2 0 0 
255 255 255 255 255 255 255 255 255 255 255 255 255 255 255 255 255 255 216 141 102 96 107 160 164 147 173 141 146 123 140 96 95 86 85 110 121 113 100 78 70 63 48 38 36 0 59 0 0 0 0 1 5 0 3 10 3 0 0 0 5 5 17 21 13 6 0 0 0 21 1 13 3 8 0 14 9 1 4 0 0 0 0 5 0 5 2 0 1 5 
255 255 255 255 255 255 255 255 255 255 255 255 255 255 255 255 255 255 181 124 107 111 117 156 212 208 220 171 168 176 188 109 60 64 67 83 100 109 96 85 75 66 64 46 39 26 0 43 2 0 0 3 9 5 3 3 0 0 0 0 0 15 21 20 6 0 0 0 0 9 0 14 13 0 0 25 18 4 5 0 0 4 0 1 0 5 9 1 1 3 
255 255 255 255 255 255 255 255 255 255 255 255 255 255 255 255 255 217 147 121 123 118 133 166 217 222 222 211 215 238 211 138 76 49 54 64 85 93 95 89 87 80 73 63 48 0 12 0 0 0 0 0 0 2 5 0 0 5 0 0 1 21 23 16 2 0 5 0 0 2 0 5 8 0 0 26 12 5 0 0 0 0 1 0 8 0 0 2 6 5 
255 251 255 255 255 255 255 255 255 255 255 255 255 255 255 255 255 170 134 134 133 133 146 181 223 218 210 203 214 214 190 139 83 54 55 65 80 93 97 101 105 88 82 73 58 7 15 9 0 0 0 0 5 0 0 3 3 0 0 7 17 23 18 0 0 0 6 0 0 2 0 0 1 0 13 12 10 6 0 0 0 2 0 0 0 0 2 9 8 8 
222 255 255 255 255 255 255 255 255 255 255 255 255 255 255 255 214 155 142 146 142 142 155 182 215 241 232 204 162 147 135 111 88 66 61 85 105 115 125 128 120 105 90 78 67 0 0 23 6 0 0 1 0 0 0 0 5 0 0 7 26 19 5 0 3 3 0 0 0 1 0 13 6 0 5 0 9 9 6 0 0 2 0 0 0 4 8 6 1 9 
255 255 255 255 255 255 255 255 255 255 255 255 255 255 255 255 186 150 154 156 148 151 164 177 206 241 255 235 198 160 138 121 107 92 83 96 132 153 160 155 135 108 94 82 69 0 45 0 0 0 0 1 0 0 2 1 3 0 6 20 18 12 0 3 0 0 0 0 0 0 0 2 14 3 2 8 7 5 0 6 0 0 0 5 3 0 2 4 5 4 
250 251 255 255 255 255 255 255 255 255 255 255 255 255 255 218 173 154 155 155 146 152 167 184 208 232 255 255 250 221 185 158 145 128 123 106 143 177 179 165 142 114 91 81 83 34 0 18 0 0 0 0 0 6 0 2 0 0 15 18 12 8 1 0 0 3 0 0 0 0 0 0 5 11 2 4 0 3 0 6 2 0 0 5 2 8 3 0 1 0 
247 255 255 255 255 255 255 255 255 255 255 255 255 255 255 204 170 154 158 152 145 154 173 188 206 231 255 255 255 255 230 205 176 155 153 148 165 175 176 156 134 104 90 80 83 0 0 6 10 0 0 0 0 0 2 1 2 1 15 19 10 6 1 1 7 5 0 0 0 0 0 0 0 7 8 9 8 9 0 0 3 0 0 6 3 7 10 7 10 2 
255 230 255 255 255 255 255 255 255 255 255 255 255 255 246 201 169 153 146 145 142 160 180 200 211 232 255 255 255 254 243 223 205 193 189 183 184 175 165 145 124 102 86 75 75 13 23 0 2 0 0 0 0 1 0 0 2 5 14 18 10 7 0 0 1 0 0 0 0 0 0 0 0 5 3 1 7 9 3 0 2 3 6 5 3 8 6 0 6 5 
216 255 255 255 255 255 255 255 255 255 255 255 255 255 219 192 152 133 124 131 143 166 197 206 220 240 255 255 255 253 245 232 218 213 207 197 185 174 151 136 111 96 82 78 112 15 0 28 0 0 0 0 0 0 0 0 0 15 15 10 8 9 1 0 0 0 0 0 0 0 0 0 0 6 3 2 6 1 3 0 0 6 6 5 5 6 8 0 0 0 
255 255 239 255 255 255 255 255 255 255 255 255 255 224 191 170 128 111 101 108 140 174 206 217 230 250 255 255 255 255 252 242 227 213 203 193 180 160 142 117 100 82 73 73 152 0 42 0 1 1 2 0 0 0 0 2 9 19 14 10 10 6 0 0 0 0 0 0 0 0 0 0 0 5 1 1 6 0 0 1 3 11 1 0 4 4 5 5 0 0 
255 221 255 255 255 255 255 255 255 255 255 255 247 195 167 155 126 121 100 95 130 181 213 231 242 255 255 255 255 255 248 241 220 208 188 173 157 138 123 104 91 78 67 58 145 28 0 0 0 3 0 0 0 0 0 9 24 19 9 8 6 8 0 3 0 0 0 0 3 0 0 0 0 2 2 1 10 5 2 1 4 2 5 6 2 5 2 6 8 0 
206 255 255 255 255 255 255 255 255 255 255 255 203 163 153 145 132 137 110 87 124 189 220 232 244 255 255 255 255 250 242 232 207 191 166 152 135 121 109 90 81 71 70 105 255 0 0 3 5 2 0 0 0 0 2 0 21 10 5 5 0 6 0 13 0 0 0 0 0 0 0 5 0 1 3 4 5 6 8 1 2 2 6 5 0 4 5 0 0 0 
255 230 255 255 255 255 255 255 255 255 220 188 147 126 119 112 112 126 101 81 128 190 223 240 242 255 255 255 248 240 231 214 192 170 149 134 116 106 90 78 71 65 59 140 192 0 26 0 0 0 0 3 0 0 24 1 16 12 6 1 0 0 0 14 0 0 0 0 0 0 0 6 0 6 4 0 8 7 8 4 2 2 8 5 2 6 5 0 0 21 
191 255 255 255 255 255 255 255 255 255 198 141 95 80 77 76 88 101 86 83 155 202 229 240 241 250 255 243 235 227 210 195 171 147 135 120 104 95 80 70 67 58 46 141 212 3 0 14 0 0 0 0 0 4 24 12 12 5 0 5 0 0 2 8 0 0 0 0 0 0 0 8 2 0 0 6 5 0 3 2 5 8 2 0 5 5 5 3 0 0 
231 255 255 255 255 255 255 255 255 255 255 166 103 83 66 68 75 79 72 101 198 228 232 232 231 228 240 230 222 212 193 169 155 137 121 110 94 85 73 68 62 56 103 255 198 0 0 8 6 0 0 0 0 4 0 19 27 8 0 6 2 0 3 0 0 0 0 0 0 0 0 9 1 0 1 11 5 3 7 3 9 1 0 2 3 0 0 0 0 40 
241 255 255 255 255 255 255 255 255 255 255 224 143 100 80 71 62 61 80 146 222 240 233 227 220 213 223 222 210 193 181 151 138 131 112 99 85 78 68 64 55 48 125 166 117 85 0 0 0 1 0 4 3 0 6 8 21 12 10 5 1 0 0 0 0 0 2 1 3 5 0 0 2 1 9 3 2 6 5 1 0 0 3 2 1 8 2 0 14 18 
178 255 255 255 255 255 255 255 255 255 255 239 185 133 85 73 71 81 133 195 224 236 230 217 211 208 204 205 196 176 168 142 128 114 102 90 82 74 66 65 51 48 153 202 102 39 0 29 8 0 0 1 1 0 1 9 23 8 12 8 5 0 0 0 0 0 0 2 0 6 0 0 5 3 9 2 0 3 4 3 2 5 0 1 5 2 0 0 5 27 
150 255 255 255 255 255 255 255 255 255 255 255 236 201 135 111 120 151 196 214 221 226 224 215 210 202 194 186 182 163 153 137 121 109 100 85 79 71 65 60 54 120 255 178 69 0 0 0 13 1 2 8 0 0 0 6 23 0 13 13 5 0 0 0 0 0 0 3 2 1 5 2 0 1 4 2 7 3 8 8 2 0 0 0 5 0 0 1 40 16 
245 196 255 255 255 255 255 249 255 255 255 255 255 255 213 177 169 185 208 217 222 225 222 217 211 201 191 180 169 155 145 136 116 104 95 85 80 73 73 62 44 120 158 104 60 0 0 49 14 0 5 18 0 5 0 0 12 0 14 20 5 0 0 0 0 2 0 6 0 0 6 5 3 3 1 6 3 0 3 4 2 3 2 0 4 7 0 11 7 5 
255 124 255 255 255 255 220 193 205 186 213 255 255 255 214 196 182 188 194 209 213 221 217 205 206 201 200 180 160 151 141 127 118 102 93 85 78 76 75 65 75 210 211 81 51 0 0 0 37 5 12 21 0 7 1 0 0 0 10 15 3 3 3 0 0 0 0 0 4 1 4 0 1 6 0 0 7 5 6 5 0 0 5 1 0 0 0 31 13 0 
227 163 255 255 255 255 247 255 242 180 149 180 195 184 149 163 177 184 185 198 205 215 211 206 200 196 196 181 162 152 137 130 112 105 98 85 80 78 70 61 155 246 144 58 84 38 0 33 0 0 5 2 8 8 21 0 0 2 0 8 0 3 4 0 0 0 4 0 1 0 5 2 3 5 0 0 5 5 5 2 0 5 2 5 3 0 10 39 6 0 
160 234 255 255 255 255 255 255 255 255 200 164 141 118 108 103 126 158 170 179 185 204 209 205 190 187 185 175 162 150 137 129 115 107 98 91 85 75 65 49 135 158 84 58 97 22 0 23 55 17 0 0 19 0 11 9 11 6 0 1 0 0 0 0 0 0 2 2 5 0 0 0 6 5 0 7 6 0 0 0 0 0 1 5 8 0 13 16 0 0 
177 255 156 255 255 255 255 255 255 255 255 243 198 152 120 91 88 101 131 154 171 184 206 202 188 185 182 176 160 147 142 127 116 111 98 93 87 75 73 124 242 167 61 58 83 0 0 8 0 37 13 0 16 0 0 11 16 13 6 7 12 0 0 0 0 0 0 0 5 6 0 2 1 1 2 2 3 8 5 4 1 0 1 5 0 0 36 16 0 0 
255 216 158 255 255 255 255 255 252 255 255 255 255 249 198 178 145 119 109 104 116 158 202 203 185 183 174 175 162 147 142 133 123 109 102 92 90 79 64 155 187 93 55 81 91 0 84 13 0 0 0 0 0 14 0 0 0 15 7 9 0 10 17 6 5 0 0 0 3 2 1 2 0 2 5 5 0 3 1 3 0 0 5 8 0 18 17 0 0 0 
255 168 229 255 255 255 255 255 255 232 248 255 255 255 255 255 195 172 149 140 134 145 181 210 188 178 174 172 164 154 141 135 118 107 101 93 87 79 73 153 123 58 55 78 88 0 44 12 12 38 0 0 0 22 0 0 0 0 0 2 0 19 21 0 10 0 0 0 0 1 1 0 5 4 6 3 0 3 0 3 0 1 0 0 0 17 9 0 0 2 
255 199 255 222 255 255 255 255 255 222 191 185 209 246 227 203 157 149 157 158 167 181 181 205 191 186 178 169 165 155 144 127 117 105 94 89 83 76 165 213 97 61 78 88 70 8 0 88 0 0 38 11 3 12 8 2 1 0 0 2 9 5 5 0 0 0 0 2 0 2 1 2 2 1 1 0 2 3 2 2 5 5 9 0 24 21 0 0 3 2 
255 255 246 178 255 227 255 255 255 255 202 168 160 158 148 142 130 141 149 161 173 187 197 201 199 187 174 169 164 153 137 124 111 103 91 92 78 65 133 107 55 65 77 63 45 104 0 141 0 0 0 5 0 9 9 12 3 1 2 8 0 0 0 0 0 2 0 0 0 5 5 5 2 7 1 0 5 3 3 5 0 5 2 0 18 0 0 0 5 0 
255 255 186 255 201 230 255 255 255 255 255 254 205 159 140 132 138 141 152 156 157 168 178 185 193 182 170 161 153 143 132 120 106 98 91 88 74 152 159 73 59 78 59 56 38 95 0 72 38 0 26 0 0 0 0 5 11 17 11 3 1 0 0 0 0 0 0 0 0 1 3 2 1 5 1 2 0 2 5 3 6 8 0 29 11 0 0 11 0 2 
255 255 205 255 180 255 255 255 255 255 255 255 255 255 230 200 183 169 167 157 146 155 155 165 173 168 157 145 139 132 121 110 105 97 92 76 54 153 95 63 77 63 45 41 35 25 0 0 87 0 141 0 0 0 0 0 4 8 5 10 8 7 5 3 7 0 0 0 0 3 1 2 1 12 0 0 1 1 3 4 6 4 0 21 0 0 1 8 0 0 
0 30 0 0 42 0 0 8 16 16 12 5 3 1 2 3 2 1 0 0 0 0 0 0 0 1 0 0 0 0 0 0 0 1 0 0 3 0 0 0 0 1 0 0 2 0 0 9 0 0 0 0 0 0 1 1 0 0 0 3 0 0 0 3 0 0 0 3 0 0 1 2 1 1 0 1 0 0 1 0 0 0 0 1 0 0 0 0 0 3 
45 0 0 56 0 3 0 0 0 16 19 10 4 5 5 2 2 1 0 0 1 1 0 0 0 0 0 0 0 0 2 0 0 0 0 0 0 0 0 1 0 2 0 3 0 0 25 0 0 22 7 0 0 0 0 1 3 0 0 0 2 1 0 1 1 0 0 0 1 1 0 0 0 0 0 0 2 0 0 0 0 0 1 0 0 2 4 2 0 0 
0 5 34 0 13 0 4 2 0 0 15 25 16 9 9 4 2 1 0 0 0 0 1 0 3 1 0 0 0 2 0 0 0 0 0 0 0 0 0 4 1 3 0 1 1 22 0 0 7 0 17 3 2 3 0 0 0 0 2 0 0 2 3 3 0 0 1 0 0 0 0 2 0 1 3 0 1 0 2 0 0 5 0 0 1 0 0 0 0 0 
12 13 0 10 19 0 3 9 8 0 0 15 30 18 6 3 1 2 4 3 1 3 3 0 1 1 0 0 0 0 1 3 1 1 2 0 0 0 0 0 0 1 0 3 2 0 28 20 0 29 0 0 0 0 5 1 0 2 3 1 0 3 0 0 1 1 0 0 1 0 1 1 0 0 1 5 0 1 0 2 1 0 2 2 0 0 1 0 1 1 
20 0 8 28 0 0 5 18 15 13 0 0 3 23 12 6 3 3 3 1 6 5 2 3 6 0 3 4 4 3 1 1 1 1 2 0 0 0 1 0 0 1 0 0 0 33 0 0 28 0 13 3 0 0 0 3 3 0 1 4 0 2 0 4 0 0 0 0 0 1 2 1 0 0 0 0 1 1 1 3 0 0 0 0 1 0 2 3 0 0 
0 34 18 0 29 1 9 11 0 0 0 0 0 0 16 9 1 1 5 2 3 4 7 8 6 4 5 3 1 0 0 0 0 2 0 1 0 0 0 0 1 4 3 1 0 0 11 11 0 0 0 0 7 0 0 4 0 0 0 0 2 1 1 2 2 0 0 0 0 1 0 0 1 0 1 2 0 4 3 0 0 0 0 0 3 6 0 0 0 4 
45 0 0 39 1 13 28 23 31 16 0 0 0 0 4 8 3 4 4 3 6 8 5 5 9 8 6 7 7 8 2 0 0 0 0 0 0 0 0 0 0 0 0 0 4 0 8 5 0 23 0 4 0 0 4 1 4 0 3 0 3 0 0 0 4 0 0 0 2 2 0 0 1 1 0 1 0 0 0 0 0 0 0 0 0 0 0 0 2 0 
0 4 28 0 0 0 0 0 0 22 32 15 0 0 0 0 0 2 1 0 6 6 9 16 13 13 16 13 11 11 8 6 0 1 3 0 5 0 0 0 0 0 2 1 0 21 0 0 39 0 0 0 0 0 0 6 1 3 0 0 0 0 0 0 0 1 0 1 0 0 0 1 1 0 4 1 0 0 3 2 0 0 2 1 0 1 2 2 0 0 
1 32 9 0 0 0 0 0 0 0 0 12 15 2 0 0 0 2 0 4 8 9 16 17 24 27 29 28 24 18 18 12 9 4 3 3 0 2 0 0 1 1 0 0 5 0 28 31 0 7 5 0 0 0 5 0 0 4 2 2 0 0 0 0 0 3 0 0 0 1 0 0 3 0 0 5 2 1 0 2 0 0 2 0 0 5 0 0 0 5 
31 0 0 44 1 0 1 0 0 0 0 0 4 6 3 0 0 0 0 4 10 15 14 18 12 5 7 9 9 11 15 14 14 11 14 5 5 3 4 0 0 3 0 0 1 23 0 0 5 0 0 0 9 0 0 0 0 0 6 4 0 0 0 1 0 0 0 2 4 0 0 0 0 3 4 1 0 0 0 2 0 0 2 0 0 2 1 0 0 0 
0 39 44 0 0 1 0 6 0 0 0 0 0 4 1 0 0 0 0 5 8 10 8 7 1 0 0 0 0 0 0 0 0 0 6 12 7 3 0 0 0 1 0 2 0 0 0 0 17 0 0 2 0 6 0 0 3 0 0 0 2 0 0 0 0 0 0 5 3 0 0 2 5 0 0 3 3 0 1 0 0 1 0 3 5 0 0 2 2 0 
54 0 0 0 0 0 0 0 6 16 21 3 0 0 0 0 0 4 2 6 9 8 5 1 3 0 3 0 0 0 0 0 0 0 0 0 5 7 1 0 0 0 4 0 2 0 21 39 0 0 0 0 5 0 0 0 2 3 6 0 0 0 3 0 3 0 0 2 3 0 0 1 0 0 3 2 0 1 2 3 0 0 1 4 1 0 5 1 0 0 
0 7 0 13 0 0 0 0 0 0 6 9 8 0 0 0 0 0 4 9 6 7 3 0 0 0 0 0 0 0 0 6 5 0 0 0 0 2 0 0 0 3 0 0 1 16 0 0 21 5 3 0 4 0 5 1 0 0 0 3 0 0 0 0 0 2 5 1 0 2 1 2 5 3 0 0 0 0 0 2 6 0 0 0 1 4 2 0 1 5 
16 19 30 0 0 1 0 0 0 0 0 0 0 0 0 0 0 0 4 7 8 3 0 0 0 0 7 18 11 1 0 0 9 12 6 2 0 0 0 1 2 0 0 1 0 0 48 0 0 0 0 1 0 2 0 0 0 1 0 3 0 0 0 0 0 3 0 0 2 5 3 1 6 0 0 3 0 0 0 1 1 2 4 0 1 3 0 0 0 0 
7 0 0 2 0 0 1 1 0 0 0 0 0 0 0 0 1 4 9 9 6 2 0 0 0 0 0 0 3 36 25 14 7 12 10 7 2 0 0 0 0 0 0 1 5 29 0 22 8 2 2 0 0 5 0 1 0 0 2 0 0 3 1 1 2 0 0 3 7 0 1 0 0 0 0 1 1 0 0 5 0 0 2 1 0 0 0 0 3 0 
0 42 0 0 2 0 1 1 2 6 6 7 0 0 0 0 3 8 8 5 2 0 0 0 0 0 0 0 0 0 0 9 12 5 7 6 3 1 0 0 0 0 0 0 0 0 0 0 0 1 2 2 0 0 0 1 1 1 0 0 0 0 3 0 0 0 0 5 4 3 0 0 0 12 5 0 0 0 7 1 3 0 0 0 2 8 2 0 0 0 
47 0 24 1 4 2 1 0 5 2 0 0 0 0 0 0 3 5 10 3 0 0 0 0 0 0 0 0 0 0 0 0 1 6 3 4 3 3 1 0 0 0 0 0 2 0 25 9 0 0 0 0 2 2 0 4 0 0 0 0 2 0 0 1 3 2 0 0 0 3 8 0 0 0 3 1 1 0 1 0 1 3 2 0 0 0 2 0 3 2 
0 14 0 3 4 0 4 1 0 0 0 0 0 0 0 3 9 16 7 0 0 0 0 0 0 8 7 0 0 0 0 0 0 0 3 0 5 1 0 1 0 0 0 0 0 8 0 15 10 1 1 3 0 2 1 0 0 0 2 0 0 0 1 0 3 3 0 0 0 3 0 0 3 4 0 0 3 0 1 0 0 2 0 5 0 1 0 0 1 0 
24 14 0 0 0 3 0 2 1 0 1 0 0 0 4 13 17 8 3 0 0 0 0 0 0 0 0 8 19 20 10 5 0 0 1 0 0 0 0 0 0 0 0 0 0 0 44 0 0 0 0 0 1 3 5 1 0 0 0 0 0 1 3 3 0 0 3 0 0 0 0 0 0 0 1 2 2 1 0 0 0 1 1 1 0 0 1 1 0 0 
2 0 31 0 1 1 1 0 0 0 0 0 0 3 5 11 8 3 0 0 0 0 0 0 3 0 0 0 0 8 12 4 0 0 0 0 0 0 0 0 0 0 0 0 0 30 0 15 0 0 0 0 1 0 0 0 0 5 0 0 3 3 0 0 1 1 1 0 0 2 4 0 0 2 0 0 0 0 3 1 0 3 1 0 3 0 0 1 1 0 
0 49 0 4 3 0 1 0 0 0 2 0 1 5 13 13 8 1 0 0 0 0 0 0 3 3 0 0 0 0 0 0 0 0 0 0 0 0 0 0 0 0 1 0 0 0 0 3 5 0 1 5 2 0 0 0 2 0 0 0 5 4 0 0 0 0 1 0 0 0 0 3 3 0 0 0 1 1 0 0 0 1 0 0 0 0 1 3 0 0 
41 0 0 1 1 1 1 0 1 0 1 0 0 7 6 8 0 0 0 1 2 0 0 0 1 3 0 0 0 0 0 0 0 0 0 0 0 0 0 1 3 0 1 1 0 3 19 0 0 2 0 0 0 1 0 2 1 0 0 4 0 1 1 0 0 0 3 0 3 0 0 0 4 3 0 0 0 0 2 3 0 0 0 0 0 0 0 0 0 5 
0 11 30 3 0 1 0 0 1 3 0 0 3 2 7 3 2 0 1 1 0 0 0 0 0 0 1 0 0 0 0 0 0 0 0 0 0 1 0 3 3 3 1 1 5 8 0 22 0 0 0 0 0 1 0 1 0 0 0 0 0 3 0 2 0 1 4 0 0 0 0 0 0 2 3 1 0 1 2 3 0 0 0 1 0 2 3 0 0 0 
14 29 0 0 0 0 0 2 3 2 0 0 1 5 5 2 0 3 3 3 2 0 0 0 0 0 0 0 0 1 0 0 0 0 0 0 0 1 3 1 5 2 3 1 0 0 18 0 2 0 0 2 3 0 0 1 1 0 0 3 3 0 1 0 1 0 0 1 0 1 0 5 0 0 0 0 3 0 0 0 3 0 0 0 1 0 0 0 0 3 
19 0 18 0 0 0 1 1 3 0 0 0 8 13 5 7 8 6 8 3 0 0 0 0 0 0 0 0 0 0 0 0 0 0 0 1 0 3 2 7 5 5 1 0 0 28 0 0 0 0 0 0 0 2 0 0 0 0 1 2 1 0 2 0 0 0 0 0 0 0 1 0 0 0 0 0 1 1 1 1 0 0 1 0 0 4 0 0 3 24 
0 36 12 0 0 0 4 1 0 0 0 3 12 10 6 4 4 3 3 4 0 1 0 0 0 0 0 1 0 0 0 0 0 0 3 4 4 6 3 6 1 3 5 5 2 0 0 19 1 0 0 0 0 2 5 0 0 0 0 1 1 3 0 0 0 5 0 0 0 0 0 0 0 0 0 0 0 1 0 0 0 0 0 0 1 1 5 0 0 0 
38 0 0 0 1 0 0 2 1 3 9 13 13 6 6 4 0 0 0 3 6 0 0 0 0 0 0 0 0 4 2 2 3 4 8 7 6 6 4 1 2 1 1 0 0 0 35 0 1 0 0 0 0 0 0 0 0 1 0 2 1 0 2 0 3 3 0 0 1 0 0 0 1 0 2 0 0 1 1 0 0 0 1 1 1 4 0 2 3 0 
0 0 40 1 0 0 0 0 1 15 23 21 13 10 8 2 2 0 3 5 0 0 0 0 0 0 4 4 1 2 3 3 4 3 5 2 3 7 5 3 3 0 0 0 0 23 0 13 0 4 0 0 0 1 0 1 1 1 4 0 1 2 2 0 0 0 0 0 3 2 0 0 0 3 0 0 0 1 2 0 0 0 0 1 2 0 2 5 22 0 
4 33 0 0 0 0 1 0 0 8 20 19 15 13 10 11 8 6 6 3 0 0 0 0 1 0 2 4 6 5 7 5 5 7 7 3 3 6 5 0 1 4 5 6 43 0 11 0 5 4 2 0 0 0 0 0 1 0 1 3 2 5 0 0 0 0 2 2 0 0 0 5 2 0 0 0 0 0 1 0 0 0 0 0 0 2 0 0 0 11 
20 0 14 0 0 0 0 0 0 0 0 3 9 8 8 7 5 7 5 0 0 0 0 1 1 5 1 6 4 3 3 4 6 3 5 4 3 4 0 4 3 0 0 0 0 28 0 0 0 0 2 1 0 0 5 0 0 0 0 0 1 7 2 5 3 0 0 0 0 2 3 1 0 2 0 0 0 0 0 0 0 1 1 1 3 0 2 5 0 0 
0 0 0 0 1 0 0 3 5 0 0 0 0 0 0 0 1 7 4 0 0 0 0 3 4 6 5 1 2 3 5 6 3 0 3 1 3 5 0 6 0 0 0 0 31 0 17 0 3 0 0 0 2 0 1 2 0 3 0 0 0 0 1 2 6 0 0 0 0 0 0 0 2 1 0 1 0 0 0 0 0 0 1 2 0 0 2 19 0 0 
18 10 0 0 0 0 3 2 1 5 0 0 0 0 0 4 3 3 0 0 0 1 0 3 1 2 3 3 3 4 5 2 6 2 3 3 5 0 0 0 2 5 7 27 0 0 0 0 1 2 0 0 0 0 0 5 1 0 0 0 0 4 0 2 0 0 0 0 5 0 1 0 0 0 2 3 0 1 2 3 5 1 0 0 1 1 0 0 14 3 
16 0 20 0 0 1 6 3 0 2 0 1 0 0 0 0 0 0 0 0 0 3 3 2 1 1 6 6 6 4 2 3 1 4 3 1 2 1 3 0 0 0 0 0 12 18 21 2 0 0 0 0 0 0 2 0 0 0 0 0 0 3 6 0 0 1 0 0 0 1 1 1 0 0 3 0 0 0 2 0 0 1 2 0 0 1 11 0 0 0 
0 14 0 4 0 4 1 6 0 0 0 0 0 0 0 0 0 0 0 0 0 6 0 1 0 3 0 3 3 3 3 2 3 0 3 0 0 1 0 2 2 0 9 31 6 22 0 0 11 1 0 0 3 0 1 4 0 0 5 0 0 0 0 0 1 0 1 0 2 1 0 0 0 0 0 0 0 0 0 0 0 0 0 0 0 3 12 0 3 0 
0 48 25 0 3 3 18 19 16 21 14 0 0 0 0 0 0 0 1 0 3 0 0 0 1 0 0 0 4 3 1 0 0 2 3 0 1 0 0 2 0 10 14 4 0 3 1 4 0 0 0 0 0 0 3 6 3 2 1 1 0 0 0 0 0 0 0 0 0 0 0 0 0 0 0 0 1 0 0 0 1 0 0 0 0 0 0 7 0 3 
11 2 0 12 3 7 4 0 8 17 24 24 17 16 13 3 0 0 0 1 0 1 1 4 2 4 0 0 0 1 0 1 1 0 1 0 0 0 0 0 0 0 0 8 2 0 2 6 17 0 0 3 0 0 0 0 5 0 0 5 2 1 0 0 0 2 0 3 1 0 1 1 0 0 2 2 1 0 2 0 0 0 0 0 5 23 0 0 2 0 
20 0 13 0 4 4 0 0 0 0 3 24 34 33 18 13 4 4 1 7 5 0 1 1 3 3 0 3 1 0 0 0 2 1 0 0 0 0 1 2 0 25 31 2 0 0 11 0 0 6 5 4 0 0 0 0 0 0 0 3 0 0 0 2 2 0 0 0 0 0 0 1 3 0 0 0 2 3 0 0 3 0 0 0 0 1 0 10 2 9 
4 0 28 26 0 0 0 0 3 0 0 0 0 0 0 11 15 9 7 6 3 5 1 0 1 3 3 1 0 0 0 0 0 0 2 0 0 0 3 0 0 0 8 0 10 8 0 18 0 0 0 2 3 3 6 0 1 0 0 1 0 0 3 3 1 1 1 2 0 0 0 0 0 0 0 0 1 5 5 0 0 0 3 7 3 0 0 0 0 0 
0 2 0 0 7 1 0 0 6 0 0 0 0 0 0 0 0 12 13 13 7 8 1 0 0 1 1 4 0 0 0 0 1 0 0 0 3 1 0 0 0 15 4 0 0 23 0 18 20 9 0 0 3 0 7 5 5 0 0 0 0 0 0 0 0 2 3 3 0 0 0 1 0 0 2 2 6 1 0 0 2 1 0 0 13 0 0 9 5 0 
0 15 0 4 0 0 1 0 0 11 9 0 0 0 0 0 0 0 0 0 8 9 1 0 0 1 2 0 2 0 0 0 0 1 0 0 0 0 10 17 32 16 0 1 1 5 0 1 0 0 7 2 3 0 0 0 2 6 3 0 3 0 0 0 0 2 3 0 3 1 0 2 5 0 0 0 0 0 3 1 0 0 6 2 0 3 10 0 0 0 
0 8 0 17 11 0 0 1 0 7 19 24 19 0 0 0 0 0 0 0 0 0 7 0 0 0 0 0 0 0 0 1 1 0 1 0 0 0 0 0 0 5 4 0 4 0 23 0 19 0 0 0 0 1 0 0 0 7 0 1 0 3 2 3 0 0 0 0 0 1 0 1 1 0 0 2 1 0 0 0 0 0 0 19 0 0 10 2 0 0 
9 0 0 21 0 7 0 1 0 0 5 10 18 24 24 26 13 8 1 2 0 0 0 2 0 0 0 0 0 0 0 0 0 0 2 0 3 4 0 16 13 0 0 4 8 0 28 0 2 32 5 0 0 0 1 0 0 0 0 0 0 8 5 0 5 0 0 0 4 2 0 0 2 0 0 0 0 0 1 0 3 5 0 0 0 3 5 0 0 2 
17 0 26 0 33 28 0 0 0 0 0 0 5 13 10 8 3 0 1 0 0 6 1 0 1 0 1 0 3 3 1 3 1 3 0 0 0 0 10 19 3 1 2 5 4 0 2 0 0 0 26 6 0 0 1 3 0 0 0 0 0 0 2 4 4 0 0 0 0 3 1 0 0 0 0 1 1 0 0 1 2 5 9 0 4 0 5 0 0 0 
13 0 8 0 14 0 3 0 0 0 0 0 0 0 0 0 0 0 0 2 6 5 7 5 3 2 2 5 3 3 0 1 1 0 0 1 0 0 1 3 0 0 9 0 4 14 0 28 0 3 0 8 1 0 3 5 4 0 0 0 0 0 0 0 0 0 0 0 0 1 0 0 0 0 0 0 0 1 1 2 0 0 5 0 3 1 0 0 0 2 
0 5 0 8 0 6 4 0 0 0 0 0 0 0 0 0 0 0 0 0 0 0 4 5 4 3 6 5 4 4 3 2 0 2 1 5 5 23 23 5 3 9 3 3 1 0 0 35 0 6 0 3 1 1 1 0 0 1 2 1 0 0 0 0 0 0 0 0 0 2 0 0 0 0 2 0 1 5 4 1 0 5 0 8 2 2 2 0 0 1 
