P2
90 90
255
98 96 118 141 155 191 137 146 119 90 97 94 95 99 103 100 107 95 82 109 153 151 153 201 155 255 253 255 255 255 255 255 255 255 255 255 255 255 255 255 255 255 255 255 255 4 5 0 0 5 9 0 6 2 0 6 2 0 0 6 0 0 12 1 0 34 0 5 5 0 0 13 0 7 0 0 0 0 0 0 3 5 0 0 0 0 3 2 2 0 
111 107 134 150 105 210 204 171 92 94 96 98 96 101 102 106 91 96 84 103 170 212 196 182 147 250 255 255 255 255 255 255 255 255 255 255 255 255 255 255 255 255 255 255 255 0 2 0 19 0 0 7 18 0 2 0 0 0 0 0 7 3 0 0 0 8 0 22 0 0 0 0 0 0 0 0 2 0 0 0 5 0 10 0 0 0 0 0 4 5 
139 98 134 143 90 199 252 197 94 90 102 95 99 98 95 102 82 85 88 128 232 228 169 199 216 255 255 255 255 255 255 255 255 255 255 255 255 255 255 255 255 255 255 255 255 13 21 0 21 0 13 0 12 12 0 0 0 0 0 0 11 6 0 0 0 0 29 0 0 0 15 0 6 5 0 0 0 0 1 2 0 6 0 0 1 0 0 1 8 3 
161 88 130 148 81 136 250 253 140 86 93 102 98 87 87 78 73 76 124 227 237 183 196 255 255 255 255 255 255 255 255 255 255 255 255 255 255 255 255 255 255 255 255 255 255 30 0 0 23 0 0 0 6 39 0 1 0 0 0 0 2 3 0 0 0 0 21 0 0 12 27 0 2 3 2 0 0 2 2 6 1 0 0 1 0 0 3 2 10 0 
174 94 109 180 77 101 169 255 241 170 147 108 80 81 75 72 75 115 255 255 197 209 255 255 255 255 255 255 255 255 255 255 255 255 255 255 255 255 255 255 255 255 255 255 255 16 11 0 13 0 0 0 0 36 9 6 12 3 0 5 0 0 0 0 31 3 0 0 13 17 0 0 4 0 1 0 1 2 4 3 0 0 0 0 0 0 4 9 6 0 
164 131 110 194 80 114 101 241 234 143 179 161 90 75 71 65 108 255 255 235 214 255 255 255 255 255 255 255 255 255 255 255 255 255 255 255 255 255 255 255 255 255 255 255 255 0 8 0 17 0 0 0 0 42 0 0 8 10 0 0 0 0 0 11 18 0 0 17 0 23 0 0 10 5 0 4 0 5 5 7 2 1 0 0 0 6 10 1 0 0 
135 130 138 181 87 134 109 235 240 81 81 86 73 70 61 88 251 255 241 243 255 255 255 255 255 255 255 255 255 255 255 255 255 255 255 255 255 255 255 255 255 255 255 255 255 0 0 1 9 0 8 2 0 49 0 1 4 0 6 0 0 0 22 17 0 0 7 2 1 26 1 0 0 10 0 8 4 11 0 2 8 5 3 0 0 16 0 0 0 0 
126 109 162 190 117 163 91 158 255 95 83 76 69 65 80 220 255 250 232 255 255 255 255 255 255 255 255 255 255 255 255 255 255 255 255 255 255 255 255 255 255 255 255 255 255 0 1 0 5 0 46 0 0 23 6 5 1 0 0 0 0 1 21 0 0 0 8 0 0 16 0 0 8 0 0 3 0 10 0 0 2 1 1 1 14 0 0 1 0 0 
121 107 127 217 216 202 104 111 255 121 73 67 70 85 195 255 255 244 255 255 255 255 255 255 255 255 255 255 255 255 255 255 255 255 255 255 255 255 255 255 255 255 255 255 255 5 2 0 0 0 55 17 0 0 42 0 0 0 0 0 0 14 0 0 5 0 5 5 0 18 0 0 6 0 0 0 2 7 0 0 5 0 0 6 0 0 0 3 0 0 
101 114 146 173 195 214 161 127 255 217 78 59 71 180 255 255 245 255 255 255 255 255 255 255 255 255 255 255 255 255 255 255 255 255 255 255 255 255 255 255 255 255 255 255 255 8 0 0 0 10 18 15 19 0 36 13 0 0 0 0 14 0 0 0 0 0 10 3 0 18 0 0 0 0 0 0 13 3 0 2 1 2 6 0 0 0 0 0 0 0 
95 83 175 165 170 160 162 141 255 231 71 65 152 255 255 243 255 255 255 255 255 255 255 255 255 255 255 255 255 255 255 255 255 255 255 255 255 255 255 255 255 255 255 255 255 18 0 0 23 40 0 10 0 0 51 11 0 0 0 19 0 0 0 10 0 5 0 1 0 30 5 0 0 0 0 7 7 0 2 1 6 0 0 0 0 0 0 4 0 0 
103 89 151 138 147 151 85 70 138 255 92 119 255 255 251 255 255 255 255 255 255 255 255 255 255 255 255 255 255 255 255 255 255 255 255 255 255 255 255 255 255 255 255 255 255 14 0 0 49 0 11 5 0 0 34 32 0 0 24 0 0 0 0 0 2 0 6 0 0 36 25 0 0 0 1 10 5 3 0 10 2 0 6 0 0 0 2 2 3 0 
137 104 89 113 136 159 70 65 84 234 173 250 255 239 254 255 255 255 255 255 255 255 255 255 255 255 255 255 255 255 255 255 255 255 255 255 255 255 255 255 255 255 255 255 255 39 0 0 3 0 31 2 0 0 0 27 0 18 9 0 0 5 0 0 0 0 3 0 2 24 38 0 0 1 7 2 5 0 0 0 0 0 0 0 0 0 0 2 2 0 
140 113 85 112 142 227 70 63 65 128 255 255 255 241 255 255 255 255 255 255 255 255 255 255 255 255 255 255 255 255 255 255 255 255 255 255 255 255 255 255 255 255 255 255 255 30 5 0 0 0 42 5 3 0 0 0 0 10 0 0 15 0 3 0 0 0 2 0 0 9 28 0 0 13 5 6 1 1 0 1 1 2 0 0 0 3 0 1 0 0 
157 151 128 86 202 143 85 65 76 167 249 220 220 255 255 255 255 255 255 255 255 255 255 255 255 255 255 255 255 255 255 255 255 255 255 255 255 255 255 255 255 255 255 255 255 0 34 0 2 0 35 8 2 0 0 7 14 0 0 10 0 0 4 0 0 0 0 6 0 1 13 0 7 6 0 6 0 0 0 0 1 0 1 0 0 1 0 0 0 5 
160 181 89 126 169 85 104 76 123 255 237 190 255 255 255 255 255 255 255 255 255 255 255 255 255 255 255 255 255 255 255 255 255 255 255 255 255 255 255 255 255 255 255 255 255 0 56 7 0 67 1 0 8 0 0 31 0 0 6 0 0 0 4 0 0 0 0 1 0 4 0 0 5 18 0 0 0 0 0 0 3 0 0 0 0 0 0 0 0 0 
180 169 73 180 123 130 88 101 255 255 194 255 255 255 255 255 255 255 255 255 255 255 255 255 255 255 255 251 186 230 254 255 255 255 255 255 255 255 255 255 255 255 255 255 255 0 45 0 0 9 5 8 0 0 34 0 0 0 5 0 0 8 5 1 0 0 0 2 5 2 6 10 33 0 0 0 0 0 0 0 0 0 0 5 0 0 0 0 1 0 
182 172 97 177 95 75 72 221 255 210 239 255 255 255 255 255 255 255 255 255 255 255 255 255 255 255 199 161 187 202 210 216 231 226 254 255 255 255 255 255 255 255 255 255 255 21 50 0 15 5 5 0 0 2 17 0 0 11 2 0 0 14 3 1 0 0 0 0 6 1 30 31 0 0 0 3 0 0 0 0 0 0 0 0 0 0 2 0 0 2 
142 184 85 143 71 73 153 255 226 211 255 255 255 255 255 255 255 255 255 255 255 255 255 255 255 236 247 255 255 251 224 217 187 158 158 183 208 255 255 255 255 255 255 255 255 44 17 0 39 0 3 0 0 22 0 0 13 0 0 0 0 18 0 0 0 0 0 2 3 34 6 0 1 1 9 5 3 9 3 0 0 0 0 0 0 0 1 3 0 0 
140 160 103 111 72 116 255 255 212 255 255 255 255 255 255 255 255 255 255 255 255 255 255 255 255 255 255 255 255 255 255 255 243 192 155 142 134 147 182 240 255 255 255 255 255 63 0 0 34 3 0 0 30 0 0 19 0 0 0 0 15 16 0 0 0 0 3 8 30 0 0 0 1 3 0 5 7 10 15 10 0 0 0 0 0 0 0 4 0 1 
122 130 137 70 75 214 255 252 255 255 255 255 255 255 255 255 255 255 255 255 255 255 255 252 255 255 255 255 255 255 255 255 255 255 222 197 172 155 143 151 199 255 255 255 255 48 0 48 6 0 0 2 21 0 0 1 0 0 0 1 21 4 0 0 0 0 21 24 0 0 0 0 0 19 0 0 5 11 0 28 14 11 5 0 0 0 0 0 3 1 
182 99 77 65 146 255 252 255 255 255 255 255 255 255 255 255 255 255 255 255 255 235 231 244 250 255 255 255 227 177 255 255 238 255 201 225 228 198 202 187 201 237 255 255 255 15 7 5 0 0 0 11 0 0 11 0 0 0 0 8 11 0 0 0 0 33 23 0 0 3 0 3 0 19 0 0 3 22 0 14 3 9 5 6 0 0 0 0 0 0 
92 131 60 90 255 255 228 255 255 255 255 255 255 255 255 255 255 255 255 255 191 201 211 213 185 180 182 188 135 111 227 219 125 178 168 242 230 227 241 234 231 242 255 255 255 0 27 0 0 0 42 0 0 17 0 0 0 0 0 10 10 0 0 0 51 15 1 0 5 10 0 0 0 15 0 0 14 9 0 0 0 31 0 0 0 5 0 0 0 0 
73 85 72 193 255 223 255 255 255 255 255 255 255 255 255 255 255 255 255 167 167 171 142 138 138 123 113 112 105 101 111 105 90 90 96 171 195 255 255 253 255 251 255 255 255 0 0 0 0 5 13 0 16 0 0 0 0 1 5 2 8 0 0 55 3 6 8 11 0 15 0 5 4 0 0 0 2 1 0 0 0 0 0 6 3 0 1 0 0 0 
88 60 111 255 255 255 255 255 255 255 255 255 255 255 255 255 255 255 144 144 130 124 109 107 109 103 104 95 94 104 113 136 109 88 86 87 126 241 255 255 255 255 255 255 255 0 0 0 0 21 0 0 8 0 0 0 0 7 1 0 6 0 61 9 0 5 1 5 0 0 2 0 0 0 0 0 8 13 6 0 0 0 0 3 5 1 0 0 0 0 
73 77 232 255 218 255 255 255 255 255 255 255 255 255 255 255 255 159 136 132 108 101 99 101 108 105 90 91 95 128 201 255 210 122 82 88 84 132 238 255 255 255 255 255 255 4 0 0 34 0 0 23 1 0 0 0 0 7 5 0 0 55 6 5 0 5 0 0 1 4 1 2 0 0 0 0 9 31 18 2 2 0 0 0 0 2 0 0 0 0 
66 145 255 226 255 255 255 255 255 255 255 255 255 255 255 255 165 167 152 122 87 96 108 127 90 115 89 85 160 161 255 255 255 255 137 83 111 119 195 255 255 253 255 255 255 0 0 0 21 0 10 0 0 5 0 0 1 1 2 0 50 12 0 3 11 0 0 0 5 0 3 8 0 6 0 0 0 21 14 23 0 0 2 0 0 3 0 0 0 0 
95 252 255 226 255 255 255 255 255 255 255 255 255 255 255 185 180 161 121 107 87 104 157 186 112 177 106 78 167 128 237 255 255 255 255 155 168 222 180 250 244 241 255 255 255 0 0 38 0 0 21 0 0 1 0 0 2 3 0 45 9 0 10 5 0 0 0 0 12 0 1 21 0 0 19 0 0 4 6 33 21 0 23 0 0 0 0 0 0 0 
180 255 208 255 255 255 255 255 255 255 255 255 255 255 226 217 213 177 143 117 93 115 171 236 148 171 176 158 182 128 255 255 255 255 255 246 157 247 196 223 231 235 251 255 255 0 0 0 0 20 8 0 0 0 0 0 3 0 30 28 0 5 5 7 5 4 0 0 1 25 0 16 0 0 8 0 3 0 1 19 42 0 0 10 0 2 0 0 0 0 
243 195 236 255 255 255 255 255 255 255 255 255 255 240 224 248 254 229 218 187 116 110 170 235 227 138 142 147 140 230 255 255 255 255 255 255 200 233 238 214 234 243 244 255 255 0 28 0 0 1 0 0 0 0 0 2 0 22 29 3 0 5 4 5 6 17 0 0 0 21 13 0 6 4 0 0 0 0 0 18 33 15 0 13 0 0 6 0 0 0 
255 184 255 255 255 255 255 255 255 255 255 255 248 232 243 252 255 255 255 242 173 117 181 236 247 237 182 184 255 255 255 255 255 255 255 255 255 229 255 241 244 250 251 255 255 40 0 0 25 0 0 0 0 0 3 0 21 26 0 3 0 0 7 7 8 21 0 0 0 0 15 13 0 0 0 0 0 2 3 26 2 3 0 0 5 0 0 0 0 0 
214 255 255 255 255 255 255 255 255 255 255 226 235 255 255 255 255 255 255 255 245 211 201 186 251 255 255 255 255 255 255 255 255 255 255 255 255 238 255 255 247 245 255 255 255 12 0 5 0 0 0 0 0 0 5 26 21 0 1 0 0 0 0 4 1 8 7 0 0 0 0 0 0 0 0 0 0 5 13 15 0 13 0 0 5 6 0 0 0 0 
217 255 255 255 255 255 255 255 255 255 223 217 253 255 255 255 255 255 255 255 255 255 240 241 241 228 255 255 255 255 255 255 255 255 255 255 255 255 255 255 253 243 255 255 255 0 0 24 0 0 0 0 0 2 31 26 0 0 4 0 0 0 1 1 0 0 15 0 0 13 0 6 0 0 0 0 4 0 0 6 3 2 5 6 0 0 0 0 1 3 
255 255 255 255 255 255 255 255 255 215 213 241 255 255 255 255 255 255 255 255 255 255 255 255 242 242 234 218 255 255 224 254 235 255 255 255 255 255 255 250 254 255 255 255 255 0 10 0 0 0 0 0 0 24 31 0 0 0 2 0 0 0 1 0 0 0 3 0 8 17 0 19 0 0 0 0 10 0 6 0 3 10 14 8 0 0 0 3 0 2 
255 255 255 255 255 255 255 255 212 182 221 255 255 255 255 255 255 255 255 255 255 255 255 255 255 255 253 255 255 255 250 255 255 255 255 255 255 255 255 246 255 255 255 255 255 0 11 0 0 0 0 3 18 38 0 0 0 0 1 0 12 0 0 0 0 0 0 0 8 6 1 8 0 0 0 15 0 0 14 0 0 5 1 9 0 0 1 7 0 0 
255 255 255 255 255 255 255 217 176 207 238 255 255 255 255 255 255 255 255 255 255 255 255 255 255 255 255 255 255 255 255 255 255 255 255 255 255 255 255 255 255 255 255 255 255 20 0 0 3 0 0 18 48 0 0 0 0 0 0 0 0 0 0 0 5 1 0 0 3 0 5 3 0 0 0 2 0 0 0 2 1 0 4 10 0 0 0 3 0 0 
255 255 255 255 255 255 232 162 196 224 244 254 255 255 255 255 255 255 255 255 255 255 255 255 255 255 255 255 255 255 255 255 255 255 255 255 255 255 255 255 255 255 255 255 255 0 0 0 0 0 12 71 0 0 0 0 0 0 0 0 0 0 2 0 0 0 0 3 5 0 0 3 0 0 0 0 0 0 0 1 0 0 14 6 0 0 1 7 0 0 
255 255 255 255 255 255 140 188 224 233 243 255 255 255 255 255 255 255 255 255 255 255 255 255 255 255 255 255 255 255 255 255 255 255 255 255 255 255 255 255 255 255 255 255 255 0 0 0 0 5 71 0 0 0 0 0 0 0 0 0 0 0 5 0 0 0 0 0 3 0 0 4 0 0 0 0 3 7 0 13 0 4 9 8 0 0 6 6 1 1 
255 255 255 255 255 128 161 196 229 247 254 255 255 255 255 255 255 255 255 255 255 255 255 255 255 255 255 255 255 255 255 255 255 255 255 255 255 255 255 255 255 255 255 255 255 0 0 0 0 73 0 0 0 0 0 0 3 0 0 0 0 1 0 0 0 7 2 0 0 1 5 0 0 0 0 2 0 2 0 0 0 3 8 0 0 2 3 5 0 1 
255 255 255 255 129 130 167 214 232 242 254 255 255 255 255 255 255 255 255 255 255 255 255 255 255 255 255 255 255 255 255 255 255 255 255 255 255 255 255 255 255 255 255 255 255 1 0 0 44 20 0 0 0 0 0 5 2 0 0 0 0 4 2 0 0 2 3 0 0 0 0 3 0 1 0 1 0 0 0 0 5 1 2 5 0 9 2 0 0 8 
255 255 255 155 101 143 181 216 238 246 255 255 255 255 255 255 255 255 255 255 255 255 255 255 255 255 255 255 255 255 255 255 255 255 255 255 255 255 255 255 255 255 255 255 255 2 0 21 58 0 0 0 0 0 0 0 2 0 0 0 0 2 0 0 0 0 3 0 0 5 0 0 0 0 2 0 0 0 0 0 2 5 1 1 1 2 0 3 0 10 
255 255 230 76 103 155 193 224 246 249 255 255 255 255 255 255 255 255 255 255 255 255 255 255 255 255 255 255 255 255 255 255 255 255 255 255 255 255 255 255 255 255 255 255 255 0 4 95 0 0 0 0 0 0 0 0 0 2 3 0 0 0 0 0 0 0 0 3 0 1 4 0 0 2 0 2 0 0 2 1 2 0 0 0 0 0 0 6 1 3 
255 255 88 97 111 157 205 232 248 252 255 254 255 255 255 255 255 255 255 255 255 255 255 255 255 255 255 255 255 255 255 255 255 255 255 255 255 255 255 255 255 255 255 255 255 0 83 9 0 0 0 0 0 0 0 0 0 2 0 0 1 0 1 0 0 0 1 0 0 1 0 1 0 2 5 0 2 6 0 1 3 1 4 0 1 0 2 4 0 0 
255 115 82 92 126 165 205 238 246 254 255 255 255 255 255 255 255 255 255 255 255 255 255 255 255 255 255 255 255 255 255 255 255 255 255 255 255 255 255 255 255 255 255 255 255 39 40 0 0 0 0 0 0 1 0 0 8 0 0 0 0 0 2 0 0 0 0 1 0 1 0 0 6 6 4 0 3 3 9 0 2 3 5 0 0 2 0 5 0 0 
198 90 103 101 118 172 216 235 245 250 255 255 255 255 255 255 255 255 255 255 255 255 255 255 255 255 255 255 255 255 255 255 255 255 255 255 255 255 255 255 255 255 255 255 255 88 5 0 0 0 0 0 0 1 0 0 0 3 1 0 0 0 0 0 0 0 2 0 0 0 0 0 0 8 0 0 2 0 3 0 3 2 0 4 0 7 4 2 6 0 
4 2 0 2 18 0 0 0 25 0 0 0 4 5 3 0 10 9 8 5 2 5 0 13 13 14 11 11 19 3 1 0 4 0 3 3 6 1 4 1 0 3 0 1 0 0 1 0 0 0 12 5 0 0 3 0 0 1 1 4 0 0 8 1 0 7 6 0 3 0 0 8 0 5 0 0 0 2 0 0 0 0 5 0 6 0 5 2 0 0 
0 0 2 2 12 0 0 5 11 7 0 0 0 4 3 0 1 4 0 0 0 0 1 0 0 0 0 0 0 0 5 0 0 0 0 5 0 4 0 0 3 0 0 0 7 0 0 3 0 1 0 0 2 0 7 5 1 2 0 0 0 5 0 0 5 3 0 5 1 3 1 2 0 0 0 2 2 0 0 0 0 3 0 3 0 5 0 0 0 0 
0 3 0 0 4 11 0 0 0 0 5 0 0 4 3 6 2 0 0 0 0 18 8 0 0 0 0 0 0 0 0 0 0 1 0 0 6 0 4 1 1 0 5 0 8 0 0 0 5 0 9 3 0 0 1 0 0 1 0 3 1 0 4 7 1 8 0 8 4 0 0 3 0 0 0 0 0 0 0 1 0 3 4 0 1 0 1 0 0 4 
1 0 0 0 2 18 9 0 0 2 2 7 0 0 0 8 4 0 0 0 3 8 0 0 0 0 0 1 0 0 0 0 0 2 4 4 0 4 1 0 0 0 1 6 0 0 0 1 3 0 0 0 8 0 0 2 0 3 2 0 2 5 0 13 0 0 7 6 0 0 1 0 0 0 1 0 0 0 1 0 0 0 0 0 3 0 0 0 0 2 
4 0 4 0 4 2 32 8 0 0 0 0 10 1 4 0 4 0 0 3 18 0 0 4 0 17 0 0 1 0 0 0 0 3 6 0 0 0 0 0 0 0 1 0 0 2 0 0 0 0 0 11 3 8 0 3 0 2 5 1 0 0 16 0 0 0 10 0 0 0 8 0 0 2 0 1 1 0 1 4 0 0 1 1 0 0 0 2 2 0 
12 0 0 0 0 0 4 10 7 29 38 31 0 0 0 0 0 0 13 5 0 0 5 0 0 0 9 0 5 1 0 4 3 1 0 0 0 1 0 0 1 11 6 0 3 2 3 2 5 1 0 0 8 0 9 1 4 5 0 0 0 20 0 0 12 4 0 0 0 0 3 7 1 0 0 0 0 3 1 0 0 1 0 3 0 0 0 3 0 0 
3 5 0 8 3 0 10 4 0 0 7 0 1 6 0 0 0 7 16 0 0 5 1 0 0 0 4 14 2 2 2 9 3 0 0 0 0 0 0 2 24 0 0 0 0 3 3 0 0 0 0 0 0 4 1 0 0 0 3 0 12 0 0 7 6 0 0 1 0 3 0 0 3 1 0 1 3 0 5 2 0 0 0 0 0 1 2 0 0 0 
1 0 0 0 0 0 0 22 0 0 0 1 0 0 0 0 8 16 0 0 11 5 0 0 0 0 0 0 0 0 0 0 3 4 0 0 0 0 10 16 0 0 0 0 0 0 0 5 8 1 0 0 0 8 0 1 0 1 2 6 0 0 8 5 0 0 2 0 0 2 2 2 0 4 0 1 0 0 0 0 2 2 2 0 4 1 0 0 0 0 
3 0 11 0 0 0 0 2 13 0 3 0 5 0 0 0 12 0 0 6 0 0 0 0 4 0 1 0 0 0 2 0 2 0 1 1 3 11 9 0 0 0 0 0 0 1 0 0 3 13 6 0 0 12 0 0 0 0 6 0 0 5 5 0 0 2 0 2 8 2 0 0 3 0 0 0 0 2 0 1 0 0 0 3 0 0 2 0 3 1 
5 3 0 7 30 3 0 0 0 0 0 0 0 0 0 18 2 0 0 0 0 0 0 0 0 0 1 0 4 0 0 1 1 0 0 6 3 2 0 0 0 0 0 4 0 6 7 0 0 0 15 3 0 0 7 0 0 0 4 0 5 9 6 0 4 0 1 1 0 3 0 0 1 0 3 0 0 2 0 0 2 0 2 0 0 0 0 0 0 1 
0 0 7 8 0 9 33 36 26 7 0 0 0 0 16 6 0 0 4 0 0 0 1 0 3 0 2 0 0 0 5 6 3 4 0 4 0 0 0 0 0 1 0 0 0 0 0 9 0 3 2 0 0 15 0 0 0 14 0 5 3 12 0 9 1 1 0 1 0 0 0 2 0 0 0 0 3 0 0 3 0 5 0 3 2 0 3 0 1 2 
1 0 13 7 14 1 3 2 23 0 0 0 0 19 0 0 0 6 0 0 3 0 1 0 1 4 0 0 0 5 7 4 3 0 13 0 0 0 0 0 0 0 0 0 4 0 0 0 4 9 0 2 0 0 9 0 20 0 1 3 6 0 7 2 0 1 0 1 0 3 0 5 0 0 0 3 0 0 6 0 3 0 0 0 0 1 1 2 1 0 
0 2 6 1 0 0 1 0 6 23 0 0 6 5 0 0 0 4 2 2 0 2 0 1 0 2 5 0 0 9 6 2 1 11 0 1 0 0 0 0 4 1 0 0 0 0 1 4 19 0 0 0 0 0 13 17 0 0 5 5 0 6 0 0 4 0 1 2 0 5 0 0 0 0 0 0 0 1 0 0 2 1 0 0 0 0 2 2 0 0 
2 0 0 13 0 0 0 4 0 23 0 10 13 0 0 6 2 0 1 1 4 0 0 0 0 0 0 0 15 4 0 1 0 0 0 1 0 0 0 0 0 0 0 0 0 14 0 3 0 15 0 0 1 0 0 0 0 1 8 0 0 1 1 0 0 0 0 0 0 2 0 0 0 0 3 1 0 1 0 0 0 0 0 0 0 1 1 0 0 0 
0 0 8 2 0 39 0 0 0 0 0 22 0 0 9 0 0 0 3 0 0 0 0 0 0 0 0 7 0 0 5 0 0 4 0 1 0 0 0 0 0 0 0 1 2 10 0 0 5 0 13 5 0 1 7 0 4 4 3 0 3 1 0 0 0 0 0 3 3 2 4 0 0 3 1 3 4 0 0 0 0 0 0 1 3 0 0 1 0 0 
1 0 8 0 20 0 0 3 0 0 21 0 0 6 0 0 0 0 0 1 1 0 2 0 0 0 3 0 23 26 8 9 4 4 1 0 0 0 0 0 1 0 0 0 0 8 0 5 14 2 5 0 5 14 0 9 6 1 0 3 5 0 0 0 1 0 0 1 0 0 2 0 0 0 8 2 0 0 0 0 0 2 0 0 1 2 2 0 2 0 
0 0 0 0 0 0 14 0 0 18 0 0 0 3 3 0 0 6 3 1 1 0 0 0 0 0 9 59 27 6 15 13 9 11 13 10 1 0 4 0 0 0 0 4 0 0 0 1 0 13 0 2 16 0 0 7 5 0 9 0 0 0 0 0 0 1 0 1 0 3 0 0 0 9 0 0 5 1 0 2 4 2 0 0 2 0 0 2 0 1 
10 0 0 11 13 13 0 0 8 13 0 0 10 0 0 0 0 3 0 0 0 1 0 0 0 38 25 0 0 0 13 9 24 33 23 20 16 6 6 0 0 0 2 0 1 0 3 0 0 0 1 1 0 0 9 11 0 6 3 0 0 0 7 4 5 0 2 0 1 0 0 29 0 0 0 0 0 0 9 1 0 1 4 2 0 2 0 1 0 2 
0 5 2 7 0 0 0 0 21 0 0 13 0 0 0 0 6 0 0 0 1 1 2 4 40 0 0 0 0 0 0 0 0 12 24 34 39 32 24 9 9 4 0 0 0 0 10 0 1 0 2 10 0 2 10 0 5 0 0 2 0 1 0 1 0 0 0 1 0 0 9 1 0 0 0 2 0 0 0 0 0 1 0 6 0 0 0 3 0 0 
4 11 0 11 0 0 0 16 0 0 6 2 0 0 0 7 5 0 0 0 0 1 10 39 0 0 0 0 3 0 0 0 0 0 0 0 0 23 29 43 23 9 3 7 6 0 13 0 4 1 13 0 1 9 0 0 1 1 0 0 0 5 2 0 0 2 0 0 11 4 1 0 2 0 3 0 0 2 2 0 8 0 0 0 3 6 1 0 0 0 
2 10 3 6 0 0 3 2 0 0 6 0 0 0 2 5 5 0 0 0 0 22 38 0 0 5 7 8 6 23 0 0 1 0 0 0 0 0 0 0 19 17 7 1 1 0 0 0 3 6 0 0 5 0 0 7 2 2 4 0 0 8 2 3 0 0 0 23 3 0 0 0 5 0 8 0 0 0 3 0 0 2 0 1 0 0 2 4 1 5 
0 0 5 0 0 0 23 0 0 11 0 0 0 0 2 8 0 0 0 0 38 31 1 10 6 9 18 9 24 32 18 14 20 14 15 0 0 0 0 0 0 0 7 8 8 30 0 9 0 13 0 7 13 0 7 0 1 0 0 0 2 0 0 0 0 0 19 1 0 1 0 0 0 0 0 10 0 2 1 12 5 0 2 0 0 0 2 2 1 0 
13 0 0 0 0 16 0 0 12 0 0 0 0 0 2 0 0 0 0 56 17 1 9 3 8 28 32 32 19 6 37 45 30 41 14 0 9 0 0 0 0 0 2 8 2 0 21 0 8 0 6 9 0 0 0 0 1 1 2 0 0 0 0 0 0 17 5 1 1 0 0 5 5 11 0 0 0 8 0 0 0 0 2 5 0 5 0 0 0 3 
0 17 0 0 3 4 0 9 0 0 0 0 2 4 1 0 0 0 63 12 0 15 8 23 15 9 6 5 0 0 4 8 2 5 12 44 8 0 0 0 0 0 0 1 4 2 0 3 0 0 6 0 0 0 0 0 0 0 0 0 3 2 0 0 12 0 0 0 0 6 0 1 0 3 0 0 0 2 0 0 0 17 0 0 0 0 0 0 2 0 
8 1 0 0 31 0 0 8 3 0 3 0 2 0 0 0 0 56 6 1 12 10 3 0 0 4 0 3 1 8 0 0 1 0 0 0 29 37 3 0 0 4 6 0 3 0 2 13 0 6 8 0 6 0 4 1 0 0 3 2 0 0 0 5 6 0 3 0 0 4 0 0 0 1 0 1 0 9 0 0 3 0 8 8 0 5 0 0 1 2 
1 0 0 16 0 0 10 0 1 0 0 0 1 0 0 0 58 13 0 3 7 0 3 4 4 3 0 0 0 1 0 0 0 0 0 2 3 18 15 3 3 0 0 4 7 0 8 0 0 16 0 0 1 0 0 1 0 0 0 1 3 0 15 0 3 0 5 0 0 0 0 0 0 3 0 8 0 0 0 0 4 0 0 1 4 0 0 1 0 0 
0 0 0 18 0 8 6 0 0 0 0 0 1 0 0 49 4 0 3 8 2 2 0 0 0 0 3 10 0 6 0 0 0 0 0 0 0 0 2 5 5 8 0 0 0 2 10 0 10 7 0 0 0 0 1 2 0 0 2 0 0 17 0 0 1 0 5 5 0 4 1 2 1 6 0 10 1 7 5 0 1 8 0 0 1 0 0 1 3 4 
0 0 22 0 0 4 0 0 0 0 0 2 0 1 39 9 0 8 6 0 0 0 0 0 2 0 0 0 0 0 6 1 0 0 0 0 2 0 0 5 5 6 0 0 2 0 0 0 18 0 5 3 0 0 3 0 0 5 4 0 19 0 0 6 0 2 0 3 0 0 0 0 0 5 0 0 0 4 0 1 0 0 1 0 2 0 0 0 0 0 
0 25 9 0 20 9 21 12 1 0 0 4 3 25 15 0 0 0 0 0 4 0 0 0 0 26 0 0 23 3 0 0 0 0 0 0 6 5 0 10 4 0 0 4 0 4 0 23 0 0 0 4 0 1 0 0 0 1 0 21 2 0 0 3 0 1 1 0 6 0 10 3 3 0 15 0 0 0 2 2 0 0 12 0 3 0 1 0 0 2 
0 6 0 1 4 0 0 0 0 0 5 1 21 25 0 0 0 0 0 0 0 13 6 8 0 0 28 26 0 0 0 3 2 4 9 0 0 0 0 0 0 0 2 0 0 0 5 2 0 8 5 4 0 0 0 0 5 0 20 5 0 0 6 0 1 0 0 9 0 7 0 0 3 18 2 0 1 1 0 1 5 0 0 3 0 1 0 4 0 0 
12 0 0 11 0 0 0 0 0 1 4 24 29 0 0 1 4 0 0 0 0 0 0 0 0 0 0 0 0 0 3 0 0 0 12 4 0 0 0 0 3 3 0 0 4 0 6 0 1 2 0 0 0 0 5 2 0 26 0 0 0 3 0 0 1 2 0 0 3 2 3 5 1 0 0 1 0 0 0 0 9 9 0 8 0 0 8 0 0 0 
17 0 0 0 0 0 0 0 0 2 25 28 0 3 0 0 0 0 0 0 0 0 0 23 7 4 0 0 7 16 11 11 19 19 0 0 17 0 0 0 0 0 3 0 0 13 7 0 7 0 0 0 1 0 0 0 23 0 3 1 0 0 2 1 1 2 0 2 0 1 1 2 0 0 0 0 0 0 5 0 0 3 2 0 0 0 0 0 0 0 
0 0 15 0 0 0 0 0 3 30 29 0 0 0 0 0 0 4 1 1 0 0 0 0 0 5 16 40 18 15 24 16 24 21 9 0 0 0 0 1 0 0 0 3 0 6 0 5 0 0 0 0 0 1 0 27 0 2 0 2 1 0 0 0 0 0 1 2 0 0 0 0 7 3 0 0 0 5 0 4 2 1 0 0 3 3 6 0 1 5 
0 9 0 0 0 0 1 0 26 39 0 0 0 0 0 0 0 0 3 3 0 0 0 0 0 0 0 0 0 0 0 0 0 2 16 14 14 6 2 2 0 0 1 1 4 0 0 5 1 0 0 0 1 0 25 0 2 0 0 0 0 0 0 0 0 2 0 0 0 0 0 6 5 5 5 0 3 0 0 5 0 0 1 3 0 0 0 0 0 2 
0 10 0 3 0 0 2 22 39 0 0 0 1 1 0 0 0 0 0 0 1 3 1 0 0 0 0 0 0 5 0 0 0 0 0 3 4 0 0 0 0 0 0 0 1 0 11 0 0 1 1 0 0 29 0 0 0 3 2 2 2 2 1 2 0 0 1 1 0 5 0 3 0 0 0 1 3 0 7 0 0 3 0 0 0 0 0 0 0 0 
0 0 0 0 0 1 18 44 0 0 0 1 0 0 0 0 0 0 0 0 0 0 2 3 0 2 0 0 0 0 0 0 0 0 0 0 0 0 1 0 0 0 0 1 0 0 1 0 0 1 1 0 24 2 1 0 0 1 1 0 2 0 0 0 4 2 0 0 0 6 1 1 0 0 1 2 1 2 0 2 5 0 0 0 0 0 0 2 2 2 
0 0 0 0 0 9 56 0 0 0 0 0 0 2 1 3 0 0 0 0 0 0 0 0 0 0 0 0 0 0 0 0 0 0 0 0 0 4 0 3 0 1 1 1 0 9 0 0 1 0 0 18 0 3 0 0 3 0 0 4 0 2 1 0 0 1 0 2 2 0 0 0 0 0 5 0 0 1 3 0 0 0 0 0 3 0 0 0 0 0 
0 0 0 0 3 63 0 0 0 0 0 1 0 1 0 0 2 0 0 0 0 1 0 0 0 0 0 0 0 0 0 0 3 0 0 0 2 1 0 0 0 3 0 0 0 0 0 0 0 0 0 4 0 0 1 0 0 1 0 1 1 3 0 0 1 0 0 2 1 0 0 1 0 2 2 0 0 3 0 0 1 0 1 0 3 0 0 1 2 1 
0 0 0 1 59 1 0 0 0 0 3 0 5 0 4 3 1 1 1 0 0 0 0 0 0 0 3 0 1 3 2 0 0 0 0 3 1 0 0 0 6 4 1 3 0 1 0 0 0 0 6 2 2 0 2 0 2 3 0 2 1 0 0 0 1 0 1 0 0 0 0 0 0 0 0 0 0 0 2 1 0 0 1 0 0 0 1 0 0 0 
0 0 0 38 19 0 1 0 0 0 0 0 4 2 0 0 2 2 0 1 0 0 0 0 0 0 0 0 0 1 2 0 0 0 1 0 0 1 0 1 0 1 0 0 0 0 3 0 0 18 0 4 0 0 0 3 0 0 2 0 0 0 3 1 0 2 0 0 0 0 2 1 0 0 0 0 1 0 2 0 0 0 0 0 0 4 0 0 1 0 
0 0 18 48 3 0 3 0 0 2 0 3 0 0 0 3 0 1 0 1 0 0 0 0 0 4 8 0 0 0 0 1 0 0 0 0 0 5 0 0 0 0 0 0 0 1 0 0 39 5 0 0 0 0 3 0 1 2 0 0 0 2 3 2 0 4 5 0 0 0 0 5 0 3 0 0 0 0 0 1 0 0 0 1 0 0 1 3 0 2 
0 2 56 3 0 0 0 0 0 0 0 3 0 1 0 2 3 0 2 0 1 1 0 1 2 0 0 0 1 3 0 0 0 4 3 5 0 0 4 4 0 0 0 1 0 4 0 11 5 3 3 0 0 3 0 0 0 0 0 0 0 2 3 0 0 0 0 0 0 0 0 0 3 0 0 1 0 0 0 0 1 1 1 1 3 0 0 0 1 1 
0 61 5 0 0 0 0 0 0 2 5 3 2 1 0 1 0 3 0 6 0 0 0 2 0 0 0 0 2 0 0 3 1 0 0 0 0 6 0 0 0 0 0 0 1 0 0 8 2 0 0 2 2 3 1 0 0 2 0 0 5 0 0 0 1 1 1 0 0 0 0 2 0 0 0 0 0 0 1 0 0 0 0 0 0 0 0 1 3 0 
29 26 0 2 0 0 0 1 3 0 0 0 0 3 6 3 3 4 2 0 0 5 3 0 3 0 0 0 0 1 1 6 1 0 4 0 0 0 0 0 7 1 4 1 2 0 22 2 0 0 0 0 0 0 0 2 0 0 0 1 3 0 0 2 0 0 0 0 0 1 0 0 0 1 4 1 0 1 1 0 0 3 0 1 1 0 0 0 0 5 
38 0 0 0 3 1 0 0 0 5 3 0 3 2 0 0 1 0 2 0 5 4 2 0 3 2 0 2 0 0 0 1 4 0 0 0 1 4 4 0 1 1 2 2 0 30 0 2 2 0 0 0 2 0 1 2 0 0 1 0 2 0 0 0 0 0 1 0 0 0 5 3 0 0 0 0 0 0 4 2 0 1 2 0 1 2 5 1 2 0 
