P2
90 90
255
255 255 255 255 255 255 255 255 255 255 255 255 255 255 255 255 255 255 255 255 255 255 255 255 255 255 255 231 255 255 255 255 235 255 255 249 250 255 255 255 255 255 255 255 255 18 0 18 0 8 0 0 5 1 33 26 0 0 10 0 19 0 0 0 12 0 9 6 0 10 0 27 0 0 0 13 19 0 31 0 40 0 0 3 0 0 0 0 1 0 
255 255 255 255 255 255 255 255 255 255 255 255 255 255 255 255 255 255 255 255 255 255 255 255 255 255 255 253 225 255 255 238 229 223 227 233 237 255 251 237 255 255 255 255 255 13 0 21 2 0 0 0 17 1 0 23 10 1 0 0 0 0 6 0 1 5 12 2 0 0 0 8 16 0 0 28 0 8 1 0 0 1 0 12 0 0 0 1 0 0 
255 255 254 248 255 255 255 255 255 255 255 255 255 255 255 255 255 255 255 255 255 255 251 255 255 255 255 237 234 255 255 255 230 214 234 255 218 255 255 210 255 255 255 255 255 19 8 8 6 0 6 5 0 4 9 0 15 0 7 0 8 0 0 13 2 18 6 0 0 0 10 0 37 0 1 0 6 11 0 5 8 0 0 13 5 0 1 0 0 0 
255 255 255 255 252 227 243 220 255 255 255 255 255 255 255 255 255 255 255 255 255 240 255 255 253 251 255 217 219 255 255 255 206 220 208 250 246 255 234 203 255 255 255 255 255 30 0 0 6 0 5 0 6 0 0 19 8 10 0 1 7 0 9 6 0 27 0 0 12 0 5 0 13 0 0 2 4 17 0 12 0 16 0 11 13 0 2 0 1 0 
255 255 255 255 255 255 255 255 255 255 255 255 255 255 255 255 255 255 255 255 255 255 255 255 249 238 227 222 243 255 255 255 225 187 196 233 255 255 251 202 255 255 255 255 255 2 0 16 0 19 12 0 18 0 5 13 12 13 0 0 0 0 3 0 10 3 0 0 19 0 9 3 2 0 0 22 0 19 0 0 0 0 0 22 9 0 2 5 6 3 
255 255 255 255 255 255 255 255 255 255 255 255 244 255 255 250 250 248 255 255 255 231 255 225 255 241 232 228 236 233 249 255 255 233 231 240 255 255 235 214 255 255 255 255 255 0 0 10 10 0 0 6 0 2 19 0 13 3 0 13 9 0 0 3 0 34 0 24 0 0 8 7 0 0 7 0 6 44 0 2 0 2 0 8 13 0 2 0 0 0 
255 242 255 255 255 255 255 255 255 255 255 255 255 255 255 236 236 216 255 255 215 200 201 209 255 255 255 255 255 255 255 255 234 202 226 253 217 215 255 225 248 255 255 255 255 16 8 0 0 0 0 28 7 0 3 0 0 11 0 2 9 1 4 0 0 5 4 5 0 0 0 0 0 0 0 19 32 26 2 0 19 1 0 4 0 0 0 0 0 1 
255 255 255 255 255 255 255 255 255 255 255 255 230 227 255 255 230 235 255 255 235 245 183 208 255 255 255 255 255 255 255 255 255 226 217 209 204 208 211 180 244 255 255 255 255 16 0 8 0 0 0 15 3 11 13 0 13 3 0 0 40 0 0 0 3 0 16 4 0 0 0 32 2 2 0 0 0 45 10 2 7 0 11 0 0 0 0 0 1 0 
255 237 255 255 255 255 255 255 255 255 255 255 214 230 221 220 227 255 255 255 255 255 255 248 255 231 255 255 255 255 255 253 255 255 232 247 232 219 200 172 232 255 255 255 255 0 2 0 0 0 7 0 25 13 5 0 11 0 0 11 1 0 0 14 9 8 0 2 0 0 31 0 0 8 5 10 9 0 64 0 7 0 11 5 6 0 2 0 0 0 
233 232 255 217 255 255 255 255 255 255 243 255 242 210 196 183 196 239 248 255 255 255 255 255 255 244 255 255 255 255 255 255 255 255 245 192 228 253 196 156 235 255 255 255 255 0 14 0 1 0 0 32 2 6 5 4 0 8 0 12 0 0 13 0 6 0 0 0 0 81 0 0 0 0 3 5 0 9 0 83 0 0 12 8 15 0 5 0 0 0 
255 255 255 255 255 255 255 255 255 255 255 220 205 196 189 186 197 255 255 248 248 243 227 255 203 255 255 255 255 255 255 255 255 255 255 176 250 234 224 155 255 255 255 255 255 18 0 36 0 0 14 0 45 0 22 11 11 4 0 2 0 2 0 22 5 0 9 5 0 0 0 0 0 0 0 5 2 5 0 109 0 0 5 10 6 0 3 0 0 0 
255 236 191 255 255 255 255 255 251 255 235 221 192 190 188 206 195 202 255 254 255 233 222 255 215 255 255 255 255 255 255 255 255 255 255 202 241 231 230 189 255 255 255 255 255 43 15 5 0 16 14 9 24 0 14 3 0 12 2 0 1 2 0 0 27 1 0 3 71 0 0 0 0 0 0 3 0 3 5 77 0 5 0 6 4 0 1 0 1 0 
255 203 165 157 255 255 255 255 255 255 208 221 192 255 255 255 255 255 255 197 180 224 215 255 224 255 255 255 255 255 255 255 255 255 230 190 218 218 216 186 255 255 255 255 255 15 21 9 0 0 0 18 0 10 24 5 0 8 0 0 26 4 14 0 18 0 0 0 75 0 0 1 0 1 0 0 0 5 1 71 0 0 5 6 8 0 0 2 1 0 
213 188 158 196 255 255 255 255 255 255 255 255 226 255 255 255 255 229 251 163 177 166 255 255 255 255 255 255 221 243 255 255 192 226 232 145 175 184 157 193 185 255 255 255 255 0 24 6 0 6 0 0 38 0 32 0 40 0 0 0 0 28 0 42 0 0 5 0 9 29 0 6 23 8 0 0 44 10 0 40 10 0 15 0 0 0 0 0 0 0 
204 170 123 152 201 255 255 255 255 255 224 213 255 255 253 255 255 185 211 205 163 169 255 255 255 255 255 255 255 255 255 255 255 255 241 175 184 179 168 164 221 255 255 255 255 0 31 0 0 0 0 0 27 13 5 8 3 0 119 0 0 13 49 0 30 1 4 0 5 27 0 0 1 8 0 0 34 0 0 41 9 0 7 0 0 0 0 0 0 0 
191 159 104 111 128 255 255 255 255 255 202 213 255 198 255 255 255 213 184 232 200 177 255 255 255 255 255 255 255 255 255 255 255 255 213 187 198 201 181 190 244 255 255 255 255 0 31 0 8 0 0 0 18 0 24 5 0 0 67 0 17 0 77 0 23 6 6 0 8 28 0 0 0 8 0 0 22 0 0 76 0 0 5 0 0 0 2 1 0 0 
186 153 145 211 138 212 255 223 231 255 255 255 255 228 187 227 230 169 162 218 227 194 214 255 255 255 255 255 255 255 255 255 255 255 237 178 205 200 187 204 255 255 255 255 255 0 27 0 40 0 0 0 21 0 0 3 0 0 64 0 0 0 38 0 27 0 12 0 6 19 0 0 0 10 8 0 13 0 0 75 0 0 0 0 0 0 1 0 0 0 
140 137 162 148 180 216 255 169 191 255 255 255 255 255 255 255 196 151 246 206 207 193 182 255 255 255 255 255 255 255 255 255 240 255 254 208 183 223 223 227 255 255 255 255 255 0 0 0 0 0 0 7 18 0 0 0 0 0 6 36 25 16 0 0 9 0 0 2 0 46 0 0 17 0 0 0 26 0 0 23 5 1 0 0 0 0 0 0 0 0 
128 159 232 224 240 255 245 163 200 255 255 255 255 255 255 255 255 255 255 255 255 255 255 255 255 255 255 255 255 255 255 255 255 255 173 195 220 236 220 222 255 255 255 255 255 0 0 6 0 0 9 5 21 0 0 0 0 0 0 0 1 14 14 0 26 8 0 2 0 43 0 4 16 0 5 1 8 15 14 21 0 0 0 3 0 0 0 0 0 1 
121 151 218 225 223 242 228 155 235 255 255 255 255 255 255 255 255 255 255 255 255 255 255 255 255 255 255 226 216 255 255 255 206 212 189 250 255 254 255 232 255 255 255 255 255 0 0 1 0 10 0 9 10 0 0 0 2 0 0 1 0 0 0 0 5 6 0 39 0 37 0 0 21 0 0 32 0 45 0 7 0 26 2 0 1 0 0 0 0 0 
124 141 204 211 221 228 220 171 255 255 255 255 255 255 255 255 255 255 255 255 255 255 255 255 255 255 255 255 255 255 255 255 255 231 255 255 255 255 255 205 211 255 255 255 255 0 0 2 0 0 1 0 0 0 0 2 10 0 0 0 0 0 0 0 0 0 0 1 0 0 2 5 8 5 0 4 5 55 0 0 0 0 19 26 0 0 0 1 0 0 
173 255 255 240 215 211 255 255 255 255 255 255 255 255 255 255 255 255 255 255 255 255 255 255 255 255 255 255 255 255 255 255 255 255 225 255 255 255 255 250 255 255 255 255 255 0 0 26 0 0 3 0 0 31 0 20 0 0 0 0 0 0 0 0 0 0 0 0 0 0 0 0 0 0 1 7 11 30 10 15 0 42 0 65 18 0 0 0 0 0 
227 255 255 255 190 255 255 255 199 237 255 255 255 255 255 255 255 255 255 255 255 255 255 255 255 255 255 255 255 255 255 255 255 255 244 255 255 255 255 255 255 255 255 255 255 0 27 0 0 0 0 40 0 59 0 34 0 0 0 1 0 0 0 0 0 0 0 0 0 0 7 12 12 13 9 6 0 0 8 0 0 0 0 0 50 0 0 0 0 0 
255 255 255 255 149 255 255 255 107 254 255 249 255 255 255 255 255 255 255 255 255 255 255 255 255 255 250 255 255 255 255 255 255 255 255 255 255 255 255 255 255 255 255 255 255 36 0 0 24 1 0 0 36 11 0 10 1 0 0 1 0 0 0 0 0 5 12 11 13 12 8 0 0 0 7 1 0 0 8 24 0 0 0 22 6 0 0 1 0 0 
255 255 255 255 177 255 255 200 124 255 255 255 255 255 255 255 255 255 255 255 255 255 255 255 255 255 255 255 255 255 255 255 255 255 248 255 255 255 255 255 255 255 255 255 255 35 0 0 0 8 0 12 41 6 0 0 10 14 0 0 0 13 9 13 8 8 9 0 0 2 4 0 0 0 9 0 0 0 13 16 0 26 0 21 8 0 0 0 0 0 
255 255 255 255 136 255 231 113 132 255 255 255 255 255 255 255 255 255 255 255 255 255 255 255 255 255 255 250 255 255 255 213 219 185 221 255 234 229 255 255 255 255 255 255 255 0 0 0 61 0 1 19 20 0 0 0 32 28 0 0 37 5 0 6 0 1 3 0 3 0 5 2 2 0 20 40 0 9 0 0 0 19 0 0 28 0 0 0 0 0 
255 255 255 255 255 164 178 104 102 180 255 255 255 255 255 255 255 255 255 255 255 255 255 234 192 158 142 146 157 255 255 255 255 178 207 231 240 255 213 184 255 255 255 255 255 0 22 0 14 76 0 3 10 0 0 0 13 0 50 0 23 0 0 1 0 1 6 3 13 10 8 0 0 0 0 0 29 39 18 0 0 6 0 24 0 0 0 0 0 1 
255 255 255 255 255 255 255 255 255 184 255 255 255 255 232 220 250 252 238 210 180 140 119 107 104 115 136 161 189 238 255 255 255 255 218 167 186 204 205 255 226 255 255 255 255 1 25 0 1 0 6 5 10 23 8 0 0 10 19 28 0 0 4 5 6 9 6 5 1 0 0 0 0 0 0 0 0 0 41 33 10 0 0 1 0 13 0 1 0 0 
255 255 255 255 255 255 255 255 255 255 255 255 255 255 255 204 171 150 126 119 119 126 141 153 170 207 235 243 242 254 238 236 235 250 226 231 221 210 190 214 255 255 255 255 255 0 19 0 13 0 13 0 0 0 6 0 0 18 0 37 16 4 8 3 1 0 0 0 0 0 0 0 0 0 0 3 0 0 2 0 9 0 7 23 0 0 0 0 0 2 
255 255 255 255 255 203 146 255 255 255 255 255 255 255 255 255 201 165 150 168 188 210 237 250 255 254 249 216 185 173 161 168 180 165 157 188 150 174 204 167 234 255 255 255 255 0 0 8 0 70 14 3 0 13 1 0 4 13 0 13 25 14 5 0 0 0 0 0 0 0 2 2 13 2 5 0 0 0 3 0 4 0 7 0 0 0 1 1 0 0 
220 255 247 232 238 255 196 255 255 255 255 255 255 232 255 255 255 241 215 245 242 240 215 197 200 203 196 163 143 132 153 153 165 161 189 212 193 202 188 151 158 255 255 255 255 0 6 2 13 0 5 15 0 48 0 0 16 9 58 0 19 15 3 0 0 1 1 9 0 0 0 5 8 5 0 0 0 3 0 8 0 3 26 0 46 0 0 0 0 0 
255 255 236 255 255 255 237 255 255 255 255 255 255 132 218 255 255 234 206 196 192 217 205 168 162 177 161 137 140 140 159 153 152 188 255 255 186 190 191 176 185 255 255 255 255 15 30 0 0 0 2 28 33 0 0 0 14 22 63 0 13 34 6 3 5 0 0 14 3 0 0 9 0 0 0 0 2 0 0 0 49 10 16 0 39 0 0 6 0 0 
255 255 255 255 255 255 255 247 255 255 255 255 255 100 130 255 236 171 165 192 219 201 164 132 141 157 152 145 142 146 154 165 170 187 234 255 212 222 203 152 213 163 255 255 255 34 5 0 3 0 8 8 45 15 0 2 13 35 0 0 0 41 2 0 0 0 6 14 1 0 0 3 2 0 0 0 0 0 0 0 3 20 8 0 33 0 0 0 0 0 
255 255 255 255 255 255 255 255 255 255 255 255 213 127 111 255 202 171 167 184 212 190 173 138 127 143 153 157 158 158 170 186 168 184 220 226 197 200 177 160 224 168 255 255 255 41 24 0 2 0 9 0 0 13 0 2 11 78 0 20 0 41 0 2 0 0 6 8 6 0 0 0 0 0 0 0 2 4 0 0 0 24 0 0 12 18 12 0 1 0 
255 255 255 255 255 255 255 255 255 255 255 255 168 124 131 203 255 189 167 151 150 142 150 162 169 176 166 160 171 171 188 190 185 196 220 217 180 187 191 168 168 177 255 255 255 9 10 0 1 0 46 0 59 0 0 8 6 75 0 26 0 23 6 4 0 1 1 0 0 0 0 5 0 1 0 0 1 0 0 0 2 21 0 0 13 19 0 0 0 0 
255 255 255 255 255 255 255 255 255 255 255 255 127 156 136 196 255 255 186 178 177 178 187 187 171 167 168 178 183 193 194 207 189 185 231 158 196 160 168 148 143 158 255 255 255 0 0 0 0 1 29 0 0 0 0 5 8 34 0 9 30 0 39 10 0 3 0 0 1 5 0 0 0 0 2 0 0 7 0 26 7 18 0 8 2 8 2 0 5 1 
255 255 255 255 255 255 255 255 255 255 255 255 122 161 127 162 191 255 239 215 200 200 200 193 172 176 187 187 188 191 157 170 125 114 194 129 216 220 223 163 128 106 255 255 255 10 0 17 0 31 0 27 0 0 6 2 34 0 2 7 14 0 18 18 1 3 0 0 3 5 0 0 1 0 2 0 0 8 0 9 0 0 0 5 34 0 19 0 3 1 
180 255 243 236 255 255 255 255 255 255 255 255 155 150 145 158 150 255 252 234 216 217 216 206 191 180 164 167 148 185 139 155 109 123 136 97 142 137 160 168 150 115 220 255 255 9 0 84 0 29 9 0 0 5 5 1 54 0 3 21 0 0 0 14 0 4 0 1 5 0 5 0 15 0 2 0 0 7 0 26 0 0 0 4 8 0 14 0 4 0 
243 255 255 255 183 255 255 255 255 255 255 237 123 173 134 177 125 200 247 244 218 225 220 177 208 168 138 195 172 223 171 192 146 160 205 137 190 150 133 110 111 183 143 255 255 0 0 86 0 3 0 0 0 3 1 3 68 0 0 29 1 0 0 0 3 3 0 13 5 0 25 0 14 0 0 0 0 6 0 35 3 0 0 14 0 0 1 0 0 0 
255 255 255 255 205 255 255 255 255 255 255 236 115 167 126 185 137 214 237 255 212 212 194 149 207 166 135 183 148 215 161 170 124 133 193 121 185 185 191 101 141 122 124 255 255 0 1 39 52 0 0 0 0 7 5 3 40 0 0 29 0 0 0 0 0 24 0 31 1 0 26 0 17 10 0 1 0 7 0 36 0 0 0 10 0 3 10 0 0 0 
255 255 255 255 181 255 255 255 255 255 255 242 126 105 118 197 131 192 188 212 185 198 185 150 221 170 152 210 185 223 175 190 140 150 220 145 195 170 155 95 130 140 114 255 255 3 0 54 23 12 0 0 0 2 8 13 43 6 0 5 0 1 0 12 0 27 0 31 0 0 21 0 17 10 0 5 0 5 0 29 3 0 0 30 0 0 3 8 0 0 
255 255 255 222 160 191 255 255 255 255 255 220 160 95 99 195 152 202 215 230 205 206 188 143 213 155 143 201 178 216 158 169 119 129 182 119 175 173 146 142 163 121 169 255 255 0 0 6 21 3 0 0 1 0 12 0 46 18 0 0 0 12 0 14 0 32 0 37 2 0 22 0 10 5 0 12 0 5 0 31 1 0 0 33 0 0 6 0 0 0 
255 255 255 227 243 247 246 255 255 255 255 161 140 125 113 170 143 152 165 177 169 182 168 137 196 137 143 207 193 245 192 190 136 152 193 135 190 175 132 117 155 103 142 255 255 5 3 0 21 0 0 0 0 10 19 12 7 23 0 5 0 27 0 13 0 24 0 25 0 0 6 0 11 6 0 15 0 1 0 30 1 0 0 26 0 0 4 0 0 0 
255 255 255 255 225 189 186 164 179 168 142 137 133 155 155 210 203 203 210 187 159 167 145 113 185 120 113 161 143 191 162 162 116 127 128 104 137 162 150 119 150 121 115 255 255 0 16 4 45 16 8 0 0 0 13 2 0 0 0 10 0 36 0 21 0 29 0 31 0 0 15 0 14 8 0 12 0 3 0 25 0 5 1 15 3 0 6 14 0 5 
255 255 255 255 220 227 250 241 174 155 154 156 155 158 127 157 150 159 183 226 197 226 193 161 242 178 154 207 182 233 205 201 156 197 151 114 145 124 113 101 106 99 165 127 255 0 1 2 0 18 0 0 19 7 0 0 2 12 0 19 0 30 0 14 0 23 0 34 0 0 26 0 17 10 0 9 5 0 0 25 0 13 0 0 10 0 0 21 0 0 
0 0 0 0 0 16 11 3 12 8 2 0 2 0 0 0 0 13 0 0 4 24 8 70 89 20 4 0 12 32 12 35 0 9 0 0 6 0 3 0 0 0 0 0 0 0 1 1 3 0 15 14 0 0 0 9 0 4 3 7 0 7 0 6 0 1 3 4 0 3 16 4 0 0 7 0 6 0 2 0 2 5 0 2 0 4 0 1 0 0 
0 1 32 38 26 0 13 30 20 0 2 0 0 0 21 17 1 0 7 13 2 4 1 0 0 0 3 0 8 0 4 0 0 4 13 11 9 0 5 4 4 0 1 0 0 0 4 0 0 29 0 0 7 4 8 0 0 0 4 0 2 0 8 0 15 0 0 1 0 15 0 2 0 0 3 0 4 0 2 0 0 0 1 2 0 4 0 2 0 0 
42 15 7 0 11 50 20 18 0 0 31 0 0 0 0 0 0 5 1 0 3 14 0 0 11 19 0 0 0 0 8 0 0 5 2 0 0 15 0 8 0 1 1 0 0 2 0 13 0 0 0 6 0 8 0 0 13 11 0 0 1 3 0 0 0 0 8 0 0 0 8 15 0 6 0 12 0 0 0 1 8 4 0 2 0 5 0 0 2 0 
2 0 0 0 0 0 0 8 0 3 0 18 20 0 0 7 8 0 0 11 6 0 0 0 0 14 50 0 4 0 0 2 9 4 8 17 0 0 8 4 0 0 1 1 0 6 0 0 8 0 2 0 3 2 14 1 0 0 13 0 0 3 0 7 0 3 2 2 0 1 2 0 6 0 7 0 6 0 5 0 10 0 8 0 2 3 0 0 0 0 
6 0 0 0 0 0 0 0 19 7 44 4 12 31 4 9 6 13 12 0 10 13 15 20 6 0 0 0 1 0 14 9 0 0 0 0 0 0 5 2 0 0 7 23 12 5 18 3 0 9 0 9 0 8 0 0 19 6 0 0 0 1 0 0 5 3 0 0 11 5 1 0 0 2 1 2 5 3 0 5 0 9 0 0 1 3 0 0 0 8 
0 18 24 37 0 0 51 57 6 23 5 13 3 18 13 4 0 8 0 0 9 13 0 14 4 0 5 9 0 6 9 0 0 0 0 6 9 0 0 0 23 7 0 0 0 0 0 0 8 4 0 0 14 2 0 3 1 0 0 1 2 0 0 1 8 0 0 0 0 5 1 0 7 0 0 15 0 0 0 0 0 0 10 1 0 0 9 5 0 0 
6 8 27 0 0 0 0 0 0 0 6 1 0 0 0 7 14 1 8 0 0 1 7 0 0 0 0 0 21 4 0 0 26 12 3 0 8 18 0 19 5 0 0 1 0 0 0 6 3 0 2 1 11 0 13 0 0 9 0 0 0 3 1 0 6 0 3 1 2 0 12 19 0 0 9 18 0 6 0 10 0 0 0 6 2 0 0 0 1 0 
12 0 0 13 0 0 18 0 18 8 3 11 10 4 0 0 0 0 0 14 0 0 0 0 0 0 95 39 0 36 57 85 0 0 0 0 0 0 29 8 3 0 0 0 0 2 8 0 10 2 0 12 0 14 1 0 3 0 8 2 0 4 4 2 0 14 0 0 3 28 0 0 24 0 0 0 10 54 0 0 2 5 0 0 2 10 0 0 1 0 
16 14 39 9 2 19 0 43 9 13 7 0 0 9 12 9 0 0 0 0 0 11 0 0 0 40 0 0 0 0 0 0 42 0 8 9 1 1 0 3 3 0 0 0 1 10 0 9 7 0 11 0 0 0 0 0 7 1 0 7 4 14 0 5 0 0 12 1 7 0 41 6 0 0 0 0 0 0 47 0 1 2 1 3 0 3 0 0 0 0 
0 0 0 25 41 7 33 0 8 0 5 0 11 1 4 1 6 7 11 17 0 0 4 0 40 0 0 0 0 0 0 0 0 12 0 12 0 0 0 0 0 0 0 0 0 0 9 0 0 23 0 4 0 8 0 6 0 0 1 0 3 0 1 0 1 12 0 0 13 30 0 0 0 0 6 8 0 0 0 0 1 1 0 0 0 3 0 0 0 0 
0 0 31 0 0 9 3 21 0 0 0 16 2 3 1 1 10 0 0 0 6 9 6 0 0 0 0 4 3 3 6 4 2 7 0 1 0 10 10 0 0 1 1 1 0 0 0 0 22 0 0 0 13 15 0 0 7 5 0 2 0 0 30 0 0 0 9 0 0 11 0 0 0 0 0 0 0 1 0 12 7 0 2 2 8 0 0 0 0 0 
7 12 27 76 1 3 0 0 19 41 16 0 0 6 0 0 0 16 36 5 2 5 8 16 3 3 4 0 0 0 0 0 0 4 4 0 0 0 0 0 0 0 0 0 2 0 0 3 0 15 9 0 0 0 14 0 18 0 0 5 0 0 0 10 0 0 0 5 0 0 4 0 2 0 0 0 0 0 0 9 0 2 0 0 0 0 0 0 0 0 
33 6 0 0 44 23 23 11 0 0 0 23 8 0 0 36 45 0 3 22 15 10 6 0 0 0 0 15 29 34 4 2 4 4 4 13 31 14 33 11 49 26 12 2 0 21 1 3 0 4 0 1 18 12 0 6 0 8 30 0 0 12 2 0 17 0 5 3 3 3 0 1 0 0 3 8 0 1 2 0 0 0 0 0 3 0 10 3 4 2 
0 7 9 0 0 6 0 0 52 0 0 0 0 9 43 0 0 59 3 0 3 5 0 0 0 0 0 5 0 0 0 22 33 16 0 0 0 15 0 0 0 0 0 0 2 0 0 0 22 0 7 4 0 0 13 4 0 5 0 44 0 14 0 22 0 0 0 10 18 0 0 0 3 9 0 0 0 9 1 9 0 0 2 2 9 0 0 0 0 0 
5 3 6 16 36 0 18 4 6 8 6 9 0 22 0 21 33 0 10 0 2 0 3 0 0 0 0 0 1 0 0 0 0 0 4 0 6 1 0 16 7 0 1 0 0 4 0 2 0 9 2 0 4 4 1 0 5 10 0 0 3 0 0 8 0 0 2 2 3 7 0 5 0 6 0 0 4 0 8 0 0 2 3 0 0 6 0 1 0 0 
2 1 3 3 0 0 35 26 8 0 0 9 17 13 5 32 4 0 16 0 0 0 11 0 5 4 4 0 0 18 0 0 0 0 0 0 0 0 0 0 0 0 0 1 0 2 1 0 0 4 0 0 10 0 1 0 0 3 28 3 0 21 0 0 0 1 1 0 0 0 7 0 3 0 5 0 2 2 0 0 5 0 0 5 0 3 0 1 0 0 
6 5 0 0 0 12 0 28 12 0 0 0 0 0 27 0 10 14 0 7 6 1 24 7 0 18 5 7 5 0 32 50 14 6 0 14 6 1 0 0 0 1 0 1 1 0 5 4 0 0 0 1 0 0 26 5 0 0 0 0 0 0 11 1 4 0 5 0 4 3 0 1 0 15 0 0 0 3 1 10 0 0 5 3 0 3 1 1 0 0 
6 0 8 12 0 0 27 1 7 0 0 1 1 0 0 0 0 0 0 0 0 2 0 7 4 3 10 10 18 0 3 0 11 1 10 0 0 0 1 5 0 2 0 0 0 0 1 0 6 5 0 0 0 6 0 0 0 0 6 35 0 0 11 0 5 0 0 9 0 0 0 1 0 0 2 0 15 0 1 1 0 1 2 0 7 0 1 0 0 0 
9 0 0 0 0 0 4 4 0 17 0 0 0 0 0 1 0 0 0 0 0 0 0 0 6 4 3 10 1 0 0 0 2 20 8 9 0 6 0 0 0 0 0 1 0 0 7 5 0 0 1 0 4 11 5 1 0 0 0 0 0 14 9 3 0 15 9 29 0 5 0 0 0 16 2 0 0 0 0 0 13 3 0 0 6 0 2 1 0 0 
0 2 9 11 9 29 8 0 0 25 1 1 6 0 0 0 1 0 0 0 0 0 0 0 0 0 10 23 22 31 18 13 31 24 0 0 0 0 8 0 43 21 18 19 17 0 0 0 0 0 0 5 3 0 0 0 0 4 0 0 0 0 0 0 5 6 0 8 0 6 0 0 3 0 20 0 4 8 15 0 9 0 2 0 1 0 6 1 0 0 
3 4 5 0 0 0 0 0 0 3 19 37 11 0 0 1 0 0 0 0 1 0 0 0 0 0 0 0 0 0 0 0 0 0 0 0 46 0 0 1 0 0 0 0 0 0 0 0 1 0 3 0 18 0 21 0 0 13 0 0 0 0 0 0 0 0 0 0 0 0 2 5 8 6 0 7 3 0 0 20 0 0 17 0 0 4 0 0 2 0 
0 0 0 0 1 1 0 0 21 0 10 0 1 1 1 0 0 0 0 0 0 0 0 0 0 0 1 0 0 1 19 55 65 10 4 53 8 11 0 0 0 5 0 2 0 39 0 13 0 0 0 15 0 0 16 0 4 0 0 0 0 0 0 0 0 0 0 0 0 0 0 0 0 1 0 0 0 19 0 0 15 0 16 9 0 0 1 0 0 0 
41 8 0 44 19 0 48 1 28 19 0 44 1 0 0 0 0 0 0 0 0 0 1 0 1 14 57 93 77 38 12 0 0 0 0 0 0 0 0 0 0 1 0 0 0 0 48 0 0 8 1 7 0 4 5 0 4 2 0 0 1 0 0 0 0 1 0 0 0 0 0 0 0 8 8 6 2 0 1 15 0 38 0 3 24 0 0 0 0 0 
0 32 0 0 0 16 0 21 2 0 0 0 42 1 0 0 0 0 0 0 10 46 90 89 54 13 0 0 0 4 4 1 0 0 29 0 10 26 33 68 21 0 0 0 1 0 3 3 21 0 1 0 0 8 0 13 0 14 1 0 1 0 0 0 0 0 0 0 5 9 6 4 0 0 0 2 0 1 0 0 45 0 13 0 12 16 0 2 0 0 
22 0 7 10 0 0 13 26 17 3 3 0 11 36 4 1 26 66 79 53 13 0 0 0 0 0 0 0 0 1 0 7 14 25 0 0 18 24 0 0 2 0 0 0 0 1 8 0 0 20 0 0 5 1 0 3 0 0 10 2 0 0 0 1 10 6 2 0 0 1 0 0 0 5 2 0 0 1 0 2 0 0 0 41 0 0 0 1 1 1 
0 0 0 49 23 44 26 13 1 15 0 0 0 38 32 49 12 0 0 2 0 0 0 0 1 4 14 23 40 0 0 8 0 10 17 3 0 2 54 79 8 0 1 0 0 10 0 2 0 0 1 0 12 4 4 0 0 24 0 0 0 8 0 0 0 0 1 0 0 0 0 0 0 0 20 0 1 4 0 6 0 9 0 0 0 13 0 0 0 0 
0 3 3 0 0 0 7 0 0 7 4 0 0 0 42 8 5 5 4 0 3 18 31 44 46 41 23 12 8 94 49 0 0 0 14 18 2 8 0 20 44 18 5 1 0 0 0 11 14 0 0 2 3 0 0 2 2 0 0 0 10 0 1 1 1 0 0 0 0 0 3 5 0 0 0 35 29 0 0 6 0 0 2 1 3 0 7 3 0 0 
0 7 18 38 18 0 0 0 0 0 6 2 4 0 0 28 17 21 36 48 48 33 13 3 0 0 0 0 0 0 0 59 23 0 0 0 14 35 35 0 0 0 0 3 17 0 0 1 0 17 6 5 8 18 0 4 1 0 10 0 0 2 0 0 0 0 5 3 2 0 3 0 2 2 2 0 0 19 29 0 0 0 0 0 26 0 0 0 0 0 
33 0 34 29 36 115 134 115 114 8 11 1 0 6 0 0 8 10 2 0 0 0 0 0 0 0 0 0 7 23 35 29 33 77 35 23 2 0 0 28 8 0 0 0 0 0 6 0 3 0 0 0 5 0 29 18 0 0 8 4 0 0 2 0 3 1 2 1 2 3 0 0 0 0 0 0 5 0 2 8 1 9 1 5 0 52 0 0 0 1 
35 29 0 0 0 0 0 0 0 3 0 3 2 16 0 0 0 0 0 0 0 0 0 0 2 11 14 18 14 11 5 15 14 9 6 0 7 9 33 23 54 3 1 0 1 8 8 3 0 0 7 0 14 0 30 0 0 6 0 5 0 0 0 1 1 0 0 0 0 0 0 0 0 1 1 0 0 3 0 0 4 0 0 2 0 0 6 0 0 0 
0 0 74 71 11 0 0 18 26 0 3 6 0 31 22 0 0 0 0 0 9 9 15 14 15 12 15 13 7 5 0 0 0 0 0 11 0 0 0 0 0 20 0 2 1 9 0 0 10 9 5 0 0 41 0 0 0 0 0 27 2 0 0 0 0 0 0 0 3 0 2 0 3 0 2 2 0 0 11 0 6 1 3 1 0 6 18 1 0 0 
0 0 0 0 0 0 0 18 0 0 2 2 10 19 37 0 10 21 17 13 0 0 0 10 4 0 3 0 0 0 3 2 0 8 3 0 0 12 18 10 0 31 0 2 0 0 6 18 0 0 0 0 0 40 0 0 1 1 12 0 0 0 0 2 3 0 1 0 0 1 0 1 1 0 0 0 3 0 0 27 0 0 0 1 6 3 0 0 0 1 
9 3 0 0 0 1 0 0 0 1 0 0 14 0 7 18 19 3 0 0 0 6 10 4 4 6 3 1 1 1 0 0 0 0 22 27 10 0 3 0 3 9 7 1 0 1 0 7 0 0 0 15 32 0 0 0 1 0 15 0 15 3 0 0 3 1 0 2 0 0 0 1 0 0 0 3 0 0 3 0 11 0 6 1 0 0 0 9 0 1 
14 0 0 1 0 3 0 0 14 2 3 5 14 0 1 24 0 0 0 6 13 6 0 2 0 0 0 0 0 0 0 0 0 2 0 4 0 0 0 3 0 0 11 2 1 1 0 0 1 0 0 0 6 17 6 0 0 0 1 0 0 0 0 2 0 0 2 0 0 0 1 0 0 0 0 1 0 0 0 3 0 5 5 0 2 0 0 14 0 1 
0 0 0 1 0 43 60 28 0 0 4 4 10 0 0 4 0 0 4 8 10 4 0 0 0 2 5 0 0 0 0 0 0 0 0 12 13 23 8 0 26 0 5 14 2 0 9 0 2 1 0 41 2 0 0 2 3 5 0 0 0 18 0 0 0 0 1 3 1 0 0 0 1 1 0 0 0 1 0 0 0 0 1 0 8 0 8 0 2 1 
32 5 16 6 9 0 0 1 0 0 3 6 8 3 0 28 26 0 0 0 0 0 0 0 0 0 0 0 0 0 0 0 0 9 0 0 0 0 0 1 0 13 10 0 0 22 0 3 0 0 49 0 7 0 0 0 0 15 0 2 1 22 1 0 0 0 0 0 0 0 1 0 0 0 1 0 3 0 0 0 4 0 0 0 0 13 0 13 2 0 
73 70 60 73 22 1 26 0 0 3 1 11 0 0 0 0 23 4 0 0 0 0 0 0 0 0 0 0 6 5 18 24 23 10 16 18 17 1 0 0 1 0 17 0 0 7 10 0 2 18 0 30 0 2 0 0 0 5 0 0 10 0 10 0 0 1 0 0 0 0 0 1 0 0 0 1 0 2 0 13 0 20 0 13 0 6 0 0 0 0 
0 0 0 0 35 34 0 0 0 3 2 8 0 11 0 5 7 31 0 0 0 0 0 0 0 2 13 2 0 0 0 0 0 0 0 3 8 13 11 16 7 0 6 2 1 2 0 0 28 0 7 0 3 0 3 0 0 3 16 0 0 0 12 3 1 0 1 0 0 9 0 0 0 1 2 0 0 0 4 0 5 0 0 0 14 0 6 0 2 0 
0 0 10 0 0 0 3 0 3 1 0 1 19 0 6 0 0 18 7 0 1 4 8 18 11 4 6 9 8 11 7 12 7 5 0 0 0 0 0 0 4 2 14 4 1 13 0 0 0 8 3 0 3 1 0 0 4 0 0 0 6 0 0 6 0 0 0 0 0 1 1 0 1 0 0 2 1 0 0 6 0 6 0 0 5 0 0 1 5 0 
0 12 0 40 18 0 3 0 0 0 4 0 1 0 9 5 3 1 7 3 1 0 0 0 0 0 0 0 0 0 0 0 0 1 3 9 14 10 5 6 8 2 7 7 0 0 3 13 13 13 0 0 0 2 0 0 5 0 0 6 0 0 2 0 5 0 2 0 0 4 0 1 0 0 12 0 0 0 0 0 0 3 0 0 0 2 5 0 7 0 
8 6 8 0 5 19 0 0 1 5 6 0 0 22 0 0 0 0 8 13 17 20 23 21 22 16 7 6 0 9 13 8 3 0 3 0 0 0 0 0 0 0 0 1 0 7 0 1 0 0 20 1 0 2 1 0 0 0 3 7 10 0 1 0 0 1 1 3 1 1 3 1 3 0 0 1 0 0 3 0 3 2 0 0 0 0 0 8 0 0 
0 7 26 19 0 22 5 1 1 6 0 21 6 0 6 17 13 16 0 0 0 0 0 0 0 0 0 0 0 0 0 0 0 0 0 3 13 13 13 0 5 1 0 0 1 0 0 3 14 0 0 9 0 1 0 12 1 10 0 0 2 0 3 5 0 0 0 0 0 0 0 0 0 1 0 0 0 0 0 0 0 0 5 8 6 8 3 18 0 0 
0 0 4 0 0 0 44 26 4 16 43 0 0 0 0 0 0 0 0 17 21 27 26 20 30 18 13 15 11 14 14 8 3 6 6 0 0 0 0 3 21 4 0 34 11 1 0 0 0 17 0 0 16 0 0 0 13 0 4 0 0 0 1 0 0 0 0 5 0 0 3 0 1 5 1 5 1 0 0 3 1 0 3 0 1 0 7 0 17 5 
53 50 33 30 47 19 0 5 46 7 0 28 0 1 21 16 0 0 0 0 0 0 0 0 0 0 1 1 1 0 0 0 0 0 8 8 19 28 3 0 0 13 10 3 0 0 3 0 3 0 22 2 0 15 3 0 3 7 0 3 5 10 3 0 0 0 0 0 0 3 1 0 2 0 0 2 0 1 0 1 2 0 0 14 0 0 0 9 0 0 
0 0 0 0 0 0 0 0 8 0 0 0 0 0 0 0 5 14 31 28 22 18 17 10 0 0 0 0 0 0 0 0 0 0 0 0 0 0 16 12 7 0 0 24 10 0 0 0 3 0 5 0 4 0 16 21 0 0 0 1 0 0 0 0 0 3 0 0 2 2 0 0 0 0 0 0 0 0 4 0 0 0 1 0 3 0 16 0 0 14 
