P2
40 40
255
17 9 10 8 10 13 9 24 99 147 147 96 16 14 18 15 17 14 16 7 0 7 0 0 0 0 5 0 0 0 6 15 1 10 2 10 0 0 0 1
9 8 10 10 23 85 255 255 255 255 255 255 255 255 74 15 16 15 4 9 0 1 6 0 0 0 0 0 0 1 2 3 20 63 48 0 13 0 0 6
9 7 9 17 255 255 255 255 255 255 255 255 255 255 255 224 24 6 14 9 0 2 0 0 0 0 0 9 0 0 2 0 11 12 30 69 0 5 2 0
8 14 17 255 255 255 255 255 255 255 255 255 255 255 255 255 255 22 16 3 0 0 0 0 0 0 7 5 5 0 4 0 2 7 17 12 98 4 4 0
11 6 229 255 255 255 255 255 255 203 183 238 255 255 255 255 255 244 11 10 0 1 0 0 8 5 8 8 79 14 0 0 0 8 0 6 3 114 5 6
14 68 255 255 255 255 255 254 13 135 206 40 86 255 255 255 255 255 113 4 0 0 0 0 10 7 0 83 1 0 29 25 0 0 2 0 1 31 93 0
16 255 255 255 255 255 255 31 13 255 255 196 23 250 255 255 255 255 255 10 0 0 4 0 0 0 82 6 3 0 0 192 1 0 6 2 5 10 122 9
11 255 255 255 255 255 255 19 6 236 255 140 24 255 255 255 255 255 255 44 0 0 0 0 0 0 131 2 4 0 0 124 0 0 2 3 6 0 16 39
22 255 255 255 255 255 255 58 20 7 20 7 234 255 255 255 255 255 255 152 0 0 0 0 0 0 28 46 0 0 2 0 0 0 0 10 0 8 27 146
39 255 255 255 255 255 255 255 15 14 26 6 13 255 255 255 255 255 255 185 0 0 0 0 4 0 12 145 0 0 1 0 0 0 0 0 0 6 7 174
21 255 255 255 255 255 255 140 47 255 148 17 20 65 255 255 255 255 255 187 0 0 0 0 0 3 1 110 0 0 50 8 0 0 0 0 0 5 6 175
7 255 255 255 255 255 255 12 202 255 255 255 15 27 255 255 255 255 255 159 0 0 0 0 6 0 66 1 0 0 7 132 7 11 0 0 0 7 27 148
14 255 255 255 255 255 255 42 157 255 255 255 20 75 255 255 255 255 255 68 3 0 0 4 5 6 43 27 0 0 2 79 5 0 0 5 0 5 8 61
9 144 255 255 255 255 255 255 17 141 169 47 64 255 255 255 255 255 255 11 0 0 0 0 0 5 0 83 0 0 11 43 0 0 6 2 11 3 103 5
20 9 255 255 255 255 255 255 255 229 221 241 255 255 255 255 255 255 135 9 0 0 0 0 0 2 2 13 68 22 0 0 0 0 0 3 2 21 124 6
13 14 80 255 255 255 255 255 255 255 255 255 255 255 255 255 255 255 16 9 0 14 0 0 11 10 6 0 11 2 1 1 0 0 0 11 12 115 4 0
1 2 10 137 255 255 255 255 255 255 255 255 255 255 255 255 255 46 12 11 0 2 9 0 0 0 0 0 0 0 0 0 0 0 8 9 115 4 8 0
5 2 12 10 67 255 255 255 255 255 255 255 255 255 255 255 32 5 23 8 3 2 0 0 0 0 0 0 0 0 1 0 0 0 18 84 0 5 0 0
7 17 3 5 14 19 133 255 255 255 255 255 255 249 64 10 11 18 18 13 2 0 3 4 0 0 0 0 0 0 2 2 33 36 49 0 5 0 0 8
22 3 3 13 7 4 15 12 7 10 13 9 15 6 16 15 20 23 6 8 0 1 3 8 0 0 1 0 1 0 1 0 0 0 0 11 0 0 5 0
0 0 0 2 0 2 0 0 0 0 0 0 0 0 0 0 0 5 0 2 11 0 7 0 0 2 0 7 11 9 0 0 0 0 5 0 17 0 5 2
2 2 0 0 2 0 0 0 0 0 0 0 0 0 0 11 0 0 3 0 0 5 0 3 0 68 0 8 0 0 1 4 21 12 0 0 0 6 0 0
4 1 5 0 0 0 0 0 0 0 0 0 0 0 0 0 0 4 2 1 0 4 0 13 0 0 12 3 0 0 1 2 14 0 27 19 0 5 0 0
0 0 0 0 0 4 0 0 0 16 19 4 0 10 8 0 0 0 0 0 7 0 15 11 0 0 5 1 0 0 1 4 0 8 0 15 3 0 1 1
0 2 0 0 9 0 2 0 146 177 129 188 36 11 0 6 0 0 0 1 1 0 0 0 0 12 0 9 0 30 0 22 20 0 0 10 6 30 0 5
1 0 0 0 0 5 0 110 3 0 0 0 65 54 0 0 5 0 0 0 0 45 0 11 9 0 0 0 9 91 0 0 0 48 8 0 0 2 0 0
0 0 0 0 3 0 44 6 3 0 0 0 4 4 0 0 0 4 0 0 2 0 11 0 7 0 0 29 0 21 11 0 12 0 0 18 3 11 27 0
2 0 0 1 0 1 0 0 0 118 39 81 0 0 20 0 3 0 0 0 0 0 0 11 0 9 0 0 0 14 43 67 5 0 0 0 0 0 14 0
0 0 0 0 1 5 0 0 0 4 0 0 0 4 3 0 0 0 0 0 3 0 0 0 1 0 13 0 18 0 0 1 0 0 0 0 0 0 4 0
1 0 3 2 0 0 3 0 0 5 0 2 0 110 0 0 3 0 0 0 1 0 0 0 2 0 2 3 12 0 5 0 0 84 0 0 0 0 4 0
4 7 0 0 0 1 2 68 0 0 0 0 17 44 0 6 0 0 0 3 0 4 0 0 0 1 0 40 46 17 0 0 0 0 0 0 1 0 0 5
2 6 0 3 0 0 8 10 0 0 0 0 4 14 0 11 0 4 4 8 0 3 0 0 4 0 0 0 33 2 0 33 10 2 6 6 1 0 0 5
2 41 2 0 0 1 0 0 42 8 3 28 0 0 2 0 1 0 10 34 0 49 14 4 0 2 8 0 0 15 18 0 0 69 20 6 9 21 4 29
0 51 0 8 2 0 0 0 2 127 160 44 0 0 0 0 6 3 37 0 9 0 0 6 2 0 5 13 0 0 18 44 50 0 0 0 0 0 0 0
0 9 66 0 0 0 0 0 0 0 0 0 0 0 1 0 0 7 53 5 4 0 64 0 0 1 0 7 75 0 15 0 0 10 0 0 16 5 44 8
10 0 62 31 1 5 0 0 12 0 6 1 0 8 0 3 16 79 8 1 0 0 0 41 0 0 1 3 0 11 0 0 12 0 15 0 0 0 10 0
0 0 0 77 33 0 8 2 6 0 0 1 2 0 9 12 129 5 12 0 0 0 0 0 20 0 1 0 2 2 0 0 1 1 0 7 0 45 8 0
2 0 5 0 54 104 0 12 0 0 0 0 6 0 20 131 0 0 4 0 0 0 3 0 0 41 0 5 0 0 0 0 7 1 0 0 24 0 0 0
0 6 0 1 10 0 114 177 30 18 16 23 77 186 57 0 8 0 0 7 0 2 0 0 0 8 0 29 2 2 0 0 0 2 44 0 6 0 17 12
3 0 0 4 3 2 0 8 0 6 11 2 0 0 10 3 0 23 0 2 8 0 0 0 2 0 2 0 0 0 1 1 0 2 0 7 20 0 0 0
