P2
90 90
255
84 83 88 90 92 92 91 92 91 93 92 93 99 103 108 110 112 112 112 110 106 102 105 121 127 138 163 130 145 149 126 152 127 146 101 111 112 101 126 126 133 105 110 124 139 0 2 0 0 0 0 0 0 0 0 0 0 0 0 0 1 0 1 0 1 2 0 0 0 0 0 0 8 0 0 7 0 0 10 0 4 3 0 0 0 18 3 0 0 0 
120 88 90 92 92 94 93 90 92 92 90 92 97 106 111 110 113 115 115 114 108 102 106 110 112 122 150 126 137 165 163 113 100 132 102 154 132 151 116 161 112 118 123 124 115 5 5 0 0 0 0 1 0 0 0 0 0 0 0 0 1 0 1 0 1 0 1 0 1 0 0 0 1 0 7 0 7 0 0 0 4 16 0 0 0 8 0 0 3 0 
90 90 85 93 92 95 93 89 91 92 91 94 100 107 112 113 114 116 116 113 110 107 109 148 124 112 115 122 114 118 125 126 132 119 113 97 126 125 123 166 135 125 109 124 111 0 0 0 5 0 0 1 1 0 0 0 0 0 0 0 1 0 0 0 1 2 0 0 0 8 0 0 7 0 0 0 6 0 0 4 0 0 0 2 0 2 8 0 3 2 
119 103 103 108 94 95 93 90 91 92 93 98 106 108 112 116 116 118 116 112 110 111 114 134 145 153 121 102 100 97 95 138 135 113 134 128 101 101 125 126 132 133 116 109 105 0 0 0 12 0 0 1 0 0 0 0 0 0 0 0 1 0 0 0 2 0 0 0 0 0 0 6 0 1 2 0 0 14 0 18 19 4 0 0 14 0 2 5 1 1 
100 92 83 91 95 95 92 90 91 93 97 101 110 112 113 117 116 118 115 112 113 115 113 98 120 116 102 109 100 96 123 104 88 95 153 106 94 104 150 101 108 108 106 102 101 1 0 0 0 0 1 0 1 0 0 0 0 0 0 0 0 0 0 1 0 0 0 1 5 0 11 0 3 0 0 0 0 4 0 0 18 0 0 0 1 1 0 2 0 0 
116 102 108 96 96 95 91 88 92 96 101 107 115 118 117 118 119 120 115 114 114 120 118 110 102 107 116 106 103 97 104 90 87 98 101 105 88 127 121 93 88 96 99 96 97 10 0 18 0 0 1 1 1 0 0 0 0 0 0 0 0 0 0 1 0 0 0 2 0 3 0 3 0 1 1 0 2 0 0 0 16 0 0 25 5 0 0 1 0 0 
134 110 100 99 95 94 92 91 93 96 106 114 123 127 123 119 119 118 114 113 115 120 121 119 118 114 115 111 128 99 101 129 98 92 90 134 117 143 96 96 92 91 91 92 96 0 18 8 2 1 0 1 0 0 0 0 0 0 0 1 1 0 0 0 0 0 0 0 0 2 0 1 0 13 1 0 8 6 0 8 7 0 25 1 0 1 0 1 0 0 
144 121 97 122 99 96 92 91 95 99 110 121 128 133 127 119 116 116 112 112 116 118 140 157 130 123 119 117 133 104 109 105 96 96 88 117 156 110 110 106 103 98 95 97 106 35 5 0 0 2 0 2 0 0 0 0 0 0 0 2 1 0 1 0 0 0 0 0 1 1 2 0 1 0 4 0 0 5 0 10 0 19 1 1 0 2 0 0 0 0 
106 119 98 102 99 96 95 95 96 106 110 127 137 130 128 121 114 113 110 112 116 118 129 135 144 142 133 145 151 152 126 100 100 109 122 127 138 104 111 112 108 103 105 106 107 0 0 13 0 0 0 1 1 0 0 0 0 0 0 0 0 0 1 0 0 0 0 1 0 0 5 0 5 0 0 16 2 3 0 1 0 10 0 0 1 2 0 0 0 0 
118 143 121 125 103 114 98 111 101 105 109 90 125 121 127 126 118 112 113 113 111 123 125 156 135 126 123 121 114 113 133 140 112 93 85 90 133 110 106 110 103 100 103 108 104 0 16 0 11 5 0 0 10 0 0 5 0 12 2 0 2 1 0 0 0 0 0 0 0 6 0 1 0 6 10 0 13 5 5 0 0 0 7 0 2 1 0 0 0 0 
93 147 144 101 152 123 115 110 134 111 115 127 140 174 146 136 124 116 115 116 120 130 153 120 142 132 128 120 123 114 109 109 107 97 85 86 121 148 104 102 98 99 101 106 104 0 0 23 0 28 1 0 0 22 0 0 3 0 0 1 6 2 1 0 0 0 0 9 0 0 3 0 1 0 0 0 0 0 5 0 0 0 4 2 0 1 0 0 0 0 
94 91 159 104 104 106 137 146 106 148 133 132 151 194 169 142 130 122 115 119 124 124 109 124 133 132 130 127 123 109 107 107 108 99 90 84 87 113 106 97 95 100 100 100 97 0 0 0 3 1 0 0 39 0 0 7 0 0 0 14 4 1 3 1 0 0 1 3 0 0 2 2 0 0 1 6 1 2 1 3 0 0 0 8 4 0 0 1 0 0 
97 93 111 159 108 131 160 134 116 125 163 165 184 151 154 147 140 130 117 120 126 132 121 151 162 147 137 137 121 106 106 106 107 102 91 86 86 102 116 93 100 109 115 113 98 1 6 0 6 3 0 22 0 1 0 0 22 0 0 0 2 3 1 3 0 2 1 3 0 6 8 0 9 5 1 0 0 0 3 2 0 0 0 16 0 1 0 0 2 1 
109 93 106 123 216 150 113 133 136 121 123 177 147 147 138 147 142 138 127 129 132 161 181 178 183 172 137 133 124 106 103 107 110 105 94 88 89 97 137 120 112 122 126 124 114 0 0 0 0 0 39 0 0 0 10 0 16 0 3 0 3 1 2 1 0 0 5 0 0 0 4 0 8 5 2 0 0 0 2 3 1 0 0 10 0 0 0 0 3 0 
104 95 118 127 145 172 117 120 111 130 131 139 139 155 176 176 143 137 133 138 143 109 110 143 168 219 152 112 119 110 96 95 104 103 97 94 93 99 123 139 120 122 122 122 120 8 1 10 14 0 16 0 2 14 3 0 0 1 0 1 11 1 2 1 0 40 3 1 0 0 0 28 0 1 2 3 0 0 1 2 0 0 0 0 7 2 0 0 2 0 
118 168 95 99 111 120 139 152 118 140 124 141 166 162 107 105 139 137 141 233 186 98 115 157 173 198 219 144 126 114 105 97 101 104 100 98 100 101 127 131 113 117 118 118 117 0 18 0 9 1 2 0 28 1 0 2 0 0 14 12 0 2 1 0 0 40 12 0 0 0 0 10 15 3 2 3 0 0 0 1 0 0 0 0 1 1 0 0 2 0 
93 112 96 115 157 111 125 168 152 142 145 158 155 190 160 161 168 148 130 137 135 127 130 157 192 205 201 184 130 122 113 106 105 104 103 98 95 98 103 118 105 105 110 113 112 3 21 0 0 24 0 0 0 1 0 5 0 5 8 0 17 0 6 0 4 0 30 0 0 0 5 0 36 0 1 2 0 0 0 1 2 0 0 0 0 2 0 0 0 0 
94 95 96 103 100 108 130 122 156 136 137 142 159 202 186 181 124 137 134 132 98 112 153 168 194 193 192 187 135 128 118 107 104 102 97 99 92 92 91 106 109 92 101 107 108 0 0 0 0 0 2 10 0 0 21 15 0 0 4 0 21 13 0 4 0 15 0 0 0 0 10 0 15 0 1 1 2 0 1 0 0 0 0 2 0 18 0 0 0 0 
92 95 98 100 107 115 102 134 152 108 118 165 153 141 167 142 136 137 130 130 136 140 133 157 200 217 221 228 172 130 124 111 98 96 97 95 94 92 96 115 128 95 106 112 116 0 2 0 0 0 0 0 19 0 9 0 0 0 15 1 0 3 7 0 0 6 1 1 0 0 2 0 2 28 2 9 9 0 0 0 0 1 0 0 0 14 1 0 0 0 
91 96 97 104 118 124 100 112 157 114 142 122 145 154 186 147 139 133 128 127 140 136 135 167 171 171 147 158 211 144 129 148 130 101 95 96 97 95 96 96 119 111 116 123 123 0 0 0 0 2 24 0 0 3 0 3 0 5 0 19 1 1 7 3 1 0 3 0 0 0 0 11 0 2 10 4 0 6 5 0 0 0 0 1 0 0 3 2 3 0 
93 93 103 133 138 109 104 126 116 108 112 130 130 156 188 149 145 133 128 124 135 133 146 139 150 157 140 129 163 167 139 152 111 98 95 95 97 100 101 102 111 135 122 123 126 0 0 0 0 0 13 3 0 11 0 0 0 0 10 4 4 0 5 6 0 1 0 0 5 0 0 3 0 0 25 0 20 5 1 1 0 0 0 0 0 0 21 0 0 0 
89 95 137 106 91 113 126 108 114 98 135 127 151 130 125 205 170 140 130 126 131 130 140 134 140 152 145 134 145 186 142 133 119 102 97 96 97 102 104 107 107 114 118 121 124 0 0 0 8 0 10 0 10 0 9 0 0 0 8 0 0 38 2 0 0 3 0 0 1 0 0 6 0 0 2 0 4 5 2 1 0 0 0 0 0 2 1 0 3 0 
95 102 112 127 96 102 111 114 87 116 114 164 100 116 155 139 137 165 135 134 132 126 124 131 134 135 138 123 134 182 194 143 124 108 101 96 97 103 104 107 102 122 119 118 119 0 2 1 0 0 1 0 12 4 7 0 0 21 0 0 3 0 12 5 1 2 0 0 0 1 0 6 0 0 0 0 8 5 2 1 0 0 0 0 0 0 0 0 0 0 
92 93 94 115 107 112 104 105 104 113 131 127 121 145 152 146 138 151 190 136 132 120 118 118 118 118 119 116 125 140 158 144 129 116 108 99 100 103 104 105 101 111 146 116 122 0 1 0 3 2 8 0 0 0 0 0 0 0 0 2 7 2 0 0 5 1 3 0 2 0 6 3 2 0 0 0 2 4 2 3 1 0 0 0 0 5 0 2 3 0 
91 96 86 141 136 124 128 113 130 122 102 100 108 151 148 142 136 135 130 172 157 124 115 112 111 117 116 135 135 142 167 151 135 147 112 109 109 105 105 101 95 102 127 110 121 0 3 9 12 6 0 2 3 0 0 5 13 0 0 0 2 1 0 5 12 9 8 0 0 0 0 0 0 5 0 0 12 4 17 5 0 1 0 0 1 2 0 3 1 0 
91 100 98 94 100 117 103 91 92 108 119 134 135 145 143 137 135 130 132 129 132 141 89 105 104 107 104 125 137 128 162 151 129 212 112 109 108 108 108 102 96 109 112 110 115 0 0 8 3 0 1 4 2 0 0 0 7 0 1 1 0 0 0 0 2 0 17 0 4 0 1 0 0 0 6 0 10 7 90 0 0 0 0 0 2 0 0 0 0 0 
97 101 102 117 116 101 105 102 102 126 128 130 139 139 139 133 134 133 135 132 132 135 117 83 98 100 96 101 127 137 137 168 176 145 111 112 107 109 109 102 97 97 109 113 115 0 0 0 0 6 0 0 0 0 0 6 0 0 0 2 0 0 0 0 0 4 0 13 0 0 0 1 0 0 5 0 22 0 17 1 0 0 0 1 1 2 0 0 3 0 
92 109 120 121 121 117 116 109 99 102 126 130 140 141 135 132 131 128 135 138 140 144 129 114 80 83 95 96 111 114 112 179 169 118 109 110 107 109 109 107 104 102 122 111 117 0 0 9 1 0 2 0 5 5 0 0 0 0 3 2 0 1 0 0 0 2 4 0 7 1 0 0 0 5 0 10 0 39 3 0 2 0 0 0 0 0 0 0 4 0 
94 106 108 128 118 115 104 99 105 111 123 132 142 144 136 128 127 129 130 136 140 142 132 103 117 102 127 102 97 112 108 139 170 129 104 103 105 108 111 113 110 106 112 124 121 0 1 0 3 1 1 3 0 0 0 0 0 0 1 3 1 1 0 0 0 1 0 8 6 10 0 15 4 2 0 5 0 25 19 2 2 0 0 0 2 2 0 7 11 0 
87 108 100 132 118 96 101 103 113 119 135 141 145 142 138 128 131 133 134 136 141 142 145 118 94 138 164 140 107 105 127 136 178 111 99 101 98 132 127 111 106 112 106 134 123 2 0 0 0 3 1 2 0 0 0 0 2 0 0 1 2 0 0 1 0 0 1 0 12 0 0 0 19 0 5 0 0 0 8 1 2 4 0 15 0 2 2 0 11 0 
90 90 92 90 109 112 111 115 126 105 121 157 150 146 142 134 130 133 134 136 143 143 142 145 125 120 140 182 126 123 130 138 132 130 101 99 127 137 115 108 114 106 114 138 121 0 0 3 0 0 0 5 0 0 8 0 0 1 1 1 2 0 0 1 0 0 0 0 0 12 0 0 0 3 12 0 1 2 18 4 0 0 16 0 0 0 2 2 0 0 
96 111 105 111 116 110 109 117 120 122 92 100 148 156 147 133 126 128 132 138 143 142 147 140 139 143 136 157 216 135 131 135 126 145 109 135 122 109 105 108 109 106 107 111 117 0 1 0 0 0 3 0 0 0 2 9 0 0 0 4 2 0 0 0 0 0 0 0 2 3 2 0 0 28 1 0 2 5 0 6 0 13 0 1 0 2 1 0 0 0 
94 116 107 116 98 97 101 124 139 132 127 142 154 157 147 130 122 130 118 128 137 141 143 140 136 137 135 135 120 200 160 158 148 128 160 122 104 103 99 99 103 100 107 112 128 0 0 1 0 6 0 0 0 1 2 0 0 0 1 3 3 0 0 2 0 0 0 0 2 0 0 0 0 0 0 20 0 13 0 4 15 1 0 2 0 0 1 0 1 10 
101 113 117 113 108 105 118 122 134 130 127 150 153 151 147 131 118 121 103 115 135 138 142 138 135 132 131 129 121 116 164 161 129 124 143 106 102 103 94 93 96 95 102 103 115 5 0 1 4 0 5 0 6 0 8 0 0 0 1 2 4 0 2 2 0 0 0 0 2 0 0 0 0 3 0 0 20 7 6 0 3 0 2 1 0 0 0 0 0 6 
107 95 110 101 106 97 101 121 132 142 139 150 147 140 140 135 123 125 113 125 137 139 140 135 127 123 123 121 114 116 148 169 171 126 106 129 98 98 94 89 90 93 99 109 116 0 5 0 2 0 8 0 1 0 1 0 0 1 2 0 2 1 1 1 0 0 0 0 2 1 0 0 0 0 0 13 0 0 11 0 23 0 0 2 1 1 0 0 0 9 
95 109 112 122 90 89 86 105 126 130 132 144 142 130 124 131 130 132 129 137 142 142 140 132 122 113 111 107 130 103 132 124 160 168 97 131 106 90 90 88 89 91 91 116 123 1 0 0 8 8 0 0 0 0 1 0 0 1 4 0 0 3 0 0 0 0 1 0 3 2 1 0 1 12 0 3 0 0 14 4 0 8 0 2 0 2 0 0 0 9 
85 85 99 98 93 83 83 95 119 121 121 140 137 123 120 130 135 136 140 143 147 147 136 128 119 109 107 101 119 104 133 116 114 180 168 108 150 91 92 93 95 101 101 109 114 0 0 0 0 0 2 0 0 0 3 0 0 2 3 0 0 2 0 2 0 0 1 3 1 2 1 0 1 0 6 14 0 3 1 21 12 19 5 0 0 2 0 0 5 0 
83 82 98 81 91 95 84 92 112 115 117 131 131 118 114 122 130 131 140 145 145 145 135 122 113 107 104 99 125 109 126 106 106 104 150 141 124 116 98 101 106 107 108 104 106 0 0 0 4 0 3 1 0 0 1 0 0 3 3 0 0 0 0 0 1 0 1 4 2 1 1 1 1 0 5 0 2 0 6 0 31 0 18 0 0 0 0 1 0 0 
81 82 98 100 104 100 94 97 106 107 112 123 126 114 110 115 121 123 132 141 142 141 133 120 112 107 102 98 117 112 117 106 106 101 103 135 132 160 129 121 125 121 122 138 121 0 0 0 0 0 4 0 0 0 0 0 0 2 2 0 0 0 0 0 1 0 0 3 2 1 1 1 0 0 12 0 1 0 5 2 0 23 0 13 0 0 3 0 0 0 
80 84 98 97 110 111 107 111 114 107 111 119 126 114 109 112 116 119 123 136 136 135 130 119 111 107 100 96 115 108 119 104 104 99 101 103 167 164 162 126 129 131 128 127 122 0 0 0 0 0 5 0 0 2 1 0 0 2 2 0 0 0 0 0 0 0 0 2 2 1 1 1 1 0 13 0 5 1 1 0 0 0 0 24 0 0 3 0 10 0 
81 84 92 96 106 113 111 118 120 115 118 126 126 119 106 103 107 105 103 117 126 128 126 120 111 104 100 97 116 121 140 97 95 98 105 105 112 187 141 122 119 116 123 119 123 0 1 0 2 0 1 0 0 1 1 0 0 0 3 2 0 0 1 0 0 0 0 1 1 1 1 0 0 0 9 0 5 1 0 0 0 0 0 0 1 2 2 0 0 0 
81 83 88 93 98 109 111 118 125 121 126 127 129 119 108 102 98 93 90 98 112 118 118 112 111 105 101 98 97 102 102 90 90 98 101 106 130 112 166 118 105 107 114 113 112 0 0 0 1 0 0 0 0 1 0 0 0 2 3 2 0 0 1 0 0 0 0 1 1 1 1 0 0 0 1 3 1 0 0 0 0 0 0 2 1 3 0 0 0 0 
81 83 86 91 95 103 106 114 121 121 131 135 132 120 113 105 97 91 90 93 99 106 112 110 108 102 100 96 93 96 92 87 87 91 96 112 126 130 141 121 108 102 109 109 107 0 0 0 0 0 0 0 0 1 0 0 0 2 2 1 1 1 1 0 0 0 0 0 0 1 0 1 1 0 0 0 3 0 0 0 0 0 8 0 12 10 0 0 1 0 
80 80 82 90 89 92 95 102 112 126 135 134 128 117 115 108 98 92 93 95 96 100 103 105 105 101 99 95 96 103 103 98 93 89 88 96 106 124 114 150 103 113 105 99 98 0 0 0 0 0 0 0 0 0 0 0 1 3 2 1 2 1 1 0 0 0 0 0 0 1 1 1 1 0 0 0 0 1 0 0 0 0 5 12 0 8 0 0 2 0 
80 80 81 82 84 87 88 97 113 125 133 135 124 111 106 100 94 91 91 96 97 99 101 103 101 102 96 101 107 112 111 110 101 92 92 104 105 117 114 121 156 120 108 103 102 0 0 0 0 0 0 0 0 0 0 0 2 3 2 1 1 0 1 0 0 1 0 1 0 0 0 2 0 0 0 2 0 3 1 0 0 0 0 5 0 26 0 2 0 0 
0 0 2 1 0 0 0 0 0 1 0 0 1 1 1 1 0 0 0 0 1 0 0 2 11 11 0 0 0 7 0 0 0 0 0 0 0 0 7 0 3 0 0 10 0 1 0 0 0 0 0 0 0 0 0 0 0 0 0 0 0 0 0 0 0 2 0 1 0 3 0 7 0 23 2 0 1 6 5 0 0 0 0 0 2 5 0 1 0 0 
0 0 0 2 0 0 0 0 0 0 0 0 0 0 0 0 0 0 0 0 0 0 2 8 0 0 24 5 20 0 63 13 14 6 0 0 0 0 0 2 2 0 0 0 2 0 0 0 0 0 0 0 0 0 0 0 0 0 0 0 0 0 0 0 0 0 0 0 0 0 6 0 0 0 11 0 1 0 0 6 9 0 0 11 3 0 3 0 0 0 
0 0 0 3 0 0 1 0 1 0 0 0 0 0 0 0 0 0 0 1 0 0 0 0 0 0 5 25 12 23 0 0 0 20 6 0 6 11 0 0 2 0 10 2 1 0 0 0 0 0 0 0 0 0 0 0 0 0 0 0 0 0 0 0 0 0 0 4 7 0 0 0 10 0 1 25 0 0 15 5 2 0 2 4 0 7 0 0 2 0 
0 0 0 0 0 1 0 0 0 0 0 0 0 0 0 0 0 0 0 0 0 0 4 41 3 9 0 0 0 2 5 8 29 0 0 14 3 0 0 3 0 6 0 1 3 1 0 0 0 0 0 0 0 0 0 0 0 0 0 0 0 0 0 0 0 1 0 0 0 27 0 5 0 0 2 1 0 18 1 16 1 4 0 14 14 0 2 0 1 0 
1 10 0 4 0 0 0 0 0 0 0 0 0 0 0 0 0 0 0 0 0 1 1 0 28 15 0 0 1 0 3 20 0 0 13 4 1 0 0 3 16 11 5 3 1 3 0 0 0 0 0 0 0 0 0 0 0 0 0 0 0 0 0 0 0 0 0 0 1 0 12 0 1 0 0 0 0 0 8 0 6 0 4 0 0 1 1 1 0 0 
23 0 0 6 1 0 0 0 0 0 0 0 0 0 0 0 0 0 0 0 0 0 1 3 0 0 3 0 4 0 8 0 3 8 8 0 0 0 23 1 0 0 0 0 1 18 1 0 5 0 0 0 0 0 0 0 0 0 0 0 0 0 0 0 0 0 0 0 0 1 0 2 0 0 0 0 0 0 0 0 3 4 15 11 0 0 0 0 0 0 
0 4 7 3 0 0 0 0 0 0 0 0 0 0 0 0 1 1 0 1 3 0 0 3 0 0 0 1 0 0 0 0 0 0 0 0 0 23 0 0 0 1 2 1 0 0 0 5 0 0 0 0 0 0 0 0 0 0 0 0 0 0 0 0 0 1 0 0 0 0 2 0 0 0 0 5 1 0 11 0 19 14 5 0 2 0 0 0 0 0 
8 0 5 16 0 0 0 0 0 0 0 0 0 0 0 0 0 1 0 0 0 1 0 0 0 0 2 0 0 0 14 25 4 1 1 12 20 3 0 0 1 0 0 0 0 15 0 0 14 0 0 0 0 0 0 0 0 0 0 0 0 0 0 0 0 0 0 7 3 2 0 1 0 8 0 0 5 9 3 0 0 0 2 5 8 0 1 0 0 0 
0 0 0 0 0 0 0 0 0 0 2 30 3 29 8 0 0 0 0 0 3 0 0 5 16 9 6 11 3 0 0 0 0 0 0 0 0 6 1 0 0 0 0 0 1 0 2 0 8 9 0 4 2 1 1 0 0 0 0 12 5 0 0 0 0 0 1 2 0 0 5 0 1 0 8 0 3 0 6 1 0 14 8 3 0 0 0 0 0 0 
11 0 0 1 0 0 0 0 0 1 0 0 0 0 0 0 0 0 0 0 4 1 0 0 0 0 0 0 3 1 18 33 15 3 0 2 0 0 0 6 3 1 1 0 0 0 0 10 0 0 0 5 0 0 0 5 0 10 0 0 0 0 0 0 0 1 0 0 5 0 0 0 0 1 1 0 1 3 1 0 0 0 0 8 2 0 0 0 0 0 
8 5 6 7 37 23 0 0 0 2 2 0 0 0 9 2 0 0 0 0 3 0 0 31 10 1 0 1 0 5 0 0 3 0 0 0 11 0 2 0 1 0 1 2 0 0 0 0 7 45 0 9 18 0 0 0 0 3 25 8 8 0 0 0 0 2 6 0 0 4 0 0 0 6 0 3 0 3 1 0 1 9 18 2 3 0 0 0 0 0 
0 0 0 0 4 0 8 0 0 17 1 2 9 0 0 0 0 0 0 0 0 0 23 0 0 0 3 0 1 4 1 0 3 0 0 0 1 16 8 1 0 0 0 0 3 0 0 40 0 1 0 0 0 0 0 7 0 0 16 1 0 0 0 0 0 2 0 2 5 0 0 0 3 0 0 0 0 1 0 0 1 0 0 3 4 0 0 0 0 0 
2 1 2 0 0 0 18 0 4 0 0 0 30 5 8 0 0 0 0 0 0 2 0 0 0 0 0 0 0 2 1 0 0 0 0 0 0 0 0 0 0 0 0 0 0 0 0 0 5 2 0 0 22 3 6 0 4 0 0 0 0 0 2 0 0 1 0 0 11 0 0 4 0 0 0 1 0 0 0 0 0 0 0 0 0 0 0 0 0 0 
0 1 0 23 23 16 2 11 0 0 14 8 0 6 5 0 0 0 3 0 0 0 10 19 8 0 18 21 4 0 0 3 1 0 0 0 0 0 0 0 0 0 0 0 0 0 3 17 2 58 3 0 0 15 0 0 1 3 3 0 1 0 2 0 3 8 0 0 0 0 0 0 0 1 0 0 0 0 0 0 0 1 2 12 1 0 0 0 0 0 
0 0 0 15 29 0 10 8 13 20 0 3 3 2 0 0 0 1 2 0 0 26 16 4 12 0 0 0 0 0 2 3 2 1 0 0 2 0 4 3 0 1 1 0 1 0 1 0 10 0 27 0 0 0 19 0 5 0 0 0 10 8 0 0 15 0 8 3 0 0 19 0 0 0 0 0 0 0 0 0 0 0 0 0 0 0 0 0 0 0 
0 8 1 3 8 0 0 8 0 0 8 0 3 0 0 0 3 0 0 13 5 0 0 0 0 0 0 0 1 0 0 0 0 0 0 0 0 3 0 3 3 1 1 1 0 0 0 5 0 0 15 28 9 14 0 5 3 2 10 0 0 0 0 16 0 31 0 0 7 8 0 22 0 0 1 1 0 0 0 0 0 1 2 0 5 0 0 0 0 0 
0 15 1 0 37 3 5 21 0 0 0 10 0 16 0 0 0 0 3 3 17 16 0 11 17 0 4 0 3 0 2 0 0 2 0 3 3 1 1 1 2 6 4 0 2 0 10 3 0 14 0 4 13 0 1 5 0 8 14 11 0 8 0 1 4 0 17 0 3 3 0 0 7 0 5 1 0 0 2 0 1 0 1 0 1 3 1 0 0 0 
0 0 0 6 0 0 1 3 24 0 0 25 0 0 14 28 35 20 0 0 0 0 0 5 0 0 0 6 2 4 0 0 2 3 1 0 0 1 3 1 0 0 0 3 0 3 2 0 0 0 0 3 0 0 0 0 5 0 0 0 6 0 4 8 0 0 6 1 0 0 0 3 0 2 0 0 0 0 0 0 1 0 0 0 1 0 0 2 6 0 
0 2 0 1 3 0 1 0 0 1 0 0 12 8 0 0 1 1 4 0 0 0 0 0 15 0 33 11 0 0 0 3 0 0 2 0 0 0 0 2 0 0 0 0 0 0 0 1 0 3 3 0 0 10 0 0 0 0 1 0 0 0 3 0 3 0 0 0 0 5 3 0 17 0 3 0 0 8 0 3 0 0 0 0 0 12 0 0 0 0 
0 0 3 0 0 3 7 0 21 0 4 0 0 0 0 1 0 6 0 2 1 5 2 19 8 0 20 18 6 0 0 0 0 8 0 3 0 0 0 1 4 0 0 0 0 1 3 0 3 7 0 3 10 0 0 25 14 15 1 0 0 6 0 0 6 1 0 1 0 8 0 0 0 24 0 3 19 0 8 0 5 0 0 0 0 0 0 0 6 0 
0 0 0 0 19 0 0 0 2 1 0 0 0 27 14 1 0 3 0 3 2 0 0 2 3 0 0 0 9 5 0 17 0 0 0 0 0 0 0 0 3 0 1 0 0 0 0 0 9 8 0 2 2 0 8 1 0 0 0 18 0 5 0 0 8 0 1 0 0 1 0 0 2 0 1 0 17 0 0 0 0 0 0 0 0 0 3 0 0 0 
0 0 0 0 1 9 0 9 13 4 0 5 41 3 0 30 0 0 0 2 0 2 5 0 1 6 0 2 0 0 0 7 0 0 0 0 0 0 0 0 0 2 0 0 2 3 0 0 1 0 4 2 0 7 0 3 0 6 18 0 32 0 2 0 0 0 0 0 2 0 0 0 0 1 2 2 6 0 0 0 0 0 0 0 0 0 6 1 0 0 
0 2 0 10 0 0 8 0 1 13 0 0 0 7 6 0 20 8 0 1 3 2 3 5 5 4 8 4 4 34 0 2 0 0 0 0 0 0 0 0 2 0 0 4 0 0 2 4 0 1 0 0 5 0 7 0 9 0 0 1 6 0 15 5 6 1 0 0 0 2 0 0 0 5 0 27 0 0 0 0 0 0 0 0 0 0 3 0 0 0 
0 0 7 0 0 0 0 3 0 0 0 0 0 0 1 0 4 13 4 0 0 1 0 0 1 3 0 0 0 0 9 0 0 0 0 0 0 0 0 0 4 7 4 2 0 0 3 0 5 0 0 1 2 1 2 12 0 5 0 0 0 0 0 29 0 0 0 1 0 0 0 1 0 2 0 0 0 0 0 0 0 0 0 0 0 0 0 0 1 0 
1 1 0 2 28 0 0 0 4 3 3 6 0 0 1 1 1 1 0 28 0 0 0 0 3 0 0 0 0 0 0 2 0 0 0 0 0 0 0 0 0 1 8 0 1 3 0 6 0 12 1 3 0 1 0 0 0 0 0 0 0 0 0 0 39 0 6 5 0 0 0 0 1 0 0 12 5 6 0 0 5 0 0 0 0 1 2 5 2 0 
1 0 0 0 0 0 6 5 4 1 0 0 0 3 1 2 1 0 3 0 15 0 3 0 5 6 5 3 0 0 7 0 0 0 3 0 1 0 0 0 1 0 2 0 1 0 3 1 5 0 0 0 3 0 1 0 4 0 0 0 0 0 6 0 0 0 9 0 0 0 0 0 1 0 4 0 0 5 0 2 0 0 0 0 0 0 0 2 0 0 
0 0 2 2 4 8 0 0 0 0 0 0 1 1 1 1 0 1 0 2 0 2 0 6 2 0 0 5 7 0 4 12 0 21 1 0 1 0 0 0 0 0 0 1 1 0 2 0 1 1 0 5 0 0 2 0 2 0 0 0 0 5 0 7 0 20 0 5 5 0 1 0 0 9 0 0 18 0 19 0 0 0 0 0 0 0 0 0 0 0 
0 2 0 2 0 0 0 2 2 10 3 0 0 0 1 0 2 0 3 0 1 1 9 0 0 3 6 6 1 0 4 18 4 0 0 0 0 0 0 0 0 3 2 0 0 1 0 2 0 2 2 0 0 0 0 4 0 1 0 0 0 1 0 0 4 0 0 0 2 0 0 0 0 0 0 2 0 5 0 1 0 0 0 0 0 1 0 2 2 0 
0 0 0 0 4 15 3 4 3 0 0 0 0 0 0 1 0 0 1 0 1 3 0 6 0 0 7 0 0 7 0 5 0 0 1 4 2 0 8 0 1 2 5 0 0 1 2 0 0 0 1 2 0 3 1 0 0 0 0 0 0 0 0 0 0 2 0 5 0 21 5 3 0 0 11 0 0 10 0 1 0 0 10 1 0 0 0 4 0 0 
2 16 13 19 1 0 0 0 0 0 0 0 0 2 0 0 0 0 0 0 0 0 1 0 0 18 3 0 3 15 0 3 1 3 0 3 1 0 0 0 0 0 0 0 0 0 0 0 1 3 0 0 4 0 0 2 0 0 0 0 0 0 0 0 0 0 1 0 6 3 0 0 0 0 8 0 0 35 0 5 0 0 28 0 4 1 0 0 4 0 
0 0 0 0 0 0 0 1 0 4 18 6 0 0 0 0 2 2 1 0 0 1 0 1 0 0 12 2 2 0 0 0 8 3 0 0 0 9 0 0 0 1 1 10 1 3 0 0 3 0 0 0 0 0 0 0 5 0 0 0 0 0 0 0 0 1 0 2 0 12 0 0 0 1 0 0 7 0 0 3 0 5 10 0 5 1 1 0 2 0 
3 0 0 0 4 4 4 0 0 0 0 7 3 0 0 1 0 1 1 0 2 1 2 1 0 3 0 9 0 0 0 0 0 10 0 0 17 0 0 4 0 1 1 0 0 0 2 1 0 0 0 2 0 0 3 0 1 1 1 0 0 0 0 0 0 0 2 0 2 10 9 0 0 54 0 0 0 3 3 0 17 16 1 3 0 0 0 4 0 0 
0 0 0 4 0 0 0 0 0 0 0 0 0 1 0 1 1 2 4 4 1 1 1 0 0 1 1 1 2 19 0 0 0 0 0 10 1 1 3 3 1 1 2 3 0 0 2 0 0 3 0 0 0 2 0 3 0 0 0 0 0 0 0 0 0 0 0 0 0 0 0 0 0 0 39 0 10 0 0 4 9 0 0 0 0 0 0 0 0 0 
1 11 3 0 0 3 0 0 0 0 0 3 1 2 0 0 0 1 1 1 0 1 1 0 2 2 1 1 0 10 5 0 0 0 19 0 0 0 0 0 0 0 0 0 0 1 0 3 1 0 0 2 0 1 0 0 0 0 0 1 0 0 0 0 0 0 0 0 0 0 0 0 0 0 0 20 0 0 0 3 0 0 0 0 0 0 0 0 0 3 
0 0 0 5 11 0 6 3 7 3 0 1 2 3 4 0 0 0 0 0 0 0 0 1 2 3 3 3 2 6 3 29 0 0 7 0 1 3 2 2 3 3 3 0 0 4 0 0 0 0 3 0 3 0 2 0 0 0 0 0 1 0 0 1 0 0 0 0 0 0 0 0 0 0 0 16 0 5 0 0 8 0 1 0 0 0 0 0 1 0 
7 10 10 0 0 3 3 3 0 3 3 3 1 2 3 2 0 0 0 0 0 0 0 1 0 1 3 3 0 0 4 0 6 0 0 7 0 0 0 0 0 0 0 0 8 0 1 5 2 0 0 0 0 0 0 1 0 0 0 0 0 0 0 0 0 0 0 0 0 0 0 0 0 0 2 0 0 0 1 1 8 0 0 0 1 0 0 0 1 3 
2 0 0 10 5 0 1 1 3 2 2 3 3 2 1 0 0 0 0 0 0 0 0 1 1 0 1 1 0 0 1 3 0 38 0 5 0 5 0 0 0 0 0 3 3 0 1 0 0 1 0 0 0 0 0 0 0 0 0 0 0 0 0 1 0 0 0 0 0 0 0 0 0 3 1 6 0 0 15 0 3 26 0 3 0 1 1 0 0 1 
0 2 1 0 0 0 0 2 1 1 0 1 0 1 2 4 3 3 1 1 0 1 1 2 1 0 1 0 2 0 3 0 0 3 25 0 9 0 0 0 1 0 0 0 2 0 0 0 1 0 0 0 0 0 0 0 0 0 0 0 0 0 0 1 0 0 0 0 0 0 0 0 0 1 0 2 0 6 1 0 0 2 0 3 3 2 1 0 0 0 
1 0 0 0 0 0 0 0 1 3 3 3 2 0 0 0 2 1 3 1 2 2 1 0 0 0 0 1 1 0 2 1 0 3 1 21 0 5 0 0 0 0 0 0 7 1 0 0 0 0 0 1 0 0 0 0 0 0 0 0 0 0 0 0 1 0 0 0 0 1 0 0 0 0 0 0 0 5 2 1 0 0 21 0 0 0 0 6 1 0 
0 1 0 0 1 0 0 0 0 0 0 0 0 0 0 1 1 0 2 2 2 2 2 0 0 0 1 1 1 1 0 0 2 0 2 0 14 0 6 0 2 1 0 2 0 0 0 0 0 0 0 0 0 0 0 0 0 0 0 0 0 0 0 0 1 0 0 0 0 0 0 0 0 1 1 4 0 3 3 12 7 8 0 0 0 0 1 1 0 1 
1 1 0 0 2 1 0 0 0 0 0 1 0 0 0 1 5 6 5 7 2 2 2 1 0 0 0 0 2 0 0 5 3 0 0 0 6 9 7 2 2 7 9 3 4 0 0 0 0 0 0 0 0 0 0 0 0 0 0 0 0 0 0 0 0 0 0 0 0 0 0 0 0 0 2 0 0 1 1 0 0 0 21 0 0 0 0 0 1 0 
0 0 2 2 1 0 0 0 0 0 0 0 0 0 0 0 0 1 1 3 5 3 1 2 1 0 1 1 4 12 15 0 0 3 3 0 1 8 0 1 3 2 1 3 0 0 0 0 0 0 0 0 0 0 0 0 0 0 0 0 0 0 0 0 0 0 0 0 0 0 0 0 0 0 1 0 1 0 0 1 1 0 1 25 5 0 1 0 0 0 
2 0 0 0 2 3 3 3 3 0 0 0 1 0 0 0 0 0 0 0 2 3 2 1 1 0 1 1 1 0 0 0 0 1 3 6 11 0 12 0 4 0 0 2 5 0 0 0 1 0 0 0 0 0 0 0 0 0 0 0 0 0 0 0 0 0 0 0 0 0 0 0 0 2 1 2 0 0 0 0 0 5 0 0 0 0 1 0 0 0 
0 0 1 2 1 2 3 3 2 0 0 1 1 1 0 0 1 1 1 1 0 1 1 1 0 0 0 0 0 0 0 0 0 1 0 0 4 0 0 8 0 0 1 0 0 0 0 0 0 0 0 0 0 0 0 0 0 0 0 0 0 0 0 0 0 0 0 0 0 0 0 0 0 0 0 0 1 0 0 1 0 0 0 0 0 0 0 0 0 0 
0 0 0 0 0 0 0 0 1 1 1 1 1 1 1 1 0 0 0 1 0 0 0 0 0 0 0 0 0 0 0 0 0 0 0 0 0 2 0 4 0 0 1 0 3 0 0 0 0 0 0 0 0 0 0 0 0 0 0 0 0 0 0 0 0 0 0 0 0 0 0 0 0 0 0 0 0 0 0 0 0 0 0 0 0 8 10 3 0 0 
