P2
90 90
255
174 178 181 180 182 188 190 190 190 194 198 199 193 188 181 175 174 172 171 168 166 168 170 172 172 169 171 170 168 166 164 162 164 162 162 163 165 165 166 167 166 165 166 168 172 0 0 0 1 0 0 1 0 0 0 0 0 1 2 2 0 1 0 0 0 0 0 0 0 1 0 0 0 0 1 1 1 0 0 0 0 0 0 0 0 0 0 0 0 0
169 174 175 169 171 175 176 178 180 185 189 190 186 183 182 180 178 177 177 174 173 173 174 174 173 171 173 173 169 168 166 165 164 164 164 166 165 164 164 164 162 160 160 162 165 0 0 1 1 0 0 0 0 0 0 0 0 0 0 1 0 0 0 0 1 0 0 0 0 0 0 0 0 0 0 1 0 0 0 0 0 0 0 0 0 0 0 0 0 0
175 173 174 165 164 167 167 171 181 182 187 194 190 190 191 190 192 193 195 191 187 187 187 187 184 181 181 181 180 178 175 174 171 170 168 169 168 166 164 162 159 157 156 157 160 0 0 1 2 0 0 1 0 0 0 0 0 0 0 0 0 0 0 0 1 0 0 0 0 0 0 0 0 1 1 0 0 0 0 0 0 0 0 0 0 0 0 0 0 0
181 195 188 180 177 178 178 183 186 194 200 201 201 204 207 209 209 212 216 213 212 212 212 212 209 204 203 201 198 195 192 189 184 181 176 175 173 170 167 164 161 158 155 156 156 0 0 2 0 0 0 1 0 0 0 0 0 0 0 0 0 0 0 0 1 0 0 0 0 1 0 0 0 0 0 1 0 0 1 1 0 0 0 1 0 0 0 0 0 0
198 211 207 202 198 193 197 200 201 208 214 216 218 224 229 232 235 239 241 242 243 244 244 243 240 236 235 229 226 221 217 208 204 199 192 189 187 181 178 174 169 168 166 165 165 0 0 1 0 2 0 0 0 0 3 1 2 0 0 0 0 0 0 0 0 0 0 0 0 0 2 4 0 0 0 0 0 3 0 2 2 0 1 1 1 0 0 0 0 0
213 219 220 216 213 211 214 216 218 222 227 234 241 247 252 255 255 255 255 255 255 255 255 255 255 255 255 255 255 251 241 237 229 222 213 212 207 200 195 190 186 184 183 182 178 0 0 1 0 1 0 0 0 0 0 0 0 0 0 0 1 0 2 0 5 3 1 3 5 5 0 0 5 2 1 3 4 2 3 0 3 1 1 1 1 0 0 1 0 0
229 230 232 230 224 222 224 226 232 232 248 255 255 255 255 255 255 255 255 255 255 255 255 255 255 255 255 255 255 255 255 255 255 248 236 231 230 222 216 210 206 203 201 199 196 0 0 0 0 0 0 0 0 0 0 0 0 0 3 0 0 0 0 4 0 6 1 0 0 0 1 10 0 0 0 2 1 2 1 1 2 2 2 1 2 0 0 0 0 0
247 251 249 247 241 237 237 241 247 253 255 255 255 255 255 255 255 255 255 255 255 255 255 255 255 255 255 255 255 255 255 255 255 255 255 255 253 246 239 234 229 227 222 219 217 0 0 1 0 0 0 0 0 0 0 0 0 12 19 0 25 0 0 0 1 0 2 4 0 3 10 23 0 0 0 0 22 17 2 2 1 1 1 1 0 0 0 1 1 0
255 255 255 255 255 254 252 255 255 255 255 255 154 218 230 255 255 255 254 217 216 241 220 209 227 255 255 255 231 179 153 255 255 255 255 255 255 255 255 254 247 242 240 237 232 0 0 2 0 1 1 0 0 0 0 0 54 0 0 2 0 22 0 4 0 0 0 10 7 0 15 0 15 12 35 0 0 20 7 1 0 1 2 1 1 0 1 0 0 0
255 255 255 255 255 255 255 255 255 255 255 248 98 104 159 199 239 202 187 174 179 191 202 174 209 149 216 232 145 76 95 219 255 255 255 255 255 255 255 255 255 255 255 250 250 0 0 2 0 0 1 0 0 0 0 0 72 14 2 0 0 0 6 0 1 7 10 34 0 0 13 8 17 32 0 0 0 10 3 1 0 1 1 1 0 0 1 1 1 0
255 255 255 255 255 255 255 255 255 255 255 232 100 63 112 171 167 145 134 153 181 156 161 148 147 128 160 155 98 54 77 221 255 255 255 255 255 255 255 255 255 255 255 255 255 0 0 1 0 0 1 0 0 0 0 0 62 15 2 0 9 0 21 6 13 0 0 4 4 0 0 0 6 24 0 0 0 2 3 0 0 1 1 2 0 0 0 0 1 0
255 255 255 255 255 255 255 255 255 255 255 255 147 103 135 156 142 138 107 148 157 141 152 141 114 116 116 115 111 75 121 255 255 255 255 255 255 255 255 255 255 255 255 255 255 0 0 0 0 0 0 0 0 0 0 0 28 21 0 0 0 15 0 5 0 3 9 11 0 1 1 7 1 7 0 0 0 0 1 0 2 1 1 0 1 1 1 0 0 0
255 255 255 255 255 255 255 255 255 255 255 255 213 122 150 150 145 154 146 135 149 161 145 136 116 117 115 149 140 92 148 238 255 255 255 255 255 255 255 255 255 255 255 255 255 1 0 0 0 1 0 2 0 0 0 1 17 32 0 0 5 0 0 0 0 11 32 0 0 0 12 0 2 0 0 0 0 0 5 0 0 1 1 0 0 2 1 1 1 0
255 255 255 255 255 255 255 255 255 255 255 247 165 176 195 183 209 176 181 173 109 110 164 163 129 185 162 147 150 139 155 199 255 255 255 255 255 255 255 255 255 255 255 255 255 0 0 0 0 0 0 1 0 0 0 0 49 0 12 9 0 0 16 0 27 27 0 15 12 0 0 0 8 4 0 0 0 0 0 5 1 1 2 1 0 0 1 0 1 1
255 255 255 255 255 255 255 255 255 255 255 255 240 255 255 239 223 211 227 255 91 105 255 222 255 195 219 195 210 210 172 202 255 255 255 255 255 255 255 255 255 255 255 255 255 0 0 0 0 0 0 0 0 1 0 0 17 3 0 4 12 0 0 0 41 30 0 0 0 0 0 0 0 16 13 1 0 0 0 0 2 2 2 1 1 0 0 0 0 0
255 255 255 255 255 255 255 255 255 255 255 255 255 255 255 255 255 255 176 255 144 148 255 181 255 255 255 255 255 255 255 255 255 255 255 255 255 255 255 255 255 255 255 255 255 0 0 0 1 0 1 0 0 0 0 0 11 2 2 0 0 0 21 39 0 61 0 20 0 0 2 0 0 11 0 0 0 7 0 0 0 2 2 1 1 0 1 0 0 0
255 255 255 255 255 255 255 255 255 255 255 255 255 255 255 255 243 190 172 255 123 210 255 158 224 255 255 255 255 255 255 255 255 255 255 255 255 255 255 255 255 255 255 255 255 0 1 0 0 0 0 0 1 0 0 3 10 0 3 0 0 11 12 14 1 27 0 47 0 0 0 0 18 24 0 0 0 11 4 0 0 1 1 1 2 0 2 0 0 0
255 255 255 255 255 255 255 255 255 255 255 255 255 255 175 107 78 129 79 134 104 133 141 97 142 84 136 197 254 255 255 255 255 255 255 255 255 255 255 255 255 255 255 255 255 0 2 0 0 0 0 0 1 2 0 6 0 10 10 28 17 0 0 0 0 6 0 26 0 0 0 0 0 0 11 0 0 13 0 0 0 1 2 1 1 2 2 0 0 0
255 255 255 255 255 255 255 255 255 255 255 255 255 172 87 73 97 50 78 124 113 124 116 100 36 66 51 63 164 253 255 255 255 255 255 255 255 255 255 255 255 255 255 255 255 0 2 0 0 0 0 0 1 3 0 8 0 19 25 19 1 0 4 0 0 8 0 0 15 0 0 3 0 0 0 0 0 17 12 0 0 2 2 1 2 1 0 0 0 0
255 255 255 255 255 255 255 255 255 255 255 255 226 111 74 90 84 106 136 143 140 143 135 118 81 78 75 64 70 160 245 255 255 255 255 255 255 255 255 255 255 255 255 255 255 0 1 0 0 0 0 0 1 0 11 7 0 27 33 4 5 0 0 5 0 2 0 7 8 10 0 0 0 0 0 0 0 0 9 0 0 2 2 2 1 2 0 0 0 0
255 255 255 255 255 255 255 255 255 255 255 255 225 101 87 84 84 160 255 200 172 203 255 167 75 69 102 69 71 154 249 255 255 255 255 255 255 255 255 255 255 255 255 255 255 0 2 0 0 0 0 3 0 0 10 5 6 24 23 0 0 20 0 0 14 0 0 9 33 1 0 0 0 0 0 0 4 0 5 0 0 2 2 3 1 1 0 0 0 1
255 255 255 255 255 255 255 255 255 255 255 255 219 154 88 77 100 255 255 225 214 241 255 255 202 59 93 69 65 155 255 255 255 255 255 255 255 255 255 255 255 255 255 255 255 1 1 0 0 0 0 2 0 0 1 19 19 7 20 8 21 0 0 0 42 4 0 1 24 56 0 33 6 0 0 0 11 0 7 0 0 0 7 0 2 0 0 0 0 0
255 255 255 255 255 255 255 255 255 255 255 255 196 188 114 73 207 255 255 229 242 250 255 255 255 129 111 67 126 195 226 255 255 255 255 255 255 255 255 255 255 255 255 255 255 1 0 1 0 1 0 2 4 0 9 17 8 7 16 15 2 0 0 14 5 0 14 0 0 46 34 0 0 0 0 2 0 0 0 0 0 0 6 3 1 1 0 1 2 0
255 255 255 255 255 255 255 255 255 255 255 255 208 179 156 143 224 255 255 66 66 68 175 255 255 249 150 124 139 179 195 211 248 255 255 255 255 255 255 255 255 255 255 255 255 0 0 3 0 1 0 0 6 0 1 6 15 0 24 0 0 0 9 67 1 0 0 0 8 15 27 0 0 0 0 0 23 0 0 1 0 2 3 1 0 0 0 1 2 0
255 255 255 255 255 255 255 255 255 255 255 255 216 184 154 162 139 196 199 77 39 41 151 250 253 179 152 131 136 136 189 216 229 245 255 255 255 255 255 255 255 255 255 255 255 0 1 0 0 3 0 1 4 2 0 0 20 15 0 17 0 2 0 15 17 7 0 0 0 20 22 6 1 11 0 0 11 0 0 13 0 1 1 0 0 0 0 1 1 0
255 255 255 255 255 255 255 255 255 255 255 255 222 188 167 125 109 78 72 63 58 85 97 92 75 71 81 147 131 159 212 225 218 255 255 255 255 255 255 255 255 255 255 255 255 7 0 1 0 0 5 0 8 0 0 4 11 12 15 0 20 0 27 12 0 2 0 0 10 0 0 4 19 0 0 0 7 7 0 0 0 0 2 4 1 0 0 0 1 0
255 255 255 255 255 255 255 255 255 255 255 255 234 246 195 119 134 81 60 48 49 71 66 66 79 76 109 122 145 191 214 255 255 255 255 255 255 255 255 255 255 255 255 255 255 0 8 0 0 0 1 0 7 1 0 4 10 0 3 16 0 16 27 3 6 2 0 0 0 24 8 1 2 0 0 0 0 6 0 3 0 0 0 3 5 0 0 0 0 0
255 255 255 255 255 255 255 255 255 255 255 255 255 238 188 179 143 82 72 55 54 78 82 66 66 82 106 117 207 202 255 255 255 255 255 255 255 255 255 255 255 255 255 255 255 0 9 0 1 5 0 0 3 1 0 0 19 18 0 18 0 3 12 0 1 0 0 11 3 2 21 0 0 0 0 1 0 6 0 9 0 0 0 0 5 1 0 2 0 0
255 255 255 255 255 255 255 255 255 255 255 255 255 220 196 215 143 124 92 58 67 85 86 92 89 62 72 90 133 243 255 255 255 255 255 255 255 255 255 255 255 255 255 255 255 0 2 0 1 3 0 5 0 0 6 0 19 10 7 10 39 8 0 0 0 0 0 0 0 0 13 0 0 0 0 10 14 0 0 12 2 0 0 1 5 0 1 2 0 0
255 255 255 255 255 255 255 255 255 255 255 255 252 228 227 193 149 112 99 96 90 102 104 128 108 167 117 206 188 230 255 255 255 255 255 255 255 255 255 255 255 255 255 255 255 0 0 11 0 0 0 0 0 5 0 0 31 0 15 0 18 7 0 19 0 0 0 0 0 0 0 0 0 29 0 0 0 8 0 3 0 0 0 5 6 0 1 3 0 0
255 255 255 255 255 255 255 255 255 255 255 255 255 255 248 161 140 114 97 71 95 107 99 60 65 111 204 247 228 225 255 255 255 255 255 255 255 255 255 255 255 255 255 255 255 0 15 0 17 0 0 3 8 0 0 0 26 0 0 24 10 27 19 10 0 0 0 4 14 0 0 0 0 23 0 0 0 0 0 0 0 4 0 2 8 0 1 0 0 0
255 255 255 255 255 255 255 255 255 255 255 255 255 255 212 195 152 97 69 42 81 90 107 83 58 74 170 251 238 255 255 255 255 255 255 255 255 255 255 255 255 255 255 255 255 0 0 1 0 0 0 0 20 4 9 2 16 3 12 5 13 4 6 1 0 0 0 0 18 10 0 0 0 15 0 6 0 0 0 0 5 6 0 0 10 4 0 0 2 1
255 255 250 255 255 255 255 255 255 255 255 255 236 251 238 180 159 113 58 56 87 87 85 94 63 51 47 208 224 255 255 255 255 255 255 255 255 255 255 255 255 255 255 255 255 0 0 48 0 0 0 10 0 16 0 6 30 0 0 13 12 6 30 0 4 0 0 4 0 3 0 0 0 0 0 0 0 2 0 0 8 2 0 0 3 0 0 9 4 0
255 253 255 255 255 255 255 255 255 255 255 255 235 231 230 170 169 126 114 81 103 88 84 73 58 55 42 95 128 148 189 254 255 255 255 255 255 255 255 255 255 255 255 255 255 10 0 0 14 11 0 27 0 0 0 0 23 6 9 5 2 0 17 1 0 0 0 9 7 6 0 1 0 0 15 0 3 0 0 0 0 1 2 0 0 2 3 17 0 0
255 255 255 255 255 250 255 255 255 255 255 255 227 230 192 225 195 163 120 98 156 108 95 58 46 47 44 64 119 129 192 255 255 255 255 255 255 255 255 255 255 255 255 255 255 7 0 0 24 19 0 0 19 0 0 0 17 12 15 0 0 13 0 15 13 0 0 11 5 0 0 0 0 0 0 0 0 0 0 1 0 1 7 1 0 0 14 0 0 0
255 255 255 255 255 247 254 248 255 255 255 255 255 245 242 254 235 204 195 145 170 144 89 52 43 52 56 96 106 149 170 252 255 255 255 255 255 255 255 255 255 255 255 255 255 0 0 17 0 0 13 0 0 11 0 11 0 16 3 0 9 0 20 0 43 0 0 9 3 0 0 0 0 10 0 0 0 1 8 0 0 6 14 17 0 1 7 0 6 0
255 255 255 255 255 255 255 255 255 255 255 255 255 255 255 255 255 236 246 173 184 238 215 123 56 84 67 81 122 201 153 220 255 255 255 255 255 255 227 255 255 255 255 255 255 6 5 7 11 11 0 0 5 0 0 0 18 9 0 10 17 7 10 26 0 41 0 0 19 0 0 0 3 0 0 0 0 0 2 0 0 1 26 0 0 1 2 7 0 0
255 254 255 255 255 255 255 255 255 255 255 255 255 255 255 255 255 255 254 255 205 255 255 255 233 232 229 138 100 167 220 224 255 255 255 255 255 211 233 255 255 221 217 226 255 31 0 6 0 31 0 0 2 25 0 1 0 10 0 26 17 27 0 24 0 0 0 18 0 0 0 0 0 0 0 14 0 0 9 0 19 13 0 0 0 10 21 0 4 0
255 255 255 255 255 255 255 255 255 255 255 255 255 255 255 255 255 255 255 255 255 255 255 255 255 255 255 255 232 221 255 248 255 255 233 255 255 243 255 233 168 159 208 242 255 26 0 22 0 17 2 6 0 16 18 10 5 1 0 0 17 9 0 2 26 0 3 0 11 4 10 0 0 21 37 19 0 27 1 24 8 33 9 10 0 29 0 0 0 8
249 255 255 255 253 255 254 255 255 255 255 255 255 255 255 255 255 255 255 255 255 255 255 255 255 255 255 255 255 245 255 248 255 255 255 255 255 255 255 249 178 123 198 235 220 0 0 0 0 2 0 4 0 19 0 0 9 0 0 3 0 7 1 0 19 6 0 0 27 0 0 21 0 39 0 0 0 0 35 39 0 17 0 7 3 66 16 0 0 1
237 251 255 255 243 255 248 255 255 255 255 255 255 255 255 255 255 255 255 255 255 255 255 255 249 255 255 255 252 255 255 253 235 252 225 246 255 255 221 218 255 233 212 239 238 0 0 0 14 0 26 0 0 11 0 12 0 0 10 5 8 4 0 0 0 33 0 0 9 0 0 0 0 16 0 18 0 0 25 21 0 8 0 20 0 0 90 0 0 0
253 255 255 252 255 234 248 255 232 255 255 255 253 253 248 255 255 255 255 255 246 245 253 253 255 255 188 232 243 236 241 237 253 232 255 255 255 250 255 206 252 223 242 216 255 0 0 0 23 0 4 0 0 10 0 7 0 0 0 5 2 11 0 0 3 19 0 20 5 0 20 0 0 0 20 5 0 0 2 23 0 0 38 0 19 0 35 19 0 0
252 255 239 220 255 255 240 240 220 234 235 226 207 209 223 239 240 215 248 255 233 255 255 249 255 236 208 230 206 215 230 230 236 233 255 255 215 223 209 182 203 215 214 217 255 2 3 8 0 1 0 0 9 1 0 12 14 5 0 0 0 13 0 0 0 1 0 17 7 0 16 0 9 7 2 0 0 1 0 9 18 0 0 0 0 3 7 0 0 6
247 234 237 244 255 255 223 251 233 222 234 226 231 233 208 229 222 224 237 242 244 250 255 255 255 214 202 206 197 201 225 235 255 226 239 216 202 248 206 204 196 174 225 181 222 3 12 0 6 0 8 0 0 2 0 0 4 0 5 0 0 8 0 0 7 0 14 7 0 13 16 0 1 18 0 0 0 6 8 1 12 3 0 0 0 31 3 0 2 0
255 239 255 255 255 249 210 213 231 234 255 255 255 241 220 243 241 251 249 255 255 255 241 236 255 239 250 255 244 243 222 230 255 255 247 236 201 243 221 252 231 208 213 215 209 1 7 0 5 0 9 6 0 0 1 0 1 1 3 5 0 0 0 0 7 0 12 10 0 0 0 0 0 22 0 0 0 0 1 0 0 25 0 15 0 22 10 0 0 2
3 0 2 2 4 3 5 4 1 0 0 0 1 2 0 0 0 0 0 0 0 0 0 0 0 0 0 0 0 0 0 0 0 0 0 0 0 1 1 0 1 1 1 1 2 0 0 0 0 0 0 0 0 0 0 0 0 0 0 0 0 0 0 0 0 0 0 0 0 0 0 0 0 0 0 0 0 0 0 0 0 0 0 0 0 0 0 0 0 0
0 1 0 1 0 2 2 1 1 2 1 0 0 0 0 0 0 0 0 0 0 0 0 0 0 0 0 0 0 0 0 0 0 0 0 0 0 0 0 0 0 0 0 1 0 0 0 0 0 0 0 0 0 0 0 0 0 0 0 0 0 0 0 0 0 0 0 0 0 0 0 0 0 0 0 0 0 0 0 0 0 0 0 0 0 0 0 0 0 0
0 0 0 0 0 0 0 0 0 0 0 0 0 0 0 0 0 0 0 0 0 0 0 0 0 0 0 0 0 0 0 0 0 0 0 0 0 0 0 0 0 0 1 0 1 0 0 0 0 0 0 0 0 0 0 0 0 0 0 0 0 0 0 0 0 0 0 0 0 0 0 0 0 0 0 0 0 0 0 0 0 0 0 0 0 0 0 0 0 0
0 0 0 0 0 0 0 0 0 0 0 0 0 0 0 0 0 0 0 0 0 0 0 0 0 0 0 0 0 0 0 0 0 0 0 0 0 0 0 0 0 0 0 0 0 1 0 0 0 0 0 0 0 0 1 0 0 0 0 0 0 0 0 0 0 0 0 0 0 0 0 0 0 0 0 0 0 0 0 0 0 0 0 0 0 0 0 0 0 0
0 0 0 0 0 0 0 0 0 0 0 0 3 0 0 0 0 0 0 0 0 0 0 0 0 0 0 0 0 0 0 0 0 0 0 0 0 0 0 0 0 0 0 0 0 0 0 0 0 0 0 0 0 0 0 0 1 0 0 0 0 0 0 0 0 0 0 0 0 6 0 0 5 0 3 4 0 0 0 0 0 0 0 0 0 0 0 0 0 0
0 0 0 0 0 0 0 0 0 0 0 0 0 0 0 0 0 0 0 0 0 0 0 0 0 0 0 0 0 0 0 0 0 0 0 0 0 0 0 0 0 0 0 0 0 0 0 0 0 0 0 0 0 0 1 1 0 1 0 0 3 3 3 2 5 0 2 0 0 0 0 0 0 1 1 0 0 0 0 0 0 0 0 0 0 0 0 0 0 0
0 0 0 0 0 0 0 0 0 0 0 0 0 0 3 0 0 0 0 0 0 0 0 0 0 0 0 2 0 0 0 0 0 0 0 0 0 0 0 0 0 0 0 0 0 0 0 0 0 0 0 0 0 1 0 4 0 6 5 1 0 0 0 0 1 0 0 5 7 0 0 0 0 2 0 0 0 0 1 0 0 0 0 0 0 0 0 0 0 0
0 0 0 0 0 0 0 0 0 0 0 0 43 59 0 0 0 0 0 13 24 19 12 10 0 0 0 0 0 65 50 0 0 0 0 0 0 0 0 0 0 0 0 0 0 0 0 0 0 0 0 0 0 1 0 3 2 0 0 22 0 0 6 5 0 8 7 0 0 10 0 0 15 0 0 37 9 0 0 0 0 0 0 0 0 0 0 0 0 0
0 0 0 0 0 0 0 0 0 0 0 43 26 19 0 20 2 37 16 14 0 0 21 25 23 23 1 51 18 21 29 37 5 0 0 0 0 0 0 0 0 0 0 0 0 0 0 0 0 0 0 0 0 0 0 0 0 1 0 19 0 0 0 4 0 18 0 0 0 0 0 15 9 0 3 0 15 1 0 0 0 0 0 0 0 0 0 0 0 0
0 0 0 0 0 0 0 0 0 0 4 1 0 23 11 0 33 22 25 14 0 27 26 9 15 9 17 19 22 15 18 8 3 0 0 0 0 0 0 0 0 0 0 0 0 0 0 0 0 0 0 0 0 0 0 0 5 0 9 9 6 4 0 0 0 0 16 14 0 0 17 0 0 0 0 10 5 2 0 0 0 0 0 0 0 0 0 0 0 0
0 0 0 0 0 0 0 0 0 0 0 0 0 0 0 27 21 9 7 0 0 0 16 11 26 17 25 21 11 0 3 0 4 0 0 0 0 0 0 0 0 0 0 0 0 0 0 0 0 0 0 0 0 3 0 0 3 0 0 18 0 0 7 0 3 0 0 14 0 3 0 0 4 5 0 1 11 1 0 0 0 0 0 0 0 0 0 0 0 0
0 0 0 0 0 0 0 0 0 0 0 0 0 0 0 0 0 0 5 7 4 0 4 0 0 0 0 4 13 0 0 0 0 0 0 0 0 0 0 0 0 0 0 0 0 0 0 0 0 0 0 0 0 0 2 0 8 0 5 0 10 1 2 0 2 8 0 28 9 2 0 0 0 5 3 2 0 1 0 0 0 0 0 0 0 0 0 0 0 0
0 0 0 0 0 0 0 0 0 0 0 0 0 0 0 0 0 7 0 7 7 11 0 11 0 0 5 0 0 0 0 11 0 0 0 0 0 0 0 0 0 0 0 0 0 0 0 0 0 0 0 0 0 0 1 0 1 10 4 4 0 2 0 0 0 0 22 0 0 0 8 14 0 0 15 0 8 0 1 0 0 0 0 0 0 0 0 0 0 0
0 0 0 0 0 0 0 0 1 0 0 0 28 0 0 0 0 0 20 5 6 22 6 0 0 0 0 5 0 0 29 32 0 0 0 0 0 0 0 0 0 0 0 0 0 0 0 0 0 0 0 0 0 0 1 2 0 0 2 0 1 0 24 0 1 0 13 0 0 10 18 26 0 1 23 1 0 1 0 0 1 0 0 0 0 0 0 0 0 0
0 0 0 0 0 0 0 0 0 0 2 0 0 2 0 0 0 0 0 0 0 13 0 0 0 0 0 0 0 0 0 0 0 0 0 0 0 0 0 0 0 0 0 0 0 0 0 0 0 0 0 0 0 2 0 0 6 0 4 2 0 0 31 14 24 0 0 0 0 0 2 0 24 0 0 6 0 0 0 1 0 0 0 0 0 0 0 0 0 0
0 0 0 0 0 0 0 0 0 1 1 0 0 0 0 8 26 0 0 0 0 0 13 0 0 0 0 0 0 0 0 0 0 7 0 0 0 0 0 0 0 0 0 0 0 0 0 0 0 0 0 0 0 0 1 0 4 0 12 13 0 14 23 8 43 7 12 0 41 0 11 0 5 12 15 0 0 0 0 4 0 0 0 0 0 0 0 0 0 0
0 0 0 0 0 0 0 0 3 4 0 0 4 5 19 40 66 74 44 10 0 2 6 39 62 72 62 13 31 8 13 0 0 0 0 6 0 0 0 0 0 0 0 0 0 0 0 0 0 0 0 0 0 0 2 0 0 3 0 2 0 14 0 48 5 0 0 6 0 0 0 28 0 0 15 5 1 0 0 2 5 0 0 0 0 0 0 0 0 0
1 2 3 3 2 0 0 0 6 0 0 0 0 0 18 39 5 0 12 47 3 19 54 0 0 28 69 65 5 4 0 0 0 0 10 0 0 0 0 0 0 0 0 0 0 0 0 0 0 0 0 0 0 1 0 0 4 5 18 0 9 18 25 0 8 15 0 2 2 0 0 0 0 35 0 15 0 3 0 0 1 0 0 0 0 0 0 0 0 0
0 1 0 0 1 0 0 1 5 6 10 0 21 39 4 0 5 0 0 0 0 0 0 0 12 3 0 7 44 12 0 0 9 5 0 0 1 0 0 1 1 0 0 0 0 0 0 0 0 0 0 0 0 1 0 1 4 0 0 8 0 0 2 1 0 10 2 0 0 4 0 0 0 31 31 7 0 5 1 0 0 0 0 0 0 0 0 0 0 0
1 1 0 0 0 0 0 2 6 4 0 6 19 2 4 0 0 1 0 0 0 0 0 7 0 2 0 10 5 0 0 7 4 6 0 7 0 0 0 1 0 1 0 0 0 0 0 0 0 0 0 0 0 0 0 0 0 4 0 4 0 5 0 0 0 0 6 0 0 12 5 0 0 0 11 0 0 0 0 6 4 0 0 0 0 0 0 0 0 0
0 0 0 0 0 1 2 2 1 0 0 4 15 0 0 6 2 0 0 4 0 0 0 0 2 5 0 0 8 3 0 13 10 9 0 0 0 2 1 0 0 0 1 1 0 0 0 0 0 0 0 0 0 0 0 6 0 8 2 0 0 0 25 0 0 0 13 3 2 0 0 41 1 1 0 0 1 4 8 6 1 0 0 0 0 0 0 0 0 0
0 0 0 0 0 0 0 0 0 1 0 0 2 0 0 0 0 0 0 0 0 0 0 0 0 5 10 0 0 0 0 0 0 10 0 0 0 0 0 0 0 0 0 1 3 0 0 0 0 0 0 0 0 0 4 0 0 8 0 2 0 20 0 0 0 1 0 5 11 0 0 14 2 0 0 0 18 0 1 0 0 0 0 0 0 0 0 0 0 0
0 0 0 0 0 0 0 3 0 0 0 0 13 0 0 0 0 3 3 0 5 3 36 0 0 26 35 8 0 0 28 0 0 4 0 0 5 2 1 0 0 0 0 4 3 0 1 0 0 0 0 0 0 3 1 0 6 0 12 0 12 0 9 0 0 5 0 14 0 8 0 7 7 14 4 0 0 0 1 0 0 0 0 0 0 0 0 0 0 0
0 0 0 0 0 0 0 0 0 0 0 10 0 0 0 0 17 10 8 34 38 32 40 26 2 0 0 0 0 21 0 0 7 1 0 0 0 6 5 4 3 0 0 0 1 0 0 0 0 0 0 0 0 0 0 12 0 9 1 0 0 12 0 0 0 0 5 0 5 16 0 31 0 0 0 6 0 0 8 7 2 0 0 0 0 0 0 0 0 0
0 0 0 2 0 0 1 0 0 0 0 0 0 0 11 0 17 52 19 0 0 0 0 29 59 20 5 4 0 0 0 1 0 8 0 0 0 0 0 0 1 1 0 0 0 0 1 0 0 2 0 0 0 0 2 0 0 6 5 0 0 0 0 15 0 0 4 0 0 0 0 0 0 0 8 6 6 0 3 0 0 0 0 0 0 0 0 0 0 0
5 1 7 0 2 5 0 0 0 4 3 2 0 0 0 0 0 8 0 8 6 25 5 16 12 2 0 0 0 0 0 0 26 11 0 0 0 0 0 0 0 0 0 0 0 2 0 2 1 0 0 3 0 0 0 0 1 0 0 0 0 12 11 0 0 0 2 9 0 0 0 7 0 0 10 0 0 0 0 0 0 1 0 0 0 0 0 0 0 0
0 0 0 2 3 0 2 0 1 0 0 0 9 0 0 0 0 0 2 0 0 2 0 0 3 2 0 10 0 6 0 0 0 0 2 0 0 0 0 0 0 0 0 0 0 4 0 0 0 0 0 0 2 1 0 0 0 9 4 0 11 0 0 0 0 0 0 0 2 4 4 3 28 0 0 0 0 4 0 0 0 0 0 0 0 0 0 0 0 0
1 9 0 2 0 2 0 3 2 0 1 0 0 0 8 0 9 10 0 16 0 4 0 0 1 6 10 14 0 6 1 0 0 0 16 3 5 5 0 0 0 0 0 0 0 0 0 0 0 0 2 0 0 3 0 0 2 1 0 16 6 0 2 11 10 0 5 0 2 0 0 0 10 0 0 0 0 0 8 0 1 0 0 1 0 0 0 0 0 0
7 0 10 8 5 0 5 0 0 9 0 6 3 14 0 16 0 0 0 0 0 0 0 0 0 0 0 0 39 8 0 0 9 0 11 0 0 2 4 4 0 3 5 0 0 0 5 0 0 4 4 0 14 0 0 0 0 0 17 0 0 0 14 0 0 3 0 7 0 8 1 26 5 6 19 0 0 4 4 12 0 0 0 0 0 0 0 0 2 0
0 0 0 0 3 5 0 7 13 4 4 0 0 2 0 16 0 19 21 0 0 0 0 26 0 0 0 0 0 13 0 4 0 2 8 7 4 1 1 5 6 0 0 0 3 0 1 0 0 0 0 3 0 0 5 3 0 6 0 0 21 0 0 15 0 2 0 0 0 50 14 8 0 0 10 0 7 14 2 0 5 0 1 0 0 2 0 0 0 0
15 0 0 25 3 5 0 0 0 0 0 3 0 0 19 1 0 5 13 8 8 0 1 0 6 0 0 14 0 0 6 0 4 7 12 0 0 1 0 0 2 7 0 0 2 11 0 2 0 9 0 1 0 2 0 0 5 6 0 0 4 0 10 0 0 0 4 0 5 0 26 19 19 0 0 0 0 0 0 0 0 0 0 2 0 0 0 2 0 0
8 5 0 8 5 0 12 0 22 0 0 0 12 17 0 0 12 0 4 8 0 6 4 0 0 0 43 0 5 0 0 16 3 0 0 0 0 0 0 0 2 0 0 9 5 6 10 0 26 0 8 1 0 0 0 0 0 2 2 0 0 0 0 0 0 0 0 0 9 0 0 0 0 0 0 5 15 3 4 0 3 0 0 0 0 0 3 0 0 0
5 0 14 0 0 0 4 0 5 0 0 10 13 0 9 17 0 4 0 0 3 1 9 1 3 0 0 51 13 11 25 14 10 0 0 0 0 0 0 0 0 0 7 4 0 0 2 0 1 0 0 0 12 1 11 0 4 0 9 0 19 1 0 11 0 0 0 0 5 3 10 0 11 7 0 14 18 11 0 0 0 0 0 0 0 0 0 0 1 0
0 0 3 12 0 0 20 15 0 0 5 0 0 31 0 0 0 0 0 0 0 6 5 2 0 4 3 3 4 7 24 1 0 19 0 0 5 8 5 0 0 0 0 0 0 0 0 4 5 0 30 0 1 11 0 7 0 0 0 3 4 8 4 0 8 0 0 0 2 0 0 0 0 3 0 30 20 0 13 2 0 0 0 1 2 3 0 4 2 1
0 0 8 0 10 5 9 11 20 5 0 5 5 4 22 0 0 0 9 5 0 0 0 0 3 0 0 4 0 0 0 8 0 0 19 0 0 0 5 5 2 0 0 0 8 1 21 0 0 13 0 0 0 10 0 7 0 2 0 1 5 7 1 6 0 37 0 0 0 1 0 0 8 4 12 24 0 4 0 0 6 0 0 0 0 2 0 3 0 0
0 0 0 0 0 0 0 9 0 5 0 0 0 0 0 0 0 0 0 4 0 0 5 3 0 0 3 0 5 0 0 6 0 6 1 0 0 0 11 8 9 1 2 0 2 15 0 0 0 14 0 4 0 0 0 0 1 17 12 5 1 4 23 8 22 0 3 7 7 2 5 1 0 0 2 0 0 4 0 10 0 0 0 0 0 0 2 0 0 0
0 8 0 0 5 0 0 0 3 0 13 1 6 0 0 22 0 0 0 0 0 10 0 0 0 0 0 7 32 0 1 0 6 10 6 11 20 31 1 0 0 0 36 8 2 0 2 23 0 0 9 5 0 0 0 3 0 0 0 0 32 0 0 3 29 0 0 42 0 11 0 0 7 0 0 0 7 0 0 0 0 0 11 0 1 0 0 0 0 0
0 7 0 7 0 10 0 6 0 0 0 0 0 0 20 0 0 10 0 0 0 0 0 0 0 0 0 0 0 0 22 0 0 0 0 14 6 17 0 13 32 33 0 0 0 0 2 0 12 0 0 0 5 0 0 0 0 4 0 0 0 0 4 10 0 28 0 0 0 0 24 0 19 0 17 29 0 4 12 0 0 0 0 0 0 0 3 0 1 0
13 0 6 0 5 0 14 0 0 0 0 3 11 24 7 5 1 11 5 13 0 8 4 9 0 2 0 0 0 0 0 0 2 12 25 0 5 0 7 20 20 26 11 0 0 16 7 3 0 11 0 4 3 0 0 0 0 3 9 5 5 22 0 0 15 0 7 4 31 0 12 0 0 0 0 2 6 0 0 16 7 0 0 0 1 2 0 22 0 0
2 8 0 0 15 2 5 9 6 0 0 0 0 0 0 13 10 0 9 0 11 4 5 14 14 0 0 0 0 27 17 0 17 2 17 0 22 0 22 0 0 0 0 0 4 0 0 12 0 13 0 0 0 0 5 0 0 10 0 0 2 6 11 0 0 0 0 12 13 0 0 0 0 15 1 12 0 0 21 4 25 7 7 2 0 7 0 0 0 0
6 0 0 0 0 16 0 0 12 0 0 0 13 25 13 0 0 6 11 0 8 0 2 2 8 4 3 7 0 0 3 0 0 0 20 8 0 14 7 21 0 0 15 19 16 0 6 0 0 0 5 3 0 0 0 2 2 0 6 0 0 0 0 0 0 0 0 0 4 0 0 21 0 6 0 0 0 5 6 0 0 0 0 0 11 12 15 1 9 2
0 0 13 8 0 0 3 4 7 12 18 17 16 2 5 16 0 0 0 0 5 4 1 2 0 20 8 5 0 9 4 8 20 0 0 0 16 0 29 15 30 4 12 0 0 0 0 0 3 0 5 0 0 0 0 0 0 0 0 1 4 2 5 3 2 7 2 0 0 11 0 0 5 2 1 19 0 3 0 0 0 10 0 0 0 0 14 0 7 0
2 8 5 2 0 0 4 0 0 0 0 3 4 6 9 0 14 19 6 12 0 0 0 0 0 10 0 9 19 8 9 0 0 14 9 23 10 7 9 0 16 0 0 0 8 2 0 0 2 1 0 0 0 2 1 0 0 6 1 0 0 0 0 0 0 0 0 9 4 0 0 0 8 0 10 0 7 0 7 0 0 0 2 0 1 0 0 3 0 20
5 2 0 0 0 9 3 6 1 4 0 0 0 0 0 1 0 0 0 0 0 0 18 19 14 0 0 0 0 0 0 1 21 1 6 6 5 0 0 0 0 7 0 2 28 0 4 0 0 0 0 0 1 0 0 5 5 0 0 3 3 3 2 0 0 6 0 0 0 12 2 0 11 0 0 0 0 0 0 11 0 0 7 0 0 0 0 0 0 0
0 0 0 0 0 0 1 3 0 0 0 0 0 0 0 0 0 1 0 0 0 0 0 0 0 0 0 0 0 0 0 0 0 0 0 0 0 0 0 0 0 0 0 0 0 0 0 0 0 0 0 0 0 0 0 0 1 0 0 0 0 0 0 0 0 0 0 0 0 5 0 6 0 0 0 0 0 1 0 0 0 0 0 0 0 16 0 4 0 0
