P2
90 90
255
255 255 255 255 255 255 255 255 255 255 255 255 255 255 255 255 255 255 255 255 255 255 255 255 255 255 255 255 255 255 255 255 255 255 255 255 255 255 255 255 255 255 255 255 255 0 0 0 0 0 0 1 0 0 0 0 0 0 0 0 0 0 0 0 0 0 0 0 0 0 0 0 0 0 0 0 0 0 0 0 0 0 0 0 0 0 0 0 0 0 
255 255 255 255 255 255 255 255 255 255 255 255 255 255 255 255 255 255 255 255 255 255 255 255 255 255 255 255 255 255 255 255 255 255 255 255 255 255 255 255 255 255 255 255 255 0 0 0 0 0 0 0 0 0 0 0 0 0 0 0 0 0 0 0 0 0 0 0 0 0 0 0 0 0 0 0 0 0 0 0 0 0 0 0 0 0 0 0 0 0 
255 255 255 255 255 255 255 255 255 255 255 255 255 255 255 255 255 255 255 255 255 255 255 255 255 255 255 255 255 255 255 255 255 255 255 255 255 255 255 255 255 255 255 255 255 0 0 0 0 0 0 0 0 0 0 0 0 0 0 0 0 0 0 0 0 0 0 0 0 0 0 0 0 0 0 0 0 0 0 0 0 0 0 0 0 0 0 0 0 0 
255 255 255 255 255 255 255 255 255 255 255 255 255 255 255 255 255 255 255 255 255 255 255 255 255 255 255 255 255 255 255 255 255 255 255 255 255 255 255 255 255 255 255 255 255 0 0 0 0 0 0 0 0 0 0 0 0 0 0 0 0 0 0 0 0 0 0 0 0 0 0 0 0 0 0 0 0 0 0 0 0 0 0 0 0 0 0 0 0 0 
255 255 255 255 255 255 255 255 255 255 255 255 255 255 255 255 255 255 255 255 255 255 255 255 255 255 255 255 255 255 255 255 255 255 255 255 255 255 255 255 255 255 255 255 255 0 0 0 0 0 0 0 0 0 0 0 0 0 0 0 0 0 0 0 0 1 0 2 0 0 0 0 0 0 0 0 0 0 0 0 0 0 0 0 0 0 0 0 0 0 
255 255 255 255 255 255 255 255 255 255 255 255 255 255 255 255 255 255 255 255 255 255 255 255 255 255 255 255 255 255 255 255 255 255 255 255 255 255 255 255 255 255 255 255 255 0 0 0 0 0 0 0 0 0 0 0 0 0 0 0 0 0 0 0 0 0 5 3 2 0 0 0 1 0 0 0 2 0 0 0 0 0 0 0 0 0 0 0 0 0 
255 255 255 255 255 255 255 255 255 255 255 255 255 255 255 255 255 255 255 255 255 255 255 255 255 255 255 255 255 255 255 255 255 255 255 255 255 255 255 255 255 255 255 255 255 0 0 0 0 0 0 0 0 0 0 0 0 0 0 0 0 0 1 1 0 0 2 6 16 1 0 0 0 0 0 2 0 0 0 0 0 0 0 0 0 0 0 0 0 0 
255 255 255 255 255 255 255 255 255 255 255 255 255 255 255 255 255 255 255 255 255 255 255 202 208 213 255 255 255 255 255 255 255 255 255 255 255 255 255 255 255 255 255 255 255 0 0 0 0 0 0 0 0 0 0 0 0 0 0 0 0 1 1 0 0 5 3 45 3 6 0 0 0 0 0 0 2 0 0 0 0 0 0 0 0 0 0 0 0 0 
255 255 255 255 255 255 255 255 255 255 255 255 255 255 255 255 255 255 255 255 255 255 201 185 156 139 148 217 255 255 255 255 255 255 255 255 255 255 255 255 255 255 255 255 255 0 0 0 0 0 0 0 0 0 0 0 0 0 0 0 0 34 33 0 1 1 55 0 0 9 0 0 0 0 0 0 1 0 0 0 1 0 0 0 0 0 0 0 0 0 
255 255 255 255 255 255 255 255 255 255 255 255 255 255 255 255 255 180 255 255 255 255 213 239 185 137 170 228 255 255 255 255 255 255 255 255 255 255 255 255 255 255 255 255 255 0 0 0 0 0 0 1 0 0 1 1 0 3 2 3 0 39 0 0 0 0 50 0 0 66 0 0 0 0 0 3 0 0 0 0 0 0 0 0 0 0 0 0 0 0 
255 255 255 255 255 255 255 255 255 255 255 255 255 255 255 213 122 171 229 186 233 220 121 154 255 255 255 255 255 255 255 255 255 255 255 255 255 255 255 255 255 255 255 255 255 0 0 0 0 0 0 1 0 0 0 0 0 0 15 29 0 23 0 0 31 0 6 37 0 6 0 0 0 0 3 1 1 0 1 1 0 0 0 0 0 2 1 0 1 0 
255 255 255 255 255 255 255 255 255 255 255 255 255 220 150 142 96 137 163 195 187 152 188 78 146 119 255 255 255 255 255 255 255 255 255 255 255 255 255 255 255 255 255 255 255 0 0 0 0 0 0 0 1 0 0 1 0 12 46 0 48 0 28 0 14 22 0 26 0 27 0 0 0 7 8 9 0 1 1 5 6 1 4 1 0 0 0 6 3 0 
255 255 255 255 255 255 255 255 255 255 255 255 255 99 117 122 101 160 238 255 228 167 179 88 133 93 224 255 255 255 255 255 255 255 255 255 255 255 255 255 255 255 255 255 255 0 0 2 0 5 0 0 5 3 2 1 0 48 34 0 40 0 10 0 6 56 11 9 34 35 5 0 15 5 6 2 5 0 4 1 0 0 12 0 0 0 0 4 0 2 
255 255 255 255 255 255 255 251 222 213 195 212 212 107 121 92 163 236 226 197 255 213 222 96 120 74 193 255 231 241 222 210 222 251 224 255 255 255 255 255 255 255 255 255 255 0 0 5 2 6 7 0 10 0 6 5 0 50 0 3 8 0 0 47 27 0 0 0 31 17 12 0 28 0 3 2 5 0 3 2 0 0 12 0 1 5 0 0 0 11 
244 255 255 255 255 255 255 255 255 255 255 255 255 125 130 105 183 255 196 161 245 255 203 135 89 72 232 255 221 203 238 255 255 255 255 255 255 255 255 255 255 255 255 255 255 0 0 0 0 0 14 8 0 1 0 4 0 34 15 0 0 0 0 42 1 0 0 0 5 0 7 0 15 5 0 0 0 0 0 0 0 0 18 5 0 10 0 2 0 10 
255 255 255 255 255 255 255 255 255 255 255 255 255 255 255 135 183 154 136 56 161 187 158 86 90 121 255 255 255 255 255 255 255 255 255 255 255 255 244 224 251 249 255 255 255 0 0 0 0 2 3 1 0 8 0 0 0 0 8 15 9 0 0 60 0 0 15 0 0 0 0 0 14 0 2 16 0 0 7 3 2 0 10 17 0 5 0 0 5 8 
255 255 255 255 255 255 255 255 255 255 255 255 255 255 255 156 110 106 220 135 246 150 127 76 106 212 255 255 255 255 255 255 255 255 255 255 255 255 255 255 255 255 255 255 255 6 0 8 0 0 7 0 0 0 13 13 0 0 3 0 49 0 16 80 0 0 0 0 10 0 10 0 11 12 0 8 0 1 9 8 0 0 0 18 0 8 6 0 0 10 
255 255 255 243 244 242 250 255 255 255 250 205 217 255 255 216 40 80 231 178 250 117 91 62 163 214 183 255 255 255 255 255 255 255 255 255 255 255 255 255 255 255 255 255 255 11 5 15 2 1 0 0 0 0 10 23 0 0 0 0 78 6 0 30 0 0 5 20 7 0 19 0 0 2 2 8 0 17 0 1 0 5 4 8 7 14 0 0 9 9 
255 255 255 255 255 255 255 255 255 255 255 255 255 255 255 224 76 34 210 240 232 92 70 63 145 188 236 169 255 255 224 203 213 208 255 255 255 255 255 255 255 255 255 255 255 6 8 0 0 1 11 12 0 0 0 1 0 9 0 10 17 34 0 0 5 71 5 6 0 0 0 25 0 0 16 5 8 0 0 0 0 0 12 0 5 1 0 7 0 0 
255 255 255 255 255 233 215 168 190 255 255 255 255 255 255 202 177 63 72 105 104 87 95 167 140 178 255 177 255 255 255 255 255 255 255 255 255 255 255 255 255 255 255 248 255 15 10 2 0 11 8 11 4 0 0 0 3 0 0 45 0 49 6 0 10 0 16 0 0 18 0 0 17 0 11 6 0 0 4 0 0 0 4 13 0 5 0 5 0 0 
255 200 210 244 225 173 163 174 195 253 255 255 239 242 255 173 170 142 72 108 97 44 114 123 114 166 255 188 246 222 183 162 155 143 148 176 200 229 255 255 234 220 199 198 223 33 0 0 0 10 12 0 0 0 0 0 9 2 0 27 26 0 45 18 0 8 6 0 5 0 0 0 12 6 11 13 0 3 1 0 0 0 0 0 8 2 6 1 2 0 
255 250 253 255 255 245 207 195 187 198 195 180 168 166 225 191 88 136 93 94 66 60 70 87 98 156 255 190 236 243 240 218 203 181 169 168 191 190 180 195 210 202 225 237 242 8 0 7 0 0 14 3 3 0 0 3 3 0 0 0 40 8 0 12 6 0 0 0 0 0 0 0 0 0 0 3 9 6 3 3 0 0 5 0 0 3 0 0 0 0 
219 215 241 255 255 212 194 192 185 172 172 174 176 182 245 233 104 101 90 34 108 150 68 97 102 179 207 192 218 226 216 227 252 255 255 255 255 255 255 255 255 255 255 255 255 0 0 0 0 12 8 2 0 5 0 0 0 0 0 0 24 11 0 19 15 0 12 0 5 0 0 34 0 0 1 2 0 0 1 0 4 0 0 0 0 0 8 10 0 0 
255 255 254 255 255 255 255 234 224 222 226 239 255 255 255 243 137 106 118 38 126 164 90 73 100 158 198 211 244 255 255 255 255 255 255 255 255 255 255 255 255 255 255 255 255 2 0 2 0 1 0 2 6 4 0 1 0 0 0 8 0 24 0 21 14 0 5 0 28 0 0 6 0 0 9 5 1 0 0 0 4 3 2 0 0 0 0 0 0 0 
248 247 248 250 255 255 255 255 255 255 255 255 255 255 255 245 166 70 119 70 60 54 131 52 86 176 201 192 255 255 255 255 255 255 255 255 255 255 255 255 255 255 255 255 255 3 0 2 0 1 0 0 0 0 1 0 3 2 0 18 8 25 24 6 3 13 0 42 0 0 0 12 0 0 3 0 3 5 0 0 0 0 1 0 0 2 0 2 0 0 
255 255 255 255 255 255 255 255 255 255 255 255 255 255 255 220 223 110 115 155 95 85 147 62 102 167 196 212 255 255 255 255 255 255 255 255 255 255 255 255 255 255 255 255 255 0 0 0 0 2 3 3 5 0 0 1 2 1 0 0 5 21 12 0 21 8 0 32 8 0 0 0 13 0 6 4 0 5 0 0 0 0 0 0 0 2 2 0 0 0 
255 255 255 255 255 255 255 255 255 255 255 255 255 255 255 228 242 154 90 170 132 115 96 58 121 154 153 189 219 255 255 255 255 255 255 255 255 255 255 255 255 255 255 255 255 0 0 1 0 1 3 0 3 0 0 5 1 1 0 0 73 0 18 0 22 4 0 23 0 0 1 0 4 0 3 0 0 0 1 0 0 0 0 1 0 2 0 2 0 2 
255 255 255 255 255 255 255 255 255 255 255 255 255 255 255 255 226 176 95 141 182 135 146 103 106 145 190 193 205 255 255 255 255 255 255 255 255 255 255 255 255 255 255 255 255 0 0 0 0 0 6 1 4 0 0 3 2 0 0 1 102 0 20 2 0 12 2 4 0 0 7 8 0 0 0 0 0 1 0 0 0 0 6 9 0 9 0 2 0 2 
255 255 255 255 255 255 255 255 255 255 255 255 255 255 255 255 202 176 142 160 165 162 149 122 84 98 99 86 169 255 255 255 255 255 255 255 255 255 255 255 255 255 255 255 255 0 0 0 2 3 8 3 0 0 0 0 0 0 3 0 66 21 19 0 4 12 8 9 8 0 0 11 0 0 0 0 5 0 2 0 9 0 10 0 0 2 0 0 0 2 
255 255 255 255 255 255 255 255 255 255 255 255 255 255 255 255 233 214 204 255 255 214 199 168 108 131 60 91 169 255 255 255 255 255 255 255 255 255 255 255 255 255 255 255 255 1 0 1 0 0 0 6 3 0 1 0 3 0 1 8 3 72 17 0 15 4 12 0 65 0 0 14 0 0 0 5 0 0 0 0 0 5 0 0 0 0 0 2 0 0 
255 255 255 255 255 255 255 255 255 255 255 255 255 255 255 255 255 223 130 158 216 255 255 181 144 255 163 87 161 255 255 255 255 255 255 255 255 255 255 255 255 255 255 255 255 1 0 2 0 0 0 8 5 12 3 0 0 0 5 0 11 34 16 0 2 0 0 2 49 0 0 71 0 0 0 0 0 0 0 5 0 7 6 0 0 0 9 0 0 0 
255 255 255 255 255 255 255 255 255 255 255 255 255 255 255 255 255 255 112 69 111 144 255 200 248 255 255 107 157 255 255 255 255 255 255 255 255 255 255 255 255 255 255 255 255 0 0 5 0 3 0 7 4 0 0 1 0 6 1 3 0 7 27 18 7 0 0 0 48 0 0 81 6 0 0 0 7 0 0 0 2 5 0 0 0 0 2 0 0 0 
255 255 255 255 255 255 255 255 255 255 255 255 255 255 255 255 255 255 147 104 77 195 165 255 255 255 255 243 132 205 255 255 255 255 255 255 255 255 255 255 255 255 255 255 255 12 8 3 0 5 0 11 12 0 1 0 0 1 0 0 0 5 67 14 18 0 0 0 17 0 0 40 13 0 0 0 6 0 5 1 9 5 17 0 0 1 2 1 7 0 
255 255 255 255 255 255 255 255 255 255 255 255 255 255 255 255 255 255 161 138 150 223 255 255 255 255 255 255 145 155 255 255 255 255 255 255 255 255 255 255 255 255 255 255 255 0 3 0 5 0 0 4 0 0 0 0 1 5 0 2 4 9 46 18 14 0 0 0 5 0 0 41 0 24 0 0 0 3 4 0 15 0 0 0 13 5 0 0 8 2 
255 255 255 255 255 255 255 255 255 255 255 255 255 255 255 255 255 255 214 160 170 152 255 255 255 255 255 255 129 122 236 255 255 255 255 255 255 255 255 255 255 255 255 255 255 2 0 0 5 0 5 0 5 0 0 2 0 6 10 0 1 0 0 67 0 0 22 0 0 0 23 6 0 23 0 0 0 0 19 0 10 0 22 0 5 0 0 18 0 0 
255 255 255 255 255 255 255 255 255 255 255 255 255 255 255 255 255 255 255 132 181 255 255 255 255 255 255 255 96 88 173 255 255 255 255 255 255 255 255 255 255 255 255 255 255 1 3 15 0 0 0 0 0 5 0 0 3 0 4 12 0 0 9 78 0 0 0 0 0 16 0 21 8 33 0 0 0 7 0 23 0 0 0 6 0 0 17 0 12 2 
255 255 255 255 255 255 255 255 255 255 255 255 255 255 255 255 255 255 255 255 240 213 255 255 255 255 255 255 210 109 118 255 255 255 255 255 255 255 255 255 255 255 255 255 255 0 13 0 0 0 7 0 19 0 12 0 9 0 5 11 0 0 6 8 6 23 0 0 0 5 0 0 8 59 4 0 0 0 0 14 0 24 0 5 0 0 4 25 2 0 
255 255 255 255 255 255 255 255 255 255 255 255 255 255 255 255 255 255 255 255 255 238 243 255 255 255 255 255 255 255 255 255 255 255 255 255 255 255 255 255 255 255 255 255 255 12 0 0 8 5 0 5 34 0 0 3 12 5 6 9 0 3 0 6 3 26 17 0 0 3 5 0 4 0 30 0 4 0 8 0 0 0 23 21 3 1 0 0 0 1 
255 255 255 255 255 255 255 255 255 255 255 255 255 255 255 255 255 255 255 255 255 255 248 206 220 217 255 255 255 255 255 255 255 255 255 255 255 255 255 255 255 255 255 255 255 0 3 15 14 0 0 7 6 20 0 0 0 0 21 0 0 0 15 0 0 0 10 52 0 0 0 0 0 2 6 4 32 0 4 6 0 8 0 0 7 0 7 3 8 0 
255 255 255 255 255 255 255 255 255 255 255 255 255 255 255 255 255 255 255 255 255 255 255 255 174 198 201 234 255 255 255 255 255 255 180 201 228 255 255 255 255 255 255 255 255 0 0 17 0 0 0 34 6 0 18 6 0 0 1 0 18 6 0 0 2 0 1 0 44 0 2 0 0 9 0 2 6 21 13 23 0 0 0 5 3 0 10 0 0 16 
255 255 255 255 255 255 255 255 255 255 255 255 255 255 255 255 255 255 255 255 255 255 255 255 255 143 169 255 255 255 255 255 255 255 255 243 255 255 255 255 255 255 255 255 255 5 6 0 0 13 6 0 24 4 0 5 8 0 0 6 3 0 7 0 5 12 0 0 8 70 17 0 0 55 0 10 6 0 0 57 0 3 13 0 0 0 0 0 18 0 
255 255 255 255 255 255 255 255 255 255 255 255 255 255 255 255 255 255 255 255 255 255 255 255 255 255 255 255 255 246 255 255 255 255 255 255 255 255 255 255 255 255 255 255 255 5 0 3 0 16 0 10 2 37 0 0 0 0 18 7 0 2 23 4 14 0 0 0 3 10 0 0 26 34 19 0 1 0 0 8 2 12 0 0 5 0 13 19 0 16 
255 255 255 255 255 255 255 255 255 255 255 255 255 255 255 255 255 255 255 255 255 255 255 255 255 255 255 255 255 255 255 255 255 255 255 255 255 255 216 244 255 252 182 104 140 16 0 0 0 0 0 3 13 17 0 0 0 0 3 8 3 0 21 0 0 2 5 0 0 0 10 0 6 44 0 0 35 13 0 5 0 0 80 24 0 0 54 37 22 18 
255 255 255 255 255 255 255 255 255 255 255 255 255 255 255 255 255 255 255 255 255 255 255 255 255 255 255 255 255 255 190 255 255 255 181 186 255 255 255 255 207 168 172 187 255 0 1 0 0 0 0 1 3 8 0 3 1 0 13 7 4 7 5 0 29 7 1 1 0 6 33 0 0 26 39 10 0 9 3 41 0 0 41 0 27 54 53 34 24 20 
255 255 255 255 255 255 255 255 255 255 255 255 255 255 255 255 255 255 255 172 146 205 179 215 246 255 228 221 189 160 114 126 124 166 131 161 170 240 200 255 248 235 255 167 191 1 8 8 0 0 3 3 0 3 4 6 3 2 10 3 15 22 0 28 17 5 0 60 0 0 24 0 19 33 36 0 40 6 4 30 0 24 9 2 0 83 0 0 0 0 
0 0 0 0 1 1 1 1 1 1 0 0 0 0 1 0 0 0 0 0 0 0 0 1 0 0 0 0 0 0 0 0 1 1 1 1 0 0 0 0 1 1 0 0 0 0 0 0 0 0 0 0 0 0 0 0 0 0 0 0 0 0 0 0 0 0 0 0 0 0 0 0 0 0 0 0 0 0 0 0 0 0 0 0 0 0 0 0 0 0 
0 0 0 0 1 1 0 0 0 0 0 0 0 0 0 0 1 1 0 0 1 1 1 1 1 1 1 1 1 1 1 1 1 1 1 1 1 1 1 1 1 1 1 0 1 0 0 0 0 0 0 0 0 0 0 0 0 0 0 0 0 0 0 0 0 0 0 0 0 0 0 0 0 0 0 0 0 0 0 0 0 0 0 0 0 0 0 0 0 0 
0 0 0 0 0 0 0 0 0 1 1 1 1 1 1 1 1 1 1 1 1 1 1 1 1 1 1 1 1 1 1 1 1 0 0 0 1 1 1 1 1 1 1 1 1 0 0 0 0 0 0 0 0 0 0 0 0 0 0 0 0 0 0 0 0 0 0 0 0 0 0 0 0 0 0 0 0 0 0 0 0 0 0 0 0 0 0 0 0 0 
0 0 0 0 0 1 1 1 2 1 0 0 1 0 0 1 1 1 0 1 1 1 1 0 1 1 1 1 1 1 1 1 1 1 1 1 0 0 0 1 1 1 1 1 0 0 0 0 0 0 0 0 0 0 0 0 0 0 0 0 0 0 0 0 0 0 0 0 0 0 0 0 0 0 0 0 0 0 0 0 0 0 0 0 0 0 0 0 0 0 
1 1 1 1 0 0 0 0 1 1 1 2 1 0 1 0 0 0 0 1 2 0 4 0 1 0 5 0 0 0 0 3 1 1 1 1 1 1 1 1 1 1 0 0 1 0 0 0 0 0 0 0 0 0 0 0 0 0 0 0 0 0 0 0 0 0 2 4 0 5 0 2 0 2 0 0 0 0 0 0 0 0 0 0 0 0 0 0 0 0 
1 1 1 1 1 2 1 2 0 0 0 1 1 1 1 1 2 2 1 3 1 3 3 0 1 0 4 1 0 0 1 2 1 1 1 1 1 1 1 1 2 2 2 2 1 0 0 0 0 0 0 0 0 0 0 0 0 0 0 0 0 0 0 0 0 0 4 0 3 3 0 0 0 0 0 0 1 0 0 0 0 0 0 0 0 0 0 0 0 0 
1 1 2 1 1 1 1 0 2 2 2 2 2 2 2 2 2 2 2 1 3 2 7 57 66 46 11 1 2 6 1 2 2 2 2 2 1 1 1 1 1 1 1 1 1 0 0 0 0 0 0 0 0 0 0 0 0 0 0 0 0 0 0 0 0 4 0 0 0 0 10 5 1 0 0 2 0 0 0 0 0 0 0 0 0 0 0 0 0 0 
1 1 1 1 2 2 2 2 0 1 0 1 1 1 2 3 3 4 2 2 1 1 69 20 11 13 42 94 26 1 4 0 2 2 2 2 1 1 1 1 2 2 1 0 0 0 0 0 0 0 0 0 0 0 0 0 0 0 0 0 0 0 0 0 0 3 0 21 1 0 14 0 5 10 0 0 1 0 0 0 0 0 0 0 0 0 0 0 0 0 
1 1 1 1 2 1 0 0 1 1 1 1 1 2 0 4 36 42 0 0 0 23 0 0 0 0 2 11 34 12 1 0 0 0 0 1 3 3 2 0 0 0 0 0 0 0 0 0 0 0 0 0 0 0 0 0 0 1 1 5 2 0 0 0 1 2 0 53 2 4 0 3 0 1 7 0 2 0 0 0 0 0 0 0 0 0 0 0 0 0 
0 0 0 1 1 0 0 1 1 1 1 0 0 0 11 53 71 27 84 106 90 59 66 0 0 0 0 0 0 0 0 0 0 0 0 0 3 3 3 3 0 0 0 3 0 0 0 0 0 0 0 0 0 0 0 0 0 1 5 0 20 0 25 0 5 5 36 0 39 0 6 8 4 0 0 0 0 0 0 0 0 0 0 0 0 0 0 0 0 0 
1 2 2 1 0 0 0 1 1 0 0 0 0 19 17 51 42 0 18 0 9 19 0 6 31 0 0 0 0 0 0 0 0 0 0 4 7 9 13 16 17 20 23 24 21 0 0 0 0 0 0 0 0 0 0 0 0 0 0 28 0 15 0 9 7 0 8 0 0 34 0 0 2 0 0 0 0 0 0 0 0 0 0 0 0 0 0 0 0 1 
0 0 0 0 1 1 0 0 0 0 0 1 7 44 32 0 0 30 9 0 12 59 0 21 14 8 8 16 35 38 42 53 46 46 48 54 63 63 61 59 49 37 32 34 21 0 0 0 0 0 0 0 0 0 0 0 0 0 18 6 0 18 0 0 7 0 0 18 0 0 3 0 0 0 1 0 0 0 0 0 0 0 0 0 0 2 3 0 0 0 
16 12 19 18 22 28 28 33 41 45 48 44 36 18 0 15 0 0 0 0 0 0 0 18 1 0 10 0 0 0 0 0 0 0 8 0 0 0 0 0 0 0 0 0 0 1 0 0 1 0 0 0 0 0 0 0 2 11 28 0 7 0 9 0 0 0 6 0 22 0 0 6 3 3 1 2 0 1 0 0 7 0 0 0 0 0 1 5 0 0 
53 44 23 16 14 3 11 24 10 4 4 3 9 0 13 0 0 0 69 71 28 1 0 0 14 7 21 37 58 60 57 44 27 23 9 0 0 0 0 0 0 0 0 0 0 0 5 5 0 5 0 0 0 2 1 0 1 0 2 7 8 0 13 0 0 16 5 0 0 13 0 0 0 0 2 0 7 0 3 2 3 0 0 0 2 0 0 0 2 0 
19 14 11 0 0 0 0 0 0 0 0 0 0 0 0 0 12 0 0 0 9 3 18 0 10 0 0 0 0 0 0 0 0 0 0 0 8 6 18 29 21 24 15 28 16 1 0 2 5 2 3 0 2 0 3 2 0 20 0 38 0 0 16 10 0 0 0 45 13 1 12 0 0 2 0 3 0 0 0 0 0 0 1 0 1 0 1 0 0 1 
0 0 0 9 23 18 15 17 17 13 19 4 0 0 2 0 0 34 20 38 34 56 12 9 8 0 0 0 0 0 21 48 23 20 18 3 0 2 0 0 0 0 5 0 0 0 0 0 0 0 2 0 0 1 0 1 3 0 0 0 0 0 0 8 0 13 0 0 0 2 6 0 0 0 0 0 1 2 0 3 2 0 3 1 0 0 0 6 2 0 
3 0 7 4 0 0 0 0 0 0 19 37 23 10 9 7 56 18 0 0 0 0 47 0 0 0 39 0 0 0 0 0 0 0 0 11 0 0 0 0 0 0 0 2 7 0 3 0 3 0 5 0 0 5 0 0 0 3 3 5 0 2 6 0 0 0 0 0 16 0 0 22 1 0 0 6 5 0 0 0 0 0 5 1 0 0 5 0 0 0 
0 0 0 0 9 0 10 18 24 19 0 0 1 13 10 0 3 20 3 0 10 7 0 8 0 6 8 48 15 16 23 48 60 53 26 0 0 15 8 0 0 0 0 0 0 2 0 6 0 6 0 0 0 0 8 9 0 0 1 0 0 0 8 1 13 0 0 0 2 4 9 0 18 4 0 0 0 0 5 8 6 0 0 9 1 3 0 2 0 3 
0 0 0 0 0 0 0 13 0 0 0 0 0 0 0 6 0 6 65 0 75 0 15 0 0 2 0 16 0 0 10 4 0 0 0 0 0 0 1 8 0 3 8 11 0 0 0 0 6 0 0 0 0 1 3 1 1 8 0 0 19 0 8 16 2 13 8 0 14 0 12 6 0 2 0 0 1 5 0 0 0 3 0 0 0 0 1 0 5 1 
38 43 35 51 49 59 39 22 35 39 34 51 67 46 32 11 0 0 18 0 3 0 0 0 33 7 11 0 10 15 11 13 10 18 17 5 17 0 4 39 47 48 31 20 18 0 1 0 0 0 0 9 0 0 1 0 0 0 10 13 0 0 4 0 3 2 0 13 0 28 0 0 0 0 2 0 0 0 0 3 1 3 6 0 0 3 0 8 0 0 
4 0 0 0 0 0 0 0 0 0 0 0 0 13 10 13 39 0 5 0 0 24 5 27 0 0 1 0 10 4 6 8 16 18 25 39 46 61 46 0 0 0 0 0 11 3 2 0 2 3 0 1 0 0 0 0 2 4 0 1 5 12 1 0 18 0 3 0 7 1 5 0 9 6 1 1 0 0 0 0 0 0 0 10 10 3 5 0 0 0 
0 0 0 11 8 0 0 8 16 32 28 24 10 13 8 0 0 10 1 4 13 0 0 0 0 10 12 0 19 1 0 0 0 0 0 0 0 0 0 0 5 27 40 32 9 5 0 0 0 3 3 0 0 0 0 1 1 0 4 1 6 2 4 2 0 0 1 0 0 6 3 0 0 4 8 5 0 1 0 1 0 2 0 0 0 0 0 0 3 0 
18 4 2 0 0 0 0 0 0 0 0 0 0 0 0 0 0 0 2 0 0 0 0 0 2 0 14 0 0 0 0 27 13 0 0 0 0 0 0 0 0 0 0 0 0 4 0 2 2 0 1 3 0 1 0 0 2 5 2 0 24 4 15 0 2 0 17 0 0 7 0 0 3 6 0 0 0 3 2 1 0 0 3 2 0 5 5 0 1 0 
0 0 0 0 0 0 0 0 0 0 0 0 0 0 0 1 0 0 0 6 14 8 0 17 0 6 0 0 0 0 0 0 0 0 0 0 0 0 0 0 0 0 0 0 0 0 4 2 0 5 0 0 1 0 1 1 0 0 1 0 5 0 5 0 9 0 0 1 0 4 16 0 0 0 0 5 0 0 1 1 2 0 0 0 0 0 3 1 0 0 
0 0 11 21 31 33 25 16 0 0 0 0 0 0 0 0 2 0 0 0 0 0 5 0 7 0 0 3 0 0 0 0 0 0 0 0 0 0 0 0 0 0 0 0 0 0 0 0 0 0 0 3 2 4 3 0 0 0 0 5 7 0 0 19 0 0 0 6 3 0 1 7 0 7 2 0 5 0 1 0 0 1 1 0 0 0 0 0 0 1 
0 0 0 0 0 0 0 0 0 0 0 0 0 0 0 6 0 0 8 0 0 0 8 3 0 23 2 0 9 0 1 3 0 0 0 0 0 0 0 0 0 0 0 0 0 1 2 2 2 1 0 0 0 0 0 0 0 0 2 2 0 21 5 0 5 0 6 17 5 3 18 3 2 0 0 0 0 3 0 0 0 0 0 0 1 0 0 0 0 0 
0 0 0 0 0 0 0 0 0 4 0 0 0 0 0 0 3 0 6 0 0 0 0 0 2 0 20 12 5 0 0 0 0 0 0 0 0 0 1 8 11 8 9 9 10 0 0 0 0 0 0 0 0 0 0 3 1 0 0 0 0 0 12 0 0 0 0 20 0 0 9 0 5 0 5 1 0 0 0 0 0 1 0 0 0 0 1 0 1 0 
6 3 1 6 0 3 4 2 6 0 7 3 3 1 0 0 21 3 0 5 0 0 0 0 0 3 19 28 9 9 3 2 4 3 2 11 8 18 30 28 19 28 30 17 13 0 1 0 0 0 0 0 1 3 0 0 2 1 0 0 0 0 0 12 0 0 6 1 0 4 0 1 16 5 8 0 2 0 2 0 0 0 0 0 1 0 0 0 4 1 
0 0 0 0 0 0 0 0 0 0 0 0 0 0 0 0 5 0 0 0 3 0 0 0 6 13 27 22 0 7 9 14 17 25 16 11 20 0 0 0 0 0 0 0 4 0 0 0 0 2 2 0 2 0 0 3 0 1 0 0 11 10 0 0 0 8 0 0 0 0 0 25 10 10 0 1 0 0 1 2 0 5 8 1 2 5 0 0 0 0 
1 2 1 0 0 4 3 3 2 0 0 0 0 0 0 0 0 0 18 8 0 0 0 0 0 0 0 3 0 12 0 0 0 0 0 0 4 0 22 31 27 34 17 5 0 0 0 1 2 0 0 0 0 0 3 1 0 0 2 0 6 0 1 0 0 15 8 22 0 5 20 0 5 0 9 0 6 2 1 0 3 0 6 0 8 0 10 0 6 0 
0 0 0 0 0 0 2 0 7 2 11 1 0 8 16 1 0 0 22 52 34 23 0 0 0 0 0 7 5 13 22 12 9 15 22 11 26 18 0 0 0 0 0 0 0 0 0 0 0 1 0 0 2 2 0 0 4 0 0 1 4 28 0 0 4 0 15 0 0 0 56 0 0 0 0 3 1 0 0 2 2 0 12 0 2 0 0 8 0 0 
29 21 19 23 8 1 0 15 4 4 0 0 12 11 0 0 7 0 0 0 23 26 71 18 0 4 0 0 6 0 0 1 9 0 0 0 0 0 0 0 0 6 10 0 0 1 2 0 0 0 3 0 0 0 3 3 0 2 4 2 0 0 14 0 0 0 0 0 14 4 0 2 0 2 6 0 0 0 5 3 0 3 1 0 0 7 0 5 2 0 
0 0 19 6 0 0 0 6 29 1 0 7 0 0 0 0 0 0 4 0 0 0 0 0 12 0 10 0 0 30 3 0 0 0 0 12 30 50 50 0 0 0 0 36 26 3 0 0 6 5 0 0 0 0 15 0 4 7 0 3 0 7 0 5 0 13 25 0 36 0 0 7 21 0 0 10 0 0 5 9 0 3 0 18 13 0 0 0 0 8 
0 12 0 0 0 3 15 23 1 0 0 0 0 0 3 0 0 0 0 0 0 28 0 0 1 0 0 0 7 21 31 9 7 25 0 0 0 0 0 28 50 34 7 19 19 0 1 10 0 0 0 0 2 13 0 0 0 3 0 3 0 5 13 0 0 0 0 0 17 0 0 6 1 0 0 26 0 0 0 7 11 8 0 2 0 0 2 10 5 0 
15 10 11 38 13 9 0 0 0 17 1 0 0 0 0 16 10 17 0 14 0 0 0 0 0 12 13 11 11 11 41 10 5 5 0 12 7 0 6 16 0 19 19 0 16 0 7 0 0 3 3 17 0 0 0 7 0 6 0 6 0 7 0 0 3 28 1 0 0 0 0 4 0 0 2 0 2 14 0 8 0 3 11 0 0 3 10 0 9 0 
23 16 56 53 54 6 0 0 6 0 2 8 13 0 11 14 0 0 0 3 10 18 50 42 39 21 4 18 0 10 11 0 8 10 0 0 23 38 0 0 0 52 12 0 0 9 0 0 3 8 13 0 5 0 2 0 1 2 2 0 5 1 0 15 0 0 37 0 9 0 29 0 3 0 0 0 0 0 14 8 0 11 1 17 0 0 1 8 0 6 
11 0 0 0 0 4 6 0 0 0 0 0 12 0 6 0 13 0 0 0 0 20 7 1 18 22 4 0 0 0 0 5 14 0 0 0 0 2 10 0 0 0 0 0 0 15 3 0 0 0 0 9 14 0 18 0 0 0 0 0 5 0 9 0 5 0 23 0 0 2 5 2 3 0 0 8 0 0 8 1 0 10 0 10 0 0 7 0 0 0 
28 29 18 0 0 0 0 0 0 0 0 0 1 22 4 3 0 2 14 2 0 0 12 49 10 24 24 9 0 0 0 4 13 1 14 9 9 0 0 32 16 0 0 14 6 0 15 0 0 10 3 0 17 5 0 12 0 0 5 6 0 0 0 13 0 16 0 0 0 6 0 13 3 14 31 0 26 0 0 5 3 3 0 0 0 16 32 0 0 0 
4 9 56 60 30 4 0 4 45 62 36 61 17 0 9 0 4 13 1 0 32 0 0 13 26 41 9 18 0 0 0 0 2 48 23 31 24 19 26 0 2 9 8 15 0 14 0 0 0 6 12 0 0 8 2 0 0 0 5 13 0 21 0 10 0 0 21 0 12 0 27 7 3 5 0 5 8 2 0 0 0 8 3 0 0 1 0 0 0 0 
0 0 0 0 0 0 0 0 0 3 0 0 25 69 52 4 0 0 0 0 6 0 11 0 16 16 23 5 14 7 0 14 0 0 40 22 10 27 0 0 0 0 1 0 0 0 3 0 2 0 0 23 15 5 0 8 0 0 0 9 5 2 5 0 8 0 0 16 0 0 5 18 22 0 0 0 3 25 0 0 2 0 0 14 0 0 0 0 0 0 
13 33 0 0 0 0 0 0 28 21 7 6 0 0 0 15 9 20 0 0 0 33 0 8 0 26 15 0 56 48 35 4 7 30 0 0 3 0 0 0 0 0 0 0 0 0 13 0 3 0 14 38 0 10 10 0 7 0 8 0 3 0 8 3 7 0 6 0 6 0 0 0 0 0 0 4 6 5 15 42 0 8 13 5 4 0 1 0 15 0 
0 0 0 0 0 0 0 2 0 0 0 0 0 0 0 0 0 0 16 45 49 3 7 8 0 0 0 0 0 19 0 0 18 3 0 0 0 0 0 0 0 0 40 0 14 0 0 19 0 10 0 3 0 15 4 8 0 0 12 0 4 2 0 0 0 20 5 6 0 11 0 0 21 8 0 4 0 9 0 24 3 0 5 0 1 0 0 0 15 0 
26 0 0 0 5 0 0 16 6 0 1 18 2 1 0 1 17 7 3 0 0 19 4 0 0 2 0 16 24 15 19 0 0 0 0 23 0 26 58 71 42 48 56 41 0 0 2 14 0 0 18 0 0 16 0 5 8 0 5 0 0 3 4 10 10 2 5 0 2 0 0 7 0 0 5 0 12 8 0 0 0 0 0 14 7 23 0 0 29 5 
0 0 52 29 0 0 0 0 0 0 0 0 0 3 20 3 1 2 8 25 54 0 0 17 12 6 46 32 14 44 70 67 55 80 0 0 26 17 0 0 0 0 0 4 30 18 0 0 28 0 0 3 0 3 0 2 0 0 0 5 0 9 0 0 0 12 14 0 0 0 7 0 0 13 0 6 27 0 6 0 21 21 0 10 0 0 0 8 0 0 
0 0 0 0 10 11 11 11 9 0 0 9 10 5 8 14 63 23 46 62 0 26 45 33 81 59 63 73 71 40 8 49 0 37 0 3 54 32 36 38 0 0 0 0 0 1 1 7 0 0 0 0 0 2 4 0 0 1 0 0 0 0 0 0 19 3 0 1 28 9 0 3 0 9 44 0 0 0 0 16 0 0 0 0 0 0 0 0 0 0 
