P2
90 90
255
255 255 255 255 255 255 255 255 255 255 255 255 255 255 255 255 255 255 255 255 255 255 255 255 255 255 255 255 255 255 255 255 255 255 255 255 255 255 255 255 255 255 255 255 255 0 0 0 0 0 0 0 0 1 0 0 0 0 0 0 0 0 0 1 0 0 0 1 0 0 1 0 0 0 0 0 0 0 0 0 0 0 0 0 0 0 0 0 0 1 
255 255 255 255 255 255 255 255 255 255 255 255 255 255 255 255 255 255 255 255 255 255 255 255 255 255 255 255 255 255 255 255 255 255 255 255 255 255 255 255 255 255 255 255 255 1 0 0 0 0 0 0 1 0 0 0 0 0 0 0 0 0 0 0 0 0 0 0 0 0 0 0 1 0 0 0 0 0 0 0 0 0 0 0 0 0 0 0 0 0 
255 255 255 255 255 255 255 255 255 255 255 255 255 255 255 255 255 255 255 255 255 255 255 255 255 255 255 255 255 255 255 255 255 255 255 255 255 255 255 255 255 255 255 255 255 1 0 0 0 0 0 0 0 0 0 0 0 0 0 0 0 0 0 0 0 0 0 0 0 0 1 0 0 0 0 0 0 0 0 1 0 0 0 0 0 0 0 0 0 0 
255 255 255 255 255 255 255 255 255 255 255 255 255 255 255 255 255 255 255 255 255 255 255 255 255 255 255 255 255 255 255 255 255 255 255 255 255 255 255 255 255 255 255 255 255 0 0 0 0 0 0 0 0 0 0 0 0 0 1 0 0 0 0 0 0 0 0 0 0 0 1 0 0 0 0 0 0 0 0 0 0 0 0 0 0 0 0 0 0 1 
255 255 255 255 255 255 255 255 255 255 255 255 255 255 255 255 255 255 255 255 255 255 255 255 255 255 255 255 255 255 255 255 255 255 255 255 255 255 255 255 255 255 255 255 255 0 0 0 0 3 6 0 5 0 0 0 37 0 0 0 0 0 7 9 7 1 0 0 0 0 0 1 2 5 4 6 10 2 0 3 1 0 2 26 0 5 1 0 0 1 
255 255 255 255 255 73 198 255 255 255 255 173 149 243 255 255 255 255 220 112 85 75 74 91 187 255 255 255 255 255 255 205 133 124 255 255 255 255 157 181 255 255 255 255 255 0 0 0 0 21 13 0 18 0 0 57 67 0 0 0 0 0 29 35 13 5 2 0 0 0 0 0 8 13 20 19 25 10 0 0 5 2 5 107 0 17 0 0 0 2 
255 255 255 255 255 255 255 255 255 255 178 146 228 255 255 255 255 255 201 185 184 147 117 98 87 116 249 255 255 255 255 255 196 106 148 255 255 255 255 255 255 255 255 255 255 1 0 0 0 7 5 0 5 0 63 73 0 0 0 0 0 14 18 5 0 10 15 8 1 1 0 0 0 5 13 16 18 17 6 0 0 5 0 39 0 6 0 0 0 0 
255 255 255 255 255 255 255 255 255 255 125 217 255 255 255 255 228 204 255 255 255 255 255 255 233 158 113 181 255 255 255 255 255 153 114 229 255 255 255 255 255 255 255 255 255 0 0 0 0 0 0 0 0 0 143 0 0 0 0 0 13 13 0 0 0 0 10 6 4 10 8 0 0 0 5 6 19 17 13 3 0 9 1 2 0 0 0 0 0 0 
255 255 255 255 255 255 255 255 255 150 172 255 255 255 255 198 202 255 255 255 255 255 255 255 255 255 255 155 163 255 255 255 255 232 141 145 255 255 255 255 255 255 255 255 255 0 0 0 0 0 0 0 0 96 40 0 0 0 0 11 34 0 0 0 0 0 1 1 1 5 9 23 15 0 0 3 8 18 18 17 0 0 3 2 0 0 0 0 0 0 
255 255 255 255 255 255 255 255 220 145 237 255 255 255 214 223 255 255 255 255 255 255 255 255 255 255 255 255 188 197 255 255 255 255 211 124 241 255 255 255 255 255 255 255 255 1 0 0 0 0 0 0 48 82 0 0 0 0 8 53 0 0 0 0 0 0 0 0 0 0 3 14 32 29 0 0 1 10 17 26 7 0 0 3 0 1 0 0 0 0 
255 255 255 255 255 255 255 255 121 189 255 255 255 221 197 255 255 255 255 255 255 255 255 255 255 255 255 255 255 163 203 255 255 255 255 161 120 255 255 255 255 255 255 255 255 0 0 0 0 0 0 0 128 0 0 0 0 0 100 0 0 0 0 0 1 0 0 0 0 0 1 5 15 48 49 0 0 3 15 28 34 0 0 4 0 1 0 0 0 0 
255 255 255 255 255 255 255 255 132 233 255 255 255 178 255 255 255 255 255 255 255 255 255 255 255 255 255 255 255 255 146 239 255 255 255 198 128 255 255 255 255 255 255 255 255 0 0 0 0 0 0 0 138 0 0 0 0 94 8 0 0 0 0 0 0 0 0 0 0 0 1 2 8 22 51 38 0 0 13 27 31 18 0 5 0 1 0 0 0 0 
255 255 255 255 255 255 255 255 152 255 255 255 196 219 255 255 255 255 255 255 255 255 255 255 255 255 255 255 255 255 232 125 255 255 255 229 133 255 255 255 255 255 255 255 255 0 0 0 0 0 0 2 126 0 0 0 43 90 0 0 0 0 0 1 0 0 0 0 0 0 0 2 5 9 28 41 19 0 5 28 37 22 0 5 1 0 0 0 0 1 
255 255 255 255 255 255 255 202 184 255 255 255 188 255 255 255 255 255 255 255 255 255 255 255 255 255 255 255 255 255 255 179 177 255 255 255 150 233 255 255 255 255 255 255 255 1 0 0 0 0 0 57 48 0 0 0 98 0 0 0 0 0 0 2 0 0 0 1 0 0 0 1 4 7 12 34 27 0 0 25 45 31 0 0 2 1 0 0 0 0 
255 255 255 255 255 255 255 123 234 255 255 183 203 255 255 255 255 255 255 255 255 255 255 255 255 255 255 255 255 255 255 253 130 255 255 255 179 134 255 255 255 255 255 255 255 0 0 0 0 0 22 80 0 0 0 50 85 0 0 0 0 0 0 1 0 0 0 0 0 0 0 0 3 4 7 24 21 4 0 17 44 45 0 0 3 0 0 0 0 0 
255 255 255 255 255 255 170 157 255 255 233 149 251 255 255 255 255 255 255 255 255 255 255 255 255 255 255 255 255 255 255 255 163 151 255 255 213 125 255 255 255 255 255 255 255 1 0 0 0 0 64 23 0 0 0 92 0 0 0 0 0 0 0 0 0 0 0 0 0 0 0 0 2 4 6 13 15 23 0 0 38 48 13 0 0 2 0 0 0 0 
255 255 255 255 255 255 131 202 255 255 142 165 255 255 255 255 255 255 255 255 255 255 255 255 255 255 255 255 255 255 255 255 203 107 221 255 255 152 171 255 255 255 255 255 255 1 0 0 0 0 88 0 0 0 68 47 0 0 0 0 0 0 0 0 0 0 0 0 0 0 0 0 0 0 5 10 11 30 0 0 28 42 29 0 0 2 0 0 0 0 
255 255 255 255 255 255 144 251 255 220 125 202 255 183 138 137 153 248 255 255 255 255 255 255 255 255 255 211 148 137 138 255 215 119 145 255 255 177 154 255 255 255 255 255 255 0 0 0 0 0 90 0 0 0 93 0 0 0 61 0 0 0 0 1 0 1 0 0 0 2 0 35 17 11 0 3 0 24 8 0 3 37 39 0 0 2 1 0 0 1 
255 255 255 255 255 255 160 255 255 156 144 201 161 255 255 255 136 103 101 217 255 255 255 255 255 110 97 116 162 255 255 202 173 156 112 221 255 197 147 255 255 255 255 255 255 0 0 0 0 0 88 0 0 40 51 0 0 18 0 0 12 12 1 0 0 0 1 0 0 19 17 0 0 0 0 0 71 0 13 0 0 34 43 2 0 2 0 0 0 1 
255 255 255 255 255 255 203 255 213 104 158 248 255 255 253 233 194 143 141 155 255 255 255 255 221 118 153 175 220 233 255 255 255 191 101 160 255 225 241 255 255 255 255 255 255 0 0 0 0 0 68 0 0 66 11 0 0 0 16 6 3 8 0 11 0 0 0 0 5 34 0 0 0 0 0 0 0 14 18 0 0 9 34 0 0 3 1 0 0 0 
255 255 255 255 255 255 243 247 164 90 190 255 227 125 87 80 84 93 139 217 255 255 255 255 243 210 102 83 82 76 109 153 255 255 136 124 221 245 255 255 255 255 255 255 255 0 0 0 0 0 56 0 13 50 2 0 0 64 14 10 0 0 0 0 0 0 0 0 14 23 11 1 0 0 3 0 0 0 22 18 0 0 23 0 0 2 0 0 0 1 
255 255 255 255 255 255 221 200 111 93 208 255 255 162 255 120 85 166 255 255 255 255 255 255 255 255 255 83 85 246 184 237 255 255 158 97 168 233 255 255 255 255 255 255 255 0 1 0 0 0 67 0 45 9 2 0 0 35 73 0 43 0 0 39 0 0 0 0 17 0 12 34 0 1 0 95 0 0 28 29 0 0 10 0 0 2 1 0 0 1 
255 255 255 255 255 255 194 168 96 94 209 255 255 255 255 255 255 255 255 255 255 255 255 255 255 255 255 255 255 255 255 255 255 255 154 90 122 194 255 255 255 255 255 255 255 1 0 0 0 0 70 0 41 0 2 0 0 0 13 0 4 0 0 11 0 12 0 0 13 0 0 9 5 1 0 3 0 8 27 29 0 0 0 0 0 2 0 0 0 0 
255 255 255 255 255 255 216 179 123 95 195 255 255 255 255 255 255 255 255 255 255 255 255 255 255 255 255 255 255 255 255 255 255 255 141 88 130 201 255 255 255 255 255 255 255 0 0 0 0 0 55 12 17 19 1 0 0 0 0 0 0 0 0 1 3 13 0 0 13 0 1 0 1 0 0 0 3 7 25 24 0 0 0 0 0 3 0 0 0 0 
255 255 255 255 255 255 228 255 255 95 177 255 255 255 255 255 255 255 255 255 255 255 255 255 255 255 255 255 255 255 255 255 255 248 121 107 255 255 255 255 255 255 255 255 255 1 0 0 0 0 50 14 0 135 1 0 0 0 0 0 1 0 0 0 3 12 0 0 9 0 1 0 0 0 0 2 5 13 26 17 0 0 85 0 0 2 0 0 0 1 
255 255 255 255 255 255 230 255 255 106 142 247 255 255 255 255 255 255 255 255 255 255 255 255 255 255 255 255 255 255 255 255 255 194 102 123 255 255 255 255 255 255 255 255 255 0 0 0 0 0 51 11 0 126 13 0 0 0 0 0 0 0 0 0 4 10 0 0 9 0 0 0 0 0 4 5 6 18 25 5 0 0 95 0 0 1 1 1 0 2 
255 255 255 255 255 255 250 255 255 151 132 205 255 255 255 255 255 255 255 255 255 255 255 255 255 255 255 255 255 255 255 255 255 160 112 171 255 255 255 255 255 255 255 255 255 0 0 0 0 0 45 14 0 98 22 2 0 0 0 0 0 0 0 0 9 3 0 0 8 0 0 0 0 4 5 8 10 19 21 0 0 0 93 0 0 2 0 0 0 0 
255 255 255 255 255 255 255 255 255 255 255 202 250 255 255 255 255 255 255 255 255 255 255 255 255 255 255 255 255 255 255 255 222 182 235 255 255 255 255 255 255 255 255 255 255 1 0 0 0 0 28 36 0 118 0 104 0 0 0 0 0 0 0 0 30 9 0 0 10 0 0 0 1 8 9 13 16 18 8 0 102 0 95 0 0 2 1 0 0 0 
255 255 255 255 255 255 255 255 255 255 255 255 215 255 255 255 255 255 255 255 237 186 207 168 255 255 255 255 255 255 255 255 214 255 255 255 255 255 255 255 255 255 255 255 255 1 0 0 0 0 1 63 0 114 0 0 94 0 0 0 0 0 0 0 50 59 0 0 13 0 0 0 4 8 16 18 19 5 0 7 95 0 92 0 0 1 1 0 0 1 
255 255 255 255 255 255 255 255 255 255 255 255 207 252 255 255 255 255 255 255 255 240 201 255 255 255 255 255 255 255 255 249 224 255 255 255 255 255 255 255 255 255 255 255 255 1 0 0 0 0 0 61 0 107 0 1 88 0 0 0 0 0 0 1 10 47 41 0 0 0 1 0 5 13 18 16 10 0 0 2 91 0 87 0 1 1 0 0 0 1 
255 255 255 255 255 255 255 255 255 255 255 255 215 249 255 255 255 255 255 255 255 255 255 255 255 255 255 255 255 255 255 249 230 255 255 255 255 255 255 255 255 255 255 255 255 0 0 0 0 0 0 48 0 98 0 0 88 0 0 0 0 0 0 0 0 0 18 1 0 1 0 1 6 14 18 15 7 0 0 0 82 0 70 0 2 0 0 0 0 1 
255 255 255 255 255 255 255 255 255 255 255 255 232 246 255 255 255 255 255 255 255 255 255 255 255 255 255 255 255 255 255 254 249 255 255 255 255 255 255 255 255 255 255 255 255 0 0 0 0 0 0 6 0 81 0 1 80 1 0 0 0 0 0 0 7 26 6 0 0 0 0 2 9 15 18 10 6 0 0 0 71 0 0 0 0 0 0 0 0 1 
255 255 255 255 255 255 255 255 255 255 255 255 255 241 255 255 255 255 211 123 130 131 132 132 123 131 255 255 255 255 255 238 255 255 255 255 255 255 255 255 255 255 255 255 255 1 0 0 0 0 0 0 8 70 0 1 5 80 0 0 0 0 35 40 0 0 0 0 0 3 0 0 12 18 15 9 10 0 0 0 68 0 0 2 0 0 0 0 0 0 
255 255 255 255 255 255 255 255 255 255 255 255 255 238 255 255 255 255 255 255 255 255 255 255 255 255 255 255 255 255 255 244 255 255 255 255 255 255 255 255 255 255 255 255 255 1 0 0 0 0 0 0 0 75 0 1 0 71 15 0 0 0 1 17 0 0 0 0 7 8 0 0 9 15 14 13 0 0 0 0 66 0 0 2 0 0 1 0 0 1 
255 255 255 255 255 255 255 255 255 255 255 255 255 255 227 255 255 255 255 255 255 255 255 255 255 255 255 255 255 242 239 255 255 255 255 255 255 255 255 255 255 255 255 255 255 1 0 0 0 0 0 0 0 61 0 0 0 0 66 13 0 0 0 0 16 5 19 3 0 0 1 4 13 14 33 0 0 0 0 5 45 0 2 2 0 0 1 0 0 0 
255 255 255 255 255 255 255 255 255 255 255 255 255 255 163 179 255 255 255 255 255 255 255 255 255 255 255 255 251 133 255 255 255 255 255 255 255 255 255 255 255 255 255 255 255 1 0 0 0 0 0 0 0 28 0 0 0 0 0 88 0 0 0 0 0 0 31 3 0 2 5 7 15 32 51 0 3 0 1 25 0 0 1 1 0 1 1 0 0 1 
255 255 255 255 255 255 255 255 255 255 255 255 255 255 160 91 163 255 255 255 255 255 255 255 255 255 255 238 132 81 255 255 255 255 255 255 255 255 255 255 255 255 255 255 255 0 0 0 0 0 0 0 0 0 51 0 0 0 0 85 0 0 0 0 0 0 0 0 2 5 7 13 36 26 5 0 2 0 0 42 0 2 1 2 0 0 1 0 0 1 
255 255 255 255 255 255 255 255 255 255 255 255 255 255 161 86 90 148 255 255 255 255 255 255 255 255 221 118 78 78 255 255 255 255 255 255 255 255 255 255 255 255 255 255 255 0 0 0 0 0 0 0 0 0 39 0 0 0 0 84 0 0 0 0 0 0 0 0 3 5 12 22 17 0 0 0 1 0 11 13 0 1 0 0 0 0 0 0 0 1 
255 255 255 255 255 255 255 255 255 255 255 255 255 255 188 114 85 88 120 185 255 255 255 255 255 145 105 76 87 104 255 255 255 255 255 255 255 255 255 255 255 255 255 255 255 1 0 0 0 12 2 0 5 0 8 23 0 0 0 78 3 2 0 0 0 0 0 0 0 14 8 6 1 0 0 0 0 0 18 0 0 1 0 45 0 6 1 0 0 1 
255 255 255 255 255 77 200 255 255 255 255 255 255 255 212 147 109 75 75 83 97 102 101 102 93 73 69 80 121 133 255 255 255 255 255 255 255 255 120 166 255 255 255 255 255 0 0 0 0 24 11 0 15 1 0 21 0 0 0 71 2 6 0 0 0 0 0 0 0 2 0 0 0 0 1 0 0 0 15 0 1 0 41 67 0 17 1 0 0 1 
255 255 255 255 255 255 255 255 255 255 255 255 255 255 255 255 255 255 255 255 255 255 255 255 255 255 255 255 255 255 255 255 255 255 255 255 255 255 255 255 255 255 255 255 255 0 0 0 0 5 1 0 5 0 0 3 0 0 0 12 0 0 0 1 0 0 0 0 0 1 0 0 0 0 2 0 0 0 1 0 0 0 12 11 0 5 0 0 0 1 
255 255 255 255 255 255 255 255 255 255 255 255 255 255 255 255 255 255 255 255 255 255 255 255 255 255 255 255 255 255 255 255 255 255 255 255 255 255 255 255 255 255 255 255 255 1 0 0 0 0 0 0 0 0 0 0 0 0 0 0 0 0 0 0 0 0 0 0 0 0 0 0 0 0 0 0 0 1 0 0 0 0 0 0 0 0 0 0 0 0 
255 255 255 255 255 255 255 255 255 255 255 255 255 255 255 255 255 255 255 255 255 255 255 255 255 255 255 255 255 255 255 255 255 255 255 255 255 255 255 255 255 255 255 255 255 0 0 0 0 0 0 0 0 0 0 0 0 0 0 0 0 0 0 0 0 0 0 0 0 0 0 0 0 0 0 0 0 0 0 0 1 0 0 0 0 0 0 0 0 0 
255 255 255 255 255 255 255 255 255 255 255 255 255 255 255 255 255 255 255 255 255 255 255 255 255 255 255 255 255 255 255 255 255 255 255 255 255 255 255 255 255 255 255 255 255 1 0 0 0 0 0 0 0 0 0 1 0 0 0 0 0 0 0 0 0 0 0 0 0 0 0 0 0 0 0 0 0 0 0 1 0 0 0 0 0 0 0 0 0 1 
255 255 255 255 255 255 255 255 255 255 255 255 255 255 255 255 255 255 255 255 255 255 255 255 255 255 255 255 255 255 255 255 255 255 255 255 255 255 255 255 255 255 255 255 255 1 0 0 0 0 0 0 0 0 0 0 0 0 0 0 0 0 0 0 0 0 0 0 0 0 0 0 0 0 1 0 0 0 0 0 0 0 0 0 0 0 0 0 0 0 
1 2 0 0 0 0 0 0 0 0 0 1 0 0 0 1 0 0 0 1 0 0 0 0 0 0 1 0 0 0 0 0 0 1 0 0 0 0 1 0 0 0 0 1 1 0 0 0 0 0 0 0 0 0 0 0 0 0 0 0 0 0 0 0 0 0 0 0 0 0 0 0 0 0 0 0 0 0 0 0 0 0 0 0 0 0 0 0 0 0 
0 0 0 0 0 0 0 0 0 0 0 0 0 0 0 0 0 0 0 0 0 0 0 0 1 0 0 0 0 0 0 0 0 0 0 1 0 0 0 0 0 0 0 0 0 0 0 0 0 0 0 0 0 0 0 0 0 0 0 0 0 0 0 0 0 0 0 0 0 0 0 0 0 0 0 0 0 0 0 0 0 0 0 0 0 0 0 0 0 0 
0 0 0 0 0 0 0 0 0 0 0 0 0 0 0 0 0 0 0 0 0 0 0 0 0 0 0 0 0 0 0 0 0 0 0 0 0 0 0 0 1 1 0 0 0 0 0 0 0 0 0 0 0 0 0 0 0 0 0 0 0 0 0 0 0 0 0 0 0 0 0 0 0 0 0 0 0 0 0 0 0 0 0 0 0 0 0 0 0 0 
0 0 0 0 0 0 0 0 0 0 0 0 0 0 0 0 0 0 0 0 0 0 0 0 0 0 0 0 0 0 0 0 0 0 0 0 0 0 0 0 0 0 0 0 0 0 0 0 0 0 0 0 0 0 0 0 0 0 0 0 0 0 0 0 0 0 0 0 0 0 0 0 0 0 0 0 0 0 0 0 0 0 0 0 0 0 0 0 0 0 
0 0 0 0 3 106 78 0 0 0 0 70 106 73 32 17 4 23 65 108 121 122 122 115 53 0 0 0 12 26 43 87 108 95 0 0 0 4 80 81 0 0 0 0 0 0 0 0 0 0 0 38 0 0 0 1 0 5 12 10 2 0 0 0 0 0 0 0 2 14 3 0 0 0 0 0 0 0 19 0 0 0 0 0 35 0 0 0 0 0 
0 0 0 1 2 5 0 0 0 0 85 37 0 0 0 0 0 0 0 0 0 0 0 7 77 111 13 0 0 0 0 0 0 17 107 0 0 0 0 0 0 1 0 0 0 0 0 0 0 0 2 3 0 0 2 0 61 5 2 0 1 0 0 3 3 0 0 0 0 0 9 7 3 5 0 6 3 0 0 41 0 0 5 0 3 0 0 0 0 0 
0 0 0 1 0 0 0 5 0 76 52 0 0 0 0 0 8 104 41 0 0 0 0 0 0 37 125 66 0 0 0 0 0 0 30 84 0 0 0 0 6 0 0 0 0 0 0 0 0 8 3 0 5 1 0 59 6 5 0 1 0 0 10 23 10 4 0 0 0 0 0 5 28 0 11 0 2 0 0 0 49 0 0 42 0 5 0 0 0 0 
0 0 0 0 1 1 0 0 0 3 0 0 0 0 0 20 118 0 0 0 0 0 0 0 0 0 0 64 53 0 0 0 0 0 0 7 0 0 0 0 0 0 0 0 0 0 0 0 0 0 0 0 0 3 0 10 11 0 1 0 0 7 11 0 0 0 8 5 0 0 0 0 0 34 0 7 0 1 0 0 9 0 0 0 0 0 0 0 0 0 
0 0 0 0 0 0 0 0 50 47 0 0 0 0 19 78 0 0 0 0 0 0 0 0 0 0 0 0 59 35 0 0 0 0 0 37 54 0 0 0 0 0 0 1 1 0 0 0 0 0 0 0 2 0 49 8 0 4 0 0 0 7 0 0 0 0 1 0 1 4 0 0 0 0 38 0 5 0 0 0 0 45 0 0 0 0 0 0 0 0 
0 0 0 1 0 0 0 19 29 0 0 0 0 11 51 0 0 0 0 0 0 0 0 0 0 0 0 0 0 36 23 0 0 0 0 0 17 10 0 0 0 0 0 0 0 0 0 0 0 0 0 0 0 22 7 0 0 0 0 0 14 0 0 0 0 0 0 0 0 0 1 4 3 0 0 24 1 3 1 0 0 0 9 0 0 0 0 0 0 0 
0 0 0 0 0 0 1 16 13 0 0 0 6 23 0 0 0 0 0 0 0 0 0 0 0 0 0 0 0 0 20 12 0 0 0 0 21 21 0 0 0 0 0 0 0 0 0 0 0 0 0 0 0 15 6 0 0 0 0 12 0 0 0 0 0 0 0 0 0 0 0 1 3 0 0 0 5 2 0 1 0 0 20 0 0 0 0 0 0 0 
0 0 0 0 0 0 0 0 0 0 0 8 16 0 0 0 0 0 0 1 0 0 0 0 0 0 0 0 0 0 0 24 10 0 0 0 0 0 0 0 1 0 0 0 1 0 0 0 0 0 0 0 1 3 1 0 0 0 15 0 0 0 0 0 0 0 0 0 0 0 0 0 0 4 4 0 0 5 2 1 0 0 1 0 0 0 0 0 0 0 
1 0 0 1 0 0 4 7 0 0 0 23 1 0 0 0 0 0 0 0 0 0 1 1 0 0 0 0 0 0 0 0 34 0 0 0 0 4 0 0 0 0 0 1 0 0 0 0 0 0 0 0 8 1 3 0 0 22 0 0 0 0 0 0 0 0 0 0 0 0 0 0 0 0 4 0 0 0 3 0 0 0 0 1 0 0 0 0 0 0 
0 1 0 0 0 0 31 56 0 0 7 34 3 0 0 0 0 0 0 0 0 0 0 0 0 1 0 0 0 0 0 0 31 21 0 0 0 48 34 0 0 0 0 0 0 0 0 0 0 0 1 0 42 5 0 0 0 28 0 0 0 0 0 0 0 0 0 0 0 0 0 0 0 1 2 4 3 0 4 3 0 0 0 36 0 0 0 0 0 0 
0 0 0 0 0 17 50 0 0 0 40 24 0 0 0 0 0 0 1 0 0 0 1 0 1 0 0 0 0 0 0 0 0 74 0 0 0 16 8 0 1 0 0 0 0 0 0 0 0 0 0 26 9 0 0 0 28 8 0 0 0 0 0 0 0 0 0 0 0 0 0 0 0 0 1 3 3 0 7 2 3 0 0 13 0 0 0 0 0 0 
0 0 0 1 0 12 37 0 0 21 47 3 0 0 0 0 0 0 0 0 0 0 0 0 0 0 0 0 0 0 0 0 0 34 44 0 0 0 61 23 0 0 0 0 0 0 0 0 0 0 0 20 6 0 0 0 31 0 0 0 0 0 0 0 0 0 0 0 0 0 0 0 1 1 0 3 2 0 0 16 3 4 0 0 27 0 0 0 0 0 
0 0 0 0 0 3 0 0 0 31 26 0 0 0 0 0 0 0 0 0 0 0 0 0 1 0 0 0 0 0 0 0 0 7 59 0 0 0 13 7 0 0 0 0 0 0 0 0 0 0 0 10 0 0 0 27 1 0 0 1 0 0 0 0 0 0 0 0 0 0 0 0 0 1 1 0 0 0 0 20 1 3 0 0 8 0 0 0 0 0 
0 0 0 0 0 1 0 0 8 22 2 0 24 27 23 33 41 45 59 34 0 1 1 0 1 57 51 41 39 25 18 38 4 0 8 27 0 0 3 2 0 0 0 0 0 0 0 0 0 0 0 5 0 0 3 10 0 0 13 0 0 1 0 2 21 0 0 0 0 0 0 5 1 2 7 0 0 5 0 0 17 0 0 0 2 0 0 0 0 0 
0 0 1 0 0 0 0 0 25 28 0 0 0 0 1 0 0 0 0 30 35 0 1 1 73 6 0 0 0 0 8 0 0 0 17 50 1 0 3 2 1 1 1 0 0 0 0 0 0 0 1 0 0 0 24 3 3 21 0 0 2 0 0 0 0 28 0 0 0 0 7 3 6 0 0 0 24 0 0 0 23 3 0 0 2 0 0 0 0 0 
0 0 0 0 0 0 0 8 26 14 0 0 3 57 107 106 76 28 0 0 16 8 0 15 0 0 4 60 95 104 78 25 0 0 0 11 18 0 0 0 0 0 0 1 1 0 0 0 0 0 10 0 0 0 11 9 0 0 0 0 2 6 8 3 0 0 8 0 0 5 0 0 0 0 0 15 11 6 0 0 0 14 8 18 0 0 0 0 0 0 
0 0 0 0 0 0 0 4 10 0 0 0 42 49 12 0 0 10 14 0 0 1 0 2 0 0 35 0 0 4 35 85 1 0 0 13 15 0 0 0 0 0 0 0 0 0 0 0 0 0 3 0 0 6 0 8 0 0 20 7 1 0 0 29 0 0 1 0 0 3 0 6 0 0 0 0 0 22 0 0 0 14 1 0 0 0 0 0 0 0 
0 0 0 0 0 2 8 10 13 0 0 0 0 0 0 0 3 0 0 0 0 1 0 2 0 0 0 3 2 0 0 0 0 0 0 7 9 3 19 9 0 0 0 0 0 0 0 0 0 0 0 2 0 10 0 2 8 35 0 24 0 0 38 0 24 0 1 0 0 8 10 0 1 0 42 0 36 0 0 0 0 4 3 0 10 0 0 0 0 0 
0 0 0 0 0 0 3 6 1 0 1 1 0 0 0 0 0 0 0 0 0 0 0 0 0 0 0 0 0 0 0 0 0 4 1 1 9 9 0 0 0 1 0 0 1 0 0 0 0 0 2 0 3 0 0 0 1 3 18 0 10 0 0 16 0 0 0 0 1 0 0 12 0 0 0 28 0 0 1 0 0 0 6 3 0 0 0 0 0 0 
0 0 0 1 0 0 0 0 0 0 0 3 2 1 0 0 0 1 1 0 0 0 0 0 1 1 0 0 0 0 0 1 3 3 2 0 0 0 0 0 0 0 0 0 0 0 0 0 0 0 3 0 5 0 0 0 0 1 0 0 0 0 0 0 0 0 0 0 1 0 0 0 1 0 0 0 0 0 0 0 1 4 0 3 0 0 0 0 0 0 
0 0 0 0 0 0 0 0 0 1 4 6 4 1 0 0 1 0 0 1 0 1 0 0 0 0 0 0 0 0 1 2 5 2 3 0 0 0 7 2 0 0 0 0 0 0 0 0 0 0 0 0 9 0 0 0 0 1 0 0 0 0 0 0 0 0 0 0 0 0 0 0 0 0 0 0 0 0 0 1 2 6 0 0 2 0 0 0 0 0 
1 1 0 0 0 0 0 0 0 0 3 4 6 4 2 1 0 0 0 0 0 0 0 0 1 0 1 0 1 1 1 3 8 7 0 0 0 3 3 3 0 0 0 0 0 0 0 0 0 0 0 0 0 4 0 0 0 1 1 0 0 0 0 0 0 1 0 0 0 0 0 0 0 0 0 0 0 0 0 0 4 0 1 0 3 0 0 0 0 0 
0 0 0 0 0 0 0 0 5 0 0 6 6 7 3 2 1 0 0 2 1 0 0 0 3 1 0 0 1 3 7 10 9 0 0 0 6 0 0 0 0 1 1 1 0 0 0 0 0 0 3 0 0 0 22 0 0 0 0 1 0 1 0 0 0 2 0 0 1 0 0 0 0 0 0 0 0 0 0 15 0 5 0 3 0 0 0 0 0 0 
0 0 1 0 0 0 0 3 1 0 0 0 11 14 7 3 1 0 0 16 57 67 58 68 41 1 0 0 4 5 13 16 4 0 0 4 0 0 0 0 1 0 0 0 1 0 0 0 0 0 9 0 0 0 0 31 0 0 1 1 1 0 0 0 0 0 6 0 0 7 3 0 0 0 0 0 0 3 15 0 0 0 0 6 0 0 0 0 0 0 
0 0 0 0 0 0 0 0 0 0 5 0 4 11 11 7 4 0 0 0 0 44 59 34 0 0 0 1 5 10 14 8 0 0 4 0 0 0 0 0 1 0 0 0 0 0 0 0 0 0 0 0 0 2 0 0 5 0 0 1 0 1 0 0 17 0 0 0 5 13 0 0 0 0 0 0 3 3 0 2 2 0 2 1 0 0 0 0 0 0 
0 1 1 0 0 0 0 0 0 0 0 0 0 4 8 6 3 3 0 0 0 0 0 0 0 1 1 2 3 6 6 1 0 0 2 1 0 0 0 1 1 0 0 0 0 0 0 0 0 0 0 2 0 3 0 1 0 0 0 0 1 0 0 0 8 40 0 0 16 0 0 0 0 0 0 1 2 2 0 2 1 0 1 0 0 0 0 0 0 0 
1 0 0 0 0 0 0 0 0 0 0 1 0 0 4 7 3 1 1 0 0 0 0 0 0 0 1 2 3 5 3 0 0 0 0 0 0 0 0 0 0 1 0 0 0 0 0 0 0 0 0 6 0 3 0 0 0 0 0 0 0 1 0 0 0 0 21 1 0 0 0 0 0 0 1 1 0 0 0 0 3 0 8 0 0 0 0 0 0 0 
0 0 0 0 0 1 0 0 1 0 0 0 0 0 1 2 2 1 5 7 17 26 32 31 16 4 3 1 2 2 1 0 0 0 1 0 3 0 0 0 0 0 0 0 1 0 0 0 0 0 0 9 0 4 0 0 4 0 1 0 0 0 0 0 0 0 0 0 1 1 0 0 0 1 0 1 1 2 0 0 3 0 17 0 0 0 0 0 0 0 
1 0 0 0 0 0 0 0 0 0 0 0 0 1 3 4 3 2 8 15 8 0 0 0 9 13 0 3 4 3 3 6 0 0 0 0 0 0 0 0 0 0 1 0 0 0 0 0 0 0 0 0 0 0 0 0 8 0 0 0 0 0 1 0 0 5 2 0 0 0 2 1 0 0 2 0 1 3 0 0 0 3 0 0 0 0 0 0 0 0 
0 0 1 0 0 0 0 1 0 0 0 0 0 0 4 5 6 1 0 0 2 19 24 20 0 0 0 3 4 6 11 0 0 0 0 0 0 0 0 0 0 0 1 0 0 0 0 0 0 0 0 0 0 1 0 0 0 18 0 1 0 0 2 4 0 0 0 0 2 5 0 0 0 1 0 0 15 0 0 0 2 0 0 0 0 0 0 0 0 0 
0 0 0 0 0 0 0 0 0 0 2 0 4 0 18 16 8 7 0 0 0 0 0 0 0 2 3 5 9 31 0 0 2 0 6 8 0 0 0 0 0 0 0 0 1 0 0 0 0 0 0 0 0 5 0 2 0 0 32 0 7 0 2 0 9 2 0 0 7 0 0 0 0 0 0 46 0 0 0 0 13 0 0 0 0 0 0 0 0 0 
0 0 0 1 0 1 1 1 0 0 13 0 0 3 0 51 22 16 12 2 0 0 0 0 0 3 13 21 38 29 0 1 0 0 8 3 0 1 0 0 0 0 0 0 0 0 0 0 0 1 0 0 0 16 0 13 0 0 0 5 0 4 1 2 2 3 20 3 0 0 0 0 0 0 28 0 1 0 0 0 25 0 0 0 0 0 0 0 0 0 
1 1 0 0 0 0 0 0 0 0 0 0 0 0 0 5 61 29 17 11 3 3 2 0 0 7 19 38 48 4 0 1 0 0 0 0 1 0 0 0 0 0 0 1 1 0 0 0 0 0 0 0 0 0 2 0 0 0 0 0 0 0 5 2 4 0 1 0 1 0 0 0 0 26 5 1 0 0 0 0 0 0 0 0 0 0 0 0 0 0 
1 0 0 0 1 0 0 0 1 0 14 8 0 0 0 0 4 51 36 19 15 13 14 15 14 20 40 45 0 1 1 1 0 7 23 0 1 2 0 0 0 0 0 0 1 0 0 0 0 0 0 0 0 0 9 0 10 0 0 0 0 0 3 5 1 4 0 0 0 0 0 0 22 0 0 0 0 0 0 19 0 0 0 1 0 0 0 0 0 0 
0 0 0 0 8 143 102 0 1 0 0 0 1 1 0 0 0 5 40 49 30 29 30 24 26 58 28 0 0 0 1 0 0 0 0 0 0 0 114 114 0 0 0 0 0 0 0 0 0 0 0 47 0 0 9 0 0 0 0 5 0 0 0 0 12 0 0 1 1 0 2 7 0 5 1 0 0 0 0 7 0 0 4 0 39 0 0 0 0 0 
0 0 0 1 0 5 0 0 0 0 0 0 1 1 0 0 0 8 8 19 39 45 43 45 41 12 7 3 0 0 0 1 1 0 0 1 1 21 15 0 0 0 1 0 0 0 0 0 0 1 0 6 0 0 0 3 0 0 0 0 1 0 0 0 0 0 0 0 0 2 1 0 5 0 0 1 0 0 2 0 0 0 0 12 6 0 0 0 0 0 
1 0 0 1 0 0 0 7 1 1 0 0 1 2 0 0 0 0 0 0 0 0 0 0 0 0 0 0 0 0 0 1 1 0 0 1 2 0 0 0 6 1 1 1 1 0 0 0 0 6 2 0 3 0 0 4 0 0 0 14 0 1 0 1 0 0 0 0 0 1 0 0 0 0 2 0 0 0 2 0 0 0 16 12 0 4 0 0 0 0 
0 0 0 0 0 0 0 0 0 0 0 0 1 1 0 1 0 1 0 1 1 0 1 1 1 1 1 1 0 0 0 1 0 0 0 0 0 1 1 1 0 0 0 0 0 0 0 0 0 0 0 0 0 0 0 0 0 0 0 0 0 0 0 0 0 0 0 0 0 0 0 0 0 0 0 0 0 0 0 0 0 0 0 0 0 0 0 0 0 0 
0 0 0 0 0 1 1 1 1 0 0 0 0 1 2 1 1 1 0 1 1 1 1 1 1 1 1 0 0 0 1 0 0 0 0 0 1 1 1 0 0 0 0 0 0 0 0 0 0 0 0 0 0 0 0 0 0 0 0 0 0 0 0 0 0 0 0 0 0 0 0 0 0 0 0 0 0 0 0 0 0 0 0 0 0 0 0 0 0 0 
0 0 0 0 0 0 0 0 0 1 0 0 0 0 0 1 0 1 0 0 0 0 0 1 0 1 0 0 0 1 0 0 1 0 0 0 0 0 0 0 0 0 0 1 1 0 0 0 0 0 0 0 0 0 0 0 0 0 0 0 0 0 0 0 0 0 0 0 0 0 0 0 0 0 0 0 0 0 0 0 0 0 0 0 0 0 0 0 0 0 
0 0 0 0 0 0 0 1 0 0 0 0 0 0 0 0 0 0 0 0 0 0 0 0 0 0 1 0 0 0 0 0 0 0 0 0 0 0 0 0 0 0 0 0 0 0 0 0 0 0 0 0 0 0 0 0 0 0 0 0 0 0 0 0 0 0 0 0 0 0 0 0 0 0 0 0 0 0 0 0 0 0 0 0 0 0 0 0 0 0 
