P2
90 90
255
161 174 183 193 205 219 226 232 235 238 243 255 255 255 255 255 255 255 255 255 255 255 255 255 255 255 255 255 255 255 255 255 255 255 255 255 243 232 221 207 197 194 197 195 182 0 0 0 0 0 0 0 0 0 0 0 0 0 0 0 0 0 0 0 0 0 1 1 0 3 5 0 0 0 0 1 0 2 3 4 3 2 3 3 3 1 0 0 1 2 
158 172 184 198 213 226 235 243 247 254 255 255 255 255 255 255 255 255 255 255 255 255 255 255 255 255 255 255 255 255 255 255 255 255 255 255 251 238 228 215 210 211 221 223 215 0 0 0 0 0 0 0 0 0 0 0 0 0 0 0 0 0 0 0 0 0 0 0 0 2 3 1 0 0 0 1 0 1 2 4 3 2 3 3 2 0 0 0 0 2 
145 162 181 200 217 229 238 249 255 255 255 255 255 255 255 255 255 255 255 255 255 255 255 255 255 255 255 255 255 255 255 255 255 255 255 255 255 250 238 226 221 221 230 231 225 0 0 0 0 0 0 0 0 0 0 0 0 0 0 0 0 0 0 0 0 0 0 0 0 2 3 2 0 0 0 1 1 1 2 3 3 3 4 3 2 0 0 0 0 2 
105 122 142 161 176 185 194 206 215 220 226 236 248 255 255 255 255 255 255 255 255 255 255 255 255 255 255 255 255 255 255 255 255 255 255 255 252 237 227 218 217 215 220 220 212 0 0 0 0 0 0 0 0 0 0 0 0 0 0 0 0 0 1 0 0 0 0 0 0 2 3 0 0 0 0 2 1 1 1 2 2 3 3 2 1 1 0 0 0 2 
55 71 90 104 113 118 124 132 138 144 148 156 165 178 192 200 210 208 172 147 165 192 210 231 210 188 208 225 234 231 228 221 217 212 206 202 191 179 175 168 163 160 161 162 158 0 0 0 0 0 0 0 0 0 0 0 0 0 0 0 0 0 7 12 0 0 0 0 6 12 0 0 0 2 0 0 4 0 1 1 0 2 2 1 1 1 0 0 0 0 
37 42 50 55 57 56 54 52 56 60 63 65 72 78 88 96 124 135 102 83 91 93 88 101 108 91 103 147 133 128 125 125 123 121 118 116 110 105 103 97 94 90 90 90 89 0 0 0 0 0 0 0 1 0 0 0 0 0 0 0 0 0 5 9 0 4 4 0 2 0 0 0 0 5 0 0 2 0 1 1 0 1 1 1 1 1 1 0 0 0 
45 49 53 62 63 58 49 42 39 44 43 47 46 53 60 81 130 128 75 92 61 54 32 38 44 64 58 137 101 70 71 70 69 70 70 71 68 63 59 56 50 45 42 40 42 0 0 0 0 0 1 2 1 0 0 0 0 0 0 0 0 12 26 0 7 2 2 3 5 0 0 0 0 13 0 0 1 0 0 0 0 0 2 1 1 1 1 0 0 0 
99 146 166 175 173 158 106 65 63 74 94 90 82 88 110 127 107 109 64 60 64 55 46 32 36 65 98 129 139 86 73 79 82 83 85 87 88 90 82 71 63 55 51 49 47 0 0 0 0 0 9 14 5 0 0 0 2 0 0 0 0 12 21 0 7 4 9 0 0 0 0 0 0 19 5 1 0 0 0 0 0 0 0 3 2 1 1 0 1 0 
180 255 255 255 255 255 230 114 98 140 176 183 200 208 206 132 130 104 85 106 110 109 96 53 45 48 73 126 145 121 105 115 132 152 163 223 255 255 255 222 132 79 73 68 66 0 0 0 0 8 10 23 23 0 0 0 0 0 0 10 0 3 10 0 0 0 0 14 8 0 0 0 0 5 14 6 0 0 0 0 0 0 0 12 18 18 3 3 0 1 
255 255 255 255 255 255 255 158 123 183 203 221 255 255 215 143 126 150 199 227 245 237 163 104 71 46 50 70 127 166 130 153 188 237 255 255 255 255 255 255 255 153 123 116 103 0 0 0 1 5 12 27 30 0 0 2 0 0 9 31 2 8 0 0 0 0 16 14 13 8 0 0 1 0 8 0 0 0 0 0 0 0 0 9 15 25 21 0 3 3 
255 255 255 255 255 255 255 182 137 201 215 228 255 255 203 99 145 255 255 255 255 255 255 255 255 201 101 102 105 135 147 179 255 255 255 255 255 255 255 255 255 255 255 255 253 0 0 0 0 8 7 30 32 0 0 6 0 0 0 55 1 0 0 0 1 0 1 15 14 13 22 17 0 0 0 0 0 0 0 0 0 0 0 1 7 13 16 2 5 5 
255 255 255 255 255 255 255 202 117 152 165 170 219 255 128 121 255 255 255 255 255 255 255 255 255 255 255 130 113 132 150 222 255 255 255 255 255 255 255 255 255 255 255 255 255 0 0 0 0 7 6 19 50 0 0 4 0 0 0 31 0 0 0 6 5 0 3 4 0 1 6 34 21 0 0 0 0 0 0 0 0 0 0 1 5 6 6 3 3 6 
255 255 255 255 255 255 255 212 122 135 127 139 172 180 82 145 255 255 255 255 255 255 255 255 255 255 255 244 63 126 158 236 255 255 255 255 255 255 255 255 255 255 255 255 255 0 0 0 0 5 8 19 58 0 0 2 0 0 35 0 0 0 1 2 2 3 3 0 6 2 0 1 68 14 0 0 0 0 0 0 0 0 0 1 0 1 3 2 4 5 
255 255 255 255 255 255 255 203 114 126 115 128 157 170 72 148 255 255 255 255 255 255 255 255 255 255 255 255 89 45 86 150 255 255 255 255 255 255 255 255 255 255 255 255 255 0 0 0 0 5 5 14 46 0 0 3 0 0 16 1 0 0 0 2 0 0 0 8 0 0 3 0 44 33 0 0 0 0 0 0 0 0 0 0 0 0 2 1 3 3 
255 255 255 255 255 255 255 197 98 104 96 117 144 173 109 188 255 255 255 255 255 255 255 255 255 255 255 255 110 50 110 150 187 240 255 255 255 255 255 255 255 255 255 255 255 0 0 0 0 3 5 16 51 0 0 0 0 0 5 0 0 0 33 0 0 0 1 0 0 3 2 0 55 27 5 0 5 0 0 0 0 0 0 0 0 0 2 1 3 4 
255 255 255 255 255 255 255 220 96 90 87 109 139 154 143 255 255 255 255 200 248 255 255 255 188 215 255 255 118 50 85 165 191 200 198 255 255 255 255 255 255 255 255 255 255 0 0 0 0 1 4 20 67 2 1 0 0 0 3 0 0 1 2 24 11 0 0 7 34 0 0 0 1 61 9 0 0 0 0 0 0 0 0 0 0 0 0 2 5 6 
255 255 255 255 255 255 255 250 115 98 99 126 145 140 104 255 255 224 146 187 255 255 255 255 211 221 255 255 189 53 60 142 201 201 192 200 192 189 202 255 255 255 255 255 255 0 0 0 0 3 2 21 79 8 0 0 0 5 25 14 0 27 36 12 0 0 0 9 27 6 8 0 1 103 0 0 0 0 0 3 0 5 0 0 0 0 0 3 6 8 
255 255 255 255 255 255 255 255 137 124 127 153 164 92 94 255 255 255 255 194 255 255 255 243 207 193 222 255 231 47 44 101 191 212 195 188 186 167 140 246 255 255 255 255 255 0 0 0 0 0 5 20 75 6 0 0 0 8 26 1 0 14 13 28 0 0 0 13 63 0 0 2 0 110 4 0 0 0 9 3 0 5 6 6 0 0 0 2 12 9 
255 255 255 255 255 255 255 255 157 158 161 173 189 80 109 255 255 255 255 255 255 255 255 255 255 255 255 255 242 54 34 68 147 203 168 137 131 130 119 217 255 255 255 255 255 0 0 0 0 1 5 22 66 2 0 0 0 6 7 0 0 0 8 5 1 0 0 4 9 1 0 0 2 100 17 0 0 0 17 14 3 0 0 5 0 0 0 0 13 8 
255 255 255 255 255 255 255 235 173 181 183 186 183 88 106 255 255 255 255 255 255 255 255 255 255 255 255 255 248 64 31 50 105 197 171 102 91 96 88 138 255 255 255 255 246 0 0 0 0 1 8 31 51 0 0 2 0 17 0 0 0 0 6 5 2 0 8 0 15 0 0 0 4 89 28 0 0 0 5 26 12 0 2 0 0 0 0 4 21 8 
245 255 255 255 255 255 255 192 182 196 195 196 175 97 152 255 255 255 255 255 255 255 255 255 255 255 255 255 222 61 28 42 84 162 183 110 90 86 80 84 142 211 214 149 142 0 0 0 0 4 17 34 15 0 0 1 0 22 0 0 0 0 4 16 19 0 8 0 71 0 0 0 10 91 35 0 0 0 0 15 16 0 2 0 0 0 0 17 4 0 
168 255 255 255 255 255 211 193 201 213 213 213 185 78 145 255 255 255 255 255 255 255 255 255 255 255 255 255 228 41 29 50 79 130 181 135 119 109 106 95 87 87 78 70 65 0 0 0 0 9 15 10 0 0 0 1 0 24 0 0 0 5 15 30 0 0 3 0 13 7 0 0 0 66 28 0 0 0 0 13 9 2 1 1 2 1 0 5 0 0 
161 175 181 191 198 200 196 198 208 221 227 232 200 73 68 221 255 255 185 234 255 225 200 240 239 255 255 255 124 28 23 55 91 106 184 168 160 146 141 129 115 110 101 90 73 0 0 0 0 0 0 1 0 0 0 0 0 33 7 1 0 0 16 5 0 15 0 10 0 11 0 0 8 71 5 0 0 0 0 0 2 3 2 1 3 1 2 0 6 1 
176 175 174 179 186 193 201 210 222 233 243 250 213 65 58 119 255 255 204 205 255 255 255 255 156 255 255 255 54 36 29 47 79 106 160 214 204 198 185 171 160 149 136 117 98 0 0 1 0 0 0 0 0 0 0 0 0 29 10 0 0 0 17 2 0 0 11 13 38 17 0 0 28 17 9 0 0 0 3 0 1 0 2 4 2 2 2 6 1 3 
168 165 163 172 183 195 206 219 232 246 253 255 220 77 49 68 255 255 255 240 255 238 225 163 255 255 255 200 21 29 29 42 73 102 113 213 252 242 237 216 201 188 174 153 132 0 1 0 0 0 0 0 0 0 0 0 1 36 17 0 12 0 2 0 56 0 2 8 0 0 0 0 95 2 0 0 0 0 0 0 0 3 5 9 8 3 3 4 5 4 
152 155 160 176 192 206 220 232 247 255 255 255 211 143 58 72 116 255 255 255 242 209 201 255 255 255 255 44 28 21 24 36 50 78 112 119 221 255 255 255 238 223 207 186 162 0 0 0 0 0 0 0 0 0 0 0 3 25 23 1 0 0 0 0 19 22 6 0 0 14 5 51 17 0 4 0 0 0 1 0 7 0 0 0 4 3 3 5 5 5 
145 156 172 191 206 224 240 255 255 255 255 255 224 141 49 73 72 255 255 255 255 255 255 255 255 255 138 30 35 22 12 29 32 40 75 163 139 246 255 255 255 247 231 210 189 0 0 0 0 0 0 0 0 0 0 0 6 0 41 1 5 3 0 0 7 10 0 0 0 5 23 73 1 0 8 0 0 5 0 0 5 0 0 0 0 3 5 5 5 5 
160 179 200 216 233 250 255 255 255 255 255 255 238 99 56 61 61 255 255 255 255 255 255 255 255 255 139 35 51 21 7 29 34 23 45 145 153 181 255 255 255 255 247 227 208 0 0 0 0 0 0 0 0 0 0 0 8 16 38 24 0 0 0 0 0 5 0 2 0 26 10 81 2 9 5 0 0 0 3 0 0 9 0 0 6 4 5 5 4 4 
175 198 219 238 254 255 255 255 255 255 255 255 237 96 105 65 79 255 255 255 255 255 255 255 255 255 150 25 35 25 13 44 36 30 46 108 190 150 255 255 255 255 255 235 214 0 0 0 0 0 0 0 0 0 0 0 22 19 5 0 0 0 0 22 0 0 0 5 10 3 10 70 2 18 0 6 0 13 0 0 0 0 0 0 0 3 4 5 3 5 
188 212 231 250 255 255 255 255 255 255 255 255 254 130 163 144 106 255 255 255 255 254 255 255 255 255 160 30 26 31 23 91 79 44 51 71 155 131 255 255 255 255 255 238 218 0 0 0 0 0 0 0 0 0 0 0 10 45 7 0 36 0 0 13 1 13 3 0 0 0 15 60 6 0 4 5 0 32 0 14 0 0 0 0 0 2 5 5 4 5 
200 222 243 255 255 255 255 255 255 255 255 255 255 255 152 135 118 204 255 255 255 255 255 255 255 255 142 28 26 39 31 103 152 51 38 61 170 125 255 255 255 255 255 241 220 0 0 0 0 0 0 0 0 0 0 0 2 3 29 15 3 10 0 0 0 6 9 0 0 0 15 58 2 1 0 0 0 75 1 18 0 0 0 0 13 0 5 4 5 5 
200 225 246 255 255 255 255 255 255 255 255 255 255 172 112 95 100 115 164 255 255 255 255 255 255 236 73 33 21 44 46 41 139 58 50 70 162 174 180 255 255 255 255 240 221 0 0 0 0 0 0 0 0 0 0 0 2 24 25 10 0 0 4 0 0 0 0 8 2 0 41 23 9 0 0 7 0 0 0 8 0 0 18 0 0 0 5 4 5 5 
204 227 250 255 255 255 255 255 255 255 255 171 118 97 102 88 106 111 92 93 145 195 207 184 142 80 60 44 26 33 33 20 21 43 59 71 91 141 167 169 255 255 255 242 223 0 0 0 0 0 0 0 0 0 5 26 18 6 2 0 6 0 3 3 0 0 0 0 10 14 11 2 5 3 0 7 0 0 0 0 0 0 0 13 0 0 6 5 7 5 
210 233 254 255 255 255 255 255 195 143 96 91 93 96 98 98 97 100 91 86 81 80 75 72 73 68 58 55 43 34 30 20 15 25 46 51 70 121 186 165 223 255 255 245 223 0 0 0 0 0 0 0 29 8 15 6 0 0 0 0 1 0 2 1 1 0 1 0 1 0 2 2 0 3 0 2 2 3 0 0 0 0 0 0 44 0 2 5 5 5 
213 236 255 255 255 255 255 128 95 90 84 89 88 92 99 105 103 101 96 88 81 76 76 75 74 67 66 61 54 44 41 34 23 21 24 34 58 70 156 209 217 255 255 242 221 0 0 0 0 0 0 33 21 1 1 0 0 0 0 0 0 0 1 1 3 2 0 0 0 1 1 0 2 1 2 0 3 3 1 0 0 0 0 0 55 0 0 6 6 5 
217 239 255 255 255 249 145 99 89 81 80 84 88 96 103 107 107 105 101 95 91 90 86 83 78 80 73 66 60 56 53 49 37 29 22 21 30 48 103 149 237 255 255 243 220 0 0 0 0 0 32 13 13 1 2 0 0 0 0 0 0 0 2 0 2 0 0 1 0 0 0 2 2 0 1 0 1 4 3 0 0 0 0 0 32 0 0 4 5 5 
216 242 255 255 255 153 111 93 82 81 80 87 91 96 103 109 107 105 99 95 92 90 89 88 83 82 80 78 74 68 65 64 62 51 39 35 28 46 65 91 162 203 254 242 218 0 0 0 0 16 19 6 7 0 1 0 0 0 0 0 0 0 1 1 1 0 0 1 0 0 0 0 1 1 1 0 1 1 3 2 0 0 0 0 0 0 0 0 4 5 
221 238 255 255 200 108 95 83 78 78 82 87 91 96 101 106 108 102 98 99 97 95 94 93 88 90 90 87 85 79 76 73 73 71 65 58 51 51 56 85 239 242 197 242 221 0 0 0 0 64 1 1 2 0 0 0 0 0 0 0 0 1 2 0 0 0 0 1 0 0 0 0 0 1 1 0 0 0 1 1 1 2 0 0 0 0 25 0 9 5 
216 233 255 255 118 88 84 77 75 79 85 88 92 95 99 102 103 102 100 97 94 94 93 93 93 94 92 90 88 85 84 81 80 77 75 72 70 66 71 78 156 255 206 241 221 0 0 0 6 22 2 4 1 0 0 0 0 0 0 0 0 0 0 1 0 0 0 0 0 0 0 0 0 1 0 0 1 0 0 0 0 2 0 0 0 0 9 35 3 5 
208 228 247 228 85 74 73 71 74 82 87 90 94 95 97 98 101 99 99 97 95 95 95 96 94 93 93 94 90 88 88 85 83 80 78 74 68 65 67 75 104 255 226 221 218 0 0 0 30 6 3 0 0 0 0 0 0 0 0 0 0 0 0 0 0 0 0 0 0 0 0 0 0 0 0 0 0 1 0 0 1 1 0 0 0 0 0 43 0 5 
200 217 238 186 74 67 65 68 75 81 91 92 93 94 95 98 99 99 97 94 94 96 96 94 94 94 93 92 92 90 88 88 85 85 80 75 63 61 61 68 82 229 242 210 212 0 0 0 54 3 0 0 0 0 0 0 0 0 0 0 0 0 0 1 0 0 0 0 0 0 0 0 0 1 0 0 0 1 0 2 0 1 0 0 0 0 0 17 0 5 
191 210 233 145 70 62 61 68 76 80 92 95 93 94 95 96 95 96 96 94 94 96 96 94 94 94 94 92 89 88 88 88 89 90 83 69 61 60 59 63 75 185 248 219 209 0 0 0 61 3 1 0 0 0 0 0 2 0 0 0 0 0 0 0 0 0 0 0 0 0 0 0 0 0 0 0 0 0 0 3 3 1 0 0 0 0 0 10 0 4 
191 207 232 125 65 60 60 65 66 74 92 96 94 94 93 94 92 93 94 94 94 95 95 94 93 93 92 91 88 88 88 87 90 87 83 66 59 59 58 60 70 150 250 225 205 0 0 0 57 2 0 0 0 4 0 0 5 0 0 0 0 0 0 0 0 0 0 0 0 0 0 0 0 0 0 0 0 0 0 3 5 0 0 0 0 0 0 6 3 5 
187 205 225 114 61 59 58 58 56 71 96 98 92 92 90 90 93 93 94 94 94 94 94 94 93 92 90 87 88 88 86 84 88 90 83 60 55 56 54 57 62 134 237 218 201 0 0 0 49 2 0 1 0 6 0 0 3 0 0 0 0 0 0 0 0 0 0 0 0 1 0 1 0 0 0 0 1 0 0 3 5 0 1 0 0 0 0 9 2 5 
184 201 221 102 55 55 56 52 46 66 100 97 92 90 88 88 90 92 93 95 92 95 93 94 93 89 88 88 87 84 81 83 88 89 84 57 51 50 54 55 61 121 224 206 190 0 0 0 43 0 0 0 2 0 0 0 1 2 0 0 0 0 0 1 0 2 0 0 2 1 1 0 0 0 1 1 0 0 1 1 8 0 0 0 0 0 0 6 5 5 
1 1 1 1 0 0 0 0 0 0 0 0 0 0 0 0 0 0 0 0 0 0 0 0 0 0 0 0 0 0 0 0 0 0 0 0 0 0 0 0 0 0 0 0 0 0 0 0 0 0 0 0 0 0 0 0 0 0 0 0 0 0 0 0 1 0 0 0 0 0 0 0 0 0 0 0 0 0 0 0 0 0 0 0 0 0 0 0 0 0 
1 1 0 0 0 0 0 0 0 0 0 0 0 0 0 0 0 0 0 0 0 0 0 0 0 0 0 0 0 0 0 0 0 0 0 0 0 0 0 0 0 0 0 0 0 0 0 0 0 0 0 0 0 0 0 0 0 0 0 0 0 0 0 0 0 0 0 0 0 0 0 0 0 0 0 0 0 0 0 0 0 0 0 0 0 0 0 1 0 0 
6 6 4 3 3 3 1 1 1 1 0 1 3 3 3 3 3 1 0 0 0 0 0 0 0 0 0 0 1 1 0 0 0 0 0 0 0 0 0 0 0 0 0 0 0 0 0 0 0 0 0 0 0 0 0 0 0 0 0 0 0 0 0 1 0 0 1 0 0 0 0 0 0 0 0 0 0 0 0 0 0 0 0 0 0 0 0 0 0 0 
12 13 13 12 14 15 16 17 16 17 16 17 19 18 18 19 18 21 29 27 33 26 17 11 15 15 14 14 12 13 14 14 14 14 14 13 9 8 8 8 10 10 11 10 10 0 0 0 0 0 0 0 0 0 0 0 0 0 0 0 0 0 0 0 1 1 2 2 1 0 0 0 0 0 0 0 0 0 0 0 0 0 0 1 0 0 0 0 0 0 
8 12 13 12 15 18 20 19 20 21 20 23 23 26 26 25 19 29 26 36 11 28 40 29 47 71 16 22 24 22 22 20 21 21 19 19 19 18 16 17 18 18 18 18 15 0 0 0 0 0 0 0 0 0 0 0 0 0 0 0 0 7 0 0 10 0 0 0 0 0 9 12 0 0 0 0 1 0 0 0 0 0 0 0 0 0 0 0 0 0 
2 3 5 8 8 8 10 16 17 17 17 15 18 25 28 21 5 12 7 3 7 18 17 17 0 9 25 23 23 28 26 27 25 24 23 22 21 20 20 18 19 19 20 20 21 0 0 0 0 0 0 0 0 0 0 0 0 0 0 1 2 2 0 0 4 0 1 7 4 0 0 0 0 0 0 0 0 0 0 0 0 0 0 0 0 0 0 0 0 0 
0 0 0 0 0 0 0 0 0 0 0 1 0 0 0 0 4 0 4 0 3 0 0 6 0 4 1 0 0 1 1 0 1 0 0 0 0 0 0 1 0 0 0 1 0 1 0 0 1 0 0 0 0 0 0 0 0 0 1 0 1 0 1 3 0 0 0 0 1 0 0 2 2 0 0 0 1 0 0 0 0 0 0 0 0 0 0 0 0 0 
0 0 0 0 0 0 0 0 0 0 0 0 0 0 0 0 5 5 5 0 0 0 0 1 0 10 0 9 0 0 0 0 0 0 0 0 0 0 0 0 0 0 0 0 0 3 4 1 0 0 0 0 0 0 3 2 0 3 4 0 0 0 5 4 0 6 9 0 0 0 3 2 0 0 0 0 1 0 0 0 0 0 0 0 0 0 0 0 0 0 
0 0 0 0 0 0 0 0 0 0 0 0 0 0 0 0 0 3 0 0 0 0 0 0 0 0 12 0 11 0 0 0 0 0 0 0 0 0 0 0 0 0 0 0 0 4 1 0 0 0 0 0 0 0 1 0 1 6 0 0 9 0 1 1 5 0 0 3 1 0 0 0 4 7 3 0 1 1 0 6 3 0 0 0 0 0 0 1 0 0 
0 0 0 0 0 0 0 0 0 0 0 0 0 0 9 0 0 0 0 0 0 0 0 0 0 0 0 0 7 0 0 0 0 0 0 0 0 0 0 0 0 0 0 0 0 1 0 0 0 0 2 0 0 1 1 0 3 0 0 0 0 0 9 4 0 0 0 0 0 0 0 0 0 3 3 3 0 5 1 0 0 0 0 2 3 1 0 0 0 0 
0 0 0 0 0 0 0 0 3 3 1 6 4 0 32 2 0 0 0 0 0 0 0 0 0 0 0 7 0 12 4 0 0 0 0 0 0 0 0 0 0 0 0 0 0 0 0 0 0 0 1 1 0 0 1 1 0 0 6 0 12 16 0 0 0 0 6 3 3 3 1 0 0 0 2 0 9 0 0 0 0 0 0 0 2 3 2 0 1 0 
0 0 0 0 0 0 0 0 0 13 17 18 9 14 13 0 0 0 0 0 1 0 0 0 0 0 0 0 16 0 0 0 0 0 0 0 0 0 0 0 0 0 0 0 0 0 0 0 0 1 0 3 0 0 0 0 0 5 0 4 3 4 0 1 0 0 0 3 3 3 3 6 0 13 0 2 0 0 2 0 0 0 0 0 0 1 3 0 0 0 
0 0 1 0 0 0 0 0 1 2 3 3 8 18 0 0 0 0 6 0 0 2 0 0 0 8 0 0 5 18 4 12 14 7 1 0 3 1 2 0 0 0 0 0 0 0 0 0 0 0 0 1 3 0 0 0 1 0 0 8 14 0 0 3 0 2 0 3 0 0 0 7 6 0 15 0 0 0 8 0 0 0 0 0 1 0 0 0 0 0 
0 0 0 0 0 0 0 4 3 3 4 3 2 0 2 0 4 0 3 0 4 1 0 0 2 2 0 0 0 6 3 47 36 18 11 3 4 4 3 2 1 1 2 1 2 0 0 0 0 0 0 0 1 0 0 0 0 2 13 0 0 6 5 9 6 5 0 3 0 0 3 0 0 1 0 0 13 0 3 6 0 0 0 0 0 0 0 0 0 0 
0 0 1 1 0 0 0 0 4 6 4 3 5 2 0 2 0 28 93 18 14 2 4 8 11 14 0 0 0 0 0 0 0 28 35 20 11 9 12 14 11 8 7 8 9 0 0 0 0 0 0 0 0 0 0 0 0 0 0 36 27 0 0 11 5 0 3 0 0 0 0 6 0 0 0 0 0 1 0 23 6 0 0 0 0 0 1 0 0 0 
0 0 0 0 0 0 0 0 0 1 0 0 0 2 12 0 3 0 0 0 29 4 6 44 0 0 0 5 0 0 0 10 5 3 13 52 38 30 24 17 8 3 1 3 4 0 0 0 0 0 0 0 0 0 0 0 0 0 7 0 17 0 0 9 0 1 8 0 0 19 9 0 10 0 8 0 21 0 0 0 5 2 1 1 2 1 1 0 0 0 
2 1 0 0 0 0 0 0 0 0 0 0 0 9 7 0 15 92 88 52 0 0 0 3 55 65 66 4 0 5 3 13 2 0 0 0 2 28 49 21 4 1 0 1 4 1 1 0 0 1 0 0 0 0 0 0 0 0 0 6 0 0 0 0 23 14 0 0 0 0 0 22 16 0 0 0 0 6 2 4 0 0 0 0 12 0 1 0 0 0 
1 0 0 0 0 1 0 0 0 0 0 0 0 10 0 0 0 0 0 0 0 2 0 0 0 0 0 0 0 0 5 7 6 2 7 9 8 4 0 0 0 0 0 0 0 0 0 0 0 0 0 0 2 1 0 0 0 4 7 0 0 14 0 9 0 0 0 5 8 17 0 3 0 4 0 1 0 3 0 0 0 0 3 0 2 0 0 1 0 0 
4 1 0 0 1 2 5 2 0 0 0 0 0 0 0 1 4 0 0 0 0 0 0 0 0 0 0 0 0 0 0 6 13 0 3 17 13 4 5 13 9 5 6 9 14 1 1 0 0 0 0 0 3 1 0 0 0 0 2 5 0 0 10 2 0 0 0 0 6 6 0 0 3 0 0 0 1 1 6 0 0 2 0 1 0 0 0 0 0 1 
13 8 6 7 5 6 14 13 0 0 0 0 1 0 1 9 1 0 2 12 13 0 0 16 4 0 0 0 6 1 6 4 9 3 0 0 6 3 2 23 24 20 25 34 28 0 1 1 0 0 0 0 3 0 0 0 0 1 8 4 10 0 3 0 0 13 0 0 0 0 0 5 0 7 0 2 0 0 0 0 0 0 1 0 0 1 0 0 0 1 
26 15 18 12 10 22 36 6 0 0 0 0 0 0 0 4 8 5 14 13 17 14 18 0 24 9 2 2 1 0 4 0 0 7 4 0 0 0 0 5 39 44 44 36 28 0 4 0 4 0 0 2 8 0 0 0 0 0 0 18 0 0 10 0 14 0 6 0 13 7 0 0 0 8 0 3 0 2 11 0 0 0 0 0 0 0 2 1 1 0 
12 44 46 51 54 41 9 0 0 0 0 0 0 3 37 19 9 14 21 0 0 0 0 0 6 14 6 1 6 10 0 1 0 6 0 0 0 0 0 0 0 0 2 3 3 0 0 0 0 0 8 6 0 0 0 0 0 2 2 0 18 0 0 0 0 0 0 7 10 0 4 5 1 0 6 0 5 0 0 2 5 0 0 0 0 0 0 1 0 0 
0 1 8 5 3 0 0 0 0 0 0 0 0 4 0 24 6 4 54 12 0 61 58 104 78 25 0 4 32 0 0 0 0 6 7 0 0 0 0 0 0 0 0 0 0 0 0 0 0 1 0 0 1 0 0 0 0 1 0 6 0 2 2 0 38 0 0 0 0 34 16 0 0 13 0 2 2 6 2 8 0 0 0 0 1 0 0 2 1 0 
0 0 4 6 3 0 0 0 0 0 0 0 0 3 0 18 10 0 0 73 68 0 0 0 17 0 0 26 7 0 2 1 4 0 2 0 0 0 0 0 0 0 0 0 0 0 0 0 2 1 0 0 1 0 0 0 0 0 0 0 0 3 5 14 0 52 4 8 4 56 0 0 0 4 2 0 0 0 0 4 1 1 0 0 0 0 1 0 2 0 
4 3 2 1 0 0 0 0 0 0 0 0 0 0 3 0 43 0 0 0 0 0 0 0 0 0 0 39 2 5 0 0 9 3 9 17 0 0 0 0 0 0 0 0 0 0 0 0 0 0 0 0 0 0 0 0 0 6 0 1 0 40 10 0 0 0 5 0 16 0 0 0 0 1 0 1 0 0 0 0 21 0 0 0 0 0 0 0 0 0 
3 2 0 0 0 0 0 0 0 0 0 0 2 0 0 3 38 10 0 0 0 19 11 0 1 1 41 9 0 0 2 3 9 11 9 0 44 0 0 0 0 0 0 0 0 0 0 0 0 0 0 0 0 0 0 0 0 4 0 1 4 0 12 0 20 0 0 18 0 5 0 0 14 1 0 0 0 0 0 0 0 28 0 0 0 0 0 0 0 0 
0 0 0 0 0 0 0 0 0 0 0 0 0 17 3 0 0 14 6 0 0 0 0 0 0 17 15 6 1 1 3 0 5 14 13 15 0 22 0 0 0 0 0 0 0 0 0 0 0 0 0 0 0 0 0 0 0 3 3 0 0 10 0 7 0 9 0 0 0 0 0 16 6 0 0 0 0 0 1 5 13 0 21 0 0 0 0 0 0 0 
0 0 0 0 0 0 0 0 0 0 0 0 0 3 0 14 0 0 28 6 2 0 0 0 28 2 0 7 0 0 0 0 3 4 3 6 0 20 0 0 0 0 0 0 0 0 0 0 0 0 0 0 0 0 0 0 0 0 0 1 5 0 6 1 11 0 0 0 0 0 8 2 0 0 0 1 0 0 2 0 0 0 3 0 8 0 0 0 0 0 
0 0 0 0 0 0 0 0 0 0 0 15 0 0 0 0 1 0 0 0 38 33 36 26 2 0 3 0 17 3 0 0 0 1 0 5 5 0 19 0 0 0 0 1 0 0 0 0 0 0 0 0 0 0 2 0 0 0 18 27 0 3 0 6 0 0 1 0 5 6 0 1 0 8 1 0 5 5 2 0 0 3 4 1 0 0 0 0 0 0 
0 0 0 0 0 0 0 0 0 0 1 0 0 2 18 5 0 11 0 0 0 0 0 0 0 6 0 0 0 0 0 0 0 0 5 6 0 7 0 0 0 0 0 0 0 0 0 0 0 0 0 0 0 2 0 0 8 0 0 0 11 0 6 0 6 1 0 0 0 0 1 2 0 1 0 5 15 0 0 0 3 0 0 5 0 1 0 0 0 0 
0 0 0 0 0 0 0 0 0 0 0 0 0 3 5 11 3 53 11 0 0 0 0 0 0 0 13 1 0 0 0 15 0 0 0 1 0 0 11 4 3 1 1 0 0 0 0 0 0 0 0 0 0 0 0 0 0 0 0 0 0 13 0 6 2 3 2 0 0 3 0 1 1 0 3 0 0 0 0 0 1 6 3 0 2 0 0 0 0 0 
0 0 0 0 0 0 0 0 0 0 0 9 59 23 15 1 0 5 62 58 15 2 11 6 6 29 16 0 0 3 2 17 55 0 0 0 28 0 38 12 0 0 0 0 0 0 0 0 0 0 0 0 0 1 0 0 0 0 12 0 0 0 0 0 31 3 1 0 4 0 0 13 0 0 1 0 0 44 2 6 0 0 0 0 8 0 0 0 0 0 
0 0 0 0 1 0 0 0 0 10 55 60 15 5 2 0 3 3 1 3 56 93 86 80 61 12 0 0 0 9 12 2 5 6 3 4 0 9 11 18 2 6 0 4 0 0 0 0 0 5 1 0 10 1 0 0 4 3 1 1 1 0 0 0 0 0 0 4 0 11 9 0 1 0 0 2 1 0 0 0 0 0 0 9 0 9 1 2 0 0 
0 0 0 0 1 1 3 53 83 47 4 1 0 0 0 0 0 1 0 0 2 0 1 0 0 0 0 1 0 0 0 0 0 1 4 5 8 16 0 0 16 0 2 0 0 0 0 0 0 0 1 0 0 4 13 6 0 0 0 0 0 0 0 0 0 1 0 0 3 0 0 0 0 2 0 0 0 0 0 0 0 3 0 5 0 1 1 0 2 0 
0 0 0 0 5 5 39 13 10 8 3 0 1 2 0 0 0 0 0 0 0 0 0 0 0 0 0 0 0 0 0 0 0 1 5 5 4 2 6 0 0 4 0 0 1 0 0 0 0 0 0 0 10 0 1 1 1 0 0 1 0 0 0 0 0 0 0 0 0 0 0 0 1 0 0 0 0 0 0 0 0 0 0 5 0 0 0 1 1 0 
0 0 0 0 0 35 16 0 3 1 1 0 0 0 0 0 0 0 0 0 0 0 0 0 0 0 0 0 0 0 0 0 0 0 0 2 6 5 14 28 0 3 1 4 0 0 0 0 0 0 0 8 3 1 0 0 2 0 0 0 0 0 0 0 0 0 0 1 0 0 0 0 0 0 0 0 1 0 0 0 0 3 2 0 13 7 0 1 0 0 
1 3 0 0 16 18 4 2 1 1 0 0 0 1 1 0 1 2 0 0 0 0 0 0 0 0 0 0 0 0 0 0 0 0 0 0 0 1 5 2 8 40 5 0 0 0 0 0 0 0 8 1 4 0 0 0 0 0 0 0 0 0 0 0 0 0 0 0 0 0 0 0 1 0 0 0 0 0 0 0 0 0 0 0 1 0 7 4 4 0 
0 0 1 1 23 3 3 2 1 1 0 0 0 0 1 1 0 0 0 1 0 0 0 0 0 0 0 1 0 0 0 0 0 0 0 0 0 0 0 1 18 0 12 1 0 1 0 0 0 5 0 0 0 0 0 0 0 0 0 0 0 0 0 0 0 0 0 0 0 0 0 0 0 0 0 0 0 0 1 0 0 0 0 0 0 27 8 3 8 0 
2 1 1 5 12 7 3 4 1 0 0 0 0 0 1 2 3 0 0 0 0 0 0 0 0 0 0 0 0 0 0 0 0 0 0 0 0 0 0 2 17 6 0 3 0 0 1 1 0 8 1 0 2 0 0 0 0 0 0 0 0 0 0 0 0 0 0 0 0 0 0 0 0 0 0 0 0 0 0 0 0 1 0 0 0 0 6 0 0 0 
3 3 4 13 7 1 1 0 0 0 0 0 0 0 0 0 0 0 1 1 1 1 1 0 0 1 1 0 0 0 0 0 0 0 0 1 1 2 3 0 6 11 0 1 1 0 0 0 0 3 0 4 0 0 0 0 0 0 0 0 0 0 0 0 0 0 0 0 0 0 0 0 0 0 0 0 0 0 0 0 0 0 0 0 0 0 6 6 3 0 
3 2 1 8 1 1 0 0 0 0 0 0 1 0 0 0 1 1 0 0 0 0 0 0 0 0 0 0 1 0 0 0 0 0 0 2 0 0 0 1 4 8 1 4 2 0 0 0 0 0 0 0 0 0 0 1 0 0 0 0 0 0 0 0 0 0 0 0 0 0 0 0 0 0 0 0 0 0 0 0 0 0 0 0 0 0 6 0 0 0 
1 2 1 9 1 1 0 0 1 1 0 0 0 0 1 2 1 1 0 0 0 0 0 0 0 0 0 0 1 0 0 0 0 0 0 1 0 0 0 0 0 13 0 0 1 1 0 1 0 0 0 0 0 0 0 0 0 0 0 0 0 0 0 0 0 0 0 0 0 0 0 0 0 0 0 0 0 0 0 0 0 0 0 0 0 1 0 5 0 0 
1 1 1 3 1 0 0 1 3 1 0 0 2 0 1 0 0 1 0 0 0 1 1 0 0 1 0 1 0 0 0 1 0 1 0 2 0 0 0 1 3 4 1 4 0 0 1 0 3 0 0 0 0 0 1 0 0 0 0 0 0 0 0 0 0 0 0 0 0 0 0 0 0 0 0 0 0 0 0 0 0 0 0 0 0 0 2 0 1 0 
2 1 3 3 1 0 0 1 2 1 0 0 0 0 1 2 0 0 0 0 0 0 0 0 0 0 1 1 0 0 0 1 1 0 0 3 2 1 0 1 2 5 4 1 4 0 1 0 2 0 0 0 0 0 2 0 0 0 0 0 0 0 0 0 0 0 0 0 0 0 0 0 0 0 0 0 0 0 0 0 0 0 0 0 0 1 0 2 0 0 
1 1 2 1 2 2 1 2 1 0 1 0 0 0 0 0 0 0 0 1 0 0 0 0 0 0 0 0 0 0 0 0 0 0 1 1 2 2 1 1 1 2 1 2 1 0 0 0 0 0 0 0 0 0 0 0 0 0 0 0 0 0 0 0 0 0 0 0 0 0 0 0 0 0 0 0 0 0 0 0 0 0 0 0 0 0 0 0 0 0 
