P2
20 20
255
17    9   10    8   10   13    9   24   99  147  147   96   16   14   18   15   17   14   16    7 
9    8   10   10   23   85  255  255  255  255  255  255  255  255   74   15   16   15    4    9 
9    7    9   17  255  255  255  255  255  255  255  255  255  255  255  224   24    6   14    9 
8   14   17  255  255  255  255  255  255  255  255  255  255  255  255  255  255   22   16    3 
11    6  229  255  255  255  255  255  255  203  183  238  255  255  255  255  255  244   11   10 
14   68  255  255  255  255  255  254   13  135  206   40   86  255  255  255  255  255  113    4 
16  255  255  255  255  255  255   31   13  255  255  196   23  250  255  255  255  255  255   10 
11  255  255  255  255  255  255   19    6  236  255  140   24  255  255  255  255  255  255   44 
22  255  255  255  255  255  255   58   20    7   20    7  234  255  255  255  255  255  255  152 
39  255  255  255  255  255  255  255   15   14   26    6   13  255  255  255  255  255  255  185 
21  255  255  255  255  255  255  140   47  255  148   17   20   65  255  255  255  255  255  187 
7  255  255  255  255  255  255   12  202  255  255  255   15   27  255  255  255  255  255  159 
14  255  255  255  255  255  255   42  157  255  255  255   20   75  255  255  255  255  255   68 
9  144  255  255  255  255  255  255   17  141  169   47   64  255  255  255  255  255  255   11 
20    9  255  255  255  255  255  255  255  229  221  241  255  255  255  255  255  255  135    9 
13   14   80  255  255  255  255  255  255  255  255  255  255  255  255  255  255  255   16    9 
1    2   10  137  255  255  255  255  255  255  255  255  255  255  255  255  255   46   12   11 
5    2   12   10   67  255  255  255  255  255  255  255  255  255  255  255   32    5   23    8 
7   17    3    5   14   19  133  255  255  255  255  255  255  249   64   10   11   18   18   13 
22    3    3   13    7    4   15   12    7   10   13    9   15    6   16   15   20   23    6    8 