P2
45 45
255
174  178  181  180  182  188  190  190  190  194  198  199  193  188  181  175  174  172  171  168  166  168  170  172  172  169  171  170  168  166  164  162  164  162  162  163  165  165  166  167  166  165  166  168  172 
169  174  175  169  171  175  176  178  180  185  189  190  186  183  182  180  178  177  177  174  173  173  174  174  173  171  173  173  169  168  166  165  164  164  164  166  165  164  164  164  162  160  160  162  165 
175  173  174  165  164  167  167  171  181  182  187  194  190  190  191  190  192  193  195  191  187  187  187  187  184  181  181  181  180  178  175  174  171  170  168  169  168  166  164  162  159  157  156  157  160 
181  195  188  180  177  178  178  183  186  194  200  201  201  204  207  209  209  212  216  213  212  212  212  212  209  204  203  201  198  195  192  189  184  181  176  175  173  170  167  164  161  158  155  156  156 
198  211  207  202  198  193  197  200  201  208  214  216  218  224  229  232  235  239  241  242  243  244  244  243  240  236  235  229  226  221  217  208  204  199  192  189  187  181  178  174  169  168  166  165  165 
213  219  220  216  213  211  214  216  218  222  227  234  241  247  252  255  255  255  255  255  255  255  255  255  255  255  255  255  255  251  241  237  229  222  213  212  207  200  195  190  186  184  183  182  178 
229  230  232  230  224  222  224  226  232  232  248  255  255  255  255  255  255  255  255  255  255  255  255  255  255  255  255  255  255  255  255  255  255  248  236  231  230  222  216  210  206  203  201  199  196 
247  251  249  247  241  237  237  241  247  253  255  255  255  255  255  255  255  255  255  255  255  255  255  255  255  255  255  255  255  255  255  255  255  255  255  255  253  246  239  234  229  227  222  219  217 
255  255  255  255  255  254  252  255  255  255  255  255  154  218  230  255  255  255  254  217  216  241  220  209  227  255  255  255  231  179  153  255  255  255  255  255  255  255  255  254  247  242  240  237  232 
255  255  255  255  255  255  255  255  255  255  255  248   98  104  159  199  239  202  187  174  179  191  202  174  209  149  216  232  145   76   95  219  255  255  255  255  255  255  255  255  255  255  255  250  250 
255  255  255  255  255  255  255  255  255  255  255  232  100   63  112  171  167  145  134  153  181  156  161  148  147  128  160  155   98   54   77  221  255  255  255  255  255  255  255  255  255  255  255  255  255 
255  255  255  255  255  255  255  255  255  255  255  255  147  103  135  156  142  138  107  148  157  141  152  141  114  116  116  115  111   75  121  255  255  255  255  255  255  255  255  255  255  255  255  255  255 
 255  255  255  255  255  255  255  255  255  255  255  255  213  122  150  150  145  154  146  135  149  161  145  136  116  117  115  149  140   92  148  238  255  255  255  255  255  255  255  255  255  255  255  255  255 
 255  255  255  255  255  255  255  255  255  255  255  247  165  176  195  183  209  176  181  173  109  110  164  163  129  185  162  147  150  139  155  199  255  255  255  255  255  255  255  255  255  255  255  255  255 
 255  255  255  255  255  255  255  255  255  255  255  255  240  255  255  239  223  211  227  255   91  105  255  222  255  195  219  195  210  210  172  202  255  255  255  255  255  255  255  255  255  255  255  255  255 
 255  255  255  255  255  255  255  255  255  255  255  255  255  255  255  255  255  255  176  255  144  148  255  181  255  255  255  255  255  255  255  255  255  255  255  255  255  255  255  255  255  255  255  255  255 
 255  255  255  255  255  255  255  255  255  255  255  255  255  255  255  255  243  190  172  255  123  210  255  158  224  255  255  255  255  255  255  255  255  255  255  255  255  255  255  255  255  255  255  255  255 
 255  255  255  255  255  255  255  255  255  255  255  255  255  255  175  107   78  129   79  134  104  133  141   97  142   84  136  197  254  255  255  255  255  255  255  255  255  255  255  255  255  255  255  255  255 
 255  255  255  255  255  255  255  255  255  255  255  255  255  172   87   73   97   50   78  124  113  124  116  100   36   66   51   63  164  253  255  255  255  255  255  255  255  255  255  255  255  255  255  255  255 
 255  255  255  255  255  255  255  255  255  255  255  255  226  111   74   90   84  106  136  143  140  143  135  118   81   78   75   64   70  160  245  255  255  255  255  255  255  255  255  255  255  255  255  255  255 
 255  255  255  255  255  255  255  255  255  255  255  255  225  101   87   84   84  160  255  200  172  203  255  167   75   69  102   69   71  154  249  255  255  255  255  255  255  255  255  255  255  255  255  255  255 
 255  255  255  255  255  255  255  255  255  255  255  255  219  154   88   77  100  255  255  225  214  241  255  255  202   59   93   69   65  155  255  255  255  255  255  255  255  255  255  255  255  255  255  255  255 
 255  255  255  255  255  255  255  255  255  255  255  255  196  188  114   73  207  255  255  229  242  250  255  255  255  129  111   67  126  195  226  255  255  255  255  255  255  255  255  255  255  255  255  255  255 
 255  255  255  255  255  255  255  255  255  255  255  255  208  179  156  143  224  255  255   66   66   68  175  255  255  249  150  124  139  179  195  211  248  255  255  255  255  255  255  255  255  255  255  255  255 
 255  255  255  255  255  255  255  255  255  255  255  255  216  184  154  162  139  196  199   77   39   41  151  250  253  179  152  131  136  136  189  216  229  245  255  255  255  255  255  255  255  255  255  255  255 
 255  255  255  255  255  255  255  255  255  255  255  255  222  188  167  125  109   78   72   63   58   85   97   92   75   71   81  147  131  159  212  225  218  255  255  255  255  255  255  255  255  255  255  255  255 
 255  255  255  255  255  255  255  255  255  255  255  255  234  246  195  119  134   81   60   48   49   71   66   66   79   76  109  122  145  191  214  255  255  255  255  255  255  255  255  255  255  255  255  255  255 
 255  255  255  255  255  255  255  255  255  255  255  255  255  238  188  179  143   82   72   55   54   78   82   66   66   82  106  117  207  202  255  255  255  255  255  255  255  255  255  255  255  255  255  255  255 
 255  255  255  255  255  255  255  255  255  255  255  255  255  220  196  215  143  124   92   58   67   85   86   92   89   62   72   90  133  243  255  255  255  255  255  255  255  255  255  255  255  255  255  255  255 
 255  255  255  255  255  255  255  255  255  255  255  255  252  228  227  193  149  112   99   96   90  102  104  128  108  167  117  206  188  230  255  255  255  255  255  255  255  255  255  255  255  255  255  255  255 
 255  255  255  255  255  255  255  255  255  255  255  255  255  255  248  161  140  114   97   71   95  107   99   60   65  111  204  247  228  225  255  255  255  255  255  255  255  255  255  255  255  255  255  255  255 
 255  255  255  255  255  255  255  255  255  255  255  255  255  255  212  195  152   97   69   42   81   90  107   83   58   74  170  251  238  255  255  255  255  255  255  255  255  255  255  255  255  255  255  255  255 
 255  255  250  255  255  255  255  255  255  255  255  255  236  251  238  180  159  113   58   56   87   87   85   94   63   51   47  208  224  255  255  255  255  255  255  255  255  255  255  255  255  255  255  255  255 
 255  253  255  255  255  255  255  255  255  255  255  255  235  231  230  170  169  126  114   81  103   88   84   73   58   55   42   95  128  148  189  254  255  255  255  255  255  255  255  255  255  255  255  255  255 
 255  255  255  255  255  250  255  255  255  255  255  255  227  230  192  225  195  163  120   98  156  108   95   58   46   47   44   64  119  129  192  255  255  255  255  255  255  255  255  255  255  255  255  255  255 
 255  255  255  255  255  247  254  248  255  255  255  255  255  245  242  254  235  204  195  145  170  144   89   52   43   52   56   96  106  149  170  252  255  255  255  255  255  255  255  255  255  255  255  255  255 
 255  255  255  255  255  255  255  255  255  255  255  255  255  255  255  255  255  236  246  173  184  238  215  123   56   84   67   81  122  201  153  220  255  255  255  255  255  255  227  255  255  255  255  255  255 
 255  254  255  255  255  255  255  255  255  255  255  255  255  255  255  255  255  255  254  255  205  255  255  255  233  232  229  138  100  167  220  224  255  255  255  255  255  211  233  255  255  221  217  226  255 
 255  255  255  255  255  255  255  255  255  255  255  255  255  255  255  255  255  255  255  255  255  255  255  255  255  255  255  255  232  221  255  248  255  255  233  255  255  243  255  233  168  159  208  242  255 
 249  255  255  255  253  255  254  255  255  255  255  255  255  255  255  255  255  255  255  255  255  255  255  255  255  255  255  255  255  245  255  248  255  255  255  255  255  255  255  249  178  123  198  235  220 
 237  251  255  255  243  255  248  255  255  255  255  255  255  255  255  255  255  255  255  255  255  255  255  255  249  255  255  255  252  255  255  253  235  252  225  246  255  255  221  218  255  233  212  239  238 
 253  255  255  252  255  234  248  255  232  255  255  255  253  253  248  255  255  255  255  255  246  245  253  253  255  255  188  232  243  236  241  237  253  232  255  255  255  250  255  206  252  223  242  216  255 
 252  255  239  220  255  255  240  240  220  234  235  226  207  209  223  239  240  215  248  255  233  255  255  249  255  236  208  230  206  215  230  230  236  233  255  255  215  223  209  182  203  215  214  217  255 
 247  234  237  244  255  255  223  251  233  222  234  226  231  233  208  229  222  224  237  242  244  250  255  255  255  214  202  206  197  201  225  235  255  226  239  216  202  248  206  204  196  174  225  181  222 
 255  239  255  255  255  249  210  213  231  234  255  255  255  241  220  243  241  251  249  255  255  255  241  236  255  239  250  255  244  243  222  230  255  255  247  236  201  243  221  252  231  208  213  215  209 

