P2
90 90
255
140 176 216 168 155 141 153 206 190 135 74 69 81 119 128 130 130 142 154 161 170 175 178 183 181 190 192 194 193 191 193 192 191 186 186 184 183 181 177 178 171 175 178 178 181 177 179 179 171 171 168 163 161 149 151 143 139 135 133 127 128 121 120 119 112 112 108 107 95 93 83 76 63 60 41 33 31 24 23 18 16 18 13 25 8 18 15 15 16 18 
179 215 188 136 158 162 202 204 148 93 81 68 104 130 120 122 115 125 137 147 157 164 176 175 179 185 193 192 187 192 191 187 191 183 185 184 180 184 180 176 176 176 179 179 180 183 180 177 175 173 166 164 162 154 149 144 141 139 134 128 127 122 126 113 115 115 106 107 96 92 83 76 63 55 53 35 32 26 25 17 17 16 17 19 15 16 16 17 11 19 
206 193 136 147 185 199 204 158 98 102 106 55 134 149 139 135 120 110 115 124 141 154 166 168 171 179 185 185 185 191 187 186 188 180 183 184 184 181 180 177 179 178 176 183 176 180 181 177 179 172 170 168 164 154 151 147 143 139 136 133 128 127 125 117 117 117 106 105 105 90 83 79 71 60 55 44 27 32 19 20 20 9 22 15 18 15 15 22 12 16 
176 134 134 195 199 207 150 100 105 154 97 59 158 158 159 151 140 121 103 104 120 136 153 161 168 173 181 179 180 186 183 186 185 180 185 181 184 184 181 181 178 177 178 178 177 181 180 178 178 173 171 168 164 155 153 148 144 140 143 134 127 124 125 121 118 117 107 105 104 90 86 83 75 59 57 47 33 31 17 19 19 12 16 17 16 18 16 15 18 17 
128 129 191 200 193 166 103 125 155 161 76 84 168 157 166 159 151 140 113 96 100 115 132 147 159 166 175 175 181 183 179 183 183 181 183 181 184 180 178 178 179 177 181 180 180 180 183 173 175 176 170 170 165 156 153 151 147 142 148 134 128 128 125 121 115 113 110 104 102 90 86 86 79 68 54 53 37 25 24 18 17 16 13 24 12 15 17 16 17 16 
146 190 207 173 172 118 141 178 170 120 62 104 161 156 162 159 151 147 134 102 93 92 108 120 142 150 164 168 172 173 177 178 179 181 179 184 181 184 179 179 181 180 180 181 179 180 183 173 175 170 173 165 164 159 155 154 149 146 143 136 136 128 126 124 115 113 108 106 102 91 90 84 79 77 60 55 39 27 19 16 20 12 16 15 16 16 18 13 17 15 
193 212 166 156 156 140 198 192 140 89 71 98 158 146 156 153 146 149 141 118 104 77 84 91 110 135 148 159 164 166 171 178 177 178 179 179 185 184 179 183 181 178 179 184 180 183 181 175 175 173 170 162 164 159 157 156 148 147 143 136 137 125 126 119 114 108 106 106 99 90 85 85 81 79 63 54 42 24 19 20 10 17 17 13 15 13 17 13 19 18 
207 175 125 171 163 188 210 159 91 99 81 91 159 139 151 140 141 139 137 124 110 86 74 71 78 107 127 144 156 161 168 175 173 181 177 177 184 178 175 181 179 179 176 180 178 178 180 176 175 171 168 163 163 161 161 154 151 147 142 136 130 129 125 115 112 108 106 103 96 90 83 86 83 77 66 60 41 26 23 18 13 15 15 13 18 13 13 12 16 17 
178 119 142 195 183 210 166 107 92 137 74 111 155 130 142 128 127 127 127 124 113 99 84 67 62 77 102 126 146 157 162 171 177 176 177 176 179 176 176 178 177 179 177 183 176 183 178 176 176 171 166 163 165 157 162 153 151 147 139 139 128 128 124 111 114 103 102 100 98 89 85 88 79 84 71 62 48 28 24 18 13 19 15 13 18 12 16 13 16 16 
125 132 198 188 199 177 110 108 148 142 75 137 147 128 125 108 112 113 115 111 110 102 91 79 68 66 78 105 130 149 157 165 172 175 173 173 172 177 176 176 172 173 175 175 178 177 175 173 169 166 163 165 161 155 159 148 147 144 136 136 127 127 122 110 112 103 100 100 93 90 89 84 82 83 76 62 47 27 23 20 16 18 12 15 15 15 16 12 18 16 
137 192 206 165 180 118 118 166 176 117 82 146 139 124 106 96 107 112 113 110 113 107 99 92 84 74 67 81 107 134 155 158 164 172 173 169 175 172 176 168 173 176 170 176 171 171 166 165 158 161 161 161 158 155 154 149 148 142 136 135 132 125 124 112 111 102 104 95 95 90 86 83 79 82 74 63 47 33 23 18 20 12 19 17 16 19 13 16 15 13 
185 216 161 141 151 111 181 190 155 81 93 134 129 115 88 92 115 120 128 125 128 130 120 110 99 88 76 74 91 117 144 151 162 171 171 169 168 169 172 168 170 172 169 168 165 163 158 157 151 156 157 156 153 151 150 147 147 141 135 136 132 129 124 113 108 107 100 96 96 90 89 79 85 81 74 63 48 32 22 24 13 17 16 13 18 11 15 12 13 19 
201 177 115 151 143 166 213 163 107 75 103 113 111 92 67 84 103 115 127 133 142 148 146 137 121 102 95 82 83 106 134 151 157 171 168 168 168 163 169 164 170 168 166 159 158 157 151 149 148 146 150 151 149 149 148 143 143 139 133 139 129 127 118 113 110 104 103 98 96 90 90 84 81 79 69 62 49 33 22 22 17 18 15 16 17 15 17 13 16 16 
169 120 140 193 172 206 185 113 83 97 100 90 78 68 48 57 73 84 107 121 142 149 157 156 141 120 102 95 85 97 124 146 158 164 164 165 163 159 162 165 164 162 158 151 155 150 144 146 136 139 144 142 143 144 140 137 135 133 129 127 126 126 118 113 112 107 103 98 98 92 93 82 83 77 73 63 52 33 24 20 20 22 18 15 17 16 15 15 12 12 
119 134 193 201 200 193 127 93 121 122 100 79 60 49 47 57 45 56 78 90 121 133 150 158 147 136 112 104 98 96 118 142 155 164 163 166 159 155 162 162 161 156 153 146 147 139 139 134 125 133 133 132 137 136 132 129 126 125 122 120 119 117 114 112 107 107 102 96 97 93 86 79 81 75 70 63 52 41 23 24 19 16 20 13 17 16 17 17 15 16 
134 191 209 177 195 141 93 136 155 147 122 99 84 73 73 77 56 49 62 63 84 107 134 144 144 140 117 110 110 100 118 141 156 163 161 164 157 154 162 161 154 151 148 139 137 132 124 117 114 119 120 118 120 121 118 117 115 114 107 113 110 110 108 107 112 102 98 98 92 93 86 79 77 69 68 64 51 41 30 20 19 18 19 15 13 16 16 16 16 16 
180 215 178 146 170 99 133 178 168 156 146 135 119 104 99 90 68 61 64 70 59 85 113 121 134 129 115 106 111 112 119 144 154 163 162 163 155 154 157 154 154 144 140 134 126 120 112 99 103 104 102 99 97 98 97 99 98 99 92 96 102 96 102 99 103 99 93 95 92 85 86 82 71 75 66 62 54 45 28 16 24 13 16 16 12 17 13 17 20 13 
202 191 118 141 130 121 201 178 162 164 159 159 146 132 115 97 89 67 66 82 64 85 103 107 115 118 111 106 112 118 122 147 159 158 163 158 156 154 153 151 143 139 132 124 114 100 98 78 77 81 76 71 68 68 66 74 73 75 73 78 78 83 88 89 93 91 89 91 88 84 85 78 75 73 62 63 55 44 32 20 18 16 19 11 15 19 13 18 11 13 
179 126 115 181 142 185 206 144 148 165 164 166 148 141 118 111 102 83 85 97 85 112 117 102 100 99 103 100 106 119 122 143 161 163 162 158 158 151 148 148 134 134 121 108 97 83 81 61 60 57 46 44 45 44 44 47 47 49 52 54 63 61 68 70 73 82 76 75 78 81 78 81 74 71 64 55 56 48 28 24 17 18 18 17 17 15 16 11 17 16 
125 118 185 194 176 213 157 105 149 162 166 165 147 139 113 124 114 92 98 105 117 134 130 111 95 95 90 100 99 120 127 143 165 163 168 159 158 153 146 143 127 121 107 93 81 70 59 47 52 42 41 39 38 38 38 35 35 42 37 47 47 47 54 56 59 68 67 62 62 69 73 77 71 64 60 54 55 40 33 26 17 22 13 15 16 15 17 12 16 15 
135 180 212 168 191 175 96 112 155 164 169 164 144 137 118 120 119 100 104 119 135 144 135 121 108 100 95 92 99 117 128 139 163 170 166 162 156 150 143 132 119 111 96 79 75 53 51 44 42 44 39 41 38 41 41 35 41 41 38 51 52 49 55 57 57 57 61 51 54 57 63 67 67 66 59 52 51 42 34 23 20 17 16 16 16 13 15 16 13 17 
190 210 175 127 180 97 105 155 157 166 169 163 146 142 120 107 120 113 122 134 148 148 139 130 119 108 91 88 100 114 128 142 164 169 168 161 158 149 140 125 113 100 86 69 62 51 41 40 44 40 42 44 38 46 38 41 45 44 53 53 61 64 66 75 70 69 67 59 53 47 53 53 59 60 56 49 48 44 33 32 19 17 18 12 15 16 11 16 16 15 
200 178 111 143 150 97 179 162 162 172 165 166 150 144 128 102 111 112 124 137 142 146 136 133 126 113 99 86 106 112 135 153 164 171 169 157 157 149 137 122 110 93 81 64 55 44 37 39 42 41 39 41 41 42 37 40 41 48 55 57 67 75 81 86 86 84 86 73 69 56 51 54 45 54 56 48 46 41 38 32 19 17 19 15 16 15 16 16 16 17 
157 114 119 193 143 168 205 159 170 170 171 171 157 149 132 115 106 106 112 117 121 125 130 132 132 126 112 111 124 114 144 161 165 171 162 157 158 144 128 119 103 82 75 54 48 41 33 41 40 38 45 45 37 40 45 48 53 61 61 70 71 82 90 93 96 97 96 86 81 73 61 55 48 42 48 42 41 44 37 34 26 22 15 22 11 12 16 15 17 12 
108 120 185 193 163 212 186 163 170 169 171 171 164 153 141 127 106 108 99 97 106 104 122 126 134 136 130 137 135 137 154 166 173 175 163 159 157 139 127 112 93 75 67 49 42 39 34 40 39 45 42 41 42 48 61 69 81 73 82 89 82 85 88 96 96 97 93 91 90 79 74 53 51 41 37 44 32 41 35 32 33 17 23 18 13 18 13 12 22 12 
130 175 207 157 187 190 151 171 165 173 170 176 170 159 149 143 122 115 98 106 98 99 112 117 126 129 141 143 150 158 161 171 180 175 168 161 154 133 119 103 85 71 55 47 37 37 38 42 40 49 42 44 51 61 78 97 105 103 103 108 103 93 84 88 92 91 97 90 89 81 77 68 59 45 42 35 35 38 34 33 30 22 18 17 16 15 17 19 15 16 
180 192 164 114 181 128 132 166 159 175 169 175 169 165 158 155 143 125 113 119 106 106 110 112 113 121 133 141 149 155 163 178 183 177 169 159 150 132 113 95 84 61 52 44 38 39 39 46 52 47 53 44 47 57 73 97 107 113 111 129 120 100 86 82 82 86 84 86 82 79 77 74 63 56 51 39 34 34 33 34 30 19 18 18 13 13 19 17 15 18 
184 156 97 143 163 86 150 161 163 172 169 173 171 169 168 163 158 143 137 135 128 124 126 128 126 135 140 142 146 158 168 178 185 175 173 159 147 127 107 88 73 56 49 40 41 41 44 55 55 59 53 51 39 51 49 85 108 89 111 127 120 106 90 82 77 73 75 71 75 75 74 74 66 62 53 49 39 32 31 34 24 20 23 18 22 12 17 16 19 15 
142 111 124 199 133 126 165 158 170 169 172 169 173 171 171 168 166 159 157 153 150 144 142 144 141 146 144 147 150 164 173 181 183 176 171 153 139 119 99 81 64 55 42 44 46 44 55 67 70 63 56 44 38 56 37 96 90 51 96 100 104 99 89 84 74 66 63 60 69 68 71 70 67 66 59 51 47 38 34 32 31 20 23 22 19 22 16 17 17 22 
106 134 195 193 141 178 155 164 170 173 170 171 172 170 172 164 170 172 165 162 159 155 153 151 146 141 146 153 157 166 176 179 179 177 166 150 129 111 88 73 59 49 41 41 45 49 54 81 83 68 56 47 64 68 53 95 91 44 64 60 78 75 74 71 67 59 52 48 54 62 66 62 66 63 59 56 52 45 37 31 39 23 28 24 25 17 12 20 12 18 
146 180 214 154 161 191 144 168 165 170 170 170 172 169 170 165 166 172 165 163 162 150 150 146 142 140 149 157 165 178 184 179 176 176 161 141 122 103 79 68 53 51 47 49 51 55 73 86 89 66 64 67 84 76 67 67 81 61 53 59 68 60 53 52 55 53 51 40 45 47 57 59 61 64 55 59 49 51 38 39 41 28 32 27 23 24 17 19 18 16 
187 194 172 113 185 175 146 166 162 169 168 172 169 170 170 164 166 168 161 156 155 146 142 140 142 143 157 162 170 183 185 181 178 169 150 136 115 93 75 61 55 45 49 46 48 61 70 91 96 78 84 79 102 84 77 71 73 77 59 76 86 66 52 35 42 41 39 42 37 41 48 56 59 59 57 56 56 44 37 42 34 37 34 34 26 24 22 17 23 16 
187 162 113 135 191 140 154 156 161 170 166 169 169 168 169 158 168 161 154 153 146 139 135 141 144 156 161 169 177 185 187 185 179 164 144 125 106 85 68 59 53 52 53 56 55 63 67 90 110 97 98 97 114 100 86 79 74 89 67 91 103 77 60 40 31 30 38 32 35 35 38 49 55 48 57 56 49 49 40 44 38 35 39 27 30 30 24 19 23 18 
141 113 118 191 159 125 157 151 159 165 165 166 170 165 168 161 161 158 154 149 143 144 142 148 162 162 165 173 185 190 185 187 176 161 141 118 95 76 62 59 53 57 57 57 57 60 67 89 112 106 103 118 120 105 98 79 86 88 82 112 110 86 68 51 33 26 31 27 33 32 33 46 49 48 51 55 49 46 46 41 41 35 37 30 35 33 24 26 19 18 
99 130 180 204 126 133 157 147 159 159 164 164 166 165 165 165 162 158 162 156 150 156 155 159 168 163 165 177 191 194 185 186 173 154 129 104 85 69 62 56 59 61 59 57 63 68 68 92 110 104 105 126 117 112 108 97 100 99 110 118 118 91 75 61 38 33 24 24 26 31 28 35 45 45 47 47 48 45 49 41 42 42 39 39 34 33 33 26 24 20 
134 180 202 153 121 158 143 154 154 156 163 165 159 164 164 165 164 164 168 165 168 168 164 165 168 164 168 184 195 192 184 181 165 143 112 90 79 62 62 63 60 67 64 56 69 66 75 98 110 111 99 115 110 106 112 106 112 119 128 120 119 93 75 66 44 38 24 27 27 25 30 35 38 42 48 45 45 51 48 40 44 47 41 40 41 37 37 31 28 23 
176 185 162 102 153 170 139 153 149 157 159 166 155 165 169 163 169 169 173 169 175 170 168 170 165 165 175 190 197 191 184 173 153 130 100 79 69 68 62 67 64 66 70 61 70 75 75 100 112 110 104 111 103 105 106 105 108 125 125 110 108 93 78 66 46 38 23 27 26 30 26 32 40 37 46 45 46 48 47 48 47 52 45 41 44 34 39 32 32 25 
168 144 104 133 193 158 146 151 151 156 158 162 161 165 166 163 165 171 170 177 172 170 175 168 170 170 183 194 194 186 177 155 136 114 88 74 63 68 71 68 69 67 70 66 71 77 83 104 113 111 111 111 107 105 99 97 91 104 103 91 95 85 71 63 44 39 31 27 28 26 33 38 42 41 47 48 48 52 53 54 56 55 46 45 47 39 42 34 34 24 
120 104 126 184 188 149 151 149 151 154 156 157 163 162 165 164 162 169 169 172 169 172 172 168 173 172 188 192 190 183 169 140 122 100 82 76 63 73 73 69 73 68 71 71 71 81 82 100 111 107 119 117 119 106 100 98 79 82 79 76 71 75 62 54 48 39 34 25 27 30 33 45 52 46 53 53 55 59 60 61 61 59 54 49 47 40 41 38 37 27 
88 133 180 194 142 134 156 146 153 151 157 155 163 161 164 165 164 170 171 171 169 172 173 168 175 183 187 188 185 178 155 132 112 95 78 73 73 76 76 74 73 71 70 73 78 81 86 96 106 107 120 126 126 113 110 100 78 85 74 66 61 62 59 48 49 40 39 35 30 35 42 49 56 57 61 64 68 69 64 71 63 57 60 48 49 44 39 39 40 31 
122 176 193 154 104 143 149 149 151 151 155 156 164 158 165 168 170 175 173 173 173 176 172 166 177 180 188 184 180 163 146 124 105 89 76 75 76 74 75 78 73 74 74 77 81 81 86 91 102 107 115 128 130 125 121 104 91 92 76 75 69 62 61 53 53 47 41 44 35 35 41 54 62 67 67 74 79 75 77 74 64 67 56 52 51 44 42 40 34 32 
168 175 151 99 118 163 140 150 149 148 154 157 159 162 163 170 176 176 176 172 175 170 171 170 178 178 185 176 170 147 128 115 93 86 75 75 81 77 79 81 75 74 73 79 83 84 88 89 99 105 114 124 132 133 128 117 110 103 86 82 77 69 67 61 59 55 52 48 54 41 42 54 64 71 81 84 86 79 82 78 71 68 55 54 47 46 45 37 39 33 
164 127 102 110 171 170 141 150 147 149 151 158 158 159 165 169 176 169 169 169 173 168 171 172 175 181 179 164 158 136 118 108 91 82 78 76 76 79 78 78 75 73 73 79 82 83 92 89 100 110 110 125 130 134 136 127 128 114 102 102 86 86 71 74 69 67 60 62 62 53 51 49 64 76 85 91 91 88 84 82 76 68 57 56 44 49 41 41 37 41 
121 89 122 169 191 156 142 147 144 150 150 157 157 159 165 169 175 169 171 172 170 170 171 175 178 183 173 157 148 133 112 99 90 83 77 77 77 79 78 77 74 70 70 82 84 86 92 95 99 108 111 119 132 135 134 133 133 125 121 117 103 95 86 86 79 75 64 70 67 64 57 55 69 77 88 90 93 86 83 81 73 66 60 55 48 42 42 39 37 51 
88 120 169 194 159 130 147 142 144 148 148 156 154 158 164 170 170 170 173 170 169 166 176 175 179 180 168 153 146 128 108 99 90 81 77 77 81 78 79 74 75 69 74 79 84 88 90 97 99 106 112 119 128 134 127 133 135 125 133 122 117 107 100 98 88 78 71 75 74 71 70 66 75 84 85 91 92 85 81 78 73 64 61 47 46 45 44 37 44 44 
119 168 178 163 106 122 149 135 148 148 148 154 157 161 164 169 168 171 170 168 169 169 179 176 179 175 166 151 140 119 106 95 86 82 78 76 78 79 81 71 74 71 71 84 85 89 92 98 103 105 112 120 130 129 129 133 133 128 132 127 122 114 113 100 97 89 79 86 79 82 82 79 84 88 89 86 91 85 78 75 68 63 54 47 51 38 46 33 42 37 
162 165 150 108 108 149 144 139 146 148 148 157 158 159 166 169 166 169 166 168 173 177 179 176 172 171 162 147 136 115 108 95 88 81 77 79 74 76 75 73 71 73 74 81 86 91 95 103 102 104 114 115 130 130 128 132 132 130 129 127 122 121 115 105 107 97 92 91 90 92 91 85 93 90 91 85 86 82 75 71 68 61 53 51 45 44 41 35 39 32 
164 136 103 98 164 170 144 144 147 149 151 155 157 163 161 170 168 162 166 164 173 179 178 177 175 166 156 142 128 113 104 96 88 81 73 77 70 73 71 71 69 71 82 82 88 96 99 103 106 110 117 118 127 136 132 132 136 127 129 124 122 121 115 111 108 99 105 99 97 99 95 96 95 91 91 84 84 78 73 71 64 55 56 45 42 42 40 33 40 38 
139 96 103 148 195 169 144 149 146 150 150 154 158 164 164 165 164 163 165 169 176 181 176 179 172 158 149 133 118 106 104 95 85 76 71 68 64 69 64 71 68 75 79 84 93 100 98 107 106 110 117 120 127 139 133 135 136 130 127 126 121 122 119 112 108 105 108 104 103 103 98 100 95 91 92 85 78 75 73 70 63 53 53 48 39 44 35 40 39 51 
92 105 158 177 179 149 149 150 148 149 151 153 159 162 163 164 159 163 168 172 180 181 176 180 165 148 136 121 111 103 96 89 77 67 63 64 57 59 64 64 69 74 84 85 97 104 102 105 111 112 119 124 128 140 136 134 140 133 130 124 126 121 119 114 112 112 108 106 103 105 97 100 97 88 89 83 78 71 68 62 54 52 51 40 41 40 35 46 37 97 
96 155 187 162 121 130 149 147 149 151 153 150 157 161 158 164 157 161 172 172 186 185 183 177 161 146 124 110 104 93 93 82 71 62 55 59 51 54 52 60 69 71 84 91 97 108 104 110 113 113 121 127 133 135 137 139 137 132 130 128 127 125 122 117 112 115 106 106 102 104 98 99 96 88 83 83 73 73 64 59 53 48 48 37 40 37 34 44 40 114 
144 172 168 108 90 137 148 148 154 150 153 151 155 156 158 162 157 164 172 181 194 190 184 171 154 130 115 100 98 88 88 78 64 60 54 53 47 51 49 55 64 76 84 90 98 110 108 113 117 117 124 127 136 139 139 136 136 132 133 132 127 126 126 119 111 117 107 108 102 98 98 91 95 81 79 76 69 70 57 54 51 48 40 40 37 31 37 31 46 104 
157 143 113 91 142 164 147 149 155 153 146 157 153 155 158 161 158 164 171 192 197 188 186 164 140 120 105 96 91 82 83 76 64 59 57 55 52 48 46 52 62 74 88 93 103 108 117 113 117 122 124 133 136 142 137 137 134 132 134 130 125 125 126 117 114 108 108 104 98 98 92 88 82 81 75 69 67 60 54 51 51 42 40 39 38 30 34 23 41 77 
133 90 95 143 178 170 148 153 155 151 154 153 156 158 156 159 159 162 171 187 188 179 175 149 127 108 99 90 84 78 78 73 71 59 64 66 52 49 41 52 54 71 89 93 105 111 117 115 120 126 124 133 141 139 137 139 135 132 128 128 124 122 125 114 110 107 103 102 91 89 85 81 77 74 68 64 63 57 52 51 45 44 40 37 35 31 31 27 68 105 
88 92 144 171 164 148 154 151 156 150 155 155 157 161 157 159 159 161 165 171 163 162 155 133 114 102 91 82 83 78 73 74 71 63 70 67 62 51 44 48 54 71 89 97 106 114 114 115 121 122 129 136 139 136 133 139 134 130 127 125 124 121 120 114 110 102 102 92 86 86 77 77 70 68 67 61 60 54 47 46 44 40 39 32 30 37 31 55 120 142 
91 141 168 156 111 121 155 148 153 155 156 156 159 161 158 159 157 162 158 148 139 141 134 113 100 91 77 76 76 70 70 73 67 63 68 70 62 46 41 41 56 68 92 100 108 113 113 121 120 125 133 136 136 130 129 135 130 132 126 122 122 117 117 112 104 99 97 91 82 79 77 73 67 64 61 54 54 51 42 45 41 37 37 34 28 45 28 96 147 135 
129 157 150 113 86 130 153 148 154 154 157 159 163 159 155 163 161 165 151 130 121 119 112 95 86 77 73 66 67 62 62 61 62 59 63 69 61 46 37 48 49 70 89 98 111 110 115 122 119 124 128 136 136 125 132 129 130 124 124 121 118 120 113 106 102 95 93 83 79 77 69 68 60 60 60 52 49 46 39 38 40 32 37 33 27 38 34 112 134 102 
144 134 106 91 142 165 151 155 151 159 157 163 162 159 163 171 170 170 147 119 100 99 92 77 73 59 59 53 54 56 49 52 49 55 61 59 55 41 37 41 59 78 90 103 111 114 120 122 121 121 128 136 129 128 125 127 125 118 120 115 114 111 110 100 97 90 85 78 74 68 67 64 59 54 55 46 46 40 41 38 37 33 34 27 28 26 39 96 79 70 
121 90 91 139 183 170 151 158 151 161 159 159 164 164 166 172 172 171 157 128 96 89 77 68 53 51 41 47 46 40 39 44 45 49 56 52 52 39 38 45 61 84 91 106 111 117 119 122 122 120 125 129 134 125 125 124 120 119 112 118 108 105 102 97 88 89 77 74 70 69 64 60 59 49 51 48 39 39 41 33 37 33 33 26 26 17 34 67 82 103 
73 98 136 157 170 154 161 154 155 163 158 162 164 166 166 172 177 170 168 149 114 97 76 62 47 39 39 34 37 32 31 38 32 51 47 47 42 39 34 48 76 88 100 108 115 115 119 120 119 121 118 127 132 125 120 117 114 118 114 111 108 99 98 92 83 82 74 70 67 63 61 55 54 47 46 45 40 42 34 32 35 30 31 27 24 26 74 108 121 118 
71 135 139 150 157 151 162 153 159 159 162 163 165 166 170 171 172 170 165 166 136 115 88 62 52 41 37 39 33 32 30 35 32 44 45 41 39 37 38 55 91 96 108 114 112 119 117 119 117 118 114 121 127 118 117 114 111 113 108 107 105 93 89 86 81 77 71 64 63 61 59 52 48 49 45 44 37 33 37 37 28 32 26 28 27 57 121 135 132 98 
119 137 129 173 165 156 161 157 158 159 164 166 165 166 165 170 169 163 166 169 150 133 105 77 59 54 45 45 39 28 40 31 33 40 37 35 33 35 40 70 103 106 115 119 114 120 115 114 114 113 108 114 122 113 114 115 108 112 105 104 99 89 85 78 77 74 73 66 62 57 60 49 47 44 39 41 38 38 34 27 33 32 26 32 28 95 140 125 107 60 
162 96 148 179 154 169 161 159 162 159 163 168 166 164 168 168 163 163 168 162 155 142 120 99 70 62 48 45 41 38 38 37 33 32 32 33 34 40 46 88 111 111 122 119 115 118 119 111 113 108 107 108 113 113 112 112 106 106 105 93 96 89 78 75 76 69 70 62 60 55 54 48 46 44 41 37 35 33 33 31 33 24 27 27 30 102 111 82 69 48 
163 60 154 153 172 184 161 162 161 162 163 168 165 159 169 163 162 163 163 157 150 147 125 105 85 69 62 45 45 37 34 33 26 33 28 30 38 48 60 98 112 111 121 119 119 114 112 113 111 107 104 107 110 110 112 107 105 102 98 91 88 88 76 74 69 63 66 63 54 56 46 51 39 40 40 37 35 33 32 32 31 23 24 19 34 84 70 70 66 51 
126 69 136 157 207 176 163 163 165 166 164 166 161 162 159 158 157 161 161 157 156 150 130 110 91 85 67 55 45 38 38 34 32 30 34 38 51 63 82 105 112 113 118 121 117 115 108 111 110 102 105 104 105 105 108 103 102 100 96 84 86 84 71 75 66 63 62 56 53 52 46 45 45 39 38 37 35 34 33 32 28 24 20 20 38 74 86 95 70 44 
91 71 128 192 185 158 173 157 166 168 166 163 158 154 157 155 157 161 157 158 162 150 132 106 102 93 78 67 47 39 41 34 38 42 37 53 74 79 96 107 110 114 115 119 115 112 107 108 108 103 103 104 98 100 102 97 98 93 89 83 84 82 71 68 66 62 56 54 53 47 46 42 42 38 35 38 32 31 37 28 26 25 17 39 81 113 121 103 59 31 
68 71 140 181 153 191 181 156 172 169 164 163 156 150 150 154 154 162 159 162 168 158 140 117 108 111 99 81 64 52 48 45 48 55 60 77 89 98 108 107 106 113 117 115 113 111 110 106 106 104 104 100 98 96 92 97 93 92 85 81 79 77 73 66 63 61 57 51 55 48 44 41 39 40 34 38 32 33 32 30 30 26 27 78 130 137 126 83 45 30 
57 104 147 146 185 208 166 164 171 171 161 158 157 147 141 151 157 161 158 163 166 164 155 132 125 129 115 107 84 70 68 61 66 71 78 88 102 104 106 108 108 115 110 111 114 110 107 107 105 105 103 96 98 96 93 90 91 89 82 78 76 74 71 64 61 57 60 51 53 45 44 42 40 39 34 37 33 33 34 25 25 28 30 105 130 120 92 55 40 23 
62 155 120 125 217 164 163 168 168 171 161 158 150 137 126 142 149 144 147 147 157 164 170 155 147 150 147 132 112 91 83 82 78 83 88 95 103 107 106 111 113 111 112 113 114 108 107 107 105 107 103 97 98 92 92 88 88 85 79 79 76 71 70 66 56 60 54 52 51 47 42 39 42 39 37 35 35 37 32 32 25 20 34 96 96 77 57 51 34 25 
88 186 70 78 188 143 197 163 165 168 159 153 137 114 110 120 133 128 122 129 136 156 175 166 163 171 163 150 121 102 99 91 89 88 95 93 102 105 106 112 111 108 112 113 115 108 110 110 104 105 104 98 98 93 92 89 84 81 78 75 76 68 69 67 57 60 53 49 48 44 45 44 41 38 38 35 35 38 34 26 27 17 39 71 74 70 54 46 32 30 
115 179 60 66 155 178 209 154 170 165 157 146 125 100 90 97 110 103 99 104 106 132 156 162 164 168 162 153 124 103 103 97 93 88 95 93 93 100 103 107 107 106 108 114 111 107 107 102 105 103 105 100 99 100 90 88 83 77 77 75 70 70 68 60 62 57 55 47 49 45 39 45 38 41 37 37 38 37 34 30 23 32 71 99 113 95 52 38 27 26 
129 143 56 66 165 200 179 159 166 162 151 139 117 99 96 104 102 95 88 81 86 103 127 143 149 149 147 135 106 96 97 96 93 91 97 92 96 99 102 106 105 108 110 111 107 110 102 99 103 102 100 97 99 102 92 91 84 77 74 76 69 73 66 60 62 56 53 49 49 44 46 40 40 38 44 34 39 37 30 35 20 75 119 132 130 85 42 31 25 25 
139 108 56 92 185 177 154 184 158 163 149 139 119 113 126 125 117 110 90 73 71 81 96 108 115 115 106 111 89 78 86 90 93 89 96 92 92 95 102 103 103 107 108 107 106 106 104 103 99 104 102 98 100 96 95 89 84 79 74 78 68 68 68 61 61 53 54 52 48 47 44 41 41 37 40 39 37 34 31 32 37 107 137 134 112 63 34 26 23 44 
126 81 60 119 197 140 185 194 148 166 141 140 130 132 148 133 133 124 111 86 73 74 78 79 83 78 75 76 68 63 73 77 88 85 92 88 88 96 93 98 100 100 111 104 106 105 104 102 99 98 100 93 99 98 89 89 83 79 75 78 70 69 67 64 56 55 57 48 52 49 40 44 44 37 41 37 38 30 33 26 47 119 119 102 71 42 30 26 31 70 
97 67 68 148 170 129 214 164 155 154 139 144 139 149 155 133 139 141 129 112 95 86 82 70 70 66 57 59 55 52 53 61 67 74 84 84 86 90 90 96 93 95 106 103 107 103 105 100 92 99 93 98 93 95 91 85 83 79 74 76 70 66 68 61 59 55 56 51 49 51 42 48 39 45 39 34 40 28 31 19 45 84 81 69 52 40 25 32 37 71 
85 71 90 162 124 118 193 133 177 143 144 143 142 155 155 139 133 141 137 132 115 105 93 83 77 69 61 60 55 55 47 46 52 59 71 78 77 86 83 90 89 93 100 99 104 104 105 100 93 95 92 92 92 91 91 84 84 79 76 74 74 64 67 62 55 61 51 56 49 47 47 46 41 45 37 39 30 33 27 22 61 81 91 76 48 28 30 28 32 55 
57 102 115 153 90 64 154 163 187 141 149 142 146 149 156 137 133 139 136 155 141 125 119 98 92 82 73 68 60 54 48 39 41 46 51 62 67 77 82 85 85 93 96 96 104 103 103 99 96 91 92 93 93 90 89 91 77 83 76 71 71 67 68 59 63 54 56 53 49 47 47 44 42 48 35 41 37 35 27 66 105 119 106 76 45 20 28 25 31 42 
51 143 141 124 74 84 155 205 171 143 155 135 149 148 155 142 130 130 132 165 157 151 141 129 120 103 86 78 67 59 55 41 45 45 40 49 55 62 71 71 76 88 85 92 100 106 104 99 98 91 91 93 91 90 88 84 83 76 74 74 73 73 62 66 62 54 59 53 53 47 47 48 39 46 41 33 41 33 45 110 134 125 97 55 32 25 27 35 46 46 
68 192 154 77 83 69 169 198 150 166 141 144 143 149 151 148 132 119 126 154 163 164 159 159 157 135 117 107 90 83 70 75 64 57 56 46 51 49 51 53 62 62 78 90 98 105 105 98 95 91 92 92 90 86 89 86 83 81 76 71 73 69 66 66 63 60 57 53 52 48 46 47 44 46 44 33 42 32 53 119 120 99 68 41 23 30 40 42 45 48 
92 227 146 55 89 76 190 170 169 183 136 153 140 150 150 153 134 119 122 136 154 154 161 166 171 162 139 135 117 106 100 112 91 77 81 56 64 54 59 46 51 56 66 83 97 105 102 102 93 92 92 90 86 86 84 91 81 79 77 71 75 68 68 67 64 60 53 55 53 51 45 47 46 45 40 41 30 24 41 97 85 70 42 35 30 28 39 41 44 46 
134 246 122 55 106 104 179 148 201 178 137 154 137 151 146 151 141 117 115 124 132 135 143 148 166 166 153 157 133 130 129 143 107 85 97 74 70 69 68 60 59 62 66 73 89 99 105 104 95 92 88 89 85 85 89 83 83 81 78 73 73 68 69 68 60 60 53 55 53 49 46 47 42 45 38 41 33 22 52 73 66 53 41 22 30 30 35 38 47 45 
181 241 91 69 135 113 143 150 205 153 154 148 142 147 146 150 143 122 113 112 113 117 120 122 140 155 154 157 141 140 139 140 108 91 97 77 77 82 82 70 73 74 75 76 82 92 105 105 95 95 92 88 88 90 88 85 85 79 82 75 71 70 66 68 62 55 55 52 52 49 48 46 46 41 40 39 32 59 91 91 74 53 26 27 23 28 42 40 44 41 
202 221 68 111 177 108 97 146 163 163 178 135 151 143 148 149 144 134 113 104 98 98 97 98 106 121 134 137 126 125 120 110 91 78 84 73 79 79 83 77 78 88 84 93 86 89 102 105 97 93 93 92 89 88 86 82 83 82 78 76 70 74 63 64 60 57 54 51 49 47 47 39 48 38 42 39 45 108 125 104 67 44 28 24 35 40 47 45 41 37 
219 185 60 159 198 91 74 127 140 205 166 133 158 144 151 144 149 136 118 110 95 90 89 86 91 100 110 112 103 100 93 84 71 73 71 71 78 78 76 81 83 86 93 93 98 90 96 107 96 96 95 93 91 88 85 85 84 82 79 78 74 70 67 61 61 57 53 52 47 45 47 45 41 40 44 28 59 118 113 85 51 33 32 38 39 42 45 40 31 31 
227 139 77 199 204 68 52 111 121 213 126 130 158 147 151 151 150 141 128 118 102 88 83 82 83 82 84 88 82 76 74 75 67 66 69 73 76 74 82 78 86 86 95 98 99 99 95 106 104 96 96 90 89 86 85 84 86 81 77 79 69 69 67 61 56 56 54 52 48 42 46 45 45 34 37 26 51 92 74 52 28 30 34 32 37 42 35 33 23 27 
226 106 105 231 183 37 108 85 90 177 71 128 153 155 154 154 156 146 140 132 111 102 88 83 78 76 76 69 74 64 67 67 64 64 67 74 71 77 79 83 89 85 91 91 98 99 95 106 100 98 96 92 90 83 86 83 85 76 77 73 67 70 62 59 59 52 53 48 48 45 45 48 39 39 30 37 63 60 51 37 27 25 28 37 40 35 33 24 22 19 
213 103 126 249 147 47 142 114 83 133 100 108 143 161 153 158 156 158 149 149 137 127 119 104 97 81 74 69 67 67 63 62 64 68 66 70 74 77 79 79 81 82 86 88 90 95 92 98 100 97 93 91 86 85 84 82 81 75 73 73 66 66 59 62 55 52 51 45 48 42 47 42 40 34 38 89 93 67 45 31 24 26 37 40 37 31 26 31 23 19 
186 105 154 248 111 67 181 134 66 121 156 96 132 165 153 161 161 158 157 163 156 155 146 139 126 107 96 79 76 69 70 69 71 73 73 74 75 78 77 77 76 75 82 81 84 88 88 92 95 95 93 88 86 82 79 78 78 73 71 69 68 64 59 61 53 52 52 49 47 46 47 40 42 32 57 119 95 63 39 31 32 37 41 38 33 17 26 30 17 17 
151 127 173 231 79 107 213 143 49 120 208 78 98 170 149 166 162 163 165 171 172 176 169 165 153 144 127 119 104 93 90 82 86 81 83 78 81 79 81 76 68 77 76 78 79 81 81 89 91 86 86 85 81 82 75 74 76 67 68 68 60 64 57 55 55 49 53 46 49 44 42 39 34 25 63 114 73 44 35 33 40 40 38 34 26 22 20 24 17 19 
180 153 188 206 63 161 223 118 54 136 213 61 90 169 149 169 163 166 172 179 179 184 183 179 172 165 157 154 136 126 117 110 105 95 91 86 90 85 84 74 74 74 77 78 75 76 78 81 85 84 84 82 78 73 71 69 75 60 61 66 60 59 54 54 51 55 47 48 47 44 40 31 24 25 56 74 42 30 27 30 35 40 27 28 27 16 20 19 15 19 
