P2
90 90
255
211 212 213 213 212 212 211 211 211 211 210 210 210 210 211 211 211 210 210 210 210 211 212 212 211 210 210 212 212 212 212 211 211 210 212 212 212 211 211 212 212 212 212 212 211 210 210 210 212 212 212 211 212 212 212 212 212 211 211 210 211 211 210 209 210 211 212 212 211 212 212 212 212 212 211 211 212 212 212 212 212 212 210 210 211 211 212 212 212 211
211 211 211 211 212 212 211 211 211 211 211 211 211 212 212 212 212 211 211 211 211 211 211 211 211 211 211 212 212 212 211 211 211 211 212 212 212 211 211 211 212 212 212 212 212 211 211 211 212 212 212 211 211 212 212 212 212 212 211 211 211 211 211 211 211 212 212 211 211 212 212 212 212 212 211 211 211 212 212 212 212 212 212 211 211 211 211 211 211 210
212 211 211 211 211 210 210 211 211 211 211 211 211 212 212 211 211 211 211 211 211 211 211 211 211 211 211 211 211 211 211 211 211 211 211 211 211 211 211 211 212 212 212 212 212 211 211 211 212 212 212 211 212 212 212 211 211 211 211 211 211 211 211 212 212 212 212 211 211 211 211 212 212 212 211 211 211 211 211 212 212 212 211 211 210 209 211 211 210 210
212 211 211 211 211 211 211 211 211 211 211 211 211 212 212 211 211 211 211 211 211 211 211 211 211 211 211 211 211 211 211 211 211 211 212 212 211 211 211 212 212 212 212 212 212 212 211 211 211 212 212 212 212 212 212 211 211 211 211 211 212 212 212 212 212 212 212 212 211 211 211 211 212 212 212 211 211 211 211 212 212 212 211 211 211 211 211 211 211 210
212 211 211 211 211 211 211 211 211 211 211 212 212 212 212 212 212 211 211 211 212 212 211 211 212 212 211 211 211 211 212 212 212 212 212 212 212 212 212 213 213 213 213 213 212 212 212 212 212 213 213 212 212 212 212 212 212 212 212 212 212 212 212 212 212 212 212 212 212 211 211 211 212 212 212 212 212 212 212 212 212 211 211 211 211 211 211 211 211 210
212 211 211 211 211 211 211 211 212 212 212 212 212 212 212 212 212 212 212 212 212 212 212 212 212 212 213 212 212 212 212 212 212 213 213 213 213 213 213 213 213 213 213 213 213 213 213 213 213 214 214 213 213 212 212 212 213 213 213 212 213 213 213 213 213 212 212 213 213 212 212 212 212 212 212 212 212 212 212 212 211 211 210 211 211 212 211 211 211 211
212 212 211 211 211 211 212 212 212 212 212 212 212 213 212 212 212 212 212 212 212 213 213 212 213 213 214 213 213 213 213 212 213 213 213 213 213 214 214 214 214 214 214 214 214 214 215 215 215 215 215 213 213 213 213 213 213 213 213 213 214 214 214 213 213 213 213 213 213 213 213 213 212 212 212 212 212 213 213 212 212 212 210 210 211 211 211 211 212 211
213 212 212 211 211 211 212 212 212 212 212 212 213 213 213 212 212 212 213 213 213 213 213 213 214 215 215 214 213 213 213 213 213 213 213 213 214 215 215 216 216 216 216 216 216 216 216 216 216 216 216 215 213 213 213 213 213 213 213 214 214 214 214 214 214 213 213 213 213 213 213 213 212 212 212 213 213 213 213 213 212 212 211 211 211 211 211 212 212 211
212 212 211 211 211 212 212 212 212 213 219 219 221 218 214 213 213 213 214 215 215 216 217 222 223 223 223 221 219 217 217 216 215 215 216 217 219 221 223 224 223 222 222 222 222 222 222 223 221 220 218 216 214 213 213 214 214 215 216 216 216 217 220 222 222 221 220 219 215 214 214 213 213 213 213 214 217 220 220 217 213 212 212 211 211 211 211 211 211 209
212 212 211 211 212 212 212 213 214 206 120 107 105 178 224 215 214 214 215 217 218 222 189 110 112 122 138 159 177 195 198 201 210 211 201 186 165 144 124 108 102 101 100 100 100 99 104 110 154 181 215 219 218 216 216 211 208 197 194 186 180 166 145 123 115 111 106 143 222 217 216 215 214 213 212 206 166 111 105 171 222 213 212 211 211 211 211 211 211 210
212 212 211 211 212 212 213 214 217 198 46 32 30 167 233 216 215 215 216 217 217 220 169 41 50 70 87 117 147 178 182 187 204 204 186 160 123 85 56 39 35 35 35 34 34 35 45 53 116 148 210 218 220 219 220 209 203 185 178 164 151 125 98 70 58 51 41 101 218 215 218 216 215 213 211 201 128 27 30 152 232 215 212 211 211 211 211 211 211 209
213 212 211 211 212 212 212 214 217 195 40 29 28 171 234 216 216 217 218 223 192 75 71 65 74 104 124 158 176 193 207 215 217 217 215 182 132 100 70 60 55 46 43 39 39 40 41 43 52 58 90 117 200 213 223 219 217 210 206 180 172 159 132 110 85 72 50 57 70 149 226 219 217 215 212 213 136 23 27 154 232 215 211 211 211 211 211 211 211 209
213 212 211 211 211 212 212 214 217 201 100 91 88 178 227 217 217 218 217 212 181 49 55 72 81 116 137 172 187 200 214 221 220 217 210 182 135 107 78 73 70 56 51 42 42 40 40 41 40 42 63 90 178 196 216 219 222 218 214 189 183 170 147 127 95 79 52 47 42 136 216 217 219 216 213 216 165 84 91 170 224 213 211 211 211 211 211 211 211 210
213 212 211 211 211 212 212 213 214 215 221 219 219 217 217 217 218 221 199 78 70 56 68 96 107 152 168 192 207 221 221 222 223 198 96 88 71 89 102 118 124 118 111 90 83 70 60 56 48 44 38 41 48 76 122 182 229 222 220 218 210 190 174 158 118 100 61 53 49 69 82 182 225 217 215 214 216 219 220 218 213 212 211 211 212 211 211 211 211 211
212 212 211 211 211 211 212 212 213 214 214 214 214 216 217 218 219 221 200 63 55 65 79 112 120 164 180 204 213 222 215 210 183 163 92 89 90 111 128 143 149 148 140 122 114 103 95 91 78 71 54 51 45 62 92 154 203 216 221 219 213 200 183 166 128 110 70 60 55 59 60 176 225 218 217 216 215 213 213 213 212 212 211 211 211 211 211 211 211 211
212 212 211 211 211 212 212 212 213 213 213 214 215 216 217 218 219 227 203 54 50 81 94 149 156 179 196 223 223 225 203 182 58 52 104 123 161 176 190 195 199 199 197 194 193 192 189 185 165 152 112 99 65 55 35 82 116 198 228 220 219 220 202 181 157 141 96 80 62 52 44 178 231 219 217 216 215 213 213 213 212 212 211 211 211 211 211 212 212 211
212 212 212 211 211 212 212 212 212 213 213 214 216 216 217 219 216 169 143 54 58 96 110 160 167 196 206 222 213 208 153 123 78 83 131 149 180 189 200 203 207 208 208 206 205 204 200 198 187 178 151 142 111 93 65 74 78 144 174 217 220 220 208 195 165 149 110 94 70 57 46 136 174 212 219 217 214 213 213 213 213 212 212 211 212 212 212 212 212 211
213 212 212 212 211 212 212 212 213 213 213 215 216 217 218 224 215 70 47 55 68 121 134 173 183 219 221 225 200 183 79 41 112 132 177 186 206 210 214 214 216 218 218 218 217 216 214 214 214 213 204 195 174 145 105 65 34 70 100 220 228 221 218 216 182 162 140 120 88 67 50 58 75 202 224 219 216 213 213 213 213 213 212 212 212 212 212 211 211 211
212 211 211 211 211 212 213 213 213 213 213 215 217 218 219 190 177 72 58 76 88 134 147 190 197 219 214 210 154 112 100 94 148 163 191 199 211 214 216 217 217 218 218 218 217 216 216 216 216 215 209 204 193 174 147 112 86 79 86 147 173 222 219 217 196 183 153 135 107 84 61 62 70 188 214 219 217 213 213 213 213 212 212 212 211 211 211 211 211 211
212 211 211 211 212 212 212 213 213 213 213 215 217 218 219 153 125 65 62 94 105 147 159 201 207 220 208 195 114 49 115 138 175 187 203 208 215 217 218 218 218 217 218 218 218 218 218 218 218 218 215 213 209 199 183 153 131 80 73 88 126 223 220 220 209 201 168 152 130 101 71 55 59 166 195 218 218 215 213 213 213 212 212 212 211 211 211 211 211 211
212 212 211 212 212 212 212 212 213 213 214 216 217 219 217 103 72 62 68 111 127 167 178 216 217 225 167 76 89 98 150 172 193 198 207 211 217 217 218 217 217 217 217 217 217 217 217 217 218 218 217 215 211 205 198 179 165 116 99 59 84 139 178 225 216 210 185 170 145 117 90 62 54 88 110 210 219 216 214 214 214 213 212 212 211 211 212 212 212 211
212 212 211 212 212 212 212 212 213 214 215 216 216 218 215 73 43 64 72 127 143 183 193 221 217 213 154 44 87 120 165 186 201 204 210 213 218 218 218 217 217 217 217 217 217 217 217 218 218 218 218 217 212 208 203 191 181 133 113 56 73 110 161 217 218 217 196 180 158 131 105 66 51 48 69 208 220 215 214 214 214 213 212 212 211 211 212 212 212 212
212 212 212 211 212 212 212 212 214 214 216 216 216 218 215 76 47 81 89 135 153 200 206 226 194 105 99 76 120 163 183 194 205 207 212 215 218 218 218 217 217 217 217 218 217 217 217 218 218 218 218 217 213 211 207 199 193 167 152 97 84 49 104 159 205 222 213 199 170 142 110 79 70 55 77 214 221 216 214 214 214 213 212 212 212 212 211 212 212 211
213 213 212 212 212 212 212 213 214 215 216 216 216 218 215 78 49 88 97 145 162 206 206 209 183 84 87 94 137 176 189 197 207 209 214 216 219 218 217 217 217 217 217 218 218 217 217 218 218 218 218 217 214 212 209 202 197 178 165 118 100 59 94 121 190 217 215 204 177 151 120 88 76 55 77 216 222 216 214 214 214 212 212 212 212 212 212 211 211 211
213 213 212 212 212 212 212 213 214 214 216 216 217 219 216 82 52 92 102 151 168 218 210 182 155 42 73 127 159 191 196 201 209 211 214 216 219 218 217 217 217 217 217 218 218 218 218 218 218 218 218 217 215 213 211 206 202 192 183 151 130 88 66 49 165 211 217 209 186 158 128 93 76 55 75 214 222 216 214 213 213 212 212 212 212 212 212 212 212 211
212 212 212 212 212 212 212 212 214 214 216 216 217 211 201 84 58 101 112 167 182 220 201 144 132 64 93 145 168 194 200 204 210 212 215 217 219 218 217 217 217 217 217 218 218 217 217 218 218 219 219 219 217 214 212 208 204 195 187 164 144 103 78 57 140 169 214 212 193 165 138 99 80 56 72 209 221 217 214 213 213 213 212 212 212 212 211 212 212 211
212 211 211 212 212 212 212 212 214 214 216 216 218 196 174 84 63 111 123 180 194 222 195 107 105 87 112 161 178 198 203 206 210 212 217 217 219 217 217 217 217 218 218 218 218 217 217 217 218 219 219 219 218 216 213 209 206 198 193 180 160 122 91 61 95 113 211 218 206 178 148 105 84 57 72 209 221 218 216 214 214 213 212 212 212 212 211 211 211 211
212 211 211 211 212 212 212 213 214 214 215 217 222 130 76 70 69 126 141 195 202 200 171 64 73 112 135 173 187 203 205 208 212 214 218 218 219 217 217 217 218 218 218 218 218 217 217 217 218 219 219 218 218 217 215 211 208 202 199 189 172 143 116 91 70 77 186 201 212 190 165 118 97 61 64 122 151 220 216 214 214 213 212 212 212 212 212 211 211 211
212 211 211 211 212 212 212 213 214 215 216 214 218 112 47 66 73 140 158 205 208 186 160 47 62 129 147 181 194 206 208 209 213 214 218 218 219 218 217 217 217 217 218 218 218 217 217 217 218 218 218 218 217 217 217 213 209 205 203 195 181 154 129 105 62 67 177 192 216 197 177 130 106 64 61 89 127 220 216 214 213 213 212 212 212 212 212 212 211 210
212 212 211 211 212 212 212 213 214 216 219 177 141 88 48 85 97 158 175 211 196 117 108 51 66 149 164 187 198 208 210 212 215 215 219 218 218 217 217 217 217 217 218 218 217 217 217 217 218 217 218 218 218 218 218 215 212 208 206 200 190 169 146 127 72 59 96 126 214 199 182 141 118 70 61 57 106 225 218 214 213 212 212 212 212 212 212 212 211 211
213 212 211 211 211 211 212 213 214 216 219 171 125 82 49 94 105 163 178 202 186 94 88 64 76 157 172 191 201 210 211 212 215 216 218 218 217 218 217 217 217 217 218 218 217 217 217 218 218 218 219 218 218 218 219 216 214 209 208 203 195 178 156 139 83 63 75 110 205 195 186 145 122 71 60 53 106 222 215 216 214 212 212 212 212 212 211 211 211 211
213 212 211 211 211 211 212 212 214 216 223 143 68 65 58 114 131 175 180 158 139 47 54 92 99 170 182 196 206 213 213 213 217 218 219 219 219 218 217 217 217 217 218 218 218 217 218 218 218 219 219 219 219 219 219 218 215 212 211 204 199 189 173 160 104 77 46 71 145 167 193 158 139 95 79 59 78 128 165 220 215 213 212 212 212 212 211 211 211 211
212 211 211 211 212 212 212 213 214 216 224 138 62 65 61 119 138 179 180 138 121 47 57 104 109 174 186 202 210 216 217 218 220 220 220 220 219 219 217 218 218 218 218 218 217 217 218 218 219 219 219 219 219 219 220 220 219 217 216 210 205 195 179 169 114 84 46 68 127 154 194 164 146 101 84 60 75 109 151 220 216 214 212 212 211 211 211 211 211 211
212 211 211 211 212 212 212 213 214 216 224 133 55 79 90 135 150 182 175 81 68 48 60 110 118 177 188 204 211 219 222 223 223 222 221 220 220 219 217 218 218 218 218 218 217 217 218 218 218 219 219 219 219 219 220 221 221 222 221 217 211 201 187 175 120 89 51 49 48 114 196 169 154 114 98 63 71 87 136 221 216 214 212 212 211 211 211 211 211 211
212 212 211 211 212 212 212 213 214 216 224 133 55 84 97 141 156 175 169 73 62 65 75 121 131 184 142 68 78 83 84 86 92 102 125 169 229 225 225 221 219 219 218 218 218 218 218 218 219 220 225 226 229 189 135 117 100 87 83 80 80 76 125 182 124 95 60 53 43 110 187 167 158 121 104 65 73 84 132 221 216 214 213 212 211 211 211 211 211 210
212 212 211 211 212 212 212 213 214 216 223 133 55 94 114 150 161 155 144 54 50 73 84 124 121 145 102 54 57 59 51 53 50 62 84 119 167 168 170 207 221 219 218 217 217 218 218 219 221 216 169 167 173 143 93 77 59 50 50 62 62 59 89 142 116 96 67 59 44 93 143 157 166 128 112 73 74 78 128 221 216 214 213 212 212 212 211 211 211 210
212 212 211 211 212 212 212 213 214 216 223 134 57 99 121 152 159 141 130 54 53 88 92 101 72 33 82 192 189 195 124 111 48 38 39 39 38 50 62 185 226 220 219 218 218 218 218 219 225 215 70 46 37 39 40 40 39 73 99 188 192 196 125 29 63 83 83 72 42 87 121 151 168 132 117 76 75 75 124 221 216 214 212 212 212 212 212 211 211 210
212 212 212 211 211 212 212 213 214 216 223 136 61 104 126 151 156 93 77 50 53 94 97 112 108 110 136 186 189 194 155 145 99 86 65 63 59 56 55 132 163 213 220 219 217 217 217 219 161 133 57 47 56 63 70 82 94 119 132 182 186 187 149 102 104 97 86 72 45 50 47 124 165 134 123 79 75 70 120 221 215 213 212 211 211 211 212 212 211 210
212 212 211 211 211 212 212 213 214 216 223 144 71 109 128 148 152 87 70 48 53 97 102 129 138 162 167 172 178 182 173 167 142 128 89 82 73 59 49 100 124 207 220 219 217 217 216 217 128 89 48 51 72 86 103 131 154 161 166 171 172 171 166 162 141 120 92 75 46 49 48 123 159 136 127 85 86 93 138 221 216 213 212 211 211 211 212 212 212 211
212 212 211 211 212 212 212 213 214 216 222 164 106 120 128 131 128 60 45 45 53 114 123 143 144 149 131 94 81 65 64 63 60 58 53 63 79 71 67 94 111 189 204 220 218 219 207 196 127 99 69 69 80 69 55 60 62 62 64 65 79 109 130 149 143 135 117 97 56 52 47 102 127 132 132 106 130 174 190 219 216 213 212 211 212 212 211 211 211 211
212 212 212 212 212 212 212 213 214 216 222 163 111 124 130 122 115 59 46 44 55 125 133 149 145 124 105 70 58 41 40 40 41 42 44 58 73 80 83 99 114 187 201 220 219 219 205 192 130 104 88 82 73 65 42 42 40 40 40 40 57 87 108 130 144 145 127 105 65 55 46 91 107 129 133 108 133 177 193 218 215 213 212 212 212 212 211 211 211 210
213 212 212 212 212 212 212 213 214 216 221 167 122 129 131 112 99 55 46 44 57 142 149 161 146 39 35 41 39 36 39 42 42 43 44 39 30 95 132 120 124 185 199 220 219 219 204 189 136 116 133 117 31 36 41 42 42 42 39 33 35 40 38 31 121 165 150 128 90 63 44 67 78 128 136 114 138 182 198 219 216 214 213 212 212 212 212 211 211 210
213 212 212 211 212 212 213 213 215 216 221 157 109 120 124 86 72 52 47 45 58 147 155 178 168 98 78 42 77 112 67 41 44 44 43 87 125 130 143 151 152 187 198 219 218 219 204 187 152 146 155 133 103 92 43 43 44 43 59 119 99 43 63 87 148 180 163 137 92 64 45 59 63 114 125 111 125 158 182 220 216 214 213 212 212 212 212 212 212 211
213 213 212 211 212 212 213 213 215 216 222 152 99 114 121 68 48 49 48 46 59 152 168 207 206 206 157 47 141 224 96 36 41 42 42 161 243 159 128 184 191 189 197 219 218 219 202 185 186 197 149 147 227 169 39 41 42 40 85 230 181 46 114 210 206 205 179 148 95 65 44 46 50 109 119 112 116 128 162 221 216 214 213 212 212 212 212 212 212 211
213 212 211 211 212 212 213 213 215 216 222 150 93 104 109 65 49 49 48 46 59 151 165 205 206 212 198 166 183 200 162 148 153 154 161 201 221 194 183 199 202 192 199 219 218 218 202 187 201 206 191 193 214 193 155 151 146 145 161 201 188 157 183 213 207 201 174 146 92 63 44 47 51 80 93 110 118 139 171 220 216 214 213 212 212 212 212 212 212 212
213 212 211 212 212 212 213 213 215 216 222 153 93 98 100 62 47 48 48 46 59 149 163 206 207 220 221 226 207 191 203 209 211 213 217 215 213 218 221 214 209 195 199 219 218 218 202 190 208 213 222 220 211 213 217 211 206 205 199 189 200 226 223 219 209 200 169 143 91 62 43 45 49 64 78 108 123 150 177 220 216 213 212 212 212 212 212 212 212 211
212 212 211 211 212 212 213 213 214 216 221 163 110 101 98 76 64 51 48 47 58 137 149 198 201 215 217 219 217 217 218 219 219 219 220 220 219 217 217 213 210 197 201 219 218 218 203 190 208 214 220 218 217 218 219 217 218 217 217 216 218 219 216 213 203 196 155 131 84 59 42 45 50 75 86 109 132 184 197 219 216 213 212 212 212 212 212 211 211 211
212 212 211 211 212 212 212 213 214 216 220 168 118 104 98 86 79 53 48 47 59 136 147 195 198 214 216 219 219 220 220 220 219 219 219 219 218 217 217 214 211 198 202 219 218 219 205 193 208 213 219 218 217 218 219 219 219 219 219 219 219 218 215 212 200 193 154 127 82 58 42 47 52 84 96 112 135 193 202 219 216 213 212 212 212 212 212 212 212 211
213 212 212 212 212 212 212 212 213 215 220 170 121 106 99 179 201 75 48 47 58 123 130 182 188 209 212 217 218 220 219 218 218 218 217 217 217 217 217 214 211 199 203 219 217 218 207 197 208 213 218 217 217 218 217 218 218 218 217 218 218 216 212 207 191 179 138 112 71 53 43 61 78 189 192 115 133 195 204 218 216 214 212 212 212 212 212 212 212 211
213 212 212 212 212 212 212 212 214 216 220 170 122 108 100 198 220 77 48 46 57 117 124 176 183 206 211 217 218 220 220 218 217 217 218 218 217 217 217 213 211 200 203 218 217 218 207 198 209 213 218 217 217 218 218 218 218 218 218 218 217 215 211 205 187 174 136 110 67 51 44 66 86 209 210 116 129 186 199 218 216 214 213 212 212 212 212 212 212 211
213 212 212 211 212 212 212 213 214 216 219 168 119 108 101 197 218 87 56 47 54 90 98 154 160 193 200 208 213 217 219 218 217 217 217 218 217 217 217 213 210 199 203 218 217 218 207 198 209 213 217 217 217 218 218 218 217 218 218 214 213 208 201 195 170 153 113 88 53 48 45 72 94 208 209 114 125 175 195 218 215 214 213 212 212 211 212 212 212 210
212 212 211 211 212 212 213 213 214 216 219 168 122 111 105 198 218 96 64 46 54 85 94 149 152 188 195 204 210 215 218 218 218 217 217 218 218 217 217 213 209 200 205 220 218 219 207 198 209 212 218 217 217 217 218 218 217 217 217 213 211 207 198 191 164 144 106 81 54 50 48 82 104 210 206 112 124 171 189 218 215 214 213 212 212 211 212 212 212 210
212 212 211 211 212 212 212 213 214 216 219 171 128 116 110 199 219 124 87 43 50 68 82 130 134 171 181 195 204 212 215 216 219 218 217 218 218 217 217 210 207 202 206 221 220 220 209 200 208 211 218 217 217 217 218 218 218 215 215 210 207 201 190 180 147 128 89 69 51 48 46 94 123 211 205 113 125 167 187 219 215 214 213 212 212 212 212 212 212 211
213 212 211 211 212 212 212 213 214 216 219 176 136 119 111 199 217 116 86 87 84 62 75 124 128 164 174 189 200 209 212 214 217 218 218 217 218 218 217 206 204 203 207 221 220 220 209 201 206 207 217 217 217 217 218 218 218 213 212 206 202 193 180 170 138 118 91 70 49 76 99 104 112 210 207 113 126 173 190 218 216 213 212 212 211 211 211 211 212 212
213 212 211 211 212 212 212 213 214 216 219 182 148 122 110 200 215 97 94 217 182 46 60 109 113 148 161 176 190 202 207 210 215 217 218 217 218 218 218 203 200 206 211 225 224 224 214 207 206 203 217 217 217 217 218 217 217 210 207 200 196 186 169 154 124 103 93 70 34 147 231 128 100 209 209 114 129 182 198 218 216 213 212 211 211 211 211 211 212 212
213 212 211 211 211 212 212 213 214 215 216 197 183 137 107 198 215 96 97 215 197 124 126 108 107 131 146 163 181 196 203 208 214 216 218 218 218 218 217 171 158 134 138 164 166 167 149 135 158 169 213 219 217 218 218 217 214 206 204 193 186 170 154 137 116 102 97 104 113 177 226 124 100 210 210 115 136 201 207 217 215 213 212 211 211 211 212 212 212 211
213 212 212 212 212 212 212 212 213 214 214 213 217 153 109 199 216 100 103 213 219 226 206 107 101 119 134 152 172 192 201 206 213 215 218 218 218 218 218 151 132 94 100 130 132 135 110 93 133 152 213 219 218 218 218 215 212 205 202 188 180 163 145 123 111 102 102 155 231 221 220 123 99 210 210 116 140 216 214 216 214 213 212 211 211 211 211 211 212 211
213 212 212 212 212 212 212 212 213 214 214 213 217 154 113 200 217 104 108 214 218 217 208 119 97 114 127 138 160 181 194 199 208 212 218 218 218 218 218 184 165 84 74 68 72 76 71 63 151 196 219 219 218 218 218 213 208 199 194 176 167 148 134 118 109 107 139 178 224 219 219 126 104 210 209 118 141 219 216 216 214 212 212 211 211 211 211 211 212 211
213 212 212 212 212 212 212 212 213 214 214 214 218 155 116 200 217 107 111 215 219 217 214 126 95 112 123 134 155 174 188 194 205 210 217 218 219 218 218 200 182 95 84 63 68 72 75 74 166 213 220 218 218 218 217 212 207 195 189 172 162 145 131 119 111 110 164 195 223 218 220 127 107 210 209 121 143 220 216 215 214 212 212 212 211 211 211 211 211 210
213 212 211 211 211 211 212 212 213 214 214 214 218 159 118 199 216 111 115 215 219 219 222 133 95 112 119 129 148 165 181 189 201 207 214 216 220 219 218 217 215 208 197 136 133 129 170 202 214 220 219 218 218 217 215 210 204 191 184 165 156 140 128 120 112 115 204 217 218 218 218 128 109 210 210 124 147 220 216 214 213 212 212 212 211 211 211 211 211 210
213 212 211 211 211 212 212 212 213 214 214 215 218 164 128 201 216 115 118 215 219 219 222 133 99 113 121 128 145 161 177 185 197 203 213 215 220 219 219 219 219 221 213 174 169 167 197 218 219 219 218 218 218 217 215 209 202 188 182 163 155 139 128 121 113 116 209 220 217 217 218 133 113 209 212 134 154 219 215 213 213 212 212 212 211 211 211 211 211 210
212 212 211 211 212 212 212 212 213 214 214 216 219 177 144 204 216 121 124 214 219 219 221 133 104 115 122 127 142 155 170 178 193 200 212 215 219 219 219 220 220 223 223 226 227 227 226 224 222 220 219 218 218 216 214 207 199 184 176 159 151 136 128 121 114 117 210 219 217 217 218 139 118 210 216 153 166 218 215 213 213 213 212 211 212 212 211 211 211 210
212 212 211 211 212 212 212 212 213 214 214 215 217 202 192 211 211 125 126 215 219 218 217 133 112 115 120 126 141 152 167 174 190 197 211 214 219 220 220 215 209 188 185 180 180 181 181 182 202 211 220 220 219 216 212 203 196 180 172 155 149 138 130 123 118 121 209 220 217 216 216 142 124 195 205 195 197 216 213 213 213 213 212 211 212 212 211 211 212 210
213 212 211 211 212 212 212 212 213 214 214 214 215 218 221 213 205 128 131 215 219 218 217 141 122 116 119 127 140 152 165 172 188 195 211 213 215 215 215 206 197 166 160 152 149 148 149 152 185 196 215 216 216 214 212 202 193 179 171 152 147 138 131 125 126 133 210 219 216 216 216 148 130 184 194 218 220 215 213 213 213 213 212 212 212 212 211 211 211 210
213 212 211 211 211 211 211 212 213 214 214 215 216 216 217 209 201 130 134 215 219 218 218 205 197 125 117 125 138 147 161 168 184 192 209 173 127 91 67 71 71 67 65 63 63 62 64 65 67 65 68 76 112 147 207 196 189 172 165 148 143 135 128 117 178 209 217 218 216 216 216 148 130 182 194 216 217 215 213 213 213 213 212 212 212 212 211 211 211 211
212 211 211 211 211 211 212 212 213 214 214 215 216 216 217 209 202 132 135 215 219 218 218 220 212 124 116 123 135 144 157 164 182 189 206 172 124 79 52 56 58 63 66 69 70 70 69 67 60 55 53 64 112 148 204 192 186 167 160 147 141 131 121 111 185 223 219 218 217 217 216 149 131 189 198 216 217 215 213 213 213 213 212 212 211 211 211 212 212 211
212 211 211 211 212 212 212 212 213 214 214 215 216 216 216 215 211 135 137 214 219 218 218 220 207 118 113 115 130 139 151 157 172 179 193 189 184 163 147 152 158 183 191 211 211 213 201 191 156 143 139 151 187 191 193 184 177 161 156 144 139 127 114 99 183 222 218 218 217 217 217 149 135 208 217 217 216 214 213 214 213 213 212 211 211 211 211 211 212 211
213 212 211 211 211 212 212 212 213 215 215 216 216 216 215 215 211 138 140 214 219 218 218 220 209 155 141 108 124 136 147 152 167 173 189 190 190 177 166 161 161 176 177 187 187 188 178 173 153 150 163 170 190 191 190 180 172 158 153 136 130 115 130 146 195 221 218 218 217 217 217 152 141 211 218 217 216 214 213 214 213 213 212 211 210 210 211 211 212 211
213 212 211 211 211 211 212 212 213 215 216 216 217 216 215 216 212 146 146 215 220 219 218 218 219 227 188 90 113 133 141 143 157 165 183 186 192 194 199 174 160 153 144 137 135 133 131 131 145 155 197 197 191 188 185 173 164 149 145 128 118 90 151 227 219 218 217 217 217 218 220 162 150 211 219 217 216 214 213 213 213 213 212 211 211 210 211 211 211 211
213 212 211 211 211 211 212 213 214 214 216 216 217 217 217 217 214 158 156 210 216 220 218 218 218 220 205 171 127 82 118 134 150 157 174 182 193 195 198 191 185 181 171 140 138 134 156 171 177 183 196 194 189 184 180 167 155 141 131 81 103 167 188 220 217 217 217 217 217 207 199 167 161 212 219 217 216 214 213 213 213 213 212 211 211 211 211 211 211 210
213 212 211 211 211 212 212 213 214 214 215 216 216 217 217 217 215 171 169 204 212 220 218 218 218 218 220 231 128 35 101 129 145 150 168 177 192 195 198 202 203 204 189 138 137 130 173 203 202 201 195 192 186 181 178 163 151 138 121 42 89 223 222 218 217 217 217 216 217 200 183 171 171 214 219 217 215 214 213 213 213 212 212 211 211 211 211 211 211 210
213 212 211 211 211 212 212 212 213 215 215 215 216 216 216 216 215 203 201 177 186 220 218 218 218 218 218 226 123 40 60 68 119 132 151 162 178 186 194 201 203 211 209 198 197 197 207 213 206 202 193 187 176 166 157 141 132 81 64 40 95 223 220 218 217 217 217 216 218 184 155 194 203 217 218 217 215 214 213 213 213 212 212 211 211 211 211 211 211 210
213 212 212 211 211 211 212 212 213 215 215 215 216 216 216 216 216 218 215 162 171 220 218 218 218 218 218 226 122 38 46 50 105 119 143 152 173 181 191 201 203 214 218 222 222 222 219 216 207 202 190 184 172 160 148 128 116 64 48 38 101 229 220 218 217 217 217 216 219 177 142 204 222 219 218 217 215 213 213 213 213 212 212 210 210 210 211 211 211 210
212 212 211 211 211 211 212 212 214 214 214 215 216 216 216 216 216 218 214 164 172 220 219 218 218 218 218 226 122 37 43 44 45 58 109 128 154 166 175 194 200 212 214 220 220 220 218 217 207 202 184 176 155 140 126 74 42 42 39 38 101 230 220 217 217 217 217 217 221 179 146 203 220 218 218 217 216 214 213 213 213 213 212 211 210 210 210 211 211 209
212 212 211 211 211 211 212 212 214 214 214 215 216 216 216 216 216 218 213 166 175 216 216 219 218 218 218 226 122 38 43 43 41 53 91 108 140 156 167 187 194 208 211 216 216 216 215 213 202 198 176 165 139 122 101 62 37 40 39 40 102 228 219 217 217 217 218 215 213 181 155 205 219 218 217 217 216 214 213 213 213 213 212 212 211 211 211 211 211 210
212 211 211 211 211 212 212 212 213 214 215 216 217 216 216 216 216 217 212 182 181 182 198 221 218 218 218 226 123 39 44 43 43 43 37 60 99 126 147 169 175 197 200 202 202 202 201 197 189 182 157 144 104 77 34 39 40 39 38 39 103 226 218 217 217 217 219 200 171 177 184 212 218 217 215 215 215 216 215 215 213 213 212 212 211 211 211 211 211 209
213 212 211 211 211 212 212 212 213 213 208 209 209 213 217 216 215 215 213 196 194 180 196 221 219 218 219 226 130 47 52 50 44 42 41 52 71 89 101 134 146 169 172 178 179 178 173 173 163 151 106 97 73 60 38 38 39 45 45 47 107 223 218 217 217 217 219 201 171 188 198 214 218 217 214 214 209 205 210 213 215 213 212 211 211 211 211 211 210 209
213 212 211 211 211 212 213 213 217 192 68 63 60 157 225 215 214 214 214 216 210 179 197 221 218 218 218 225 136 63 65 61 44 41 42 41 40 40 40 96 116 138 143 148 148 149 148 150 139 122 47 41 38 39 40 37 37 53 56 61 109 219 218 218 217 217 219 200 168 200 219 217 218 217 214 222 136 50 56 138 224 214 212 211 211 211 211 211 211 210
212 212 211 211 211 212 213 213 217 192 46 36 35 164 231 217 215 214 214 216 211 187 202 219 217 217 217 224 140 69 73 70 54 50 41 41 41 42 43 60 65 71 74 74 73 72 73 74 70 65 44 42 38 38 38 46 52 62 65 66 110 218 217 218 217 217 218 201 176 203 218 217 217 217 211 188 107 28 29 136 231 215 212 211 211 211 211 212 212 211
212 212 211 211 211 212 212 213 217 194 42 30 30 171 234 218 215 214 214 216 212 194 205 217 216 216 216 224 143 72 76 75 62 53 33 34 34 34 34 30 30 29 29 28 29 29 29 28 26 26 30 31 31 31 30 47 60 67 69 66 109 219 217 217 216 216 217 204 186 209 217 216 216 216 208 149 80 25 24 143 235 216 212 211 211 210 211 212 212 211
212 211 211 211 211 212 212 213 215 203 132 129 129 191 222 214 213 213 213 213 211 204 209 215 214 214 214 217 186 160 161 162 157 155 145 144 141 139 139 140 141 140 140 140 141 141 143 142 141 138 136 137 140 142 144 149 156 159 161 157 173 217 215 215 214 214 214 210 206 212 214 214 213 214 210 182 151 128 124 177 223 214 212 211 211 211 211 212 212 211
211 211 211 211 211 212 212 212 212 213 220 221 221 216 212 211 212 212 213 212 212 213 213 212 213 213 213 214 218 221 221 221 221 222 223 223 223 223 223 223 223 223 223 223 223 222 223 223 223 223 222 222 222 222 222 221 221 220 219 219 218 215 214 213 213 213 212 213 214 213 213 213 212 212 212 216 221 222 222 218 213 212 211 211 210 211 211 211 211 210
212 211 211 211 211 211 211 211 212 212 212 212 212 212 212 211 212 212 212 212 212 212 212 212 212 213 213 213 213 214 214 214 213 213 214 214 214 214 214 214 214 214 214 214 214 213 214 214 214 214 213 214 214 214 214 213 213 213 213 213 213 213 213 213 213 212 212 213 213 213 213 212 212 212 212 213 213 213 213 212 212 212 211 210 209 210 211 211 211 210
212 211 211 211 212 211 211 211 212 212 212 212 212 212 212 212 212 212 212 212 212 212 212 212 212 212 212 212 213 214 214 213 213 213 213 213 214 214 213 213 213 213 214 214 213 213 213 213 213 213 213 213 213 213 213 213 213 213 213 213 213 213 213 212 213 212 212 213 213 213 213 213 212 212 212 212 212 212 212 212 212 212 211 211 210 210 211 211 211 211
212 212 211 211 211 211 211 211 211 211 212 211 211 212 211 212 212 212 212 212 212 212 212 212 212 212 212 212 213 213 213 212 212 212 213 213 213 213 213 213 213 213 213 213 213 213 213 213 213 213 213 213 213 212 212 212 212 212 212 212 213 213 212 212 212 212 212 212 212 212 212 211 211 211 211 212 212 211 211 211 211 211 211 211 211 211 211 211 211 211
212 212 212 211 211 211 211 211 211 211 211 211 211 211 211 211 211 211 212 212 212 212 212 212 212 212 211 211 211 212 212 212 211 211 212 213 213 213 212 212 212 212 212 212 212 212 212 212 212 212 212 212 212 212 212 212 212 212 212 212 212 212 212 212 212 212 212 212 212 212 212 211 211 210 210 211 211 211 211 211 211 211 211 211 211 211 211 211 211 211
213 212 212 212 211 211 211 211 211 211 211 211 211 211 211 211 211 211 211 212 212 211 211 211 211 211 211 211 211 211 212 212 211 211 212 212 212 212 212 212 211 212 212 212 212 212 212 212 212 212 212 212 212 212 212 212 212 212 212 212 212 212 211 211 211 212 212 212 212 211 211 211 211 210 210 211 211 211 209 209 210 210 210 210 210 211 212 212 212 211
213 212 212 212 211 211 211 211 211 211 211 211 211 211 212 211 211 211 211 211 212 211 211 211 211 211 211 211 211 211 212 211 211 211 211 212 212 212 212 212 212 212 212 212 212 212 211 212 212 212 212 211 212 212 212 212 212 212 211 211 212 212 211 211 211 211 212 212 212 211 211 211 211 211 211 211 211 211 210 210 211 211 210 210 210 211 211 211 211 210
213 212 211 211 211 211 211 211 211 211 211 211 212 212 212 211 211 211 211 211 211 211 211 211 211 211 211 211 211 212 212 211 211 211 211 212 212 212 212 212 212 212 212 212 212 212 212 212 212 212 211 211 211 212 212 212 212 212 211 211 211 211 211 211 211 211 212 212 212 212 211 211 211 211 211 212 211 211 211 211 212 211 211 211 211 211 211 210 211 210
214 213 212 212 212 211 211 211 212 213 213 212 212 212 211 211 211 211 211 211 211 211 211 211 212 212 212 212 213 213 213 213 212 211 211 212 212 212 212 212 212 212 212 212 212 212 212 212 212 212 211 211 211 211 212 213 213 213 213 211 211 211 211 211 211 212 212 212 212 212 212 212 211 212 212 212 212 211 211 212 212 212 211 211 211 211 211 211 211 211
