P2
90 90
255
161 146 156 175 180 160 139 139 159 168 157 178 212 205 230 234 225 223 208 180 183 148 139 161 173 179 170 157 161 164 170 152 140 137 156 167 144 139 145 140 160 167 171 158 145 135 182 246 250 237 212 204 153 122 113 115 123 150 157 166 181 172 174 149 110 124 155 122 137 199 143 101 125 131 129 132 138 132 129 134 129 159 218 227 226 226 226 226 226 226 
212 191 160 180 208 191 160 166 202 177 125 177 187 208 235 222 213 212 205 167 172 155 143 157 167 181 172 164 169 186 190 169 137 149 155 143 147 155 156 138 155 165 143 137 133 131 138 151 159 151 176 200 145 122 116 117 127 122 118 141 173 155 133 120 114 122 145 115 151 207 146 108 114 130 140 137 132 131 134 134 129 166 226 226 225 227 227 225 226 226 
237 227 156 159 191 178 178 179 184 156 139 183 190 224 238 214 195 190 208 213 214 191 146 142 140 148 151 167 173 187 183 187 162 169 156 141 142 155 170 153 156 155 143 133 134 131 126 129 128 128 149 178 137 127 133 120 113 120 124 142 171 145 112 114 118 111 115 112 117 123 121 123 123 123 138 150 135 121 117 124 122 159 223 227 228 225 224 227 226 226 
252 236 151 162 167 138 143 138 129 159 192 197 187 200 201 191 171 174 203 224 213 189 169 152 170 160 151 174 160 158 164 172 168 162 149 151 141 143 142 156 158 149 141 126 132 131 132 133 125 155 185 162 132 126 137 117 105 112 126 151 169 140 120 130 119 110 109 110 109 105 111 112 115 113 141 155 128 118 120 113 114 159 224 226 225 226 226 226 226 226 
240 219 155 154 141 120 122 119 124 148 170 166 155 144 162 202 195 183 184 185 187 191 195 166 179 186 156 156 146 153 160 151 149 161 163 176 166 157 155 159 157 144 151 136 122 126 124 132 128 146 168 150 168 172 124 103 110 116 123 136 151 144 139 140 118 108 105 114 121 115 131 114 102 107 139 157 136 120 111 106 105 163 227 226 225 226 226 223 225 225 
196 179 147 132 121 126 132 123 123 126 122 114 128 130 150 179 188 192 201 181 158 159 188 186 172 201 188 173 152 157 162 154 156 173 164 165 169 153 167 160 159 136 128 130 127 128 131 135 124 128 141 139 219 253 151 97 112 131 139 124 131 147 150 136 123 111 104 106 118 114 147 147 107 120 131 135 134 123 104 98 105 172 227 225 226 224 224 226 225 225 
199 162 127 130 135 146 135 120 118 127 114 107 114 124 118 109 169 212 206 195 196 175 191 199 180 183 168 172 161 162 156 151 146 145 152 144 141 128 144 149 158 128 111 113 129 136 129 123 121 126 136 128 154 179 118 99 107 116 135 131 133 141 147 137 116 99 104 119 113 103 127 140 120 118 126 126 123 119 112 96 97 178 227 224 225 225 225 224 224 224 
191 167 143 142 148 141 130 132 131 129 118 115 123 126 108 104 183 230 189 206 234 216 188 165 173 149 164 193 177 173 151 142 135 141 156 146 148 149 136 136 149 124 125 131 131 142 148 131 126 133 120 117 122 111 112 105 104 111 129 139 147 136 139 141 107 90 96 120 108 93 100 133 142 112 125 141 123 104 105 94 96 182 228 226 224 223 225 223 225 225 
167 160 158 164 165 146 151 169 158 130 126 123 153 155 133 132 194 223 210 217 225 217 203 171 157 138 154 170 139 143 147 149 140 148 149 147 146 151 151 136 137 131 136 144 137 149 161 131 128 127 121 111 112 111 109 110 118 126 135 158 153 129 139 144 118 96 88 93 92 96 101 120 127 125 139 156 139 117 107 97 100 190 226 224 226 224 225 222 214 203 
156 160 146 187 209 196 208 197 163 152 177 156 200 221 228 192 167 212 216 198 186 167 179 186 139 132 128 133 137 137 140 139 133 143 138 133 136 137 149 144 124 124 125 129 129 127 130 122 117 126 126 118 118 113 115 109 115 127 142 168 137 117 125 140 127 110 94 99 95 109 125 121 124 140 153 143 134 112 104 96 103 199 226 224 221 214 205 196 195 199 
163 169 138 172 211 203 195 176 163 183 197 202 208 218 251 242 222 217 207 194 168 169 158 143 124 123 130 156 157 143 132 121 121 127 125 131 134 129 162 205 149 119 117 128 140 117 118 121 125 138 125 115 122 115 122 115 101 115 120 119 122 136 144 148 165 131 113 118 114 115 120 126 132 132 135 126 119 109 105 93 119 206 217 206 201 199 200 209 216 219 
175 173 131 144 189 176 149 147 192 220 202 206 173 150 179 199 214 214 190 165 160 167 144 132 123 118 115 135 143 130 127 119 123 129 119 122 139 137 159 219 143 106 104 114 142 117 105 107 117 139 125 118 117 110 106 113 124 132 120 107 98 142 198 182 192 139 116 120 119 114 115 120 125 121 125 136 125 118 123 108 111 168 201 208 210 217 219 221 221 222 
174 166 129 121 163 175 169 174 204 225 220 218 196 168 180 161 146 170 151 135 147 148 144 156 141 121 120 129 127 126 124 119 128 123 111 106 128 135 126 125 106 107 104 97 107 101 99 104 118 137 140 128 113 116 157 206 234 244 243 234 206 169 148 137 146 114 107 107 109 120 131 120 112 113 110 123 131 121 123 121 108 145 213 221 221 222 223 222 223 222 
176 152 121 113 131 154 191 202 215 229 229 231 232 205 217 221 178 157 142 151 141 142 145 152 140 138 131 139 137 133 121 108 110 112 109 106 124 124 139 150 114 104 100 99 99 96 103 112 131 143 131 142 186 227 245 234 221 216 230 240 252 251 232 178 114 94 98 93 96 127 141 114 106 103 95 103 133 135 102 105 104 139 220 222 224 222 221 222 223 222 
173 155 124 126 132 134 169 186 210 208 228 237 226 199 206 218 202 177 153 140 131 145 143 126 120 119 114 118 137 146 142 109 113 114 111 110 121 128 147 151 116 102 111 97 90 92 93 110 129 131 160 224 238 208 167 141 138 140 148 163 175 193 233 255 227 127 95 107 101 109 106 97 97 103 102 95 113 127 94 94 102 145 222 222 220 222 223 221 222 223 
159 145 125 143 168 151 146 184 220 222 247 249 196 193 223 205 170 173 145 133 135 135 128 118 113 107 101 122 141 154 165 117 112 121 121 128 132 144 140 130 119 133 150 132 97 87 96 118 127 184 242 200 145 111 104 126 147 141 120 120 129 126 138 180 236 245 141 109 118 107 110 105 96 112 117 102 95 87 83 88 89 153 223 223 223 223 222 222 223 223 
136 139 119 133 187 179 144 183 205 219 238 219 182 210 227 202 163 155 136 134 139 140 137 118 105 105 113 125 126 107 117 112 106 119 134 165 190 171 143 134 129 131 145 136 115 111 106 104 161 245 172 99 99 123 147 165 175 169 142 139 136 135 124 115 131 212 238 127 112 128 132 124 114 119 116 104 104 95 89 86 79 156 224 223 222 221 221 221 223 223 
110 132 121 102 139 149 128 181 218 203 208 212 219 209 184 159 160 141 126 119 131 133 130 126 108 111 111 110 107 103 104 107 94 136 176 163 185 176 155 146 139 120 123 137 148 147 137 149 241 167 90 100 127 163 179 189 195 185 173 167 156 138 139 129 114 146 223 206 105 119 122 116 111 121 114 104 101 99 90 80 73 157 225 222 222 222 222 222 222 222 
98 133 123 100 121 135 112 130 213 222 223 227 229 193 142 150 161 147 135 135 129 119 115 131 129 124 103 108 105 96 94 90 87 115 130 116 118 141 146 139 131 122 127 139 136 141 142 216 211 100 98 131 160 184 193 199 198 199 199 190 190 177 150 155 158 153 175 233 137 85 96 108 103 122 127 116 96 91 86 71 68 162 226 221 221 222 222 223 222 221 
107 129 123 118 157 153 106 86 149 205 216 220 192 164 182 171 145 148 142 132 118 120 138 129 122 110 101 109 103 89 90 93 92 98 122 110 111 126 128 123 132 146 149 140 133 136 130 231 141 90 117 143 172 190 195 197 200 201 203 206 205 207 185 182 187 174 174 211 192 77 83 98 106 126 138 125 109 97 86 70 70 170 227 222 222 222 222 223 222 222 
138 134 122 142 168 138 92 116 184 222 230 220 160 179 211 152 140 154 155 145 132 125 127 109 108 99 98 102 97 93 91 97 103 104 133 161 143 123 122 123 119 135 135 117 118 115 150 214 97 100 121 143 177 191 189 196 199 203 204 207 207 203 201 199 197 191 185 188 211 90 82 95 115 125 126 119 123 111 84 69 74 177 225 222 222 222 222 223 221 222 
182 150 128 139 144 101 133 200 235 226 225 206 157 176 176 144 148 193 203 168 145 130 104 100 101 102 95 98 94 94 93 92 96 91 122 211 185 161 131 120 118 124 117 117 115 107 191 179 92 117 137 146 182 190 185 192 198 198 203 202 201 196 197 195 194 190 180 179 203 105 74 101 132 127 114 110 111 103 78 80 86 188 225 221 222 221 221 222 221 222 
205 164 128 120 113 105 166 228 236 204 216 192 162 155 166 147 124 146 167 139 125 126 112 99 94 94 99 97 89 90 89 88 87 88 93 125 170 202 141 118 138 138 115 123 119 112 206 141 95 123 135 150 183 185 186 189 194 196 193 194 194 192 188 187 186 183 179 175 180 94 81 104 121 114 108 109 108 103 92 96 96 194 222 220 222 222 222 221 222 222 
200 156 123 101 83 82 92 150 219 218 204 199 180 169 173 143 120 112 112 113 114 106 104 128 110 87 93 91 93 104 118 117 110 105 94 92 124 175 140 109 137 135 115 113 106 108 196 119 101 112 129 151 179 181 185 193 197 198 199 200 196 192 190 190 187 183 176 170 167 99 97 121 126 122 122 124 129 121 101 89 102 199 222 221 222 222 223 222 220 219 
176 139 115 94 87 74 69 86 180 224 233 237 214 196 166 160 152 130 133 125 104 93 106 138 109 92 91 119 140 189 189 176 203 187 132 116 133 172 127 92 95 99 115 120 110 112 189 110 107 110 129 169 181 179 185 195 198 199 205 204 201 193 192 193 193 187 183 180 149 84 89 113 124 126 117 116 128 122 104 93 112 205 222 213 214 209 208 203 198 196 
121 127 109 89 88 82 77 83 131 184 210 214 190 173 137 167 183 184 180 140 109 110 99 99 92 92 134 223 241 227 166 127 146 154 185 173 168 132 88 87 81 84 100 114 100 109 203 131 111 121 149 185 180 180 176 175 171 167 168 174 188 197 190 190 188 185 177 178 152 74 76 101 94 93 107 97 95 88 90 85 79 141 186 198 199 200 202 205 206 208 
87 121 109 86 86 81 73 97 132 145 158 158 140 149 172 159 178 203 165 120 123 154 152 117 99 126 200 253 194 153 179 181 164 121 113 176 160 95 78 83 90 90 87 84 76 161 210 183 129 122 162 186 182 178 163 137 110 93 103 121 156 186 191 163 122 103 110 132 137 87 71 66 71 87 108 91 74 81 89 95 72 88 193 215 212 216 216 218 218 220 
96 122 103 78 78 71 77 145 182 156 145 160 171 188 221 159 129 147 159 139 144 183 177 132 96 132 225 209 107 155 187 189 192 178 92 78 134 114 86 80 87 88 84 77 91 196 198 207 167 116 167 183 184 176 155 135 119 120 128 134 159 186 185 125 80 79 93 118 135 104 84 69 94 99 91 78 74 86 89 114 101 110 209 219 219 218 219 218 218 217 
91 119 101 72 61 69 75 93 109 128 141 147 194 209 211 180 154 137 160 154 119 112 115 107 104 168 199 101 103 145 136 165 162 152 116 66 89 132 112 84 82 83 85 79 103 201 204 195 173 138 173 179 186 183 178 185 184 170 153 158 156 178 179 141 139 157 155 147 140 106 90 82 94 97 95 85 79 86 89 91 93 135 215 219 219 218 219 218 218 218 
81 118 100 67 53 64 71 65 63 101 140 149 176 190 203 180 144 135 151 147 114 104 101 103 167 250 198 58 119 140 112 146 132 116 119 70 71 130 123 91 82 79 88 86 98 199 203 201 174 154 180 181 187 194 192 183 176 175 174 173 175 182 187 157 160 159 165 173 143 94 94 84 85 93 91 87 89 82 74 74 80 134 220 220 217 218 219 219 219 219 
83 110 96 64 51 56 61 53 56 70 100 146 160 169 182 154 143 151 138 113 101 99 101 121 210 247 153 58 132 166 156 157 154 154 143 68 73 127 126 103 97 90 89 82 87 189 201 199 171 146 179 181 189 195 192 189 185 188 188 183 172 182 191 166 160 176 173 181 144 69 85 91 91 98 97 94 90 86 82 89 93 145 221 219 220 217 218 219 219 219 
79 110 94 64 50 51 57 50 54 76 127 149 133 126 146 139 136 142 146 123 106 98 96 109 191 233 112 73 125 164 142 108 129 172 148 68 62 106 129 106 109 103 95 89 80 175 208 194 169 138 168 184 188 187 193 197 198 180 165 169 179 184 198 178 160 180 186 185 145 68 91 107 102 105 109 102 90 97 103 106 96 154 221 219 219 219 218 218 220 220 
79 113 95 63 50 81 118 81 57 75 105 119 111 130 135 116 114 129 154 150 124 115 120 145 195 227 105 70 95 119 108 114 110 129 116 67 60 93 128 97 109 124 106 89 79 159 212 202 163 141 151 175 182 188 190 195 185 159 166 161 160 169 186 177 154 172 185 184 158 74 88 104 105 106 102 99 92 94 99 102 101 164 221 218 219 218 218 219 220 219 
78 102 85 63 60 100 133 89 71 73 94 106 136 157 110 86 106 114 157 205 206 208 225 247 254 251 187 94 74 86 116 117 116 104 91 64 68 104 117 94 105 117 100 93 84 107 201 199 160 144 136 155 176 184 187 183 164 169 174 162 135 130 140 122 137 160 178 180 154 89 76 88 100 100 97 103 91 98 103 105 104 174 219 219 218 219 218 218 219 219 
68 79 69 68 83 88 83 77 87 88 92 115 181 176 92 78 98 100 178 245 252 255 255 255 255 255 253 241 187 116 93 90 90 84 69 70 107 135 108 94 99 104 95 100 88 76 110 194 183 144 138 150 164 175 181 168 145 159 145 145 156 155 150 109 118 133 168 173 144 121 94 92 92 89 107 112 105 119 119 113 106 185 219 220 216 219 217 221 218 220 
64 70 68 70 80 74 65 72 87 97 105 121 156 147 95 73 85 99 194 254 255 255 254 254 254 254 255 255 255 254 221 174 123 96 70 93 129 122 107 103 107 105 94 97 97 104 103 187 186 132 139 144 153 166 175 154 133 135 145 150 153 153 147 135 117 113 166 174 133 111 120 111 93 93 109 118 112 110 107 115 109 189 216 220 221 218 220 218 219 219 
65 72 67 87 108 97 93 98 102 118 131 121 125 125 96 71 76 121 190 254 255 254 254 255 255 254 254 254 254 255 255 254 253 224 165 142 139 144 128 120 165 141 103 154 143 112 125 199 179 131 139 145 153 149 160 148 122 149 138 130 130 132 123 115 133 136 170 158 101 80 107 97 98 104 115 127 109 107 108 107 102 192 219 218 219 219 219 220 220 219 
57 62 65 99 130 129 128 129 127 132 158 150 126 115 88 71 68 135 168 243 253 255 255 253 255 255 255 254 255 254 254 253 255 255 254 248 222 233 195 151 171 178 126 195 167 194 171 204 168 130 135 141 150 146 154 134 105 165 178 175 172 167 161 153 149 116 152 136 93 72 85 101 113 125 119 111 114 110 109 120 127 202 219 223 218 220 219 219 221 219 
54 63 65 88 113 114 116 120 120 113 133 138 125 111 82 68 70 144 159 218 254 255 255 254 254 255 252 254 255 254 253 255 255 255 254 255 254 255 254 245 228 215 178 182 229 182 100 191 165 122 117 127 138 144 137 112 96 142 169 183 166 141 153 164 145 92 121 115 85 83 88 123 120 108 112 107 153 164 117 114 134 209 216 216 220 219 221 221 221 221 
57 67 64 85 106 103 106 108 114 100 104 109 112 108 83 76 93 163 156 171 252 254 255 252 244 253 255 253 255 254 255 254 254 255 255 255 255 254 254 254 254 254 254 254 252 220 210 228 209 178 148 138 132 130 111 93 90 104 118 172 156 116 136 155 106 69 82 106 111 99 118 172 205 165 145 145 157 145 117 117 109 148 189 202 201 202 201 202 203 204 
58 69 63 82 106 104 104 104 108 113 115 111 108 112 82 67 126 174 147 142 239 249 233 229 223 214 205 232 254 254 254 255 255 255 255 255 255 255 255 255 255 255 255 255 255 254 254 254 254 254 253 249 239 230 220 204 186 175 158 176 180 169 164 155 106 70 73 116 157 152 167 188 177 211 185 149 119 102 98 108 98 109 197 210 207 207 204 202 202 201 
56 66 60 77 101 98 106 109 109 112 114 116 109 111 86 107 170 174 123 160 231 218 202 186 199 216 235 249 255 254 253 254 255 255 255 255 255 255 255 255 255 254 255 255 255 254 254 255 254 255 255 255 255 255 255 255 254 255 255 255 252 255 252 250 237 162 131 142 142 177 210 207 153 143 175 173 180 145 99 106 98 117 210 219 220 218 216 218 217 217 
56 64 70 145 166 127 100 102 107 109 107 105 102 112 134 164 172 157 102 158 220 204 212 248 255 255 255 255 255 255 254 255 255 255 255 255 255 255 255 255 254 254 254 254 254 254 254 254 253 255 255 254 254 255 255 254 254 253 254 255 254 255 255 254 254 205 165 159 119 111 195 219 165 123 175 210 236 161 97 103 99 137 218 221 217 218 219 218 218 218 
71 156 158 159 197 184 139 139 107 108 108 103 136 177 170 165 167 119 88 177 214 190 210 254 254 254 254 255 254 254 255 253 255 255 255 255 255 255 255 255 254 255 255 255 254 255 255 255 255 254 255 255 254 253 255 255 254 255 255 252 243 227 210 189 170 159 159 145 122 99 127 182 158 115 148 214 230 174 171 130 140 171 212 218 220 219 217 217 218 218 
93 175 179 103 124 126 146 173 109 101 107 183 236 188 153 169 145 82 70 186 217 188 174 249 255 254 254 255 255 254 255 254 255 255 255 255 255 255 255 255 255 254 254 255 255 255 255 255 255 255 254 255 255 255 254 246 227 206 187 170 155 143 136 135 140 150 155 146 127 113 104 154 149 120 202 228 210 207 231 156 128 177 214 219 218 219 217 219 218 218 
92 94 123 144 181 181 129 102 82 89 145 222 181 148 161 160 113 58 46 172 222 184 126 208 252 255 253 255 255 253 254 255 255 255 255 255 255 255 255 255 254 255 255 255 254 254 255 255 254 254 248 233 210 186 165 149 142 137 142 140 137 137 137 141 146 149 156 149 116 133 144 137 140 186 246 238 238 241 238 212 192 193 213 218 220 218 219 217 219 218 
122 109 145 163 155 187 195 150 64 83 152 160 142 160 166 141 64 45 65 174 217 194 102 121 222 251 255 254 254 253 254 253 255 255 255 255 255 255 255 255 255 255 254 255 254 250 233 215 192 171 148 134 125 121 124 133 143 150 154 148 138 135 139 140 143 152 157 151 160 142 176 158 197 246 242 250 251 250 223 205 219 203 212 220 219 216 218 218 219 218 
190 130 110 135 153 190 228 224 86 65 136 145 156 165 156 109 54 51 83 187 206 209 148 127 166 222 253 254 255 254 254 255 255 255 255 255 255 255 255 255 250 240 220 196 172 153 140 131 128 126 130 127 125 129 131 137 146 153 151 143 132 133 138 139 144 155 161 150 137 106 139 211 218 205 203 237 239 195 144 149 181 198 214 219 219 220 218 218 218 218 
170 134 111 143 182 203 224 235 100 72 146 156 166 159 136 90 74 67 121 190 205 211 170 165 146 169 230 251 254 255 255 255 255 255 255 252 242 228 207 189 172 158 144 133 132 134 135 138 136 133 131 128 129 132 136 140 146 145 140 129 128 135 144 149 157 164 153 142 126 108 129 195 156 135 173 196 213 151 146 154 148 194 216 219 219 218 219 218 218 218 
147 113 121 168 185 186 213 225 85 97 161 162 158 142 105 68 56 51 121 184 199 211 185 171 173 121 184 225 248 253 255 254 242 215 195 180 162 149 144 147 152 151 149 142 140 143 141 138 142 141 135 130 129 132 138 143 143 151 137 129 134 140 140 140 141 151 129 115 139 124 148 178 143 111 149 172 196 217 235 211 149 190 217 220 218 219 218 219 217 219 
141 140 112 150 154 173 226 202 67 93 158 156 137 120 79 47 57 76 99 174 194 211 200 170 193 141 121 188 217 245 254 227 160 147 147 154 156 150 147 152 152 151 150 146 145 146 143 139 143 143 138 135 134 135 137 135 143 223 234 194 141 120 107 114 114 101 93 102 116 122 127 155 128 100 110 121 157 210 227 199 145 195 218 217 217 220 218 218 218 217 
168 187 185 171 186 209 214 116 48 65 113 113 114 92 54 46 52 79 80 163 195 211 207 172 182 179 109 124 185 213 215 167 140 144 152 156 157 151 145 150 153 152 153 151 149 150 148 145 142 141 136 129 123 118 115 112 105 181 255 255 237 177 98 107 114 109 91 84 93 111 139 138 125 115 112 115 118 140 148 120 125 200 218 218 219 216 218 219 218 218 
184 204 226 212 239 246 218 189 149 73 71 79 96 90 59 46 48 55 60 127 201 207 205 189 173 188 142 96 128 180 178 145 139 144 145 148 153 151 149 151 153 155 157 153 152 152 145 134 124 114 105 94 86 80 77 81 80 84 143 223 254 254 239 180 133 99 78 90 112 109 116 133 118 124 143 141 112 86 99 105 142 206 217 218 219 217 219 219 218 217 
233 230 231 201 225 255 254 254 255 178 91 87 86 85 56 48 50 52 64 110 195 205 209 198 177 187 179 125 93 132 160 147 135 139 139 144 148 148 150 154 154 149 142 133 124 117 102 88 78 68 62 56 57 62 65 70 73 76 77 101 170 240 254 254 242 197 119 70 92 101 101 112 128 110 133 135 126 103 76 88 110 149 192 208 211 215 218 218 218 217 
243 243 228 210 231 246 252 255 254 252 208 195 191 181 168 150 137 95 60 97 183 202 205 204 187 182 192 163 114 97 118 130 132 135 136 137 138 137 132 126 119 109 93 81 70 62 57 53 51 50 53 53 58 65 69 74 79 85 100 110 122 157 211 247 255 254 248 178 96 84 83 75 100 101 109 131 112 129 101 105 86 96 180 200 196 197 201 204 210 214 
254 251 228 196 213 229 218 213 220 251 255 255 254 255 255 252 252 247 132 80 173 200 202 203 188 173 194 185 147 107 92 100 113 120 120 111 105 97 84 78 71 62 54 53 54 52 52 53 54 54 59 66 72 77 85 94 102 112 127 140 150 157 163 178 213 250 255 243 156 101 95 82 85 87 74 95 95 75 128 184 154 117 200 213 210 206 201 198 196 195 
242 253 227 201 231 254 242 225 208 222 242 250 254 254 250 245 249 255 153 117 173 195 202 205 189 174 183 195 171 130 101 89 89 90 85 75 66 62 61 56 57 58 57 57 60 62 64 65 68 72 83 93 102 107 113 118 121 128 136 141 138 136 135 131 126 142 166 161 134 127 132 122 107 116 94 86 93 65 82 160 221 192 205 216 213 213 213 212 210 207 
215 214 224 211 206 211 210 200 177 181 148 113 120 121 129 135 137 139 115 138 145 202 203 203 192 171 169 197 186 153 119 99 86 77 73 67 64 61 60 62 60 63 67 71 77 82 86 92 96 105 116 123 129 132 131 125 118 117 118 113 104 99 101 106 106 97 87 87 91 100 108 100 96 123 123 117 120 102 85 102 160 236 215 213 215 215 213 213 214 213 
198 196 190 195 189 178 192 225 171 113 103 82 63 64 89 129 158 180 151 119 157 200 203 201 184 164 159 186 194 175 138 115 101 87 79 73 69 68 71 73 78 83 89 94 105 115 119 125 129 133 133 132 132 131 123 111 101 98 95 89 84 83 88 95 99 95 89 86 80 83 97 89 69 87 91 92 117 120 91 100 94 194 221 214 215 214 214 214 215 214 
155 168 153 174 206 201 207 234 192 109 114 107 86 79 151 218 245 197 117 146 191 198 202 196 175 168 154 159 193 185 161 133 114 100 92 87 81 83 94 99 105 110 116 120 125 130 128 128 129 129 123 120 119 116 106 93 86 85 83 79 78 78 75 78 82 85 80 76 74 77 95 95 68 75 90 75 82 90 70 74 73 107 211 217 214 213 214 214 214 214 
91 122 122 134 157 164 164 140 116 133 138 128 99 88 186 240 190 101 125 183 196 201 201 187 176 169 152 111 161 198 176 155 133 119 113 110 100 102 118 127 126 126 126 124 118 112 107 104 107 108 108 107 107 104 94 83 77 73 69 68 72 75 73 76 83 80 82 74 69 75 104 119 96 92 105 75 75 91 82 55 74 70 167 223 213 212 214 214 213 215 
89 138 179 156 92 81 82 79 96 131 163 162 113 93 186 204 122 116 153 182 193 198 197 179 178 167 139 63 112 203 190 173 156 139 132 128 116 113 122 123 118 115 116 115 106 94 90 93 92 92 94 97 94 87 78 72 71 66 62 65 76 83 80 78 85 82 76 91 128 106 88 114 100 98 124 101 96 115 115 50 82 91 129 221 213 214 212 212 213 213 
158 171 224 187 86 86 89 122 169 174 200 201 127 100 195 206 130 128 160 184 187 194 190 175 176 153 114 38 72 184 201 188 170 143 131 125 114 109 108 101 95 96 103 113 109 96 90 89 84 83 87 90 87 77 69 68 68 67 65 68 78 84 80 75 75 76 75 121 222 215 138 103 93 88 107 95 97 111 115 70 85 82 87 204 216 211 213 213 213 212 
229 186 222 198 132 169 200 198 215 220 230 225 138 109 221 144 90 168 169 187 187 190 187 174 165 144 82 31 44 137 206 193 167 127 110 103 95 94 93 91 96 98 104 115 111 95 82 76 78 80 88 89 83 75 68 69 72 72 72 76 79 78 75 76 76 77 80 100 192 239 198 135 102 88 100 79 78 95 99 67 100 103 65 163 220 213 211 211 212 213 
230 195 219 216 208 228 244 242 241 243 246 239 145 121 156 79 163 189 175 187 193 191 184 171 158 133 52 47 48 89 195 193 150 106 89 86 81 84 91 99 107 106 104 103 95 79 69 67 70 75 80 83 80 75 74 72 71 72 72 75 76 74 78 80 83 87 91 95 107 149 159 145 120 102 117 103 91 115 92 59 92 124 68 104 217 212 209 213 212 211 
220 187 218 210 201 236 246 242 243 244 246 237 143 150 136 123 222 166 175 186 194 191 184 172 154 109 38 63 61 62 162 191 128 89 85 83 83 83 90 103 112 113 103 92 83 71 64 63 67 70 74 78 76 74 73 71 71 71 71 74 77 81 86 86 83 87 90 99 106 106 121 129 112 90 113 111 87 113 93 60 93 118 70 84 201 214 212 209 211 212 
221 178 204 184 195 243 244 240 238 240 241 235 140 168 152 208 197 167 183 179 194 194 182 175 149 78 42 82 62 50 109 180 118 81 84 86 84 80 91 100 112 113 102 94 91 83 73 67 62 64 66 70 72 73 75 75 75 77 78 78 80 87 92 90 83 80 87 99 110 110 111 119 109 80 94 94 77 94 89 74 115 103 82 76 182 215 212 211 212 211 
206 166 212 184 207 246 242 241 240 238 241 229 152 165 155 224 166 170 175 183 193 189 181 166 143 57 44 87 69 41 88 153 125 80 85 88 85 85 85 93 99 100 94 90 90 83 72 65 63 66 72 78 81 81 82 83 82 82 81 80 82 91 96 94 89 84 86 96 107 113 110 112 112 93 100 111 90 93 84 74 127 103 98 81 157 218 210 209 210 211 
173 176 220 201 232 244 245 241 242 240 242 238 195 197 242 181 159 175 176 184 190 181 175 166 129 49 46 70 76 51 90 117 144 102 86 88 86 85 78 82 81 79 75 72 73 73 72 74 79 83 88 90 88 83 80 80 85 82 82 84 91 96 95 94 91 91 93 96 108 112 113 116 106 87 95 115 97 102 92 71 106 88 89 82 135 209 208 211 209 210 
206 185 216 215 240 243 242 243 241 242 241 153 94 177 212 154 170 173 180 188 184 178 169 165 114 44 57 76 81 54 106 94 156 151 109 95 85 78 73 70 70 69 69 69 74 81 87 91 89 88 88 86 83 79 78 81 88 88 88 88 92 97 96 94 93 96 100 104 110 109 106 99 95 72 71 93 89 94 89 84 82 61 88 96 142 192 192 199 206 209 
207 196 217 223 240 242 241 240 240 247 192 114 171 237 164 165 169 176 183 185 178 176 170 166 92 43 77 83 74 62 128 96 144 186 157 118 89 82 79 80 79 80 84 87 89 93 94 93 88 83 82 82 82 83 86 89 88 93 96 93 94 99 100 98 95 94 89 105 118 95 83 72 98 82 64 92 87 80 71 78 79 58 83 89 146 203 197 190 189 195 
153 186 218 212 220 229 235 235 240 230 153 172 247 191 155 171 169 177 186 183 178 169 167 156 69 50 74 79 72 65 99 70 96 182 187 149 108 94 98 99 101 94 92 93 95 97 94 93 88 83 84 86 85 86 90 91 93 93 99 98 96 99 106 111 101 88 82 95 140 110 82 79 116 96 69 95 89 81 79 68 73 77 77 68 122 206 205 201 196 189 
232 215 229 229 215 198 222 247 254 205 184 251 215 157 163 168 177 180 184 179 174 171 166 141 51 63 73 78 60 62 91 67 63 152 197 169 125 109 106 107 101 97 96 98 96 100 98 95 88 84 84 88 92 91 92 94 96 99 99 97 88 87 92 103 79 69 60 65 116 94 71 76 117 116 97 124 117 99 84 57 66 64 57 46 93 205 206 204 204 202 
152 149 149 170 155 138 147 175 214 201 207 227 158 161 170 166 175 182 182 175 172 170 164 122 55 76 91 81 74 58 85 81 56 112 183 175 132 112 110 107 102 100 102 104 103 102 99 95 90 83 88 93 95 97 97 92 91 91 94 91 69 71 67 79 54 48 50 54 87 91 57 54 80 119 113 107 112 119 113 73 58 69 68 41 76 189 209 205 205 204 
81 69 126 216 142 71 78 110 195 206 201 185 154 167 166 168 181 180 181 174 170 170 160 111 62 83 91 71 80 61 68 95 69 88 155 168 133 116 117 115 107 103 107 107 106 105 104 99 91 87 90 92 89 88 91 78 71 76 88 83 62 66 66 78 56 51 48 68 71 57 53 48 67 83 63 86 86 85 103 81 71 86 65 45 74 152 210 204 204 204 
108 101 199 255 186 88 98 187 200 130 160 158 162 171 164 173 186 177 176 174 169 167 157 98 69 96 63 76 85 63 71 82 70 73 112 150 133 121 118 119 113 109 109 112 111 110 108 102 95 109 96 83 76 76 92 74 71 78 99 99 75 75 78 89 61 51 51 79 92 53 45 49 69 65 57 67 78 71 73 80 65 78 64 56 90 123 206 204 203 203 
116 127 239 255 186 104 136 190 88 76 142 157 166 169 165 174 183 179 175 174 169 166 155 83 64 78 80 93 84 56 86 79 59 66 84 134 130 124 121 121 111 109 113 117 117 110 100 94 97 122 99 73 66 78 110 94 89 91 114 121 89 89 93 111 79 74 68 97 122 81 64 60 84 81 59 67 64 53 51 51 57 58 86 99 71 87 200 203 202 202 
103 141 250 254 180 90 179 153 99 104 143 164 164 166 165 180 179 177 174 173 169 166 150 86 46 58 80 93 79 49 92 97 63 63 71 111 117 124 127 120 111 106 109 112 115 97 82 77 86 112 94 70 63 70 100 87 82 82 106 106 80 85 80 101 73 66 66 89 118 89 77 74 102 112 83 90 83 66 54 64 54 53 98 83 55 74 191 204 201 201 
125 174 250 246 183 131 181 116 109 114 152 163 162 169 171 180 185 175 173 170 165 163 140 95 54 62 69 79 85 50 92 99 68 72 91 124 121 123 130 129 117 96 102 102 106 77 66 66 77 105 85 65 60 64 92 80 76 70 97 97 73 76 72 90 65 59 58 76 116 80 65 66 93 106 90 104 102 94 46 61 78 72 70 54 59 72 177 204 199 199 
221 223 235 237 235 208 128 89 78 110 163 163 159 166 179 181 184 179 176 170 163 158 136 101 58 56 91 94 70 47 87 93 65 69 88 125 117 114 122 131 120 92 107 112 120 86 84 82 98 135 108 75 70 76 108 86 83 68 106 131 90 84 83 96 66 58 57 76 113 77 57 55 76 95 85 90 99 87 47 49 67 66 63 58 59 58 163 204 199 199 
230 220 231 240 222 167 133 109 94 91 161 163 163 169 177 181 181 177 177 167 161 152 137 105 52 54 61 67 63 51 93 94 59 61 79 110 102 94 104 121 115 87 106 112 121 87 86 85 104 139 106 81 76 83 118 98 97 87 109 124 97 91 90 108 74 69 65 84 126 96 75 68 80 101 75 79 86 66 36 54 49 60 68 72 61 45 147 205 197 197 
215 219 225 234 213 160 153 130 98 78 122 164 166 174 177 181 178 178 170 163 159 143 148 94 80 66 36 47 60 63 93 114 74 69 81 114 98 82 94 106 97 71 86 93 96 67 64 66 81 119 86 68 68 78 109 95 98 88 108 106 83 79 82 100 70 66 64 88 123 94 74 74 92 117 91 95 99 59 45 54 72 78 74 65 61 61 148 203 197 197 
166 173 184 197 208 199 138 103 76 82 82 131 170 178 177 180 178 177 172 161 151 145 144 97 97 69 35 50 49 56 83 129 85 80 91 127 114 95 98 122 113 81 95 98 107 73 69 67 86 114 87 66 61 76 100 90 86 80 96 105 77 70 70 90 59 53 52 70 104 75 61 61 83 105 93 94 100 59 64 75 87 81 66 56 86 83 148 202 196 197 
192 188 184 183 180 176 105 98 87 75 80 89 155 182 180 175 176 178 167 155 144 161 122 77 81 73 50 55 47 46 64 114 79 61 73 114 115 106 108 131 124 92 110 109 118 78 76 74 100 126 91 67 71 78 111 101 97 94 115 116 93 77 83 96 66 61 59 77 109 76 60 57 72 89 74 86 79 54 61 85 74 84 62 59 68 101 162 197 195 196 
153 147 144 144 137 140 114 93 103 88 101 127 127 164 181 180 180 172 165 149 150 150 87 67 73 57 63 59 48 48 62 106 80 58 59 91 86 77 85 109 107 83 102 108 112 82 78 80 103 124 83 73 69 88 117 105 108 97 131 129 114 93 94 104 71 69 66 92 116 83 65 63 86 100 80 86 75 52 57 64 83 94 59 48 52 90 157 187 194 194 
154 151 148 141 137 133 135 113 138 158 143 123 101 101 138 170 179 166 152 130 119 95 81 87 90 59 62 66 70 60 64 108 90 58 60 94 92 76 71 90 86 62 76 79 81 61 57 60 80 86 61 58 58 72 101 91 92 90 115 116 94 84 85 96 67 66 61 86 107 80 71 71 97 98 85 98 83 54 52 62 70 64 48 51 67 76 106 169 178 189 
230 234 230 210 188 185 188 140 139 133 119 89 76 74 66 103 118 107 96 79 67 74 83 82 66 66 68 89 95 82 92 134 118 72 73 103 97 80 75 91 87 61 78 79 83 55 55 55 75 104 67 51 51 63 89 73 76 68 89 98 87 74 77 83 58 54 51 69 81 55 56 56 79 78 94 96 91 62 52 52 56 82 68 66 74 51 86 172 169 170 
178 179 176 163 156 151 156 113 103 76 78 92 110 113 91 68 57 76 86 76 78 66 52 58 60 75 71 83 71 63 71 122 121 95 97 133 134 109 99 109 101 69 88 89 93 59 58 58 78 112 69 54 53 60 86 74 75 68 96 98 87 77 83 82 61 59 58 77 73 48 46 51 63 55 69 65 74 73 71 64 78 85 60 49 55 50 95 157 185 174 
134 135 131 131 128 126 126 123 108 106 101 100 118 129 130 107 91 91 72 61 81 66 62 72 72 62 60 87 74 53 59 98 92 63 67 107 113 101 120 134 123 97 121 124 123 88 86 85 101 141 94 67 62 68 98 81 81 71 94 103 92 85 90 86 65 67 69 94 74 49 46 51 66 56 56 61 62 67 63 50 52 60 47 41 66 68 58 94 184 183 
147 147 147 145 143 141 137 141 130 95 122 131 122 131 131 115 91 76 78 99 68 94 96 82 95 81 78 92 73 55 59 99 88 57 59 86 85 68 92 106 98 77 103 105 105 71 74 78 99 143 111 85 89 89 126 109 112 101 133 136 122 111 116 111 89 91 99 132 103 77 66 66 92 76 62 70 49 49 48 41 48 51 42 68 120 76 49 54 160 188 
