P2
45 45
255
255 255 255 255 255 255 255 255 255 255 255 255 255 255 255 255 255 255 255 255 255 255 255 255 255 255 255 255 255 255 255 255 255 255 255 255 255 255 255 255 255 255 255 255 255
255 255 255 255 255 255 255 255 255 255 255 255 255 255 255 255 255 255 255 255 255 255 255 255 255 255 255 255 255 255 255 255 255 255 255 255 255 255 255 255 255 255 255 255 255
255 255 255 255 255 255 255 255 255 255 255 255 255 255 255 255 255 255 255 255 255 255 255 255 255 255 255 255 255 255 255 255 255 255 255 255 255 255 255 255 255 255 255 255 255
255 255 255 255 255 255 255 255 255 255 255 255 255 255 255 255 255 255 255 255 255 255 255 255 255 255 255 255 255 255 255 255 255 255 255 255 255 255 255 255 255 255 255 255 255
255 255 255 255 255 255 255 255 255 255 255 255 255 255 255 255 255 255 255 255 255 255 255 255 255 255 255 255 255 255 255 255 255 255 255 255 255 255 255 255 255 255 255 255 255
255 255 255 255 255 255 255 255 255 255 255 255 255 255 255 255 255 255 255 255 255 255 255 255 255 255 255 255 255 255 255 255 255 255 255 255 255 255 255 255 255 255 255 255 255
255 255 255 255 255 255 255 255 255 255 255 255 255 255 255 255 255 255 255 255 255 255 255 255 255 255 255 255 255 255 255 255 255 255 255 255 255 255 255 255 255 255 255 255 255
255 255 255 255 255 255 255 255 255 255 255 255 255 255 255 255 255 255 255 255 255 255 255 202 208 213 255 255 255 255 255 255 255 255 255 255 255 255 255 255 255 255 255 255 255
255 255 255 255 255 255 255 255 255 255 255 255 255 255 255 255 255 255 255 255 255 255 201 185 156 139 148 217 255 255 255 255 255 255 255 255 255 255 255 255 255 255 255 255 255
255 255 255 255 255 255 255 255 255 255 255 255 255 255 255 255 255 180 255 255 255 255 213 239 185 137 170 228 255 255 255 255 255 255 255 255 255 255 255 255 255 255 255 255 255
255 255 255 255 255 255 255 255 255 255 255 255 255 255 255 213 122 171 229 186 233 220 121 154 255 255 255 255 255 255 255 255 255 255 255 255 255 255 255 255 255 255 255 255 255
255 255 255 255 255 255 255 255 255 255 255 255 255 220 150 142 96 137 163 195 187 152 188 78 146 119 255 255 255 255 255 255 255 255 255 255 255 255 255 255 255 255 255 255 255
255 255 255 255 255 255 255 255 255 255 255 255 255 99 117 122 101 160 238 255 228 167 179 88 133 93 224 255 255 255 255 255 255 255 255 255 255 255 255 255 255 255 255 255 255
255 255 255 255 255 255 255 251 222 213 195 212 212 107 121 92 163 236 226 197 255 213 222 96 120 74 193 255 231 241 222 210 222 251 224 255 255 255 255 255 255 255 255 255 255
244 255 255 255 255 255 255 255 255 255 255 255 255 125 130 105 183 255 196 161 245 255 203 135 89 72 232 255 221 203 238 255 255 255 255 255 255 255 255 255 255 255 255 255 255
255 255 255 255 255 255 255 255 255 255 255 255 255 255 255 135 183 154 136 56 161 187 158 86 90 121 255 255 255 255 255 255 255 255 255 255 255 255 244 224 251 249 255 255 255
255 255 255 255 255 255 255 255 255 255 255 255 255 255 255 156 110 106 220 135 246 150 127 76 106 212 255 255 255 255 255 255 255 255 255 255 255 255 255 255 255 255 255 255 255
255 255 255 243 244 242 250 255 255 255 250 205 217 255 255 216 40 80 231 178 250 117 91 62 163 214 183 255 255 255 255 255 255 255 255 255 255 255 255 255 255 255 255 255 255
255 255 255 255 255 255 255 255 255 255 255 255 255 255 255 224 76 34 210 240 232 92 70 63 145 188 236 169 255 255 224 203 213 208 255 255 255 255 255 255 255 255 255 255 255
255 255 255 255 255 233 215 168 190 255 255 255 255 255 255 202 177 63 72 105 104 87 95 167 140 178 255 177 255 255 255 255 255 255 255 255 255 255 255 255 255 255 255 248 255
255 200 210 244 225 173 163 174 195 253 255 255 239 242 255 173 170 142 72 108 97 44 114 123 114 166 255 188 246 222 183 162 155 143 148 176 200 229 255 255 234 220 199 198 223
255 250 253 255 255 245 207 195 187 198 195 180 168 166 225 191 88 136 93 94 66 60 70 87 98 156 255 190 236 243 240 218 203 181 169 168 191 190 180 195 210 202 225 237 242
219 215 241 255 255 212 194 192 185 172 172 174 176 182 245 233 104 101 90 34 108 150 68 97 102 179 207 192 218 226 216 227 252 255 255 255 255 255 255 255 255 255 255 255 255
255 255 254 255 255 255 255 234 224 222 226 239 255 255 255 243 137 106 118 38 126 164 90 73 100 158 198 211 244 255 255 255 255 255 255 255 255 255 255 255 255 255 255 255 255
248 247 248 250 255 255 255 255 255 255 255 255 255 255 255 245 166 70 119 70 60 54 131 52 86 176 201 192 255 255 255 255 255 255 255 255 255 255 255 255 255 255 255 255 255
255 255 255 255 255 255 255 255 255 255 255 255 255 255 255 220 223 110 115 155 95 85 147 62 102 167 196 212 255 255 255 255 255 255 255 255 255 255 255 255 255 255 255 255 255
255 255 255 255 255 255 255 255 255 255 255 255 255 255 255 228 242 154 90 170 132 115 96 58 121 154 153 189 219 255 255 255 255 255 255 255 255 255 255 255 255 255 255 255 255
255 255 255 255 255 255 255 255 255 255 255 255 255 255 255 255 226 176 95 141 182 135 146 103 106 145 190 193 205 255 255 255 255 255 255 255 255 255 255 255 255 255 255 255 255
255 255 255 255 255 255 255 255 255 255 255 255 255 255 255 255 202 176 142 160 165 162 149 122 84 98 99 86 169 255 255 255 255 255 255 255 255 255 255 255 255 255 255 255 255
255 255 255 255 255 255 255 255 255 255 255 255 255 255 255 255 233 214 204 255 255 214 199 168 108 131 60 91 169 255 255 255 255 255 255 255 255 255 255 255 255 255 255 255 255
255 255 255 255 255 255 255 255 255 255 255 255 255 255 255 255 255 223 130 158 216 255 255 181 144 255 163 87 161 255 255 255 255 255 255 255 255 255 255 255 255 255 255 255 255
255 255 255 255 255 255 255 255 255 255 255 255 255 255 255 255 255 255 112 69 111 144 255 200 248 255 255 107 157 255 255 255 255 255 255 255 255 255 255 255 255 255 255 255 255
255 255 255 255 255 255 255 255 255 255 255 255 255 255 255 255 255 255 147 104 77 195 165 255 255 255 255 243 132 205 255 255 255 255 255 255 255 255 255 255 255 255 255 255 255
255 255 255 255 255 255 255 255 255 255 255 255 255 255 255 255 255 255 161 138 150 223 255 255 255 255 255 255 145 155 255 255 255 255 255 255 255 255 255 255 255 255 255 255 255
255 255 255 255 255 255 255 255 255 255 255 255 255 255 255 255 255 255 214 160 170 152 255 255 255 255 255 255 129 122 236 255 255 255 255 255 255 255 255 255 255 255 255 255 255
255 255 255 255 255 255 255 255 255 255 255 255 255 255 255 255 255 255 255 132 181 255 255 255 255 255 255 255 96 88 173 255 255 255 255 255 255 255 255 255 255 255 255 255 255
255 255 255 255 255 255 255 255 255 255 255 255 255 255 255 255 255 255 255 255 240 213 255 255 255 255 255 255 210 109 118 255 255 255 255 255 255 255 255 255 255 255 255 255 255
255 255 255 255 255 255 255 255 255 255 255 255 255 255 255 255 255 255 255 255 255 238 243 255 255 255 255 255 255 255 255 255 255 255 255 255 255 255 255 255 255 255 255 255 255
255 255 255 255 255 255 255 255 255 255 255 255 255 255 255 255 255 255 255 255 255 255 248 206 220 217 255 255 255 255 255 255 255 255 255 255 255 255 255 255 255 255 255 255 255
255 255 255 255 255 255 255 255 255 255 255 255 255 255 255 255 255 255 255 255 255 255 255 255 174 198 201 234 255 255 255 255 255 255 180 201 228 255 255 255 255 255 255 255 255
255 255 255 255 255 255 255 255 255 255 255 255 255 255 255 255 255 255 255 255 255 255 255 255 255 143 169 255 255 255 255 255 255 255 255 243 255 255 255 255 255 255 255 255 255
255 255 255 255 255 255 255 255 255 255 255 255 255 255 255 255 255 255 255 255 255 255 255 255 255 255 255 255 255 246 255 255 255 255 255 255 255 255 255 255 255 255 255 255 255
255 255 255 255 255 255 255 255 255 255 255 255 255 255 255 255 255 255 255 255 255 255 255 255 255 255 255 255 255 255 255 255 255 255 255 255 255 255 216 244 255 252 182 104 140
255 255 255 255 255 255 255 255 255 255 255 255 255 255 255 255 255 255 255 255 255 255 255 255 255 255 255 255 255 255 190 255 255 255 181 186 255 255 255 255 207 168 172 187 255
255 255 255 255 255 255 255 255 255 255 255 255 255 255 255 255 255 255 255 172 146 205 179 215 246 255 228 221 189 160 114 126 124 166 131 161 170 240 200 255 248 235 255 167 191
